mtllib Copie_de_vis_cadran^Horloge_Comtoise_Verge_-_Sonnerie_instance_1.mtl
usemtl Copie_de_vis_cadran^Horloge_Comtoise_Verge_-_Sonnerie_instance_1
#Wavefront export of shape 1-3--Copie_de_vis_cadran_Horloge_Comtoise_Verge_-_Sonnerie

g Face_1
v 0.10191700000000001 0.127531 0.026600000000000006
v 0.10041699999999999 0.129031 0.026600000000000006
v 0.098917 0.127531 0.026600000000000006
v 0.10041699999999999 0.126031 0.026600000000000006
v 0.10191700000000001 0.127531 0.026600000000000006
v 0.10191700000000001 0.127531 0.034100000000000005
v 0.100417 0.126031 0.034100000000000005
v 0.098917 0.127531 0.034100000000000005
v 0.100417 0.129031 0.034100000000000005
v 0.10191700000000001 0.127531 0.034100000000000005
vn 1 -0 2.22045e-16
vn -1.60812e-16 1 -3.57075e-32
vn -1 -3.21625e-16 -2.22045e-16
vn -1.83697e-16 -1 -4.07889e-32
vn 1 6.43249e-16 2.22045e-16
vn 1 6.43249e-16 2.22045e-16
vn -1.83697e-16 -1 -4.07889e-32
vn -1 -3.21625e-16 -2.22045e-16
vn -1.60812e-16 1 -3.57075e-32
vn 1 -0 2.22045e-16
f 9//9 1//1 2//2 
f 9//9 10//10 1//1 
f 8//8 2//2 3//3 
f 8//8 9//9 2//2 
f 7//7 3//3 4//4 
f 7//7 8//8 3//3 
f 6//6 4//4 5//5 
f 6//6 7//7 4//4 

g Face_2
v 0.10191700000000001 0.127531 0.026600000000000006
v 0.10041699999999999 0.129031 0.026600000000000006
v 0.098917 0.127531 0.026600000000000006
v 0.10041699999999999 0.126031 0.026600000000000006
v 0.10191700000000001 0.127531 0.026600000000000006
v 0.10041699999999999 0.127531 0.025600000000000005
v 0.10041699999999999 0.127531 0.025600000000000005
vn 0.5547 0 -0.83205
vn 9.55497e-17 0.5547 -0.83205
vn -0.5547 -1.78405e-16 -0.83205
vn 8.28555e-17 -0.5547 -0.83205
vn 0.5547 3.5681e-16 -0.83205
vn 0 0 0
vn 0 0 0
f 12//12 11//11 16//16 
f 13//13 12//12 16//16 
f 17//17 13//13 16//16 
f 14//14 13//13 17//17 
f 15//15 14//14 17//17 

g Face_3
v 0.10326700000000001 0.127531 0.034100000000000005
v 0.10150459 0.13016532 0.034100000000000005
v 0.09839717 0.12954167 0.034100000000000005
v 0.0977867 0.12643372 0.034100000000000005
v 0.10045548010000001 0.12468126 0.034100000000000005
v 0.10244510000000001 0.12552867 0.034100000000000005
v 0.10191700000000001 0.127531 0.034100000000000005
v 0.100417 0.126031 0.034100000000000005
v 0.098917 0.127531 0.034100000000000005
v 0.100417 0.129031 0.034100000000000005
vn 2.22045e-16 -0 -1
vn 2.22045e-16 -0 -1
vn 2.22045e-16 -0 -1
vn 2.22045e-16 -0 -1
vn 2.22045e-16 -0 -1
vn 2.22045e-16 -0 -1
vn 2.22045e-16 -0 -1
vn 2.22045e-16 -0 -1
vn 2.22045e-16 -0 -1
vn 2.22045e-16 -0 -1
f 25//25 22//22 21//21 
f 26//26 25//25 21//21 
f 20//20 26//26 21//21 
f 23//23 22//22 25//25 
f 24//24 23//23 25//25 
f 27//27 26//26 20//20 
f 18//18 23//23 24//24 
f 19//19 24//24 27//27 
f 19//19 18//18 24//24 
f 19//19 27//27 20//20 

g Face_4
v 0.10326700000000001 0.127531 0.034100000000000005
v 0.10150459 0.13016532 0.034100000000000005
v 0.09985531700000001 0.1303251 0.034100000000000005
v 0.09839717 0.12954167 0.034100000000000005
v 0.0977867 0.12643372 0.034100000000000005
v 0.09885335 0.12514825000000002 0.034100000000000005
v 0.10045548010000001 0.12468126 0.034100000000000005
v 0.10244510000000001 0.12552867 0.034100000000000005
v 0.099985375 0.12534432 0.0352
v 0.10084862500000001 0.12534432 0.0352
v 0.099985375 0.127530642516 0.0361686176
v 0.099985375 0.12971768 0.0352
v 0.10084862500000001 0.12971768 0.0352
v 0.10084862500000001 0.12753135748400002 0.0361686176
vn 0.955117 3.50801e-15 0.29623
vn 0.364489 0.882834 0.296229
vn -0.188237 0.936384 0.296229
vn -0.676902 0.673834 0.29623
vn -0.881487 -0.367735 0.29623
vn -0.524026 -0.798527 0.29623
vn 0.0128814 -0.955029 0.296232
vn 0.679674 -0.671038 0.296229
vn -0.14465 -0.732818 0.664871
vn 0.14465 -0.732818 0.664871
vn -0.14465 -0.000119803 0.989483
vn -0.14465 0.732818 0.664871
vn 0.14465 0.732818 0.664871
vn 0.14465 0.000119803 0.989483
f 39//39 30//30 31//31 
f 40//40 30//30 39//39 
f 29//29 30//30 40//40 
f 38//38 31//31 32//32 
f 38//38 39//39 31//31 
f 36//36 32//32 33//33 
f 36//36 38//38 32//32 
f 28//28 40//40 41//41 
f 28//28 29//29 40//40 
f 35//35 41//41 37//37 
f 35//35 28//28 41//41 
f 34//34 37//37 36//36 
f 34//34 36//36 33//33 
f 34//34 35//35 37//37 

g Face_5
v 0.099985375 0.12534432 0.0352
v 0.099985375 0.127530642516 0.0361686176
v 0.099985375 0.12971768 0.0352
vn 1 -0 2.22045e-16
vn 1 -0 2.22045e-16
vn 1 -0 2.22045e-16
f 44//44 43//43 42//42 

g Face_6
v 0.10084862500000001 0.12971768 0.0352
v 0.10084862500000001 0.12753135748400002 0.0361686176
v 0.10084862500000001 0.12534432 0.0352
vn -1 0 -2.22045e-16
vn -1 0 -2.22045e-16
vn -1 0 -2.22045e-16
f 45//45 47//47 46//46 

g Face_7
v 0.099985375 0.12534432 0.0352
v 0.10084862500000001 0.12534432 0.0352
v 0.10084862500000001 0.12971768 0.0352
v 0.099985375 0.12971768 0.0352
vn -2.22045e-16 0 1
vn -2.22045e-16 0 1
vn -2.22045e-16 0 1
vn -2.22045e-16 0 1
f 50//50 48//48 49//49 
f 50//50 51//51 48//48 

