mtllib Copie_de_Vis_bas_pillier^Horloge_Comtoise_Verge_-_Sonnerie.mtl
usemtl Copie_de_Vis_bas_pillier^Horloge_Comtoise_Verge_-_Sonnerie
#Wavefront export of shape 1-30--Copie_de_Vis_bas_pillier_Horloge_Comtoise_Verge_-_Sonnerie

g Face_1
v 0.0422442628 0.0521181384 -0.08035
v 0.04502045171536 0.05175376322863 -0.08035
v 0.046092988915360004 0.049167324828629996 -0.08035
v 0.044389337200000004 0.046945261599999996 -0.08035
v 0.04161314828464 0.04730963677137 -0.08035
v 0.04054061108464 0.04989607517137 -0.08034999999999999
v 0.0422442628 0.0521181384 -0.08035
v 0.042244262799999995 0.05211813839999999 -0.0823
v 0.041590660373680005 0.05173633580104 -0.0823
v 0.041796710786286 0.051883151099388 -0.0823
v 0.042015172492982006 0.052010766086406 -0.0823
v 0.04159066037368001 0.05173633580104 -0.08405
v 0.040519057289880006 0.049643992145539995 -0.08405
v 0.04141952887908001 0.047472492363139995 -0.08405
v 0.04365734762632001 0.046752490698959995 -0.08405
v 0.04365734762632 0.046752490698959995 -0.0823
v 0.04504293962632 0.047327064198959996 -0.0823
v 0.044618427507018 0.047052633913593996 -0.0823
v 0.044151490392842004 0.046859005708486 -0.0823
v 0.04504293962632001 0.047327064198959996 -0.08405
v 0.04611454271012001 0.04941940785446 -0.08405
v 0.04521407112092001 0.05159090763686 -0.08405
v 0.04297625237368001 0.05231090930104 -0.08405
v 0.04297625237368 0.05231090930104 -0.0823
v 0.042244262799999995 0.05211813839999999 -0.0823
v 0.042482109607158 0.052204394291513995 -0.0823
v 0.042726771865454004 0.052268826283332 -0.0823
vn -0.383049 0.923728 -5.7943e-16
vn 0.608447 0.793594 9.20386e-16
vn 0.991496 -0.130134 1.49982e-15
vn 0.383049 -0.923728 5.7943e-16
vn -0.608447 -0.793594 -9.20386e-16
vn -0.991496 0.130134 -1.49982e-15
vn -0.383049 0.923728 -5.7943e-16
vn -0.383049 0.923728 -5.7943e-16
vn -0.616479 0.787371 -9.32535e-16
vn -0.542889 0.839804 -8.21217e-16
vn -0.464867 0.885381 -7.03194e-16
vn -0.616479 0.787371 -9.32535e-16
vn -0.999196 0.0401038 -1.51146e-15
vn -0.677598 -0.735432 -1.02499e-15
vn 0.121625 -0.992576 1.83979e-16
vn 0.121625 -0.992576 1.83979e-16
vn 0.616479 -0.787371 9.32535e-16
vn 0.464867 -0.885381 7.03194e-16
vn 0.298104 -0.954533 4.50935e-16
vn 0.616479 -0.787371 9.32535e-16
vn 0.999196 -0.0401038 1.51146e-15
vn 0.677598 0.735432 1.02499e-15
vn -0.121625 0.992576 -1.83979e-16
vn -0.121625 0.992576 -1.83979e-16
vn -0.383049 0.923728 -5.7943e-16
vn -0.298104 0.954533 -4.50935e-16
vn -0.210724 0.977545 -3.18758e-16
f 13//13 9//9 12//12 
f 7//7 10//10 9//9 
f 7//7 11//11 10//10 
f 7//7 8//8 11//11 
f 6//6 9//9 13//13 
f 6//6 7//7 9//9 
f 16//16 14//14 15//15 
f 5//5 13//13 14//14 
f 5//5 6//6 13//13 
f 5//5 14//14 16//16 
f 21//21 17//17 20//20 
f 4//4 18//18 17//17 
f 4//4 19//19 18//18 
f 4//4 16//16 19//19 
f 4//4 5//5 16//16 
f 3//3 17//17 21//21 
f 3//3 4//4 17//17 
f 24//24 22//22 23//23 
f 2//2 21//21 22//22 
f 2//2 3//3 21//21 
f 2//2 22//22 24//24 
f 1//1 26//26 25//25 
f 1//1 27//27 26//26 
f 1//1 24//24 27//27 
f 1//1 2//2 24//24 

g Face_2
v 0.0422442628 0.0521181384 -0.08035
v 0.04502045171536 0.05175376322863 -0.08035
v 0.046092988915360004 0.049167324828629996 -0.08035
v 0.044389337200000004 0.046945261599999996 -0.08035
v 0.04161314828464 0.04730963677137 -0.08035
v 0.04054061108464 0.04989607517137 -0.08034999999999999
v 0.04398713575000001 0.047915176000000004 -0.08035
v 0.045061351935020005 0.04966969397531 -0.08035
v 0.043724651982140005 0.05123350749022 -0.08035
v 0.041824321791420004 0.05044548376546 -0.08035
v 0.04198653854142 0.04839463876901 -0.08035
vn -1.51268e-15 -8.19866e-23 1
vn -1.51268e-15 -8.19866e-23 1
vn -1.51268e-15 -8.19866e-23 1
vn -1.51268e-15 -8.19866e-23 1
vn -1.51268e-15 -8.19866e-23 1
vn -1.51268e-15 -8.19866e-23 1
vn -1.51268e-15 -8.19866e-23 1
vn -1.51268e-15 -8.19866e-23 1
vn -1.51268e-15 -8.19866e-23 1
vn -1.51268e-15 -8.19866e-23 1
vn -1.51268e-15 -8.19866e-23 1
f 36//36 29//29 28//28 
f 35//35 29//29 36//36 
f 30//30 29//29 35//35 
f 37//37 36//36 28//28 
f 33//33 37//37 28//28 
f 34//34 30//30 35//35 
f 38//38 37//37 33//33 
f 31//31 30//30 34//34 
f 32//32 34//34 38//38 
f 32//32 31//31 34//34 
f 32//32 38//38 33//33 

g Face_3
v 0.04504293962632001 0.047327064198959996 -0.08405
v 0.04297625237368001 0.05231090930104 -0.08405
v 0.04297625237368 0.05231090930104 -0.0823
v 0.04504293962632 0.047327064198959996 -0.0823
vn -0.923728 -0.383049 -1.3973e-15
vn -0.923728 -0.383049 -1.3973e-15
vn -0.923728 -0.383049 -1.3973e-15
vn -0.923728 -0.383049 -1.3973e-15
f 39//39 41//41 40//40 
f 39//39 42//42 41//41 

g Face_4
v 0.04159066037368001 0.05173633580104 -0.08405
v 0.04365734762632001 0.046752490698959995 -0.08405
v 0.04365734762632 0.046752490698959995 -0.0823
v 0.041590660373680005 0.05173633580104 -0.0823
vn 0.923728 0.383049 1.3973e-15
vn 0.923728 0.383049 1.3973e-15
vn 0.923728 0.383049 1.3973e-15
vn 0.923728 0.383049 1.3973e-15
f 43//43 45//45 44//44 
f 43//43 46//46 45//45 

g Face_5
v 0.04159066037368001 0.05173633580104 -0.08405
v 0.04365734762632001 0.046752490698959995 -0.08405
v 0.040519057289880006 0.049643992145539995 -0.08405
v 0.04141952887908001 0.047472492363139995 -0.08405
vn 1.51268e-15 8.19866e-23 -1
vn 1.51268e-15 8.19866e-23 -1
vn 1.51268e-15 8.19866e-23 -1
vn 1.51268e-15 8.19866e-23 -1
f 50//50 47//47 48//48 
f 50//50 49//49 47//47 

g Face_6
v 0.04504293962632001 0.047327064198959996 -0.08405
v 0.04297625237368001 0.05231090930104 -0.08405
v 0.04611454271012001 0.04941940785446 -0.08405
v 0.04521407112092001 0.05159090763686 -0.08405
vn 1.51268e-15 8.19866e-23 -1
vn 1.51268e-15 8.19866e-23 -1
vn 1.51268e-15 8.19866e-23 -1
vn 1.51268e-15 8.19866e-23 -1
f 51//51 54//54 53//53 
f 51//51 52//52 54//54 

g Face_7
v 0.04398713575000001 0.047915176000000004 -0.08035
v 0.045061351935020005 0.04966969397531 -0.08035
v 0.043724651982140005 0.05123350749022 -0.08035
v 0.041824321791420004 0.05044548376546 -0.08035
v 0.04198653854142 0.04839463876901 -0.08035
v 0.04398713575000001 0.047915176000000004 -0.08035
v 0.04398713575 0.047915176 -0.07865000000000001
v 0.04198653854142 0.04839463876901 -0.07865000000000001
v 0.041824321791420004 0.05044548376546 -0.07865000000000001
v 0.043724651982140005 0.05123350749022 -0.07865000000000001
v 0.045061351935020005 0.04966969397531 -0.07865000000000001
v 0.04398713575 0.047915176 -0.07865000000000001
vn 0.383049 -0.923728 5.7943e-16
vn 0.996886 0.0788536 1.50797e-15
vn 0.233061 0.972462 3.52546e-16
vn -0.852847 0.522161 -1.29008e-15
vn -0.760149 -0.649749 -1.14986e-15
vn 0.383049 -0.923728 5.7943e-16
vn 0.383049 -0.923728 5.7943e-16
vn -0.760149 -0.649749 -1.14986e-15
vn -0.852847 0.522161 -1.29008e-15
vn 0.233061 0.972462 3.52546e-16
vn 0.996886 0.0788536 1.50797e-15
vn 0.383049 -0.923728 5.7943e-16
f 59//59 60//60 61//61 
f 59//59 61//61 62//62 
f 58//58 62//62 63//63 
f 58//58 59//59 62//62 
f 57//57 63//63 64//64 
f 57//57 58//58 63//63 
f 56//56 64//64 65//65 
f 56//56 57//57 64//64 
f 55//55 65//65 66//66 
f 55//55 56//56 65//65 

g Face_8
v 0.04297625237368 0.05231090930104 -0.0823
v 0.04504293962632 0.047327064198959996 -0.0823
v 0.044618427507018 0.047052633913593996 -0.0823
v 0.044151490392842004 0.046859005708486 -0.0823
v 0.04365734762632 0.046752490698959995 -0.0823
v 0.041590660373680005 0.05173633580104 -0.0823
v 0.041796710786286 0.051883151099388 -0.0823
v 0.042015172492982006 0.052010766086406 -0.0823
v 0.042244262799999995 0.05211813839999999 -0.0823
v 0.042482109607158 0.052204394291513995 -0.0823
v 0.042726771865454004 0.052268826283332 -0.0823
vn 1.51268e-15 8.19866e-23 -1
vn 1.51268e-15 8.19866e-23 -1
vn 1.51268e-15 8.19866e-23 -1
vn 1.51268e-15 8.19866e-23 -1
vn 1.51268e-15 8.19866e-23 -1
vn 1.51268e-15 8.19866e-23 -1
vn 1.51268e-15 8.19866e-23 -1
vn 1.51268e-15 8.19866e-23 -1
vn 1.51268e-15 8.19866e-23 -1
vn 1.51268e-15 8.19866e-23 -1
vn 1.51268e-15 8.19866e-23 -1
f 71//71 67//67 68//68 
f 71//71 68//68 69//69 
f 71//71 69//69 70//70 
f 71//71 72//72 73//73 
f 71//71 73//73 74//74 
f 71//71 74//74 75//75 
f 71//71 75//75 76//76 
f 71//71 76//76 77//77 
f 71//71 77//77 67//67 

g Face_9
v 0.04398713575 0.047915176 -0.07865000000000001
v 0.04264774217824 0.04791464186912 -0.07865000000000001
v 0.041700276 0.04886136425 -0.07865000000000001
v 0.041699741869120004 0.05020075782176 -0.07865000000000001
v 0.04264646425 0.051148224 -0.07865000000000001
v 0.043985857821760004 0.05114875813088 -0.07865000000000001
v 0.044933324000000004 0.05020203575 -0.07865000000000001
v 0.04493385813088 0.04886264217824 -0.07865000000000001
v 0.043891373500000004 0.048146108 -0.07865000000000001
v 0.042591738819515 0.04821857652917 -0.07865000000000001
v 0.041838094931811 0.049279855828458 -0.07865000000000001
v 0.042197942229622004 0.050530773957126 -0.07865000000000001
v 0.043400314628278 0.051029370454074 -0.07865000000000001
v 0.044539796111651 0.050400189882678 -0.07865000000000001
v 0.044758342843515 0.049117017958669996 -0.07865000000000001
vn -1.51268e-15 -8.19866e-23 1
vn -1.51268e-15 -8.19866e-23 1
vn -1.51268e-15 -8.19866e-23 1
vn -1.51268e-15 -8.19866e-23 1
vn -1.51268e-15 -8.19866e-23 1
vn -1.51268e-15 -8.19866e-23 1
vn -1.51268e-15 -8.19866e-23 1
vn -1.51268e-15 -8.19866e-23 1
vn -1.51268e-15 -8.19866e-23 1
vn -1.51268e-15 -8.19866e-23 1
vn -1.51268e-15 -8.19866e-23 1
vn -1.51268e-15 -8.19866e-23 1
vn -1.51268e-15 -8.19866e-23 1
vn -1.51268e-15 -8.19866e-23 1
vn -1.51268e-15 -8.19866e-23 1
f 84//84 92//92 85//85 
f 86//86 78//78 85//85 
f 86//86 85//85 92//92 
f 91//91 92//92 84//84 
f 83//83 91//91 84//84 
f 79//79 78//78 86//86 
f 87//87 79//79 86//86 
f 90//90 91//91 83//83 
f 82//82 90//90 83//83 
f 80//80 79//79 87//87 
f 88//88 80//80 87//87 
f 89//89 90//90 82//82 
f 81//81 88//88 89//89 
f 81//81 89//89 82//82 
f 81//81 80//80 88//88 

g Face_10
v 0.0438913735 0.048146108 -0.07435
v 0.041931208 0.0489571265 -0.07435
v 0.0427422265 0.050917292 -0.07435
v 0.044702391999999994 0.0501062735 -0.07435
v 0.0438913735 0.048146108 -0.07435
v 0.043891373500000004 0.048146108 -0.07865000000000001
v 0.043891373500000004 0.048146108 -0.07865000000000001
v 0.041931208000000005 0.0489571265 -0.07865000000000001
v 0.0427422265 0.050917291999999996 -0.07865000000000001
v 0.044702392 0.0501062735 -0.07865000000000001
vn 0.383049 -0.923728 5.7943e-16
vn -0.923728 -0.383049 -1.3973e-15
vn -0.383049 0.923728 -5.7943e-16
vn 0.923728 0.383049 1.3973e-15
vn 0.383049 -0.923728 5.7943e-16
vn 0.383049 -0.923728 5.7943e-16
vn 0.383049 -0.923728 5.7943e-16
vn -0.923728 -0.383049 -1.3973e-15
vn -0.383049 0.923728 -5.7943e-16
vn 0.923728 0.383049 1.3973e-15
f 100//100 93//93 94//94 
f 100//100 99//99 93//93 
f 101//101 94//94 95//95 
f 101//101 100//100 94//94 
f 102//102 95//95 96//96 
f 102//102 101//101 95//95 
f 98//98 96//96 97//97 
f 98//98 102//102 96//96 

g Face_11
v 0.04379561125 0.048377039999999996 -0.0741
v 0.042162139999999994 0.04905288875 -0.0741
v 0.04283798874999999 0.05068636 -0.0741
v 0.04447146 0.050010511249999993 -0.0741
v 0.04379561125 0.048377039999999996 -0.0741
v 0.0438913735 0.048146108 -0.07435
v 0.0438913735 0.048146108 -0.07435
v 0.041931208 0.0489571265 -0.07435
v 0.0427422265 0.050917292 -0.07435
v 0.044702391999999994 0.0501062735 -0.07435
vn 0.270857 -0.653174 0.707107
vn -0.653174 -0.270857 0.707107
vn -0.270857 0.653174 0.707107
vn 0.653174 0.270857 0.707107
vn 0.270857 -0.653174 0.707107
vn 0.270857 -0.653174 0.707107
vn 0.270857 -0.653174 0.707107
vn -0.653174 -0.270857 0.707107
vn -0.270857 0.653174 0.707107
vn 0.653174 0.270857 0.707107
f 110//110 103//103 104//104 
f 110//110 109//109 103//103 
f 111//111 104//104 105//105 
f 111//111 110//110 104//104 
f 112//112 105//105 106//106 
f 112//112 111//111 105//105 
f 108//108 106//106 107//107 
f 108//108 112//112 106//106 

g Face_12
v 0.04379561125 0.048377039999999996 -0.0741
v 0.042162139999999994 0.04905288875 -0.0741
v 0.04283798874999999 0.05068636 -0.0741
v 0.04447146 0.050010511249999993 -0.0741
vn -1.51268e-15 -8.19866e-23 1
vn -1.51268e-15 -8.19866e-23 1
vn -1.51268e-15 -8.19866e-23 1
vn -1.51268e-15 -8.19866e-23 1
f 115//115 114//114 113//113 
f 115//115 113//113 116//116 

