mtllib Copie_de_Vis_Bras_grande_detente^Horloge_Comtoise_Verge_-_Sonnerie.mtl
usemtl Copie_de_Vis_Bras_grande_detente^Horloge_Comtoise_Verge_-_Sonnerie
#Wavefront export of shape 1-9--Copie_de_Vis_Bras_grande_detente_Horloge_Comtoise_Verge_-_Sonnerie

g Face_1
v -0.10427092000000004 0.1580055 -0.00420000000000006
v -0.10600741061314004 0.15959057217189998 -0.004200000000000023
v -0.10805150856870004 0.15842888930029997 -0.004199999999999955
v -0.10757834164370005 0.1561258536247 -0.0041999999999999486
v -0.10524181133814003 0.15586418651309997 -0.004200000000000014
v -0.10427092000000004 0.1580055 -0.00420000000000006
v -0.10427092000000002 0.1580055 -0.0034500000000000594
v -0.10426295092870003 0.15796457565626798 -0.0034500000000000594
v -0.10425584749522501 0.15792349194221 -0.0034500000000000594
v -0.10424959375140001 0.15788227061250001 -0.003450000000000059
v -0.10423597648260001 0.1577574573875 -0.0029500000000000585
v -0.10496549576886 0.15605347794674998 -0.0029500000000000234
v -0.10678115348114 0.15568044456924998 -0.002949999999999968
v -0.10812339851740001 0.1569587726125 -0.00294999999999994
v -0.10816009374860001 0.1570788443875 -0.00344999999999994
v -0.10818026852430002 0.15715974873126798 -0.0034499999999999405
v -0.10819704907130001 0.157241424343732 -0.0034499999999999405
v -0.10821040624860002 0.15732372938749997 -0.003449999999999941
v -0.1082240235174 0.1574485426125 -0.0029499999999999414
v -0.10749450423114001 0.15915252205325 -0.0029499999999999765
v -0.10567884651886 0.15952555543075 -0.002950000000000032
v -0.1043366014826 0.1582472273875 -0.0029500000000000593
v -0.10429990625140002 0.1581271556125 -0.00345000000000006
v -0.10428940130397502 0.15808680770779 -0.0034500000000000594
v -0.10427973147570002 0.158046251268732 -0.0034500000000000594
v -0.10427092000000002 0.1580055 -0.0034500000000000594
vn 0.97954 0.20125 -2.97468e-14
vn 0.111294 0.993788 -1.16045e-14
vn -0.910756 0.412944 2.25749e-14
vn -0.674172 -0.738574 2.55565e-14
vn 0.494095 -0.869408 -6.78004e-15
vn 0.97954 0.20125 -2.97468e-14
vn 0.97954 0.20125 -2.97468e-14
vn 0.983522 0.180788 -2.96875e-14
vn 0.987077 0.160246 -2.96153e-14
vn 0.990203 0.139636 -2.95302e-14
vn 0.997013 0.0772294 -2.91965e-14
vn 0.632252 -0.774762 -1.15369e-14
vn -0.275576 -0.961279 1.60322e-14
vn -0.946701 -0.322114 2.98306e-14
vn -0.965047 -0.262078 2.98472e-14
vn -0.975132 -0.221626 2.97932e-14
vn -0.983522 -0.180788 2.96875e-14
vn -0.990203 -0.139636 2.95302e-14
vn -0.997013 -0.0772294 2.91965e-14
vn -0.632252 0.774762 1.15369e-14
vn 0.275576 0.961279 -1.60322e-14
vn 0.946701 0.322114 -2.98306e-14
vn 0.965047 0.262078 -2.98472e-14
vn 0.9703 0.241904 -2.98267e-14
vn 0.975132 0.221626 -2.97932e-14
vn 0.97954 0.20125 -2.97468e-14
f 25//25 26//26 1//1 
f 24//24 25//25 1//1 
f 23//23 1//1 2//2 
f 23//23 24//24 1//1 
f 21//21 22//22 23//23 
f 21//21 23//23 2//2 
f 20//20 2//2 3//3 
f 20//20 21//21 2//2 
f 18//18 20//20 3//3 
f 17//17 18//18 3//3 
f 16//16 3//3 4//4 
f 16//16 17//17 3//3 
f 15//15 16//16 4//4 
f 19//19 20//20 18//18 
f 13//13 4//4 5//5 
f 13//13 14//14 15//15 
f 13//13 15//15 4//4 
f 12//12 13//13 5//5 
f 10//10 5//5 6//6 
f 10//10 12//12 5//5 
f 9//9 10//10 6//6 
f 8//8 9//9 6//6 
f 7//7 8//8 6//6 
f 11//11 12//12 10//10 

g Face_2
v -0.10427092000000004 0.1580055 -0.00420000000000006
v -0.10600741061314004 0.15959057217189998 -0.004200000000000023
v -0.10805150856870004 0.15842888930029997 -0.004199999999999955
v -0.10757834164370005 0.1561258536247 -0.0041999999999999486
v -0.10524181133814003 0.15586418651309997 -0.004200000000000014
v -0.10500557500000005 0.1578545625 -0.004200000000000037
v -0.10597843750000004 0.156378575 -0.004199999999999997
v -0.10745442500000003 0.15735143749999997 -0.0041999999999999624
v -0.10648156250000003 0.158827425 -0.004200000000000003
vn -2.86278e-14 -8.47104e-15 -1
vn -2.86278e-14 -8.47104e-15 -1
vn -2.86278e-14 -8.47104e-15 -1
vn -2.86278e-14 -8.47104e-15 -1
vn -2.86278e-14 -8.47104e-15 -1
vn -2.86278e-14 -8.47104e-15 -1
vn -2.86278e-14 -8.47104e-15 -1
vn -2.86278e-14 -8.47104e-15 -1
vn -2.86278e-14 -8.47104e-15 -1
f 33//33 31//31 30//30 
f 33//33 30//30 34//34 
f 29//29 34//34 30//30 
f 35//35 34//34 29//29 
f 32//32 31//31 33//33 
f 27//27 31//31 32//32 
f 28//28 32//32 35//35 
f 28//28 27//27 32//32 
f 28//28 35//35 29//29 

g Face_3
v -0.10423597648260001 0.1577574573875 -0.0029500000000000585
v -0.10496549576886 0.15605347794674998 -0.0029500000000000234
v -0.10678115348114 0.15568044456924998 -0.002949999999999968
v -0.10812339851740001 0.1569587726125 -0.00294999999999994
vn 2.86278e-14 8.47104e-15 1
vn 2.86278e-14 8.47104e-15 1
vn 2.86278e-14 8.47104e-15 1
vn 2.86278e-14 8.47104e-15 1
f 39//39 37//37 36//36 
f 39//39 38//38 37//37 

g Face_4
v -0.1082240235174 0.1574485426125 -0.0029499999999999414
v -0.10749450423114001 0.15915252205325 -0.0029499999999999765
v -0.10567884651886 0.15952555543075 -0.002950000000000032
v -0.1043366014826 0.1582472273875 -0.0029500000000000593
vn 2.86278e-14 8.47104e-15 1
vn 2.86278e-14 8.47104e-15 1
vn 2.86278e-14 8.47104e-15 1
vn 2.86278e-14 8.47104e-15 1
f 41//41 43//43 42//42 
f 41//41 40//40 43//43 

g Face_5
v -0.10500557500000009 0.1578545625 -0.006000000000000037
v -0.10648156250000007 0.15882742499999997 -0.006000000000000004
v -0.1074544250000001 0.15735143750000002 -0.005999999999999963
v -0.10597843750000008 0.15637857499999996 -0.005999999999999997
v -0.10500557500000009 0.1578545625 -0.006000000000000037
v -0.10500557500000005 0.1578545625 -0.004200000000000037
v -0.10597843750000004 0.156378575 -0.004199999999999997
v -0.10745442500000003 0.15735143749999997 -0.0041999999999999624
v -0.10648156250000003 0.158827425 -0.004200000000000003
v -0.10500557500000005 0.1578545625 -0.004200000000000037
vn 0.97954 0.20125 -2.97468e-14
vn -0.20125 0.97954 -2.53638e-15
vn -0.97954 -0.20125 2.97468e-14
vn 0.20125 -0.97954 2.53638e-15
vn 0.97954 0.20125 -2.97468e-14
vn 0.97954 0.20125 -2.97468e-14
vn 0.20125 -0.97954 2.53638e-15
vn -0.97954 -0.20125 2.97468e-14
vn -0.20125 0.97954 -2.53638e-15
vn 0.97954 0.20125 -2.97468e-14
f 52//52 44//44 45//45 
f 52//52 53//53 44//44 
f 51//51 45//45 46//46 
f 51//51 52//52 45//45 
f 50//50 46//46 47//47 
f 50//50 51//51 46//46 
f 49//49 47//47 48//48 
f 49//49 50//50 47//47 

g Face_6
v -0.10812339851740001 0.1569587726125 -0.00294999999999994
v -0.10423597648260001 0.1577574573875 -0.0029500000000000585
v -0.10816009374860001 0.1570788443875 -0.00344999999999994
v -0.10424959375140001 0.15788227061250001 -0.003450000000000059
vn -0.195241 0.950293 0.242536
vn -0.195241 0.950293 0.242536
vn -0.195241 0.950293 0.242536
vn -0.195241 0.950293 0.242536
f 57//57 54//54 55//55 
f 57//57 56//56 54//54 

g Face_7
v -0.1043366014826 0.1582472273875 -0.0029500000000000593
v -0.1082240235174 0.1574485426125 -0.0029499999999999414
v -0.10429990625140002 0.1581271556125 -0.00345000000000006
v -0.10821040624860002 0.15732372938749997 -0.003449999999999941
vn 0.195241 -0.950293 0.242536
vn 0.195241 -0.950293 0.242536
vn 0.195241 -0.950293 0.242536
vn 0.195241 -0.950293 0.242536
f 58//58 61//61 60//60 
f 58//58 59//59 61//61 

g Face_8
v -0.10500557500000009 0.1578545625 -0.006000000000000037
v -0.1056632631577701 0.15871714026955996 -0.006000000000000026
v -0.10674771535554009 0.15874074832764995 -0.005999999999999995
v -0.1074423166871501 0.15790760865419995 -0.005999999999999968
v -0.1072240187996501 0.15684509182079998 -0.005999999999999965
v -0.10625720470554009 0.15635329589484998 -0.005999999999999989
v -0.1052699043352701 0.15680255293544 -0.006000000000000021
v -0.10525046000000009 0.15780424999999998 -0.00600000000000003
v -0.10556594246875009 0.15685531887149995 -0.006000000000000012
v -0.10654548246875009 0.15665406887149996 -0.005999999999999983
v -0.10720954000000009 0.15740174999999998 -0.005999999999999971
v -0.10689405753125009 0.15835068112849998 -0.005999999999999988
v -0.10591451753125009 0.15855193112849997 -0.0060000000000000175
vn -2.86278e-14 -8.47104e-15 -1
vn -2.86278e-14 -8.47104e-15 -1
vn -2.86278e-14 -8.47104e-15 -1
vn -2.86278e-14 -8.47104e-15 -1
vn -2.86278e-14 -8.47104e-15 -1
vn -2.86278e-14 -8.47104e-15 -1
vn -2.86278e-14 -8.47104e-15 -1
vn -2.86278e-14 -8.47104e-15 -1
vn -2.86278e-14 -8.47104e-15 -1
vn -2.86278e-14 -8.47104e-15 -1
vn -2.86278e-14 -8.47104e-15 -1
vn -2.86278e-14 -8.47104e-15 -1
vn -2.86278e-14 -8.47104e-15 -1
f 71//71 67//67 66//66 
f 72//72 71//71 66//66 
f 65//65 72//72 66//66 
f 70//70 67//67 71//71 
f 68//68 67//67 70//70 
f 73//73 72//72 65//65 
f 64//64 73//73 65//65 
f 69//69 68//68 70//70 
f 62//62 68//68 69//69 
f 74//74 73//73 64//64 
f 63//63 69//69 74//74 
f 63//63 62//62 69//69 
f 63//63 74//74 64//64 

g Face_9
v -0.10429990625140002 0.1581271556125 -0.00345000000000006
v -0.10821040624860002 0.15732372938749997 -0.003449999999999941
v -0.10428940130397502 0.15808680770779 -0.0034500000000000594
v -0.10427973147570002 0.158046251268732 -0.0034500000000000594
v -0.10427092000000002 0.1580055 -0.0034500000000000594
v -0.10426295092870003 0.15796457565626798 -0.0034500000000000594
v -0.10425584749522501 0.15792349194221 -0.0034500000000000594
v -0.10424959375140001 0.15788227061250001 -0.003450000000000059
v -0.10816009374860001 0.1570788443875 -0.00344999999999994
v -0.10818026852430002 0.15715974873126798 -0.0034499999999999405
v -0.10819704907130001 0.157241424343732 -0.0034499999999999405
vn 2.86278e-14 8.47104e-15 1
vn 2.86278e-14 8.47104e-15 1
vn 2.86278e-14 8.47104e-15 1
vn 2.86278e-14 8.47104e-15 1
vn 2.86278e-14 8.47104e-15 1
vn 2.86278e-14 8.47104e-15 1
vn 2.86278e-14 8.47104e-15 1
vn 2.86278e-14 8.47104e-15 1
vn 2.86278e-14 8.47104e-15 1
vn 2.86278e-14 8.47104e-15 1
vn 2.86278e-14 8.47104e-15 1
f 75//75 78//78 77//77 
f 75//75 79//79 78//78 
f 75//75 80//80 79//79 
f 75//75 81//81 80//80 
f 75//75 82//82 81//81 
f 76//76 83//83 82//82 
f 76//76 84//84 83//83 
f 76//76 85//85 84//84 
f 76//76 82//82 75//75 

g Face_10
v -0.10525046000000014 0.15780424999999995 -0.007550000000000029
v -0.10689405753125013 0.15835068112849995 -0.007549999999999987
v -0.10654548246875013 0.15665406887149994 -0.007549999999999983
v -0.10556594246875015 0.15685531887149995 -0.007550000000000012
v -0.10525046000000014 0.15780424999999995 -0.007550000000000029
v -0.10525046000000009 0.15780424999999998 -0.00600000000000003
v -0.10654548246875009 0.15665406887149996 -0.005999999999999983
v -0.10720954000000009 0.15740174999999998 -0.005999999999999971
v -0.10689405753125009 0.15835068112849998 -0.005999999999999988
v -0.10591451753125009 0.15855193112849997 -0.0060000000000000175
v -0.10525046000000009 0.15780424999999998 -0.00600000000000003
vn 0.97954 0.20125 -2.97468e-14
vn -0.664058 0.747681 1.26769e-14
vn -0.315482 -0.948932 1.707e-14
vn 0.664058 -0.747681 -1.26769e-14
vn 0.97954 0.20125 -2.97468e-14
vn 0.97954 0.20125 -2.97468e-14
vn -0.315482 -0.948932 1.707e-14
vn -0.97954 -0.20125 2.97468e-14
vn -0.664058 0.747681 1.26769e-14
vn 0.315482 0.948932 -1.707e-14
vn 0.97954 0.20125 -2.97468e-14
f 95//95 86//86 87//87 
f 95//95 96//96 86//86 
f 94//94 95//95 87//87 
f 93//93 87//87 88//88 
f 93//93 94//94 87//87 
f 92//92 88//88 89//89 
f 92//92 93//93 88//88 
f 91//91 89//89 90//90 
f 91//91 92//92 89//89 

g Face_11
v -0.10544636800000014 0.157764 -0.0077500000000000225
v -0.10676124602500014 0.15820114490279996 -0.0077499999999999895
v -0.10648238597500015 0.15684385509719995 -0.007749999999999986
v -0.10544636800000014 0.157764 -0.0077500000000000225
v -0.10525046000000014 0.15780424999999995 -0.007550000000000029
v -0.10525046000000014 0.15780424999999995 -0.007550000000000029
v -0.10689405753125013 0.15835068112849995 -0.007549999999999987
v -0.10654548246875013 0.15665406887149994 -0.007549999999999983
vn 0.692639 0.142305 -0.707107
vn -0.46956 0.52869 -0.707107
vn -0.223079 -0.670996 -0.707107
vn 0.692639 0.142305 -0.707107
vn 0.692639 0.142305 -0.707107
vn 0.692639 0.142305 -0.707107
vn -0.46956 0.52869 -0.707107
vn -0.223079 -0.670996 -0.707107
f 103//103 97//97 98//98 
f 103//103 102//102 97//97 
f 104//104 98//98 99//99 
f 104//104 103//103 98//98 
f 101//101 99//99 100//100 
f 101//101 104//104 99//99 

g Face_12
v -0.10544636800000014 0.157764 -0.0077500000000000225
v -0.10676124602500014 0.15820114490279996 -0.0077499999999999895
v -0.10648238597500015 0.15684385509719995 -0.007749999999999986
vn -2.86278e-14 -8.47104e-15 -1
vn -2.86278e-14 -8.47104e-15 -1
vn -2.86278e-14 -8.47104e-15 -1
f 105//105 107//107 106//106 

