mtllib Copie_de_Copie_de_Ressort_fil_Heure^Horloge_Comtoise_Verge_-_Sonnerie.mtl
usemtl Copie_de_Copie_de_Ressort_fil_Heure^Horloge_Comtoise_Verge_-_Sonnerie
#Wavefront export of shape 1-57--Copie_de_Copie_de_Ressort_fil_Heure_Horloge_Comtoise_Verge_-_Sonnerie

g Face_1
v -0.054483199999999975 0.123830928320166 0.01352188065147
v -0.055683199999999974 0.123830952346926 0.01472188065147
v -0.054483199999999975 0.123830976373686 0.01592188065147
v -0.053283199999999975 0.123830952346926 0.01472188065147
vn -1.29945e-14 -0.180348 -0.983603
vn -0.983627 -0.180215 -2.85702e-05
vn -1.40794e-14 -0.180308 0.98361
vn 0.983627 -0.180215 -2.85702e-05
f 2//2 1//1 4//4 
f 3//3 2//2 4//4 

g Face_2
v -0.05448319999999998 0.14383092832016597 0.013521480205470001
v -0.05566302999999998 0.1438309567530333 0.014941540205470002
v -0.054056329999999986 0.14383097480654056 0.015843210205470002
v -0.05330336999999998 0.14383094794081866 0.014501420205470001
v -0.05448319999999998 0.14383092832016597 0.013521480205470001
v -0.054483199999999975 0.123830928320166 0.01352188065147
v -0.055683199999999974 0.123830952346926 0.01472188065147
v -0.054483199999999975 0.123830976373686 0.01592188065147
v -0.053283199999999975 0.123830952346926 0.01472188065147
v -0.054483199999999975 0.123830928320166 0.01352188065147
vn -1.11022e-16 -2.00223e-05 -1
vn -0.983047 3.67113e-06 0.183352
vn 0.355665 1.87131e-05 0.934613
vn 0.983047 -3.67113e-06 -0.183352
vn 1.33907e-16 -2.00223e-05 -1
vn -1.11022e-16 -2.00223e-05 -1
vn -1 -2.2996e-16 4.97946e-17
vn -1.14424e-17 2.00223e-05 1
vn 1 2.29963e-16 7.26701e-17
vn 1.33907e-16 -2.00223e-05 -1
f 5//5 10//10 11//11 
f 6//6 11//11 12//12 
f 6//6 5//5 11//11 
f 7//7 12//12 13//13 
f 7//7 6//6 12//12 
f 8//8 13//13 14//14 
f 8//8 7//7 13//13 
f 9//9 8//8 14//14 

g Face_3
v -0.052333199999999996 0.217730970967665 0.015650000557500002
v -0.05090657999999999 0.2177309947842309 0.0168395025575
v -0.051224399999999996 0.21773101870074812 0.0180339965575
v -0.052333199999999996 0.21773102903233502 0.0185500005575
v -0.053783199999999996 0.217731 0.0171000005575
v -0.052333199999999996 0.217730970967665 0.015650000557500002
v -0.05448319999999998 0.14383092832016597 0.013521480205470001
v -0.05566302999999998 0.1438309567530333 0.014941540205470002
v -0.054056329999999986 0.14383097480654056 0.015843210205470002
v -0.05330336999999998 0.14383094794081866 0.014501420205470001
v -0.05448319999999998 0.14383092832016597 0.013521480205470001
vn -1.44218e-15 -2.00223e-05 -1
vn 0.983885 -0.00278027 -0.178783
vn 0.764408 -0.00554659 0.644709
vn 1.44214e-15 -0.00674104 0.999977
vn -0.999994 -0.00338059 6.76872e-08
vn -1.44218e-15 -2.00223e-05 -1
vn -0 -2.00223e-05 -1
vn -0.983192 -0.00398897 0.182533
vn 0.356195 -0.00651219 0.934389
vn 0.983196 -0.00276386 -0.182533
vn -1.44218e-15 -2.00223e-05 -1
f 19//19 20//20 21//21 
f 19//19 21//21 22//22 
f 18//18 22//22 23//23 
f 18//18 19//19 22//22 
f 17//17 23//23 24//24 
f 17//17 18//18 23//23 
f 16//16 17//17 24//24 
f 15//15 24//24 25//25 
f 15//15 16//16 24//24 

g Face_4
v -0.052333199999999996 0.217730970967665 0.015650000557500002
v -0.05090657999999999 0.2177309947842309 0.0168395025575
v -0.051224399999999996 0.21773101870074812 0.0180339965575
v -0.052333199999999996 0.21773102903233502 0.0185500005575
v -0.053783199999999996 0.217731 0.0171000005575
v -0.052333199999999996 0.21918100000000001 0.017099971525164997
v -0.052333199999999996 0.21918100000000001 0.017099971525164997
v -0.053783199999999996 0.217731 0.0171000005575
vn 7.15924e-16 -2.00223e-05 -1
vn 0.983735 -3.59648e-06 -0.179624
vn 0.76482 1.28993e-05 0.644244
vn 2.94719e-16 2.00223e-05 1
vn -1 2.21351e-15 1.10978e-16
vn -2.90216e-16 1 -2.00223e-05
vn -2.90216e-16 1 -2.00223e-05
vn -1 2.21348e-15 -1.42045e-15
f 26//26 30//30 31//31 
f 27//27 26//26 31//31 
f 32//32 27//27 31//31 
f 28//28 27//27 32//32 
f 29//29 28//28 32//32 
f 33//33 29//29 32//32 

