mtllib Copie_de_Bati_Pied_avant_droit^Copie_de_Bati_Horloge_Comtoise_Verge_-_Sonnerie.mtl
usemtl Copie_de_Bati_Pied_avant_droit^Copie_de_Bati_Horloge_Comtoise_Verge_-_Sonnerie
#Wavefront export of shape 1-1-3--Copie_de_Bati_Pied_avant_droit_Copie_de_Bati_Horloge_Comtoise_Verge_-_Sonnerie

g Face_1
v -0.124333 0.240531 -0.1006
v -0.124333 0.240531 -0.0933
v -0.124333 0.0015310000000000046 -0.0933
v -0.124333 0.0015310000000000046 -0.1006
vn -1 -3.65803e-18 1.38778e-17
vn -1 -3.65803e-18 1.38778e-17
vn -1 -3.65803e-18 1.38778e-17
vn -1 -3.65803e-18 1.38778e-17
f 3//3 2//2 1//1 
f 3//3 1//1 4//4 

g Face_2
v -0.117033 0.240531 -0.0933
v -0.117033 0.240531 -0.1006
v -0.124333 0.240531 -0.1006
v -0.124333 0.240531 -0.0933
vn -3.65803e-18 1 -1.5233e-18
vn -3.65803e-18 1 -1.5233e-18
vn -3.65803e-18 1 -1.5233e-18
vn -3.65803e-18 1 -1.5233e-18
f 5//5 6//6 7//7 
f 5//5 7//7 8//8 

g Face_3
v -0.117033 0.240531 -0.1006
v -0.124333 0.240531 -0.1006
v -0.124333 0.0015310000000000046 -0.1006
v -0.117033 0.0015310000000000046 -0.1006
v -0.119283 0.206531 -0.1006
v -0.120683 0.205131 -0.1006
v -0.122083 0.206531 -0.1006
v -0.120683 0.207931 -0.1006
vn -1.38778e-17 -1.5233e-18 -1
vn -1.38778e-17 -1.5233e-18 -1
vn -1.38778e-17 -1.5233e-18 -1
vn -1.38778e-17 -1.5233e-18 -1
vn -1.38778e-17 -1.5233e-18 -1
vn -1.38778e-17 -1.5233e-18 -1
vn -1.38778e-17 -1.5233e-18 -1
vn -1.38778e-17 -1.5233e-18 -1
f 16//16 10//10 9//9 
f 13//13 16//16 9//9 
f 15//15 10//10 16//16 
f 12//12 14//14 13//13 
f 11//11 15//15 14//14 
f 11//11 14//14 12//12 
f 10//10 15//15 11//11 
f 12//12 13//13 9//9 

g Face_4
v -0.124333 0.0015310000000000046 -0.0933
v -0.124333 0.0015310000000000046 -0.1006
v -0.117033 0.0015310000000000046 -0.0933
v -0.117033 0.0015310000000000046 -0.1006
vn 3.65803e-18 -1 1.5233e-18
vn 3.65803e-18 -1 1.5233e-18
vn 3.65803e-18 -1 1.5233e-18
vn 3.65803e-18 -1 1.5233e-18
f 19//19 17//17 18//18 
f 19//19 18//18 20//20 

g Face_5
v -0.124333 0.240531 -0.0933
v -0.117033 0.240531 -0.0933
v -0.117033 0.0015310000000000046 -0.0933
v -0.124333 0.0015310000000000046 -0.0933
v -0.119283 0.206531 -0.0933
v -0.120683 0.207931 -0.0933
v -0.122083 0.206531 -0.0933
v -0.120683 0.205131 -0.0933
v -0.122083 0.222281 -0.0933
v -0.120683 0.220881 -0.0933
v -0.119283 0.222281 -0.0933
v -0.120683 0.223681 -0.0933
vn 1.38778e-17 1.5233e-18 1
vn 1.38778e-17 1.5233e-18 1
vn 1.38778e-17 1.5233e-18 1
vn 1.38778e-17 1.5233e-18 1
vn 1.38778e-17 1.5233e-18 1
vn 1.38778e-17 1.5233e-18 1
vn 1.38778e-17 1.5233e-18 1
vn 1.38778e-17 1.5233e-18 1
vn 1.38778e-17 1.5233e-18 1
vn 1.38778e-17 1.5233e-18 1
vn 1.38778e-17 1.5233e-18 1
vn 1.38778e-17 1.5233e-18 1
f 32//32 22//22 21//21 
f 29//29 32//32 21//21 
f 31//31 22//22 32//32 
f 27//27 30//30 29//29 
f 27//27 26//26 30//30 
f 25//25 31//31 30//30 
f 25//25 30//30 26//26 
f 24//24 28//28 27//27 
f 23//23 25//25 28//28 
f 23//23 28//28 24//24 
f 22//22 25//25 23//23 
f 22//22 31//31 25//25 
f 24//24 29//29 21//21 
f 24//24 27//27 29//29 

g Face_6
v -0.117033 0.240531 -0.0933
v -0.117033 0.240531 -0.1006
v -0.117033 0.0015310000000000046 -0.1006
v -0.117033 0.0015310000000000046 -0.0933
vn 1 3.65803e-18 -1.38778e-17
vn 1 3.65803e-18 -1.38778e-17
vn 1 3.65803e-18 -1.38778e-17
vn 1 3.65803e-18 -1.38778e-17
f 35//35 34//34 33//33 
f 35//35 33//33 36//36 

g Face_7
v -0.119283 0.206531 -0.1006
v -0.120683 0.205131 -0.1006
v -0.122083 0.206531 -0.1006
v -0.120683 0.207931 -0.1006
v -0.119283 0.206531 -0.1006
v -0.119283 0.206531 -0.0933
v -0.119283 0.206531 -0.0933
v -0.120683 0.207931 -0.0933
v -0.122083 0.206531 -0.0933
v -0.120683 0.205131 -0.0933
vn -1 -3.65803e-18 1.38778e-17
vn -6.48904e-17 1 -1.5233e-18
vn 1 1.26123e-16 -1.38778e-17
vn 1.87355e-16 -1 1.5233e-18
vn -1 -2.48587e-16 1.38778e-17
vn -1 -3.65803e-18 1.38778e-17
vn -1 -2.48587e-16 1.38778e-17
vn 1.87355e-16 -1 1.5233e-18
vn 1 1.26123e-16 -1.38778e-17
vn -6.48904e-17 1 -1.5233e-18
f 38//38 42//42 37//37 
f 38//38 46//46 42//42 
f 39//39 45//45 46//46 
f 39//39 46//46 38//38 
f 40//40 44//44 45//45 
f 40//40 45//45 39//39 
f 41//41 43//43 44//44 
f 41//41 44//44 40//40 

g Face_8
v -0.122083 0.222281 -0.0933
v -0.120683 0.220881 -0.0933
v -0.119283 0.222281 -0.0933
v -0.120683 0.223681 -0.0933
v -0.122083 0.222281 -0.0933
v -0.122083 0.222281 -0.0963
v -0.120683 0.220881 -0.0963
v -0.119283 0.222281 -0.0963
v -0.120683 0.223681 -0.0963
v -0.122083 0.222281 -0.0963
vn 1 3.65803e-18 -1.38778e-17
vn 5.75743e-17 1 -1.5233e-18
vn -1 1.18807e-16 1.38778e-17
vn -1.80039e-16 -1 1.5233e-18
vn 1 -2.41271e-16 -1.38778e-17
vn 1 3.65803e-18 -1.38778e-17
vn 5.75743e-17 1 -1.5233e-18
vn -1 1.18807e-16 1.38778e-17
vn -1.80039e-16 -1 1.5233e-18
vn 1 -2.41271e-16 -1.38778e-17
f 48//48 52//52 47//47 
f 48//48 53//53 52//52 
f 49//49 54//54 53//53 
f 49//49 53//53 48//48 
f 50//50 55//55 54//54 
f 50//50 54//54 49//49 
f 51//51 56//56 55//55 
f 51//51 55//55 50//50 

g Face_9
v -0.122083 0.222281 -0.0963
v -0.120683 0.220881 -0.0963
v -0.119283 0.222281 -0.0963
v -0.120683 0.223681 -0.0963
vn 1.38778e-17 1.5233e-18 1
vn 1.38778e-17 1.5233e-18 1
vn 1.38778e-17 1.5233e-18 1
vn 1.38778e-17 1.5233e-18 1
f 58//58 59//59 60//60 
f 58//58 60//60 57//57 

