mtllib Copie_de_Marteau_2^Copie_de_Assemblage3_1_Horloge_Comtoise_Verge_-_Sonnerie.mtl
usemtl Copie_de_Marteau_2^Copie_de_Assemblage3_1_Horloge_Comtoise_Verge_-_Sonnerie
#Wavefront export of shape 1-49-3--Copie_de_Marteau_2_Copie_de_Assemblage3_1_Horloge_Comtoise_Verge_-_Sonnerie

g Face_1
v 0.017120037500000004 0.28259386999999997 -0.03711901875
v 0.015152028622070005 0.283238278367912 -0.03225736000267
v 0.015818275587590004 0.284096645163944 -0.027085960436790003
v 0.018949810250000004 0.28495129939999997 -0.02291621525
v 0.018548311750000004 0.2913594804 -0.02392814175
v 0.015416777087590004 0.290504826163944 -0.028097886936790002
v 0.014750530122070005 0.289646459367912 -0.03326928650267
v 0.016718539 0.289002051 -0.03813094525
vn 0.802399 0.141814 0.579693
vn 0.989942 0.080405 0.116401
vn 0.926453 -0.00139321 -0.376408
vn 0.628031 -0.0828381 -0.773767
vn 0.628031 -0.0828381 -0.773767
vn 0.926453 -0.00139321 -0.376408
vn 0.989942 0.080405 0.116401
vn 0.802399 0.141814 0.579693
f 3//3 5//5 4//4 
f 3//3 6//6 5//5 
f 2//2 7//7 6//6 
f 2//2 6//6 3//3 
f 1//1 8//8 7//7 
f 1//1 7//7 2//2 

g Face_2
v 0.017120037500000004 0.28259386999999997 -0.03711901875
v 0.015152028622070005 0.283238278367912 -0.03225736000267
v 0.015818275587590004 0.284096645163944 -0.027085960436790003
v 0.018949810250000004 0.28495129939999997 -0.02291621525
v 0.029037998600000003 0.28684435976 -0.014930766600000003
v 0.0258594617 0.28723092272 -0.011221657700000004
v 0.017592203071100005 0.28557695991176 -0.018415467334100002
v 0.016105160697500003 0.2852381930156 -0.019970753687
v 0.014929342793300004 0.28488053575447997 -0.021769149776300005
v 0.014103487928000005 0.28451574062 -0.0237516012545
v 0.013473298315580008 0.283730051461328 -0.02847706448698
v 0.014451932132720006 0.283051913934752 -0.03315976743882
v 0.016930400000000005 0.282556934 -0.03727768
vn 0.061769 -0.985874 0.155681
vn 0.061769 -0.985874 0.155681
vn 0.061769 -0.985874 0.155681
vn 0.061769 -0.985874 0.155681
vn 0.061769 -0.985874 0.155681
vn 0.061769 -0.985874 0.155681
vn 0.061769 -0.985874 0.155681
vn 0.061769 -0.985874 0.155681
vn 0.061769 -0.985874 0.155681
vn 0.061769 -0.985874 0.155681
vn 0.061769 -0.985874 0.155681
vn 0.061769 -0.985874 0.155681
vn 0.061769 -0.985874 0.155681
f 15//15 12//12 13//13 
f 15//15 13//13 14//14 
f 16//16 12//12 15//15 
f 20//20 9//9 10//10 
f 20//20 21//21 9//9 
f 17//17 12//12 16//16 
f 18//18 11//11 12//12 
f 18//18 12//12 17//17 
f 19//19 10//10 11//11 
f 19//19 20//20 10//10 
f 19//19 11//11 18//18 

g Face_3
v 0.016930400000000005 0.282556934 -0.03727768
v 0.017120037500000004 0.28259386999999997 -0.03711901875
v 0.016718539 0.289002051 -0.03813094525
v 0.016528901500000005 0.288965115 -0.038289606500000004
vn 0.648681 -0.0788904 -0.756961
vn 0.648681 -0.0788904 -0.756961
vn 0.648681 -0.0788904 -0.756961
vn 0.648681 -0.0788904 -0.756961
f 24//24 23//23 22//22 
f 24//24 22//22 25//25 

g Face_4
v 0.028636500100000004 0.29325254076 -0.015942693100000002
v 0.02545796320000001 0.29363910372 -0.012233584199999996
v 0.017190704571100005 0.29198514091176003 -0.019427393834100002
v 0.015703662197500003 0.2916463740156 -0.020982680187000002
v 0.014527844293300004 0.29128871675448 -0.0227810762763
v 0.013701989428000005 0.29092392162 -0.0247635277545
v 0.013071799815580008 0.290138232461328 -0.02948899098698
v 0.014050433632720006 0.289460094934752 -0.03417169393882
v 0.016528901500000005 0.288965115 -0.038289606500000004
v 0.016718539 0.289002051 -0.03813094525
v 0.018548311750000004 0.2913594804 -0.02392814175
v 0.015416777087590004 0.290504826163944 -0.028097886936790002
v 0.014750530122070005 0.289646459367912 -0.03326928650267
vn -0.061769 0.985874 -0.155681
vn -0.061769 0.985874 -0.155681
vn -0.061769 0.985874 -0.155681
vn -0.061769 0.985874 -0.155681
vn -0.061769 0.985874 -0.155681
vn -0.061769 0.985874 -0.155681
vn -0.061769 0.985874 -0.155681
vn -0.061769 0.985874 -0.155681
vn -0.061769 0.985874 -0.155681
vn -0.061769 0.985874 -0.155681
vn -0.061769 0.985874 -0.155681
vn -0.061769 0.985874 -0.155681
vn -0.061769 0.985874 -0.155681
f 28//28 27//27 26//26 
f 28//28 26//26 36//36 
f 29//29 28//28 36//36 
f 33//33 35//35 34//34 
f 33//33 38//38 35//35 
f 30//30 29//29 36//36 
f 31//31 36//36 37//37 
f 31//31 30//30 36//36 
f 32//32 37//37 38//38 
f 32//32 38//38 33//33 
f 32//32 31//31 37//37 

g Face_5
v 0.018949810250000004 0.28495129939999997 -0.02291621525
v 0.029037998600000003 0.28684435976 -0.014930766600000003
v 0.028636500100000004 0.29325254076 -0.015942693100000002
v 0.018548311750000004 0.2913594804 -0.02392814175
v 0.023405148928740002 0.289029109944784 -0.019736587979940004
v 0.02269090543622001 0.28789761567435196 -0.02019517458982
v 0.021853117456890003 0.288737870192824 -0.020965115630090004
v 0.022567367436220002 0.28986936367435195 -0.02050653658982
vn 0.628031 -0.0828381 -0.773767
vn 0.628031 -0.0828381 -0.773767
vn 0.628031 -0.0828381 -0.773767
vn 0.628031 -0.0828381 -0.773767
vn 0.628031 -0.0828381 -0.773767
vn 0.628031 -0.0828381 -0.773767
vn 0.628031 -0.0828381 -0.773767
vn 0.628031 -0.0828381 -0.773767
f 45//45 39//39 42//42 
f 44//44 39//39 45//45 
f 46//46 45//45 42//42 
f 40//40 44//44 43//43 
f 40//40 39//39 44//44 
f 41//41 43//43 46//46 
f 41//41 40//40 43//43 
f 41//41 46//46 42//42 

g Face_6
v 0.013701989428000005 0.29092392162 -0.0247635277545
v 0.013071799815580008 0.290138232461328 -0.02948899098698
v 0.014050433632720006 0.289460094934752 -0.03417169393882
v 0.016528901500000005 0.288965115 -0.038289606500000004
v 0.016930400000000005 0.282556934 -0.03727768
v 0.014103487928000005 0.28451574062 -0.0237516012545
v 0.013473298315580008 0.283730051461328 -0.02847706448698
v 0.014451932132720006 0.283051913934752 -0.03315976743882
vn -0.953877 -0.0124001 0.299941
vn -0.99742 -0.066688 -0.0265688
vn -0.929799 -0.113543 -0.350117
vn -0.75855 -0.147744 -0.634645
vn -0.75855 -0.147744 -0.634645
vn -0.953877 -0.0124001 0.299941
vn -0.99742 -0.066688 -0.0265688
vn -0.929799 -0.113543 -0.350117
f 53//53 47//47 48//48 
f 53//53 52//52 47//47 
f 54//54 48//48 49//49 
f 54//54 53//53 48//48 
f 51//51 49//49 50//50 
f 51//51 54//54 49//49 

g Face_7
v 0.017190704571100005 0.29198514091176003 -0.019427393834100002
v 0.015703662197500003 0.2916463740156 -0.020982680187000002
v 0.014527844293300004 0.29128871675448 -0.0227810762763
v 0.013701989428000005 0.29092392162 -0.0247635277545
v 0.014103487928000005 0.28451574062 -0.0237516012545
v 0.017592203071100005 0.28557695991176 -0.018415467334100002
v 0.016105160697500003 0.2852381930156 -0.019970753687
v 0.014929342793300004 0.28488053575447997 -0.021769149776300005
vn -0.663146 0.0760352 0.744618
vn -0.787067 0.0478046 0.615012
vn -0.885054 0.0179988 0.46514
vn -0.953877 -0.0124001 0.299941
vn -0.953877 -0.0124001 0.299941
vn -0.663146 0.0760352 0.744618
vn -0.787067 0.0478046 0.615012
vn -0.885054 0.0179988 0.46514
f 61//61 55//55 56//56 
f 61//61 60//60 55//55 
f 62//62 56//56 57//57 
f 62//62 61//61 56//56 
f 59//59 57//57 58//58 
f 59//59 62//62 57//57 

g Face_8
v 0.02545796320000001 0.29363910372 -0.012233584199999996
v 0.017190704571100005 0.29198514091176003 -0.019427393834100002
v 0.017592203071100005 0.28557695991176 -0.018415467334100002
v 0.0258594617 0.28723092272 -0.011221657700000004
vn -0.663146 0.0760352 0.744618
vn -0.663146 0.0760352 0.744618
vn -0.663146 0.0760352 0.744618
vn -0.663146 0.0760352 0.744618
f 63//63 64//64 65//65 
f 63//63 65//65 66//66 

g Face_9
v 0.029037998600000003 0.28684435976 -0.014930766600000003
v 0.0300564684 0.28988639044000003 -0.012129200400000002
v 0.0290834469 0.29000472604 -0.010993758900000003
v 0.0258594617 0.28723092272 -0.011221657700000004
vn 0.533064 -0.662786 0.525887
vn 0.533064 -0.662786 0.525887
vn 0.533064 -0.662786 0.525887
vn 0.533064 -0.662786 0.525887
f 67//67 68//68 69//69 
f 67//67 69//69 70//70 

g Face_10
v 0.02545796320000001 0.29363910372 -0.012233584199999996
v 0.028990793400000003 0.29148353703999996 -0.011227280400000003
v 0.029963814900000003 0.29136520144 -0.012362721900000002
v 0.028636500100000004 0.29325254076 -0.015942693100000002
vn 0.438159 0.851953 0.286692
vn 0.438159 0.851953 0.286692
vn 0.438159 0.851953 0.286692
vn 0.438159 0.851953 0.286692
f 73//73 71//71 72//72 
f 73//73 74//74 71//71 

g Face_11
v 0.029963814900000003 0.29136520144 -0.012362721900000002
v 0.028636500100000004 0.29325254076 -0.015942693100000002
v 0.0300564684 0.28988639044000003 -0.012129200400000002
v 0.029037998600000003 0.28684435976 -0.014930766600000003
vn 0.938341 0.00420326 -0.345685
vn 0.938341 0.00420326 -0.345685
vn 0.938341 0.00420326 -0.345685
vn 0.938341 0.00420326 -0.345685
f 76//76 75//75 77//77 
f 76//76 77//77 78//78 

g Face_12
v 0.023405148928740002 0.289029109944784 -0.019736587979940004
v 0.02269090543622001 0.28789761567435196 -0.02019517458982
v 0.021853117456890003 0.288737870192824 -0.020965115630090004
v 0.023138190750000003 0.2890615765 -0.019425068250000004
v 0.022441409750000006 0.28792795849999997 -0.019904032250000002
v 0.021621090750000002 0.28876608849999996 -0.020694358250000003
v 0.02231787175 0.28989970649999997 -0.02021539425
v 0.023138190750000003 0.2890615765 -0.019425068250000004
v 0.023405148928740002 0.289029109944784 -0.019736587979940004
v 0.022567367436220002 0.28986936367435195 -0.02050653658982
vn -0.75855 -0.147744 -0.634645
vn -0.0617707 0.985874 -0.155683
vn 0.75855 0.147744 0.634645
vn -0.75855 -0.147744 -0.634645
vn -0.061769 0.985874 -0.155681
vn 0.75855 0.147744 0.634645
vn 0.061769 -0.985874 0.155681
vn -0.75855 -0.147744 -0.634645
vn -0.75855 -0.147744 -0.634645
vn 0.0617674 -0.985875 0.15568
f 86//86 88//88 87//87 
f 85//85 81//81 88//88 
f 85//85 88//88 86//86 
f 84//84 81//81 85//85 
f 83//83 80//80 81//81 
f 83//83 81//81 84//84 
f 82//82 79//79 80//80 
f 82//82 80//80 83//83 

g Face_13
v 0.0290834469 0.29000472604 -0.010993758900000003
v 0.0258594617 0.28723092272 -0.011221657700000004
v 0.028990793400000003 0.29148353703999996 -0.011227280400000003
v 0.02545796320000001 0.29363910372 -0.012233584199999996
vn -0.190392 0.141476 0.97146
vn -0.190392 0.141476 0.97146
vn -0.190392 0.141476 0.97146
vn -0.190392 0.141476 0.97146
f 91//91 90//90 89//89 
f 91//91 92//92 90//90 

g Face_14
v 0.029963814900000003 0.29136520144 -0.012362721900000002
v 0.0300564684 0.28988639044000003 -0.012129200400000002
v 0.028990793400000003 0.29148353703999996 -0.011227280400000003
v 0.0290834469 0.29000472604 -0.010993758900000003
vn 0.75855 0.147744 0.634645
vn 0.75855 0.147744 0.634645
vn 0.75855 0.147744 0.634645
vn 0.75855 0.147744 0.634645
f 93//93 95//95 96//96 
f 93//93 96//96 94//94 

g Face_15
v 0.023138190750000003 0.2890615765 -0.019425068250000004
v 0.022441409750000006 0.28792795849999997 -0.019904032250000002
v 0.021621090750000002 0.28876608849999996 -0.020694358250000003
v 0.02231787175 0.28989970649999997 -0.02021539425
vn 0.648681 -0.0788904 -0.756961
vn 0.648681 -0.0788904 -0.756961
vn 0.648681 -0.0788904 -0.756961
vn 0.648681 -0.0788904 -0.756961
f 100//100 97//97 98//98 
f 100//100 98//98 99//99 

