mtllib Copie_de_pignon_Ass_07^Copie_de_Assemblage_07_Horloge_Comtoise_Verge_-_Sonnerie_instance_2.mtl
usemtl Copie_de_pignon_Ass_07^Copie_de_Assemblage_07_Horloge_Comtoise_Verge_-_Sonnerie_instance_2
#Wavefront export of shape 1-20-3--Copie_de_pignon_Ass_07_Copie_de_Assemblage_07_Horloge_Comtoise_Verge_-_Sonnerie-3

g Face_1
v -0.061343176562801444 0.14150365360503603 -0.056650000000000006
v -0.06266567034928412 0.14255758608304978 -0.056650000000000006
v -0.06266567034928412 0.14255758608304978 -0.06555000000000001
v -0.061343176562801444 0.14150365360503603 -0.06555000000000001
vn 2.23392e-17 -0.458446 0.888722
vn -2.1804e-17 0.894923 0.44622
vn -2.1804e-17 0.894923 0.44622
vn 2.23392e-17 -0.458446 0.888722
f 1//1 3//3 2//2 
f 1//1 4//4 3//3 

g Face_2
v -0.061343176562801444 0.14150365360503603 -0.056650000000000006
v -0.06266567034928412 0.14255758608304978 -0.056650000000000006
v -0.06291605500320564 0.14212479647039367 -0.056650000000000006
v -0.06281548598660164 0.14225870013641959 -0.056650000000000006
v -0.0627316271533153 0.14240365565444738 -0.056650000000000006
vn -1 -2.77556e-17 6.93889e-18
vn -1 -2.77556e-17 6.93889e-18
vn -1 -2.77556e-17 6.93889e-18
vn -1 -2.77556e-17 6.93889e-18
vn -1 -2.77556e-17 6.93889e-18
f 9//9 5//5 6//6 
f 8//8 5//5 9//9 
f 7//7 5//5 8//8 

g Face_3
v -0.061343176562801444 0.14150365360503603 -0.056650000000000006
v -0.06291605500320564 0.14212479647039367 -0.056650000000000006
v -0.061343176562801444 0.14150365360503603 -0.06555000000000001
v -0.06291605500320564 0.14212479647039367 -0.06555000000000001
vn 4.05167e-17 -0.831484 0.555548
vn 1.32565e-17 -0.544098 -0.839022
vn 4.05167e-17 -0.831484 0.555548
vn 1.32565e-17 -0.544098 -0.839022
f 11//11 12//12 10//10 
f 11//11 13//13 12//12 

g Face_4
v -0.06266567034928412 0.14255758608304978 -0.06555000000000001
v -0.061343176562801444 0.14150365360503603 -0.06555000000000001
v -0.06291605500320564 0.14212479647039367 -0.06555000000000001
v -0.06281548598660164 0.14225870013641959 -0.06555000000000001
v -0.0627316271533153 0.14240365565444738 -0.06555000000000001
vn 1 2.77556e-17 -6.93889e-18
vn 1 2.77556e-17 -6.93889e-18
vn 1 2.77556e-17 -6.93889e-18
vn 1 2.77556e-17 -6.93889e-18
vn 1 2.77556e-17 -6.93889e-18
f 18//18 14//14 15//15 
f 17//17 18//18 15//15 
f 16//16 17//17 15//15 

g Face_5
v -0.06291605500320564 0.14212479647039367 -0.06555000000000001
v -0.06281548598660164 0.14225870013641959 -0.06555000000000001
v -0.0627316271533153 0.14240365565444738 -0.06555000000000001
v -0.06266567034928412 0.14255758608304978 -0.06555000000000001
v -0.06266567034928412 0.14255758608304978 -0.056650000000000006
v -0.06291605500320564 0.14212479647039367 -0.056650000000000006
v -0.06281548598660164 0.14225870013641959 -0.056650000000000006
v -0.0627316271533153 0.14240365565444738 -0.056650000000000006
vn -2.6155e-17 0.788609 -0.614894
vn -2.45834e-17 0.709547 -0.704658
vn -2.26601e-17 0.620331 -0.78434
vn -2.04126e-17 0.52224 -0.852799
vn -2.04126e-17 0.52224 -0.852799
vn -2.6155e-17 0.788609 -0.614894
vn -2.45834e-17 0.709547 -0.704658
vn -2.26601e-17 0.620331 -0.78434
f 21//21 23//23 22//22 
f 21//21 26//26 23//23 
f 20//20 25//25 26//26 
f 20//20 26//26 21//21 
f 19//19 24//24 25//25 
f 19//19 25//25 20//20 

