mtllib Copie_de_Vis_porte_suspension^Horloge_Comtoise_Verge_-_Sonnerie_instance_1.mtl
usemtl Copie_de_Vis_porte_suspension^Horloge_Comtoise_Verge_-_Sonnerie_instance_1
#Wavefront export of shape 1-61--Copie_de_Vis_porte_suspension_Horloge_Comtoise_Verge_-_Sonnerie

g Face_1
v -0.0349582 0.23723100000000003 0.033350000000000005
v -0.03329385 0.23723100000000003 0.03214078
v -0.03392958 0.23723100000000003 0.030184220000000005
v -0.03598682 0.23723100000000003 0.030184220000000005
v -0.036622550000000004 0.23723100000000003 0.03214078
v -0.0349582 0.23723100000000003 0.033350000000000005
v -0.034958199999999995 0.244731 0.033350000000000005
v -0.036622550000000004 0.244731 0.03214078
v -0.03598682 0.244731 0.030184220000000005
v -0.03392958 0.244731 0.030184220000000005
v -0.03329385 0.244731 0.03214078
v -0.034958199999999995 0.244731 0.033350000000000005
vn -3.20702e-16 -8.49251e-33 1
vn 0.951057 -3.29763e-17 0.309017
vn 0.587785 -2.03804e-17 -0.809017
vn -0.587785 2.03804e-17 -0.809017
vn -0.951057 3.29763e-17 0.309017
vn -5.65631e-16 -3.05459e-48 1
vn -5.65631e-16 -3.05459e-48 1
vn -0.951057 3.29763e-17 0.309017
vn -0.587785 2.03804e-17 -0.809017
vn 0.587785 -2.03804e-17 -0.809017
vn 0.951057 -3.29763e-17 0.309017
vn -3.20702e-16 -8.49251e-33 1
f 5//5 6//6 7//7 
f 5//5 7//7 8//8 
f 4//4 8//8 9//9 
f 4//4 5//5 8//8 
f 3//3 9//9 10//10 
f 3//3 4//4 9//9 
f 2//2 10//10 11//11 
f 2//2 3//3 10//10 
f 1//1 11//11 12//12 
f 1//1 2//2 11//11 

g Face_2
v -0.0349582 0.23723100000000003 0.033350000000000005
v -0.03329385 0.23723100000000003 0.03214078
v -0.03392958 0.23723100000000003 0.030184220000000005
v -0.03598682 0.23723100000000003 0.030184220000000005
v -0.036622550000000004 0.23723100000000003 0.03214078
v -0.0349582 0.23723100000000003 0.033350000000000005
v -0.0349582 0.23573100000000002 0.0316
v -0.0349582 0.23573100000000002 0.0316
vn -4.74133e-16 -0.759257 0.650791
vn 0.618939 -0.759257 0.201106
vn 0.382526 -0.759257 -0.526501
vn -0.382526 -0.759257 -0.526501
vn -0.618939 -0.759257 0.201106
vn -6.33531e-16 -0.759257 0.650791
vn -0 -0 0
vn -0 -0 0
f 14//14 13//13 19//19 
f 15//15 14//14 19//19 
f 16//16 19//19 20//20 
f 16//16 15//15 19//19 
f 17//17 16//16 20//20 
f 18//18 17//17 20//20 

g Face_3
v -0.0349582 0.244731 0.034550000000000004
v -0.03751297 0.244731 0.033075
v -0.03751297 0.244731 0.030125000000000002
v -0.0349582 0.244731 0.028650000000000002
v -0.032403430000000004 0.244731 0.030125000000000002
v -0.032403430000000004 0.244731 0.033075
v -0.034958199999999995 0.244731 0.033350000000000005
v -0.036622550000000004 0.244731 0.03214078
v -0.03598682 0.244731 0.030184220000000005
v -0.03392958 0.244731 0.030184220000000005
v -0.03329385 0.244731 0.03214078
vn -3.46733e-17 -1 -1.96123e-32
vn -3.46733e-17 -1 -1.96123e-32
vn -3.46733e-17 -1 -1.96123e-32
vn -3.46733e-17 -1 -1.96123e-32
vn -3.46733e-17 -1 -1.96123e-32
vn -3.46733e-17 -1 -1.96123e-32
vn -3.46733e-17 -1 -1.96123e-32
vn -3.46733e-17 -1 -1.96123e-32
vn -3.46733e-17 -1 -1.96123e-32
vn -3.46733e-17 -1 -1.96123e-32
vn -3.46733e-17 -1 -1.96123e-32
f 30//30 24//24 25//25 
f 31//31 30//30 25//25 
f 26//26 31//31 25//25 
f 29//29 24//24 30//30 
f 23//23 24//24 29//29 
f 27//27 31//31 26//26 
f 28//28 23//23 29//29 
f 21//21 27//27 26//26 
f 22//22 28//28 27//27 
f 22//22 27//27 21//21 
f 22//22 23//23 28//28 

g Face_4
v -0.0349582 0.244731 0.034550000000000004
v -0.03751297 0.244731 0.033075
v -0.03751297 0.244731 0.030125000000000002
v -0.0349582 0.244731 0.028650000000000002
v -0.032403430000000004 0.244731 0.030125000000000002
v -0.032403430000000004 0.244731 0.033075
v -0.0349582 0.244731 0.034550000000000004
v -0.0349582 0.247931 0.034550000000000004
v -0.03624782 0.247931 0.03425318
v -0.03727793 0.247931 0.03342246
v -0.037841230000000003 0.247931 0.032225000000000004
v -0.037841230000000003 0.245931 0.032225000000000004
v -0.037841230000000003 0.245931 0.030975000000000003
v -0.03790073 0.245931 0.031390253
v -0.03790073 0.245931 0.031809747000000006
v -0.037841230000000003 0.247931 0.030975000000000003
v -0.03624782 0.247931 0.02894682
v -0.033668580000000004 0.247931 0.02894682
v -0.03207517 0.247931 0.030975000000000003
v -0.03207517 0.245931 0.030975000000000003
v -0.03207517 0.245931 0.032225000000000004
v -0.03201567 0.245931 0.031809747000000006
v -0.03201567 0.245931 0.031390253
v -0.03207517 0.247931 0.032225000000000004
v -0.03263847 0.247931 0.03342246
v -0.033668580000000004 0.247931 0.03425318
v -0.0349582 0.247931 0.034550000000000004
vn -5.65631e-16 0 1
vn -0.866025 3.00279e-17 0.5
vn -0.866025 3.00279e-17 -0.5
vn 4.43166e-16 4.24625e-33 -1
vn 0.866025 -3.00279e-17 -0.5
vn 0.866025 -3.00279e-17 0.5
vn -3.20702e-16 -8.49251e-33 1
vn -5.65631e-16 0 1
vn -0.43716 1.51578e-17 0.899384
vn -0.786349 2.72653e-17 0.617783
vn -0.977299 3.38862e-17 0.211864
vn -0.977299 3.38862e-17 0.211864
vn -0.977299 3.38862e-17 -0.211864
vn -0.997469 3.45855e-17 -0.0711007
vn -0.997469 3.45855e-17 0.0711007
vn -0.977299 3.38862e-17 -0.211864
vn -0.43716 1.51578e-17 -0.899384
vn 0.43716 -1.51578e-17 -0.899384
vn 0.977299 -3.38862e-17 -0.211864
vn 0.977299 -3.38862e-17 -0.211864
vn 0.977299 -3.38862e-17 0.211864
vn 0.997469 -3.45855e-17 0.0711007
vn 0.997469 -3.45855e-17 -0.0711007
vn 0.977299 -3.38862e-17 0.211864
vn 0.786349 -2.72653e-17 0.617783
vn 0.43716 -1.51578e-17 0.899384
vn -3.20702e-16 -8.49251e-33 1
f 32//32 39//39 40//40 
f 43//43 40//40 41//41 
f 43//43 41//41 42//42 
f 43//43 32//32 40//40 
f 33//33 43//43 46//46 
f 33//33 32//32 43//43 
f 44//44 47//47 48//48 
f 34//34 45//45 44//44 
f 34//34 46//46 45//45 
f 34//34 33//33 46//46 
f 35//35 48//48 49//49 
f 35//35 44//44 48//48 
f 35//35 34//34 44//44 
f 51//51 49//49 50//50 
f 51//51 35//35 49//49 
f 36//36 51//51 54//54 
f 36//36 35//35 51//51 
f 52//52 55//55 56//56 
f 52//52 56//56 57//57 
f 37//37 53//53 52//52 
f 37//37 54//54 53//53 
f 37//37 36//36 54//54 
f 38//38 57//57 58//58 
f 38//38 52//52 57//57 
f 38//38 37//37 52//52 

g Face_5
v -0.03207517 0.247931 0.030975000000000003
v -0.03207517 0.245931 0.030975000000000003
v -0.037841230000000003 0.245931 0.030975000000000003
v -0.037841230000000003 0.247931 0.030975000000000003
vn -5.65631e-16 -0 1
vn -5.65631e-16 -0 1
vn -5.65631e-16 -0 1
vn -5.65631e-16 -0 1
f 61//61 60//60 59//59 
f 61//61 59//59 62//62 

g Face_6
v -0.037841230000000003 0.247931 0.030975000000000003
v -0.03207517 0.247931 0.030975000000000003
v -0.03624782 0.247931 0.02894682
v -0.033668580000000004 0.247931 0.02894682
vn 3.46733e-17 1 1.96123e-32
vn 3.46733e-17 1 1.96123e-32
vn 3.46733e-17 1 1.96123e-32
vn 3.46733e-17 1 1.96123e-32
f 65//65 63//63 64//64 
f 65//65 64//64 66//66 

g Face_7
v -0.037841230000000003 0.247931 0.032225000000000004
v -0.037841230000000003 0.245931 0.032225000000000004
v -0.03207517 0.245931 0.032225000000000004
v -0.03207517 0.247931 0.032225000000000004
vn 5.65631e-16 -0 -1
vn 5.65631e-16 -0 -1
vn 5.65631e-16 -0 -1
vn 5.65631e-16 -0 -1
f 67//67 69//69 68//68 
f 67//67 70//70 69//69 

g Face_8
v -0.03207517 0.247931 0.032225000000000004
v -0.037841230000000003 0.247931 0.032225000000000004
v -0.0349582 0.247931 0.034550000000000004
v -0.03624782 0.247931 0.03425318
v -0.03727793 0.247931 0.03342246
v -0.03263847 0.247931 0.03342246
v -0.033668580000000004 0.247931 0.03425318
vn 3.46733e-17 1 1.96123e-32
vn 3.46733e-17 1 1.96123e-32
vn 3.46733e-17 1 1.96123e-32
vn 3.46733e-17 1 1.96123e-32
vn 3.46733e-17 1 1.96123e-32
vn 3.46733e-17 1 1.96123e-32
vn 3.46733e-17 1 1.96123e-32
f 72//72 74//74 73//73 
f 72//72 75//75 74//74 
f 72//72 76//76 71//71 
f 72//72 77//77 76//76 
f 72//72 73//73 77//77 

g Face_9
v -0.037841230000000003 0.245931 0.032225000000000004
v -0.03207517 0.245931 0.032225000000000004
v -0.03201567 0.245931 0.031809747000000006
v -0.03201567 0.245931 0.031390253
v -0.03207517 0.245931 0.030975000000000003
v -0.037841230000000003 0.245931 0.030975000000000003
v -0.03790073 0.245931 0.031390253
v -0.03790073 0.245931 0.031809747000000006
vn 3.46733e-17 1 1.96123e-32
vn 3.46733e-17 1 1.96123e-32
vn 3.46733e-17 1 1.96123e-32
vn 3.46733e-17 1 1.96123e-32
vn 3.46733e-17 1 1.96123e-32
vn 3.46733e-17 1 1.96123e-32
vn 3.46733e-17 1 1.96123e-32
vn 3.46733e-17 1 1.96123e-32
f 83//83 78//78 79//79 
f 83//83 79//79 80//80 
f 83//83 80//80 81//81 
f 83//83 81//81 82//82 
f 83//83 84//84 85//85 
f 83//83 85//85 78//78 

