mtllib Copie_de_Bati_Pied_Arriere_droit^Copie_de_Bati_Horloge_Comtoise_Verge_-_Sonnerie.mtl
usemtl Copie_de_Bati_Pied_Arriere_droit^Copie_de_Bati_Horloge_Comtoise_Verge_-_Sonnerie
#Wavefront export of shape 1-1-5--Copie_de_Bati_Pied_Arriere_droit_Copie_de_Bati_Horloge_Comtoise_Verge_-_Sonnerie

g Face_1
v -0.124333 0.22653069 0.0268
v -0.124333 0.24053069 0.0268
v -0.124333 0.24053069 0.0341
v -0.124333 0.00153069 0.0341
v -0.124333 0.00153069 0.0268
v -0.124333 0.22353069 0.0268
v -0.124333 0.22303069 0.0293
v -0.124333 0.22703069 0.0293
vn -1 0 -0
vn -1 0 -0
vn -1 0 -0
vn -1 0 -0
vn -1 0 -0
vn -1 0 -0
vn -1 0 -0
vn -1 0 -0
f 7//7 5//5 4//4 
f 6//6 5//5 7//7 
f 3//3 8//8 7//7 
f 2//2 1//1 8//8 
f 2//2 8//8 3//3 
f 3//3 7//7 4//4 

g Face_2
v -0.117033 0.22653069 0.0268
v -0.117033 0.24053069 0.0268
v -0.124333 0.24053069 0.0268
v -0.124333 0.22653069 0.0268
vn -0 -0 -1
vn -0 -0 -1
vn -0 -0 -1
vn -0 -0 -1
f 10//10 12//12 11//11 
f 10//10 9//9 12//12 

g Face_3
v -0.124333 0.22703069 0.0293
v -0.124333 0.22653069 0.0268
v -0.117033 0.22703069 0.0293
v -0.117033 0.22653069 0.0268
vn -0 -0.980581 0.196116
vn -0 -0.980581 0.196116
vn -0 -0.980581 0.196116
vn -0 -0.980581 0.196116
f 14//14 15//15 13//13 
f 14//14 16//16 15//15 

g Face_4
v -0.11882895 0.22303069 0.0293
v -0.117033 0.22303069 0.0293
v -0.117033 0.22703069 0.0293
v -0.124333 0.22703069 0.0293
v -0.124333 0.22303069 0.0293
v -0.12253705 0.22303069 0.0293
v -0.12145348 0.22412669 0.0293
v -0.11991252 0.22412669 0.0293
vn -0 -1.0842e-16 -1
vn -0 -1.0842e-16 -1
vn -0 -1.0842e-16 -1
vn -0 -1.0842e-16 -1
vn -0 -1.0842e-16 -1
vn -0 -1.0842e-16 -1
vn -0 -1.0842e-16 -1
vn -0 -1.0842e-16 -1
f 24//24 18//18 17//17 
f 19//19 18//18 24//24 
f 21//21 23//23 22//22 
f 20//20 24//24 23//23 
f 20//20 19//19 24//24 
f 20//20 23//23 21//21 

g Face_5
v -0.124333 0.22303069 0.0293
v -0.12253705 0.22303069 0.0293
v -0.124333 0.22353069 0.0268
v -0.12224425 0.22353069 0.026799999999999997
vn 0 0.980581 0.196116
vn 0 0.980581 0.196116
vn 0 0.980581 0.196116
vn 0 0.980581 0.196116
f 26//26 28//28 27//27 
f 25//25 26//26 27//27 

g Face_6
v -0.124333 0.22353069 0.0268
v -0.12224425 0.22353069 0.026799999999999997
v -0.124333 0.00153069 0.0268
v -0.117033 0.00153069 0.0268
v -0.117033 0.13353069 0.0268
v -0.119033 0.13253069 0.0268
v -0.119033 0.13953069 0.0268
v -0.117033 0.13853069 0.0268
v -0.117033 0.22353069 0.0268
v -0.11912175 0.22353069 0.0268
v -0.11902907 0.22115569 0.0268
v -0.12127128 0.22036869 0.0268
v -0.122683 0.22228069 0.0268
v -0.12263257 0.22272669 0.0268
v -0.12248382 0.22315069 0.0268
v -0.122183 0.12453069 0.0268
v -0.120683 0.12603069 0.0268
v -0.119183 0.12453069 0.0268
v -0.120683 0.12303069 0.0268
vn -0 -0 -1
vn -0 -0 -1
vn -0 -0 -1
vn -0 -0 -1
vn -0 -0 -1
vn -0 -0 -1
vn -0 -0 -1
vn -0 -0 -1
vn -0 -0 -1
vn -0 -0 -1
vn -0 -0 -1
vn -0 -0 -1
vn -0 -0 -1
vn -0 -0 -1
vn -0 -0 -1
vn -0 -0 -1
vn -0 -0 -1
vn -0 -0 -1
vn -0 -0 -1
f 47//47 32//32 31//31 
f 44//44 47//47 31//31 
f 46//46 32//32 47//47 
f 34//34 45//45 44//44 
f 34//34 46//46 45//45 
f 33//33 46//46 34//34 
f 35//35 34//34 44//44 
f 29//29 40//40 35//35 
f 41//41 40//40 29//29 
f 42//42 41//41 29//29 
f 43//43 42//42 29//29 
f 30//30 43//43 29//29 
f 39//39 36//36 35//35 
f 39//39 35//35 40//40 
f 37//37 39//39 38//38 
f 37//37 36//36 39//39 
f 29//29 44//44 31//31 
f 29//29 35//35 44//44 
f 32//32 46//46 33//33 

g Face_7
v -0.124333 0.00153069 0.0341
v -0.124333 0.00153069 0.0268
v -0.117033 0.00153069 0.0268
v -0.117033 0.00153069 0.0341
vn 0 -1 0
vn 0 -1 0
vn 0 -1 0
vn 0 -1 0
f 48//48 49//49 50//50 
f 48//48 50//50 51//51 

g Face_8
v -0.119033 0.13953069 0.0341
v -0.119033 0.13253069 0.0341
v -0.117033 0.13353069 0.0341
v -0.117033 0.00153069 0.0341
v -0.124333 0.00153069 0.0341
v -0.124333 0.24053069 0.0341
v -0.117033 0.24053069 0.0341
v -0.117033 0.13853069 0.0341
v -0.122183 0.12453069 0.0341
v -0.120683 0.12303069 0.0341
v -0.119183 0.12453069 0.0341
v -0.120683 0.12603069 0.0341
vn -0 -0 1
vn -0 -0 1
vn -0 -0 1
vn -0 -0 1
vn -0 -0 1
vn -0 -0 1
vn -0 -0 1
vn -0 -0 1
vn -0 -0 1
vn -0 -0 1
vn -0 -0 1
vn -0 -0 1
f 61//61 56//56 55//55 
f 62//62 61//61 55//55 
f 60//60 56//56 61//61 
f 53//53 63//63 62//62 
f 53//53 60//60 63//63 
f 53//53 62//62 54//54 
f 52//52 60//60 53//53 
f 58//58 52//52 59//59 
f 57//57 52//52 58//58 
f 54//54 62//62 55//55 
f 56//56 60//60 57//57 
f 60//60 52//52 57//57 

g Face_9
v -0.117033 0.24053069 0.0268
v -0.117033 0.24053069 0.0341
v -0.124333 0.24053069 0.0341
v -0.124333 0.24053069 0.0268
vn -0 1 -0
vn -0 1 -0
vn -0 1 -0
vn -0 1 -0
f 66//66 65//65 64//64 
f 66//66 64//64 67//67 

g Face_10
v -0.117033 0.22303069 0.0293
v -0.117033 0.22703069 0.0293
v -0.117033 0.22353069 0.0268
v -0.117033 0.13853069 0.0268
v -0.117033 0.13853069 0.0341
v -0.117033 0.24053069 0.0341
v -0.117033 0.24053069 0.0268
v -0.117033 0.22653069 0.0268
vn 1 -0 -0
vn 1 -0 -0
vn 1 -0 -0
vn 1 -0 -0
vn 1 -0 -0
vn 1 -0 -0
vn 1 -0 -0
vn 1 -0 -0
f 68//68 71//71 70//70 
f 68//68 72//72 71//71 
f 74//74 69//69 75//75 
f 73//73 68//68 69//69 
f 73//73 69//69 74//74 
f 72//72 68//68 73//73 

g Face_11
v -0.117033 0.22353069 0.0268
v -0.11912175 0.22353069 0.0268
v -0.117033 0.22303069 0.0293
v -0.11882895 0.22303069 0.0293
vn 0 0.980581 0.196116
vn 0 0.980581 0.196116
vn 0 0.980581 0.196116
vn 0 0.980581 0.196116
f 79//79 76//76 77//77 
f 79//79 78//78 76//76 

g Face_12
v -0.122683 0.22228069 0.0268
v -0.12263257 0.22272669 0.0268
v -0.12248382 0.22315069 0.0268
v -0.12224425 0.22353069 0.026799999999999997
v -0.122683 0.22228069 0.0313
v -0.12130103 0.22418269 0.0313
v -0.11906496999999999 0.22345669 0.0313
v -0.11906496999999999 0.22110469 0.0313
v -0.12130103 0.22037869 0.0313
v -0.122683 0.22228069 0.0313
v -0.122683 0.22228069 0.0268
v -0.11912175 0.22353069 0.0268
v -0.11902907 0.22115569 0.0268
v -0.12127128 0.22036869 0.0268
v -0.11882895 0.22303069 0.0293
v -0.12253705 0.22303069 0.0293
v -0.12145348 0.22412669 0.0293
v -0.11991252 0.22412669 0.0293
vn 1 -0 -0
vn 0.974784 -0.223149 -0
vn 0.900409 -0.435044 -0
vn 0.780625 -0.625 -0
vn 1 -0 -0
vn 0.309017 -0.951057 -0
vn -0.809017 -0.587785 -0
vn -0.809017 0.587785 -0
vn 0.309017 0.951057 0
vn 1 2.44929e-16 0
vn 1 2.44929e-16 0
vn -0.780625 -0.625 -0
vn -0.826964 0.562255 -0
vn 0.294139 0.955763 0
vn -0.927025 -0.375 -0
vn 0.927025 -0.375 -0
vn 0.385239 -0.922817 -0
vn -0.385239 -0.922817 -0
f 95//95 85//85 84//84 
f 80//80 95//95 84//84 
f 96//96 85//85 95//95 
f 81//81 95//95 80//80 
f 82//82 95//95 81//81 
f 83//83 95//95 82//82 
f 97//97 86//86 85//85 
f 97//97 85//85 96//96 
f 94//94 86//86 97//97 
f 87//87 86//86 94//94 
f 92//92 94//94 91//91 
f 92//92 87//87 94//94 
f 93//93 88//88 87//87 
f 93//93 87//87 92//92 
f 90//90 89//89 88//88 
f 90//90 88//88 93//93 

g Face_13
v -0.119033 0.13953069 0.0268
v -0.117033 0.13853069 0.0268
v -0.119033 0.13953069 0.0341
v -0.117033 0.13853069 0.0341
vn -0.447291 -0.894389 -0
vn -0.447291 -0.894389 -0
vn -0.447291 -0.894389 -0
vn -0.447291 -0.894389 -0
f 99//99 100//100 98//98 
f 99//99 101//101 100//100 

g Face_14
v -0.119033 0.13253069 0.0268
v -0.119033 0.13953069 0.0268
v -0.119033 0.13253069 0.0341
v -0.119033 0.13953069 0.0341
vn 1 -0 -0
vn 1 -0 -0
vn 1 -0 -0
vn 1 -0 -0
f 105//105 102//102 103//103 
f 105//105 104//104 102//102 

g Face_15
v -0.117033 0.13353069 0.0268
v -0.119033 0.13253069 0.0268
v -0.117033 0.13353069 0.0341
v -0.119033 0.13253069 0.0341
vn -0.447214 0.894427 -0
vn -0.447214 0.894427 -0
vn -0.447214 0.894427 -0
vn -0.447214 0.894427 -0
f 107//107 108//108 106//106 
f 107//107 109//109 108//108 

g Face_16
v -0.117033 0.00153069 0.0268
v -0.117033 0.13353069 0.0268
v -0.117033 0.00153069 0.0341
v -0.117033 0.13353069 0.0341
vn 1 -0 -0
vn 1 -0 -0
vn 1 -0 -0
vn 1 -0 -0
f 113//113 110//110 111//111 
f 113//113 112//112 110//110 

g Face_17
v -0.122183 0.12453069 0.0268
v -0.120683 0.12603069 0.0268
v -0.119183 0.12453069 0.0268
v -0.120683 0.12303069 0.0268
v -0.122183 0.12453069 0.0268
v -0.122183 0.12453069 0.0341
v -0.122183 0.12453069 0.0341
v -0.120683 0.12303069 0.0341
v -0.119183 0.12453069 0.0341
v -0.120683 0.12603069 0.0341
vn 1 -0 -0
vn -1.60812e-16 -1 -0
vn -1 3.21625e-16 -0
vn -1.83697e-16 1 -0
vn 1 -6.43249e-16 -0
vn 1 -0 -0
vn 1 -6.43249e-16 -0
vn -1.83697e-16 1 -0
vn -1 3.21625e-16 -0
vn -1.60812e-16 -1 -0
f 115//115 119//119 114//114 
f 115//115 123//123 119//119 
f 116//116 122//122 123//123 
f 116//116 123//123 115//115 
f 117//117 121//121 122//122 
f 117//117 122//122 116//116 
f 118//118 120//120 121//121 
f 118//118 121//121 117//117 

g Face_18
v -0.122683 0.22228069 0.0313
v -0.12130103 0.22418269 0.0313
v -0.11906496999999999 0.22345669 0.0313
v -0.11906496999999999 0.22110469 0.0313
v -0.12130103 0.22037869 0.0313
vn 0 0 -1
vn 0 0 -1
vn 0 0 -1
vn 0 0 -1
vn 0 0 -1
f 125//125 126//126 127//127 
f 125//125 127//127 128//128 
f 125//125 128//128 124//124 

