mtllib Copie_de_Pignon_Ass02^Copie_de_Assemblage_02_Horloge_Comtoise_Verge_-_Sonnerie.mtl
usemtl Copie_de_Pignon_Ass02^Copie_de_Assemblage_02_Horloge_Comtoise_Verge_-_Sonnerie
#Wavefront export of shape 1-36-2--Copie_de_Pignon_Ass02_Copie_de_Assemblage_02_Horloge_Comtoise_Verge_-_Sonnerie

g Face_1
v 0.04234535820000002 0.170232 -0.03224188240000006
v 0.042308682400000026 0.170232 -0.03422144180000006
v 0.044288241800000024 0.170232 -0.034258117600000054
v 0.04432491760000002 0.170232 -0.03227855820000006
v 0.04234535820000002 0.170232 -0.03224188240000006
v 0.04234535820000002 0.15873199999999998 -0.03224188240000007
v 0.04432491760000002 0.15873199999999998 -0.032278558200000064
v 0.044288241800000024 0.15873199999999998 -0.03425811760000006
v 0.042308682400000026 0.15873199999999998 -0.034221441800000064
v 0.04234535820000002 0.15873199999999998 -0.03224188240000007
vn -2.5638e-30 -7.71086e-76 -1
vn 1.67633e-30 1 -6.12323e-17
vn 2.5638e-30 1.22465e-16 1
vn -1.67633e-30 -1 1.83697e-16
vn -2.5638e-30 -2.44929e-16 -1
vn -2.5638e-30 -2.44929e-16 -1
vn -1.67633e-30 -1 1.83697e-16
vn 2.5638e-30 1.22465e-16 1
vn 1.67633e-30 1 -6.12323e-17
vn -2.5638e-30 -7.71086e-76 -1
f 9//9 2//2 1//1 
f 9//9 1//1 10//10 
f 8//8 3//3 2//2 
f 8//8 2//2 9//9 
f 7//7 4//4 3//3 
f 7//7 3//3 8//8 
f 6//6 5//5 4//4 
f 6//6 4//4 7//7 

g Face_2
v 0.043133824272593026 0.170232 -0.03478915878127606
v 0.04350656854089802 0.170232 -0.03478833753396106
v 0.043868346236082024 0.170232 -0.03469855243352406
v 0.044198224882770025 0.170232 -0.03452499144564006
v 0.045606627100000026 0.170232 -0.035626277200000056
v 0.045423328129972025 0.170232 -0.034717867439879056
v 0.04455826688277002 0.170232 -0.034178047945640055
v 0.044743928055378024 0.170232 -0.033854824699196054
v 0.044847052432442025 0.170232 -0.03349662108691906
v 0.04486168023227302 0.170232 -0.033124163047036054
v 0.046519627211920024 0.170232 -0.032455092820440054
v 0.045641271257560026 0.170232 -0.03215962682817006
v 0.04474123983462902 0.170232 -0.03263888628402806
v 0.044554152444625024 0.170232 -0.03231648703425006
v 0.04429550606537502 0.170232 -0.03204807572325006
v 0.043980258125051026 0.170232 -0.03184917448173206
v 0.04422980011192002 0.170232 -0.03007881562044006
v 0.04353474528784002 0.170232 -0.030691757306630058
v 0.04349977572740702 0.170232 -0.031710841218724056
v 0.04312703145910202 0.170232 -0.031711662466039056
v 0.04276525376391802 0.170232 -0.03180144756647606
v 0.04243537511723002 0.170232 -0.03197500855436006
v 0.04102697290000002 0.170232 -0.03087372280000006
v 0.04121027187002802 0.170232 -0.03178213256012106
v 0.042075333117230024 0.170232 -0.03232195205436006
v 0.04188967194462202 0.170232 -0.03264517530080406
v 0.04178654756755802 0.170232 -0.033003378913081055
v 0.041771919767727025 0.170232 -0.03337583695296406
v 0.04011397278808002 0.170232 -0.03404490717956006
v 0.04099232874244002 0.170232 -0.03434037317183006
v 0.041892360165371026 0.170232 -0.03386111371597206
v 0.04207944755537502 0.170232 -0.034183512965750056
v 0.04233809393462502 0.170232 -0.034451924276750055
v 0.04265334187494902 0.170232 -0.03465082551826806
v 0.042403799888080025 0.170232 -0.03642118437956006
v 0.043098854712160024 0.170232 -0.03580824269337006
v 0.04234535820000002 0.170232 -0.03224188240000006
v 0.042308682400000026 0.170232 -0.03422144180000006
v 0.044288241800000024 0.170232 -0.034258117600000054
v 0.04432491760000002 0.170232 -0.03227855820000006
vn -1 1.67633e-30 2.5638e-30
vn -1 1.67633e-30 2.5638e-30
vn -1 1.67633e-30 2.5638e-30
vn -1 1.67633e-30 2.5638e-30
vn -1 1.67633e-30 2.5638e-30
vn -1 1.67633e-30 2.5638e-30
vn -1 1.67633e-30 2.5638e-30
vn -1 1.67633e-30 2.5638e-30
vn -1 1.67633e-30 2.5638e-30
vn -1 1.67633e-30 2.5638e-30
vn -1 1.67633e-30 2.5638e-30
vn -1 1.67633e-30 2.5638e-30
vn -1 1.67633e-30 2.5638e-30
vn -1 1.67633e-30 2.5638e-30
vn -1 1.67633e-30 2.5638e-30
vn -1 1.67633e-30 2.5638e-30
vn -1 1.67633e-30 2.5638e-30
vn -1 1.67633e-30 2.5638e-30
vn -1 1.67633e-30 2.5638e-30
vn -1 1.67633e-30 2.5638e-30
vn -1 1.67633e-30 2.5638e-30
vn -1 1.67633e-30 2.5638e-30
vn -1 1.67633e-30 2.5638e-30
vn -1 1.67633e-30 2.5638e-30
vn -1 1.67633e-30 2.5638e-30
vn -1 1.67633e-30 2.5638e-30
vn -1 1.67633e-30 2.5638e-30
vn -1 1.67633e-30 2.5638e-30
vn -1 1.67633e-30 2.5638e-30
vn -1 1.67633e-30 2.5638e-30
vn -1 1.67633e-30 2.5638e-30
vn -1 1.67633e-30 2.5638e-30
vn -1 1.67633e-30 2.5638e-30
vn -1 1.67633e-30 2.5638e-30
vn -1 1.67633e-30 2.5638e-30
vn -1 1.67633e-30 2.5638e-30
vn -1 1.67633e-30 2.5638e-30
vn -1 1.67633e-30 2.5638e-30
vn -1 1.67633e-30 2.5638e-30
vn -1 1.67633e-30 2.5638e-30
f 20//20 22//22 21//21 
f 23//23 22//22 20//20 
f 50//50 24//24 23//23 
f 50//50 23//23 20//20 
f 49//49 18//18 17//17 
f 49//49 19//19 18//18 
f 49//49 20//20 19//19 
f 49//49 50//50 20//20 
f 25//25 24//24 50//50 
f 14//14 16//16 15//15 
f 14//14 17//17 16//16 
f 14//14 49//49 17//17 
f 26//26 25//25 50//50 
f 13//13 49//49 14//14 
f 12//12 49//49 13//13 
f 28//28 27//27 26//26 
f 29//29 26//26 50//50 
f 29//29 28//28 26//26 
f 11//11 49//49 12//12 
f 44//44 11//11 46//46 
f 45//45 44//44 46//46 
f 47//47 30//30 29//29 
f 47//47 31//31 30//30 
f 47//47 32//32 31//31 
f 47//47 29//29 50//50 
f 48//48 44//44 43//43 
f 48//48 11//11 44//44 
f 48//48 49//49 11//11 
f 42//42 48//48 43//43 
f 35//35 32//32 47//47 
f 41//41 48//48 42//42 
f 36//36 35//35 47//47 
f 37//37 36//36 47//47 
f 38//38 37//37 47//47 
f 38//38 47//47 48//48 
f 38//38 48//48 41//41 
f 34//34 32//32 35//35 
f 40//40 38//38 41//41 
f 33//33 32//32 34//34 
f 39//39 38//38 40//40 

g Face_3
v 0.04265334187494902 0.15873199999999998 -0.034650825518268064
v 0.04233809393462502 0.15873199999999998 -0.03445192427675006
v 0.04207944755537502 0.15873199999999998 -0.03418351296575006
v 0.041892360165371026 0.15873199999999998 -0.033861113715972065
v 0.042403799888080025 0.15873199999999998 -0.036421184379560066
v 0.043098854712160024 0.15873199999999998 -0.03580824269337007
v 0.043133824272593026 0.15873199999999998 -0.034789158781276065
v 0.044198224882770025 0.15873199999999998 -0.034524991445640064
v 0.043868346236082024 0.15873199999999998 -0.034698552433524064
v 0.04350656854089802 0.15873199999999998 -0.034788337533961065
v 0.045606627100000026 0.15873199999999998 -0.03562627720000006
v 0.045423328129972025 0.15873199999999998 -0.03471786743987906
v 0.04455826688277002 0.15873199999999998 -0.03417804794564006
v 0.04486168023227302 0.15873199999999998 -0.03312416304703607
v 0.044847052432442025 0.15873199999999998 -0.033496621086919066
v 0.044743928055378024 0.15873199999999998 -0.03385482469919606
v 0.046519627211920024 0.15873199999999998 -0.03245509282044006
v 0.045641271257560026 0.15873199999999998 -0.032159626828170064
v 0.04474123983462902 0.15873199999999998 -0.032638886284028064
v 0.043980258125051026 0.15873199999999998 -0.031849174481732065
v 0.04429550606537502 0.15873199999999998 -0.032048075723250066
v 0.044554152444625024 0.15873199999999998 -0.032316487034250066
v 0.04422980011192002 0.15873199999999998 -0.030078815620440066
v 0.04353474528784002 0.15873199999999998 -0.030691757306630065
v 0.04349977572740702 0.15873199999999998 -0.03171084121872406
v 0.04243537511723002 0.15873199999999998 -0.031975008554360064
v 0.04276525376391802 0.15873199999999998 -0.031801447566476064
v 0.04312703145910202 0.15873199999999998 -0.03171166246603906
v 0.04102697290000002 0.15873199999999998 -0.030873722800000065
v 0.04121027187002802 0.15873199999999998 -0.031782132560121065
v 0.042075333117230024 0.15873199999999998 -0.032321952054360066
v 0.041771919767727025 0.15873199999999998 -0.03337583695296406
v 0.04178654756755802 0.15873199999999998 -0.03300337891308106
v 0.04188967194462202 0.15873199999999998 -0.03264517530080407
v 0.04011397278808002 0.15873199999999998 -0.03404490717956007
v 0.04099232874244002 0.15873199999999998 -0.034340373171830064
v 0.04234535820000002 0.15873199999999998 -0.03224188240000007
v 0.04432491760000002 0.15873199999999998 -0.032278558200000064
v 0.044288241800000024 0.15873199999999998 -0.03425811760000006
v 0.042308682400000026 0.15873199999999998 -0.034221441800000064
vn 1 -1.67633e-30 -2.5638e-30
vn 1 -1.67633e-30 -2.5638e-30
vn 1 -1.67633e-30 -2.5638e-30
vn 1 -1.67633e-30 -2.5638e-30
vn 1 -1.67633e-30 -2.5638e-30
vn 1 -1.67633e-30 -2.5638e-30
vn 1 -1.67633e-30 -2.5638e-30
vn 1 -1.67633e-30 -2.5638e-30
vn 1 -1.67633e-30 -2.5638e-30
vn 1 -1.67633e-30 -2.5638e-30
vn 1 -1.67633e-30 -2.5638e-30
vn 1 -1.67633e-30 -2.5638e-30
vn 1 -1.67633e-30 -2.5638e-30
vn 1 -1.67633e-30 -2.5638e-30
vn 1 -1.67633e-30 -2.5638e-30
vn 1 -1.67633e-30 -2.5638e-30
vn 1 -1.67633e-30 -2.5638e-30
vn 1 -1.67633e-30 -2.5638e-30
vn 1 -1.67633e-30 -2.5638e-30
vn 1 -1.67633e-30 -2.5638e-30
vn 1 -1.67633e-30 -2.5638e-30
vn 1 -1.67633e-30 -2.5638e-30
vn 1 -1.67633e-30 -2.5638e-30
vn 1 -1.67633e-30 -2.5638e-30
vn 1 -1.67633e-30 -2.5638e-30
vn 1 -1.67633e-30 -2.5638e-30
vn 1 -1.67633e-30 -2.5638e-30
vn 1 -1.67633e-30 -2.5638e-30
vn 1 -1.67633e-30 -2.5638e-30
vn 1 -1.67633e-30 -2.5638e-30
vn 1 -1.67633e-30 -2.5638e-30
vn 1 -1.67633e-30 -2.5638e-30
vn 1 -1.67633e-30 -2.5638e-30
vn 1 -1.67633e-30 -2.5638e-30
vn 1 -1.67633e-30 -2.5638e-30
vn 1 -1.67633e-30 -2.5638e-30
vn 1 -1.67633e-30 -2.5638e-30
vn 1 -1.67633e-30 -2.5638e-30
vn 1 -1.67633e-30 -2.5638e-30
vn 1 -1.67633e-30 -2.5638e-30
f 64//64 67//67 68//68 
f 69//69 64//64 68//68 
f 88//88 69//69 72//72 
f 88//88 64//64 69//69 
f 89//89 65//65 64//64 
f 89//89 66//66 65//65 
f 89//89 63//63 66//66 
f 89//89 64//64 88//88 
f 71//71 88//88 72//72 
f 58//58 61//61 62//62 
f 58//58 62//62 63//63 
f 58//58 63//63 89//89 
f 70//70 88//88 71//71 
f 59//59 58//58 89//89 
f 60//60 59//59 89//89 
f 74//74 70//70 73//73 
f 75//75 88//88 70//70 
f 75//75 70//70 74//74 
f 57//57 60//60 89//89 
f 51//51 56//56 57//57 
f 55//55 56//56 51//51 
f 87//87 77//77 76//76 
f 87//87 78//78 77//77 
f 87//87 75//75 78//78 
f 87//87 88//88 75//75 
f 90//90 52//52 51//51 
f 90//90 51//51 57//57 
f 90//90 57//57 89//89 
f 53//53 52//52 90//90 
f 81//81 87//87 76//76 
f 54//54 53//53 90//90 
f 84//84 87//87 81//81 
f 83//83 87//87 84//84 
f 82//82 54//54 90//90 
f 82//82 90//90 87//87 
f 82//82 87//87 83//83 
f 80//80 81//81 76//76 
f 86//86 54//54 82//82 
f 79//79 80//80 76//76 
f 85//85 86//86 82//82 

g Face_4
v 0.042403799888080025 0.170232 -0.03642118437956006
v 0.043098854712160024 0.170232 -0.03580824269337006
v 0.043133824272593026 0.170232 -0.03478915878127606
v 0.042403799888080025 0.15873199999999998 -0.036421184379560066
v 0.043098854712160024 0.15873199999999998 -0.03580824269337007
v 0.043133824272593026 0.15873199999999998 -0.034789158781276065
vn -0 -0.871365 -0.490636
vn -0 0.553544 -0.83282
vn -0 0.73408 -0.679063
vn -0 -0.871365 -0.490636
vn -0 0.553544 -0.83282
vn -0 0.73408 -0.679063
f 92//92 94//94 91//91 
f 92//92 95//95 94//94 
f 93//93 96//96 95//95 
f 93//93 95//95 92//92 

g Face_5
v 0.04265334187494902 0.170232 -0.03465082551826806
v 0.042403799888080025 0.170232 -0.03642118437956006
v 0.04265334187494902 0.15873199999999998 -0.034650825518268064
v 0.042403799888080025 0.15873199999999998 -0.036421184379560066
vn -0 -0.221045 0.975264
vn -0 -0.860586 -0.509306
vn -0 -0.221045 0.975264
vn -0 -0.860586 -0.509306
f 98//98 99//99 97//97 
f 98//98 100//100 99//99 

g Face_6
v 0.04011397278808002 0.170232 -0.03404490717956006
v 0.04099232874244002 0.170232 -0.03434037317183006
v 0.041892360165371026 0.170232 -0.03386111371597206
v 0.04011397278808002 0.15873199999999998 -0.03404490717956007
v 0.04099232874244002 0.15873199999999998 -0.034340373171830064
v 0.041892360165371026 0.15873199999999998 -0.033861113715972065
vn -0 -0.860586 0.509306
vn -0 -0.444471 -0.895793
vn -0 -0.221045 -0.975264
vn -0 -0.860586 0.509306
vn -0 -0.444471 -0.895793
vn -0 -0.221045 -0.975264
f 102//102 104//104 101//101 
f 102//102 105//105 104//104 
f 103//103 106//106 105//105 
f 103//103 105//105 102//102 

g Face_7
v 0.041771919767727025 0.170232 -0.03337583695296406
v 0.04011397278808002 0.170232 -0.03404490717956006
v 0.041771919767727025 0.15873199999999998 -0.03337583695296406
v 0.04011397278808002 0.15873199999999998 -0.03404490717956007
vn 0 0.73408 0.679063
vn -0 -0.871365 0.490636
vn 0 0.73408 0.679063
vn -0 -0.871365 0.490636
f 108//108 109//109 107//107 
f 108//108 110//110 109//109 

g Face_8
v 0.04102697290000002 0.170232 -0.03087372280000006
v 0.04121027187002802 0.170232 -0.03178213256012106
v 0.042075333117230024 0.170232 -0.03232195205436006
v 0.04102697290000002 0.15873199999999998 -0.030873722800000065
v 0.04121027187002802 0.15873199999999998 -0.031782132560121065
v 0.042075333117230024 0.15873199999999998 -0.032321952054360066
vn 1.80518e-32 0.010779 0.999942
vn -0 -0.998015 -0.0629735
vn -0 -0.955126 -0.296201
vn 1.80518e-32 0.010779 0.999942
vn -0 -0.998015 -0.0629735
vn -0 -0.955126 -0.296201
f 112//112 114//114 111//111 
f 112//112 115//115 114//114 
f 113//113 116//116 115//115 
f 113//113 115//115 112//112 

g Face_9
v 0.04243537511723002 0.170232 -0.03197500855436006
v 0.04102697290000002 0.170232 -0.03087372280000006
v 0.04243537511723002 0.15873199999999998 -0.031975008554360064
v 0.04102697290000002 0.15873199999999998 -0.030873722800000065
vn -0 0.955126 -0.296201
vn -1.84128e-32 -0.010779 0.999942
vn -0 0.955126 -0.296201
vn -1.84128e-32 -0.010779 0.999942
f 118//118 119//119 117//117 
f 118//118 120//120 119//119 

g Face_10
v 0.04422980011192002 0.170232 -0.03007881562044006
v 0.04353474528784002 0.170232 -0.030691757306630058
v 0.04349977572740702 0.170232 -0.031710841218724056
v 0.04422980011192002 0.15873199999999998 -0.030078815620440066
v 0.04353474528784002 0.15873199999999998 -0.030691757306630065
v 0.04349977572740702 0.15873199999999998 -0.03171084121872406
vn 0 0.871365 0.490636
vn -0 -0.553544 0.83282
vn -0 -0.73408 0.679063
vn 0 0.871365 0.490636
vn -0 -0.553544 0.83282
vn -0 -0.73408 0.679063
f 122//122 124//124 121//121 
f 122//122 125//125 124//124 
f 123//123 126//126 125//125 
f 123//123 125//125 122//122 

g Face_11
v 0.043980258125051026 0.170232 -0.03184917448173206
v 0.04422980011192002 0.170232 -0.03007881562044006
v 0.043980258125051026 0.15873199999999998 -0.031849174481732065
v 0.04422980011192002 0.15873199999999998 -0.030078815620440066
vn -0 0.221045 -0.975264
vn 0 0.860586 0.509306
vn -0 0.221045 -0.975264
vn 0 0.860586 0.509306
f 128//128 129//129 127//127 
f 128//128 130//130 129//129 

g Face_12
v 0.046519627211920024 0.170232 -0.032455092820440054
v 0.045641271257560026 0.170232 -0.03215962682817006
v 0.04474123983462902 0.170232 -0.03263888628402806
v 0.046519627211920024 0.15873199999999998 -0.03245509282044006
v 0.045641271257560026 0.15873199999999998 -0.032159626828170064
v 0.04474123983462902 0.15873199999999998 -0.032638886284028064
vn -0 0.860586 -0.509306
vn 0 0.444471 0.895793
vn 0 0.221045 0.975264
vn -0 0.860586 -0.509306
vn 0 0.444471 0.895793
vn 0 0.221045 0.975264
f 132//132 134//134 131//131 
f 132//132 135//135 134//134 
f 133//133 136//136 135//135 
f 133//133 135//135 132//132 

g Face_13
v 0.04486168023227302 0.170232 -0.033124163047036054
v 0.046519627211920024 0.170232 -0.032455092820440054
v 0.04486168023227302 0.15873199999999998 -0.03312416304703607
v 0.046519627211920024 0.15873199999999998 -0.03245509282044006
vn -0 -0.73408 -0.679063
vn -0 0.871365 -0.490636
vn -0 -0.73408 -0.679063
vn -0 0.871365 -0.490636
f 138//138 139//139 137//137 
f 138//138 140//140 139//139 

g Face_14
v 0.045606627100000026 0.170232 -0.035626277200000056
v 0.045423328129972025 0.170232 -0.034717867439879056
v 0.04455826688277002 0.170232 -0.034178047945640055
v 0.045606627100000026 0.15873199999999998 -0.03562627720000006
v 0.045423328129972025 0.15873199999999998 -0.03471786743987906
v 0.04455826688277002 0.15873199999999998 -0.03417804794564006
vn -1.84128e-32 -0.010779 -0.999942
vn 0 0.998015 0.0629735
vn 0 0.955126 0.296201
vn -1.84128e-32 -0.010779 -0.999942
vn 0 0.998015 0.0629735
vn 0 0.955126 0.296201
f 142//142 144//144 141//141 
f 142//142 145//145 144//144 
f 143//143 146//146 145//145 
f 143//143 145//145 142//142 

g Face_15
v 0.044198224882770025 0.170232 -0.03452499144564006
v 0.045606627100000026 0.170232 -0.035626277200000056
v 0.044198224882770025 0.15873199999999998 -0.034524991445640064
v 0.045606627100000026 0.15873199999999998 -0.03562627720000006
vn -0 -0.955126 0.296201
vn 1.80518e-32 0.010779 -0.999942
vn -0 -0.955126 0.296201
vn 1.80518e-32 0.010779 -0.999942
f 148//148 149//149 147//147 
f 148//148 150//150 149//149 

g Face_16
v 0.044198224882770025 0.15873199999999998 -0.034524991445640064
v 0.043868346236082024 0.15873199999999998 -0.034698552433524064
v 0.04350656854089802 0.15873199999999998 -0.034788337533961065
v 0.043133824272593026 0.15873199999999998 -0.034789158781276065
v 0.043133824272593026 0.170232 -0.03478915878127606
v 0.04350656854089802 0.170232 -0.03478833753396106
v 0.043868346236082024 0.170232 -0.03469855243352406
v 0.044198224882770025 0.170232 -0.03452499144564006
vn -2.80061e-30 -0.16129 -0.986907
vn -3.01587e-30 -0.39224 -0.919863
vn -3.05671e-30 -0.600505 -0.799621
vn -2.92078e-30 -0.774041 -0.633135
vn -2.92078e-30 -0.774041 -0.633135
vn -3.05671e-30 -0.600505 -0.799621
vn -3.01587e-30 -0.39224 -0.919863
vn -2.80061e-30 -0.16129 -0.986907
f 157//157 151//151 152//152 
f 157//157 158//158 151//151 
f 156//156 152//152 153//153 
f 156//156 157//157 152//152 
f 155//155 153//153 154//154 
f 155//155 156//156 153//153 

g Face_17
v 0.04265334187494902 0.15873199999999998 -0.034650825518268064
v 0.04233809393462502 0.15873199999999998 -0.03445192427675006
v 0.04207944755537502 0.15873199999999998 -0.03418351296575006
v 0.041892360165371026 0.15873199999999998 -0.033861113715972065
v 0.041892360165371026 0.170232 -0.03386111371597206
v 0.04207944755537502 0.170232 -0.034183512965750056
v 0.04233809393462502 0.170232 -0.034451924276750055
v 0.04265334187494902 0.170232 -0.03465082551826806
vn -2.47492e-30 -0.935332 -0.353772
vn -1.97244e-30 -0.992745 -0.120242
vn -1.35589e-30 -0.992745 0.120242
vn -6.60924e-31 -0.935332 0.353772
vn -6.60924e-31 -0.935332 0.353772
vn -1.35589e-30 -0.992745 0.120242
vn -1.97244e-30 -0.992745 -0.120242
vn -2.47492e-30 -0.935332 -0.353772
f 165//165 159//159 160//160 
f 165//165 166//166 159//159 
f 164//164 160//160 161//161 
f 164//164 165//165 160//160 
f 163//163 161//161 162//162 
f 163//163 164//164 161//161 

g Face_18
v 0.041771919767727025 0.15873199999999998 -0.03337583695296406
v 0.04178654756755802 0.15873199999999998 -0.03300337891308106
v 0.04188967194462202 0.15873199999999998 -0.03264517530080407
v 0.042075333117230024 0.15873199999999998 -0.032321952054360066
v 0.042075333117230024 0.170232 -0.03232195205436006
v 0.04188967194462202 0.170232 -0.03264517530080406
v 0.04178654756755802 0.170232 -0.033003378913081055
v 0.041771919767727025 0.170232 -0.03337583695296406
vn 3.25682e-31 -0.774041 0.633135
vn 1.04342e-30 -0.600505 0.799621
vn 1.70082e-30 -0.39224 0.919863
vn 2.25985e-30 -0.16129 0.986907
vn 2.25985e-30 -0.16129 0.986907
vn 1.70082e-30 -0.39224 0.919863
vn 1.04342e-30 -0.600505 0.799621
vn 3.25682e-31 -0.774041 0.633135
f 173//173 167//167 168//168 
f 173//173 174//174 167//167 
f 172//172 168//168 169//169 
f 172//172 173//173 168//168 
f 171//171 169//169 170//170 
f 171//171 172//172 169//169 

g Face_19
v 0.04243537511723002 0.15873199999999998 -0.031975008554360064
v 0.04276525376391802 0.15873199999999998 -0.031801447566476064
v 0.04312703145910202 0.15873199999999998 -0.03171166246603906
v 0.04349977572740702 0.15873199999999998 -0.03171084121872406
v 0.04349977572740702 0.170232 -0.031710841218724056
v 0.04312703145910202 0.170232 -0.031711662466039056
v 0.04276525376391802 0.170232 -0.03180144756647606
v 0.04243537511723002 0.170232 -0.03197500855436006
vn 2.80061e-30 0.16129 0.986907
vn 3.01587e-30 0.39224 0.919863
vn 3.05671e-30 0.600505 0.799621
vn 2.92078e-30 0.774041 0.633135
vn 2.92078e-30 0.774041 0.633135
vn 3.05671e-30 0.600505 0.799621
vn 3.01587e-30 0.39224 0.919863
vn 2.80061e-30 0.16129 0.986907
f 181//181 175//175 176//176 
f 181//181 182//182 175//175 
f 180//180 176//176 177//177 
f 180//180 181//181 176//176 
f 179//179 177//177 178//178 
f 179//179 180//180 177//177 

g Face_20
v 0.043980258125051026 0.15873199999999998 -0.031849174481732065
v 0.04429550606537502 0.15873199999999998 -0.032048075723250066
v 0.044554152444625024 0.15873199999999998 -0.032316487034250066
v 0.04474123983462902 0.15873199999999998 -0.032638886284028064
v 0.04474123983462902 0.170232 -0.03263888628402806
v 0.044554152444625024 0.170232 -0.03231648703425006
v 0.04429550606537502 0.170232 -0.03204807572325006
v 0.043980258125051026 0.170232 -0.03184917448173206
vn 2.47492e-30 0.935332 0.353772
vn 1.97244e-30 0.992745 0.120242
vn 1.35589e-30 0.992745 -0.120242
vn 6.60924e-31 0.935332 -0.353772
vn 6.60924e-31 0.935332 -0.353772
vn 1.35589e-30 0.992745 -0.120242
vn 1.97244e-30 0.992745 0.120242
vn 2.47492e-30 0.935332 0.353772
f 189//189 183//183 184//184 
f 189//189 190//190 183//183 
f 188//188 184//184 185//185 
f 188//188 189//189 184//184 
f 187//187 185//185 186//186 
f 187//187 188//188 185//185 

g Face_21
v 0.04486168023227302 0.15873199999999998 -0.03312416304703607
v 0.044847052432442025 0.15873199999999998 -0.033496621086919066
v 0.044743928055378024 0.15873199999999998 -0.03385482469919606
v 0.04455826688277002 0.15873199999999998 -0.03417804794564006
v 0.04455826688277002 0.170232 -0.034178047945640055
v 0.044743928055378024 0.170232 -0.033854824699196054
v 0.044847052432442025 0.170232 -0.03349662108691906
v 0.04486168023227302 0.170232 -0.033124163047036054
vn -3.25682e-31 0.774041 -0.633135
vn -1.04342e-30 0.600505 -0.799621
vn -1.70082e-30 0.39224 -0.919863
vn -2.25985e-30 0.16129 -0.986907
vn -2.25985e-30 0.16129 -0.986907
vn -1.70082e-30 0.39224 -0.919863
vn -1.04342e-30 0.600505 -0.799621
vn -3.25682e-31 0.774041 -0.633135
f 197//197 191//191 192//192 
f 197//197 198//198 191//191 
f 196//196 192//192 193//193 
f 196//196 197//197 192//192 
f 195//195 193//193 194//194 
f 195//195 196//196 193//193 

