mtllib Copie_de_pignon_Ass_07^Copie_de_Assemblage_07_Horloge_Comtoise_Verge_-_Sonnerie_instance_3.mtl
usemtl Copie_de_pignon_Ass_07^Copie_de_Assemblage_07_Horloge_Comtoise_Verge_-_Sonnerie_instance_3
#Wavefront export of shape 1-20-3--Copie_de_pignon_Ass_07_Copie_de_Assemblage_07_Horloge_Comtoise_Verge_-_Sonnerie-4

g Face_1
v -0.06662593375430662 0.14150834801644765 -0.056650000000000006
v -0.06505195386768858 0.14212669449213497 -0.056650000000000006
v -0.06505195386768858 0.14212669449213497 -0.06555000000000001
v -0.06662593375430662 0.14150834801644765 -0.06555000000000001
vn 1.31672e-17 -0.540433 -0.841387
vn 2.03172e-17 -0.8339 0.551916
vn 2.03172e-17 -0.8339 0.551916
vn 1.31672e-17 -0.540433 -0.841387
f 1//1 3//3 2//2 
f 1//1 4//4 3//3 

g Face_2
v -0.06662593375430662 0.14150834801644765 -0.056650000000000006
v -0.06505195386768858 0.14212669449213497 -0.056650000000000006
v -0.06530156894795006 0.14255992841907109 -0.056650000000000006
v -0.06523588582196553 0.14240588101140506 -0.056650000000000006
v -0.06515228474427931 0.1422607766836386 -0.056650000000000006
vn -1 -2.77556e-17 6.93889e-18
vn -1 -2.77556e-17 6.93889e-18
vn -1 -2.77556e-17 6.93889e-18
vn -1 -2.77556e-17 6.93889e-18
vn -1 -2.77556e-17 6.93889e-18
f 5//5 8//8 7//7 
f 5//5 9//9 8//8 
f 5//5 6//6 9//9 

g Face_3
v -0.06662593375430662 0.14150834801644765 -0.056650000000000006
v -0.06530156894795006 0.14255992841907109 -0.056650000000000006
v -0.06662593375430662 0.14150834801644765 -0.06555000000000001
v -0.06530156894795006 0.14255992841907109 -0.06555000000000001
vn 1.59285e-18 -0.0653768 -0.997861
vn -3.04144e-17 0.998663 -0.0516921
vn 1.59285e-18 -0.0653768 -0.997861
vn -3.04144e-17 0.998663 -0.0516921
f 11//11 12//12 10//10 
f 11//11 13//13 12//12 

g Face_4
v -0.06505195386768858 0.14212669449213497 -0.06555000000000001
v -0.06662593375430662 0.14150834801644765 -0.06555000000000001
v -0.06530156894795006 0.14255992841907109 -0.06555000000000001
v -0.06523588582196553 0.14240588101140506 -0.06555000000000001
v -0.06515228474427931 0.1422607766836386 -0.06555000000000001
vn 1 2.77556e-17 -6.93889e-18
vn 1 2.77556e-17 -6.93889e-18
vn 1 2.77556e-17 -6.93889e-18
vn 1 2.77556e-17 -6.93889e-18
vn 1 2.77556e-17 -6.93889e-18
f 15//15 16//16 17//17 
f 15//15 17//17 18//18 
f 15//15 18//18 14//14 

g Face_5
v -0.06530156894795006 0.14255992841907109 -0.06555000000000001
v -0.06523588582196553 0.14240588101140506 -0.06555000000000001
v -0.06515228474427931 0.1422607766836386 -0.06555000000000001
v -0.06505195386768858 0.14212669449213497 -0.06555000000000001
v -0.06505195386768858 0.14212669449213497 -0.056650000000000006
v -0.06530156894795006 0.14255992841907109 -0.056650000000000006
v -0.06523588582196553 0.14240588101140506 -0.056650000000000006
v -0.06515228474427931 0.1422607766836386 -0.056650000000000006
vn 3.03622e-18 0.138209 0.990403
vn -3.82336e-19 0.255479 0.966815
vn -3.79542e-18 0.369093 0.929393
vn -7.1542e-18 0.477425 0.878672
vn -7.1542e-18 0.477425 0.878672
vn 3.03622e-18 0.138209 0.990403
vn -3.82336e-19 0.255479 0.966815
vn -3.79542e-18 0.369093 0.929393
f 21//21 23//23 22//22 
f 21//21 26//26 23//23 
f 20//20 25//25 26//26 
f 20//20 26//26 21//21 
f 19//19 24//24 25//25 
f 19//19 25//25 20//20 

