mtllib Copie_de_Copie_de_Ressort_fil_demiSLDPRT^Horloge_Comtoise_Verge_-_Sonnerie.mtl
usemtl Copie_de_Copie_de_Ressort_fil_demiSLDPRT^Horloge_Comtoise_Verge_-_Sonnerie
#Wavefront export of shape 1-52--Copie_de_Copie_de_Ressort_fil_demiSLDPRT_Horloge_Comtoise_Verge_-_Sonnerie

g Face_1
v 0.06367637094711 0.212718106580122 -0.07543490911809
v 0.06450165460809 0.21272918990929046 -0.07659040785737
v 0.06565708105288999 0.212742273419878 -0.07576505190191
v 0.06483179739190999 0.2127311900907095 -0.07460955316263
v 0.06465464245977999 0.2137342167007 -0.07559898040933032
v 0.06465464245977999 0.2137342167007 -0.07559898040933032
v 0.06367637094711 0.212718106580122 -0.07543490911809
v 0.064314504583187 0.21272501439457167 -0.074659709025821
v 0.06389158851662699 0.21272022549012917 -0.074961810726683
vn -0.986321 -0.0120342 0.164399
vn -0.164399 -0.000996017 -0.986393
vn 0.986321 0.0120342 -0.164399
vn 0.164399 0.000996017 0.986393
vn -0.0120342 0.999927 0.000996017
vn -0.0120342 0.999927 0.000996017
vn -0.986321 -0.0120342 0.164399
vn -0.350787 -0.00515452 0.936441
vn -0.771979 -0.00992391 0.63557
f 2//2 1//1 5//5 
f 3//3 2//2 5//5 
f 6//6 3//3 5//5 
f 4//4 3//3 6//6 
f 8//8 4//4 6//6 
f 9//9 8//8 6//6 
f 7//7 9//9 6//6 

g Face_2
v 0.0646462427449645 0.12433452331820789 -0.0816407612413905
v 0.06479362951800169 0.12433624212505723 -0.0815855418660573
v 0.0647677531154017 0.12433608535198143 -0.08174080012425732
v 0.06473616150632686 0.12433162033254645 -0.08165594753044815
vn -0.0736092 -0.997199 0.0132751
vn 0.0671441 -0.995557 0.0660085
vn 0.0424327 -0.995707 -0.0822606
vn 0.0122624 -0.999924 -0.00122308
f 13//13 11//11 10//10 
f 13//13 12//12 11//11 
f 13//13 10//10 12//12 

g Face_3
v 0.0646462427449645 0.12433452331820789 -0.0816407612413905
v 0.06479362951800169 0.12433624212505723 -0.0815855418660573
v 0.0647677531154017 0.12433608535198143 -0.08174080012425732
v 0.0646462427449645 0.12433452331820789 -0.0816407612413905
v 0.06373353404290999 0.12531946080427198 -0.08148963765787301
v 0.06571424414869 0.12534362764402798 -0.08181978044169301
v 0.065076110183815 0.1253367198275863 -0.082594982506748
v 0.06408575513092499 0.1253246364077083 -0.08242991111483801
v 0.06373353404290999 0.12531946080427198 -0.08148963765787301
v 0.06437166800778499 0.1253263686207137 -0.080714435592818
v 0.065362023060675 0.12533845204059169 -0.080879506984728
vn -0.0736092 -0.997199 0.0132751
vn 0.0671369 -0.995557 0.0660152
vn 0.0424236 -0.995707 -0.0822646
vn -0.0736092 -0.997199 0.0132751
vn -0.986321 -0.0120342 0.164399
vn 0.986321 0.0120342 -0.164399
vn 0.350766 0.00515429 -0.936449
vn -0.635455 -0.00687866 -0.772107
vn -0.986321 -0.0120342 0.164399
vn -0.350691 -0.0051534 0.936477
vn 0.635517 0.00687946 0.772056
f 14//14 23//23 22//22 
f 15//15 24//24 23//23 
f 15//15 19//19 24//24 
f 15//15 23//23 14//14 
f 16//16 20//20 19//19 
f 16//16 21//21 20//20 
f 16//16 19//19 15//15 
f 17//17 18//18 21//21 
f 17//17 21//21 16//16 

g Face_4
v 0.06565708169868999 0.130093280894028 -0.081815049360943
v 0.06450165525389001 0.13008019738344045 -0.082640405316403
v 0.06367637159291 0.130069114054272 -0.081484906577123
v 0.06483179803771001 0.13008219756485956 -0.080659550621663
v 0.06571424414869 0.12534362764402798 -0.08181978044169301
v 0.065076110183815 0.1253367198275863 -0.082594982506748
v 0.06408575513092499 0.1253246364077083 -0.08242991111483801
v 0.06373353404290999 0.12531946080427198 -0.08148963765787301
v 0.06437166800778499 0.1253263686207137 -0.080714435592818
v 0.065362023060675 0.12533845204059169 -0.080879506984728
v 0.06571424414869 0.12534362764402798 -0.08181978044169301
v 0.06565708169868999 0.130093280894028 -0.081815049360943
v 0.06530486061067499 0.1300881052905917 -0.080874775903978
v 0.06560693634307799 0.13009216207971047 -0.081297715473015
vn 0.986321 0.0120342 -0.164399
vn -0.164399 -0.000996017 -0.986393
vn -0.986321 -0.0120342 0.164399
vn 0.164399 0.000996017 0.986393
vn 0.986321 0.0120342 -0.164399
vn 0.350787 0.00515452 -0.936441
vn -0.635534 -0.00687967 -0.772042
vn -0.986321 -0.0120342 0.164399
vn -0.350787 -0.00515452 0.936441
vn 0.635534 0.00687967 0.772042
vn 0.986321 0.0120342 -0.164399
vn 0.986321 0.0120342 -0.164399
vn 0.635534 0.00687967 0.772042
vn 0.936378 0.0109199 0.350823
f 35//35 36//36 38//38 
f 34//34 37//37 28//28 
f 34//34 38//38 37//37 
f 34//34 35//35 38//38 
f 33//33 28//28 27//27 
f 33//33 34//34 28//28 
f 32//32 33//33 27//27 
f 31//31 27//27 26//26 
f 31//31 32//32 27//27 
f 30//30 26//26 25//25 
f 30//30 31//31 26//26 
f 29//29 30//30 25//25 

g Face_5
v 0.06483179739190999 0.2127311900907095 -0.07460955316263
v 0.064314504583187 0.21272501439457167 -0.074659709025821
v 0.06389158851662699 0.21272022549012917 -0.074961810726683
v 0.06367637094711 0.212718106580122 -0.07543490911809
v 0.06450165460809 0.21272918990929046 -0.07659040785737
v 0.06565708105288999 0.212742273419878 -0.07576505190191
v 0.06483179739190999 0.2127311900907095 -0.07460955316263
v 0.064928672841903 0.19514157860384954 -0.0753159238115924
v 0.06483279531981997 0.17124169988672236 -0.0776406444568815
v 0.06473675158865003 0.147452720152588 -0.0799582443488343
v 0.06483179803771001 0.13008219756485956 -0.080659550621663
v 0.06530486061067499 0.1300881052905917 -0.080874775903978
v 0.06560693634307799 0.13009216207971047 -0.081297715473015
v 0.06565708169868999 0.130093280894028 -0.081815049360943
v 0.06450165525389001 0.13008019738344045 -0.082640405316403
v 0.06367637159291 0.130069114054272 -0.081484906577123
v 0.06483179803771001 0.13008219756485956 -0.080659550621663
v 0.064928672841903 0.19514157860384954 -0.0753159238115924
v 0.06483279531981997 0.17124169988672236 -0.0776406444568815
v 0.06473675158865003 0.147452720152588 -0.0799582443488343
v 0.06362540828636999 0.13523180482466696 -0.081412748600932
v 0.06445044698801003 0.1352678866674812 -0.082567887066167
v 0.06560611839214998 0.13525597166442296 -0.081742891384752
v 0.063750911890404 0.20395245898131734 -0.07562935245839571
v 0.06361858063347 0.16102166112807442 -0.0795658642983437
v 0.06559929073925 0.16104582796783043 -0.0798960070821637
v 0.06556411586357999 0.15073171579185826 -0.08086204539925
v 0.06358154261028999 0.149110337808522 -0.08065999835603241
v 0.06440825555388002 0.15080112964522854 -0.0816839654471075
v 0.06556225271606998 0.14913450464827804 -0.08099014113985241
v 0.06359113904882 0.1413735966481665 -0.081168762392568
v 0.0655718491546 0.14139776348792255 -0.081498905176388
v 0.06540456792230599 0.2083675272916081 -0.076378725413094
v 0.06573162183178499 0.20397662582007733 -0.0759594962286087
v 0.065450850203922 0.19963160848402653 -0.0767405318373774
v 0.063745179866428 0.1662460443257982 -0.07964542315432489
v 0.06444349115458 0.16113574218725246 -0.0807160621567627
v 0.06440638617321003 0.14919951846428214 -0.0818124206716647
v 0.06367981977903799 0.14835904995614108 -0.08134690285976709
v 0.06368208735331798 0.14448326404463244 -0.08161701042101571
v 0.06441601887005 0.14143667752595795 -0.08232287770841401
v 0.06369407613077999 0.21052855737467396 -0.07573326548658631
v 0.063732256499693 0.21053109553467783 -0.075912484308695
v 0.06457581111613978 0.20400493997571156 -0.07678412535378101
v 0.063764714018107 0.19740678652279686 -0.0762699986414547
v 0.06555629991180699 0.16881272347521253 -0.0793410850429609
v 0.065475683098927 0.14795673694050315 -0.0813514318843644
v 0.065033174766784 0.1468314660910814 -0.0818898996510142
v 0.065476219065157 0.1460208403626495 -0.0814899261845247
v 0.065580426604903 0.19634779532198174 -0.07680741332996481
v 0.06369692215732699 0.17009725010869736 -0.0790491322766802
v 0.06356730148734 0.14714765142916017 -0.08098923186278831
v 0.06377904157949399 0.19577423354709403 -0.0764642571381893
v 0.06552894948940599 0.17075569752339909 -0.0792022346779458
v 0.065605745665909 0.19552646151784503 -0.076828808805006
v 0.06369106289972098 0.17106010179794232 -0.0789006274578752
v 0.063783622375493 0.1953662091933 -0.076514690014628
v 0.06378630324450899 0.18731961967099267 -0.07667950874905739
v 0.06375446974069299 0.18343683364928048 -0.07756283673070441
v 0.065520792184707 0.1712415002017601 -0.07916756578296451
v 0.065381361789519 0.19134202518935126 -0.07739974074037001
v 0.065603708293172 0.18935497574147714 -0.0773189052834585
v 0.06472975757558298 0.18874423571082866 -0.0778427275716394
v 0.065736335159252 0.1833201156628709 -0.07740255634669221
v 0.06555160645118199 0.1774312611583717 -0.0785043225364463
v 0.06376146229727798 0.19325250942943056 -0.07653560622654909
v 0.06457134287201839 0.18542698290204188 -0.0781390521509338
v 0.06370728297162298 0.17439456106447093 -0.0785203713774684
v 0.065526551505304 0.17291021614432606 -0.0789919857098996
vn 0.164399 0.000996017 0.986393
vn -0.350787 -0.00515452 0.936441
vn -0.771979 -0.00992391 0.63557
vn -0.986321 -0.0120342 0.164399
vn -0.1644 -0.000996024 -0.986393
vn 0.986522 0.0120354 -0.163184
vn 0.164399 0.000996017 0.986393
vn 0.164839 -0.0718711 0.983698
vn 0.164729 -0.108274 0.980378
vn 0.164839 -0.0721097 0.983681
vn 0.164399 0.000996017 0.986393
vn 0.635534 0.00687967 0.772042
vn 0.936378 0.0109199 0.350823
vn 0.986321 0.0120342 -0.164399
vn -0.164398 -0.000996009 -0.986394
vn -0.986117 -0.012033 0.165613
vn 0.164399 0.000996017 0.986393
vn 0.164839 -0.0718711 0.983698
vn 0.164729 -0.108274 0.980378
vn 0.164839 -0.0721097 0.983681
vn -0.986321 -0.0120342 0.164399
vn -0.164654 0.0247498 -0.986041
vn 0.986321 0.0120342 -0.164399
vn -0.98632 -0.0120342 0.164399
vn -0.986321 -0.0120342 0.164399
vn 0.986321 0.0120342 -0.164399
vn 0.986321 0.0120342 -0.164399
vn -0.986321 -0.0120342 0.164399
vn -0.164832 0.0812081 -0.982973
vn 0.986321 0.0120342 -0.164399
vn -0.986321 -0.0120342 0.164399
vn 0.986321 0.0120342 -0.164399
vn 0.690301 0.022164 -0.723183
vn 0.98632 0.0120342 -0.164399
vn 0.69026 0.0440313 -0.72222
vn -0.887903 0.0543433 -0.45681
vn -0.164766 0.101564 -0.98109
vn -0.164837 0.0768255 -0.983324
vn -0.88796 0.0350782 -0.458582
vn -0.887955 0.027642 -0.459099
vn -0.164802 0.0508907 -0.985013
vn -0.992935 -0.00868341 -0.118343
vn -0.954912 -0.00613737 -0.296826
vn -0.164756 0.0403602 -0.985508
vn -0.993032 0.00661917 -0.117663
vn 0.900743 0.0417563 -0.43234
vn 0.900713 0.0320824 -0.433228
vn 0.459922 0.0630284 -0.885719
vn 0.900714 0.0303875 -0.433349
vn 0.814425 0.0408186 -0.578831
vn -0.958765 0.0365867 -0.281834
vn -0.999876 0.000956303 -0.0156963
vn -0.979965 0.0138946 -0.198686
vn 0.861927 0.0500004 -0.504562
vn 0.839328 0.0393069 -0.542203
vn -0.970411 0.0320462 -0.239323
vn -0.975485 0.0158626 -0.219491
vn -0.959115 -0.0230718 0.282075
vn -0.975455 0.0262445 -0.218628
vn 0.850893 0.0520653 -0.522752
vn 0.61953 0.0646182 -0.782308
vn 0.845202 0.045081 -0.532543
vn -0.0233979 0.0899129 -0.995675
vn 0.998741 0.000530266 -0.0501658
vn 0.84518 0.0521769 -0.531928
vn -0.996644 0.0073544 -0.0815322
vn -0.169928 0.0956684 -0.980802
vn -0.974219 0.0301144 -0.223587
vn 0.846614 0.0527771 -0.529585
f 59//59 53//53 54//54 
f 59//59 54//54 55//55 
f 60//60 53//53 59//59 
f 61//61 49//49 50//50 
f 61//61 50//50 51//51 
f 61//61 51//51 52//52 
f 61//61 52//52 53//53 
f 61//61 53//53 60//60 
f 62//62 56//56 39//39 
f 63//63 58//58 57//57 
f 64//64 47//47 48//48 
f 64//64 48//48 65//65 
f 66//66 58//58 63//63 
f 66//66 63//63 67//67 
f 68//68 65//65 48//48 
f 69//69 55//55 58//58 
f 69//69 59//59 55//55 
f 70//70 48//48 49//49 
f 70//70 49//49 61//61 
f 71//71 44//44 45//45 
f 72//72 45//45 46//46 
f 72//72 71//71 45//45 
f 73//73 72//72 46//46 
f 74//74 63//63 57//57 
f 75//75 74//74 64//64 
f 75//75 64//64 65//65 
f 75//75 67//67 63//63 
f 75//75 65//65 67//67 
f 75//75 63//63 74//74 
f 76//76 65//65 68//68 
f 76//76 67//67 65//65 
f 76//76 66//66 67//67 
f 77//77 66//66 76//76 
f 78//78 69//69 58//58 
f 79//79 60//60 59//59 
f 79//79 61//61 60//60 
f 79//79 59//59 69//69 
f 79//79 70//70 61//61 
f 79//79 69//69 78//78 
f 79//79 78//78 70//70 
f 80//80 39//39 40//40 
f 80//80 40//40 41//41 
f 80//80 41//41 42//42 
f 80//80 62//62 39//39 
f 80//80 71//71 62//62 
f 81//81 71//71 80//80 
f 81//81 42//42 43//43 
f 81//81 43//43 44//44 
f 81//81 44//44 71//71 
f 81//81 80//80 42//42 
f 82//82 62//62 71//71 
f 82//82 72//72 73//73 
f 82//82 71//71 72//72 
f 82//82 73//73 62//62 
f 83//83 56//56 62//62 
f 83//83 62//62 73//73 
f 84//84 64//64 74//74 
f 84//84 47//47 64//64 
f 85//85 68//68 48//48 
f 85//85 76//76 68//68 
f 85//85 77//77 76//76 
f 86//86 77//77 85//85 
f 87//87 78//78 86//86 
f 87//87 48//48 70//70 
f 87//87 85//85 48//48 
f 87//87 86//86 85//85 
f 87//87 70//70 78//78 
f 88//88 83//83 73//73 
f 88//88 73//73 46//46 
f 89//89 84//84 74//74 
f 89//89 74//74 57//57 
f 90//90 77//77 86//86 
f 90//90 86//86 78//78 
f 90//90 58//58 66//66 
f 90//90 66//66 77//77 
f 90//90 78//78 58//58 
f 91//91 83//83 88//88 
f 91//91 56//56 83//83 
f 92//92 47//47 84//84 
f 92//92 84//84 89//89 
f 93//93 88//88 46//46 
f 93//93 91//91 88//88 
f 94//94 89//89 57//57 
f 94//94 92//92 89//89 
f 95//95 56//56 91//91 
f 95//95 91//91 93//93 
f 96//96 57//57 56//56 
f 97//97 57//57 96//96 
f 98//98 47//47 92//92 
f 98//98 92//92 94//94 
f 99//99 93//93 46//46 
f 100//100 99//99 46//46 
f 100//100 101//101 99//99 
f 102//102 46//46 47//47 
f 102//102 100//100 46//46 
f 103//103 97//97 102//102 
f 103//103 102//102 47//47 
f 104//104 96//96 56//56 
f 104//104 56//56 95//95 
f 104//104 95//95 93//93 
f 104//104 93//93 99//99 
f 104//104 99//99 101//101 
f 104//104 101//101 96//96 
f 105//105 102//102 97//97 
f 105//105 97//97 96//96 
f 105//105 96//96 101//101 
f 105//105 101//101 100//100 
f 105//105 100//100 102//102 
f 106//106 94//94 57//57 
f 106//106 57//57 97//97 
f 106//106 97//97 103//103 
f 107//107 47//47 98//98 
f 107//107 98//98 94//94 
f 107//107 94//94 106//106 
f 107//107 103//103 47//47 
f 107//107 106//106 103//103 

