mtllib Copie_de_pignon_Ass_07^Copie_de_Assemblage_07_Horloge_Comtoise_Verge_-_Sonnerie_instance_5.mtl
usemtl Copie_de_pignon_Ass_07^Copie_de_Assemblage_07_Horloge_Comtoise_Verge_-_Sonnerie_instance_5
#Wavefront export of shape 1-20-3--Copie_de_pignon_Ass_07_Copie_de_Assemblage_07_Horloge_Comtoise_Verge_-_Sonnerie-6

g Face_1
v -0.06134046624569345 0.14455365198355233 -0.056650000000000006
v -0.06291444613231148 0.143935305507865 -0.056650000000000006
v -0.06291444613231148 0.143935305507865 -0.06555000000000001
v -0.06134046624569345 0.14455365198355233 -0.06555000000000001
vn -1.31672e-17 0.540433 0.841387
vn -2.03172e-17 0.8339 -0.551916
vn -2.03172e-17 0.8339 -0.551916
vn -1.31672e-17 0.540433 0.841387
f 1//1 3//3 2//2 
f 1//1 4//4 3//3 

g Face_2
v -0.06134046624569345 0.14455365198355233 -0.056650000000000006
v -0.06291444613231148 0.143935305507865 -0.056650000000000006
v -0.06266483105205001 0.1435020715809289 -0.056650000000000006
v -0.06273051417803453 0.14365611898859493 -0.056650000000000006
v -0.06281411525572075 0.1438012233163614 -0.056650000000000006
vn -1 -2.77556e-17 6.93889e-18
vn -1 -2.77556e-17 6.93889e-18
vn -1 -2.77556e-17 6.93889e-18
vn -1 -2.77556e-17 6.93889e-18
vn -1 -2.77556e-17 6.93889e-18
f 9//9 5//5 6//6 
f 8//8 5//5 9//9 
f 7//7 5//5 8//8 

g Face_3
v -0.06134046624569345 0.14455365198355233 -0.056650000000000006
v -0.06266483105205001 0.1435020715809289 -0.056650000000000006
v -0.06134046624569345 0.14455365198355233 -0.06555000000000001
v -0.06266483105205001 0.1435020715809289 -0.06555000000000001
vn -1.59285e-18 0.0653768 0.997861
vn 3.04144e-17 -0.998663 0.0516921
vn -1.59285e-18 0.0653768 0.997861
vn 3.04144e-17 -0.998663 0.0516921
f 11//11 12//12 10//10 
f 11//11 13//13 12//12 

g Face_4
v -0.06291444613231148 0.143935305507865 -0.06555000000000001
v -0.06134046624569345 0.14455365198355233 -0.06555000000000001
v -0.06266483105205001 0.1435020715809289 -0.06555000000000001
v -0.06273051417803453 0.14365611898859493 -0.06555000000000001
v -0.06281411525572075 0.1438012233163614 -0.06555000000000001
vn 1 2.77556e-17 -6.93889e-18
vn 1 2.77556e-17 -6.93889e-18
vn 1 2.77556e-17 -6.93889e-18
vn 1 2.77556e-17 -6.93889e-18
vn 1 2.77556e-17 -6.93889e-18
f 18//18 14//14 15//15 
f 17//17 18//18 15//15 
f 16//16 17//17 15//15 

g Face_5
v -0.06266483105205001 0.1435020715809289 -0.06555000000000001
v -0.06273051417803453 0.14365611898859493 -0.06555000000000001
v -0.06281411525572075 0.1438012233163614 -0.06555000000000001
v -0.06291444613231148 0.143935305507865 -0.06555000000000001
v -0.06291444613231148 0.143935305507865 -0.056650000000000006
v -0.06266483105205001 0.1435020715809289 -0.056650000000000006
v -0.06273051417803453 0.14365611898859493 -0.056650000000000006
v -0.06281411525572075 0.1438012233163614 -0.056650000000000006
vn -3.03622e-18 -0.138209 -0.990403
vn 3.82336e-19 -0.255479 -0.966815
vn 3.79542e-18 -0.369093 -0.929393
vn 7.1542e-18 -0.477425 -0.878672
vn 7.1542e-18 -0.477425 -0.878672
vn -3.03622e-18 -0.138209 -0.990403
vn 3.82336e-19 -0.255479 -0.966815
vn 3.79542e-18 -0.369093 -0.929393
f 21//21 23//23 22//22 
f 21//21 26//26 23//23 
f 20//20 25//25 26//26 
f 20//20 26//26 21//21 
f 19//19 24//24 25//25 
f 19//19 25//25 20//20 

