mtllib Copie_de_Ressort_fil_Heure^Horloge_Comtoise_Verge_-_Sonnerie.mtl
usemtl Copie_de_Ressort_fil_Heure^Horloge_Comtoise_Verge_-_Sonnerie
#Wavefront export of shape 1-56--Copie_de_Ressort_fil_Heure_Horloge_Comtoise_Verge_-_Sonnerie

g Face_1
v -0.0491332 0.243731 0.013900000000000001
v -0.0491332 0.243731 0.013900000000000001
v -0.0491332 0.246031 0.013900000000000001
v -0.0491332 0.24530561 0.014341590000000001
v -0.0491332 0.24445639 0.014341590000000001
v -0.0491332 0.246031 0.013900000000000001
v -0.04957479 0.24445639 0.013900000000000001
v -0.04957479 0.24530561 0.013900000000000001
v -0.04948675 0.24488100000000002 0.01425355
vn -0.0520502 -0.0558114 0.997084
vn -0.988485 0.11066 -0.103203
vn 1 2.4363e-16 -3.89809e-15
vn -2.64892e-14 -0.270024 -0.962854
vn -2.25273e-14 0.270024 -0.962854
vn -0.220618 0.23656 -0.946239
vn 0.962854 0.270024 1.87268e-14
vn 0.962854 -0.270024 -1.55249e-14
vn 0.707107 4.02129e-16 -0.707107
f 4//4 6//6 3//3 
f 4//4 8//8 6//6 
f 2//2 1//1 7//7 
f 2//2 7//7 5//5 
f 9//9 4//4 5//5 
f 9//9 7//7 8//8 
f 9//9 8//8 4//4 
f 9//9 5//5 7//7 

g Face_2
v -0.0491332 0.243731 0.020300000000000002
v -0.0491332 0.243731 0.020300000000000002
v -0.0491332 0.246031 0.020300000000000002
v -0.04957479 0.24530561 0.020300000000000002
v -0.04957479 0.24445639 0.020300000000000002
v -0.0491332 0.246031 0.020300000000000002
v -0.0491332 0.24445639 0.01985841
v -0.0491332 0.24530561 0.01985841
v -0.04948675 0.24488100000000002 0.01994645
vn -0.168083 -0.720915 -0.672332
vn -0.657988 -0.705535 0.263195
vn -0.296981 0.318442 -0.900221
vn 0.962854 -0.270024 -3.8005e-15
vn 0.962854 0.270024 4.59761e-14
vn -0.168083 0.720915 -0.672332
vn -1.52014e-13 0.270024 0.962854
vn -8.98334e-14 -0.270024 0.962854
vn 0.707107 5.27194e-16 0.707107
f 13//13 15//15 12//12 
f 13//13 17//17 15//15 
f 10//10 16//16 14//14 
f 11//11 10//10 14//14 
f 18//18 13//13 14//14 
f 18//18 16//16 17//17 
f 18//18 17//17 13//13 
f 18//18 14//14 16//16 

g Face_3
v -0.055533200000000005 0.243731 0.0139
v -0.055533200000000005 0.243731 0.0139
v -0.055533200000000005 0.246031 0.0139
v -0.055091610000000006 0.24530561 0.0139
v -0.055091610000000006 0.24445639 0.0139
v -0.055533200000000005 0.246031 0.0139
v -0.055533200000000005 0.24445639 0.01434159
v -0.055533200000000005 0.24530561 0.01434159
v -0.055179650000000004 0.24488100000000002 0.01425355
vn -0.168083 0.720915 -0.672332
vn 0.234728 -0.25169 0.938912
vn 0.0471544 0.0505618 0.997607
vn -0.962854 -0.270024 5.37386e-14
vn -0.962854 0.270024 2.26887e-14
vn 0.939983 -0.249541 -0.232724
vn -5.99001e-14 0.270024 -0.962854
vn 8.71494e-14 -0.270024 -0.962854
vn -0.707107 7.02925e-16 -0.707107
f 22//22 24//24 21//21 
f 22//22 26//26 24//24 
f 20//20 19//19 25//25 
f 20//20 25//25 23//23 
f 27//27 22//22 23//23 
f 27//27 25//25 26//26 
f 27//27 26//26 22//22 
f 27//27 23//23 25//25 

g Face_4
v -0.055533200000000005 0.247031 0.0139
v -0.055533200000000005 0.247031 0.0161
v -0.0491332 0.247031 0.013900000000000001
v -0.0491332 0.247031 0.0161
vn 9.77874e-19 1 3.32879e-18
vn 9.77874e-19 1 3.32879e-18
vn 9.77874e-19 1 3.32879e-18
vn 9.77874e-19 1 3.32879e-18
f 28//28 31//31 30//30 
f 28//28 29//29 31//31 

g Face_5
v -0.0491332 0.245531 0.0171
v -0.0491332 0.247031 0.0161
v -0.055533200000000005 0.245531 0.017100000000000004
v -0.055533200000000005 0.247031 0.0161
vn -1.48216e-16 0.5547 0.83205
vn -1.48216e-16 0.5547 0.83205
vn -1.48216e-16 0.5547 0.83205
vn -1.48216e-16 0.5547 0.83205
f 34//34 32//32 33//33 
f 34//34 33//33 35//35 

g Face_6
v -0.0491332 0.247031 0.0181
v -0.0491332 0.245531 0.0171
v -0.055533200000000005 0.247031 0.0181
v -0.055533200000000005 0.245531 0.017100000000000004
vn 1.493e-16 0.5547 -0.83205
vn 1.493e-16 0.5547 -0.83205
vn 1.493e-16 0.5547 -0.83205
vn 1.493e-16 0.5547 -0.83205
f 38//38 36//36 37//37 
f 38//38 37//37 39//39 

g Face_7
v -0.0491332 0.247031 0.020300000000000002
v -0.0491332 0.247031 0.0181
v -0.055533200000000005 0.247031 0.0203
v -0.055533200000000005 0.247031 0.0181
vn 9.77874e-19 1 3.32879e-18
vn 9.77874e-19 1 3.32879e-18
vn 9.77874e-19 1 3.32879e-18
vn 9.77874e-19 1 3.32879e-18
f 43//43 40//40 41//41 
f 43//43 42//42 40//40 

g Face_8
v -0.055533200000000005 0.243731 0.0203
v -0.055533200000000005 0.243731 0.0203
v -0.055533200000000005 0.246031 0.0203
v -0.055533200000000005 0.24530561 0.01985841
v -0.055533200000000005 0.24445639 0.01985841
v -0.055533200000000005 0.246031 0.0203
v -0.055091610000000006 0.24445639 0.0203
v -0.055091610000000006 0.24530561 0.0203
v -0.055179650000000004 0.24488100000000002 0.01994645
vn 0.103203 -0.11066 0.988485
vn -0.977713 -0.153537 -0.14319
vn -1 -5.83709e-16 4.66967e-15
vn -2.10071e-14 -0.270024 0.962854
vn -5.44987e-14 0.270024 0.962854
vn -0.11491 -0.123213 0.985705
vn -0.962854 0.270024 -4.90165e-14
vn -0.962854 -0.270024 -4.59761e-14
vn -0.707107 -3.82826e-16 0.707107
f 47//47 49//49 46//46 
f 47//47 51//51 49//49 
f 45//45 44//44 50//50 
f 45//45 50//50 48//48 
f 52//52 47//47 48//48 
f 52//52 50//50 51//51 
f 52//52 51//51 47//47 
f 52//52 48//48 50//50 

g Face_9
v -0.055533200000000005 0.242731 0.0139
v -0.055533200000000005 0.243731 0.0139
v -0.0491332 0.242731 0.013900000000000001
v -0.0491332 0.243731 0.013900000000000001
v -0.04957479 0.24445639 0.013900000000000001
v -0.04957479 0.24530561 0.013900000000000001
v -0.0491332 0.246031 0.013900000000000001
v -0.0491332 0.247031 0.013900000000000001
v -0.055533200000000005 0.247031 0.0139
v -0.055533200000000005 0.246031 0.0139
v -0.055091610000000006 0.24530561 0.0139
v -0.055091610000000006 0.24445639 0.0139
vn 4.32597e-17 3.32879e-18 -1
vn 4.32597e-17 3.32879e-18 -1
vn 4.32597e-17 3.32879e-18 -1
vn 4.32597e-17 3.32879e-18 -1
vn 4.32597e-17 3.32879e-18 -1
vn 4.32597e-17 3.32879e-18 -1
vn 4.32597e-17 3.32879e-18 -1
vn 4.32597e-17 3.32879e-18 -1
vn 4.32597e-17 3.32879e-18 -1
vn 4.32597e-17 3.32879e-18 -1
vn 4.32597e-17 3.32879e-18 -1
vn 4.32597e-17 3.32879e-18 -1
f 58//58 60//60 59//59 
f 55//55 57//57 56//56 
f 63//63 61//61 60//60 
f 63//63 62//62 61//61 
f 63//63 60//60 58//58 
f 64//64 58//58 57//57 
f 64//64 63//63 58//58 
f 53//53 54//54 64//64 
f 53//53 57//57 55//55 
f 53//53 64//64 57//57 

g Face_10
v -0.0491332 0.243731 0.013900000000000001
v -0.0491332 0.242731 0.013900000000000001
v -0.0491332 0.242731 0.020300000000000002
v -0.0491332 0.243731 0.020300000000000002
v -0.0491332 0.24445639 0.01985841
v -0.0491332 0.24530561 0.01985841
v -0.0491332 0.246031 0.020300000000000002
v -0.0491332 0.247031 0.020300000000000002
v -0.0491332 0.247031 0.0181
v -0.0491332 0.245531 0.0171
v -0.0491332 0.247031 0.0161
v -0.0491332 0.247031 0.013900000000000001
v -0.0491332 0.246031 0.013900000000000001
v -0.0491332 0.24530561 0.014341590000000001
v -0.0491332 0.24445639 0.014341590000000001
vn 1 -9.77874e-19 1.78785e-16
vn 1 -9.77874e-19 1.78785e-16
vn 1 -9.77874e-19 1.78785e-16
vn 1 -9.77874e-19 1.78785e-16
vn 1 -9.77874e-19 1.78785e-16
vn 1 -9.77874e-19 1.78785e-16
vn 1 -9.77874e-19 1.78785e-16
vn 1 -9.77874e-19 1.78785e-16
vn 1 -9.77874e-19 1.78785e-16
vn 1 -9.77874e-19 1.78785e-16
vn 1 -9.77874e-19 1.78785e-16
vn 1 -9.77874e-19 1.78785e-16
vn 1 -9.77874e-19 1.78785e-16
vn 1 -9.77874e-19 1.78785e-16
vn 1 -9.77874e-19 1.78785e-16
f 73//73 71//71 70//70 
f 73//73 72//72 71//71 
f 67//67 69//69 68//68 
f 74//74 70//70 69//69 
f 74//74 73//73 70//70 
f 74//74 69//69 67//67 
f 77//77 76//76 75//75 
f 78//78 75//75 74//74 
f 78//78 77//77 75//75 
f 79//79 78//78 74//74 
f 66//66 65//65 79//79 
f 66//66 74//74 67//67 
f 66//66 79//79 74//74 

g Face_11
v -0.055533200000000005 0.247031 0.0203
v -0.055533200000000005 0.246031 0.0203
v -0.0491332 0.247031 0.020300000000000002
v -0.0491332 0.246031 0.020300000000000002
v -0.04957479 0.24530561 0.020300000000000002
v -0.04957479 0.24445639 0.020300000000000002
v -0.0491332 0.243731 0.020300000000000002
v -0.0491332 0.242731 0.020300000000000002
v -0.055533200000000005 0.242731 0.0203
v -0.055533200000000005 0.243731 0.0203
v -0.055091610000000006 0.24445639 0.0203
v -0.055091610000000006 0.24530561 0.0203
vn -4.32597e-17 -3.32879e-18 1
vn -4.32597e-17 -3.32879e-18 1
vn -4.32597e-17 -3.32879e-18 1
vn -4.32597e-17 -3.32879e-18 1
vn -4.32597e-17 -3.32879e-18 1
vn -4.32597e-17 -3.32879e-18 1
vn -4.32597e-17 -3.32879e-18 1
vn -4.32597e-17 -3.32879e-18 1
vn -4.32597e-17 -3.32879e-18 1
vn -4.32597e-17 -3.32879e-18 1
vn -4.32597e-17 -3.32879e-18 1
vn -4.32597e-17 -3.32879e-18 1
f 91//91 80//80 81//81 
f 88//88 90//90 89//89 
f 84//84 82//82 80//80 
f 84//84 83//83 82//82 
f 84//84 80//80 91//91 
f 85//85 91//91 90//90 
f 85//85 84//84 91//91 
f 87//87 86//86 85//85 
f 87//87 90//90 88//88 
f 87//87 85//85 90//90 

g Face_12
v -0.055533200000000005 0.243731 0.0203
v -0.055533200000000005 0.242731 0.0203
v -0.055533200000000005 0.242731 0.0139
v -0.055533200000000005 0.243731 0.0139
v -0.055533200000000005 0.24445639 0.01434159
v -0.055533200000000005 0.24530561 0.01434159
v -0.055533200000000005 0.246031 0.0139
v -0.055533200000000005 0.247031 0.0139
v -0.055533200000000005 0.247031 0.0161
v -0.055533200000000005 0.245531 0.017100000000000004
v -0.055533200000000005 0.247031 0.0181
v -0.055533200000000005 0.247031 0.0203
v -0.055533200000000005 0.246031 0.0203
v -0.055533200000000005 0.24530561 0.01985841
v -0.055533200000000005 0.24445639 0.01985841
vn -1 9.77874e-19 -1.11022e-16
vn -1 9.77874e-19 -1.11022e-16
vn -1 9.77874e-19 -1.11022e-16
vn -1 9.77874e-19 -1.11022e-16
vn -1 9.77874e-19 -1.11022e-16
vn -1 9.77874e-19 -1.11022e-16
vn -1 9.77874e-19 -1.11022e-16
vn -1 9.77874e-19 -1.11022e-16
vn -1 9.77874e-19 -1.11022e-16
vn -1 9.77874e-19 -1.11022e-16
vn -1 9.77874e-19 -1.11022e-16
vn -1 9.77874e-19 -1.11022e-16
vn -1 9.77874e-19 -1.11022e-16
vn -1 9.77874e-19 -1.11022e-16
vn -1 9.77874e-19 -1.11022e-16
f 100//100 98//98 97//97 
f 100//100 99//99 98//98 
f 94//94 96//96 95//95 
f 101//101 97//97 96//96 
f 101//101 100//100 97//97 
f 101//101 96//96 94//94 
f 104//104 103//103 102//102 
f 105//105 102//102 101//101 
f 105//105 104//104 102//102 
f 106//106 105//105 101//101 
f 93//93 92//92 106//106 
f 93//93 101//101 94//94 
f 93//93 106//106 101//101 

g Face_13
v -0.0491332 0.242731 0.020300000000000002
v -0.055533200000000005 0.242731 0.0203
v -0.055533200000000005 0.242731 0.0139
v -0.0491332 0.242731 0.013900000000000001
v -0.0505332 0.242731 0.0171
v -0.051776969000000006 0.242731 0.0188119
v -0.053789430000000006 0.242731 0.018158010000000002
v -0.053789430000000006 0.242731 0.01604199
v -0.051776969000000006 0.242731 0.0153881
vn -9.77874e-19 -1 -3.32879e-18
vn -9.77874e-19 -1 -3.32879e-18
vn -9.77874e-19 -1 -3.32879e-18
vn -9.77874e-19 -1 -3.32879e-18
vn -9.77874e-19 -1 -3.32879e-18
vn -9.77874e-19 -1 -3.32879e-18
vn -9.77874e-19 -1 -3.32879e-18
vn -9.77874e-19 -1 -3.32879e-18
vn -9.77874e-19 -1 -3.32879e-18
f 111//111 107//107 112//112 
f 108//108 112//112 107//107 
f 110//110 107//107 111//111 
f 113//113 112//112 108//108 
f 115//115 110//110 111//111 
f 109//109 114//114 113//113 
f 109//109 115//115 114//114 
f 109//109 113//113 108//108 
f 109//109 110//110 115//115 

g Face_14
v -0.0505332 0.242731 0.0171
v -0.051776969000000006 0.242731 0.0188119
v -0.053789430000000006 0.242731 0.018158010000000002
v -0.053789430000000006 0.242731 0.01604199
v -0.051776969000000006 0.242731 0.0153881
v -0.0505332 0.242731 0.0171
v -0.0505332 0.238031 0.0171
v -0.0505332 0.238031 0.0171
v -0.051776969000000006 0.238031 0.0188119
v -0.053789430000000006 0.238031 0.018158010000000002
v -0.053789430000000006 0.238031 0.01604199
v -0.051776969000000006 0.238031 0.0153881
vn 1 -9.77874e-19 3.55952e-16
vn 0.309017 -3.46804e-18 0.951057
vn -0.809017 -1.1655e-18 0.587785
vn -0.809017 2.74773e-18 -0.587785
vn 0.309017 2.86369e-18 -0.951057
vn 1 -9.77874e-19 1.11022e-16
vn 1 -9.77874e-19 1.11022e-16
vn 1 -9.77874e-19 3.55952e-16
vn 0.309017 -3.46804e-18 0.951057
vn -0.809017 -1.1655e-18 0.587785
vn -0.809017 2.74773e-18 -0.587785
vn 0.309017 2.86369e-18 -0.951057
f 120//120 121//121 122//122 
f 120//120 122//122 127//127 
f 119//119 127//127 126//126 
f 119//119 120//120 127//127 
f 118//118 126//126 125//125 
f 118//118 119//119 126//126 
f 117//117 125//125 124//124 
f 117//117 118//118 125//125 
f 116//116 124//124 123//123 
f 116//116 117//117 124//124 

g Face_15
v -0.0508332 0.237731 0.0171
v -0.0523332 0.237731 0.018600000000000002
v -0.053833200000000005 0.237731 0.0171
v -0.0523332 0.237731 0.015600000000000001
v -0.0508332 0.237731 0.0171
v -0.0505332 0.238031 0.0171
v -0.051776969000000006 0.238031 0.0188119
v -0.053789430000000006 0.238031 0.018158010000000002
v -0.053789430000000006 0.238031 0.01604199
v -0.051776969000000006 0.238031 0.0153881
v -0.0505332 0.238031 0.0171
vn 0.707107 -0.707107 -3.78695e-16
vn -2.09089e-16 -0.707107 0.707107
vn -0.707107 -0.707107 1.46564e-16
vn -3.58983e-17 -0.707107 -0.707107
vn 0.707107 -0.707107 7.61508e-17
vn 0.707107 -0.707107 -3.78695e-16
vn 0.218508 -0.707107 0.672499
vn -0.572061 -0.707107 0.415627
vn -0.572061 -0.707107 -0.415627
vn 0.218508 -0.707107 -0.672499
vn 0.707107 -0.707107 7.61508e-17
f 137//137 138//138 132//132 
f 131//131 137//137 132//132 
f 136//136 137//137 131//131 
f 130//130 136//136 131//131 
f 135//135 136//136 130//130 
f 129//129 135//135 130//130 
f 134//134 135//135 129//129 
f 128//128 134//134 129//129 
f 133//133 134//134 128//128 

g Face_16
v -0.0508332 0.237731 0.0171
v -0.0523332 0.237731 0.018600000000000002
v -0.053833200000000005 0.237731 0.0171
v -0.0523332 0.237731 0.015600000000000001
v -0.0508832 0.237731 0.0171
v -0.0523332 0.237731 0.01855
v -0.0537832 0.237731 0.0171
v -0.0523332 0.237731 0.01565
vn -9.77874e-19 -1 -3.32879e-18
vn -9.77874e-19 -1 -3.32879e-18
vn -9.77874e-19 -1 -3.32879e-18
vn -9.77874e-19 -1 -3.32879e-18
vn -9.77874e-19 -1 -3.32879e-18
vn -9.77874e-19 -1 -3.32879e-18
vn -9.77874e-19 -1 -3.32879e-18
vn -9.77874e-19 -1 -3.32879e-18
f 143//143 139//139 140//140 
f 143//143 140//140 144//144 
f 142//142 143//143 146//146 
f 142//142 139//139 143//143 
f 141//141 145//145 144//144 
f 141//141 146//146 145//145 
f 141//141 144//144 140//140 
f 141//141 142//142 146//146 

g Face_17
v -0.0508832 0.237731 0.0171
v -0.0523332 0.237731 0.01855
v -0.0537832 0.237731 0.0171
v -0.0523332 0.237731 0.01565
v -0.0508832 0.237731 0.0171
v -0.0508832 0.217731 0.0171
v -0.05088328 0.217731 0.0170848501
v -0.0523332 0.217731 0.01565
v -0.053372750000000004 0.217731 0.01608924
v -0.0537832 0.217731 0.017100000000000004
v -0.053783120000000004 0.217731 0.0171151499
v -0.052333199999981275 0.217731 0.01855
v -0.052318050100000006 0.217731 0.01854992
v -0.05129365 0.217731 0.01811076
v -0.0508832 0.217731 0.0171
vn 1 -9.77874e-19 3.55952e-16
vn -2.94719e-16 -3.32879e-18 1
vn -1 9.77874e-19 -2.33487e-16
vn 1.72255e-16 3.32879e-18 -1
vn 1 -9.77874e-19 1.11022e-16
vn 1 -9.77874e-19 1.00614e-16
vn 0.999945 -9.43041e-19 -0.0104482
vn 1.72255e-16 3.32879e-18 -1
vn -0.716964 3.02163e-18 -0.69711
vn -1 9.77874e-19 -1.25187e-07
vn -0.999945 9.43041e-19 0.0104482
vn 1.29156e-11 -3.32879e-18 1
vn 0.0104482 -3.33882e-18 0.999945
vn 0.716964 -3.02163e-18 0.69711
vn 1 -9.77874e-19 3.55952e-16
f 151//151 152//152 153//153 
f 150//150 153//153 154//154 
f 150//150 154//154 155//155 
f 150//150 151//151 153//153 
f 149//149 155//155 156//156 
f 149//149 156//156 157//157 
f 149//149 150//150 155//155 
f 148//148 157//157 158//158 
f 148//148 158//158 159//159 
f 148//148 159//159 160//160 
f 148//148 149//149 157//157 
f 147//147 160//160 161//161 
f 147//147 148//148 160//160 

g Face_18
v -0.053372750000000004 0.217731 0.01608924
v -0.0523332 0.217731 0.01565
v -0.05088328 0.217731 0.0170848501
v -0.0508832 0.217731 0.0171
v -0.05129365 0.217731 0.01811076
v -0.052318050100000006 0.217731 0.01854992
v -0.052333199999981275 0.217731 0.01855
v -0.053783120000000004 0.217731 0.0171151499
v -0.0537832 0.217731 0.017100000000000004
v -0.0523332 0.216281 0.0171
v -0.0523332 0.216281 0.0171
v -0.0537832 0.217731 0.017100000000000004
vn -0.716964 2.39586e-15 -0.69711
vn 4.979e-17 2.39605e-15 -1
vn 0.999945 2.39178e-15 -0.0104482
vn 1 2.39175e-15 -8.81156e-08
vn 0.716964 2.38982e-15 0.69711
vn 0.0104482 2.38939e-15 0.999945
vn 1.2916e-11 2.38939e-15 1
vn -0.999945 2.39367e-15 0.0104482
vn -1 2.39055e-15 1.33907e-16
vn -6.22102e-17 -1 -3.32879e-18
vn -6.22102e-17 -1 -3.32879e-18
vn -1 2.39055e-15 -1.14925e-16
f 172//172 162//162 163//163 
f 172//172 173//173 162//162 
f 164//164 172//172 163//163 
f 165//165 172//172 164//164 
f 171//171 165//165 166//166 
f 171//171 166//166 167//167 
f 171//171 167//167 168//168 
f 171//171 168//168 169//169 
f 171//171 169//169 170//170 
f 171//171 172//172 165//165 

