mtllib Copie_de_Vis_laiton_Plaque_haute_bati^Horloge_Comtoise_Verge_-_Sonnerie.mtl
usemtl Copie_de_Vis_laiton_Plaque_haute_bati^Horloge_Comtoise_Verge_-_Sonnerie
#Wavefront export of shape 1-37--Copie_de_Vis_laiton_Plaque_haute_bati_Horloge_Comtoise_Verge_-_Sonnerie

g Face_1
v 0.0454617905 0.235981 -0.033103307650000004
v 0.04411915159062001 0.235981 -0.035244675225277
v 0.04166768649516 0.235981 -0.03462947232611
v 0.04149523906224 0.235981 -0.03210788135451
v 0.043840126365960005 0.235981 -0.031164663853477
v 0.0454617905 0.235981 -0.033103307650000004
v 0.0454617905 0.242731 -0.033103307650000004
v 0.043840126365960005 0.242731 -0.031164663853477
v 0.04149523906224 0.242731 -0.03210788135451
v 0.04166768649516 0.242731 -0.03462947232611
v 0.04411915159062001 0.242731 -0.035244675225277
v 0.0454617905 0.242731 -0.033103307650000004
vn 0.99767 0 0.068229
vn 0.373187 0 -0.927756
vn -0.767028 0 -0.641614
vn -0.847236 -0 0.531217
vn 0.243407 0 0.969924
vn 0.99767 0 0.068229
vn 0.99767 0 0.068229
vn 0.243407 0 0.969924
vn -0.847236 -0 0.531217
vn -0.767028 0 -0.641614
vn 0.373187 0 -0.927756
vn 0.99767 0 0.068229
f 11//11 1//1 2//2 
f 11//11 12//12 1//1 
f 10//10 2//2 3//3 
f 10//10 11//11 2//2 
f 9//9 3//3 4//4 
f 9//9 10//10 3//3 
f 8//8 4//4 5//5 
f 8//8 9//9 4//4 
f 7//7 5//5 6//6 
f 7//7 8//8 5//5 

g Face_2
v 0.0454617905 0.235981 -0.033103307650000004
v 0.04411915159062001 0.235981 -0.035244675225277
v 0.04166768649516 0.235981 -0.03462947232611
v 0.04149523906224 0.235981 -0.03210788135451
v 0.043840126365960005 0.235981 -0.031164663853477
v 0.042668314500000006 0.235981 -0.03329434885
v 0.043679450013993 0.235981 -0.03378943097839
v 0.043602635486007006 0.235981 -0.03266622017161
vn 0 -1 -0
vn 0 -1 -0
vn 0 -1 -0
vn 0 -1 -0
vn 0 -1 -0
vn 0 -1 -0
vn 0 -1 -0
vn 0 -1 -0
f 15//15 18//18 16//16 
f 20//20 17//17 16//16 
f 20//20 16//16 18//18 
f 19//19 18//18 15//15 
f 13//13 20//20 19//19 
f 13//13 17//17 20//20 
f 14//14 19//19 15//15 
f 14//14 13//13 19//19 

g Face_3
v 0.047008179000000004 0.242731 -0.03299755270000001
v 0.04538111500241 0.242731 -0.0363206003543
v 0.04168973600241001 0.242731 -0.0365730476543
v 0.039625421 0.242731 -0.03350244730000001
v 0.04125248499759 0.242731 -0.030179399645700003
v 0.04494386399759 0.242731 -0.029926952345700003
v 0.0454617905 0.242731 -0.033103307650000004
v 0.043840126365960005 0.242731 -0.031164663853477
v 0.04149523906224 0.242731 -0.03210788135451
v 0.04166768649516 0.242731 -0.03462947232611
v 0.04411915159062001 0.242731 -0.035244675225277
vn 0 -1 -0
vn 0 -1 -0
vn 0 -1 -0
vn 0 -1 -0
vn 0 -1 -0
vn 0 -1 -0
vn 0 -1 -0
vn 0 -1 -0
vn 0 -1 -0
vn 0 -1 -0
vn 0 -1 -0
f 29//29 25//25 24//24 
f 28//28 25//25 29//29 
f 26//26 25//25 28//28 
f 30//30 29//29 24//24 
f 23//23 30//30 24//24 
f 27//27 26//26 28//28 
f 31//31 30//30 23//23 
f 21//21 26//26 27//27 
f 22//22 27//27 31//31 
f 22//22 21//21 27//27 
f 22//22 31//31 23//23 

g Face_4
v 0.042668314500000006 0.235981 -0.03329434885
v 0.043679450013993 0.235981 -0.03378943097839
v 0.043602635486007006 0.235981 -0.03266622017161
v 0.042668314500000006 0.235981 -0.03329434885
v 0.042668314500000006 0.242481 -0.03329434885
v 0.043679450013993 0.242481 -0.03378943097839
v 0.043602635486007006 0.242481 -0.03266622017161
v 0.042668314500000006 0.242481 -0.03329434885
vn 0.99767 0 0.068229
vn -0.557923 -0 0.829893
vn -0.439747 -0 -0.898122
vn 0.99767 0 0.068229
vn 0.99767 0 0.068229
vn -0.557923 -0 0.829893
vn -0.439747 -0 -0.898122
vn 0.99767 0 0.068229
f 33//33 36//36 32//32 
f 33//33 37//37 36//36 
f 34//34 38//38 37//37 
f 34//34 37//37 33//33 
f 35//35 39//39 38//38 
f 35//35 38//38 34//34 

g Face_5
v 0.047008179000000004 0.242731 -0.03299755270000001
v 0.04538111500241 0.242731 -0.0363206003543
v 0.04168973600241001 0.242731 -0.0365730476543
v 0.039625421 0.242731 -0.03350244730000001
v 0.04125248499759 0.242731 -0.030179399645700003
v 0.04494386399759 0.242731 -0.029926952345700003
v 0.047008179000000004 0.242731 -0.03299755270000001
v 0.047008179000000004 0.244031 -0.03299755270000001
v 0.046969837363973005 0.244031 -0.03266232441881
v 0.046901108388333 0.244031 -0.03233198382548
v 0.046802570841 0.244031 -0.0320092778333
v 0.046802570841 0.246731 -0.0320092778333
v 0.044634372242500005 0.246731 -0.029792545393400004
v 0.0415407971065 0.246731 -0.030004109876600002
v 0.039694571159 0.246731 -0.032495382166700004
v 0.039694571159 0.244031 -0.032495382166700004
v 0.039617767693173 0.244031 -0.03316512029477
v 0.039663762636027 0.244031 -0.03383767558119
v 0.039831029159000005 0.244031 -0.0344907221667
v 0.039831029159000005 0.246731 -0.0344907221667
v 0.0419992277575 0.246731 -0.03670745460660001
v 0.045092802893500004 0.246731 -0.0364958901234
v 0.046939028841000006 0.246731 -0.0340046178333
v 0.046939028841000006 0.244031 -0.0340046178333
v 0.046992715782267006 0.244031 -0.0336715014603
v 0.047015832306827 0.244031 -0.033334879705230004
v 0.047008179000000004 0.244031 -0.03299755270000001
vn 0.99767 0 0.068229
vn 0.557923 0 -0.829893
vn -0.439747 0 -0.898122
vn -0.99767 0 -0.068229
vn -0.557923 -0 0.829893
vn 0.439747 0 0.898122
vn 0.99767 0 0.068229
vn 0.99767 0 0.068229
vn 0.987306 0 0.158831
vn 0.968731 0 0.248112
vn 0.942101 0 0.33533
vn 0.942101 0 0.33533
vn 0.356101 0 0.934447
vn -0.480001 -0 0.877268
vn -0.978981 -0 0.203951
vn -0.978981 -0 0.203951
vn -0.999737 -0 0.0229405
vn -0.987306 0 -0.158831
vn -0.942101 0 -0.33533
vn -0.942101 0 -0.33533
vn -0.356101 0 -0.934447
vn 0.480001 0 -0.877268
vn 0.978981 0 -0.203951
vn 0.978981 0 -0.203951
vn 0.99349 0 -0.113919
vn 0.999737 0 -0.0229405
vn 0.99767 0 0.068229
f 65//65 66//66 40//40 
f 64//64 65//65 40//40 
f 63//63 64//64 40//40 
f 41//41 63//63 40//40 
f 61//61 62//62 63//63 
f 61//61 63//63 41//41 
f 58//58 42//42 43//43 
f 60//60 41//41 42//42 
f 60//60 61//61 41//41 
f 60//60 42//42 58//58 
f 57//57 58//58 43//43 
f 56//56 57//57 43//43 
f 55//55 56//56 43//43 
f 44//44 55//55 43//43 
f 59//59 60//60 58//58 
f 53//53 54//54 55//55 
f 53//53 55//55 44//44 
f 50//50 45//45 46//46 
f 49//49 50//50 46//46 
f 52//52 44//44 45//45 
f 52//52 53//53 44//44 
f 52//52 45//45 50//50 
f 48//48 49//49 46//46 
f 47//47 48//48 46//46 
f 51//51 52//52 50//50 

g Face_6
v 0.042668314500000006 0.242481 -0.03329434885
v 0.043679450013993 0.242481 -0.03378943097839
v 0.043602635486007006 0.242481 -0.03266622017161
vn 0 -1 -0
vn 0 -1 -0
vn 0 -1 -0
f 67//67 68//68 69//69 

g Face_7
v 0.046802570841 0.246731 -0.0320092778333
v 0.039694571159 0.246731 -0.032495382166700004
v 0.039694571159 0.244031 -0.032495382166700004
v 0.046802570841 0.244031 -0.0320092778333
vn 0.068229 -0 -0.99767
vn 0.068229 -0 -0.99767
vn 0.068229 -0 -0.99767
vn 0.068229 -0 -0.99767
f 72//72 71//71 70//70 
f 72//72 70//70 73//73 

g Face_8
v 0.046802570841 0.246731 -0.0320092778333
v 0.044634372242500005 0.246731 -0.029792545393400004
v 0.0415407971065 0.246731 -0.030004109876600002
v 0.039694571159 0.246731 -0.032495382166700004
vn -0 1 0
vn -0 1 0
vn -0 1 0
vn -0 1 0
f 77//77 75//75 74//74 
f 77//77 76//76 75//75 

g Face_9
v 0.046939028841000006 0.244031 -0.0340046178333
v 0.046992715782267006 0.244031 -0.0336715014603
v 0.047015832306827 0.244031 -0.033334879705230004
v 0.047008179000000004 0.244031 -0.03299755270000001
v 0.039831029159000005 0.244031 -0.0344907221667
v 0.039694571159 0.244031 -0.032495382166700004
v 0.039617767693173 0.244031 -0.03316512029477
v 0.039663762636027 0.244031 -0.03383767558119
v 0.046802570841 0.244031 -0.0320092778333
v 0.046969837363973005 0.244031 -0.03266232441881
v 0.046901108388333 0.244031 -0.03233198382548
vn -0 1 0
vn -0 1 0
vn -0 1 0
vn -0 1 0
vn -0 1 0
vn -0 1 0
vn -0 1 0
vn -0 1 0
vn -0 1 0
vn -0 1 0
vn -0 1 0
f 78//78 80//80 79//79 
f 78//78 81//81 80//80 
f 78//78 84//84 83//83 
f 78//78 85//85 84//84 
f 78//78 82//82 85//85 
f 78//78 83//83 86//86 
f 78//78 87//87 81//81 
f 78//78 88//88 87//87 
f 78//78 86//86 88//88 

g Face_10
v 0.039831029159000005 0.246731 -0.0344907221667
v 0.046939028841000006 0.246731 -0.0340046178333
v 0.046939028841000006 0.244031 -0.0340046178333
v 0.039831029159000005 0.244031 -0.0344907221667
vn -0.068229 -0 0.99767
vn -0.068229 -0 0.99767
vn -0.068229 -0 0.99767
vn -0.068229 -0 0.99767
f 91//91 90//90 89//89 
f 91//91 89//89 92//92 

g Face_11
v 0.039831029159000005 0.246731 -0.0344907221667
v 0.0419992277575 0.246731 -0.03670745460660001
v 0.045092802893500004 0.246731 -0.0364958901234
v 0.046939028841000006 0.246731 -0.0340046178333
vn -0 1 0
vn -0 1 0
vn -0 1 0
vn -0 1 0
f 94//94 96//96 95//95 
f 94//94 93//93 96//96 

