mtllib Copie_de_Ecrou^Horloge_Comtoise_Verge_-_Sonnerie.mtl
usemtl Copie_de_Ecrou^Horloge_Comtoise_Verge_-_Sonnerie
#Wavefront export of shape 1-76--Copie_de_Ecrou_Horloge_Comtoise_Verge_-_Sonnerie

g Face_1
v -0.013508623749999997 0.12107200344725 -0.119151
v -0.011920913749999998 0.12382199655275 -0.11915099999999999
v -0.008745484999999997 0.12382200176575 -0.11915099999999999
v -0.0071577762499999975 0.12107199655275 -0.11915099999999998
v -0.008745486249999997 0.11832200344725 -0.11915099999999999
v -0.011920914999999997 0.11832199823424999 -0.11915099999999999
v -0.011718840000000005 0.12187199999999998 -0.11915099999999999
v -0.011133199999999998 0.11968636 -0.11915099999999999
v -0.008947559999999997 0.120272 -0.11915099999999999
v -0.009533199999999997 0.12245763999999999 -0.11915099999999999
vn 2.19371e-15 -1.12546e-15 -1
vn 2.19371e-15 -1.12546e-15 -1
vn 2.19371e-15 -1.12546e-15 -1
vn 2.19371e-15 -1.12546e-15 -1
vn 2.19371e-15 -1.12546e-15 -1
vn 2.19371e-15 -1.12546e-15 -1
vn 2.19371e-15 -1.12546e-15 -1
vn 2.19371e-15 -1.12546e-15 -1
vn 2.19371e-15 -1.12546e-15 -1
vn 2.19371e-15 -1.12546e-15 -1
f 10//10 2//2 3//3 
f 10//10 7//7 2//2 
f 1//1 2//2 7//7 
f 4//4 10//10 3//3 
f 8//8 1//1 7//7 
f 9//9 10//10 4//4 
f 6//6 1//1 8//8 
f 5//5 8//8 9//9 
f 5//5 6//6 8//8 
f 5//5 9//9 4//4 

g Face_2
v -0.011718840000000008 0.12187199999999998 -0.11745099999999999
v -0.0095332 0.12245763999999999 -0.117451
v -0.00894756 0.120272 -0.117451
v -0.011133200000000001 0.11968636 -0.117451
v -0.011718840000000008 0.12187199999999998 -0.11745099999999999
v -0.011718840000000005 0.12187199999999998 -0.11915099999999999
v -0.011133199999999998 0.11968636 -0.11915099999999999
v -0.008947559999999997 0.120272 -0.11915099999999999
v -0.009533199999999997 0.12245763999999999 -0.11915099999999999
v -0.011718840000000005 0.12187199999999998 -0.11915099999999999
vn 0.866025 -0.5 2.46253e-15
vn -0.5 -0.866025 -1.2218e-16
vn -0.866025 0.5 -2.46253e-15
vn 0.5 0.866025 1.2218e-16
vn 0.866025 -0.5 2.46253e-15
vn 0.866025 -0.5 2.46253e-15
vn 0.5 0.866025 1.2218e-16
vn -0.866025 0.5 -2.46253e-15
vn -0.5 -0.866025 -1.2218e-16
vn 0.866025 -0.5 2.46253e-15
f 14//14 16//16 15//15 
f 14//14 17//17 16//16 
f 13//13 18//18 17//17 
f 13//13 17//17 14//14 
f 12//12 19//19 18//18 
f 12//12 18//18 13//13 
f 11//11 20//20 19//19 
f 11//11 19//19 12//12 

g Face_3
v -0.008745485 0.12382200176575 -0.117451
v -0.011920913750000001 0.12382199655275 -0.11745099999999999
v -0.011920913749999998 0.12382199655275 -0.11915099999999999
v -0.008745484999999997 0.12382200176575 -0.11915099999999999
vn 4.21885e-15 1 -1.12546e-15
vn 4.21885e-15 1 -1.12546e-15
vn 4.21885e-15 1 -1.12546e-15
vn 4.21885e-15 1 -1.12546e-15
f 23//23 22//22 21//21 
f 23//23 21//21 24//24 

g Face_4
v -0.011920913750000001 0.12382199655275 -0.11745099999999999
v -0.01350862375 0.12107200344725 -0.117451
v -0.013508623749999997 0.12107200344725 -0.119151
v -0.011920913749999998 0.12382199655275 -0.11915099999999999
vn -0.866025 0.5 -2.46253e-15
vn -0.866025 0.5 -2.46253e-15
vn -0.866025 0.5 -2.46253e-15
vn -0.866025 0.5 -2.46253e-15
f 27//27 26//26 25//25 
f 27//27 25//25 28//28 

g Face_5
v -0.01350862375 0.12107200344725 -0.117451
v -0.011920915 0.11832199823424999 -0.117451
v -0.011920914999999997 0.11832199823424999 -0.11915099999999999
v -0.013508623749999997 0.12107200344725 -0.119151
vn -0.866025 -0.5 -1.33708e-15
vn -0.866025 -0.5 -1.33708e-15
vn -0.866025 -0.5 -1.33708e-15
vn -0.866025 -0.5 -1.33708e-15
f 31//31 30//30 29//29 
f 31//31 29//29 32//32 

g Face_6
v -0.011920915 0.11832199823424999 -0.117451
v -0.00874548625 0.11832200344725 -0.117451
v -0.008745486249999997 0.11832200344725 -0.11915099999999999
v -0.011920914999999997 0.11832199823424999 -0.11915099999999999
vn -4.4964e-15 -1 1.12546e-15
vn -4.4964e-15 -1 1.12546e-15
vn -4.4964e-15 -1 1.12546e-15
vn -4.4964e-15 -1 1.12546e-15
f 35//35 34//34 33//33 
f 35//35 33//33 36//36 

g Face_7
v -0.00874548625 0.11832200344725 -0.117451
v -0.007157776250000001 0.12107199655275 -0.11745099999999997
v -0.0071577762499999975 0.12107199655275 -0.11915099999999998
v -0.008745486249999997 0.11832200344725 -0.11915099999999999
vn 0.866025 -0.5 2.46253e-15
vn 0.866025 -0.5 2.46253e-15
vn 0.866025 -0.5 2.46253e-15
vn 0.866025 -0.5 2.46253e-15
f 39//39 38//38 37//37 
f 39//39 37//37 40//40 

g Face_8
v -0.007157776250000001 0.12107199655275 -0.11745099999999997
v -0.008745485 0.12382200176575 -0.117451
v -0.008745484999999997 0.12382200176575 -0.11915099999999999
v -0.0071577762499999975 0.12107199655275 -0.11915099999999998
vn 0.866025 0.5 1.33708e-15
vn 0.866025 0.5 1.33708e-15
vn 0.866025 0.5 1.33708e-15
vn 0.866025 0.5 1.33708e-15
f 43//43 42//42 41//41 
f 43//43 41//41 44//44 

g Face_9
v -0.007157776250000001 0.12107199655275 -0.11745099999999997
v -0.008745485 0.12382200176575 -0.117451
v -0.00874548625 0.11832200344725 -0.117451
v -0.011920915 0.11832199823424999 -0.117451
v -0.01350862375 0.12107200344725 -0.117451
v -0.011920913750000001 0.12382199655275 -0.11745099999999999
v -0.011718840000000008 0.12187199999999998 -0.11745099999999999
v -0.0095332 0.12245763999999999 -0.117451
v -0.00894756 0.120272 -0.117451
v -0.011133200000000001 0.11968636 -0.117451
vn -2.19371e-15 1.12546e-15 1
vn -2.19371e-15 1.12546e-15 1
vn -2.19371e-15 1.12546e-15 1
vn -2.19371e-15 1.12546e-15 1
vn -2.19371e-15 1.12546e-15 1
vn -2.19371e-15 1.12546e-15 1
vn -2.19371e-15 1.12546e-15 1
vn -2.19371e-15 1.12546e-15 1
vn -2.19371e-15 1.12546e-15 1
vn -2.19371e-15 1.12546e-15 1
f 52//52 46//46 50//50 
f 51//51 52//52 50//50 
f 49//49 51//51 50//50 
f 45//45 46//46 52//52 
f 53//53 45//45 52//52 
f 54//54 51//51 49//49 
f 48//48 54//54 49//49 
f 47//47 53//53 54//54 
f 47//47 54//54 48//48 
f 47//47 45//45 53//53 

