mtllib Copie_de_Grosse_rondelle^Horloge_Comtoise_Verge_-_Sonnerie.mtl
usemtl Copie_de_Grosse_rondelle^Horloge_Comtoise_Verge_-_Sonnerie
#Wavefront export of shape 1-43--Copie_de_Grosse_rondelle_Horloge_Comtoise_Verge_-_Sonnerie

g Face_1
v 0.0044167999999999985 0.242731 -0.0386
v 0.0027272999999999985 0.242731 -0.04545467
v -0.001954240000000001 0.242731 -0.050739000000000006
v -0.00855528 0.242731 -0.0532425
v -0.01556362 0.242731 -0.0523915
v -0.021373700000000002 0.242731 -0.048381060000000004
v -0.0246546 0.242731 -0.04212991
v -0.0246546 0.242731 -0.035070090000000005
v -0.021373700000000002 0.242731 -0.02881894
v -0.01556362 0.242731 -0.024808500000000004
v -0.00855528 0.242731 -0.023957500000000003
v -0.001954240000000001 0.242731 -0.026461000000000002
v 0.0027272999999999985 0.242731 -0.03174533
v -0.006583200000000001 0.242731 -0.0386
v -0.00799511 0.242731 -0.03566813
v -0.011167654 0.242731 -0.03494402
v -0.013711830000000001 0.242731 -0.03697294
v -0.013711830000000001 0.242731 -0.04022706
v -0.011167654 0.242731 -0.042255980000000005
v -0.00799511 0.242731 -0.041531870000000005
vn -0 -1 0
vn -0 -1 0
vn -0 -1 0
vn -0 -1 0
vn -0 -1 0
vn -0 -1 0
vn -0 -1 0
vn -0 -1 0
vn -0 -1 0
vn -0 -1 0
vn -0 -1 0
vn -0 -1 0
vn -0 -1 0
vn -0 -1 0
vn -0 -1 0
vn -0 -1 0
vn -0 -1 0
vn -0 -1 0
vn -0 -1 0
vn -0 -1 0
f 20//20 3//3 2//2 
f 20//20 4//4 3//3 
f 14//14 2//2 1//1 
f 14//14 1//1 13//13 
f 14//14 20//20 2//2 
f 19//19 5//5 4//4 
f 19//19 4//4 20//20 
f 15//15 14//14 13//13 
f 6//6 5//5 19//19 
f 18//18 6//6 19//19 
f 12//12 15//15 13//13 
f 7//7 6//6 18//18 
f 11//11 16//16 15//15 
f 11//11 15//15 12//12 
f 8//8 18//18 17//17 
f 8//8 7//7 18//18 
f 10//10 16//16 11//11 
f 9//9 17//17 16//16 
f 9//9 8//8 17//17 
f 9//9 16//16 10//10 

g Face_2
v -0.006583200000000001 0.242731 -0.0386
v -0.00799511 0.242731 -0.03566813
v -0.011167654 0.242731 -0.03494402
v -0.013711830000000001 0.242731 -0.03697294
v -0.013711830000000001 0.242731 -0.04022706
v -0.011167654 0.242731 -0.042255980000000005
v -0.00799511 0.242731 -0.041531870000000005
v -0.006583200000000001 0.242731 -0.0386
v -0.006583200000000001 0.244931 -0.0386
v -0.00799511 0.244931 -0.03566813
v -0.011167654 0.244931 -0.03494402
v -0.013711830000000001 0.244931 -0.03697294
v -0.013711830000000001 0.244931 -0.04022706
v -0.011167654 0.244931 -0.042255980000000005
v -0.00799511 0.244931 -0.041531870000000005
v -0.006583200000000001 0.244931 -0.0386
vn -1 -0 5.55112e-17
vn -0.62349 -0 -0.781831
vn 0.222521 0 -0.974928
vn 0.900969 0 -0.433884
vn 0.900969 -0 0.433884
vn 0.222521 -0 0.974928
vn -0.62349 -0 0.781831
vn -1 -0 3.00441e-16
vn -1 -0 5.55112e-17
vn -0.62349 -0 -0.781831
vn 0.222521 0 -0.974928
vn 0.900969 0 -0.433884
vn 0.900969 -0 0.433884
vn 0.222521 -0 0.974928
vn -0.62349 -0 0.781831
vn -1 -0 3.00441e-16
f 22//22 29//29 21//21 
f 22//22 30//30 29//29 
f 23//23 31//31 30//30 
f 23//23 30//30 22//22 
f 24//24 32//32 31//31 
f 24//24 31//31 23//23 
f 25//25 33//33 32//32 
f 25//25 32//32 24//24 
f 26//26 34//34 33//33 
f 26//26 33//33 25//25 
f 27//27 35//35 34//34 
f 27//27 34//34 26//26 
f 28//28 36//36 35//35 
f 28//28 35//35 27//27 

g Face_3
v 0.0044167999999999985 0.242731 -0.0386
v 0.0027272999999999985 0.242731 -0.04545467
v -0.001954240000000001 0.242731 -0.050739000000000006
v -0.00855528 0.242731 -0.0532425
v -0.01556362 0.242731 -0.0523915
v -0.021373700000000002 0.242731 -0.048381060000000004
v -0.0246546 0.242731 -0.04212991
v -0.0246546 0.242731 -0.035070090000000005
v -0.021373700000000002 0.242731 -0.02881894
v -0.01556362 0.242731 -0.024808500000000004
v -0.00855528 0.242731 -0.023957500000000003
v -0.001954240000000001 0.242731 -0.026461000000000002
v 0.0027272999999999985 0.242731 -0.03174533
v 0.0044167999999999985 0.242731 -0.0386
v 0.0044167999999999985 0.243181 -0.0386
v 0.0029560999999999997 0.243181 -0.03220021
v -0.0011367300000000007 0.243181 -0.027068000000000002
v -0.007051020000000001 0.243181 -0.024219800000000003
v -0.01361538 0.243181 -0.024219800000000003
v -0.01952967 0.243181 -0.027068000000000002
v -0.0236225 0.243181 -0.03220021
v -0.0250832 0.243181 -0.0386
v -0.0236225 0.243181 -0.044999790000000005
v -0.01952967 0.243181 -0.050132
v -0.01361538 0.243181 -0.052980200000000005
v -0.007051020000000001 0.243181 -0.052980200000000005
v -0.0011367300000000007 0.243181 -0.050132
v 0.0029560999999999997 0.243181 -0.044999790000000005
v 0.0044167999999999985 0.243181 -0.0386
vn 1 0 -3.00441e-16
vn 0.885456 0 -0.464723
vn 0.568065 0 -0.822984
vn 0.120537 0 -0.992709
vn -0.354605 0 -0.935016
vn -0.748511 0 -0.663123
vn -0.970942 0 -0.239316
vn -0.970942 -0 0.239316
vn -0.748511 -0 0.663123
vn -0.354605 -0 0.935016
vn 0.120537 0 0.992709
vn 0.568065 0 0.822984
vn 0.885456 0 0.464723
vn 1 0 -5.55112e-17
vn 1 0 -5.55112e-17
vn 0.900969 0 0.433884
vn 0.62349 0 0.781831
vn 0.222521 0 0.974928
vn -0.222521 -0 0.974928
vn -0.62349 -0 0.781831
vn -0.900969 -0 0.433884
vn -1 -0 1.77976e-16
vn -0.900969 0 -0.433884
vn -0.62349 0 -0.781831
vn -0.222521 0 -0.974928
vn 0.222521 0 -0.974928
vn 0.62349 0 -0.781831
vn 0.900969 0 -0.433884
vn 1 0 -3.00441e-16
f 50//50 51//51 52//52 
f 49//49 52//52 53//53 
f 49//49 50//50 52//52 
f 48//48 53//53 54//54 
f 48//48 49//49 53//53 
f 47//47 54//54 55//55 
f 47//47 48//48 54//54 
f 46//46 55//55 56//56 
f 46//46 47//47 55//55 
f 45//45 56//56 57//57 
f 45//45 46//46 56//56 
f 44//44 57//57 58//58 
f 44//44 45//45 57//57 
f 43//43 58//58 59//59 
f 43//43 44//44 58//58 
f 42//42 59//59 60//60 
f 42//42 43//43 59//59 
f 41//41 60//60 61//61 
f 41//41 42//42 60//60 
f 40//40 61//61 62//62 
f 40//40 41//41 61//61 
f 39//39 62//62 63//63 
f 39//39 40//40 62//62 
f 38//38 63//63 64//64 
f 38//38 39//39 63//63 
f 37//37 64//64 65//65 
f 37//37 38//38 64//64 

g Face_4
v -0.0233332 0.244931 -0.0386
v -0.0221247 0.244931 -0.033126140000000005
v -0.01872681 0.244931 -0.028672670000000004
v -0.015431750000000001 0.244931 -0.026641500000000002
v -0.00919401 0.244931 -0.025649900000000003
v -0.005837610000000001 0.244931 -0.026402000000000002
v -0.0001137000000000013 0.244931 -0.030564690000000002
v 0.0024297 0.244931 -0.0361283
v 0.0018284999999999985 0.244931 -0.04319275
v 1.6299999999998607e-05 0.244931 -0.04646715
v -0.002650060000000001 0.244931 -0.0490868
v -0.007913710000000001 0.244931 -0.0513729
v -0.014212500000000001 0.244931 -0.051007800000000006
v -0.01818048 0.244931 -0.0489645
v -0.0211436 0.244931 -0.045820530000000005
v -0.022767700000000002 0.244931 -0.04239309
v -0.006583200000000001 0.244931 -0.0386
v -0.00799511 0.244931 -0.03566813
v -0.011167654 0.244931 -0.03494402
v -0.013711830000000001 0.244931 -0.03697294
v -0.013711830000000001 0.244931 -0.04022706
v -0.011167654 0.244931 -0.042255980000000005
v -0.00799511 0.244931 -0.041531870000000005
vn 0 1 -0
vn 0 1 -0
vn 0 1 -0
vn 0 1 -0
vn 0 1 -0
vn 0 1 -0
vn 0 1 -0
vn 0 1 -0
vn 0 1 -0
vn 0 1 -0
vn 0 1 -0
vn 0 1 -0
vn 0 1 -0
vn 0 1 -0
vn 0 1 -0
vn 0 1 -0
vn 0 1 -0
vn 0 1 -0
vn 0 1 -0
vn 0 1 -0
vn 0 1 -0
vn 0 1 -0
vn 0 1 -0
f 88//88 74//74 75//75 
f 88//88 75//75 76//76 
f 88//88 76//76 77//77 
f 82//82 73//73 74//74 
f 82//82 74//74 88//88 
f 87//87 77//77 78//78 
f 87//87 88//88 77//77 
f 79//79 87//87 78//78 
f 72//72 73//73 82//82 
f 83//83 72//72 82//82 
f 86//86 87//87 79//79 
f 80//80 86//86 79//79 
f 71//71 83//83 84//84 
f 71//71 72//72 83//83 
f 81//81 86//86 80//80 
f 70//70 71//71 84//84 
f 66//66 85//85 86//86 
f 66//66 86//86 81//81 
f 69//69 70//70 84//84 
f 67//67 85//85 66//66 
f 68//68 84//84 85//85 
f 68//68 69//69 84//84 
f 68//68 85//85 67//67 

g Face_5
v -0.0233332 0.244931 -0.0386
v -0.0221247 0.244931 -0.033126140000000005
v -0.01872681 0.244931 -0.028672670000000004
v -0.015431750000000001 0.244931 -0.026641500000000002
v -0.00919401 0.244931 -0.025649900000000003
v -0.005837610000000001 0.244931 -0.026402000000000002
v -0.0001137000000000013 0.244931 -0.030564690000000002
v 0.0024297 0.244931 -0.0361283
v 0.0018284999999999985 0.244931 -0.04319275
v 1.6299999999998607e-05 0.244931 -0.04646715
v -0.002650060000000001 0.244931 -0.0490868
v -0.007913710000000001 0.244931 -0.0513729
v -0.014212500000000001 0.244931 -0.051007800000000006
v -0.01818048 0.244931 -0.0489645
v -0.0211436 0.244931 -0.045820530000000005
v -0.022767700000000002 0.244931 -0.04239309
v -0.0233332 0.244931 -0.0386
v -0.0245706 0.24441844000000001 -0.0386
v -0.0250832 0.243181 -0.0386
v 0.0044167999999999985 0.243181 -0.0386
v 0.0029560999999999997 0.243181 -0.03220021
v -0.0011367300000000007 0.243181 -0.027068000000000002
v -0.007051020000000001 0.243181 -0.024219800000000003
v -0.01361538 0.243181 -0.024219800000000003
v -0.01952967 0.243181 -0.027068000000000002
v -0.0236225 0.243181 -0.03220021
v -0.0250832 0.243181 -0.0386
v -0.0236225 0.243181 -0.044999790000000005
v -0.01952967 0.243181 -0.050132
v -0.01361538 0.243181 -0.052980200000000005
v -0.007051020000000001 0.243181 -0.052980200000000005
v -0.0011367300000000007 0.243181 -0.050132
v 0.0029560999999999997 0.243181 -0.044999790000000005
v -0.0245706 0.24441844000000001 -0.0386
vn 0 1 -0
vn -6.32622e-05 1 2.93474e-05
vn -6.52621e-05 1 7.72365e-05
vn -5.72455e-06 1 1.34256e-05
vn 5.75933e-06 1 6.52133e-05
vn 3.70775e-06 1 1.00631e-05
vn 7.72733e-05 1 6.07357e-05
vn 3.74711e-08 1 7.25644e-09
vn 3.5949e-06 1 -1.35763e-06
vn 6.08045e-05 1 -4.619e-05
vn 3.37965e-05 1 -4.60629e-05
vn -1.70038e-08 1 8.97576e-08
vn -2.09614e-05 1 -6.70755e-05
vn -4.48972e-05 1 -5.93438e-05
vn -2.41171e-07 1 -1.6108e-07
vn -7.6606e-05 1 -2.33436e-05
vn 0 1 -0
vn -0.707107 0.707107 -2.01875e-16
vn -1 0 0
vn 1 -1.75234e-15 -5.88042e-17
vn 0.90088 -1.24514e-15 0.434068
vn 0.62348 -1.24416e-15 0.781839
vn 0.222517 -3.29696e-15 0.974929
vn -0.222539 -2.33243e-15 0.974924
vn -0.623422 -2.15104e-15 0.781885
vn -0.900413 -9.05695e-16 0.435035
vn -1 -1.40187e-15 -2.35217e-16
vn -0.900413 -1.78087e-15 -0.435035
vn -0.623422 -3.89322e-16 -0.781885
vn -0.222539 3.08058e-16 -0.974924
vn 0.222517 -2.9302e-15 -0.974929
vn 0.62348 -3.02367e-15 -0.781839
vn 0.90088 -3.02333e-15 -0.434068
vn -0.707107 0.707107 2.01875e-16
f 90//90 89//89 106//106 
f 114//114 106//106 107//107 
f 114//114 90//90 106//106 
f 91//91 90//90 114//114 
f 113//113 91//91 114//114 
f 92//92 91//91 113//113 
f 112//112 92//92 113//113 
f 93//93 92//92 112//112 
f 111//111 94//94 93//93 
f 111//111 93//93 112//112 
f 110//110 94//94 111//111 
f 95//95 94//94 110//110 
f 109//109 95//95 110//110 
f 96//96 95//95 109//109 
f 108//108 96//96 109//109 
f 97//97 96//96 108//108 
f 121//121 97//97 108//108 
f 98//98 97//97 121//121 
f 120//120 99//99 98//98 
f 120//120 98//98 121//121 
f 119//119 100//100 99//99 
f 119//119 99//99 120//120 
f 118//118 101//101 100//100 
f 118//118 100//100 119//119 
f 117//117 102//102 101//101 
f 117//117 101//101 118//118 
f 103//103 102//102 117//117 
f 116//116 104//104 103//103 
f 116//116 103//103 117//117 
f 122//122 105//105 104//104 
f 115//115 122//122 104//104 
f 115//115 104//104 116//116 

