mtllib Copie_de_carr_X2_00e9_X0__pour_marteau^Copie_de_Assemblage3_1_Horloge_Comtoise_Verge_-_Sonnerie.mtl
usemtl Copie_de_carr_X2_00e9_X0__pour_marteau^Copie_de_Assemblage3_1_Horloge_Comtoise_Verge_-_Sonnerie
#Wavefront export of shape 1-49-1--Copie_de_carr_X2_00e9_X0__pour_marteau_Copie_de_Assemblage3_1_Horloge_Comtoise_Verge_-_Sonnerie

g Face_1
v 0.058616800000000004 0.282482 -0.07955
v 0.058616800000000004 0.282482 -0.07365000000000001
v 0.058616800000000004 0.287882 -0.07365000000000001
v 0.058616800000000004 0.287882 -0.07955
vn 1 -0 -0
vn 1 -0 -0
vn 1 -0 -0
vn 1 -0 -0
f 3//3 2//2 1//1 
f 3//3 1//1 4//4 

g Face_2
v 0.0527168 0.282482 -0.07365000000000001
v 0.0527168 0.282482 -0.07955
v 0.058616800000000004 0.282482 -0.07955
v 0.058616800000000004 0.282482 -0.07365000000000001
v 0.0537168 0.282482 -0.07465000000000001
v 0.0576168 0.282482 -0.07465000000000001
v 0.0576168 0.282482 -0.07855
v 0.0537168 0.282482 -0.07855
vn 0 -1 0
vn 0 -1 0
vn 0 -1 0
vn 0 -1 0
vn 0 -1 0
vn 0 -1 0
vn 0 -1 0
vn 0 -1 0
f 6//6 12//12 9//9 
f 6//6 9//9 5//5 
f 10//10 8//8 5//5 
f 10//10 5//5 9//9 
f 7//7 10//10 11//11 
f 7//7 11//11 12//12 
f 7//7 12//12 6//6 
f 7//7 8//8 10//10 

g Face_3
v 0.0527168 0.282482 -0.07955
v 0.058616800000000004 0.282482 -0.07955
v 0.058616800000000004 0.287882 -0.07955
v 0.0527168 0.287882 -0.07955
vn -0 -0 -1
vn -0 -0 -1
vn -0 -0 -1
vn -0 -0 -1
f 15//15 14//14 13//13 
f 15//15 13//13 16//16 

g Face_4
v 0.058616800000000004 0.287882 -0.07365000000000001
v 0.058616800000000004 0.287882 -0.07955
v 0.0527168 0.287882 -0.07365000000000001
v 0.0527168 0.287882 -0.07955
v 0.0537168 0.287882 -0.07855
v 0.0537168 0.287882 -0.07465000000000001
v 0.0576168 0.287882 -0.07465000000000001
v 0.0576168 0.287882 -0.07855
vn -0 1 -0
vn -0 1 -0
vn -0 1 -0
vn -0 1 -0
vn -0 1 -0
vn -0 1 -0
vn -0 1 -0
vn -0 1 -0
f 21//21 20//20 19//19 
f 21//21 19//19 22//22 
f 17//17 23//23 22//22 
f 17//17 22//22 19//19 
f 18//18 24//24 23//23 
f 18//18 21//21 24//24 
f 18//18 20//20 21//21 
f 18//18 23//23 17//17 

g Face_5
v 0.058616800000000004 0.282482 -0.07365000000000001
v 0.0527168 0.282482 -0.07365000000000001
v 0.0527168 0.287882 -0.07365000000000001
v 0.058616800000000004 0.287882 -0.07365000000000001
v 0.0564168 0.286882 -0.07365000000000001
v 0.0552918 0.28753152 -0.07365000000000001
v 0.0552918 0.28623248 -0.07365000000000001
vn 1.4701e-16 -0 1
vn 1.4701e-16 -0 1
vn 1.4701e-16 -0 1
vn 1.4701e-16 -0 1
vn 1.4701e-16 -0 1
vn 1.4701e-16 -0 1
vn 1.4701e-16 -0 1
f 29//29 25//25 28//28 
f 31//31 26//26 25//25 
f 31//31 25//25 29//29 
f 30//30 29//29 28//28 
f 27//27 31//31 30//30 
f 27//27 26//26 31//31 
f 27//27 30//30 28//28 

g Face_6
v 0.0576168 0.287882 -0.07465000000000001
v 0.0576168 0.287882 -0.07855
v 0.0576168 0.282482 -0.07855
v 0.0576168 0.282482 -0.07465000000000001
vn -1 0 0
vn -1 0 0
vn -1 0 0
vn -1 0 0
f 32//32 33//33 34//34 
f 32//32 34//34 35//35 

g Face_7
v 0.0537168 0.287882 -0.07465000000000001
v 0.0576168 0.287882 -0.07465000000000001
v 0.0576168 0.282482 -0.07465000000000001
v 0.0537168 0.282482 -0.07465000000000001
vn 0 0 -1
vn 0 0 -1
vn 0 0 -1
vn 0 0 -1
f 36//36 37//37 38//38 
f 36//36 38//38 39//39 

g Face_8
v 0.0537168 0.287882 -0.07855
v 0.0537168 0.287882 -0.07465000000000001
v 0.0537168 0.282482 -0.07465000000000001
v 0.0537168 0.282482 -0.07855
vn 1 -0 0
vn 1 -0 0
vn 1 -0 0
vn 1 -0 0
f 40//40 41//41 42//42 
f 40//40 42//42 43//43 

g Face_9
v 0.0576168 0.287882 -0.07855
v 0.0537168 0.287882 -0.07855
v 0.0537168 0.282482 -0.07855
v 0.0576168 0.282482 -0.07855
vn 0 0 1
vn 0 0 1
vn 0 0 1
vn 0 0 1
f 44//44 45//45 46//46 
f 44//44 46//46 47//47 

g Face_10
v 0.0527168 0.282482 -0.07365000000000001
v 0.0527168 0.282482 -0.07955
v 0.0527168 0.287882 -0.07955
v 0.0527168 0.287882 -0.07365000000000001
vn -1 0 -7.35052e-17
vn -1 0 -7.35052e-17
vn -1 0 -7.35052e-17
vn -1 0 -7.35052e-17
f 50//50 49//49 48//48 
f 50//50 48//48 51//51 

g Face_11
v 0.0564168 0.286882 -0.07365000000000001
v 0.0552918 0.28753152 -0.07365000000000001
v 0.0552918 0.28623248 -0.07365000000000001
v 0.0564168 0.286882 -0.07365000000000001
v 0.0564168 0.286882 -0.07455
v 0.0552918 0.28753152 -0.07455
v 0.0552918 0.28623248 -0.07455
v 0.0564168 0.286882 -0.07455
vn -1 -0 -0
vn 0.5 -0.866025 -0
vn 0.5 0.866025 -0
vn -1 2.44929e-16 -0
vn -1 -0 -0
vn 0.5 -0.866025 -0
vn 0.5 0.866025 -0
vn -1 2.44929e-16 -0
f 53//53 56//56 52//52 
f 53//53 57//57 56//56 
f 54//54 58//58 57//57 
f 54//54 57//57 53//53 
f 55//55 59//59 58//58 
f 55//55 58//58 54//54 

g Face_12
v 0.0564168 0.286882 -0.07455
v 0.0552918 0.28753152 -0.07455
v 0.0552918 0.28623248 -0.07455
vn 0 0 1
vn 0 0 1
vn 0 0 1
f 60//60 61//61 62//62 

