mtllib Copie_de_Bati_Pied_arriere_gauhe^Copie_de_Bati_Horloge_Comtoise_Verge_-_Sonnerie.mtl
usemtl Copie_de_Bati_Pied_arriere_gauhe^Copie_de_Bati_Horloge_Comtoise_Verge_-_Sonnerie
#Wavefront export of shape 1-1-7--Copie_de_Bati_Pied_arriere_gauhe_Copie_de_Bati_Horloge_Comtoise_Verge_-_Sonnerie

g Face_1
v 0.1036668 0.00153069 0.0341
v 0.0971668 0.00153069 0.0341
v 0.0971668 0.24053069 0.0341
v 0.1036668 0.24053069 0.0341
v 0.1019168 0.12753069 0.0341
v 0.1004168 0.12903069 0.0341
v 0.0989168 0.12753069 0.0341
v 0.1004168 0.12603069 0.0341
vn -0 -0 1
vn -0 -0 1
vn -0 -0 1
vn -0 -0 1
vn -0 -0 1
vn -0 -0 1
vn -0 -0 1
vn -0 -0 1
f 8//8 2//2 1//1 
f 5//5 8//8 1//1 
f 7//7 2//2 8//8 
f 4//4 6//6 5//5 
f 3//3 7//7 6//6 
f 3//3 6//6 4//4 
f 2//2 7//7 3//3 
f 4//4 5//5 1//1 

g Face_2
v 0.1036668 0.00153069 0.02770119
v 0.1036668 0.00153069 0.0341
v 0.0971668 0.00153069 0.0341
v 0.0971668 0.00153069 0.02770119
vn 0 -1 0
vn 0 -1 0
vn 0 -1 0
vn 0 -1 0
f 9//9 10//10 11//11 
f 9//9 11//11 12//12 

g Face_3
v 0.1036668 0.00153069 0.02770119
v 0.1036668 0.00153069 0.0341
v 0.1036668 0.24053069 0.0341
v 0.1036668 0.24053069 0.02770119
vn 1 -0 -2.71101e-16
vn 1 -0 -2.71101e-16
vn 1 -0 -2.71101e-16
vn 1 -0 -2.71101e-16
f 15//15 14//14 13//13 
f 15//15 13//13 16//16 

g Face_4
v 0.0971668 0.24053069 0.0341
v 0.0971668 0.24053069 0.02770119
v 0.1036668 0.24053069 0.02770119
v 0.1036668 0.24053069 0.0341
vn -0 1 -0
vn -0 1 -0
vn -0 1 -0
vn -0 1 -0
f 19//19 18//18 17//17 
f 19//19 17//17 20//20 

g Face_5
v 0.0971668 0.00153069 0.0341
v 0.0971668 0.00153069 0.02770119
v 0.0971668 0.24053069 0.02770119
v 0.0971668 0.24053069 0.0341
vn -1 0 -0
vn -1 0 -0
vn -1 0 -0
vn -1 0 -0
f 23//23 22//22 21//21 
f 23//23 21//21 24//24 

g Face_6
v 0.1019168 0.12753069 0.0341
v 0.1004168 0.12903069 0.0341
v 0.0989168 0.12753069 0.0341
v 0.1004168 0.12603069 0.0341
v 0.1019168 0.12753069 0.0341
v 0.1019168 0.12753069 0.02770119
v 0.1004168 0.12903069 0.02770119
v 0.0989168 0.12753069 0.02770119
v 0.1004168 0.12603069 0.02770119
v 0.1019168 0.12753069 0.02770119
vn -1 -0 -0
vn -6.12323e-17 -1 0
vn 1 -1.22465e-16 -0
vn 1.83697e-16 1 -0
vn -1 2.44929e-16 -0
vn -1 -0 -0
vn -6.12323e-17 -1 0
vn 1 -1.22465e-16 -0
vn 1.83697e-16 1 -0
vn -1 2.44929e-16 -0
f 26//26 30//30 25//25 
f 26//26 31//31 30//30 
f 27//27 32//32 31//31 
f 27//27 31//31 26//26 
f 28//28 33//33 32//32 
f 28//28 32//32 27//27 
f 29//29 34//34 33//33 
f 29//29 33//33 28//28 

g Face_7
v 0.0971668 0.00153069 0.02770119
v 0.1036668 0.00153069 0.02770119
v 0.1036668 0.24053069 0.02770119
v 0.0971668 0.24053069 0.02770119
v 0.1019168 0.12753069 0.02770119
v 0.1004168 0.12903069 0.02770119
v 0.0989168 0.12753069 0.02770119
v 0.1004168 0.12603069 0.02770119
vn -0 -0 -1
vn -0 -0 -1
vn -0 -0 -1
vn -0 -0 -1
vn -0 -0 -1
vn -0 -0 -1
vn -0 -0 -1
vn -0 -0 -1
f 42//42 36//36 35//35 
f 41//41 42//42 35//35 
f 39//39 36//36 42//42 
f 38//38 40//40 41//41 
f 37//37 39//39 40//40 
f 37//37 40//40 38//38 
f 36//36 39//39 37//37 
f 38//38 41//41 35//35 

