mtllib Axe_Premiere_de_Sonnerie.mtl
usemtl Axe_Premiere_de_Sonnerie
#Wavefront export of shape 1-38-1--Axe_Premiere_de_Sonnerie

g Face_1
v 0.0563720608 -0.2112019456 -0.1006
v 0.05451721359774 -0.21343838862518 -0.1006
v 0.051617640777984 -0.21325234240098798 -0.1006
v 0.050063831527548 -0.21079717972193598 -0.1006
v 0.05113679668638 -0.20809701648565998 -0.1006
v 0.053951945599999995 -0.2073779392 -0.1006
v 0.0563720608 -0.2112019456 -0.0487
v 0.0563720608 -0.2112019456 -0.0487
v 0.05541893283824 -0.20814719009567997 -0.0487
v 0.052296872038239996 -0.20744524449568 -0.0487
v 0.0501279392 -0.2097980544 -0.0487
v 0.051081067161759995 -0.21285280990432 -0.0487
v 0.05420312796176 -0.21355475550432 -0.0487
v 0.0563720608 -0.2112019456 -0.1006
v 0.05541893283824 -0.20814719009567997 -0.1006
v 0.05630475550432 -0.20954687203824 -0.1006
vn 1 -2.44929e-16 -3.59783e-27
vn 0.587785 -0.809017 -1.53964e-26
vn -0.309017 -0.951057 -1.45017e-26
vn -0.951057 -0.309017 -1.65139e-27
vn -0.809017 0.587785 1.25604e-26
vn 6.12323e-17 1 1.6417e-26
vn 1 -2.44929e-16 -3.59783e-27
vn 1 -3.20972e-33 -3.59783e-27
vn 0.5 0.866025 1.24186e-26
vn -0.5 0.866025 1.60164e-26
vn -1 1.22465e-16 3.59783e-27
vn -0.5 -0.866025 -1.24186e-26
vn 0.5 -0.866025 -1.60164e-26
vn 1 -3.20972e-33 -3.59783e-27
vn 0.5 0.866025 1.24186e-26
vn 0.866025 0.5 5.09268e-27
f 8//8 14//14 16//16 
f 9//9 15//15 6//6 
f 9//9 16//16 15//15 
f 9//9 8//8 16//16 
f 10//10 6//6 5//5 
f 10//10 9//9 6//6 
f 11//11 5//5 4//4 
f 11//11 10//10 5//5 
f 12//12 4//4 3//3 
f 12//12 11//11 4//4 
f 13//13 3//3 2//2 
f 13//13 12//12 3//3 
f 7//7 2//2 1//1 
f 7//7 13//13 2//2 

g Face_2
v 0.0549085948 -0.2108729086 -0.0467
v 0.0536229086 -0.2088414052 -0.0467
v 0.051591405199999996 -0.2101270914 -0.0467
v 0.0528770914 -0.2121585948 -0.0467
v 0.0549085948 -0.2108729086 -0.0467
v 0.0563720608 -0.2112019456 -0.0487
v 0.05541893283824 -0.20814719009567997 -0.0487
v 0.052296872038239996 -0.20744524449568 -0.0487
v 0.0501279392 -0.2097980544 -0.0487
v 0.051081067161759995 -0.21285280990432 -0.0487
v 0.05420312796176 -0.21355475550432 -0.0487
v 0.0563720608 -0.2112019456 -0.0487
vn 0.8 2.93915e-16 0.6
vn -2.44929e-16 0.8 0.6
vn -0.8 -1.95943e-16 0.6
vn 1.46958e-16 -0.8 0.6
vn 0.8 9.79717e-17 0.6
vn 0.8 2.93915e-16 0.6
vn 0.4 0.69282 0.6
vn -0.4 0.69282 0.6
vn -0.8 -1.95943e-16 0.6
vn -0.4 -0.69282 0.6
vn 0.4 -0.69282 0.6
vn 0.8 9.79717e-17 0.6
f 27//27 21//21 20//20 
f 27//27 28//28 21//21 
f 26//26 27//27 20//20 
f 19//19 26//26 20//20 
f 25//25 26//26 19//19 
f 24//24 19//19 18//18 
f 24//24 25//25 19//19 
f 23//23 24//24 18//18 
f 17//17 23//23 18//18 
f 22//22 23//23 17//17 

g Face_3
v 0.0549085948 -0.2108729086 -0.0467
v 0.0536229086 -0.2088414052 -0.0467
v 0.051591405199999996 -0.2101270914 -0.0467
v 0.0528770914 -0.2121585948 -0.0467
v 0.054420772799999996 -0.2107632296 -0.0467
v 0.0535132296 -0.2093292272 -0.0467
v 0.0520792272 -0.2102367704 -0.0467
v 0.0529867704 -0.2116707728 -0.0467
vn 3.59783e-27 -1.6417e-26 1
vn 3.59783e-27 -1.6417e-26 1
vn 3.59783e-27 -1.6417e-26 1
vn 3.59783e-27 -1.6417e-26 1
vn 3.59783e-27 -1.6417e-26 1
vn 3.59783e-27 -1.6417e-26 1
vn 3.59783e-27 -1.6417e-26 1
vn 3.59783e-27 -1.6417e-26 1
f 36//36 32//32 29//29 
f 36//36 29//29 33//33 
f 30//30 34//34 33//33 
f 30//30 33//33 29//29 
f 31//31 35//35 34//34 
f 31//31 36//36 35//35 
f 31//31 32//32 36//36 
f 31//31 34//34 30//30 

g Face_4
v 0.054420772799999996 -0.2107632296 -0.0425
v 0.0535132296 -0.2093292272 -0.0425
v 0.0520792272 -0.2102367704 -0.0425
v 0.0529867704 -0.2116707728 -0.0425
v 0.054420772799999996 -0.2107632296 -0.0425
v 0.054420772799999996 -0.2107632296 -0.0467
v 0.0535132296 -0.2093292272 -0.0467
v 0.0520792272 -0.2102367704 -0.0467
v 0.0529867704 -0.2116707728 -0.0467
v 0.054420772799999996 -0.2107632296 -0.0467
vn 1 -3.20972e-33 -3.59783e-27
vn 6.12323e-17 1 1.6417e-26
vn -1 1.22465e-16 3.59783e-27
vn -1.83697e-16 -1 -1.6417e-26
vn 1 -2.44929e-16 -3.59783e-27
vn 1 -3.20972e-33 -3.59783e-27
vn 6.12323e-17 1 1.6417e-26
vn -1 1.22465e-16 3.59783e-27
vn -1.83697e-16 -1 -1.6417e-26
vn 1 -2.44929e-16 -3.59783e-27
f 38//38 37//37 42//42 
f 38//38 42//42 43//43 
f 39//39 43//43 44//44 
f 39//39 38//38 43//43 
f 40//40 44//44 45//45 
f 40//40 39//39 44//44 
f 41//41 45//45 46//46 
f 41//41 40//40 45//45 

g Face_5
v 0.0533475644 -0.2105219358 -0.0417
v 0.053220214751195 -0.21040453889049 -0.0417
v 0.053182220848805 -0.21057352530951 -0.0417
v 0.0533475644 -0.2105219358 -0.0417
v 0.054420772799999996 -0.2107632296 -0.0425
v 0.0535132296 -0.2093292272 -0.0425
v 0.0520792272 -0.2102367704 -0.0425
v 0.0529867704 -0.2116707728 -0.0425
v 0.054420772799999996 -0.2107632296 -0.0425
vn 0.588172 2.16091e-16 0.808736
vn -0.294086 0.509372 0.808736
vn -0.294086 -0.509372 0.808736
vn 0.588172 7.20303e-17 0.808736
vn 0.588172 2.16091e-16 0.808736
vn -1.80076e-16 0.588172 0.808736
vn -0.588172 -1.44061e-16 0.808736
vn 1.08045e-16 -0.588172 0.808736
vn 0.588172 7.20303e-17 0.808736
f 54//54 50//50 49//49 
f 54//54 55//55 50//50 
f 53//53 49//49 48//48 
f 53//53 54//54 49//49 
f 52//52 48//48 47//47 
f 52//52 53//53 48//48 
f 51//51 52//52 47//47 

g Face_6
v 0.0533475644 -0.2105219358 -0.0417
v 0.053220214751195 -0.21040453889049 -0.0417
v 0.053182220848805 -0.21057352530951 -0.0417
vn 3.59783e-27 -1.6417e-26 1
vn 3.59783e-27 -1.6417e-26 1
vn 3.59783e-27 -1.6417e-26 1
f 57//57 58//58 56//56 

g Face_7
v 0.0539300098 -0.2074755036 -0.1026
v 0.05620929683392 -0.20957665783543997 -0.1026
v 0.055529287033919995 -0.21260115423544 -0.1026
v 0.0525699902 -0.21352449639999999 -0.1026
v 0.050290703166079996 -0.21142334216456 -0.1026
v 0.05097071296608 -0.20839884576455997 -0.1026
v 0.0539300098 -0.2074755036 -0.1026
v 0.053951945599999995 -0.2073779392 -0.1006
v 0.0563720608 -0.2112019456 -0.1006
v 0.05451721359774 -0.21343838862518 -0.1006
v 0.051617640777984 -0.21325234240098798 -0.1006
v 0.050063831527548 -0.21079717972193598 -0.1006
v 0.05113679668638 -0.20809701648565998 -0.1006
v 0.053951945599999995 -0.2073779392 -0.1006
v 0.05541893283824 -0.20814719009567997 -0.1006
v 0.05630475550432 -0.20954687203824 -0.1006
vn -3.58883e-28 0.995012 -0.0997506
vn 0.861706 0.497506 -0.0997506
vn 0.861706 -0.497506 -0.0997506
vn -3.58889e-28 -0.995012 -0.0997506
vn -0.861706 -0.497506 -0.0997506
vn -0.861706 0.497506 -0.0997506
vn -3.58883e-28 0.995012 -0.0997506
vn 3.20972e-33 1 1.26285e-16
vn 1 -3.20972e-33 -3.59783e-27
vn 0.587785 -0.809017 -1.02167e-16
vn -0.309017 -0.951057 -1.20104e-16
vn -0.951057 -0.309017 -3.90242e-17
vn -0.809017 0.587785 7.42284e-17
vn 3.20972e-33 1 1.26285e-16
vn 0.5 0.866025 1.09366e-16
vn 0.866025 0.5 6.31425e-17
f 73//73 60//60 59//59 
f 73//73 59//59 72//72 
f 74//74 60//60 73//73 
f 67//67 61//61 60//60 
f 67//67 60//60 74//74 
f 68//68 62//62 61//61 
f 68//68 61//61 67//67 
f 69//69 62//62 68//68 
f 63//63 62//62 69//69 
f 70//70 63//63 69//69 
f 64//64 63//63 70//70 
f 71//71 64//64 70//70 
f 65//65 64//64 71//71 
f 66//66 65//65 71//71 

g Face_8
v 0.053951945599999995 -0.2073779392 -0.1026
v 0.05630475550432 -0.20954687203824 -0.1026
v 0.05560280990432 -0.21266893283823998 -0.1026
v 0.0525480544 -0.21362206079999999 -0.1026
v 0.05019524449568 -0.21145312796175997 -0.1026
v 0.05089719009568 -0.20833106716175998 -0.1026
v 0.0539300098 -0.2074755036 -0.1026
v 0.05620929683392 -0.20957665783543997 -0.1026
v 0.055529287033919995 -0.21260115423544 -0.1026
v 0.0525699902 -0.21352449639999999 -0.1026
v 0.050290703166079996 -0.21142334216456 -0.1026
v 0.05097071296608 -0.20839884576455997 -0.1026
vn 3.59783e-27 -1.26285e-16 1
vn 3.59783e-27 -1.26285e-16 1
vn 3.59783e-27 -1.26285e-16 1
vn 3.59783e-27 -1.26285e-16 1
vn 3.59783e-27 -1.26285e-16 1
vn 3.59783e-27 -1.26285e-16 1
vn 3.59783e-27 -1.26285e-16 1
vn 3.59783e-27 -1.26285e-16 1
vn 3.59783e-27 -1.26285e-16 1
vn 3.59783e-27 -1.26285e-16 1
vn 3.59783e-27 -1.26285e-16 1
vn 3.59783e-27 -1.26285e-16 1
f 84//84 79//79 78//78 
f 84//84 85//85 79//79 
f 86//86 80//80 79//79 
f 86//86 79//79 85//85 
f 77//77 83//83 84//84 
f 77//77 84//84 78//78 
f 75//75 86//86 81//81 
f 75//75 80//80 86//86 
f 76//76 81//81 82//82 
f 76//76 82//82 83//83 
f 76//76 75//75 81//81 
f 76//76 83//83 77//77 

g Face_9
v 0.053951945599999995 -0.2073779392 -0.1026
v 0.05630475550432 -0.20954687203824 -0.1026
v 0.05560280990432 -0.21266893283823998 -0.1026
v 0.0525480544 -0.21362206079999999 -0.1026
v 0.05019524449568 -0.21145312796175997 -0.1026
v 0.05089719009568 -0.20833106716175998 -0.1026
v 0.053951945599999995 -0.2073779392 -0.1026
v 0.053951945599999995 -0.2073779392 -0.1192
v 0.053951945599999995 -0.2073779392 -0.1192
v 0.05630475550432 -0.20954687203824 -0.1192
v 0.05560280990432 -0.21266893283823998 -0.1192
v 0.0525480544 -0.21362206079999999 -0.1192
v 0.05019524449568 -0.21145312796175997 -0.1192
v 0.05089719009568 -0.20833106716175998 -0.1192
vn 3.06162e-16 1 1.6417e-26
vn 0.866025 0.5 5.09268e-27
vn 0.866025 -0.5 -1.13243e-26
vn -1.83697e-16 -1 -1.6417e-26
vn -0.866025 -0.5 -5.09268e-27
vn -0.866025 0.5 1.13243e-26
vn 6.12323e-17 1 1.6417e-26
vn 6.12323e-17 1 1.6417e-26
vn 3.06162e-16 1 1.6417e-26
vn 0.866025 0.5 5.09268e-27
vn 0.866025 -0.5 -1.13243e-26
vn -1.83697e-16 -1 -1.6417e-26
vn -0.866025 -0.5 -5.09268e-27
vn -0.866025 0.5 1.13243e-26
f 92//92 93//93 94//94 
f 92//92 94//94 100//100 
f 91//91 100//100 99//99 
f 91//91 92//92 100//100 
f 90//90 99//99 98//98 
f 90//90 91//91 99//99 
f 89//89 98//98 97//97 
f 89//89 90//90 98//98 
f 88//88 97//97 96//96 
f 88//88 89//89 97//97 
f 87//87 96//96 95//95 
f 87//87 88//88 96//96 

g Face_10
v 0.053951945599999995 -0.2073779392 -0.1192
v 0.05630475550432 -0.20954687203824 -0.1192
v 0.05560280990432 -0.21266893283823998 -0.1192
v 0.0525480544 -0.21362206079999999 -0.1192
v 0.05019524449568 -0.21145312796175997 -0.1192
v 0.05089719009568 -0.20833106716175998 -0.1192
v 0.0539300098 -0.2074755036 -0.1192
v 0.05620929683392 -0.20957665783543997 -0.1192
v 0.055529287033919995 -0.21260115423544 -0.1192
v 0.0525699902 -0.21352449639999999 -0.1192
v 0.050290703166079996 -0.21142334216456 -0.1192
v 0.05097071296608 -0.20839884576455997 -0.1192
vn -3.59783e-27 1.26285e-16 -1
vn -3.59783e-27 1.26285e-16 -1
vn -3.59783e-27 1.26285e-16 -1
vn -3.59783e-27 1.26285e-16 -1
vn -3.59783e-27 1.26285e-16 -1
vn -3.59783e-27 1.26285e-16 -1
vn -3.59783e-27 1.26285e-16 -1
vn -3.59783e-27 1.26285e-16 -1
vn -3.59783e-27 1.26285e-16 -1
vn -3.59783e-27 1.26285e-16 -1
vn -3.59783e-27 1.26285e-16 -1
vn -3.59783e-27 1.26285e-16 -1
f 107//107 106//106 101//101 
f 107//107 112//112 106//106 
f 111//111 105//105 106//106 
f 111//111 106//106 112//112 
f 102//102 108//108 107//107 
f 102//102 107//107 101//101 
f 104//104 111//111 110//110 
f 104//104 105//105 111//111 
f 103//103 109//109 108//108 
f 103//103 110//110 109//109 
f 103//103 104//104 110//110 
f 103//103 108//108 102//102 

g Face_11
v 0.0539300098 -0.2074755036 -0.1213
v 0.05620929683392 -0.20957665783543997 -0.1213
v 0.055529287033919995 -0.21260115423544 -0.1213
v 0.0525699902 -0.21352449639999999 -0.1213
v 0.050290703166079996 -0.21142334216456 -0.1213
v 0.05097071296608 -0.20839884576455997 -0.1213
v 0.0539300098 -0.2074755036 -0.1213
v 0.0539300098 -0.2074755036 -0.1192
v 0.05620929683392 -0.20957665783543997 -0.1192
v 0.055529287033919995 -0.21260115423544 -0.1192
v 0.0525699902 -0.21352449639999999 -0.1192
v 0.050290703166079996 -0.21142334216456 -0.1192
v 0.05097071296608 -0.20839884576455997 -0.1192
v 0.0539300098 -0.2074755036 -0.1192
vn 3.20972e-33 1 1.26285e-16
vn 0.866025 0.5 6.31425e-17
vn 0.866025 -0.5 -6.31425e-17
vn -3.21625e-16 -1 -1.26285e-16
vn -0.866025 -0.5 -6.31425e-17
vn -0.866025 0.5 6.31425e-17
vn 6.43249e-16 1 1.26285e-16
vn 3.20972e-33 1 1.26285e-16
vn 0.866025 0.5 6.31425e-17
vn 0.866025 -0.5 -6.31425e-17
vn -3.21625e-16 -1 -1.26285e-16
vn -0.866025 -0.5 -6.31425e-17
vn -0.866025 0.5 6.31425e-17
vn 6.43249e-16 1 1.26285e-16
f 114//114 113//113 120//120 
f 114//114 120//120 121//121 
f 115//115 121//121 122//122 
f 115//115 114//114 121//121 
f 116//116 122//122 123//123 
f 116//116 115//115 122//122 
f 117//117 123//123 124//124 
f 117//117 116//116 123//123 
f 118//118 124//124 125//125 
f 118//118 117//117 124//124 
f 119//119 125//125 126//126 
f 119//119 118//118 125//125 

g Face_12
v 0.0539300098 -0.2074755036 -0.1213
v 0.05620929683392 -0.20957665783543997 -0.1213
v 0.055529287033919995 -0.21260115423544 -0.1213
v 0.0525699902 -0.21352449639999999 -0.1213
v 0.050290703166079996 -0.21142334216456 -0.1213
v 0.05097071296608 -0.20839884576455997 -0.1213
v 0.0538532345 -0.20781697899999999 -0.1213
v 0.05587518173108 -0.20968090593205999 -0.1213
v 0.055271947231080004 -0.21236392693206 -0.1213
v 0.0526467655 -0.213183021 -0.1213
v 0.05062481826892 -0.21131909406794 -0.1213
v 0.05122805276891999 -0.20863607306794 -0.1213
vn -3.59783e-27 1.26285e-16 -1
vn -3.59783e-27 1.26285e-16 -1
vn -3.59783e-27 1.26285e-16 -1
vn -3.59783e-27 1.26285e-16 -1
vn -3.59783e-27 1.26285e-16 -1
vn -3.59783e-27 1.26285e-16 -1
vn -3.59783e-27 1.26285e-16 -1
vn -3.59783e-27 1.26285e-16 -1
vn -3.59783e-27 1.26285e-16 -1
vn -3.59783e-27 1.26285e-16 -1
vn -3.59783e-27 1.26285e-16 -1
vn -3.59783e-27 1.26285e-16 -1
f 133//133 132//132 127//127 
f 133//133 138//138 132//132 
f 137//137 131//131 132//132 
f 137//137 132//132 138//138 
f 128//128 134//134 133//133 
f 128//128 133//133 127//127 
f 130//130 137//137 136//136 
f 130//130 131//131 137//137 
f 129//129 135//135 134//134 
f 129//129 136//136 135//135 
f 129//129 130//130 136//136 
f 129//129 134//134 128//128 

g Face_13
v 0.0526467655 -0.213183021 -0.1265
v 0.055271947231080004 -0.21236392693206 -0.1265
v 0.05587518173108 -0.20968090593205999 -0.1265
v 0.0538532345 -0.20781697899999999 -0.1265
v 0.0538532345 -0.20781697899999999 -0.1213
v 0.05587518173108 -0.20968090593205999 -0.1213
v 0.055271947231080004 -0.21236392693206 -0.1213
v 0.0526467655 -0.213183021 -0.1213
v 0.05062481826892 -0.21131909406794 -0.1213
v 0.05122805276891999 -0.20863607306794 -0.1213
v 0.0538532345 -0.20781697899999999 -0.1213
v 0.0538532345 -0.20781697899999999 -0.1265
v 0.05122805276891999 -0.20863607306794 -0.1265
v 0.05062481826892 -0.21131909406794 -0.1265
vn 1.22465e-16 -1 -1.26285e-16
vn 0.866025 -0.5 -6.31425e-17
vn 0.866025 0.5 6.31425e-17
vn 3.20972e-33 1 1.26285e-16
vn 3.20972e-33 1 1.26285e-16
vn 0.866025 0.5 6.31425e-17
vn 0.866025 -0.5 -6.31425e-17
vn 1.22465e-16 -1 -1.26285e-16
vn -0.866025 -0.5 -6.31425e-17
vn -0.866025 0.5 6.31425e-17
vn -2.44929e-16 1 1.26285e-16
vn -2.44929e-16 1 1.26285e-16
vn -0.866025 0.5 6.31425e-17
vn -0.866025 -0.5 -6.31425e-17
f 141//141 142//142 143//143 
f 141//141 143//143 144//144 
f 140//140 144//144 145//145 
f 140//140 141//141 144//144 
f 139//139 145//145 146//146 
f 139//139 140//140 145//145 
f 152//152 146//146 147//147 
f 152//152 139//139 146//146 
f 151//151 147//147 148//148 
f 151//151 152//152 147//147 
f 150//150 148//148 149//149 
f 150//150 151//151 148//148 

g Face_14
v 0.0526467655 -0.213183021 -0.1265
v 0.055271947231080004 -0.21236392693206 -0.1265
v 0.05587518173108 -0.20968090593205999 -0.1265
v 0.0538532345 -0.20781697899999999 -0.1265
v 0.0527345087 -0.2127927634 -0.1269
v 0.0527345087 -0.2127927634 -0.1269
v 0.05091015958686 -0.21071824217351998 -0.1269
v 0.052319384178820004 -0.20834211617824 -0.1269
v 0.05501469829322 -0.20894811458904 -0.1269
v 0.055271249241099996 -0.21169876365919996 -0.1269
v 0.0526467655 -0.213183021 -0.1265
v 0.05122805276891999 -0.20863607306794 -0.1265
v 0.05062481826892 -0.21131909406794 -0.1265
vn -2.54405e-27 -0.707107 -0.707107
vn 0.612372 -0.353553 -0.707107
vn 0.612372 0.353553 -0.707107
vn 8.65956e-17 0.707107 -0.707107
vn -2.54405e-27 -0.707107 -0.707107
vn -1.73191e-16 -0.707107 -0.707107
vn -0.672499 -0.218508 -0.707107
vn -0.415627 0.572061 -0.707107
vn 0.415627 0.572061 -0.707107
vn 0.672499 -0.218508 -0.707107
vn -1.73191e-16 -0.707107 -0.707107
vn -0.612372 0.353553 -0.707107
vn -0.612372 -0.353553 -0.707107
f 154//154 153//153 157//157 
f 154//154 157//157 162//162 
f 155//155 154//154 162//162 
f 161//161 155//155 162//162 
f 156//156 155//155 161//161 
f 160//160 156//156 161//161 
f 164//164 156//156 160//160 
f 159//159 164//164 160//160 
f 165//165 164//164 159//159 
f 158//158 165//165 159//159 
f 163//163 165//165 158//158 

g Face_15
v 0.0527345087 -0.2127927634 -0.1269
v 0.05138135268419999 -0.2119250031019 -0.1269
v 0.050902553013666 -0.21039047375461198 -0.1269
v 0.05152215400696 -0.20890718967271998 -0.1269
v 0.052950232946172 -0.208169196533254 -0.1269
v 0.054518574822308 -0.208521813202106 -0.1269
v 0.05549333729304 -0.20980004692727997 -0.1269
v 0.055418418832065997 -0.211405794193412 -0.1269
v 0.0543288707726 -0.21258770555569997 -0.1269
v 0.053688716 -0.208548712 -0.1269
v 0.05493998377842 -0.20943045277594 -0.1269
v 0.055201288 -0.21093871599999997 -0.1269
v 0.054319547224059996 -0.21218998377842 -0.1269
v 0.052811284 -0.212451288 -0.1269
v 0.05156001622158 -0.21156954722406 -0.1269
v 0.051298711999999996 -0.210061284 -0.1269
v 0.05218045277594 -0.20881001622158 -0.1269
vn -3.59783e-27 1.26285e-16 -1
vn -3.59783e-27 1.26285e-16 -1
vn -3.59783e-27 1.26285e-16 -1
vn -3.59783e-27 1.26285e-16 -1
vn -3.59783e-27 1.26285e-16 -1
vn -3.59783e-27 1.26285e-16 -1
vn -3.59783e-27 1.26285e-16 -1
vn -3.59783e-27 1.26285e-16 -1
vn -3.59783e-27 1.26285e-16 -1
vn -3.59783e-27 1.26285e-16 -1
vn -3.59783e-27 1.26285e-16 -1
vn -3.59783e-27 1.26285e-16 -1
vn -3.59783e-27 1.26285e-16 -1
vn -3.59783e-27 1.26285e-16 -1
vn -3.59783e-27 1.26285e-16 -1
vn -3.59783e-27 1.26285e-16 -1
vn -3.59783e-27 1.26285e-16 -1
f 182//182 169//169 170//170 
f 175//175 182//182 170//170 
f 181//181 169//169 182//182 
f 168//168 169//169 181//181 
f 171//171 175//175 170//170 
f 176//176 175//175 171//171 
f 180//180 168//168 181//181 
f 167//167 168//168 180//180 
f 172//172 176//176 171//171 
f 177//177 176//176 172//172 
f 179//179 167//167 180//180 
f 166//166 167//167 179//179 
f 173//173 177//177 172//172 
f 178//178 177//177 173//173 
f 174//174 179//179 178//178 
f 174//174 166//166 179//179 
f 174//174 178//178 173//173 

g Face_16
v 0.0536229086 -0.2088414052 -0.1313
v 0.0549085948 -0.2108729086 -0.1313
v 0.0528770914 -0.2121585948 -0.1313
v 0.051591405199999996 -0.2101270914 -0.1313
v 0.0536229086 -0.2088414052 -0.1313
v 0.053688716 -0.208548712 -0.1269
v 0.055241352911012 -0.21031426188148397 -0.1269
v 0.05404200999234 -0.21233649194537998 -0.1269
v 0.051748134358179994 -0.21182075057725996 -0.1269
v 0.051529788493332 -0.20947977579072397 -0.1269
v 0.053688716 -0.208548712 -0.1269
vn 3.66543e-16 0.997684 -0.0680239
vn 0.997684 -2.96862e-16 -0.0680239
vn -2.44362e-16 -0.997684 -0.0680239
vn -0.997684 1.91862e-16 -0.0680239
vn 1.22181e-16 0.997684 -0.0680239
vn 3.66543e-16 0.997684 -0.0680239
vn 0.948854 0.308301 -0.0680239
vn 0.586424 -0.807143 -0.0680239
vn -0.586424 -0.807143 -0.0680239
vn -0.948854 0.308301 -0.0680239
vn 1.22181e-16 0.997684 -0.0680239
f 192//192 187//187 186//186 
f 192//192 193//193 187//187 
f 191//191 186//186 185//185 
f 191//191 192//192 186//186 
f 190//190 185//185 184//184 
f 190//190 191//191 185//185 
f 189//189 184//184 183//183 
f 189//189 190//190 184//184 
f 188//188 189//189 183//183 

g Face_17
v 0.0536229086 -0.2088414052 -0.1313
v 0.0549085948 -0.2108729086 -0.1313
v 0.0528770914 -0.2121585948 -0.1313
v 0.051591405199999996 -0.2101270914 -0.1313
v 0.054420772799999996 -0.2107632296 -0.1313
v 0.0535132296 -0.2093292272 -0.1313
v 0.0520792272 -0.2102367704 -0.1313
v 0.0529867704 -0.2116707728 -0.1313
vn -3.59783e-27 1.6417e-26 -1
vn -3.59783e-27 1.6417e-26 -1
vn -3.59783e-27 1.6417e-26 -1
vn -3.59783e-27 1.6417e-26 -1
vn -3.59783e-27 1.6417e-26 -1
vn -3.59783e-27 1.6417e-26 -1
vn -3.59783e-27 1.6417e-26 -1
vn -3.59783e-27 1.6417e-26 -1
f 200//200 196//196 197//197 
f 200//200 201//201 196//196 
f 194//194 199//199 200//200 
f 194//194 200//200 197//197 
f 195//195 198//198 199//199 
f 195//195 201//201 198//198 
f 195//195 196//196 201//201 
f 195//195 199//199 194//194 

g Face_18
v 0.054420772799999996 -0.2107632296 -0.1313
v 0.0535132296 -0.2093292272 -0.1313
v 0.0520792272 -0.2102367704 -0.1313
v 0.0529867704 -0.2116707728 -0.1313
v 0.054420772799999996 -0.2107632296 -0.1313
v 0.054420772799999996 -0.2107632296 -0.135
v 0.0535132296 -0.2093292272 -0.135
v 0.0520792272 -0.2102367704 -0.135
v 0.0529867704 -0.2116707728 -0.135
v 0.054420772799999996 -0.2107632296 -0.135
vn 1 -3.20972e-33 -3.59783e-27
vn 6.12323e-17 1 1.6417e-26
vn -1 1.22465e-16 3.59783e-27
vn -1.83697e-16 -1 -1.6417e-26
vn 1 -2.44929e-16 -3.59783e-27
vn 1 -3.20972e-33 -3.59783e-27
vn 6.12323e-17 1 1.6417e-26
vn -1 1.22465e-16 3.59783e-27
vn -1.83697e-16 -1 -1.6417e-26
vn 1 -2.44929e-16 -3.59783e-27
f 203//203 202//202 207//207 
f 203//203 207//207 208//208 
f 204//204 208//208 209//209 
f 204//204 203//203 208//208 
f 205//205 209//209 210//210 
f 205//205 204//204 209//209 
f 206//206 210//210 211//211 
f 206//206 205//205 210//210 

g Face_19
v 0.054420772799999996 -0.2107632296 -0.135
v 0.0535132296 -0.2093292272 -0.135
v 0.0520792272 -0.2102367704 -0.135
v 0.0529867704 -0.2116707728 -0.135
v 0.054420772799999996 -0.2107632296 -0.135
v 0.0533475644 -0.21052193579999998 -0.1358
v 0.053220214751195 -0.21040453889048996 -0.1358
v 0.053182220848805 -0.21057352530950998 -0.1358
v 0.0533475644 -0.21052193579999998 -0.1358
vn 0.588172 1.3277e-26 -0.808736
vn 3.60151e-17 0.588172 -0.808736
vn -0.588172 7.20303e-17 -0.808736
vn -1.08045e-16 -0.588172 -0.808736
vn 0.588172 -1.44061e-16 -0.808736
vn 0.588172 1.3277e-26 -0.808736
vn -0.294086 0.509372 -0.808736
vn -0.294086 -0.509372 -0.808736
vn 0.588172 -1.44061e-16 -0.808736
f 213//213 212//212 217//217 
f 213//213 217//217 218//218 
f 214//214 218//218 219//219 
f 214//214 213//213 218//218 
f 215//215 219//219 220//220 
f 215//215 214//214 219//219 
f 216//216 215//215 220//220 

g Face_20
v 0.0533475644 -0.21052193579999998 -0.1358
v 0.053220214751195 -0.21040453889048996 -0.1358
v 0.053182220848805 -0.21057352530950998 -0.1358
vn -3.59783e-27 1.6417e-26 -1
vn -3.59783e-27 1.6417e-26 -1
vn -3.59783e-27 1.6417e-26 -1
f 221//221 223//223 222//222 

