mtllib Cliquet_barillet_Mouvement.mtl
usemtl Cliquet_barillet_Mouvement
#Wavefront export of shape 1-17--Cliquet_barillet_Mouvement

g Face_1
v 0.1418929599 -0.19732710455 -0.1122
v 0.13996810455 -0.1960080401 -0.11220000000000001
v 0.1386490401 -0.19793289545 -0.1122
v 0.14057389545 -0.1992519599 -0.1122
v 0.1418929599 -0.19732710455 -0.1122
v 0.1418929599 -0.19732710455 -0.11059999999999999
v 0.1418929599 -0.19732710455 -0.11059999999999999
v 0.13996810455 -0.1960080401 -0.11059999999999999
v 0.1386490401 -0.19793289545 -0.11059999999999999
v 0.14057389545 -0.1992519599 -0.11059999999999999
vn -0.983006 -0.183573 -2.04028e-16
vn 0.183573 -0.983006 -3.80374e-16
vn 0.983006 0.183573 2.04028e-16
vn -0.183573 0.983006 3.80374e-16
vn -0.983006 -0.183573 -2.04028e-16
vn -0.983006 -0.183573 -2.04028e-16
vn -0.983006 -0.183573 -2.04028e-16
vn 0.183573 -0.983006 -3.80374e-16
vn 0.983006 0.183573 2.04028e-16
vn -0.183573 0.983006 3.80374e-16
f 4//4 6//6 5//5 
f 4//4 10//10 6//6 
f 3//3 9//9 10//10 
f 3//3 10//10 4//4 
f 2//2 8//8 9//9 
f 2//2 9//9 3//3 
f 1//1 7//7 8//8 
f 1//1 8//8 2//2 

g Face_2
v 0.12225265296520202 -0.201968077152544 -0.109
v 0.12333059105118 -0.20774027462246 -0.109
v 0.12337894413772002 -0.20780853836333998 -0.109
v 0.12346226342085001 -0.2078161831037 -0.109
v 0.12352217753709001 -0.20775787358498 -0.109
v 0.12711514400137 -0.20310255000064 -0.109
v 0.13252509043973001 -0.20111342689676 -0.109
v 0.13710588369385002 -0.20089590018900003 -0.109
v 0.13564852187336 -0.19483996895567002 -0.109
v 0.12908740004232 -0.19714927800353998 -0.109
vn -1.30734e-16 -4.11364e-16 1
vn -1.30734e-16 -4.11364e-16 1
vn -1.30734e-16 -4.11364e-16 1
vn -1.30734e-16 -4.11364e-16 1
vn -1.30734e-16 -4.11364e-16 1
vn -1.30734e-16 -4.11364e-16 1
vn -1.30734e-16 -4.11364e-16 1
vn -1.30734e-16 -4.11364e-16 1
vn -1.30734e-16 -4.11364e-16 1
vn -1.30734e-16 -4.11364e-16 1
f 15//15 12//12 13//13 
f 15//15 13//13 14//14 
f 11//11 12//12 15//15 
f 16//16 11//11 15//15 
f 20//20 16//16 17//17 
f 20//20 11//11 16//16 
f 19//19 17//17 18//18 
f 19//19 20//20 17//17 

g Face_3
v 0.14810570093514203 -0.197140109088274 -0.11220000000000001
v 0.14018234534708598 -0.194662820819962 -0.11220000000000001
v 0.13281438540481003 -0.19554381095346998 -0.1122
v 0.1274271414948 -0.1981050590896 -0.1122
v 0.12225265296520202 -0.201968077152544 -0.1122
v 0.12333059105118 -0.20774027462246 -0.1122
v 0.12352217753709001 -0.20775787358498 -0.1122
v 0.12346226342085001 -0.2078161831037 -0.1122
v 0.12337894413772002 -0.20780853836333998 -0.1122
v 0.12711514400137 -0.20310255000064 -0.1122
v 0.13341976693259 -0.20100242202343 -0.1122
v 0.13994355283798598 -0.20083663350016198 -0.1122
v 0.14350927528576002 -0.19978758567386998 -0.1122
v 0.1418929599 -0.19732710455 -0.1122
v 0.13996810455 -0.1960080401 -0.11220000000000001
v 0.1386490401 -0.19793289545 -0.1122
v 0.14057389545 -0.1992519599 -0.1122
vn 1.30734e-16 4.11364e-16 -1
vn 1.30734e-16 4.11364e-16 -1
vn 1.30734e-16 4.11364e-16 -1
vn 1.30734e-16 4.11364e-16 -1
vn 1.30734e-16 4.11364e-16 -1
vn 1.30734e-16 4.11364e-16 -1
vn 1.30734e-16 4.11364e-16 -1
vn 1.30734e-16 4.11364e-16 -1
vn 1.30734e-16 4.11364e-16 -1
vn 1.30734e-16 4.11364e-16 -1
vn 1.30734e-16 4.11364e-16 -1
vn 1.30734e-16 4.11364e-16 -1
vn 1.30734e-16 4.11364e-16 -1
vn 1.30734e-16 4.11364e-16 -1
vn 1.30734e-16 4.11364e-16 -1
vn 1.30734e-16 4.11364e-16 -1
vn 1.30734e-16 4.11364e-16 -1
f 27//27 28//28 29//29 
f 27//27 29//29 26//26 
f 25//25 27//27 26//26 
f 30//30 27//27 25//25 
f 24//24 30//30 25//25 
f 31//31 30//30 24//24 
f 23//23 31//31 24//24 
f 36//36 32//32 31//31 
f 36//36 31//31 23//23 
f 37//37 32//32 36//36 
f 33//33 32//32 37//37 
f 34//34 33//33 37//37 
f 35//35 36//36 23//23 
f 22//22 34//34 35//35 
f 22//22 35//35 23//23 
f 21//21 34//34 22//22 
f 21//21 33//33 34//34 

g Face_4
v 0.13710588369385002 -0.200895900189 -0.11059999999999999
v 0.13710588369385002 -0.20089590018900003 -0.109
v 0.14216224996816001 -0.20032593176147 -0.11059999999999999
v 0.14810570093514203 -0.197140109088274 -0.11059999999999999
v 0.14810570093514203 -0.197140109088274 -0.11220000000000001
v 0.12352217753709001 -0.20775787358498 -0.1122
v 0.12711514400137 -0.20310255000064 -0.1122
v 0.13341976693259 -0.20100242202343 -0.1122
v 0.13994355283798598 -0.20083663350016198 -0.1122
v 0.14350927528576002 -0.19978758567386998 -0.1122
v 0.12352217753709001 -0.20775787358498 -0.109
v 0.12711514400137 -0.20310255000064 -0.109
v 0.13252509043973001 -0.20111342689676 -0.109
vn -0.0199172 -0.999802 -6.01804e-17
vn -0.0199172 -0.999802 -6.01804e-17
vn 0.323356 -0.946277 -3.81906e-15
vn 0.554236 -0.832359 -0
vn 0.554236 -0.832359 1.10639e-26
vn 0.933114 -0.359581 -0
vn 0.568005 -0.823025 -0
vn 0.100416 -0.994945 -0
vn 0.115114 -0.993352 -2.17441e-15
vn 0.412556 -0.910932 -3.87512e-15
vn 0.933114 -0.359581 -0
vn 0.568005 -0.823025 -0
vn 0.146752 -0.989173 -0
f 44//44 48//48 43//43 
f 44//44 49//49 48//48 
f 50//50 49//49 44//44 
f 45//45 50//50 44//44 
f 38//38 39//39 50//50 
f 38//38 50//50 45//45 
f 46//46 38//38 45//45 
f 47//47 40//40 46//46 
f 41//41 40//40 47//47 
f 42//42 41//41 47//47 
f 38//38 46//46 40//40 

g Face_5
v 0.12225265296520202 -0.201968077152544 -0.109
v 0.12225265296520202 -0.201968077152544 -0.1122
v 0.14810570093514203 -0.197140109088274 -0.11220000000000001
v 0.14018234534708598 -0.194662820819962 -0.11220000000000001
v 0.13281438540481003 -0.19554381095346998 -0.1122
v 0.1274271414948 -0.1981050590896 -0.1122
v 0.14810570093514203 -0.197140109088274 -0.11059999999999999
v 0.14184749721196002 -0.19489156102407 -0.11059999999999999
v 0.13564852187336 -0.19483996895567002 -0.11059999999999999
v 0.13564852187336 -0.19483996895567002 -0.109
v 0.12908740004232 -0.19714927800353998 -0.109
vn -0.655261 0.755403 -0
vn -0.655261 0.755403 8.72912e-30
vn 0.469292 0.883043 0
vn 0.0897366 0.995966 1.4796e-15
vn -0.311696 0.950182 3.42889e-15
vn -0.526317 0.850288 2.94967e-15
vn 0.469292 0.883043 0
vn 0.181479 0.983395 9.72876e-16
vn -0.165871 0.986147 2.88214e-15
vn -0.165871 0.986147 2.88214e-15
vn -0.469604 0.882877 3.35007e-15
f 58//58 57//57 53//53 
f 54//54 58//58 53//53 
f 55//55 60//60 59//59 
f 55//55 59//59 54//54 
f 61//61 60//60 55//55 
f 56//56 61//61 55//55 
f 51//51 61//61 56//56 
f 52//52 51//51 56//56 
f 58//58 54//54 59//59 

g Face_6
v 0.12225265296520202 -0.201968077152544 -0.109
v 0.12225265296520202 -0.201968077152544 -0.1122
v 0.12333059105118 -0.20774027462246 -0.109
v 0.12333059105118 -0.20774027462246 -0.1122
vn -0.983006 -0.183573 -2.04028e-16
vn -0.983006 -0.183573 -2.04028e-16
vn -0.983006 -0.183573 -2.04028e-16
vn -0.983006 -0.183573 -2.04028e-16
f 63//63 64//64 62//62 
f 63//63 65//65 64//64 

g Face_7
v 0.13710588369385002 -0.200895900189 -0.11059999999999999
v 0.14216224996816001 -0.20032593176147 -0.11059999999999999
v 0.14810570093514203 -0.197140109088274 -0.11059999999999999
v 0.14184749721196002 -0.19489156102407 -0.11059999999999999
v 0.13564852187336 -0.19483996895567002 -0.11059999999999999
v 0.1418929599 -0.19732710455 -0.11059999999999999
v 0.13996810455 -0.1960080401 -0.11059999999999999
v 0.1386490401 -0.19793289545 -0.11059999999999999
v 0.14057389545 -0.1992519599 -0.11059999999999999
vn -1.30734e-16 -4.11364e-16 1
vn -1.30734e-16 -4.11364e-16 1
vn -1.30734e-16 -4.11364e-16 1
vn -1.30734e-16 -4.11364e-16 1
vn -1.30734e-16 -4.11364e-16 1
vn -1.30734e-16 -4.11364e-16 1
vn -1.30734e-16 -4.11364e-16 1
vn -1.30734e-16 -4.11364e-16 1
vn -1.30734e-16 -4.11364e-16 1
f 74//74 73//73 66//66 
f 67//67 74//74 66//66 
f 70//70 66//66 73//73 
f 71//71 74//74 67//67 
f 72//72 70//70 73//73 
f 69//69 72//72 71//71 
f 69//69 70//70 72//72 
f 68//68 69//69 71//71 
f 68//68 71//71 67//67 

g Face_8
v 0.13710588369385002 -0.200895900189 -0.11059999999999999
v 0.13710588369385002 -0.20089590018900003 -0.109
v 0.13564852187336 -0.19483996895567002 -0.109
v 0.13564852187336 -0.19483996895567002 -0.11059999999999999
vn 0.972243 0.233972 2.23353e-16
vn 0.972243 0.233972 2.23353e-16
vn 0.972243 0.233972 2.23353e-16
vn 0.972243 0.233972 2.23353e-16
f 76//76 78//78 77//77 
f 76//76 75//75 78//78 

g Face_9
v 0.12333059105118 -0.20774027462246 -0.109
v 0.12337894413772002 -0.20780853836333998 -0.109
v 0.12346226342085001 -0.2078161831037 -0.109
v 0.12352217753709001 -0.20775787358498 -0.109
v 0.12333059105118 -0.20774027462246 -0.1122
v 0.12352217753709001 -0.20775787358498 -0.1122
v 0.12346226342085001 -0.2078161831037 -0.1122
v 0.12337894413772002 -0.20780853836333998 -0.1122
vn -0.983006 -0.183573 -2.04028e-16
vn -0.49959 -0.866262 -4.21662e-16
vn 0.333417 -0.942779 -3.44236e-16
vn 0.933114 -0.359581 -2.59286e-17
vn -0.983006 -0.183573 -2.04028e-16
vn 0.933114 -0.359581 -2.59286e-17
vn 0.333417 -0.942779 -3.44236e-16
vn -0.49959 -0.866262 -4.21662e-16
f 84//84 82//82 81//81 
f 85//85 81//81 80//80 
f 85//85 84//84 81//81 
f 86//86 80//80 79//79 
f 86//86 85//85 80//80 
f 83//83 86//86 79//79 

