mtllib Cliquet_barillet_Heures.mtl
usemtl Cliquet_barillet_Heures
#Wavefront export of shape 1-36--Cliquet_barillet_Heures

g Face_1
v 0.06576639285000001 -0.22748672365 -0.1037
v 0.06393712365 -0.22603800715 -0.1037
v 0.06248840715 -0.22786727634999998 -0.1037
v 0.06431767635000002 -0.22931599284999998 -0.1037
v 0.06576639285000001 -0.22748672365 -0.1037
v 0.06576639285000001 -0.22748672365 -0.1017
v 0.06576639285000001 -0.22748672365 -0.1017
v 0.06393712365 -0.22603800715 -0.1017
v 0.06248840715 -0.22786727634999998 -0.1017
v 0.06431767635000002 -0.22931599284999998 -0.1017
vn -0.993329 -0.115319 1.74656e-16
vn 0.115319 -0.993329 -2.66283e-17
vn 0.993329 0.115319 -1.74656e-16
vn -0.115319 0.993329 2.66283e-17
vn -0.993329 -0.115319 1.74656e-16
vn -0.993329 -0.115319 1.74656e-16
vn -0.993329 -0.115319 1.74656e-16
vn 0.115319 -0.993329 -2.66283e-17
vn 0.993329 0.115319 -1.74656e-16
vn -0.115319 0.993329 2.66283e-17
f 4//4 6//6 5//5 
f 4//4 10//10 6//6 
f 3//3 9//9 10//10 
f 3//3 10//10 4//4 
f 2//2 8//8 9//9 
f 2//2 9//9 3//3 
f 1//1 7//7 8//8 
f 1//1 8//8 2//2 

g Face_2
v 0.044547466353829 -0.230364357128339 -0.1002
v 0.04537053138402 -0.23745403327342 -0.1002
v 0.045409223300279994 -0.23752196460028 -0.1002
v 0.04548496524928 -0.23754135952528 -0.1002
v 0.04555148049634 -0.23750035548334 -0.1002
v 0.05106561757453 -0.23236803867803 -0.1002
v 0.05622884973652 -0.23104608042577998 -0.1002
v 0.06041424610332 -0.2314910338873 -0.1002
v 0.05914864347798001 -0.22403615305162 -0.1002
v 0.052209423336939995 -0.22607916712314 -0.1002
vn 1.76562e-16 -6.30948e-18 1
vn 1.76562e-16 -6.30948e-18 1
vn 1.76562e-16 -6.30948e-18 1
vn 1.76562e-16 -6.30948e-18 1
vn 1.76562e-16 -6.30948e-18 1
vn 1.76562e-16 -6.30948e-18 1
vn 1.76562e-16 -6.30948e-18 1
vn 1.76562e-16 -6.30948e-18 1
vn 1.76562e-16 -6.30948e-18 1
vn 1.76562e-16 -6.30948e-18 1
f 15//15 12//12 13//13 
f 15//15 13//13 14//14 
f 11//11 12//12 15//15 
f 16//16 11//11 15//15 
f 20//20 16//16 17//17 
f 20//20 11//11 16//16 
f 19//19 17//17 18//18 
f 19//19 20//20 17//17 

g Face_3
v 0.073354047086989 -0.227020101515579 -0.1037
v 0.06499454994119 -0.22403791135212997 -0.1037
v 0.05669795724206 -0.22452449164160002 -0.1037
v 0.05096666601047999 -0.22664572054168 -0.1037
v 0.044547466353829 -0.230364357128339 -0.1037
v 0.04537053138402 -0.23745403327342 -0.1037
v 0.04555148049634 -0.23750035548334 -0.1037
v 0.04548496524928 -0.23754135952528 -0.1037
v 0.045409223300279994 -0.23752196460028 -0.1037
v 0.05134190557035 -0.23222621118525 -0.1037
v 0.056708984032780005 -0.23104487382238 -0.1037
v 0.063656799716347 -0.23176303096708298 -0.1037
v 0.06771149182047 -0.23051642104284997 -0.1037
v 0.06576639285000001 -0.22748672365 -0.1037
v 0.06393712365 -0.22603800715 -0.1037
v 0.06248840715 -0.22786727634999998 -0.1037
v 0.06431767635000002 -0.22931599284999998 -0.1037
vn -1.76562e-16 6.30948e-18 -1
vn -1.76562e-16 6.30948e-18 -1
vn -1.76562e-16 6.30948e-18 -1
vn -1.76562e-16 6.30948e-18 -1
vn -1.76562e-16 6.30948e-18 -1
vn -1.76562e-16 6.30948e-18 -1
vn -1.76562e-16 6.30948e-18 -1
vn -1.76562e-16 6.30948e-18 -1
vn -1.76562e-16 6.30948e-18 -1
vn -1.76562e-16 6.30948e-18 -1
vn -1.76562e-16 6.30948e-18 -1
vn -1.76562e-16 6.30948e-18 -1
vn -1.76562e-16 6.30948e-18 -1
vn -1.76562e-16 6.30948e-18 -1
vn -1.76562e-16 6.30948e-18 -1
vn -1.76562e-16 6.30948e-18 -1
vn -1.76562e-16 6.30948e-18 -1
f 27//27 28//28 29//29 
f 27//27 29//29 26//26 
f 25//25 27//27 26//26 
f 30//30 27//27 25//25 
f 24//24 30//30 25//25 
f 31//31 30//30 24//24 
f 23//23 31//31 24//24 
f 36//36 32//32 31//31 
f 36//36 31//31 23//23 
f 37//37 32//32 36//36 
f 33//33 32//32 37//37 
f 34//34 33//33 37//37 
f 35//35 36//36 23//23 
f 22//22 34//34 35//35 
f 22//22 35//35 23//23 
f 21//21 34//34 22//22 
f 21//21 33//33 34//34 

g Face_4
v 0.06041424610332 -0.2314910338873 -0.1017
v 0.06041424610332 -0.2314910338873 -0.1002
v 0.06536636428038299 -0.23144456106228697 -0.1017
v 0.073354047086989 -0.227020101515579 -0.1017
v 0.073354047086989 -0.227020101515579 -0.1037
v 0.04555148049634 -0.23750035548334 -0.1037
v 0.05134190557035 -0.23222621118525 -0.1037
v 0.056708984032780005 -0.23104487382238 -0.1037
v 0.063656799716347 -0.23176303096708298 -0.1037
v 0.06771149182047 -0.23051642104284997 -0.1037
v 0.04555148049634 -0.23750035548334 -0.1002
v 0.05106561757453 -0.23236803867803 -0.1002
v 0.05622884973652 -0.23104608042577998 -0.1002
vn -0.179203 -0.983812 -0
vn -0.179203 -0.983812 -0
vn 0.27491 -0.96147 -0
vn 0.578084 -0.815977 -0
vn 0.578084 -0.815977 -0
vn 0.815566 -0.578664 -0
vn 0.444862 -0.895599 -0
vn -0.015163 -0.999885 -0
vn 0.0812078 -0.996697 -0
vn 0.439504 -0.898241 -0
vn 0.815566 -0.578664 -0
vn 0.468361 -0.883537 -0
vn 0.0205494 -0.999789 -0
f 49//49 48//48 43//43 
f 44//44 49//49 43//43 
f 50//50 49//49 44//44 
f 45//45 50//50 44//44 
f 38//38 39//39 50//50 
f 38//38 50//50 45//45 
f 46//46 38//38 45//45 
f 47//47 40//40 46//46 
f 41//41 40//40 47//47 
f 42//42 41//41 47//47 
f 38//38 46//46 40//40 

g Face_5
v 0.044547466353829 -0.230364357128339 -0.1002
v 0.044547466353829 -0.230364357128339 -0.1037
v 0.073354047086989 -0.227020101515579 -0.1037
v 0.06499454994119 -0.22403791135212997 -0.1037
v 0.05669795724206 -0.22452449164160002 -0.1037
v 0.05096666601047999 -0.22664572054168 -0.1037
v 0.073354047086989 -0.227020101515579 -0.1017
v 0.06619290628336001 -0.22425280197495998 -0.1017
v 0.059148643477980004 -0.22403615305162 -0.1017
v 0.05914864347798001 -0.22403615305162 -0.1002
v 0.052209423336939995 -0.22607916712314 -0.1002
vn -0.557506 0.830173 -0
vn -0.557506 0.830173 -0
vn 0.481159 0.876633 0
vn 0.146791 0.989167 -6.46711e-17
vn -0.246166 0.969228 2.15332e-16
vn -0.43112 0.902295 3.13525e-16
vn 0.481159 0.876633 0
vn 0.205725 0.97861 -7.18371e-17
vn -0.141684 0.989912 1.14531e-16
vn -0.141684 0.989912 1.14531e-16
vn -0.397782 0.91748 3.17561e-16
f 58//58 57//57 53//53 
f 54//54 58//58 53//53 
f 55//55 60//60 59//59 
f 55//55 59//59 54//54 
f 61//61 60//60 55//55 
f 56//56 61//61 55//55 
f 51//51 61//61 56//56 
f 52//52 51//51 56//56 
f 58//58 54//54 59//59 

g Face_6
v 0.044547466353829 -0.230364357128339 -0.1002
v 0.044547466353829 -0.230364357128339 -0.1037
v 0.04537053138402 -0.23745403327342 -0.1002
v 0.04537053138402 -0.23745403327342 -0.1037
vn -0.993329 -0.115319 1.74656e-16
vn -0.993329 -0.115319 1.74656e-16
vn -0.993329 -0.115319 1.74656e-16
vn -0.993329 -0.115319 1.74656e-16
f 63//63 64//64 62//62 
f 63//63 65//65 64//64 

g Face_7
v 0.06041424610332 -0.2314910338873 -0.1017
v 0.06536636428038299 -0.23144456106228697 -0.1017
v 0.073354047086989 -0.227020101515579 -0.1017
v 0.06619290628336001 -0.22425280197495998 -0.1017
v 0.059148643477980004 -0.22403615305162 -0.1017
v 0.06576639285000001 -0.22748672365 -0.1017
v 0.06393712365 -0.22603800715 -0.1017
v 0.06248840715 -0.22786727634999998 -0.1017
v 0.06431767635000002 -0.22931599284999998 -0.1017
vn 1.76562e-16 -6.30948e-18 1
vn 1.76562e-16 -6.30948e-18 1
vn 1.76562e-16 -6.30948e-18 1
vn 1.76562e-16 -6.30948e-18 1
vn 1.76562e-16 -6.30948e-18 1
vn 1.76562e-16 -6.30948e-18 1
vn 1.76562e-16 -6.30948e-18 1
vn 1.76562e-16 -6.30948e-18 1
vn 1.76562e-16 -6.30948e-18 1
f 74//74 66//66 67//67 
f 74//74 73//73 66//66 
f 70//70 66//66 73//73 
f 71//71 74//74 67//67 
f 72//72 70//70 73//73 
f 69//69 72//72 71//71 
f 69//69 70//70 72//72 
f 68//68 69//69 71//71 
f 68//68 71//71 67//67 

g Face_8
v 0.06041424610332 -0.2314910338873 -0.1017
v 0.06041424610332 -0.2314910338873 -0.1002
v 0.05914864347798001 -0.22403615305162 -0.1002
v 0.059148643477980004 -0.22403615305162 -0.1017
vn 0.985894 0.167373 -1.73015e-16
vn 0.985894 0.167373 -1.73015e-16
vn 0.985894 0.167373 -1.73015e-16
vn 0.985894 0.167373 -1.73015e-16
f 76//76 78//78 77//77 
f 76//76 75//75 78//78 

g Face_9
v 0.04537053138402 -0.23745403327342 -0.1002
v 0.045409223300279994 -0.23752196460028 -0.1002
v 0.04548496524928 -0.23754135952528 -0.1002
v 0.04555148049634 -0.23750035548334 -0.1002
v 0.04537053138402 -0.23745403327342 -0.1037
v 0.04555148049634 -0.23750035548334 -0.1037
v 0.04548496524928 -0.23754135952528 -0.1037
v 0.045409223300279994 -0.23752196460028 -0.1037
vn -0.993329 -0.115319 1.74656e-16
vn -0.606972 -0.794723 1.02154e-16
vn 0.150161 -0.988662 -3.27507e-17
vn 0.815566 -0.578664 -1.47649e-16
vn -0.993329 -0.115319 1.74656e-16
vn 0.815566 -0.578664 -1.47649e-16
vn 0.150161 -0.988662 -3.27507e-17
vn -0.606972 -0.794723 1.02154e-16
f 85//85 81//81 80//80 
f 85//85 82//82 81//81 
f 85//85 84//84 82//82 
f 86//86 85//85 80//80 
f 83//83 80//80 79//79 
f 83//83 86//86 80//80 

