mtllib Cliquet_barillet_Quarts.mtl
usemtl Cliquet_barillet_Quarts
#Wavefront export of shape 1-55--Cliquet_barillet_Quarts

g Face_1
v 0.22388106965 -0.22648546344999998 -0.1142
v 0.22179146344999995 -0.22544693035 -0.1142
v 0.22075293035 -0.22753653655 -0.1142
v 0.22284253655 -0.22857506965 -0.1142
v 0.22388106965 -0.22648546344999998 -0.1142
v 0.22388106965 -0.22648546344999998 -0.1125
v 0.22388106965 -0.22648546344999998 -0.1125
v 0.22179146344999995 -0.22544693035 -0.1125
v 0.22075293035 -0.22753653655 -0.1125
v 0.22284253655 -0.22857506965 -0.1125
vn -0.947921 -0.318507 -4.3384e-17
vn 0.318507 -0.947921 -4.41251e-16
vn 0.947921 0.318507 4.3384e-17
vn -0.318507 0.947921 4.41251e-16
vn -0.947921 -0.318507 -4.3384e-17
vn -0.947921 -0.318507 -4.3384e-17
vn -0.947921 -0.318507 -4.3384e-17
vn 0.318507 -0.947921 -4.41251e-16
vn 0.947921 0.318507 4.3384e-17
vn -0.318507 0.947921 4.41251e-16
f 4//4 6//6 5//5 
f 4//4 10//10 6//6 
f 3//3 9//9 10//10 
f 3//3 10//10 4//4 
f 2//2 8//8 9//9 
f 2//2 9//9 3//3 
f 1//1 7//7 8//8 
f 1//1 8//8 2//2 

g Face_2
v 0.20371790214073698 -0.233694504474611 -0.11069999999999999
v 0.20599117864826 -0.24046009060078 -0.11069999999999999
v 0.20604309842444 -0.24051853772332 -0.11069999999999999
v 0.20612121485343998 -0.24052182850031997 -0.11069999999999999
v 0.20617779781882 -0.24046793993645998 -0.11069999999999999
v 0.21050968120168997 -0.23430505364507 -0.11069999999999999
v 0.21528727118047997 -0.23194260306133999 -0.11069999999999999
v 0.21947409078632 -0.23151124803165998 -0.11069999999999999
v 0.21669224560381997 -0.22448000822506 -0.11069999999999999
v 0.21032646786102 -0.22791563832106 -0.11069999999999999
vn 9.94171e-17 -4.32089e-16 1
vn 9.94171e-17 -4.32089e-16 1
vn 9.94171e-17 -4.32089e-16 1
vn 9.94171e-17 -4.32089e-16 1
vn 9.94171e-17 -4.32089e-16 1
vn 9.94171e-17 -4.32089e-16 1
vn 9.94171e-17 -4.32089e-16 1
vn 9.94171e-17 -4.32089e-16 1
vn 9.94171e-17 -4.32089e-16 1
vn 9.94171e-17 -4.32089e-16 1
f 15//15 12//12 13//13 
f 15//15 13//13 14//14 
f 11//11 12//12 15//15 
f 16//16 11//11 15//15 
f 20//20 16//16 17//17 
f 20//20 11//11 16//16 
f 19//19 17//17 18//18 
f 19//19 20//20 17//17 

g Face_3
v 0.231207649057577 -0.22445778873433098 -0.1142
v 0.22241181417074998 -0.22327122395284998 -0.1142
v 0.21439579427746 -0.22546522324947998 -0.1142
v 0.20922796109143998 -0.22872724866232 -0.1142
v 0.20371790214073698 -0.233694504474611 -0.1142
v 0.20599117864826 -0.24046009060078 -0.1142
v 0.20617779781882 -0.24046793993645998 -0.1142
v 0.20612121485343998 -0.24052182850031997 -0.1142
v 0.20604309842444 -0.24051853772332 -0.1142
v 0.21075061299534997 -0.23410908946204997 -0.1142
v 0.21575674937614 -0.23184200180741998 -0.1142
v 0.22270268859940298 -0.231105918469599 -0.1142
v 0.22641136688506996 -0.22904672713140997 -0.1142
v 0.22388106965 -0.22648546344999998 -0.1142
v 0.22179146344999995 -0.22544693035 -0.1142
v 0.22075293035 -0.22753653655 -0.1142
v 0.22284253655 -0.22857506965 -0.1142
vn -9.94171e-17 4.32089e-16 -1
vn -9.94171e-17 4.32089e-16 -1
vn -9.94171e-17 4.32089e-16 -1
vn -9.94171e-17 4.32089e-16 -1
vn -9.94171e-17 4.32089e-16 -1
vn -9.94171e-17 4.32089e-16 -1
vn -9.94171e-17 4.32089e-16 -1
vn -9.94171e-17 4.32089e-16 -1
vn -9.94171e-17 4.32089e-16 -1
vn -9.94171e-17 4.32089e-16 -1
vn -9.94171e-17 4.32089e-16 -1
vn -9.94171e-17 4.32089e-16 -1
vn -9.94171e-17 4.32089e-16 -1
vn -9.94171e-17 4.32089e-16 -1
vn -9.94171e-17 4.32089e-16 -1
vn -9.94171e-17 4.32089e-16 -1
vn -9.94171e-17 4.32089e-16 -1
f 27//27 28//28 29//29 
f 27//27 29//29 26//26 
f 25//25 27//27 26//26 
f 30//30 27//27 25//25 
f 24//24 30//30 25//25 
f 31//31 30//30 24//24 
f 23//23 31//31 24//24 
f 36//36 32//32 31//31 
f 36//36 31//31 23//23 
f 37//37 32//32 36//36 
f 33//33 32//32 37//37 
f 34//34 33//33 37//37 
f 35//35 36//36 23//23 
f 22//22 34//34 35//35 
f 22//22 35//35 23//23 
f 21//21 34//34 22//22 
f 21//21 33//33 34//34 

g Face_4
v 0.21947409078632 -0.23151124803165998 -0.1125
v 0.21947409078632 -0.23151124803165998 -0.11069999999999999
v 0.224309255541167 -0.230440353588211 -0.1125
v 0.231207649057577 -0.22445778873433098 -0.11249999999999999
v 0.231207649057577 -0.22445778873433098 -0.1142
v 0.20617779781882 -0.24046793993645998 -0.1142
v 0.21075061299534997 -0.23410908946204997 -0.1142
v 0.21575674937614 -0.23184200180741998 -0.1142
v 0.22270268859940298 -0.231105918469599 -0.1142
v 0.22641136688506996 -0.22904672713140997 -0.1142
v 0.20617779781882 -0.24046793993645998 -0.11069999999999999
v 0.21050968120168997 -0.23430505364507 -0.11069999999999999
v 0.21528727118047997 -0.23194260306133999 -0.11069999999999999
vn 0.0283985 -0.999597 -0
vn 0.0283985 -0.999597 -0
vn 0.468043 -0.883706 -0
vn 0.734519 -0.678589 -0
vn 0.734519 -0.678589 -0
vn 0.917713 -0.397243 -0
vn 0.620671 -0.784071 -0
vn 0.192211 -0.981354 -0
vn 0.285833 -0.958279 -0
vn 0.615976 -0.787765 -0
vn 0.917713 -0.397243 -0
vn 0.641163 -0.767404 -0
vn 0.227129 -0.973865 -0
f 49//49 48//48 43//43 
f 44//44 49//49 43//43 
f 50//50 49//49 44//44 
f 45//45 50//50 44//44 
f 38//38 39//39 50//50 
f 38//38 50//50 45//45 
f 46//46 38//38 45//45 
f 47//47 40//40 46//46 
f 41//41 40//40 47//47 
f 42//42 41//41 47//47 
f 38//38 46//46 40//40 

g Face_5
v 0.20371790214073698 -0.233694504474611 -0.11069999999999999
v 0.20371790214073698 -0.233694504474611 -0.1142
v 0.231207649057577 -0.22445778873433098 -0.1142
v 0.22241181417074998 -0.22327122395284998 -0.1142
v 0.21439579427746 -0.22546522324947998 -0.1142
v 0.20922796109143998 -0.22872724866232 -0.1142
v 0.231207649057577 -0.22445778873433098 -0.11249999999999999
v 0.22362869491648 -0.22323331498343998 -0.1125
v 0.21669224560381997 -0.22448000822506 -0.1125
v 0.21669224560381997 -0.22448000822506 -0.11069999999999999
v 0.21032646786102 -0.22791563832106 -0.11069999999999999
vn -0.717326 0.696738 -0
vn -0.717326 0.696738 -0
vn 0.289207 0.957267 0
vn -0.0612162 0.998125 2.15757e-16
vn -0.441528 0.897248 8.9441e-16
vn -0.608613 0.793467 3.97441e-16
vn 0.289207 0.957267 0
vn -0.0013742 0.999999 4.76977e-18
vn -0.343594 0.939118 9.13043e-16
vn -0.343594 0.939118 9.13043e-16
vn -0.579142 0.815227 5.26004e-16
f 58//58 57//57 53//53 
f 54//54 58//58 53//53 
f 55//55 60//60 59//59 
f 55//55 59//59 54//54 
f 61//61 60//60 55//55 
f 56//56 61//61 55//55 
f 51//51 61//61 56//56 
f 52//52 51//51 56//56 
f 58//58 54//54 59//59 

g Face_6
v 0.20371790214073698 -0.233694504474611 -0.11069999999999999
v 0.20371790214073698 -0.233694504474611 -0.1142
v 0.20599117864826 -0.24046009060078 -0.11069999999999999
v 0.20599117864826 -0.24046009060078 -0.1142
vn -0.947921 -0.318507 -4.3384e-17
vn -0.947921 -0.318507 -4.3384e-17
vn -0.947921 -0.318507 -4.3384e-17
vn -0.947921 -0.318507 -4.3384e-17
f 63//63 64//64 62//62 
f 63//63 65//65 64//64 

g Face_7
v 0.21947409078632 -0.23151124803165998 -0.1125
v 0.224309255541167 -0.230440353588211 -0.1125
v 0.231207649057577 -0.22445778873433098 -0.11249999999999999
v 0.22362869491648 -0.22323331498343998 -0.1125
v 0.21669224560381997 -0.22448000822506 -0.1125
v 0.22388106965 -0.22648546344999998 -0.1125
v 0.22179146344999995 -0.22544693035 -0.1125
v 0.22075293035 -0.22753653655 -0.1125
v 0.22284253655 -0.22857506965 -0.1125
vn 9.94171e-17 -4.32089e-16 1
vn 9.94171e-17 -4.32089e-16 1
vn 9.94171e-17 -4.32089e-16 1
vn 9.94171e-17 -4.32089e-16 1
vn 9.94171e-17 -4.32089e-16 1
vn 9.94171e-17 -4.32089e-16 1
vn 9.94171e-17 -4.32089e-16 1
vn 9.94171e-17 -4.32089e-16 1
vn 9.94171e-17 -4.32089e-16 1
f 74//74 66//66 67//67 
f 74//74 73//73 66//66 
f 70//70 66//66 73//73 
f 71//71 74//74 67//67 
f 72//72 70//70 73//73 
f 69//69 72//72 71//71 
f 69//69 70//70 72//72 
f 68//68 69//69 71//71 
f 68//68 71//71 67//67 

g Face_8
v 0.21947409078632 -0.23151124803165998 -0.1125
v 0.21947409078632 -0.23151124803165998 -0.11069999999999999
v 0.21669224560381997 -0.22448000822506 -0.11069999999999999
v 0.21669224560381997 -0.22448000822506 -0.1125
vn 0.929868 0.367893 6.6518e-17
vn 0.929868 0.367893 6.6518e-17
vn 0.929868 0.367893 6.6518e-17
vn 0.929868 0.367893 6.6518e-17
f 76//76 78//78 77//77 
f 76//76 75//75 78//78 

g Face_9
v 0.20599117864826 -0.24046009060078 -0.11069999999999999
v 0.20604309842444 -0.24051853772332 -0.11069999999999999
v 0.20612121485343998 -0.24052182850031997 -0.11069999999999999
v 0.20617779781882 -0.24046793993645998 -0.11069999999999999
v 0.20599117864826 -0.24046009060078 -0.1142
v 0.20617779781882 -0.24046793993645998 -0.1142
v 0.20612121485343998 -0.24052182850031997 -0.1142
v 0.20604309842444 -0.24051853772332 -0.1142
vn -0.947921 -0.318507 -4.3384e-17
vn -0.429254 -0.903184 -3.47581e-16
vn 0.351628 -0.93614 -4.39454e-16
vn 0.917713 -0.397243 -2.62881e-16
vn -0.947921 -0.318507 -4.3384e-17
vn 0.917713 -0.397243 -2.62881e-16
vn 0.351628 -0.93614 -4.39454e-16
vn -0.429254 -0.903184 -3.47581e-16
f 85//85 81//81 80//80 
f 85//85 82//82 81//81 
f 85//85 84//84 82//82 
f 86//86 85//85 80//80 
f 83//83 80//80 79//79 
f 83//83 86//86 80//80 

