mtllib Goupille_attache_1_instance_1.mtl
usemtl Goupille_attache_1_instance_1
#Wavefront export of shape 1-86-19--Goupille_attache_1

g Face_1
v 0.17471343806 -0.6614015234949999 -0.018480009999999884
v 0.175833544615 -0.6602223867499999 -0.018480009999999887
v 0.17701268135999998 -0.6613424933049998 -0.01848000999999989
v 0.17589257480499998 -0.6625216300499999 -0.018480009999999887
vn -2.81893e-15 -1.97215e-31 -1
vn -2.81893e-15 -1.97215e-31 -1
vn -2.81893e-15 -1.97215e-31 -1
vn -2.81893e-15 -1.97215e-31 -1
f 3//3 1//1 2//2 
f 3//3 4//4 1//1 

g Face_2
v 0.17471343806 -0.6614015234949999 -0.018480009999999884
v 0.175833544615 -0.6602223867499999 -0.018480009999999887
v 0.17701268135999998 -0.6613424933049998 -0.01848000999999989
v 0.17589257480499998 -0.6625216300499999 -0.018480009999999887
v 0.17471343806 -0.6614015234949999 -0.018480009999999884
v 0.17511330645999998 -0.6613912573749999 -0.018080009999999886
v 0.17622126623500928 -0.6607130786042509 -0.01808000999999989
v 0.1762546064349907 -0.6620116892207489 -0.01808000999999989
v 0.17511330645999998 -0.6613912573749999 -0.018080009999999886
vn -0.707107 7.60514e-17 0.707107
vn 2.02603e-15 0.707107 0.707107
vn 0.707107 1.05443e-17 0.707107
vn 2.04712e-15 -0.707107 0.707107
vn -0.707107 -9.71399e-17 0.707107
vn -0.707107 7.60514e-17 0.707107
vn 0.353553 0.612372 0.707107
vn 0.353553 -0.612372 0.707107
vn -0.707107 -9.71399e-17 0.707107
f 6//6 5//5 10//10 
f 6//6 10//10 11//11 
f 7//7 6//6 11//11 
f 12//12 7//7 11//11 
f 8//8 7//7 12//12 
f 13//13 8//8 12//12 
f 9//9 8//8 13//13 

g Face_3
v 0.17511330645999998 -0.6613912573749999 -0.018080009999999886
v 0.17622126623500928 -0.6607130786042509 -0.01808000999999989
v 0.1762546064349907 -0.6620116892207489 -0.01808000999999989
v 0.17511330645999998 -0.6613912573749999 -0.018080009999999886
v 0.17511330646 -0.6613912573749999 -0.009116009999999885
v 0.1762212662350093 -0.6607130786042509 -0.009116009999999888
v 0.17625460643499072 -0.6620116892207489 -0.009116009999999888
v 0.17511330646 -0.6613912573749999 -0.009116009999999885
vn -1 1.07553e-16 2.81893e-15
vn 0.5 0.866025 -1.40946e-15
vn 0.5 -0.866025 -1.40946e-15
vn -1 7.50802e-16 2.81893e-15
vn -1 1.07553e-16 2.81893e-15
vn 0.5 0.866025 -1.40946e-15
vn 0.5 -0.866025 -1.40946e-15
vn -1 7.50802e-16 2.81893e-15
f 15//15 14//14 18//18 
f 15//15 18//18 19//19 
f 16//16 19//19 20//20 
f 16//16 15//15 19//19 
f 17//17 20//20 21//21 
f 17//17 16//16 20//20 

g Face_4
v 0.17511330646 -0.6613912573749999 -0.009116009999999885
v 0.1762212662350093 -0.6607130786042509 -0.009116009999999888
v 0.17625460643499072 -0.6620116892207489 -0.009116009999999888
vn -0.351123 -1.12809e-16 0.936329
vn 0.175561 0.304078 0.936331
vn 0.175561 -0.304078 0.936331
f 24//24 23//23 22//22 

