mtllib Goupille_attache_1.mtl
usemtl Goupille_attache_1
#Wavefront export of shape 1-86-18--Goupille_attache_1

g Face_1
v 0.13272725606000002 -0.662479466095 -0.018480009999999887
v 0.13384736261500002 -0.6613003293499999 -0.01848000999999989
v 0.13502649936 -0.6624204359049999 -0.018480009999999894
v 0.133906392805 -0.6635995726499999 -0.01848000999999989
vn -2.81893e-15 -1.97215e-31 -1
vn -2.81893e-15 -1.97215e-31 -1
vn -2.81893e-15 -1.97215e-31 -1
vn -2.81893e-15 -1.97215e-31 -1
f 3//3 1//1 2//2 
f 3//3 4//4 1//1 

g Face_2
v 0.13272725606000002 -0.662479466095 -0.018480009999999887
v 0.13384736261500002 -0.6613003293499999 -0.01848000999999989
v 0.13502649936 -0.6624204359049999 -0.018480009999999894
v 0.133906392805 -0.6635995726499999 -0.01848000999999989
v 0.13272725606000002 -0.662479466095 -0.018480009999999887
v 0.13312712446 -0.662469199975 -0.01808000999999989
v 0.1342350842350093 -0.6617910212042509 -0.018080009999999893
v 0.1342684244349907 -0.663089631820749 -0.018080009999999893
v 0.13312712446 -0.662469199975 -0.01808000999999989
vn -0.707107 7.60514e-17 0.707107
vn 2.02603e-15 0.707107 0.707107
vn 0.707107 1.05443e-17 0.707107
vn 2.04712e-15 -0.707107 0.707107
vn -0.707107 -9.71399e-17 0.707107
vn -0.707107 7.60514e-17 0.707107
vn 0.353553 0.612372 0.707107
vn 0.353553 -0.612372 0.707107
vn -0.707107 -9.71399e-17 0.707107
f 6//6 5//5 10//10 
f 6//6 10//10 11//11 
f 7//7 6//6 11//11 
f 12//12 7//7 11//11 
f 8//8 7//7 12//12 
f 13//13 8//8 12//12 
f 9//9 8//8 13//13 

g Face_3
v 0.13312712446 -0.662469199975 -0.01808000999999989
v 0.1342350842350093 -0.6617910212042509 -0.018080009999999893
v 0.1342684244349907 -0.663089631820749 -0.018080009999999893
v 0.13312712446 -0.662469199975 -0.01808000999999989
v 0.13312712446000002 -0.662469199975 -0.009116009999999888
v 0.13423508423500932 -0.6617910212042509 -0.009116009999999891
v 0.13426842443499074 -0.663089631820749 -0.009116009999999891
v 0.13312712446000002 -0.662469199975 -0.009116009999999888
vn -1 1.07553e-16 2.81893e-15
vn 0.5 0.866025 -1.40946e-15
vn 0.5 -0.866025 -1.40946e-15
vn -1 7.50802e-16 2.81893e-15
vn -1 1.07553e-16 2.81893e-15
vn 0.5 0.866025 -1.40946e-15
vn 0.5 -0.866025 -1.40946e-15
vn -1 7.50802e-16 2.81893e-15
f 15//15 14//14 18//18 
f 15//15 18//18 19//19 
f 16//16 19//19 20//20 
f 16//16 15//15 19//19 
f 17//17 20//20 21//21 
f 17//17 16//16 20//20 

g Face_4
v 0.13312712446000002 -0.662469199975 -0.009116009999999888
v 0.13423508423500932 -0.6617910212042509 -0.009116009999999891
v 0.13426842443499074 -0.663089631820749 -0.009116009999999891
vn -0.351123 -1.12809e-16 0.936329
vn 0.175561 0.304078 0.936331
vn 0.175561 -0.304078 0.936331
f 24//24 23//23 22//22 

