mtllib Goupille_attache_1_instance_2.mtl
usemtl Goupille_attache_1_instance_2
#Wavefront export of shape 1-86-20--Goupille_attache_1

g Face_1
v 0.181677717215 -0.932662249345 -0.01808000999999995
v 0.18279782377 -0.9314831125999999 -0.018080009999999952
v 0.18397696051499998 -0.9326032191549999 -0.018080009999999955
v 0.18285685395999998 -0.9337823558999999 -0.018080009999999952
vn -2.81893e-15 -1.97215e-31 -1
vn -2.81893e-15 -1.97215e-31 -1
vn -2.81893e-15 -1.97215e-31 -1
vn -2.81893e-15 -1.97215e-31 -1
f 3//3 1//1 2//2 
f 3//3 4//4 1//1 

g Face_2
v 0.181677717215 -0.932662249345 -0.01808000999999995
v 0.18279782377 -0.9314831125999999 -0.018080009999999952
v 0.18397696051499998 -0.9326032191549999 -0.018080009999999955
v 0.18285685395999998 -0.9337823558999999 -0.018080009999999952
v 0.181677717215 -0.932662249345 -0.01808000999999995
v 0.18207758561499998 -0.932651983225 -0.01768000999999995
v 0.18318554539000928 -0.9319738044542509 -0.017680009999999954
v 0.1832188855899907 -0.933272415070749 -0.017680009999999954
v 0.18207758561499998 -0.932651983225 -0.01768000999999995
vn -0.707107 7.60514e-17 0.707107
vn 2.02603e-15 0.707107 0.707107
vn 0.707107 1.05443e-17 0.707107
vn 2.04712e-15 -0.707107 0.707107
vn -0.707107 -9.71399e-17 0.707107
vn -0.707107 7.60514e-17 0.707107
vn 0.353553 0.612372 0.707107
vn 0.353553 -0.612372 0.707107
vn -0.707107 -9.71399e-17 0.707107
f 6//6 5//5 10//10 
f 6//6 10//10 11//11 
f 7//7 6//6 11//11 
f 12//12 7//7 11//11 
f 8//8 7//7 12//12 
f 13//13 8//8 12//12 
f 9//9 8//8 13//13 

g Face_3
v 0.18207758561499998 -0.932651983225 -0.01768000999999995
v 0.18318554539000928 -0.9319738044542509 -0.017680009999999954
v 0.1832188855899907 -0.933272415070749 -0.017680009999999954
v 0.18207758561499998 -0.932651983225 -0.01768000999999995
v 0.182077585615 -0.932651983225 -0.00871600999999995
v 0.1831855453900093 -0.9319738044542509 -0.008716009999999953
v 0.18321888558999072 -0.933272415070749 -0.008716009999999953
v 0.182077585615 -0.932651983225 -0.00871600999999995
vn -1 1.07553e-16 2.81893e-15
vn 0.5 0.866025 -1.40946e-15
vn 0.5 -0.866025 -1.40946e-15
vn -1 7.50802e-16 2.81893e-15
vn -1 1.07553e-16 2.81893e-15
vn 0.5 0.866025 -1.40946e-15
vn 0.5 -0.866025 -1.40946e-15
vn -1 7.50802e-16 2.81893e-15
f 15//15 14//14 18//18 
f 15//15 18//18 19//19 
f 16//16 19//19 20//20 
f 16//16 15//15 19//19 
f 17//17 20//20 21//21 
f 17//17 16//16 20//20 

g Face_4
v 0.182077585615 -0.932651983225 -0.00871600999999995
v 0.1831855453900093 -0.9319738044542509 -0.008716009999999953
v 0.18321888558999072 -0.933272415070749 -0.008716009999999953
vn -0.351123 -1.12809e-16 0.936329
vn 0.175561 0.304078 0.936331
vn 0.175561 -0.304078 0.936331
f 24//24 23//23 22//22 

