mtllib Goupille_barillet.mtl
usemtl Goupille_barillet
#Wavefront export of shape 1-14--Goupille_barillet

g Face_1
v 0.130549 -0.226173 -0.12545
v 0.13069675500000003 -0.22493176375 -0.1267
v 0.130549 -0.226173 -0.12795
v 0.13040124500000003 -0.22741423625 -0.1267
vn -0.992989 0.118204 -2.10394e-15
vn -0.992989 0.118204 -2.10394e-15
vn -0.992989 0.118204 -2.10394e-15
vn -0.992989 0.118204 -2.10394e-15
f 2//2 3//3 4//4 
f 2//2 4//4 1//1 

g Face_2
v 0.130549 -0.226173 -0.12545
v 0.13069675500000003 -0.22493176375 -0.1267
v 0.130549 -0.226173 -0.12795
v 0.13040124500000003 -0.22741423625 -0.1267
v 0.130549 -0.226173 -0.12545
v 0.144450846 -0.227827856 -0.12544999999999998
v 0.144598601 -0.22658661975000002 -0.12669999999999998
v 0.144450846 -0.227827856 -0.12794999999999998
v 0.144303091 -0.22906909225000002 -0.12669999999999998
v 0.144450846 -0.227827856 -0.12544999999999998
vn -2.13371e-15 -1.25334e-16 1
vn 0.118204 0.992989 6.59946e-16
vn 2.20068e-15 6.87916e-16 -1
vn -0.118204 -0.992989 -5.60366e-16
vn -2.26765e-15 -1.2505e-15 1
vn -2.13371e-15 -1.25334e-16 1
vn 0.118204 0.992989 6.59946e-16
vn 2.20068e-15 6.87916e-16 -1
vn -0.118204 -0.992989 -5.60366e-16
vn -2.26765e-15 -1.2505e-15 1
f 6//6 5//5 10//10 
f 6//6 10//10 11//11 
f 7//7 11//11 12//12 
f 7//7 6//6 11//11 
f 8//8 12//12 13//13 
f 8//8 7//7 12//12 
f 9//9 13//13 14//14 
f 9//9 8//8 13//13 

g Face_3
v 0.144450846 -0.227827856 -0.12544999999999998
v 0.144598601 -0.22658661975000002 -0.12669999999999998
v 0.144450846 -0.227827856 -0.12794999999999998
v 0.144303091 -0.22906909225000002 -0.12669999999999998
vn 0.992989 -0.118204 2.10394e-15
vn 0.992989 -0.118204 2.10394e-15
vn 0.992989 -0.118204 2.10394e-15
vn 0.992989 -0.118204 2.10394e-15
f 15//15 17//17 16//16 
f 15//15 18//18 17//17 

