mtllib Goupille_Pied_roue_intermediaire_quantieme_-_axe.mtl
usemtl Goupille_Pied_roue_intermediaire_quantieme_-_axe
#Wavefront export of shape 1-12-10-5--Goupille_Pied_roue_intermediaire_quantieme_-_axe

g Face_1
v 0.18225 -0.13725 0.0010000000000000083
v 0.1815 -0.13725 0.0014330130000000084
v 0.1815 -0.13725 0.0005669870000000084
v 0.18225 -0.13725 0.0010000000000000083
v 0.18225 -0.12875 0.0010000000000000072
v 0.1815 -0.12875 0.0014330130000000073
v 0.1815 -0.12875 0.0005669870000000074
v 0.18225 -0.12875 0.0010000000000000072
vn 1 2.22045e-16 1.45349e-16
vn -0.5 -4.96478e-18 0.866025
vn -0.5 -2.1708e-16 -0.866025
vn 1 2.22045e-16 -9.95799e-17
vn 1 2.22045e-16 1.45349e-16
vn -0.5 -4.96478e-18 0.866025
vn -0.5 -2.1708e-16 -0.866025
vn 1 2.22045e-16 -9.95799e-17
f 7//7 4//4 3//3 
f 7//7 8//8 4//4 
f 6//6 3//3 2//2 
f 6//6 7//7 3//3 
f 5//5 2//2 1//1 
f 5//5 6//6 2//2 

g Face_2
v 0.18225 -0.13725 0.0010000000000000083
v 0.1815 -0.13725 0.0014330130000000084
v 0.1815 -0.13725 0.0005669870000000084
vn 2.22045e-16 -1 1.22465e-16
vn 2.22045e-16 -1 1.22465e-16
vn 2.22045e-16 -1 1.22465e-16
f 9//9 10//10 11//11 

g Face_3
v 0.18225 -0.12875 0.0010000000000000072
v 0.1815 -0.12875 0.0014330130000000073
v 0.1815 -0.12875 0.0005669870000000074
vn -2.22045e-16 1 -1.22465e-16
vn -2.22045e-16 1 -1.22465e-16
vn -2.22045e-16 1 -1.22465e-16
f 12//12 14//14 13//13 

