mtllib Grande_tige_balancier.mtl
usemtl Grande_tige_balancier
#Wavefront export of shape 1-86-3--Grande_tige_balancier

g Face_1
v 0.17364844708000002 -1.3290490573549998 -0.01388001000000004
v 0.17199898993 -1.3290914050999998 -0.01223001000000004
v 0.17034953278 -1.3291337528449998 -0.01388001000000004
v 0.17199898993 -1.3290914050999998 -0.01553001000000004
vn -1.26561e-32 -1 -0
vn -1.26561e-32 -1 -0
vn -1.26561e-32 -1 -0
vn -1.26561e-32 -1 -0
f 4//4 1//1 2//2 
f 4//4 2//2 3//3 

g Face_2
v 0.17398934907500002 -1.3286901896499999 -0.01388001000000004
v 0.17298967807500001 -1.3287158549499998 -0.01561206000000004
v 0.170990336075 -1.3287671855499998 -0.01561206000000004
v 0.16999066507500002 -1.3287928508499998 -0.01388001000000004
v 0.14661855963 -0.41844245469999974 -0.013880009999999835
v 0.14800007096318601 -0.41840698612801996 -0.015782119999999834
v 0.15023539929813 -0.4183495968746408 -0.015055579999999834
v 0.15023539929813 -0.4183495968746408 -0.012704439999999833
v 0.14800007096318601 -0.41840698612801996 -0.011977899999999833
v 0.14661855963 -0.41844245469999974 -0.013880009999999835
v 0.16999066507500002 -1.3287928508499998 -0.01388001000000004
v 0.170990336075 -1.3287671855499998 -0.01214796000000004
v 0.17298967807500001 -1.3287158549499998 -0.01214796000000004
vn 1 -1.26561e-32 -6.69535e-17
vn 0.5 -6.32803e-33 -0.866025
vn -0.5 6.32803e-33 -0.866025
vn -1 1.26561e-32 -5.55112e-17
vn -1 1.26561e-32 -5.55112e-17
vn -0.309017 3.91094e-33 -0.951057
vn 0.809017 -1.0239e-32 -0.587785
vn 0.809017 -1.0239e-32 0.587785
vn -0.309017 3.91094e-33 0.951057
vn -1 1.26561e-32 1.89418e-16
vn -1 1.26561e-32 1.89418e-16
vn -0.5 6.32803e-33 0.866025
vn 0.5 -6.32803e-33 0.866025
f 7//7 8//8 9//9 
f 7//7 9//9 10//10 
f 6//6 10//10 11//11 
f 6//6 7//7 10//10 
f 5//5 11//11 12//12 
f 5//5 6//6 11//11 
f 17//17 12//12 13//13 
f 17//17 5//5 12//12 
f 16//16 13//13 14//14 
f 16//16 17//17 13//13 
f 15//15 16//16 14//14 

g Face_3
v 0.14661855963 -0.41844245469999974 -0.013880009999999835
v 0.14800007096318601 -0.41840698612801996 -0.015782119999999834
v 0.15023539929813 -0.4183495968746408 -0.015055579999999834
v 0.15023539929813 -0.4183495968746408 -0.012704439999999833
v 0.14800007096318601 -0.41840698612801996 -0.011977899999999833
v 0.14661855963 -0.41844245469999974 -0.013880009999999835
v 0.14738724293000002 -0.4094197503999998 -0.013880009999999832
v 0.14700290128000001 -0.4139311025499999 -0.013880009999999833
v 0.14888674943000002 -0.4093812524499998 -0.014746034999999831
v 0.14888674943000002 -0.4093812524499998 -0.013013984999999832
v 0.14788707843 -0.4094069177499997 -0.013013984999999832
v 0.14738724293000002 -0.4094197503999998 -0.013880009999999832
v 0.14700290128000001 -0.4139311025499999 -0.013880009999999833
v 0.14910989092957402 -0.4139350273671316 -0.012500869999999832
v 0.149138553120223 -0.4139753050282109 -0.012508349999999833
v 0.14859032968001 -0.4151387590610769 -0.012242399999999834
v 0.147822005760282 -0.4141061377342672 -0.012521379999999834
v 0.149138553120223 -0.4139753050282109 -0.015251659999999834
v 0.147836859311962 -0.41407374583036327 -0.015242589999999834
v 0.1485704981804673 -0.4151402685398964 -0.015518339999999834
v 0.14925216103000002 -0.41387335562499983 -0.015179049999999833
v 0.14925216103000002 -0.41387335562499983 -0.012580969999999834
vn -0.993884 0.110432 -5.51716e-17
vn -0.307127 0.110432 -0.94524
vn 0.804069 0.110432 -0.58419
vn 0.804069 0.110432 0.58419
vn -0.307127 0.110432 0.94524
vn -0.993884 0.110432 -6.94486e-16
vn -0.993884 0.110432 -5.51716e-17
vn -0.993884 0.110432 -5.51716e-17
vn 0.496942 0.110432 -0.860729
vn 0.496942 0.110432 0.860729
vn -0.496942 0.110432 0.860729
vn -0.993884 0.110432 -6.94486e-16
vn -0.993884 0.110432 -6.94486e-16
vn 0.399928 0.110432 0.90987
vn 0.41689 0.110432 0.902224
vn 0.0339121 0.110432 0.993305
vn -0.447791 0.110432 0.887293
vn 0.4169 0.110432 -0.902219
vn -0.438546 0.110432 -0.891898
vn 0.021862 0.110432 -0.993643
vn 0.496942 0.110432 -0.860729
vn 0.496942 0.110432 0.860729
f 36//36 25//25 24//24 
f 36//36 24//24 26//26 
f 37//37 25//25 36//36 
f 18//18 25//25 37//37 
f 19//19 18//18 37//37 
f 34//34 31//31 28//28 
f 20//20 19//19 37//37 
f 20//20 37//37 33//33 
f 30//30 28//28 29//29 
f 30//30 33//33 34//34 
f 30//30 34//34 28//28 
f 21//21 20//20 33//33 
f 22//22 21//21 33//33 
f 23//23 33//33 30//30 
f 23//23 22//22 33//33 
f 38//38 35//35 36//36 
f 38//38 37//37 35//35 
f 38//38 36//36 26//26 
f 38//38 33//33 37//37 
f 39//39 26//26 27//27 
f 39//39 27//27 28//28 
f 39//39 31//31 32//32 
f 39//39 32//32 33//33 
f 39//39 33//33 38//38 
f 39//39 28//28 31//31 
f 39//39 38//38 26//26 

g Face_4
v 0.14738724293000002 -0.4094197503999998 -0.013880009999999832
v 0.14888674943000002 -0.4093812524499998 -0.014746034999999831
v 0.14888674943000002 -0.4093812524499998 -0.013013984999999832
vn 1.26561e-32 1 -0
vn 1.26561e-32 1 -0
vn 1.26561e-32 1 -0
f 40//40 42//42 41//41 

g Face_5
v 0.17398934907500002 -1.3286901896499999 -0.01388001000000004
v 0.17298967807500001 -1.3287158549499998 -0.01561206000000004
v 0.170990336075 -1.3287671855499998 -0.01561206000000004
v 0.16999066507500002 -1.3287928508499998 -0.01388001000000004
v 0.17364844708000002 -1.3290490573549998 -0.01388001000000004
v 0.17364844708000002 -1.3290490573549998 -0.01388001000000004
v 0.17199898993 -1.3290914050999998 -0.01223001000000004
v 0.17034953278 -1.3291337528449998 -0.01388001000000004
v 0.17199898993 -1.3290914050999998 -0.01553001000000004
v 0.17398934907500002 -1.3286901896499999 -0.01388001000000004
v 0.170990336075 -1.3287671855499998 -0.01214796000000004
v 0.17298967807500001 -1.3287158549499998 -0.01214796000000004
vn 0.707107 -0.707107 3.92523e-17
vn 0.353553 -0.707107 -0.612372
vn -0.353553 -0.707107 -0.612372
vn -0.707107 -0.707107 1.88171e-16
vn 0.707107 -0.707107 3.92523e-17
vn 0.707107 -0.707107 -4.15593e-16
vn -1.69146e-16 -0.707107 0.707107
vn -0.707107 -0.707107 1.88171e-16
vn -7.44591e-17 -0.707107 -0.707107
vn 0.707107 -0.707107 -4.15593e-16
vn -0.353553 -0.707107 0.612372
vn 0.353553 -0.707107 0.612372
f 44//44 43//43 47//47 
f 51//51 44//44 47//47 
f 45//45 44//44 51//51 
f 50//50 45//45 51//51 
f 46//46 45//45 50//50 
f 53//53 46//46 50//50 
f 49//49 53//53 50//50 
f 54//54 53//53 49//49 
f 48//48 54//54 49//49 
f 52//52 54//54 48//48 

g Face_6
v 0.149138553120223 -0.4139753050282109 -0.015251659999999834
v 0.147836859311962 -0.41407374583036327 -0.015242589999999834
v 0.1485704981804673 -0.4151402685398964 -0.015518339999999834
v 0.149138553120223 -0.4139753050282109 -0.015251659999999834
v 0.149138553120223 -0.4139753050282109 -0.012508349999999833
v 0.14859032968001 -0.4151387590610769 -0.012242399999999834
v 0.147822005760282 -0.4141061377342672 -0.012521379999999834
v 0.14910989092957402 -0.4139350273671316 -0.012500869999999832
v 0.149138553120223 -0.4139753050282109 -0.012508349999999833
vn -0.845084 -0.534634 -1.18713e-16
vn 0.893806 -0.448455 -9.95769e-17
vn -0.048065 0.998844 2.21788e-16
vn -0.845084 -0.534634 -1.18713e-16
vn -0.845084 -0.534634 -1.18713e-16
vn -0.0745532 0.997217 2.21427e-16
vn 0.914267 -0.405112 -8.9953e-17
vn -0.808258 -0.588828 -1.30746e-16
vn -0.845084 -0.534634 -1.18713e-16
f 58//58 60//60 59//59 
f 57//57 61//61 60//60 
f 57//57 60//60 58//58 
f 56//56 62//62 61//61 
f 56//56 61//61 57//57 
f 55//55 63//63 62//62 
f 55//55 62//62 56//56 

