mtllib Guide_cremaillere_-_plaque_Heures.mtl
usemtl Guide_cremaillere_-_plaque_Heures
#Wavefront export of shape 1-8-11-2--Guide_cremaillere_-_plaque_Heures

g Face_1
v 0.046487200000000006 -0.14679757999999998 -0.02482488
v 0.046487200000000006 -0.15320242 -0.02482488
v 0.0468032 -0.15319026 -0.022850000000000002
v 0.0468032 -0.14680974 -0.022850000000000002
vn 0.987441 -0 -0.157991
vn 0.987441 -0 -0.157991
vn 0.987441 -0 -0.157991
vn 0.987441 -0 -0.157991
f 4//4 2//2 1//1 
f 4//4 3//3 2//2 

g Face_2
v 0.04599350000000001 -0.14677859999999998 -0.02474589
v 0.04599350000000001 -0.1532214 -0.02474589
v 0.046487200000000006 -0.14679757999999998 -0.02482488
v 0.046487200000000006 -0.15320242 -0.02482488
vn -0.157991 0 -0.987441
vn -0.157991 0 -0.987441
vn -0.157991 0 -0.987441
vn -0.157991 0 -0.987441
f 5//5 7//7 8//8 
f 5//5 8//8 6//6 

g Face_3
v 0.04599350000000001 -0.1532214 -0.02474589
v 0.0463364 -0.15320822 -0.022602603
v 0.0463364 -0.14679177999999998 -0.022602603
v 0.04599350000000001 -0.14677859999999998 -0.02474589
vn -0.987441 0 0.157991
vn -0.987441 0 0.157991
vn -0.987441 0 0.157991
vn -0.987441 0 0.157991
f 11//11 9//9 10//10 
f 11//11 12//12 9//9 

g Face_4
v 0.09725 -0.14875 -0.02235
v 0.0466326 -0.14680318 -0.02235
v 0.0466326 -0.15319681999999998 -0.02235
v 0.09725 -0.15125 -0.02235
v 0.058750000000000004 -0.15 -0.02235
v 0.05725 -0.1485 -0.02235
v 0.05575 -0.15 -0.02235
v 0.05725 -0.1515 -0.02235
vn -4.34735e-17 0 1
vn -4.34735e-17 0 1
vn -4.34735e-17 0 1
vn -4.34735e-17 0 1
vn -4.34735e-17 0 1
vn -4.34735e-17 0 1
vn -4.34735e-17 0 1
vn -4.34735e-17 0 1
f 19//19 14//14 15//15 
f 20//20 19//19 15//15 
f 18//18 14//14 19//19 
f 16//16 17//17 20//20 
f 16//16 20//20 15//15 
f 13//13 18//18 17//17 
f 13//13 17//17 16//16 
f 13//13 14//14 18//18 

g Face_5
v 0.09725 -0.14875 -0.02285
v 0.09725 -0.15125 -0.022850000000000002
v 0.09725 -0.14875 -0.02235
v 0.09725 -0.15125 -0.02235
vn 1 -0 0
vn 1 -0 0
vn 1 -0 0
vn 1 -0 0
f 21//21 23//23 24//24 
f 21//21 24//24 22//22 

g Face_6
v 0.0468032 -0.14680974 -0.022850000000000002
v 0.0468032 -0.15319026 -0.022850000000000002
v 0.09725 -0.15125 -0.022850000000000002
v 0.09725 -0.14875 -0.02285
v 0.058750000000000004 -0.15 -0.022850000000000002
v 0.05725 -0.1485 -0.022850000000000002
v 0.05575 -0.15 -0.022850000000000002
v 0.05725 -0.1515 -0.022850000000000002
vn 4.34735e-17 -0 -1
vn 4.34735e-17 -0 -1
vn 4.34735e-17 -0 -1
vn 4.34735e-17 -0 -1
vn 4.34735e-17 -0 -1
vn 4.34735e-17 -0 -1
vn 4.34735e-17 -0 -1
vn 4.34735e-17 -0 -1
f 31//31 26//26 25//25 
f 32//32 26//26 31//31 
f 30//30 31//31 25//25 
f 27//27 32//32 29//29 
f 27//27 26//26 32//32 
f 28//28 29//29 30//30 
f 28//28 27//27 29//29 
f 28//28 30//30 25//25 

g Face_7
v 0.058750000000000004 -0.15 -0.02235
v 0.05725 -0.1485 -0.02235
v 0.05575 -0.15 -0.02235
v 0.05725 -0.1515 -0.02235
v 0.058750000000000004 -0.15 -0.02235
v 0.058750000000000004 -0.15 -0.022850000000000002
v 0.05725 -0.1485 -0.022850000000000002
v 0.05575 -0.15 -0.022850000000000002
v 0.05725 -0.1515 -0.022850000000000002
v 0.058750000000000004 -0.15 -0.022850000000000002
vn -1 -0 -0
vn -6.12323e-17 -1 0
vn 1 -1.22465e-16 -0
vn 1.83697e-16 1 -0
vn -1 2.44929e-16 -0
vn -1 -0 -0
vn -6.12323e-17 -1 0
vn 1 -1.22465e-16 -0
vn 1.83697e-16 1 -0
vn -1 2.44929e-16 -0
f 34//34 38//38 33//33 
f 34//34 39//39 38//38 
f 35//35 40//40 39//39 
f 35//35 39//39 34//34 
f 36//36 41//41 40//40 
f 36//36 40//40 35//35 
f 37//37 42//42 41//41 
f 37//37 41//41 36//36 

g Face_8
v 0.0466326 -0.15319681999999998 -0.02235
v 0.09725 -0.15125 -0.02235
v 0.0463364 -0.15320822 -0.022602603
v 0.04599350000000001 -0.1532214 -0.02474589
v 0.046487200000000006 -0.15320242 -0.02482488
v 0.0468032 -0.15319026 -0.022850000000000002
v 0.09725 -0.15125 -0.022850000000000002
vn 0.0384331 -0.999261 0
vn 0.0384331 -0.999261 0
vn 0.0384331 -0.999261 0
vn 0.0384331 -0.999261 0
vn 0.0384331 -0.999261 0
vn 0.0384331 -0.999261 0
vn 0.0384331 -0.999261 0
f 48//48 45//45 46//46 
f 48//48 46//46 47//47 
f 43//43 45//45 48//48 
f 44//44 48//48 49//49 
f 44//44 43//43 48//48 

g Face_9
v 0.0463364 -0.14679177999999998 -0.022602603
v 0.04599350000000001 -0.14677859999999998 -0.02474589
v 0.0466326 -0.14680318 -0.02235
v 0.09725 -0.14875 -0.02235
v 0.09725 -0.14875 -0.02285
v 0.0468032 -0.14680974 -0.022850000000000002
v 0.046487200000000006 -0.14679757999999998 -0.02482488
vn 0.0384331 0.999261 -0
vn 0.0384331 0.999261 -0
vn 0.0384331 0.999261 -0
vn 0.0384331 0.999261 -0
vn 0.0384331 0.999261 -0
vn 0.0384331 0.999261 -0
vn 0.0384331 0.999261 -0
f 55//55 53//53 54//54 
f 55//55 56//56 51//51 
f 52//52 53//53 55//55 
f 50//50 55//55 51//51 
f 50//50 52//52 55//55 

g Face_10
v 0.0463364 -0.14679177999999998 -0.022602603
v 0.0466326 -0.14680318 -0.02235
v 0.0463364 -0.15320822 -0.022602603
v 0.0466326 -0.15319681999999998 -0.02235
vn -0.987441 0 0.157991
vn 1.22465e-16 0 1
vn -0.987441 0 0.157991
vn 1.22465e-16 0 1
f 59//59 58//58 57//57 
f 59//59 60//60 58//58 

