mtllib Loquet_porte_-_plaque_instance_1.mtl
usemtl Loquet_porte_-_plaque_instance_1
#Wavefront export of shape 1-1-37-2--Loquet_porte_-_plaque

g Face_1
v 0.005693452659459999 -0.15967971 -0.046232226200460004
v 0.0055729615 -0.16 -0.052209832500000004
v 0.0055640104583921 -0.15751312 -0.052653896636677106
v 0.0055640104583921 -0.15498688 -0.052653896636677106
v 0.0055729615 -0.1525 -0.052209832500000004
v 0.005693452659459999 -0.15282029 -0.046232226200460004
v 0.00566365 -0.15625 -0.047710746000000005
v 0.00564853525 -0.15754904 -0.04846059375
v 0.00561830575 -0.15754904 -0.049960289250000005
v 0.005603191 -0.15625 -0.050710137
v 0.00561830575 -0.15495096 -0.049960289250000005
v 0.00564853525 -0.15495096 -0.04846059375
vn -1 -6.01853e-36 1.25934e-16
vn -1 -6.01853e-36 1.25934e-16
vn -1 -6.01853e-36 1.25934e-16
vn -1 -6.01853e-36 1.25934e-16
vn -1 -6.01853e-36 1.25934e-16
vn -1 -6.01853e-36 1.25934e-16
vn -1 -6.01853e-36 1.25934e-16
vn -1 -6.01853e-36 1.25934e-16
vn -1 -6.01853e-36 1.25934e-16
vn -1 -6.01853e-36 1.25934e-16
vn -1 -6.01853e-36 1.25934e-16
vn -1 -6.01853e-36 1.25934e-16
f 7//7 8//8 1//1 
f 2//2 1//1 8//8 
f 9//9 2//2 8//8 
f 6//6 7//7 1//1 
f 12//12 7//7 6//6 
f 3//3 9//9 10//10 
f 3//3 2//2 9//9 
f 4//4 10//10 11//11 
f 4//4 3//3 10//10 
f 5//5 11//11 12//12 
f 5//5 12//12 6//6 
f 5//5 4//4 11//11 

g Face_2
v 0.0072931278594600005 -0.15967971 -0.04626447100046
v 0.0071726367 -0.16 -0.0522420773
v 0.0072931278594600005 -0.15282029 -0.04626447100046
v 0.0071726367 -0.1525 -0.0522420773
v 0.0071636856583921 -0.15751312 -0.0526861414366771
v 0.0071636856583921 -0.15498688 -0.0526861414366771
v 0.0072633252 -0.15625 -0.0477429908
v 0.0072330957 -0.15775 -0.049242686300000005
v 0.0072028662 -0.15625 -0.0507423818
v 0.0072330957 -0.15475 -0.049242686300000005
vn 1 6.01853e-36 -1.37346e-16
vn 1 6.01853e-36 -1.37346e-16
vn 1 6.01853e-36 -1.37346e-16
vn 1 6.01853e-36 -1.37346e-16
vn 1 6.01853e-36 -1.37346e-16
vn 1 6.01853e-36 -1.37346e-16
vn 1 6.01853e-36 -1.37346e-16
vn 1 6.01853e-36 -1.37346e-16
vn 1 6.01853e-36 -1.37346e-16
vn 1 6.01853e-36 -1.37346e-16
f 20//20 14//14 17//17 
f 21//21 17//17 18//18 
f 21//21 20//20 17//17 
f 13//13 14//14 20//20 
f 22//22 18//18 16//16 
f 22//22 21//21 18//18 
f 19//19 13//13 20//20 
f 15//15 19//19 22//22 
f 15//15 22//22 16//16 
f 15//15 13//13 19//19 

g Face_3
v 0.00698404498553 -0.15307428 -0.04151629729877
v 0.00698404498553 -0.15942572 -0.04151629729877
v 0.005693452659459999 -0.15282029 -0.046232226200460004
v 0.005693452659459999 -0.15967971 -0.046232226200460004
vn -0.880471 -2.79224e-34 0.4741
vn -0.880471 -2.79224e-34 0.4741
vn -1 -6.01853e-36 2.48399e-16
vn -1 -6.01853e-36 2.48399e-16
f 26//26 24//24 23//23 
f 26//26 23//23 25//25 

g Face_4
v 0.00698404498553 -0.15942572 -0.04151629729877
v 0.012247230728730001 -0.15892088 -0.032196772677770005
v 0.00698404498553 -0.15307428 -0.04151629729877
v 0.012247230728730001 -0.15357912 -0.032196772677770005
vn -0.880471 -2.79224e-34 0.4741
vn -0.880471 -2.79224e-34 0.4741
vn -0.880471 -2.79224e-34 0.4741
vn -0.880471 -2.79224e-34 0.4741
f 29//29 27//27 28//28 
f 29//29 28//28 30//30 

g Face_5
v 0.012247230728730001 -0.15892088 -0.032196772677770005
v 0.013323541031390001 -0.15876714 -0.029347984725510003
v 0.012247230728730001 -0.15357912 -0.032196772677770005
v 0.013323541031390001 -0.15373286 -0.029347984725510003
vn -0.880471 -2.79224e-34 0.4741
vn -0.982339 -1.14022e-34 0.187112
vn -0.880471 -2.79224e-34 0.4741
vn -0.982339 -1.14022e-34 0.187112
f 32//32 33//33 31//31 
f 32//32 34//34 33//33 

g Face_6
v 0.013323541031390001 -0.15876714 -0.029347984725510003
v 0.0173219738256 -0.15775 -0.010438122934399996
v 0.013323541031390001 -0.15373286 -0.029347984725510003
v 0.0173219738256 -0.15475 -0.010438122934399996
v 0.017427231 -0.15625 -0.009940143000000005
vn -0.982339 -1.14022e-34 0.187112
vn -0.982339 -1.14022e-34 0.187112
vn -0.982339 -1.14022e-34 0.187112
vn -0.982339 -1.14022e-34 0.187112
vn -0.982339 -1.14022e-34 0.187112
f 38//38 36//36 39//39 
f 37//37 35//35 36//36 
f 37//37 36//36 38//38 

g Face_7
v 0.0179515459965 -0.15775 -0.010450813278499997
v 0.01488895895192 -0.15875426 -0.029139090142880002
v 0.0179515459965 -0.15475 -0.010450813278499997
v 0.0180332079617 -0.15625 -0.009952357733300006
v 0.01488895895192 -0.15374574 -0.029139090142880002
vn 0.989895 8.78864e-35 -0.141799
vn 0.989895 8.78864e-35 -0.141799
vn 0.989895 8.78864e-35 -0.141799
vn 0.989895 8.78864e-35 -0.141799
vn 0.989895 8.78864e-35 -0.141799
f 42//42 40//40 41//41 
f 42//42 43//43 40//40 
f 42//42 41//41 44//44 

g Face_8
v 0.01360547189842 -0.15354602 -0.03284207642278
v 0.01360547189842 -0.15895398 -0.03284207642278
v 0.01488895895192 -0.15374574 -0.029139090142880002
v 0.01488895895192 -0.15875426 -0.029139090142880002
vn 0.884804 2.74549e-34 -0.465963
vn 0.884804 2.74549e-34 -0.465963
vn 0.989895 8.78864e-35 -0.141799
vn 0.989895 8.78864e-35 -0.141799
f 48//48 46//46 45//45 
f 48//48 45//45 47//47 

g Face_9
v 0.01360547189842 -0.15895398 -0.03284207642278
v 0.00833946188075 -0.15947002 -0.04237068660915
v 0.01360547189842 -0.15354602 -0.03284207642278
v 0.00833946188075 -0.15302998 -0.04237068660915
vn 0.884804 2.74549e-34 -0.465963
vn 0.884804 2.74549e-34 -0.465963
vn 0.884804 2.74549e-34 -0.465963
vn 0.884804 2.74549e-34 -0.465963
f 51//51 49//49 50//50 
f 51//51 50//50 52//52 

g Face_10
v 0.00833946188075 -0.15947002 -0.04237068660915
v 0.0072931278594600005 -0.15967971 -0.04626447100046
v 0.00833946188075 -0.15302998 -0.04237068660915
v 0.0072931278594600005 -0.15282029 -0.04626447100046
vn 0.884804 2.74549e-34 -0.465963
vn 1 6.01853e-36 -2.48399e-16
vn 0.884804 2.74549e-34 -0.465963
vn 1 6.01853e-36 -2.48399e-16
f 54//54 55//55 53//53 
f 54//54 56//56 55//55 

g Face_11
v 0.005603191 -0.15625 -0.050710137
v 0.00561830575 -0.15495096 -0.049960289250000005
v 0.00564853525 -0.15495096 -0.04846059375
v 0.00566365 -0.15625 -0.047710746000000005
v 0.0072633252 -0.15625 -0.0477429908
v 0.0072633252 -0.15625 -0.0477429908
v 0.0072330957 -0.15775 -0.049242686300000005
v 0.0072028662 -0.15625 -0.0507423818
v 0.0072330957 -0.15475 -0.049242686300000005
v 0.00566365 -0.15625 -0.047710746000000005
v 0.00564853525 -0.15754904 -0.04846059375
v 0.00561830575 -0.15754904 -0.049960289250000005
vn 3.46945e-18 -1.22465e-16 1
vn 1.73472e-18 -0.866025 0.5
vn -1.73472e-18 -0.866025 -0.5
vn -3.46945e-18 5.77779e-34 -1
vn -3.46945e-18 5.77779e-34 -1
vn -3.46945e-18 2.44929e-16 -1
vn 6.31309e-34 1 1.83697e-16
vn 3.46945e-18 -1.22465e-16 1
vn -2.06424e-34 -1 -6.12323e-17
vn -3.46945e-18 2.44929e-16 -1
vn -1.73472e-18 0.866025 -0.5
vn 1.73472e-18 0.866025 0.5
f 59//59 61//61 60//60 
f 59//59 65//65 61//61 
f 58//58 64//64 65//65 
f 58//58 65//65 59//59 
f 57//57 64//64 58//58 
f 68//68 63//63 64//64 
f 68//68 64//64 57//57 
f 67//67 62//62 63//63 
f 67//67 63//63 68//68 
f 66//66 62//62 67//67 

g Face_12
v 0.0179515459965 -0.15775 -0.010450813278499997
v 0.0173219738256 -0.15775 -0.010438122934399996
v 0.0179515459965 -0.15475 -0.010450813278499997
v 0.0180332079617 -0.15625 -0.009952357733300006
v 0.0173219738256 -0.15475 -0.010438122934399996
v 0.017427231 -0.15625 -0.009940143000000005
vn 2.77556e-18 -0.6 0.8
vn 2.77556e-18 -0.6 0.8
vn 2.77556e-18 0.6 0.8
vn 3.46945e-18 -2.44929e-16 1
vn 2.77556e-18 0.6 0.8
vn 3.46945e-18 -1.13311e-15 1
f 74//74 70//70 69//69 
f 74//74 72//72 71//71 
f 74//74 69//69 72//72 
f 73//73 74//74 71//71 

g Face_13
v 0.00698404498553 -0.15307428 -0.04151629729877
v 0.005693452659459999 -0.15282029 -0.046232226200460004
v 0.0055729615 -0.1525 -0.052209832500000004
v 0.0071726367 -0.1525 -0.0522420773
v 0.0072931278594600005 -0.15282029 -0.04626447100046
v 0.00833946188075 -0.15302998 -0.04237068660915
v 0.01360547189842 -0.15354602 -0.03284207642278
v 0.01488895895192 -0.15374574 -0.029139090142880002
v 0.0179515459965 -0.15475 -0.010450813278499997
v 0.0173219738256 -0.15475 -0.010438122934399996
v 0.013323541031390001 -0.15373286 -0.029347984725510003
v 0.012247230728730001 -0.15357912 -0.032196772677770005
vn 1.85597e-19 0.998568 0.0534947
vn 1.85597e-19 0.998568 0.0534947
vn 1.85597e-19 0.998568 0.0534947
vn 1.85597e-19 0.998568 0.0534947
vn 1.85597e-19 0.998568 0.0534947
vn 1.85597e-19 0.998568 0.0534947
vn 1.85597e-19 0.998568 0.0534947
vn 1.85597e-19 0.998568 0.0534947
vn 1.85597e-19 0.998568 0.0534947
vn 1.85597e-19 0.998568 0.0534947
vn 1.85597e-19 0.998568 0.0534947
vn 1.85597e-19 0.998568 0.0534947
f 82//82 84//84 83//83 
f 82//82 85//85 84//84 
f 81//81 86//86 85//85 
f 81//81 85//85 82//82 
f 80//80 75//75 86//86 
f 80//80 86//86 81//81 
f 76//76 75//75 80//80 
f 79//79 76//76 80//80 
f 78//78 77//77 76//76 
f 78//78 76//76 79//79 

g Face_14
v 0.0071726367 -0.16 -0.0522420773
v 0.0055729615 -0.16 -0.052209832500000004
v 0.0055640104583921 -0.15751312 -0.052653896636677106
v 0.0055640104583921 -0.15498688 -0.052653896636677106
v 0.0055729615 -0.1525 -0.052209832500000004
v 0.0071726367 -0.1525 -0.0522420773
v 0.0071636856583921 -0.15751312 -0.0526861414366771
v 0.0071636856583921 -0.15498688 -0.0526861414366771
vn -3.34824e-18 -0.262009 -0.965066
vn -3.34824e-18 -0.262009 -0.965066
vn -3.45591e-18 -0.0882527 -0.996098
vn -3.45591e-18 0.0882527 -0.996098
vn -3.34824e-18 0.262009 -0.965066
vn -3.34824e-18 0.262009 -0.965066
vn -3.45591e-18 -0.0882527 -0.996098
vn -3.45591e-18 0.0882527 -0.996098
f 90//90 91//91 92//92 
f 90//90 92//92 94//94 
f 89//89 94//94 93//93 
f 89//89 90//90 94//94 
f 88//88 93//93 87//87 
f 88//88 89//89 93//93 

g Face_15
v 0.005693452659459999 -0.15967971 -0.046232226200460004
v 0.00698404498553 -0.15942572 -0.04151629729877
v 0.012247230728730001 -0.15892088 -0.032196772677770005
v 0.013323541031390001 -0.15876714 -0.029347984725510003
v 0.0173219738256 -0.15775 -0.010438122934399996
v 0.0179515459965 -0.15775 -0.010450813278499997
v 0.01488895895192 -0.15875426 -0.029139090142880002
v 0.01360547189842 -0.15895398 -0.03284207642278
v 0.00833946188075 -0.15947002 -0.04237068660915
v 0.0072931278594600005 -0.15967971 -0.04626447100046
v 0.0071726367 -0.16 -0.0522420773
v 0.0055729615 -0.16 -0.052209832500000004
vn 1.85597e-19 -0.998568 0.0534947
vn 1.85597e-19 -0.998568 0.0534947
vn 1.85597e-19 -0.998568 0.0534947
vn 1.85597e-19 -0.998568 0.0534947
vn 1.85597e-19 -0.998568 0.0534947
vn 1.85597e-19 -0.998568 0.0534947
vn 1.85597e-19 -0.998568 0.0534947
vn 1.85597e-19 -0.998568 0.0534947
vn 1.85597e-19 -0.998568 0.0534947
vn 1.85597e-19 -0.998568 0.0534947
vn 1.85597e-19 -0.998568 0.0534947
vn 1.85597e-19 -0.998568 0.0534947
f 104//104 106//106 105//105 
f 104//104 95//95 106//106 
f 103//103 96//96 95//95 
f 103//103 95//95 104//104 
f 97//97 96//96 103//103 
f 102//102 97//97 103//103 
f 98//98 97//97 102//102 
f 101//101 98//98 102//102 
f 99//99 98//98 101//101 
f 100//100 99//99 101//101 

