mtllib Marteau_-_masselote_Heures.mtl
usemtl Marteau_-_masselote_Heures
#Wavefront export of shape 1-93-5--Marteau_-_masselote_Heures

g Face_1
v 0.11476008548181661 0.08317146574999996 -0.1354291903668729
v 0.11191166097554461 0.09536929624999997 -0.1303943580357384
v 0.11632406891046214 0.09046738399999997 -0.1368025153920288
v 0.11590208009471813 0.09227446999999998 -0.1360566143059348
vn -0.732787 0.0593006 0.677869
vn -0.732787 0.0593006 0.677869
vn -0.732787 0.0593006 0.677869
vn -0.732787 0.0593006 0.677869
f 1//1 4//4 3//3 
f 1//1 2//2 4//4 

g Face_2
v 0.11632406891046214 0.09046738399999997 -0.1368025153920288
v 0.11590208009471813 0.09227446999999998 -0.1360566143059348
v 0.11728679390528202 0.09072552999999997 -0.13688326769406522
v 0.11686480508953802 0.09253261599999997 -0.1361373666079712
vn -0.939693 0.34201 -0.00261009
vn -0.939693 0.34201 -0.00261009
vn -0.939693 0.34201 -0.00261009
vn -0.939693 0.34201 -0.00261009
f 7//7 5//5 6//6 
f 7//7 6//6 8//8 

g Face_3
v 0.11728679390528202 0.09072552999999997 -0.13688326769406522
v 0.11686480508953802 0.09253261599999997 -0.1361373666079712
v 0.12246188544037583 0.08523663374999997 -0.1360752087831641
v 0.11961346093410383 0.09743446424999998 -0.1310403764520296
vn -0.596139 0.424375 -0.68156
vn -0.596139 0.424375 -0.68156
vn -0.596139 0.424375 -0.68156
vn -0.596139 0.424375 -0.68156
f 11//11 9//9 10//10 
f 11//11 10//10 12//12 

g Face_4
v 0.11899105839581761 0.07462121574999997 -0.11232092186295314
v 0.11476008548181661 0.08317146574999996 -0.1354291903668729
v 0.12246188544037583 0.08523663374999997 -0.1360752087831641
v 0.1261851416046967 0.07771241374999997 -0.1157399324997147
vn -0.328088 -0.903543 -0.275625
vn -0.328088 -0.903543 -0.275625
vn -0.328088 -0.903543 -0.275625
vn -0.328088 -0.903543 -0.275625
f 14//14 16//16 13//13 
f 15//15 16//16 14//14 

g Face_5
v 0.11961346093410383 0.09743446424999998 -0.1310403764520296
v 0.1233367170984247 0.08991024424999998 -0.1107051001685802
v 0.11614263388954561 0.08681904624999996 -0.10728608953181865
v 0.11191166097554461 0.09536929624999997 -0.1303943580357384
vn 0.328088 0.903543 0.275625
vn 0.328088 0.903543 0.275625
vn 0.328088 0.903543 0.275625
vn 0.328088 0.903543 0.275625
f 20//20 19//19 18//18 
f 17//17 20//20 18//18 

g Face_6
v 0.11899105839581761 0.07462121574999997 -0.11232092186295314
v 0.11614263388954561 0.08681904624999996 -0.10728608953181865
v 0.11476008548181661 0.08317146574999996 -0.1354291903668729
v 0.11191166097554461 0.09536929624999997 -0.1303943580357384
v 0.1156727929663811 0.08395132974999997 -0.12205491081319372
v 0.1151453069467011 0.08621018724999996 -0.12112253445557622
v 0.114722209655301 0.08706521224999997 -0.1234333613059682
v 0.115249695674981 0.08480635474999997 -0.12436573766358569
vn -0.0966249 -0.258146 0.961262
vn -0.0966249 -0.258146 0.961262
vn -0.0966249 -0.258146 0.961262
vn -0.0966249 -0.258146 0.961262
vn -0.0966249 -0.258146 0.961262
vn -0.0966249 -0.258146 0.961262
vn -0.0966249 -0.258146 0.961262
vn -0.0966249 -0.258146 0.961262
f 25//25 21//21 22//22 
f 25//25 22//22 26//26 
f 24//24 27//27 26//26 
f 24//24 26//26 22//22 
f 23//23 28//28 27//27 
f 23//23 25//25 28//28 
f 23//23 21//21 25//25 
f 23//23 27//27 24//24 

g Face_7
v 0.12246188544037583 0.08523663374999997 -0.1360752087831641
v 0.11961346093410383 0.09743446424999998 -0.1310403764520296
v 0.1261851416046967 0.07771241374999997 -0.1157399324997147
v 0.1233367170984247 0.08991024424999998 -0.1107051001685802
v 0.12337459292494031 0.08601649774999998 -0.12270092922948492
v 0.12284710690526031 0.08827535524999996 -0.12176855287186741
v 0.12295149563354021 0.08687152274999997 -0.12501175607987688
v 0.12242400961386021 0.08913038024999997 -0.1240793797222594
vn 0.0966249 0.258146 -0.961262
vn 0.0966249 0.258146 -0.961262
vn 0.0966249 0.258146 -0.961262
vn 0.0966249 0.258146 -0.961262
vn 0.0966249 0.258146 -0.961262
vn 0.0966249 0.258146 -0.961262
vn 0.0966249 0.258146 -0.961262
vn 0.0966249 0.258146 -0.961262
f 34//34 32//32 31//31 
f 34//34 31//31 33//33 
f 29//29 35//35 33//33 
f 29//29 33//33 31//31 
f 30//30 36//36 35//35 
f 30//30 34//34 36//36 
f 30//30 32//32 34//34 
f 30//30 35//35 29//29 

g Face_8
v 0.1261851416046967 0.07771241374999997 -0.1157399324997147
v 0.1233367170984247 0.08991024424999998 -0.1107051001685802
v 0.11899105839581761 0.07462121574999997 -0.11232092186295314
v 0.11614263388954561 0.08681904624999996 -0.10728608953181865
vn 0.913789 -0.229593 -0.335078
vn 0.913789 -0.229593 -0.335078
vn 0.913789 -0.229593 -0.335078
vn 0.913789 -0.229593 -0.335078
f 37//37 40//40 39//39 
f 37//37 38//38 40//40 

g Face_9
v 0.11590208009471813 0.09227446999999998 -0.1360566143059348
v 0.11191166097554461 0.09536929624999997 -0.1303943580357384
v 0.11961346093410383 0.09743446424999998 -0.1310403764520296
v 0.11686480508953802 0.09253261599999997 -0.1361373666079712
vn -0.632096 0.761939 0.141081
vn -0.632096 0.761939 0.141081
vn -0.632096 0.761939 0.141081
vn -0.632096 0.761939 0.141081
f 43//43 41//41 42//42 
f 43//43 44//44 41//41 

g Face_10
v 0.11476008548181661 0.08317146574999996 -0.1354291903668729
v 0.11632406891046214 0.09046738399999997 -0.1368025153920288
v 0.11728679390528202 0.09072552999999997 -0.13688326769406522
v 0.12246188544037583 0.08523663374999997 -0.1360752087831641
vn -0.973272 -0.17765 -0.14554
vn -0.973272 -0.17765 -0.14554
vn -0.973272 -0.17765 -0.14554
vn -0.973272 -0.17765 -0.14554
f 47//47 45//45 46//46 
f 47//47 48//48 45//45 

g Face_11
v 0.12242400961386021 0.08913038024999997 -0.1240793797222594
v 0.114722209655301 0.08706521224999997 -0.1234333613059682
v 0.12295149563354021 0.08687152274999997 -0.12501175607987688
v 0.115249695674981 0.08480635474999997 -0.12436573766358569
vn 0.939693 -0.34201 0.00261009
vn 0.939693 -0.34201 0.00261009
vn 0.939693 -0.34201 0.00261009
vn 0.939693 -0.34201 0.00261009
f 49//49 52//52 51//51 
f 49//49 50//50 52//52 

g Face_12
v 0.12284710690526031 0.08827535524999996 -0.12176855287186741
v 0.1151453069467011 0.08621018724999996 -0.12112253445557622
v 0.12242400961386021 0.08913038024999997 -0.1240793797222594
v 0.114722209655301 0.08706521224999997 -0.1234333613059682
vn -0.328088 -0.903543 -0.275625
vn -0.328088 -0.903543 -0.275625
vn -0.328088 -0.903543 -0.275625
vn -0.328088 -0.903543 -0.275625
f 53//53 56//56 55//55 
f 53//53 54//54 56//56 

g Face_13
v 0.12337459292494031 0.08601649774999998 -0.12270092922948492
v 0.1156727929663811 0.08395132974999997 -0.12205491081319372
v 0.12284710690526031 0.08827535524999996 -0.12176855287186741
v 0.1151453069467011 0.08621018724999996 -0.12112253445557622
vn -0.939693 0.34201 -0.00261009
vn -0.939693 0.34201 -0.00261009
vn -0.939693 0.34201 -0.00261009
vn -0.939693 0.34201 -0.00261009
f 57//57 60//60 59//59 
f 57//57 58//58 60//60 

g Face_14
v 0.12295149563354021 0.08687152274999997 -0.12501175607987688
v 0.115249695674981 0.08480635474999997 -0.12436573766358569
v 0.12337459292494031 0.08601649774999998 -0.12270092922948492
v 0.1156727929663811 0.08395132974999997 -0.12205491081319372
vn 0.328088 0.903543 0.275625
vn 0.328088 0.903543 0.275625
vn 0.328088 0.903543 0.275625
vn 0.328088 0.903543 0.275625
f 61//61 64//64 63//63 
f 61//61 62//62 64//64 

