mtllib Palette_Quarts_instance_2.mtl
usemtl Palette_Quarts_instance_2
#Wavefront export of shape 1-61-5--Palette_Quarts

g Face_1
v 0.24723461160000013 -0.15727854709999986 -0.11429999999999996
v 0.24741726240000012 -0.15692268389999986 -0.11429999999999996
v 0.24723461160000004 -0.15727854709999983 -0.06429999999999994
v 0.24741726240000003 -0.15692268389999983 -0.06429999999999994
vn 7.04992e-15 -1 5.44708e-28
vn 7.04992e-15 -1 5.44708e-28
vn 7.04992e-15 -1 5.44708e-28
vn 7.04992e-15 -1 5.44708e-28
f 2//2 3//3 1//1 
f 2//2 4//4 3//3 

g Face_2
v 0.24723461160000004 -0.15727854709999983 -0.06429999999999994
v 0.24741726240000003 -0.15692268389999983 -0.06429999999999994
v 0.2263276486 -0.1465478126 -0.0643
v 0.22651029939999998 -0.1461919494 -0.0643
vn -1.36729e-27 5.44708e-28 1
vn -1.36729e-27 5.44708e-28 1
vn -1.36729e-27 5.44708e-28 1
vn -1.36729e-27 5.44708e-28 1
f 6//6 7//7 5//5 
f 6//6 8//8 7//7 

g Face_3
v 0.2263276486 -0.1465478126 -0.0643
v 0.22651029939999998 -0.1461919494 -0.0643
v 0.2263276486 -0.1465478126 -0.06929999999999999
v 0.2265102994 -0.1461919494 -0.06929999999999999
vn -7.04992e-15 1 -1.73472e-16
vn -7.04992e-15 1 -1.73472e-16
vn -7.04992e-15 1 -1.73472e-16
vn -7.04992e-15 1 -1.73472e-16
f 9//9 12//12 11//11 
f 9//9 10//10 12//12 

g Face_4
v 0.2263276486 -0.1465478126 -0.06929999999999999
v 0.2265102994 -0.1461919494 -0.06929999999999999
v 0.23231536721688 -0.14962107669571995 -0.07046649999999997
v 0.23534762416460003 -0.15117741676489993 -0.07373409999999997
v 0.23550838536520005 -0.1512599292637999 -0.07836749999999998
v 0.23373467421060004 -0.15034955201389993 -0.08364256999999997
v 0.23443100952720003 -0.15070695396679992 -0.08630115999999997
v 0.23633630110000003 -0.15168486634999995 -0.0893
v 0.23651895190000005 -0.15132900314999992 -0.08929999999999995
v 0.23249801801688003 -0.14926521349571995 -0.07046649999999997
v 0.23553027496460002 -0.15082155356489993 -0.07373409999999997
v 0.23569103616520004 -0.1509040660637999 -0.07836749999999998
v 0.23391732501060003 -0.14999368881389993 -0.08364256999999997
v 0.23461366032720002 -0.15035109076679992 -0.08630115999999997
vn 2.35975e-16 -0.0362747 -0.999342
vn 2.35975e-16 -0.0362747 -0.999342
vn -3.46244e-15 0.435155 -0.900355
vn -7.73614e-15 0.90461 -0.426239
vn -8.15268e-15 0.939948 0.341317
vn -8.66723e-15 0.999263 -0.0383749
vn -7.67777e-15 0.885187 -0.465235
vn -6.55801e-15 0.756088 -0.65447
vn -6.55801e-15 0.756088 -0.65447
vn -3.46244e-15 0.435155 -0.900355
vn -7.73614e-15 0.90461 -0.426239
vn -8.15268e-15 0.939948 0.341317
vn -8.66723e-15 0.999263 -0.0383749
vn -7.67777e-15 0.885187 -0.465235
f 22//22 13//13 14//14 
f 22//22 15//15 13//13 
f 23//23 16//16 15//15 
f 23//23 15//15 22//22 
f 24//24 17//17 16//16 
f 24//24 16//16 23//23 
f 25//25 18//18 17//17 
f 25//25 17//17 24//24 
f 26//26 19//19 18//18 
f 26//26 18//18 25//25 
f 21//21 20//20 19//19 
f 21//21 19//19 26//26 

g Face_5
v 0.24723461160000013 -0.15727854709999986 -0.11429999999999996
v 0.24723461160000004 -0.15727854709999983 -0.06429999999999994
v 0.2263276486 -0.1465478126 -0.0643
v 0.2263276486 -0.1465478126 -0.06929999999999999
v 0.23231536721688 -0.14962107669571995 -0.07046649999999997
v 0.23534762416460003 -0.15117741676489993 -0.07373409999999997
v 0.23550838536520005 -0.1512599292637999 -0.07836749999999998
v 0.23373467421060004 -0.15034955201389993 -0.08364256999999997
v 0.23443100952720003 -0.15070695396679992 -0.08630115999999997
v 0.23633630110000003 -0.15168486634999995 -0.0893
v 0.22632764860000004 -0.14654781260000002 -0.1093
v 0.23231536721688006 -0.14962107669571997 -0.10813349999999998
v 0.23534762416460006 -0.15117741676489996 -0.10486589999999998
v 0.23550838536520008 -0.15125992926379994 -0.10023249999999997
v 0.23373467421060007 -0.15034955201389996 -0.09495742999999998
v 0.23443100952720006 -0.15070695396679995 -0.09229883999999998
v 0.22632764860000007 -0.14654781260000002 -0.11429999999999998
vn -1 -7.04992e-15 -1.36729e-27
vn -1 -7.04992e-15 -1.36729e-27
vn -1 -7.04992e-15 -1.36729e-27
vn -1 -7.04992e-15 -1.36729e-27
vn -1 -7.04992e-15 -1.36729e-27
vn -1 -7.04992e-15 -1.36729e-27
vn -1 -7.04992e-15 -1.36729e-27
vn -1 -7.04992e-15 -1.36729e-27
vn -1 -7.04992e-15 -1.36729e-27
vn -1 -7.04992e-15 -1.36729e-27
vn -1 -7.04992e-15 -1.36729e-27
vn -1 -7.04992e-15 -1.36729e-27
vn -1 -7.04992e-15 -1.36729e-27
vn -1 -7.04992e-15 -1.36729e-27
vn -1 -7.04992e-15 -1.36729e-27
vn -1 -7.04992e-15 -1.36729e-27
vn -1 -7.04992e-15 -1.36729e-27
f 31//31 29//29 30//30 
f 28//28 31//31 32//32 
f 28//28 29//29 31//31 
f 33//33 28//28 32//32 
f 35//35 33//33 34//34 
f 36//36 33//33 35//35 
f 36//36 28//28 33//33 
f 40//40 42//42 41//41 
f 40//40 36//36 42//42 
f 38//38 37//37 43//43 
f 27//27 39//39 38//38 
f 27//27 40//40 39//39 
f 27//27 36//36 40//40 
f 27//27 38//38 43//43 
f 27//27 28//28 36//36 

g Face_6
v 0.24741726240000003 -0.15692268389999983 -0.06429999999999994
v 0.22651029939999998 -0.1461919494 -0.0643
v 0.2265102994 -0.1461919494 -0.06929999999999999
v 0.23249801801688003 -0.14926521349571995 -0.07046649999999997
v 0.23553027496460002 -0.15082155356489993 -0.07373409999999997
v 0.23569103616520004 -0.1509040660637999 -0.07836749999999998
v 0.23391732501060003 -0.14999368881389993 -0.08364256999999997
v 0.23461366032720002 -0.15035109076679992 -0.08630115999999997
v 0.23651895190000005 -0.15132900314999992 -0.08929999999999995
v 0.22651029940000006 -0.14619194940000002 -0.1093
v 0.23249801801688008 -0.14926521349571997 -0.10813349999999998
v 0.23553027496460005 -0.15082155356489996 -0.10486589999999998
v 0.23569103616520007 -0.15090406606379994 -0.10023249999999997
v 0.23391732501060006 -0.14999368881389996 -0.09495742999999998
v 0.23461366032720005 -0.15035109076679995 -0.09229883999999998
v 0.22651029940000006 -0.14619194940000002 -0.11429999999999998
v 0.24741726240000012 -0.15692268389999986 -0.11429999999999996
vn 1 7.04992e-15 1.36729e-27
vn 1 7.04992e-15 1.36729e-27
vn 1 7.04992e-15 1.36729e-27
vn 1 7.04992e-15 1.36729e-27
vn 1 7.04992e-15 1.36729e-27
vn 1 7.04992e-15 1.36729e-27
vn 1 7.04992e-15 1.36729e-27
vn 1 7.04992e-15 1.36729e-27
vn 1 7.04992e-15 1.36729e-27
vn 1 7.04992e-15 1.36729e-27
vn 1 7.04992e-15 1.36729e-27
vn 1 7.04992e-15 1.36729e-27
vn 1 7.04992e-15 1.36729e-27
vn 1 7.04992e-15 1.36729e-27
vn 1 7.04992e-15 1.36729e-27
vn 1 7.04992e-15 1.36729e-27
vn 1 7.04992e-15 1.36729e-27
f 47//47 46//46 45//45 
f 44//44 48//48 47//47 
f 44//44 47//47 45//45 
f 49//49 48//48 44//44 
f 51//51 50//50 49//49 
f 52//52 51//51 49//49 
f 52//52 49//49 44//44 
f 56//56 57//57 58//58 
f 56//56 58//58 52//52 
f 54//54 59//59 53//53 
f 60//60 54//54 55//55 
f 60//60 55//55 56//56 
f 60//60 56//56 52//52 
f 60//60 59//59 54//54 
f 60//60 52//52 44//44 

g Face_7
v 0.22632764860000007 -0.14654781260000002 -0.11429999999999998
v 0.22651029940000006 -0.14619194940000002 -0.11429999999999998
v 0.24723461160000013 -0.15727854709999986 -0.11429999999999996
v 0.24741726240000012 -0.15692268389999986 -0.11429999999999996
vn 1.36729e-27 -5.44708e-28 -1
vn 1.36729e-27 -5.44708e-28 -1
vn 1.36729e-27 -5.44708e-28 -1
vn 1.36729e-27 -5.44708e-28 -1
f 62//62 63//63 61//61 
f 62//62 64//64 63//63 

g Face_8
v 0.22632764860000004 -0.14654781260000002 -0.1093
v 0.22651029940000006 -0.14619194940000002 -0.1093
v 0.22632764860000007 -0.14654781260000002 -0.11429999999999998
v 0.22651029940000006 -0.14619194940000002 -0.11429999999999998
vn -7.04992e-15 1 1.73472e-16
vn -7.04992e-15 1 1.73472e-16
vn -7.04992e-15 1 1.73472e-16
vn -7.04992e-15 1 1.73472e-16
f 68//68 65//65 66//66 
f 68//68 67//67 65//65 

g Face_9
v 0.23633630110000003 -0.15168486634999995 -0.0893
v 0.23651895190000005 -0.15132900314999992 -0.08929999999999995
v 0.22632764860000004 -0.14654781260000002 -0.1093
v 0.23231536721688006 -0.14962107669571997 -0.10813349999999998
v 0.23534762416460006 -0.15117741676489996 -0.10486589999999998
v 0.23550838536520008 -0.15125992926379994 -0.10023249999999997
v 0.23373467421060007 -0.15034955201389996 -0.09495742999999998
v 0.23443100952720006 -0.15070695396679995 -0.09229883999999998
v 0.22651029940000006 -0.14619194940000002 -0.1093
v 0.23249801801688008 -0.14926521349571997 -0.10813349999999998
v 0.23553027496460005 -0.15082155356489996 -0.10486589999999998
v 0.23569103616520007 -0.15090406606379994 -0.10023249999999997
v 0.23391732501060006 -0.14999368881389996 -0.09495742999999998
v 0.23461366032720005 -0.15035109076679995 -0.09229883999999998
vn -6.55801e-15 0.756088 0.65447
vn -6.55801e-15 0.756088 0.65447
vn 2.35975e-16 -0.0362747 0.999342
vn -3.46244e-15 0.435155 0.900355
vn -7.73614e-15 0.90461 0.426239
vn -8.15268e-15 0.939948 -0.341317
vn -8.66723e-15 0.999263 0.0383749
vn -7.67777e-15 0.885187 0.465235
vn 2.35975e-16 -0.0362747 0.999342
vn -3.46244e-15 0.435155 0.900355
vn -7.73614e-15 0.90461 0.426239
vn -8.15268e-15 0.939948 -0.341317
vn -8.66723e-15 0.999263 0.0383749
vn -7.67777e-15 0.885187 0.465235
f 82//82 69//69 70//70 
f 82//82 76//76 69//69 
f 81//81 75//75 76//76 
f 81//81 76//76 82//82 
f 80//80 74//74 75//75 
f 80//80 75//75 81//81 
f 79//79 73//73 74//74 
f 79//79 74//74 80//80 
f 78//78 72//72 73//73 
f 78//78 73//73 79//79 
f 77//77 71//71 72//72 
f 77//77 72//72 78//78 

