mtllib Pallier_(5.5_1.2)_instance_5.mtl
usemtl Pallier_(5.5_1.2)_instance_5
#Wavefront export of shape 1-8-7--Pallier__5_5_1_2_

g Face_1
v 0.05325 -0.13625 -0.0465
v 0.05563157 -0.13762500000000003 -0.0465
v 0.05563157 -0.140375 -0.0465
v 0.05325 -0.14175000000000001 -0.0465
v 0.05086843 -0.140375 -0.0465
v 0.05086843 -0.13762500000000003 -0.0465
v 0.05325 -0.1385 -0.0465
v 0.053683013 -0.13925 -0.0465
v 0.052816986999999996 -0.13925 -0.0465
vn 0 1.22465e-16 -1
vn 0 1.22465e-16 -1
vn 0 1.22465e-16 -1
vn 0 1.22465e-16 -1
vn 0 1.22465e-16 -1
vn 0 1.22465e-16 -1
vn 0 1.22465e-16 -1
vn 0 1.22465e-16 -1
vn 0 1.22465e-16 -1
f 9//9 4//4 5//5 
f 9//9 5//5 6//6 
f 8//8 4//4 9//9 
f 7//7 9//9 6//6 
f 3//3 4//4 8//8 
f 1//1 7//7 6//6 
f 2//2 8//8 7//7 
f 2//2 3//3 8//8 
f 2//2 7//7 1//1 

g Face_2
v 0.05325 -0.13675 -0.0405
v 0.054375 -0.13705144000000002 -0.0405
v 0.05519856 -0.13787500000000003 -0.0405
v 0.0555 -0.139 -0.0405
v 0.0555 -0.139 -0.0405
v 0.054375 -0.14094856 -0.0405
v 0.052125 -0.14094856 -0.0405
v 0.051 -0.139 -0.0405
v 0.051 -0.139 -0.0405
v 0.05130144 -0.13787500000000003 -0.0405
v 0.052125 -0.13705144000000002 -0.0405
v 0.05325 -0.1395 -0.04269374
v 0.053683013 -0.13925 -0.04269374
v 0.053683013 -0.13875 -0.04269374
v 0.05325 -0.1385 -0.04269374
v 0.052816986999999996 -0.13875 -0.04269374
v 0.052816986999999996 -0.13925 -0.04269374
v 0.052125 -0.14068750000000002 -0.04147428
v 0.052125 -0.139 -0.042448559999999996
v 0.052125 -0.1373125 -0.04147428
v 0.054375 -0.139974279 -0.0421875
v 0.054375 -0.13802572100000002 -0.0421875
vn -0 -1 2.44929e-16
vn -0.5 -0.866025 2.12115e-16
vn -0.866025 -0.5 1.22465e-16
vn -1 -6.12323e-17 1.49976e-32
vn -1 6.12323e-17 -7.4988e-33
vn -0.5 0.866025 -4.9065e-16
vn 0.5 0.866025 2.78535e-16
vn 1 6.12323e-17 -7.4988e-33
vn 1 -6.12323e-17 1.49976e-32
vn 0.866025 -0.5 1.22465e-16
vn 0.5 -0.866025 2.12115e-16
vn -0 0.222222 0.974996
vn -0.192448 0.111108 0.974997
vn -0.192448 -0.111108 0.974997
vn -0 -0.222222 0.974996
vn 0.192448 -0.111108 0.974997
vn 0.192448 0.111108 0.974997
vn 0.5 0.75 0.433013
vn 0.5 1.59086e-16 0.866025
vn 0.5 -0.75 0.433013
vn -0.5 0.433013 0.75
vn -0.5 -0.433013 0.75
f 19//19 18//18 17//17 
f 15//15 21//21 16//16 
f 22//22 21//21 15//15 
f 10//10 24//24 23//23 
f 10//10 25//25 24//24 
f 13//13 12//12 14//14 
f 27//27 17//17 16//16 
f 27//27 21//21 26//26 
f 27//27 16//16 21//21 
f 28//28 26//26 25//25 
f 28//28 19//19 17//17 
f 28//28 27//27 26//26 
f 28//28 17//17 27//27 
f 29//29 20//20 19//19 
f 29//29 10//10 20//20 
f 29//29 28//28 25//25 
f 29//29 25//25 10//10 
f 29//29 19//19 28//28 
f 30//30 15//15 14//14 
f 30//30 23//23 22//22 
f 30//30 22//22 15//15 
f 30//30 14//14 12//12 
f 31//31 11//11 10//10 
f 31//31 12//12 11//11 
f 31//31 23//23 30//30 
f 31//31 10//10 23//23 
f 31//31 30//30 12//12 

g Face_3
v 0.05325 -0.13625 -0.0405
v 0.05563157 -0.13762500000000003 -0.0405
v 0.05563157 -0.140375 -0.0405
v 0.05325 -0.14175000000000001 -0.0405
v 0.05086843 -0.140375 -0.0405
v 0.05086843 -0.13762500000000003 -0.0405
v 0.05325 -0.13675 -0.0405
v 0.054375 -0.13705144000000002 -0.0405
v 0.05519856 -0.13787500000000003 -0.0405
v 0.0555 -0.139 -0.0405
v 0.054375 -0.14094856 -0.0405
v 0.052125 -0.14094856 -0.0405
v 0.051 -0.139 -0.0405
v 0.05130144 -0.13787500000000003 -0.0405
v 0.052125 -0.13705144000000002 -0.0405
vn 0 -1.22465e-16 1
vn 0 -1.22465e-16 1
vn 0 -1.22465e-16 1
vn 0 -1.22465e-16 1
vn 0 -1.22465e-16 1
vn 0 -1.22465e-16 1
vn 0 -1.22465e-16 1
vn 0 -1.22465e-16 1
vn 0 -1.22465e-16 1
vn 0 -1.22465e-16 1
vn 0 -1.22465e-16 1
vn 0 -1.22465e-16 1
vn 0 -1.22465e-16 1
vn 0 -1.22465e-16 1
vn 0 -1.22465e-16 1
f 45//45 46//46 37//37 
f 38//38 32//32 46//46 
f 44//44 45//45 37//37 
f 36//36 44//44 37//37 
f 39//39 32//32 38//38 
f 43//43 44//44 36//36 
f 33//33 39//39 40//40 
f 33//33 32//32 39//39 
f 41//41 33//33 40//40 
f 42//42 43//43 35//35 
f 34//34 41//41 42//42 
f 34//34 42//42 35//35 
f 34//34 33//33 41//41 
f 36//36 35//35 43//43 
f 32//32 37//37 46//46 

g Face_4
v 0.05325 -0.13625 -0.0405
v 0.05563157 -0.13762500000000003 -0.0405
v 0.05563157 -0.140375 -0.0405
v 0.05325 -0.14175000000000001 -0.0405
v 0.05086843 -0.140375 -0.0405
v 0.05086843 -0.13762500000000003 -0.0405
v 0.05325 -0.13625 -0.0405
v 0.05325 -0.13625 -0.0465
v 0.05325 -0.13625 -0.0465
v 0.05563157 -0.13762500000000003 -0.0465
v 0.05563157 -0.140375 -0.0465
v 0.05325 -0.14175000000000001 -0.0465
v 0.05086843 -0.140375 -0.0465
v 0.05086843 -0.13762500000000003 -0.0465
vn -0 1 1.22465e-16
vn 0.866025 0.5 6.12323e-17
vn 0.866025 -0.5 -6.12323e-17
vn 1.22465e-16 -1 -1.22465e-16
vn -0.866025 -0.5 -6.12323e-17
vn -0.866025 0.5 6.12323e-17
vn -2.44929e-16 1 1.22465e-16
vn -2.44929e-16 1 1.22465e-16
vn -0 1 1.22465e-16
vn 0.866025 0.5 6.12323e-17
vn 0.866025 -0.5 -6.12323e-17
vn 1.22465e-16 -1 -1.22465e-16
vn -0.866025 -0.5 -6.12323e-17
vn -0.866025 0.5 6.12323e-17
f 56//56 47//47 48//48 
f 56//56 55//55 47//47 
f 57//57 48//48 49//49 
f 57//57 56//56 48//48 
f 58//58 49//49 50//50 
f 58//58 57//57 49//49 
f 59//59 50//50 51//51 
f 59//59 58//58 50//50 
f 60//60 51//51 52//52 
f 60//60 59//59 51//51 
f 54//54 52//52 53//53 
f 54//54 60//60 52//52 

g Face_5
v 0.05325 -0.1385 -0.04269374
v 0.052816986999999996 -0.13875 -0.04269374
v 0.052816986999999996 -0.13925 -0.04269374
v 0.05325 -0.1395 -0.04269374
v 0.05325 -0.1385 -0.0465
v 0.05325 -0.1385 -0.0465
v 0.053683013 -0.13925 -0.0465
v 0.052816986999999996 -0.13925 -0.0465
v 0.05325 -0.1385 -0.04269374
v 0.053683013 -0.13925 -0.04269374
v 0.053683013 -0.13875 -0.04269374
vn 2.44929e-16 -1 -1.22465e-16
vn 0.866025 -0.5 -6.12323e-17
vn 0.866025 0.5 6.12323e-17
vn -1.22465e-16 1 1.22465e-16
vn 2.44929e-16 -1 -1.22465e-16
vn 0 -1 -1.22465e-16
vn -0.866025 0.5 6.12323e-17
vn 0.866025 0.5 6.12323e-17
vn 0 -1 -1.22465e-16
vn -0.866025 0.5 6.12323e-17
vn -0.866025 -0.5 -6.12323e-17
f 66//66 71//71 69//69 
f 67//67 64//64 70//70 
f 67//67 70//70 71//71 
f 67//67 71//71 66//66 
f 68//68 62//62 63//63 
f 68//68 63//63 64//64 
f 68//68 64//64 67//67 
f 65//65 61//61 62//62 
f 65//65 62//62 68//68 

