mtllib Pallier_tige_marteau_droit.mtl
usemtl Pallier_tige_marteau_droit
#Wavefront export of shape 1-1-13--Pallier_tige_marteau_droit

g Face_1
v 0.22775 0.0051613299999999996 -0.14798918
v 0.23125978 0.0051613299999999996 -0.14629895999999998
v 0.23212662 0.0051613299999999996 -0.14250106399999998
v 0.22969778000000002 0.0051613299999999996 -0.13945538999999998
v 0.22580222 0.0051613299999999996 -0.13945538999999998
v 0.22337338 0.0051613299999999996 -0.14250106399999998
v 0.22424022000000002 0.0051613299999999996 -0.14629895999999998
v 0.22775 0.0051613299999999996 -0.14798918
v 0.22775 0.0033999999999999994 -0.1485
v 0.23165916 0.0033999999999999994 -0.14661744999999998
v 0.23262464000000002 0.0033999999999999994 -0.1423874
v 0.22991942 0.0033999999999999994 -0.13899515999999998
v 0.22558058 0.0033999999999999994 -0.13899515999999998
v 0.22287536 0.0033999999999999994 -0.1423874
v 0.22384084 0.0033999999999999994 -0.14661744999999998
v 0.22775 0.0033999999999999994 -0.1485
vn 5.27111e-15 0.52265 -0.852547
vn 0.666555 0.52265 -0.531546
vn 0.831169 0.52265 0.189725
vn 0.370888 0.52265 0.767645
vn -0.370888 0.52265 0.767645
vn -0.831169 0.52265 0.189725
vn -0.666555 0.52265 -0.531546
vn 5.27111e-15 0.52265 -0.852547
vn 0 -1.34318e-14 -1
vn 0.781839 -5.05853e-15 -0.62348
vn 0.974924 3.55899e-15 0.222539
vn 0.435035 1.79127e-14 0.900413
vn -0.435035 1.60949e-14 0.900413
vn -0.974924 8.38795e-15 0.222539
vn -0.781839 -4.25489e-15 -0.62348
vn 0 -1.34318e-14 -1
f 10//10 1//1 2//2 
f 10//10 9//9 1//1 
f 11//11 2//2 3//3 
f 11//11 10//10 2//2 
f 12//12 3//3 4//4 
f 12//12 11//11 3//3 
f 13//13 4//4 5//5 
f 13//13 12//12 4//4 
f 14//14 5//5 6//6 
f 14//14 13//13 5//5 
f 15//15 6//6 7//7 
f 15//15 14//14 6//6 
f 16//16 7//7 8//8 
f 16//16 15//15 7//7 

g Face_2
v 0.22775 0.0007999999999999999 -0.13924999999999998
v 0.2247448 0.0007999999999999999 -0.14049479999999998
v 0.2235 0.0007999999999999999 -0.1435
v 0.2247448 0.0007999999999999999 -0.1465052
v 0.22775 0.0007999999999999999 -0.14775
v 0.22775 0.0034 -0.13924999999999998
v 0.22775 0.0034 -0.13924999999999998
v 0.23107278 0.0034 -0.14085017
v 0.23189344 0.0034 -0.14444571399999998
v 0.22959401000000002 0.0034 -0.14732911999999998
v 0.22590599 0.0034 -0.14732911999999998
v 0.22360656 0.0034 -0.14444571399999998
v 0.22442722 0.0034 -0.14085017
v 0.22775 0.0007999999999999999 -0.13924999999999998
v 0.23075520000000002 0.0007999999999999999 -0.1465052
v 0.232 0.0007999999999999999 -0.1435
v 0.23075520000000002 0.0007999999999999999 -0.14049479999999998
vn -2.44929e-16 0 1
vn -0.707107 0 0.707107
vn -1 0 -1.83697e-16
vn -0.707107 0 -0.707107
vn 1.22465e-16 0 -1
vn -2.44929e-16 0 1
vn 0 0 1
vn 0.781831 -0 0.62349
vn 0.974928 0 -0.222521
vn 0.433884 0 -0.900969
vn -0.433884 0 -0.900969
vn -0.974928 0 -0.222521
vn -0.781831 0 0.62349
vn 0 0 1
vn 0.707107 0 -0.707107
vn 1 -0 6.12323e-17
vn 0.707107 -0 0.707107
f 23//23 30//30 33//33 
f 24//24 33//33 32//32 
f 24//24 23//23 33//33 
f 25//25 32//32 31//31 
f 25//25 24//24 32//32 
f 26//26 31//31 21//21 
f 26//26 25//25 31//31 
f 27//27 21//21 20//20 
f 27//27 26//26 21//21 
f 28//28 20//20 19//19 
f 28//28 27//27 20//20 
f 29//29 19//19 18//18 
f 29//29 28//28 19//19 
f 22//22 18//18 17//17 
f 22//22 29//29 18//18 

g Face_3
v 0.22775 0.0 -0.13845
v 0.23132089 0.0 -0.13992911
v 0.2328 0.0 -0.1435
v 0.23132089 0.0 -0.14707088999999998
v 0.22775 0.0 -0.14855
v 0.22417911000000001 0.0 -0.14707088999999998
v 0.2227 0.0 -0.1435
v 0.22417911000000001 0.0 -0.13992911
v 0.22775 0.0 -0.13845
v 0.22775 0.0007999999999999999 -0.13924999999999998
v 0.2247448 0.0007999999999999999 -0.14049479999999998
v 0.2235 0.0007999999999999999 -0.1435
v 0.2247448 0.0007999999999999999 -0.1465052
v 0.22775 0.0007999999999999999 -0.14775
v 0.23075520000000002 0.0007999999999999999 -0.1465052
v 0.232 0.0007999999999999999 -0.1435
v 0.23075520000000002 0.0007999999999999999 -0.14049479999999998
v 0.22775 0.0007999999999999999 -0.13924999999999998
vn 2.59787e-16 0.707107 0.707107
vn 0.5 0.707107 0.5
vn 0.707107 0.707107 -2.16489e-16
vn 0.5 0.707107 -0.5
vn -1.73191e-16 0.707107 -0.707107
vn -0.5 0.707107 -0.5
vn -0.707107 0.707107 1.29893e-16
vn -0.5 0.707107 0.5
vn 8.65956e-17 0.707107 0.707107
vn 8.65956e-17 0.707107 0.707107
vn -0.5 0.707107 0.5
vn -0.707107 0.707107 1.29893e-16
vn -0.5 0.707107 -0.5
vn -1.73191e-16 0.707107 -0.707107
vn 0.5 0.707107 -0.5
vn 0.707107 0.707107 -2.16489e-16
vn 0.5 0.707107 0.5
vn 2.59787e-16 0.707107 0.707107
f 41//41 42//42 43//43 
f 41//41 43//43 44//44 
f 40//40 44//44 45//45 
f 40//40 41//41 44//44 
f 39//39 45//45 46//46 
f 39//39 40//40 45//45 
f 38//38 46//46 47//47 
f 38//38 39//39 46//46 
f 37//37 47//47 48//48 
f 37//37 38//38 47//47 
f 36//36 48//48 49//49 
f 36//36 37//37 48//48 
f 35//35 49//49 50//50 
f 35//35 36//36 49//49 
f 34//34 50//50 51//51 
f 34//34 35//35 50//50 

g Face_4
v 0.22775 0.0 -0.13845
v 0.23132089 0.0 -0.13992911
v 0.2328 0.0 -0.1435
v 0.23132089 0.0 -0.14707088999999998
v 0.22775 0.0 -0.14855
v 0.22417911000000001 0.0 -0.14707088999999998
v 0.2227 0.0 -0.1435
v 0.22417911000000001 0.0 -0.13992911
v 0.22775 0.0 -0.14049999999999999
v 0.23034808 0.0 -0.142
v 0.23034808 0.0 -0.145
v 0.22775 0.0 -0.1465
v 0.22515192 0.0 -0.145
v 0.22515192 0.0 -0.142
vn -0 -1 -0
vn -0 -1 -0
vn -0 -1 -0
vn -0 -1 -0
vn -0 -1 -0
vn -0 -1 -0
vn -0 -1 -0
vn -0 -1 -0
vn -0 -1 -0
vn -0 -1 -0
vn -0 -1 -0
vn -0 -1 -0
vn -0 -1 -0
vn -0 -1 -0
f 64//64 58//58 57//57 
f 63//63 57//57 56//56 
f 63//63 64//64 57//57 
f 65//65 58//58 64//64 
f 59//59 58//58 65//65 
f 55//55 63//63 56//56 
f 62//62 63//63 55//55 
f 60//60 59//59 65//65 
f 52//52 59//59 60//60 
f 54//54 61//61 62//62 
f 54//54 62//62 55//55 
f 53//53 60//60 61//61 
f 53//53 52//52 60//60 
f 53//53 61//61 54//54 

g Face_5
v 0.22775 0.0033999999999999994 -0.1485
v 0.23165916 0.0033999999999999994 -0.14661744999999998
v 0.23262464000000002 0.0033999999999999994 -0.1423874
v 0.22991942 0.0033999999999999994 -0.13899515999999998
v 0.22558058 0.0033999999999999994 -0.13899515999999998
v 0.22287536 0.0033999999999999994 -0.1423874
v 0.22384084 0.0033999999999999994 -0.14661744999999998
v 0.22775 0.0034 -0.13924999999999998
v 0.23107278 0.0034 -0.14085017
v 0.23189344 0.0034 -0.14444571399999998
v 0.22959401000000002 0.0034 -0.14732911999999998
v 0.22590599 0.0034 -0.14732911999999998
v 0.22360656 0.0034 -0.14444571399999998
v 0.22442722 0.0034 -0.14085017
vn -0 -1 -0
vn -0 -1 -0
vn -0 -1 -0
vn -0 -1 -0
vn -0 -1 -0
vn -0 -1 -0
vn -0 -1 -0
vn -0 -1 -0
vn -0 -1 -0
vn -0 -1 -0
vn -0 -1 -0
vn -0 -1 -0
vn -0 -1 -0
vn -0 -1 -0
f 78//78 72//72 77//77 
f 66//66 77//77 72//72 
f 71//71 72//72 78//78 
f 76//76 77//77 66//66 
f 79//79 71//71 78//78 
f 67//67 76//76 66//66 
f 70//70 71//71 79//79 
f 75//75 76//76 67//67 
f 73//73 70//70 79//79 
f 68//68 74//74 75//75 
f 69//69 73//73 74//74 
f 69//69 70//70 73//73 
f 69//69 74//74 68//68 
f 68//68 75//75 67//67 

g Face_6
v 0.22775 0.0054 -0.13943709999999998
v 0.23062291000000001 0.0054 -0.14062708999999998
v 0.23181290000000002 0.0054 -0.1435
v 0.23062291000000001 0.0054 -0.14637291
v 0.22775 0.0054 -0.1475629
v 0.22487709 0.0054 -0.14637291
v 0.2236871 0.0054 -0.1435
v 0.22487709 0.0054 -0.14062708999999998
v 0.22775 0.0054 -0.14049999999999999
v 0.23034808 0.0054 -0.142
v 0.23034808 0.0054 -0.145
v 0.22775 0.0054 -0.1465
v 0.22515192 0.0054 -0.145
v 0.22515192 0.0054 -0.142
vn 0 1 0
vn 0 1 0
vn 0 1 0
vn 0 1 0
vn 0 1 0
vn 0 1 0
vn 0 1 0
vn 0 1 0
vn 0 1 0
vn 0 1 0
vn 0 1 0
vn 0 1 0
vn 0 1 0
vn 0 1 0
f 86//86 92//92 85//85 
f 91//91 84//84 85//85 
f 91//91 85//85 92//92 
f 93//93 92//92 86//86 
f 87//87 93//93 86//86 
f 83//83 84//84 91//91 
f 90//90 83//83 91//91 
f 88//88 93//93 87//87 
f 80//80 88//88 87//87 
f 82//82 83//83 90//90 
f 89//89 82//82 90//90 
f 81//81 89//89 88//88 
f 81//81 88//88 80//80 
f 81//81 82//82 89//89 

g Face_7
v 0.22775 0.0 -0.14049999999999999
v 0.23034808 0.0 -0.142
v 0.23034808 0.0 -0.145
v 0.22775 0.0 -0.1465
v 0.22515192 0.0 -0.145
v 0.22515192 0.0 -0.142
v 0.22775 0.0 -0.14049999999999999
v 0.22775 0.0054 -0.14049999999999999
v 0.22775 0.0054 -0.14049999999999999
v 0.23034808 0.0054 -0.142
v 0.23034808 0.0054 -0.145
v 0.22775 0.0054 -0.1465
v 0.22515192 0.0054 -0.145
v 0.22515192 0.0054 -0.142
vn -0 -0 -1
vn -0.866025 0 -0.5
vn -0.866025 -0 0.5
vn -1.22465e-16 -0 1
vn 0.866025 -0 0.5
vn 0.866025 -0 -0.5
vn 2.44929e-16 -0 -1
vn 2.44929e-16 -0 -1
vn -0 -0 -1
vn -0.866025 0 -0.5
vn -0.866025 -0 0.5
vn -1.22465e-16 -0 1
vn 0.866025 -0 0.5
vn 0.866025 -0 -0.5
f 103//103 95//95 94//94 
f 103//103 94//94 102//102 
f 104//104 96//96 95//95 
f 104//104 95//95 103//103 
f 105//105 97//97 96//96 
f 105//105 96//96 104//104 
f 106//106 98//98 97//97 
f 106//106 97//97 105//105 
f 107//107 99//99 98//98 
f 107//107 98//98 106//106 
f 101//101 100//100 99//99 
f 101//101 99//99 107//107 

g Face_8
v 0.22775 0.0051613299999999996 -0.14798918
v 0.23125978 0.0051613299999999996 -0.14629895999999998
v 0.23212662 0.0051613299999999996 -0.14250106399999998
v 0.22969778000000002 0.0051613299999999996 -0.13945538999999998
v 0.22580222 0.0051613299999999996 -0.13945538999999998
v 0.22337338 0.0051613299999999996 -0.14250106399999998
v 0.22424022000000002 0.0051613299999999996 -0.14629895999999998
v 0.22775 0.0051613299999999996 -0.14798918
v 0.22775 0.0054 -0.1475629
v 0.22775 0.0054 -0.13943709999999998
v 0.23062291000000001 0.0054 -0.14062708999999998
v 0.23181290000000002 0.0054 -0.1435
v 0.23062291000000001 0.0054 -0.14637291
v 0.22775 0.0054 -0.1475629
v 0.22487709 0.0054 -0.14637291
v 0.2236871 0.0054 -0.1435
v 0.22487709 0.0054 -0.14062708999999998
vn 0 0.52265 -0.852547
vn 0.666548 0.52265 -0.531554
vn 0.831172 0.52265 0.18971
vn 0.369906 0.52265 0.768118
vn -0.369906 0.52265 0.768118
vn -0.831172 0.52265 0.18971
vn -0.666548 0.52265 -0.531554
vn 0 0.52265 -0.852547
vn -0 1 1.83697e-16
vn -0 1 -1.83697e-16
vn -1.29893e-16 1 -1.29893e-16
vn -1.83697e-16 1 0
vn -1.29893e-16 1 1.29893e-16
vn -0 1 1.83697e-16
vn 1.29893e-16 1 1.29893e-16
vn 1.83697e-16 1 0
vn 1.29893e-16 1 -1.29893e-16
f 120//120 108//108 116//116 
f 109//109 108//108 120//120 
f 119//119 109//109 120//120 
f 110//110 109//109 119//119 
f 118//118 110//110 119//119 
f 111//111 110//110 118//118 
f 117//117 111//111 118//118 
f 112//112 111//111 117//117 
f 124//124 112//112 117//117 
f 113//113 112//112 124//124 
f 123//123 113//113 124//124 
f 114//114 123//123 122//122 
f 114//114 113//113 123//123 
f 115//115 122//122 121//121 
f 115//115 114//114 122//122 

