mtllib Pallier_Ext_5_Int_3_Huilier_instance_4.mtl
usemtl Pallier_Ext_5_Int_3_Huilier_instance_4
#Wavefront export of shape 1-9-7--Pallier_Ext_5_Int_3_Huilier

g Face_1
v 0.05925 -0.0235 -0.1315
v 0.06162764 -0.021772542000000002 -0.1315
v 0.060719459999999996 -0.01897746 -0.1315
v 0.05778054 -0.01897746 -0.1315
v 0.05687236 -0.021772542000000002 -0.1315
v 0.05925 -0.022500000000000003 -0.1315
v 0.06075 -0.021 -0.1315
v 0.05925 -0.0195 -0.1315
v 0.057749999999999996 -0.021 -0.1315
vn 4.691e-17 1.13124e-16 1
vn 4.691e-17 1.13124e-16 1
vn 4.691e-17 1.13124e-16 1
vn 4.691e-17 1.13124e-16 1
vn 4.691e-17 1.13124e-16 1
vn 4.691e-17 1.13124e-16 1
vn 4.691e-17 1.13124e-16 1
vn 4.691e-17 1.13124e-16 1
vn 4.691e-17 1.13124e-16 1
f 9//9 4//4 5//5 
f 8//8 4//4 9//9 
f 3//3 4//4 8//8 
f 6//6 9//9 5//5 
f 7//7 3//3 8//8 
f 1//1 6//6 5//5 
f 2//2 7//7 6//6 
f 2//2 3//3 7//7 
f 2//2 6//6 1//1 

g Face_2
v 0.05925 -0.0234 -0.1375
v 0.06045 -0.023078460000000002 -0.1375
v 0.061328459999999994 -0.0222 -0.1375
v 0.061649999999999996 -0.021 -0.1375
v 0.061649999999999996 -0.021 -0.1375
v 0.06045 -0.01892154 -0.1375
v 0.05805 -0.01892154 -0.1375
v 0.05685 -0.021 -0.1375
v 0.05685 -0.021 -0.1375
v 0.05717154 -0.0222 -0.1375
v 0.05805 -0.023078460000000002 -0.1375
v 0.05925 -0.0195 -0.1356265
v 0.06054904 -0.02025 -0.1356265
v 0.06054904 -0.021750000000000002 -0.1356265
v 0.05925 -0.022500000000000003 -0.1356265
v 0.057950959999999996 -0.021750000000000002 -0.1356265
v 0.057950959999999996 -0.02025 -0.1356265
v 0.05805 -0.019200000000000002 -0.13646077
v 0.05805 -0.0228 -0.13646077
vn 5.55112e-17 1 -4.80518e-16
vn -0.5 0.866025 -3.92686e-16
vn -0.866025 0.5 -1.99634e-16
vn -1 1.16743e-16 4.691e-17
vn -1 -5.72119e-18 4.691e-17
vn -0.5 -0.866025 7.18131e-16
vn 0.5 -0.866025 -9.79642e-17
vn 1 -1.16743e-16 -4.691e-17
vn 1 5.72119e-18 -4.691e-17
vn 0.866025 0.5 -2.80884e-16
vn 0.5 0.866025 -4.39596e-16
vn -7.13136e-17 -0.625 -0.780625
vn -0.541274 -0.312475 -0.780629
vn -0.541273 0.312474 -0.78063
vn -1.92462e-18 0.625 -0.780625
vn 0.541273 0.312474 -0.78063
vn 0.541274 -0.312475 -0.780629
vn 0.5 -0.75 -0.433013
vn 0.5 0.75 -0.433013
f 19//19 18//18 17//17 
f 19//19 17//17 26//26 
f 25//25 19//19 26//26 
f 15//15 21//21 16//16 
f 22//22 21//21 15//15 
f 14//14 22//22 15//15 
f 11//11 24//24 23//23 
f 11//11 10//10 24//24 
f 12//12 23//23 22//22 
f 12//12 22//22 14//14 
f 12//12 11//11 23//23 
f 13//13 12//12 14//14 
f 27//27 17//17 16//16 
f 27//27 21//21 26//26 
f 27//27 26//26 17//17 
f 27//27 16//16 21//21 
f 28//28 20//20 19//19 
f 28//28 10//10 20//20 
f 28//28 25//25 24//24 
f 28//28 19//19 25//25 
f 28//28 24//24 10//10 

g Face_3
v 0.05925 -0.0235 -0.1375
v 0.060266839999999995 -0.02328386 -0.1375
v 0.06110786 -0.02267283 -0.1375
v 0.06162764 -0.021772542000000002 -0.1375
v 0.061736299999999994 -0.020738679000000003 -0.1375
v 0.061415059999999994 -0.01975 -0.1375
v 0.060719459999999996 -0.01897746 -0.1375
v 0.059769778999999995 -0.018554630000000003 -0.1375
v 0.058730221 -0.018554630000000003 -0.1375
v 0.05778054 -0.01897746 -0.1375
v 0.057084939999999994 -0.01975 -0.1375
v 0.0567637 -0.020738679000000003 -0.1375
v 0.05687236 -0.021772542000000002 -0.1375
v 0.057392139999999994 -0.02267283 -0.1375
v 0.05823316 -0.02328386 -0.1375
v 0.05925 -0.0234 -0.1375
v 0.06016844 -0.02321731 -0.1375
v 0.06094706 -0.02269706 -0.1375
v 0.06146731 -0.02191844 -0.1375
v 0.061649999999999996 -0.021 -0.1375
v 0.06146731 -0.020081560000000002 -0.1375
v 0.06094706 -0.01930294 -0.1375
v 0.06016844 -0.01878269 -0.1375
v 0.05925 -0.018600000000000002 -0.1375
v 0.05833156 -0.01878269 -0.1375
v 0.05755294 -0.01930294 -0.1375
v 0.05703269 -0.020081560000000002 -0.1375
v 0.05685 -0.021 -0.1375
v 0.05703269 -0.02191844 -0.1375
v 0.05755294 -0.02269706 -0.1375
v 0.05833156 -0.02321731 -0.1375
vn -4.691e-17 -1.13124e-16 -1
vn -4.691e-17 -1.13124e-16 -1
vn -4.691e-17 -1.13124e-16 -1
vn -4.691e-17 -1.13124e-16 -1
vn -4.691e-17 -1.13124e-16 -1
vn -4.691e-17 -1.13124e-16 -1
vn -4.691e-17 -1.13124e-16 -1
vn -4.691e-17 -1.13124e-16 -1
vn -4.691e-17 -1.13124e-16 -1
vn -4.691e-17 -1.13124e-16 -1
vn -4.691e-17 -1.13124e-16 -1
vn -4.691e-17 -1.13124e-16 -1
vn -4.691e-17 -1.13124e-16 -1
vn -4.691e-17 -1.13124e-16 -1
vn -4.691e-17 -1.13124e-16 -1
vn -4.691e-17 -1.13124e-16 -1
vn -4.691e-17 -1.13124e-16 -1
vn -4.691e-17 -1.13124e-16 -1
vn -4.691e-17 -1.13124e-16 -1
vn -4.691e-17 -1.13124e-16 -1
vn -4.691e-17 -1.13124e-16 -1
vn -4.691e-17 -1.13124e-16 -1
vn -4.691e-17 -1.13124e-16 -1
vn -4.691e-17 -1.13124e-16 -1
vn -4.691e-17 -1.13124e-16 -1
vn -4.691e-17 -1.13124e-16 -1
vn -4.691e-17 -1.13124e-16 -1
vn -4.691e-17 -1.13124e-16 -1
vn -4.691e-17 -1.13124e-16 -1
vn -4.691e-17 -1.13124e-16 -1
vn -4.691e-17 -1.13124e-16 -1
f 43//43 42//42 58//58 
f 57//57 42//42 41//41 
f 57//57 58//58 42//42 
f 59//59 43//43 58//58 
f 29//29 43//43 59//59 
f 44//44 29//29 59//59 
f 56//56 57//57 41//41 
f 40//40 56//56 41//41 
f 45//45 29//29 44//44 
f 55//55 56//56 40//40 
f 30//30 29//29 45//45 
f 39//39 55//55 40//40 
f 46//46 30//30 45//45 
f 54//54 55//55 39//39 
f 31//31 30//30 46//46 
f 38//38 54//54 39//39 
f 53//53 54//54 38//38 
f 47//47 31//31 46//46 
f 32//32 31//31 47//47 
f 37//37 53//53 38//38 
f 48//48 32//32 47//47 
f 52//52 53//53 37//37 
f 33//33 32//32 48//48 
f 36//36 52//52 37//37 
f 49//49 33//33 48//48 
f 51//51 52//52 36//36 
f 34//34 49//49 50//50 
f 34//34 33//33 49//49 
f 35//35 50//50 51//51 
f 35//35 51//51 36//36 
f 35//35 34//34 50//50 

g Face_4
v 0.05925 -0.0235 -0.1375
v 0.06162764 -0.021772542000000002 -0.1375
v 0.060719459999999996 -0.01897746 -0.1375
v 0.05778054 -0.01897746 -0.1375
v 0.05687236 -0.021772542000000002 -0.1375
v 0.05925 -0.0235 -0.1375
v 0.05925 -0.0235 -0.1315
v 0.05925 -0.0235 -0.1315
v 0.06162764 -0.021772542000000002 -0.1315
v 0.060719459999999996 -0.01897746 -0.1315
v 0.05778054 -0.01897746 -0.1315
v 0.05687236 -0.021772542000000002 -0.1315
vn -5.55112e-17 -1 1.13124e-16
vn 0.951057 -0.309017 -9.65678e-18
vn 0.587785 0.809017 -1.19092e-16
vn -0.587785 0.809017 -6.39463e-17
vn -0.951057 -0.309017 7.95713e-17
vn -1.18862e-15 -1 1.13124e-16
vn -1.18862e-15 -1 1.13124e-16
vn -5.55112e-17 -1 1.13124e-16
vn 0.951057 -0.309017 -9.65678e-18
vn 0.587785 0.809017 -1.19092e-16
vn -0.587785 0.809017 -6.39463e-17
vn -0.951057 -0.309017 7.95713e-17
f 68//68 60//60 61//61 
f 68//68 67//67 60//60 
f 69//69 61//61 62//62 
f 69//69 68//68 61//61 
f 70//70 62//62 63//63 
f 70//70 69//69 62//62 
f 71//71 63//63 64//64 
f 71//71 70//70 63//63 
f 66//66 64//64 65//65 
f 66//66 71//71 64//64 

g Face_5
v 0.05925 -0.022500000000000003 -0.1356265
v 0.057950959999999996 -0.021750000000000002 -0.1356265
v 0.057950959999999996 -0.02025 -0.1356265
v 0.05925 -0.0195 -0.1356265
v 0.05925 -0.022500000000000003 -0.1315
v 0.05925 -0.022500000000000003 -0.1315
v 0.06075 -0.021 -0.1315
v 0.05925 -0.0195 -0.1315
v 0.057749999999999996 -0.021 -0.1315
v 0.05925 -0.022500000000000003 -0.1356265
v 0.06054904 -0.02025 -0.1356265
v 0.06054904 -0.021750000000000002 -0.1356265
vn 3.00441e-16 1 -1.13124e-16
vn 0.866025 0.5 -9.71873e-17
vn 0.866025 -0.5 1.59368e-17
vn -1.77976e-16 -1 1.13124e-16
vn 3.00441e-16 1 -1.13124e-16
vn 5.55112e-17 1 -1.13124e-16
vn -1 1.16743e-16 4.691e-17
vn -1.77976e-16 -1 1.13124e-16
vn 1 -1.12739e-15 -4.691e-17
vn 5.55112e-17 1 -1.13124e-16
vn -0.866025 -0.5 9.71873e-17
vn -0.866025 0.5 -1.59368e-17
f 77//77 83//83 81//81 
f 78//78 82//82 83//83 
f 78//78 83//83 77//77 
f 79//79 74//74 75//75 
f 79//79 75//75 82//82 
f 79//79 82//82 78//78 
f 80//80 73//73 74//74 
f 80//80 74//74 79//79 
f 76//76 72//72 73//73 
f 76//76 73//73 80//80 

