mtllib Pallier_Premiere_de_sonnerie.mtl
usemtl Pallier_Premiere_de_sonnerie
#Wavefront export of shape 1-38-4--Pallier_Premiere_de_sonnerie

g Face_1
v 0.04788395799999999 -0.20929353100000003 -0.1224
v 0.050308735680259994 -0.20585252967182002 -0.1224
v 0.05445646899999999 -0.20513395800000003 -0.1224
v 0.05789747032817999 -0.20755873568026004 -0.1224
v 0.05861604199999999 -0.211706469 -0.1224
v 0.05619126431973999 -0.21514747032818002 -0.1224
v 0.05204353099999999 -0.215866042 -0.1224
v 0.048602529671819994 -0.21344126431974 -0.1224
v 0.05022550359999999 -0.20981999020000003 -0.1224
v 0.05232665783543999 -0.20754070316608003 -0.1224
v 0.05535115423543999 -0.20822071296608002 -0.1224
v 0.05627449639999999 -0.2111800098 -0.1224
v 0.05417334216455999 -0.21345929683392 -0.1224
v 0.05114884576455999 -0.21277928703392002 -0.1224
vn -4.83733e-17 9.632e-18 -1
vn -4.83733e-17 9.632e-18 -1
vn -4.83733e-17 9.632e-18 -1
vn -4.83733e-17 9.632e-18 -1
vn -4.83733e-17 9.632e-18 -1
vn -4.83733e-17 9.632e-18 -1
vn -4.83733e-17 9.632e-18 -1
vn -4.83733e-17 9.632e-18 -1
vn -4.83733e-17 9.632e-18 -1
vn -4.83733e-17 9.632e-18 -1
vn -4.83733e-17 9.632e-18 -1
vn -4.83733e-17 9.632e-18 -1
vn -4.83733e-17 9.632e-18 -1
vn -4.83733e-17 9.632e-18 -1
f 13//13 6//6 7//7 
f 12//12 5//5 6//6 
f 12//12 6//6 13//13 
f 14//14 13//13 7//7 
f 8//8 14//14 7//7 
f 4//4 5//5 12//12 
f 11//11 4//4 12//12 
f 9//9 14//14 8//8 
f 1//1 9//9 8//8 
f 3//3 11//11 10//10 
f 3//3 4//4 11//11 
f 2//2 10//10 9//9 
f 2//2 9//9 1//1 
f 2//2 3//3 10//10 

g Face_2
v 0.04788395799999999 -0.20929353100000003 -0.1192
v 0.050308735680259994 -0.20585252967182002 -0.1192
v 0.05445646899999999 -0.20513395800000003 -0.1192
v 0.05789747032817999 -0.20755873568026004 -0.1192
v 0.05861604199999999 -0.211706469 -0.1192
v 0.05619126431973999 -0.21514747032818002 -0.1192
v 0.05204353099999999 -0.215866042 -0.1192
v 0.048602529671819994 -0.21344126431974 -0.1192
v 0.05022550359999999 -0.20981999020000003 -0.1192
v 0.052326657835439994 -0.20754070316608003 -0.1192
v 0.05535115423543999 -0.20822071296608002 -0.1192
v 0.05627449639999999 -0.2111800098 -0.1192
v 0.05417334216455999 -0.21345929683392 -0.1192
v 0.05114884576456 -0.21277928703392002 -0.1192
vn 4.83733e-17 -9.632e-18 1
vn 4.83733e-17 -9.632e-18 1
vn 4.83733e-17 -9.632e-18 1
vn 4.83733e-17 -9.632e-18 1
vn 4.83733e-17 -9.632e-18 1
vn 4.83733e-17 -9.632e-18 1
vn 4.83733e-17 -9.632e-18 1
vn 4.83733e-17 -9.632e-18 1
vn 4.83733e-17 -9.632e-18 1
vn 4.83733e-17 -9.632e-18 1
vn 4.83733e-17 -9.632e-18 1
vn 4.83733e-17 -9.632e-18 1
vn 4.83733e-17 -9.632e-18 1
vn 4.83733e-17 -9.632e-18 1
f 27//27 21//21 20//20 
f 26//26 20//20 19//19 
f 26//26 27//27 20//20 
f 28//28 21//21 27//27 
f 22//22 21//21 28//28 
f 18//18 26//26 19//19 
f 25//25 26//26 18//18 
f 23//23 22//22 28//28 
f 15//15 22//22 23//23 
f 17//17 24//24 25//25 
f 17//17 25//25 18//18 
f 16//16 23//23 24//24 
f 16//16 15//15 23//23 
f 16//16 24//24 17//17 

g Face_3
v 0.04788395799999999 -0.20929353100000003 -0.1224
v 0.050308735680259994 -0.20585252967182002 -0.1224
v 0.05445646899999999 -0.20513395800000003 -0.1224
v 0.05789747032817999 -0.20755873568026004 -0.1224
v 0.05861604199999999 -0.211706469 -0.1224
v 0.05619126431973999 -0.21514747032818002 -0.1224
v 0.05204353099999999 -0.215866042 -0.1224
v 0.048602529671819994 -0.21344126431974 -0.1224
v 0.04788395799999999 -0.20929353100000003 -0.1224
v 0.04788395799999999 -0.20929353100000003 -0.1192
v 0.050308735680259994 -0.20585252967182002 -0.1192
v 0.05445646899999999 -0.20513395800000003 -0.1192
v 0.05789747032817999 -0.20755873568026004 -0.1192
v 0.05861604199999999 -0.211706469 -0.1192
v 0.05619126431973999 -0.21514747032818002 -0.1192
v 0.05204353099999999 -0.215866042 -0.1192
v 0.048602529671819994 -0.21344126431974 -0.1192
v 0.04788395799999999 -0.20929353100000003 -0.1192
vn -1 3.67394e-16 4.83733e-17
vn -0.707107 0.707107 4.10159e-17
vn 3.06162e-16 1 9.632e-18
vn 0.707107 0.707107 -2.73942e-17
vn 1 -2.44929e-16 -4.83733e-17
vn 0.707107 -0.707107 -4.10159e-17
vn -1.83697e-16 -1 -9.632e-18
vn -0.707107 -0.707107 2.73942e-17
vn -1 1.22465e-16 4.83733e-17
vn -1 3.67394e-16 4.83733e-17
vn -0.707107 0.707107 4.10159e-17
vn 3.06162e-16 1 9.632e-18
vn 0.707107 0.707107 -2.73942e-17
vn 1 -2.44929e-16 -4.83733e-17
vn 0.707107 -0.707107 -4.10159e-17
vn -1.83697e-16 -1 -9.632e-18
vn -0.707107 -0.707107 2.73942e-17
vn -1 1.22465e-16 4.83733e-17
f 45//45 37//37 36//36 
f 45//45 46//46 37//37 
f 44//44 36//36 35//35 
f 44//44 45//45 36//36 
f 43//43 35//35 34//34 
f 43//43 44//44 35//35 
f 42//42 34//34 33//33 
f 42//42 43//43 34//34 
f 41//41 33//33 32//32 
f 41//41 42//42 33//33 
f 40//40 32//32 31//31 
f 40//40 41//41 32//32 
f 39//39 31//31 30//30 
f 39//39 40//40 31//31 
f 38//38 30//30 29//29 
f 38//38 39//39 30//30 

g Face_4
v 0.05022550359999999 -0.20981999020000003 -0.1224
v 0.05232665783543999 -0.20754070316608003 -0.1224
v 0.05535115423543999 -0.20822071296608002 -0.1224
v 0.05627449639999999 -0.2111800098 -0.1224
v 0.05417334216455999 -0.21345929683392 -0.1224
v 0.05114884576455999 -0.21277928703392002 -0.1224
v 0.05022550359999999 -0.20981999020000003 -0.1224
v 0.05022550359999999 -0.20981999020000003 -0.1192
v 0.052326657835439994 -0.20754070316608003 -0.1192
v 0.05535115423543999 -0.20822071296608002 -0.1192
v 0.05627449639999999 -0.2111800098 -0.1192
v 0.05417334216455999 -0.21345929683392 -0.1192
v 0.05114884576456 -0.21277928703392002 -0.1192
v 0.05022550359999999 -0.20981999020000003 -0.1192
vn 1 -3.67394e-16 -4.83733e-17
vn 0.5 -0.866025 -3.25282e-17
vn -0.5 -0.866025 1.58451e-17
vn -1 2.44929e-16 4.83733e-17
vn -0.5 0.866025 3.25282e-17
vn 0.5 0.866025 -1.58451e-17
vn 1 -1.22465e-16 -4.83733e-17
vn 1 -3.67394e-16 -4.83733e-17
vn 0.5 -0.866025 -3.25282e-17
vn -0.5 -0.866025 1.58451e-17
vn -1 2.44929e-16 4.83733e-17
vn -0.5 0.866025 3.25282e-17
vn 0.5 0.866025 -1.58451e-17
vn 1 -1.22465e-16 -4.83733e-17
f 59//59 52//52 53//53 
f 59//59 53//53 60//60 
f 58//58 51//51 52//52 
f 58//58 52//52 59//59 
f 57//57 50//50 51//51 
f 57//57 51//51 58//58 
f 56//56 49//49 50//50 
f 56//56 50//50 57//57 
f 55//55 48//48 49//49 
f 55//55 49//49 56//56 
f 54//54 47//47 48//48 
f 54//54 48//48 55//55 

