mtllib Pallier_barillet_avant_(12_7.5)_instance_1.mtl
usemtl Pallier_barillet_avant_(12_7.5)_instance_1
#Wavefront export of shape 1-8-3--Pallier_barillet_avant__12_7_5_

g Face_1
v 0.05900000000000001 -0.258 -0.0405
v 0.05724264000000001 -0.25375736 -0.0405
v 0.05300000000000001 -0.252 -0.0405
v 0.04875736000000001 -0.25375736 -0.0405
v 0.047000000000000014 -0.258 -0.0405
v 0.04875736000000001 -0.26224264 -0.0405
v 0.05300000000000001 -0.264 -0.0405
v 0.05724264000000001 -0.26224264 -0.0405
v 0.056700000000000014 -0.258 -0.0405
v 0.05485000000000001 -0.25479571 -0.0405
v 0.051150000000000015 -0.25479571 -0.0405
v 0.04930000000000001 -0.258 -0.0405
v 0.051150000000000015 -0.26120429 -0.0405
v 0.05485000000000001 -0.26120429 -0.0405
vn 0 0 1
vn 0 0 1
vn 0 0 1
vn 0 0 1
vn 0 0 1
vn 0 0 1
vn 0 0 1
vn 0 0 1
vn 0 0 1
vn 0 0 1
vn 0 0 1
vn 0 0 1
vn 0 0 1
vn 0 0 1
f 13//13 6//6 7//7 
f 12//12 5//5 6//6 
f 12//12 6//6 13//13 
f 14//14 13//13 7//7 
f 8//8 14//14 7//7 
f 4//4 5//5 12//12 
f 11//11 4//4 12//12 
f 9//9 14//14 8//8 
f 1//1 9//9 8//8 
f 3//3 11//11 10//10 
f 3//3 4//4 11//11 
f 2//2 10//10 9//9 
f 2//2 3//3 10//10 
f 2//2 9//9 1//1 

g Face_2
v 0.05900000000000001 -0.258 -0.0465
v 0.05724264000000001 -0.25375736 -0.0465
v 0.05300000000000001 -0.252 -0.0465
v 0.04875736000000001 -0.25375736 -0.0465
v 0.047000000000000014 -0.258 -0.0465
v 0.04875736000000001 -0.26224264 -0.0465
v 0.05300000000000001 -0.264 -0.0465
v 0.05724264000000001 -0.26224264 -0.0465
v 0.056700000000000014 -0.258 -0.0465
v 0.05485000000000001 -0.25479571 -0.0465
v 0.051150000000000015 -0.25479571 -0.0465
v 0.04930000000000001 -0.258 -0.0465
v 0.051150000000000015 -0.26120429 -0.0465
v 0.05485000000000001 -0.26120429 -0.0465
vn -0 -0 -1
vn -0 -0 -1
vn -0 -0 -1
vn -0 -0 -1
vn -0 -0 -1
vn -0 -0 -1
vn -0 -0 -1
vn -0 -0 -1
vn -0 -0 -1
vn -0 -0 -1
vn -0 -0 -1
vn -0 -0 -1
vn -0 -0 -1
vn -0 -0 -1
f 27//27 21//21 20//20 
f 26//26 20//20 19//19 
f 26//26 27//27 20//20 
f 28//28 21//21 27//27 
f 22//22 21//21 28//28 
f 18//18 26//26 19//19 
f 25//25 26//26 18//18 
f 23//23 22//22 28//28 
f 15//15 22//22 23//23 
f 17//17 24//24 25//25 
f 17//17 25//25 18//18 
f 16//16 23//23 24//24 
f 16//16 24//24 17//17 
f 16//16 15//15 23//23 

g Face_3
v 0.05900000000000001 -0.258 -0.0405
v 0.05724264000000001 -0.25375736 -0.0405
v 0.05300000000000001 -0.252 -0.0405
v 0.04875736000000001 -0.25375736 -0.0405
v 0.047000000000000014 -0.258 -0.0405
v 0.04875736000000001 -0.26224264 -0.0405
v 0.05300000000000001 -0.264 -0.0405
v 0.05724264000000001 -0.26224264 -0.0405
v 0.05900000000000001 -0.258 -0.0405
v 0.05900000000000001 -0.258 -0.0465
v 0.05724264000000001 -0.25375736 -0.0465
v 0.05300000000000001 -0.252 -0.0465
v 0.04875736000000001 -0.25375736 -0.0465
v 0.047000000000000014 -0.258 -0.0465
v 0.04875736000000001 -0.26224264 -0.0465
v 0.05300000000000001 -0.264 -0.0465
v 0.05724264000000001 -0.26224264 -0.0465
v 0.05900000000000001 -0.258 -0.0465
vn 1 3.67394e-16 -0
vn 0.707107 0.707107 -0
vn -3.06162e-16 1 0
vn -0.707107 0.707107 0
vn -1 -2.44929e-16 0
vn -0.707107 -0.707107 0
vn 1.83697e-16 -1 0
vn 0.707107 -0.707107 0
vn 1 1.22465e-16 -0
vn 1 3.67394e-16 -0
vn 0.707107 0.707107 -0
vn -3.06162e-16 1 0
vn -0.707107 0.707107 0
vn -1 -2.44929e-16 0
vn -0.707107 -0.707107 0
vn 1.83697e-16 -1 0
vn 0.707107 -0.707107 0
vn 1 1.22465e-16 -0
f 45//45 37//37 36//36 
f 45//45 46//46 37//37 
f 44//44 36//36 35//35 
f 44//44 45//45 36//36 
f 43//43 35//35 34//34 
f 43//43 44//44 35//35 
f 42//42 34//34 33//33 
f 42//42 43//43 34//34 
f 41//41 33//33 32//32 
f 41//41 42//42 33//33 
f 40//40 32//32 31//31 
f 40//40 41//41 32//32 
f 39//39 31//31 30//30 
f 39//39 40//40 31//31 
f 38//38 30//30 29//29 
f 38//38 39//39 30//30 

g Face_4
v 0.056700000000000014 -0.258 -0.0405
v 0.05485000000000001 -0.25479571 -0.0405
v 0.051150000000000015 -0.25479571 -0.0405
v 0.04930000000000001 -0.258 -0.0405
v 0.051150000000000015 -0.26120429 -0.0405
v 0.05485000000000001 -0.26120429 -0.0405
v 0.056700000000000014 -0.258 -0.0405
v 0.056700000000000014 -0.258 -0.0465
v 0.05485000000000001 -0.25479571 -0.0465
v 0.051150000000000015 -0.25479571 -0.0465
v 0.04930000000000001 -0.258 -0.0465
v 0.051150000000000015 -0.26120429 -0.0465
v 0.05485000000000001 -0.26120429 -0.0465
v 0.056700000000000014 -0.258 -0.0465
vn -1 -3.67394e-16 0
vn -0.5 -0.866025 0
vn 0.5 -0.866025 -0
vn 1 2.44929e-16 -0
vn 0.5 0.866025 -0
vn -0.5 0.866025 -0
vn -1 -1.22465e-16 0
vn -1 -3.67394e-16 0
vn -0.5 -0.866025 0
vn 0.5 -0.866025 -0
vn 1 2.44929e-16 -0
vn 0.5 0.866025 -0
vn -0.5 0.866025 -0
vn -1 -1.22465e-16 0
f 59//59 52//52 53//53 
f 59//59 53//53 60//60 
f 58//58 51//51 52//52 
f 58//58 52//52 59//59 
f 57//57 50//50 51//51 
f 57//57 51//51 58//58 
f 56//56 49//49 50//50 
f 56//56 50//50 57//57 
f 55//55 48//48 49//49 
f 55//55 49//49 56//56 
f 54//54 47//47 48//48 
f 54//54 48//48 55//55 

