mtllib Pallier_roue_de_temps_Heures.mtl
usemtl Pallier_roue_de_temps_Heures
#Wavefront export of shape 1-8-5--Pallier_roue_de_temps_Heures

g Face_1
v 0.05325 -0.2075 -0.0465
v 0.05584808 -0.209 -0.0465
v 0.05584808 -0.212 -0.0465
v 0.05325 -0.2135 -0.0465
v 0.050651919999999996 -0.212 -0.0465
v 0.050651919999999996 -0.209 -0.0465
v 0.05325 -0.20929999999999999 -0.0465
v 0.05445 -0.2105 -0.0465
v 0.05325 -0.2117 -0.0465
v 0.05205 -0.2105 -0.0465
vn 0 1.22465e-16 -1
vn 0 1.22465e-16 -1
vn 0 1.22465e-16 -1
vn 0 1.22465e-16 -1
vn 0 1.22465e-16 -1
vn 0 1.22465e-16 -1
vn 0 1.22465e-16 -1
vn 0 1.22465e-16 -1
vn 0 1.22465e-16 -1
vn 0 1.22465e-16 -1
f 9//9 4//4 5//5 
f 10//10 9//9 5//5 
f 6//6 10//10 5//5 
f 3//3 4//4 9//9 
f 8//8 3//3 9//9 
f 7//7 10//10 6//6 
f 1//1 7//7 6//6 
f 2//2 8//8 7//7 
f 2//2 7//7 1//1 
f 2//2 3//3 8//8 

g Face_2
v 0.05325 -0.208 -0.0405
v 0.0545 -0.20833494 -0.0405
v 0.05541506 -0.20925 -0.0405
v 0.05575 -0.2105 -0.0405
v 0.05575 -0.2105 -0.0405
v 0.0545 -0.21266506 -0.0405
v 0.052 -0.21266506 -0.0405
v 0.050749999999999997 -0.2105 -0.0405
v 0.050749999999999997 -0.2105 -0.0405
v 0.051084939999999995 -0.20925 -0.0405
v 0.052 -0.20833494 -0.0405
v 0.05325 -0.2117 -0.04269317
v 0.05428923 -0.21109999999999998 -0.04269317
v 0.05428923 -0.2099 -0.04269317
v 0.05325 -0.20929999999999999 -0.04269317
v 0.05221077 -0.2099 -0.04269317
v 0.05221077 -0.21109999999999998 -0.04269317
v 0.052 -0.21237499999999998 -0.04158253
v 0.052 -0.2105 -0.04266506
v 0.052 -0.208625 -0.04158253
v 0.0545 -0.21158253 -0.042374999999999996
v 0.0545 -0.20941747 -0.042374999999999996
vn 1.11022e-15 -1 2.44929e-16
vn -0.5 -0.866025 2.12115e-16
vn -0.866025 -0.5 1.22465e-16
vn -1 -6.12323e-17 1.49976e-32
vn -1 6.12323e-17 -7.4988e-33
vn -0.5 0.866025 -4.9065e-16
vn 0.5 0.866025 2.78535e-16
vn 1 6.12323e-17 -7.4988e-33
vn 1 -6.12323e-17 1.49976e-32
vn 0.866025 -0.5 1.22465e-16
vn 0.5 -0.866025 2.12115e-16
vn -0 0.48 0.877268
vn -0.415691 0.239984 0.877273
vn -0.415691 -0.239984 0.877273
vn -0 -0.48 0.877268
vn 0.415691 -0.239984 0.877273
vn 0.415691 0.239984 0.877273
vn 0.5 0.75 0.433013
vn 0.5 1.59086e-16 0.866025
vn 0.5 -0.75 0.433013
vn -0.5 0.433013 0.75
vn -0.5 -0.433013 0.75
f 20//20 19//19 18//18 
f 16//16 22//22 17//17 
f 23//23 22//22 16//16 
f 11//11 25//25 24//24 
f 12//12 11//11 24//24 
f 14//14 13//13 15//15 
f 28//28 18//18 17//17 
f 28//28 22//22 27//27 
f 28//28 17//17 22//22 
f 29//29 27//27 26//26 
f 29//29 20//20 18//18 
f 29//29 28//28 27//27 
f 29//29 18//18 28//28 
f 30//30 21//21 20//20 
f 30//30 11//11 21//21 
f 30//30 26//26 25//25 
f 30//30 20//20 29//29 
f 30//30 25//25 11//11 
f 30//30 29//29 26//26 
f 31//31 16//16 15//15 
f 31//31 23//23 16//16 
f 31//31 15//15 13//13 
f 32//32 13//13 12//12 
f 32//32 24//24 23//23 
f 32//32 12//12 24//24 
f 32//32 31//31 13//13 
f 32//32 23//23 31//31 

g Face_3
v 0.05325 -0.2075 -0.0405
v 0.05584808 -0.209 -0.0405
v 0.05584808 -0.212 -0.0405
v 0.05325 -0.2135 -0.0405
v 0.050651919999999996 -0.212 -0.0405
v 0.050651919999999996 -0.209 -0.0405
v 0.05325 -0.208 -0.0405
v 0.0545 -0.20833494 -0.0405
v 0.05541506 -0.20925 -0.0405
v 0.05575 -0.2105 -0.0405
v 0.0545 -0.21266506 -0.0405
v 0.052 -0.21266506 -0.0405
v 0.050749999999999997 -0.2105 -0.0405
v 0.051084939999999995 -0.20925 -0.0405
v 0.052 -0.20833494 -0.0405
vn 0 -1.22465e-16 1
vn 0 -1.22465e-16 1
vn 0 -1.22465e-16 1
vn 0 -1.22465e-16 1
vn 0 -1.22465e-16 1
vn 0 -1.22465e-16 1
vn 0 -1.22465e-16 1
vn 0 -1.22465e-16 1
vn 0 -1.22465e-16 1
vn 0 -1.22465e-16 1
vn 0 -1.22465e-16 1
vn 0 -1.22465e-16 1
vn 0 -1.22465e-16 1
vn 0 -1.22465e-16 1
vn 0 -1.22465e-16 1
f 46//46 47//47 38//38 
f 39//39 33//33 47//47 
f 45//45 46//46 38//38 
f 37//37 45//45 38//38 
f 40//40 33//33 39//39 
f 44//44 45//45 37//37 
f 34//34 40//40 41//41 
f 34//34 33//33 40//40 
f 42//42 34//34 41//41 
f 43//43 44//44 36//36 
f 35//35 42//42 43//43 
f 35//35 43//43 36//36 
f 35//35 34//34 42//42 
f 37//37 36//36 44//44 
f 33//33 38//38 47//47 

g Face_4
v 0.05325 -0.2075 -0.0405
v 0.05584808 -0.209 -0.0405
v 0.05584808 -0.212 -0.0405
v 0.05325 -0.2135 -0.0405
v 0.050651919999999996 -0.212 -0.0405
v 0.050651919999999996 -0.209 -0.0405
v 0.05325 -0.2075 -0.0405
v 0.05325 -0.2075 -0.0465
v 0.05325 -0.2075 -0.0465
v 0.05584808 -0.209 -0.0465
v 0.05584808 -0.212 -0.0465
v 0.05325 -0.2135 -0.0465
v 0.050651919999999996 -0.212 -0.0465
v 0.050651919999999996 -0.209 -0.0465
vn -0 1 1.22465e-16
vn 0.866025 0.5 6.12323e-17
vn 0.866025 -0.5 -6.12323e-17
vn 1.22465e-16 -1 -1.22465e-16
vn -0.866025 -0.5 -6.12323e-17
vn -0.866025 0.5 6.12323e-17
vn -2.44929e-16 1 1.22465e-16
vn -2.44929e-16 1 1.22465e-16
vn -0 1 1.22465e-16
vn 0.866025 0.5 6.12323e-17
vn 0.866025 -0.5 -6.12323e-17
vn 1.22465e-16 -1 -1.22465e-16
vn -0.866025 -0.5 -6.12323e-17
vn -0.866025 0.5 6.12323e-17
f 57//57 48//48 49//49 
f 57//57 56//56 48//48 
f 58//58 49//49 50//50 
f 58//58 57//57 49//49 
f 59//59 50//50 51//51 
f 59//59 58//58 50//50 
f 60//60 51//51 52//52 
f 60//60 59//59 51//51 
f 61//61 52//52 53//53 
f 61//61 60//60 52//52 
f 55//55 53//53 54//54 
f 55//55 61//61 53//53 

g Face_5
v 0.05325 -0.20929999999999999 -0.04269317
v 0.05221077 -0.2099 -0.04269317
v 0.05221077 -0.21109999999999998 -0.04269317
v 0.05325 -0.2117 -0.04269317
v 0.05325 -0.20929999999999999 -0.0465
v 0.05325 -0.20929999999999999 -0.0465
v 0.05445 -0.2105 -0.0465
v 0.05325 -0.2117 -0.0465
v 0.05205 -0.2105 -0.0465
v 0.05325 -0.20929999999999999 -0.04269317
v 0.05428923 -0.21109999999999998 -0.04269317
v 0.05428923 -0.2099 -0.04269317
vn 2.44929e-16 -1 -1.22465e-16
vn 0.866025 -0.5 -6.12323e-17
vn 0.866025 0.5 6.12323e-17
vn -1.22465e-16 1 1.22465e-16
vn 2.44929e-16 -1 -1.22465e-16
vn 0 -1 -1.22465e-16
vn -1 -6.12323e-17 -7.4988e-33
vn -1.22465e-16 1 1.22465e-16
vn 1 1.83697e-16 2.24964e-32
vn 0 -1 -1.22465e-16
vn -0.866025 0.5 6.12323e-17
vn -0.866025 -0.5 -6.12323e-17
f 67//67 73//73 71//71 
f 68//68 72//72 73//73 
f 68//68 73//73 67//67 
f 69//69 64//64 65//65 
f 69//69 65//65 72//72 
f 69//69 72//72 68//68 
f 70//70 63//63 64//64 
f 70//70 64//64 69//69 
f 66//66 62//62 63//63 
f 66//66 63//63 70//70 

