mtllib Pied_Timbre_-_Ecrou_instance_2.mtl
usemtl Pied_Timbre_-_Ecrou_instance_2
#Wavefront export of shape 1-99-4--Pied_Timbre_-_Ecrou

g Face_1
v 0.2135 0.0727076 -0.0585
v 0.2135 0.0702076 -0.0585
v 0.2135 0.0727076 -0.07150000000000001
v 0.2135 0.0702076 -0.07150000000000001
vn 1 -0 -0
vn 1 -0 -0
vn 1 -0 -0
vn 1 -0 -0
f 1//1 4//4 3//3 
f 1//1 2//2 4//4 

g Face_2
v 0.2135 0.0727076 -0.07150000000000001
v 0.2135 0.0702076 -0.07150000000000001
v 0.20049999999999998 0.0727076 -0.07150000000000001
v 0.20049999999999998 0.0702076 -0.07150000000000001
vn -0 -0 -1
vn -0 -0 -1
vn -0 -0 -1
vn -0 -0 -1
f 5//5 8//8 7//7 
f 5//5 6//6 8//8 

g Face_3
v 0.20049999999999998 0.0727076 -0.07150000000000001
v 0.20049999999999998 0.0702076 -0.07150000000000001
v 0.20049999999999998 0.0727076 -0.0585
v 0.20049999999999998 0.0702076 -0.0585
vn -1 0 -0
vn -1 0 -0
vn -1 0 -0
vn -1 0 -0
f 9//9 12//12 11//11 
f 9//9 10//10 12//12 

g Face_4
v 0.20049999999999998 0.0727076 -0.0585
v 0.20049999999999998 0.0702076 -0.0585
v 0.2135 0.0727076 -0.0585
v 0.2135 0.0702076 -0.0585
vn -0 -0 1
vn -0 -0 1
vn -0 -0 1
vn -0 -0 1
f 13//13 16//16 15//15 
f 13//13 14//14 16//16 

g Face_5
v 0.20049999999999998 0.0727076 -0.0585
v 0.2135 0.0727076 -0.0585
v 0.20049999999999998 0.0727076 -0.07150000000000001
v 0.2135 0.0727076 -0.07150000000000001
v 0.207 0.0727076 -0.0631
v 0.20880701 0.0727076 -0.064412868
v 0.20811679 0.0727076 -0.06653713
v 0.20588320999999998 0.0727076 -0.06653713
v 0.20519299 0.0727076 -0.064412868
vn -0 1 -0
vn -0 1 -0
vn -0 1 -0
vn -0 1 -0
vn -0 1 -0
vn -0 1 -0
vn -0 1 -0
vn -0 1 -0
vn -0 1 -0
f 21//21 25//25 17//17 
f 18//18 21//21 17//17 
f 19//19 17//17 25//25 
f 24//24 19//19 25//25 
f 22//22 21//21 18//18 
f 20//20 23//23 22//22 
f 20//20 24//24 23//23 
f 20//20 19//19 24//24 
f 20//20 22//22 18//18 

g Face_6
v 0.2135 0.0702076 -0.0585
v 0.2135 0.0702076 -0.07150000000000001
v 0.20049999999999998 0.0702076 -0.0585
v 0.20049999999999998 0.0702076 -0.07150000000000001
v 0.207 0.0702076 -0.0631
v 0.20880701 0.0702076 -0.064412868
v 0.20811679 0.0702076 -0.06653713
v 0.20588320999999998 0.0702076 -0.06653713
v 0.20519299 0.0702076 -0.064412868
vn 0 -1 0
vn 0 -1 0
vn 0 -1 0
vn 0 -1 0
vn 0 -1 0
vn 0 -1 0
vn 0 -1 0
vn 0 -1 0
vn 0 -1 0
f 30//30 28//28 34//34 
f 29//29 34//34 28//28 
f 26//26 28//28 30//30 
f 33//33 34//34 29//29 
f 31//31 26//26 30//30 
f 27//27 31//31 32//32 
f 27//27 32//32 33//33 
f 27//27 33//33 29//29 
f 27//27 26//26 31//31 

g Face_7
v 0.207 0.0702076 -0.0631
v 0.20880701 0.0702076 -0.064412868
v 0.20811679 0.0702076 -0.06653713
v 0.20588320999999998 0.0702076 -0.06653713
v 0.20519299 0.0702076 -0.064412868
v 0.207 0.0702076 -0.0631
v 0.207 0.0727076 -0.0631
v 0.207 0.0727076 -0.0631
v 0.20880701 0.0727076 -0.064412868
v 0.20811679 0.0727076 -0.06653713
v 0.20588320999999998 0.0727076 -0.06653713
v 0.20519299 0.0727076 -0.064412868
vn -0 -0 -1
vn -0.951057 0 -0.309017
vn -0.587785 -0 0.809017
vn 0.587785 -0 0.809017
vn 0.951057 -0 -0.309017
vn 2.44929e-16 -0 -1
vn 2.44929e-16 -0 -1
vn -0 -0 -1
vn -0.951057 0 -0.309017
vn -0.587785 -0 0.809017
vn 0.587785 -0 0.809017
vn 0.951057 -0 -0.309017
f 43//43 36//36 35//35 
f 43//43 35//35 42//42 
f 44//44 37//37 36//36 
f 44//44 36//36 43//43 
f 45//45 38//38 37//37 
f 45//45 37//37 44//44 
f 46//46 39//39 38//38 
f 46//46 38//38 45//45 
f 41//41 40//40 39//39 
f 41//41 39//39 46//46 

