mtllib Pied_de_limacon_-_plaque.mtl
usemtl Pied_de_limacon_-_plaque
#Wavefront export of shape 1-8-9-1--Pied_de_limacon_-_plaque

g Face_1
v 0.042249999999999996 -0.1785 -0.03699999999999999
v 0.042249999999999996 -0.1785 -0.040499999999999994
v 0.042249999999999996 -0.1935 -0.03699999999999999
v 0.042249999999999996 -0.1935 -0.040499999999999994
vn -1 -1.15648e-16 0
vn -1 -1.15648e-16 0
vn -1 -1.15648e-16 0
vn -1 -1.15648e-16 0
f 1//1 4//4 3//3 
f 1//1 2//2 4//4 

g Face_2
v 0.042249999999999996 -0.1935 -0.03699999999999999
v 0.042249999999999996 -0.1935 -0.040499999999999994
v 0.10125 -0.1935 -0.03699999999999999
v 0.10125 -0.1935 -0.040499999999999994
vn -0 -1 -0
vn -0 -1 -0
vn -0 -1 -0
vn -0 -1 -0
f 7//7 5//5 6//6 
f 7//7 6//6 8//8 

g Face_3
v 0.10125 -0.1935 -0.03699999999999999
v 0.10125 -0.1935 -0.040499999999999994
v 0.10125 -0.1785 -0.03699999999999999
v 0.10125 -0.1785 -0.040499999999999994
vn 1 -0 -0
vn 1 -0 -0
vn 1 -0 -0
vn 1 -0 -0
f 11//11 9//9 10//10 
f 11//11 10//10 12//12 

g Face_4
v 0.10125 -0.1785 -0.03699999999999999
v 0.10125 -0.1785 -0.040499999999999994
v 0.042249999999999996 -0.1785 -0.03699999999999999
v 0.042249999999999996 -0.1785 -0.040499999999999994
vn -0 1 -0
vn -0 1 -0
vn -0 1 -0
vn -0 1 -0
f 14//14 15//15 13//13 
f 14//14 16//16 15//15 

g Face_5
v 0.042249999999999996 -0.1785 -0.03699999999999999
v 0.042249999999999996 -0.1935 -0.03699999999999999
v 0.10125 -0.1935 -0.03699999999999999
v 0.10125 -0.1785 -0.03699999999999999
v 0.0565 -0.1855 -0.03699999999999999
v 0.054945288 -0.18763988 -0.03699999999999999
v 0.05242971 -0.18682252 -0.03699999999999999
v 0.05242971 -0.18417748 -0.03699999999999999
v 0.054945288 -0.18336012 -0.03699999999999999
v 0.09275 -0.1855 -0.03699999999999999
v 0.09447749999999999 -0.18312236 -0.03699999999999999
v 0.0972725 -0.18403054 -0.03699999999999999
v 0.0972725 -0.18696946 -0.03699999999999999
v 0.09447749999999999 -0.18787763999999998 -0.03699999999999999
vn 0 0 1
vn 0 0 1
vn 0 0 1
vn 0 0 1
vn 0 0 1
vn 0 0 1
vn 0 0 1
vn 0 0 1
vn 0 0 1
vn 0 0 1
vn 0 0 1
vn 0 0 1
vn 0 0 1
vn 0 0 1
f 23//23 17//17 18//18 
f 22//22 23//23 18//18 
f 24//24 17//17 23//23 
f 25//25 17//17 24//24 
f 26//26 21//21 22//22 
f 26//26 25//25 21//21 
f 26//26 22//22 30//30 
f 19//19 22//22 18//18 
f 19//19 30//30 22//22 
f 29//29 30//30 19//19 
f 27//27 25//25 26//26 
f 20//20 27//27 28//28 
f 20//20 28//28 29//29 
f 20//20 29//29 19//19 
f 20//20 17//17 27//27 
f 27//27 17//17 25//25 

g Face_6
v 0.042249999999999996 -0.1935 -0.040499999999999994
v 0.10125 -0.1935 -0.040499999999999994
v 0.10125 -0.1785 -0.040499999999999994
v 0.042249999999999996 -0.1785 -0.040499999999999994
v 0.04805 -0.181 -0.040499999999999994
v 0.04675 -0.1797 -0.040499999999999994
v 0.04545 -0.181 -0.040499999999999994
v 0.04675 -0.1823 -0.040499999999999994
v 0.06205 -0.1865 -0.040499999999999994
v 0.06075 -0.1852 -0.040499999999999994
v 0.05945 -0.1865 -0.040499999999999994
v 0.06075 -0.1878 -0.040499999999999994
v 0.0565 -0.1855 -0.040499999999999994
v 0.054945288 -0.18336012 -0.040499999999999994
v 0.05242971 -0.18417748 -0.040499999999999994
v 0.05242971 -0.18682252 -0.040499999999999994
v 0.054945288 -0.18763988 -0.040499999999999994
v 0.09275 -0.1855 -0.040499999999999994
v 0.09447749999999999 -0.18312236 -0.040499999999999994
v 0.0972725 -0.18403054 -0.040499999999999994
v 0.0972725 -0.18696946 -0.040499999999999994
v 0.09447749999999999 -0.18787763999999998 -0.040499999999999994
vn -0 -0 -1
vn -0 -0 -1
vn -0 -0 -1
vn -0 -0 -1
vn -0 -0 -1
vn -0 -0 -1
vn -0 -0 -1
vn -0 -0 -1
vn -0 -0 -1
vn -0 -0 -1
vn -0 -0 -1
vn -0 -0 -1
vn -0 -0 -1
vn -0 -0 -1
vn -0 -0 -1
vn -0 -0 -1
vn -0 -0 -1
vn -0 -0 -1
vn -0 -0 -1
vn -0 -0 -1
vn -0 -0 -1
vn -0 -0 -1
f 37//37 31//31 34//34 
f 38//38 31//31 37//37 
f 46//46 31//31 38//38 
f 36//36 37//37 34//34 
f 47//47 31//31 46//46 
f 45//45 38//38 35//35 
f 45//45 46//46 38//38 
f 44//44 35//35 36//36 
f 44//44 45//45 35//35 
f 42//42 31//31 47//47 
f 41//41 47//47 43//43 
f 41//41 42//42 47//47 
f 40//40 43//43 44//44 
f 40//40 41//41 43//43 
f 52//52 42//42 39//39 
f 48//48 52//52 39//39 
f 32//32 42//42 52//52 
f 32//32 31//31 42//42 
f 51//51 32//32 52//52 
f 49//49 39//39 40//40 
f 49//49 48//48 39//39 
f 33//33 50//50 49//49 
f 33//33 51//51 50//50 
f 33//33 32//32 51//51 
f 33//33 36//36 34//34 
f 33//33 44//44 36//36 
f 33//33 40//40 44//44 
f 33//33 49//49 40//40 

g Face_7
v 0.056 -0.1855 -0.03799999999999999
v 0.05479078 -0.18383565 -0.03799999999999999
v 0.05283422 -0.18447138 -0.03799999999999999
v 0.05283422 -0.18652862 -0.03799999999999999
v 0.05479078 -0.18716435 -0.03799999999999999
v 0.056 -0.1855 -0.03799999999999999
v 0.056 -0.1855 -0.03949999999999999
v 0.056 -0.1855 -0.03949999999999999
v 0.05479078 -0.18716435 -0.03949999999999999
v 0.05283422 -0.18652862 -0.03949999999999999
v 0.05283422 -0.18447138 -0.03949999999999999
v 0.05479078 -0.18383565 -0.03949999999999999
vn -1 -3.67394e-16 0
vn -0.309017 -0.951057 0
vn 0.809017 -0.587785 -0
vn 0.809017 0.587785 -0
vn -0.309017 0.951057 -0
vn -1 -1.22465e-16 0
vn -1 -3.67394e-16 0
vn -1 -1.22465e-16 0
vn -0.309017 0.951057 -0
vn 0.809017 0.587785 -0
vn 0.809017 -0.587785 -0
vn -0.309017 -0.951057 0
f 61//61 57//57 58//58 
f 61//61 58//58 60//60 
f 62//62 56//56 57//57 
f 62//62 57//57 61//61 
f 63//63 55//55 56//56 
f 63//63 56//56 62//62 
f 64//64 54//54 55//55 
f 64//64 55//55 63//63 
f 59//59 53//53 54//54 
f 59//59 54//54 64//64 

g Face_8
v 0.09275 -0.1855 -0.03699999999999999
v 0.09447749999999999 -0.18312236 -0.03699999999999999
v 0.0972725 -0.18403054 -0.03699999999999999
v 0.0972725 -0.18696946 -0.03699999999999999
v 0.09447749999999999 -0.18787763999999998 -0.03699999999999999
v 0.09275 -0.1855 -0.03699999999999999
v 0.09275 -0.1855 -0.040499999999999994
v 0.09275 -0.1855 -0.040499999999999994
v 0.09447749999999999 -0.18312236 -0.040499999999999994
v 0.0972725 -0.18403054 -0.040499999999999994
v 0.0972725 -0.18696946 -0.040499999999999994
v 0.09447749999999999 -0.18787763999999998 -0.040499999999999994
vn 1 -0 -0
vn 0.309017 -0.951057 -0
vn -0.809017 -0.587785 0
vn -0.809017 0.587785 -0
vn 0.309017 0.951057 -0
vn 1 2.44929e-16 -0
vn 1 2.44929e-16 -0
vn 1 -0 -0
vn 0.309017 -0.951057 -0
vn -0.809017 -0.587785 0
vn -0.809017 0.587785 -0
vn 0.309017 0.951057 -0
f 73//73 66//66 65//65 
f 73//73 65//65 72//72 
f 74//74 67//67 66//66 
f 74//74 66//66 73//73 
f 75//75 68//68 67//67 
f 75//75 67//67 74//74 
f 76//76 69//69 68//68 
f 76//76 68//68 75//75 
f 71//71 70//70 69//69 
f 71//71 69//69 76//76 

g Face_9
v 0.04595 -0.181 -0.039999999999999994
v 0.04635 -0.18030718 -0.039999999999999994
v 0.04715 -0.18030718 -0.039999999999999994
v 0.04755 -0.181 -0.039999999999999994
v 0.04595 -0.181 -0.03849999999999999
v 0.04715 -0.18030718 -0.03849999999999999
v 0.04715 -0.18169282 -0.03849999999999999
v 0.04595 -0.181 -0.03849999999999999
v 0.04595 -0.181 -0.039999999999999994
v 0.04715 -0.18169282 -0.039999999999999994
v 0.04635 -0.18169282 -0.039999999999999994
vn 1 -0 -0
vn 0.5 -0.866025 -0
vn -0.5 -0.866025 0
vn -1 -1.22465e-16 0
vn 1 -0 -0
vn -0.5 -0.866025 0
vn -0.5 0.866025 -0
vn 1 2.44929e-16 -0
vn 1 2.44929e-16 -0
vn -0.5 0.866025 -0
vn 0.5 0.866025 -0
f 78//78 81//81 77//77 
f 78//78 82//82 81//81 
f 79//79 82//82 78//78 
f 80//80 83//83 82//82 
f 80//80 82//82 79//79 
f 86//86 83//83 80//80 
f 87//87 84//84 83//83 
f 87//87 83//83 86//86 
f 85//85 84//84 87//87 

g Face_10
v 0.04595 -0.181 -0.03849999999999999
v 0.04715 -0.18030718 -0.03849999999999999
v 0.04715 -0.18169282 -0.03849999999999999
vn 0 0 -1
vn 0 0 -1
vn 0 0 -1
f 88//88 89//89 90//90 

g Face_11
v 0.05995 -0.1865 -0.039999999999999994
v 0.06035 -0.18580718 -0.039999999999999994
v 0.061149999999999996 -0.18580718 -0.039999999999999994
v 0.06155 -0.1865 -0.039999999999999994
v 0.05995 -0.1865 -0.03849999999999999
v 0.061149999999999996 -0.18580718 -0.03849999999999999
v 0.061149999999999996 -0.18719282 -0.03849999999999999
v 0.05995 -0.1865 -0.03849999999999999
v 0.05995 -0.1865 -0.039999999999999994
v 0.061149999999999996 -0.18719282 -0.039999999999999994
v 0.06035 -0.18719282 -0.039999999999999994
vn 1 -0 -0
vn 0.5 -0.866025 -0
vn -0.5 -0.866025 0
vn -1 -1.22465e-16 0
vn 1 -0 -0
vn -0.5 -0.866025 0
vn -0.5 0.866025 -0
vn 1 2.44929e-16 -0
vn 1 2.44929e-16 -0
vn -0.5 0.866025 -0
vn 0.5 0.866025 -0
f 92//92 95//95 91//91 
f 92//92 96//96 95//95 
f 93//93 96//96 92//92 
f 94//94 97//97 96//96 
f 94//94 96//96 93//93 
f 100//100 97//97 94//94 
f 101//101 98//98 97//97 
f 101//101 97//97 100//100 
f 99//99 98//98 101//101 

g Face_12
v 0.05995 -0.1865 -0.03849999999999999
v 0.061149999999999996 -0.18580718 -0.03849999999999999
v 0.061149999999999996 -0.18719282 -0.03849999999999999
vn 0 0 -1
vn 0 0 -1
vn 0 0 -1
f 102//102 103//103 104//104 

g Face_13
v 0.0565 -0.1855 -0.040499999999999994
v 0.054945288 -0.18336012 -0.040499999999999994
v 0.05242971 -0.18417748 -0.040499999999999994
v 0.05242971 -0.18682252 -0.040499999999999994
v 0.054945288 -0.18763988 -0.040499999999999994
v 0.0565 -0.1855 -0.040499999999999994
v 0.056 -0.1855 -0.03949999999999999
v 0.05479078 -0.18716435 -0.03949999999999999
v 0.05283422 -0.18652862 -0.03949999999999999
v 0.05283422 -0.18447138 -0.03949999999999999
v 0.05479078 -0.18383565 -0.03949999999999999
v 0.056 -0.1855 -0.03949999999999999
vn -0.894427 -3.28607e-16 -0.447214
vn -0.276393 -0.850651 -0.447214
vn 0.723607 -0.525731 -0.447214
vn 0.723607 0.525731 -0.447214
vn -0.276393 0.850651 -0.447214
vn -0.894427 -1.09536e-16 -0.447214
vn -0.894427 -1.09536e-16 -0.447214
vn -0.276393 0.850651 -0.447214
vn 0.723607 0.525731 -0.447214
vn 0.723607 -0.525731 -0.447214
vn -0.276393 -0.850651 -0.447214
vn -0.894427 -3.28607e-16 -0.447214
f 109//109 111//111 110//110 
f 109//109 112//112 111//111 
f 108//108 113//113 112//112 
f 108//108 112//112 109//109 
f 107//107 114//114 113//113 
f 107//107 113//113 108//108 
f 106//106 115//115 114//114 
f 106//106 114//114 107//107 
f 105//105 116//116 115//115 
f 105//105 115//115 106//106 

g Face_14
v 0.056 -0.1855 -0.03799999999999999
v 0.05479078 -0.18383565 -0.03799999999999999
v 0.05283422 -0.18447138 -0.03799999999999999
v 0.05283422 -0.18652862 -0.03799999999999999
v 0.05479078 -0.18716435 -0.03799999999999999
v 0.056 -0.1855 -0.03799999999999999
v 0.0565 -0.1855 -0.03699999999999999
v 0.054945288 -0.18763988 -0.03699999999999999
v 0.05242971 -0.18682252 -0.03699999999999999
v 0.05242971 -0.18417748 -0.03699999999999999
v 0.054945288 -0.18336012 -0.03699999999999999
v 0.0565 -0.1855 -0.03699999999999999
vn -0.894427 -0 0.447214
vn -0.276393 -0.850651 0.447214
vn 0.723607 -0.525731 0.447214
vn 0.723607 0.525731 0.447214
vn -0.276393 0.850651 0.447214
vn -0.894427 2.19071e-16 0.447214
vn -0.894427 2.19071e-16 0.447214
vn -0.276393 0.850651 0.447214
vn 0.723607 0.525731 0.447214
vn 0.723607 -0.525731 0.447214
vn -0.276393 -0.850651 0.447214
vn -0.894427 -0 0.447214
f 127//127 118//118 117//117 
f 127//127 117//117 128//128 
f 126//126 119//119 118//118 
f 126//126 118//118 127//127 
f 125//125 120//120 119//119 
f 125//125 119//119 126//126 
f 124//124 121//121 120//120 
f 124//124 120//120 125//125 
f 123//123 122//122 121//121 
f 123//123 121//121 124//124 

g Face_15
v 0.04805 -0.181 -0.040499999999999994
v 0.04675 -0.1797 -0.040499999999999994
v 0.04545 -0.181 -0.040499999999999994
v 0.04675 -0.1823 -0.040499999999999994
v 0.04805 -0.181 -0.040499999999999994
v 0.04755 -0.181 -0.039999999999999994
v 0.04715 -0.18169282 -0.039999999999999994
v 0.04635 -0.18169282 -0.039999999999999994
v 0.04595 -0.181 -0.039999999999999994
v 0.04635 -0.18030718 -0.039999999999999994
v 0.04715 -0.18030718 -0.039999999999999994
v 0.04755 -0.181 -0.039999999999999994
vn -0.707107 -2.59787e-16 -0.707107
vn 2.16489e-16 -0.707107 -0.707107
vn 0.707107 1.73191e-16 -0.707107
vn -1.29893e-16 0.707107 -0.707107
vn -0.707107 -8.65956e-17 -0.707107
vn -0.707107 -8.65956e-17 -0.707107
vn -0.353553 0.612372 -0.707107
vn 0.353553 0.612372 -0.707107
vn 0.707107 1.73191e-16 -0.707107
vn 0.353553 -0.612372 -0.707107
vn -0.353553 -0.612372 -0.707107
vn -0.707107 -2.59787e-16 -0.707107
f 135//135 134//134 133//133 
f 132//132 136//136 135//135 
f 132//132 135//135 133//133 
f 131//131 137//137 136//136 
f 131//131 136//136 132//132 
f 138//138 137//137 131//131 
f 130//130 139//139 138//138 
f 130//130 138//138 131//131 
f 129//129 140//140 139//139 
f 129//129 139//139 130//130 

g Face_16
v 0.06205 -0.1865 -0.040499999999999994
v 0.06075 -0.1852 -0.040499999999999994
v 0.05945 -0.1865 -0.040499999999999994
v 0.06075 -0.1878 -0.040499999999999994
v 0.06205 -0.1865 -0.040499999999999994
v 0.06155 -0.1865 -0.039999999999999994
v 0.061149999999999996 -0.18719282 -0.039999999999999994
v 0.06035 -0.18719282 -0.039999999999999994
v 0.05995 -0.1865 -0.039999999999999994
v 0.06035 -0.18580718 -0.039999999999999994
v 0.061149999999999996 -0.18580718 -0.039999999999999994
v 0.06155 -0.1865 -0.039999999999999994
vn -0.707107 -2.59787e-16 -0.707107
vn 2.16489e-16 -0.707107 -0.707107
vn 0.707107 1.73191e-16 -0.707107
vn -1.29893e-16 0.707107 -0.707107
vn -0.707107 -8.65956e-17 -0.707107
vn -0.707107 -8.65956e-17 -0.707107
vn -0.353553 0.612372 -0.707107
vn 0.353553 0.612372 -0.707107
vn 0.707107 1.73191e-16 -0.707107
vn 0.353553 -0.612372 -0.707107
vn -0.353553 -0.612372 -0.707107
vn -0.707107 -2.59787e-16 -0.707107
f 147//147 146//146 145//145 
f 144//144 148//148 147//147 
f 144//144 147//147 145//145 
f 143//143 149//149 148//148 
f 143//143 148//148 144//144 
f 150//150 149//149 143//143 
f 142//142 151//151 150//150 
f 142//142 150//150 143//143 
f 141//141 152//152 151//151 
f 141//141 151//151 142//142 

