mtllib Pied_marteaux_Quarts.mtl
usemtl Pied_marteaux_Quarts
#Wavefront export of shape 1-13-11-1--Pied_marteaux_Quarts

g Face_1
v 0.22075 -0.2005 -0.1375
v 0.21075 -0.2005 -0.1375
v 0.22075 -0.2305 -0.1375
v 0.21075 -0.2305 -0.1375
v 0.217 -0.2102 -0.1375
v 0.21587499999999998 -0.20955048 -0.1375
v 0.21587499999999998 -0.21084950000000002 -0.1375
v 0.21575000000000177 -0.21895 -0.1375
v 0.21817519 -0.22071200000000002 -0.1375
v 0.21724885 -0.223563 -0.1375
v 0.21425115 -0.223563 -0.1375
v 0.21332481 -0.22071200000000002 -0.1375
vn -0 -1.22465e-16 1
vn -0 -1.22465e-16 1
vn -0 -1.22465e-16 1
vn -0 -1.22465e-16 1
vn -0 -1.22465e-16 1
vn -0 -1.22465e-16 1
vn -0 -1.22465e-16 1
vn -0 -1.22465e-16 1
vn -0 -1.22465e-16 1
vn -0 -1.22465e-16 1
vn -0 -1.22465e-16 1
vn -0 -1.22465e-16 1
f 11//11 4//4 3//3 
f 12//12 4//4 11//11 
f 10//10 11//11 3//3 
f 9//9 10//10 3//3 
f 7//7 12//12 8//8 
f 5//5 8//8 9//9 
f 5//5 7//7 8//8 
f 2//2 7//7 6//6 
f 2//2 4//4 12//12 
f 2//2 12//12 7//7 
f 1//1 6//6 5//5 
f 1//1 2//2 6//6 
f 1//1 9//9 3//3 
f 1//1 5//5 9//9 

g Face_2
v 0.22075 -0.2305 -0.1375
v 0.21075 -0.2305 -0.1375
v 0.22075 -0.2305 -0.14150000000000001
v 0.21075 -0.2305 -0.14150000000000001
vn -0 -1 -0
vn -0 -1 -0
vn -0 -1 -0
vn -0 -1 -0
f 13//13 16//16 15//15 
f 13//13 14//14 16//16 

g Face_3
v 0.22075 -0.2305 -0.14150000000000001
v 0.21075 -0.2305 -0.14150000000000001
v 0.22075 -0.21700000000000003 -0.14150000000000001
v 0.21075 -0.21700000000000003 -0.14150000000000001
v 0.2183 -0.2215 -0.14150000000000001
v 0.21653799299999998 -0.21907480000000001 -0.14150000000000001
v 0.21368701 -0.2200011 -0.14150000000000001
v 0.21368701 -0.2229989 -0.14150000000000001
v 0.21653799299999998 -0.22392520000000002 -0.14150000000000001
vn -0 -0 -1
vn -0 -0 -1
vn -0 -0 -1
vn -0 -0 -1
vn -0 -0 -1
vn -0 -0 -1
vn -0 -0 -1
vn -0 -0 -1
vn -0 -0 -1
f 25//25 17//17 18//18 
f 25//25 18//18 24//24 
f 20//20 23//23 24//24 
f 20//20 24//24 18//18 
f 21//21 17//17 25//25 
f 22//22 23//23 20//20 
f 19//19 21//21 22//22 
f 19//19 22//22 20//20 
f 19//19 17//17 21//21 

g Face_4
v 0.22075 -0.21700000000000003 -0.14150000000000001
v 0.21075 -0.21700000000000003 -0.14150000000000001
v 0.22075 -0.21700000000000003 -0.14550000000000002
v 0.21075 -0.21700000000000003 -0.14550000000000002
vn -0 -1 -0
vn -0 -1 -0
vn -0 -1 -0
vn -0 -1 -0
f 26//26 29//29 28//28 
f 26//26 27//27 29//29 

g Face_5
v 0.22075 -0.21700000000000003 -0.14550000000000002
v 0.21075 -0.21700000000000003 -0.14550000000000002
v 0.22075 -0.20750000000000002 -0.14550000000000002
v 0.21075 -0.20750000000000002 -0.14550000000000002
vn -0 -0 -1
vn -0 -0 -1
vn -0 -0 -1
vn -0 -0 -1
f 32//32 30//30 31//31 
f 32//32 31//31 33//33 

g Face_6
v 0.22075 -0.20750000000000002 -0.14550000000000002
v 0.21075 -0.20750000000000002 -0.14550000000000002
v 0.22075 -0.20750000000000002 -0.14750000000000002
v 0.21075 -0.20750000000000002 -0.14750000000000002
vn -0 -1 -0
vn -0 -1 -0
vn -0 -1 -0
vn -0 -1 -0
f 34//34 37//37 36//36 
f 34//34 35//35 37//37 

g Face_7
v 0.22075 -0.20750000000000002 -0.14750000000000002
v 0.21075 -0.20750000000000002 -0.14750000000000002
v 0.22075 -0.2005 -0.14750000000000002
v 0.21075 -0.2005 -0.14750000000000002
vn -0 2.47818e-16 -1
vn -0 2.47818e-16 -1
vn -0 2.47818e-16 -1
vn -0 2.47818e-16 -1
f 38//38 41//41 40//40 
f 38//38 39//39 41//41 

g Face_8
v 0.22075 -0.2005 -0.14750000000000002
v 0.21075 -0.2005 -0.14750000000000002
v 0.22075 -0.2005 -0.1375
v 0.21075 -0.2005 -0.1375
v 0.21575 -0.2005 -0.14150000000000001
v 0.21715 -0.2005 -0.1429
v 0.21575 -0.2005 -0.1443
v 0.21434999999999998 -0.2005 -0.1429
vn -0 1 -0
vn -0 1 -0
vn -0 1 -0
vn -0 1 -0
vn -0 1 -0
vn -0 1 -0
vn -0 1 -0
vn -0 1 -0
f 49//49 45//45 46//46 
f 43//43 45//45 49//49 
f 44//44 46//46 45//45 
f 47//47 46//46 44//44 
f 48//48 43//43 49//49 
f 42//42 48//48 47//47 
f 42//42 47//47 44//44 
f 42//42 43//43 48//48 

g Face_9
v 0.22075 -0.2005 -0.1375
v 0.22075 -0.2305 -0.1375
v 0.22075 -0.2305 -0.14150000000000001
v 0.22075 -0.21700000000000003 -0.14150000000000001
v 0.22075 -0.21700000000000003 -0.14550000000000002
v 0.22075 -0.20750000000000002 -0.14550000000000002
v 0.22075 -0.20750000000000002 -0.14750000000000002
v 0.22075 -0.2005 -0.14750000000000002
vn 1 -0 0
vn 1 -0 0
vn 1 -0 0
vn 1 -0 0
vn 1 -0 0
vn 1 -0 0
vn 1 -0 0
vn 1 -0 0
f 53//53 51//51 52//52 
f 55//55 53//53 54//54 
f 55//55 50//50 53//53 
f 57//57 55//55 56//56 
f 57//57 50//50 55//55 
f 50//50 51//51 53//53 

g Face_10
v 0.21075 -0.2305 -0.1375
v 0.21075 -0.2305 -0.14150000000000001
v 0.21075 -0.21700000000000003 -0.14150000000000001
v 0.21075 -0.21700000000000003 -0.14550000000000002
v 0.21075 -0.20750000000000002 -0.14550000000000002
v 0.21075 -0.20750000000000002 -0.14750000000000002
v 0.21075 -0.2005 -0.14750000000000002
v 0.21075 -0.2005 -0.1375
v 0.21075 -0.2134 -0.14100000000000001
v 0.21075 -0.21200000000000002 -0.1424
v 0.21075 -0.2134 -0.1438
v 0.21075 -0.21480000000000002 -0.1424
vn -1 0 -0
vn -1 0 -0
vn -1 0 -0
vn -1 0 -0
vn -1 0 -0
vn -1 0 -0
vn -1 0 -0
vn -1 0 -0
vn -1 0 -0
vn -1 0 -0
vn -1 0 -0
vn -1 0 -0
f 60//60 59//59 58//58 
f 66//66 60//60 58//58 
f 69//69 60//60 66//66 
f 61//61 60//60 69//69 
f 68//68 61//61 69//69 
f 65//65 67//67 66//66 
f 62//62 68//68 67//67 
f 62//62 67//67 65//65 
f 64//64 63//63 62//62 
f 64//64 62//62 65//65 
f 61//61 68//68 62//62 
f 65//65 66//66 58//58 

g Face_11
v 0.21575 -0.20350000000000001 -0.14150000000000001
v 0.21715 -0.20350000000000001 -0.1429
v 0.21575 -0.20350000000000001 -0.1443
v 0.21434999999999998 -0.20350000000000001 -0.1429
v 0.21575 -0.20350000000000001 -0.14150000000000001
v 0.21575 -0.2005 -0.14150000000000001
v 0.21575 -0.2005 -0.14150000000000001
v 0.21715 -0.2005 -0.1429
v 0.21575 -0.2005 -0.1443
v 0.21434999999999998 -0.2005 -0.1429
vn -0 -0 -1
vn -1 0 -6.12323e-17
vn -1.22465e-16 -0 1
vn 1 -0 1.83697e-16
vn 2.44929e-16 -0 -1
vn 2.44929e-16 -0 -1
vn -0 -0 -1
vn -1 0 -6.12323e-17
vn -1.22465e-16 -0 1
vn 1 -0 1.83697e-16
f 77//77 71//71 70//70 
f 77//77 70//70 76//76 
f 78//78 72//72 71//71 
f 78//78 71//71 77//77 
f 79//79 73//73 72//72 
f 79//79 72//72 78//78 
f 75//75 74//74 73//73 
f 75//75 73//73 79//79 

g Face_12
v 0.21575 -0.20350000000000001 -0.14150000000000001
v 0.21715 -0.20350000000000001 -0.1429
v 0.21575 -0.20350000000000001 -0.1443
v 0.21434999999999998 -0.20350000000000001 -0.1429
v 0.21575 -0.20350000000000001 -0.14150000000000001
v 0.21575 -0.2049 -0.1429
v 0.21575 -0.2049 -0.1429
vn -0 0.707107 -0.707107
vn -0.707107 0.707107 -4.32978e-17
vn -8.65956e-17 0.707107 0.707107
vn 0.707107 0.707107 1.29893e-16
vn 1.73191e-16 0.707107 -0.707107
vn -0 -0 -0
vn -0 0 -0
f 81//81 85//85 80//80 
f 82//82 85//85 81//81 
f 86//86 85//85 82//82 
f 83//83 86//86 82//82 
f 84//84 86//86 83//83 

g Face_13
v 0.21825 -0.2134 -0.14100000000000001
v 0.21825 -0.21200000000000002 -0.1424
v 0.21825 -0.2134 -0.1438
v 0.21825 -0.21480000000000002 -0.1424
v 0.21825 -0.2134 -0.14100000000000001
v 0.21075 -0.2134 -0.14100000000000001
v 0.21075 -0.2134 -0.14100000000000001
v 0.21075 -0.21200000000000002 -0.1424
v 0.21075 -0.2134 -0.1438
v 0.21075 -0.21480000000000002 -0.1424
vn -0 -0 -1
vn 0 -1 -6.12323e-17
vn -0 -1.22465e-16 1
vn -0 1 1.83697e-16
vn -0 2.44929e-16 -1
vn -0 2.44929e-16 -1
vn -0 -0 -1
vn 0 -1 -6.12323e-17
vn -0 -1.22465e-16 1
vn -0 1 1.83697e-16
f 94//94 88//88 87//87 
f 94//94 87//87 93//93 
f 95//95 89//89 88//88 
f 95//95 88//88 94//94 
f 96//96 90//90 89//89 
f 96//96 89//89 95//95 
f 92//92 91//91 90//90 
f 92//92 90//90 96//96 

g Face_14
v 0.21825 -0.2134 -0.14100000000000001
v 0.21825 -0.21200000000000002 -0.1424
v 0.21825 -0.2134 -0.1438
v 0.21825 -0.21480000000000002 -0.1424
v 0.21825 -0.2134 -0.14100000000000001
v 0.21964999999999998 -0.2134 -0.1424
v 0.21964999999999998 -0.2134 -0.1424
vn -0.707107 0 -0.707107
vn -0.707107 -0.707107 -4.32978e-17
vn -0.707107 -8.65956e-17 0.707107
vn -0.707107 0.707107 1.29893e-16
vn -0.707107 1.73191e-16 -0.707107
vn -0 0 -0
vn -0 0 -0
f 98//98 102//102 97//97 
f 99//99 102//102 98//98 
f 103//103 102//102 99//99 
f 100//100 103//103 99//99 
f 101//101 103//103 100//100 

g Face_15
v 0.214 -0.2215 -0.14070000000000002
v 0.214875 -0.2199845 -0.14070000000000002
v 0.21662499999999998 -0.2199845 -0.14070000000000002
v 0.2175 -0.2215 -0.14070000000000002
v 0.214 -0.2215 -0.1383
v 0.21575000000000177 -0.21975 -0.1383
v 0.214875 -0.2199845 -0.1383
v 0.21423446 -0.22062500000000002 -0.1383
v 0.214 -0.2215 -0.1383
v 0.215080304 -0.2231168 -0.1383
v 0.21698744 -0.2227374 -0.1383
v 0.21736679 -0.2208303 -0.1383
v 0.214 -0.2215 -0.14070000000000002
v 0.21662499999999998 -0.2230155 -0.14070000000000002
v 0.214875 -0.2230155 -0.14070000000000002
vn 1 -0 -0
vn 0.5 -0.866025 -0
vn -0.5 -0.866025 0
vn -1 -1.22465e-16 0
vn 1 -0 -0
vn 6.12323e-17 -1 -0
vn 0.5 -0.866025 -0
vn 0.866025 -0.5 -0
vn 1 2.44929e-16 -0
vn 0.382683 0.92388 -0
vn -0.707107 0.707107 -0
vn -0.92388 -0.382683 0
vn 1 2.44929e-16 -0
vn -0.5 0.866025 -0
vn 0.5 0.866025 -0
f 104//104 111//111 108//108 
f 105//105 109//109 110//110 
f 105//105 110//110 111//111 
f 105//105 111//111 104//104 
f 106//106 115//115 109//109 
f 106//106 109//109 105//105 
f 107//107 114//114 115//115 
f 107//107 115//115 106//106 
f 117//117 113//113 114//114 
f 117//117 114//114 107//107 
f 118//118 112//112 113//113 
f 118//118 113//113 117//117 
f 116//116 112//112 118//118 

g Face_16
v 0.2183 -0.2215 -0.14150000000000001
v 0.21653799299999998 -0.21907480000000001 -0.14150000000000001
v 0.21368701 -0.2200011 -0.14150000000000001
v 0.21368701 -0.2229989 -0.14150000000000001
v 0.21653799299999998 -0.22392520000000002 -0.14150000000000001
v 0.2183 -0.2215 -0.14150000000000001
v 0.2175 -0.2215 -0.14070000000000002
v 0.21662499999999998 -0.2230155 -0.14070000000000002
v 0.214875 -0.2230155 -0.14070000000000002
v 0.214 -0.2215 -0.14070000000000002
v 0.214875 -0.2199845 -0.14070000000000002
v 0.21662499999999998 -0.2199845 -0.14070000000000002
v 0.2175 -0.2215 -0.14070000000000002
vn -0.707107 -2.59787e-16 -0.707107
vn -0.218508 -0.672499 -0.707107
vn 0.572061 -0.415627 -0.707107
vn 0.572061 0.415627 -0.707107
vn -0.218508 0.672499 -0.707107
vn -0.707107 -8.65956e-17 -0.707107
vn -0.707107 -8.65956e-17 -0.707107
vn -0.353553 0.612372 -0.707107
vn 0.353553 0.612372 -0.707107
vn 0.707107 1.73191e-16 -0.707107
vn 0.353553 -0.612372 -0.707107
vn -0.353553 -0.612372 -0.707107
vn -0.707107 -2.59787e-16 -0.707107
f 126//126 125//125 124//124 
f 123//123 126//126 124//124 
f 127//127 126//126 123//123 
f 122//122 127//127 123//123 
f 128//128 127//127 122//122 
f 121//121 129//129 128//128 
f 121//121 128//128 122//122 
f 120//120 130//130 129//129 
f 120//120 129//129 121//121 
f 119//119 131//131 130//130 
f 119//119 130//130 120//120 

g Face_17
v 0.214 -0.2215 -0.1383
v 0.215080304 -0.2231168 -0.1383
v 0.21698744 -0.2227374 -0.1383
v 0.21736679 -0.2208303 -0.1383
v 0.21575000000000177 -0.21975 -0.1383
v 0.21575000000000177 -0.21895 -0.1375
v 0.21817519 -0.22071200000000002 -0.1375
v 0.21724885 -0.223563 -0.1375
v 0.21425115 -0.223563 -0.1375
v 0.21332481 -0.22071200000000002 -0.1375
v 0.21575000000000177 -0.21895 -0.1375
v 0.21575000000000177 -0.21975 -0.1383
v 0.214875 -0.2199845 -0.1383
v 0.21423446 -0.22062500000000002 -0.1383
vn 0.707107 -8.65956e-17 0.707107
vn 0.270598 0.653281 0.707107
vn -0.5 0.5 0.707107
vn -0.653281 -0.270598 0.707107
vn -2.16489e-16 -0.707107 0.707107
vn -2.16489e-16 -0.707107 0.707107
vn -0.672499 -0.218508 0.707107
vn -0.415627 0.572061 0.707107
vn 0.415627 0.572061 0.707107
vn 0.672499 -0.218508 0.707107
vn -4.32978e-17 -0.707107 0.707107
vn -4.32978e-17 -0.707107 0.707107
vn 0.353553 -0.612372 0.707107
vn 0.612372 -0.353553 0.707107
f 142//142 144//144 143//143 
f 141//141 145//145 144//144 
f 141//141 132//132 145//145 
f 141//141 144//144 142//142 
f 140//140 133//133 132//132 
f 140//140 132//132 141//141 
f 139//139 134//134 133//133 
f 139//139 133//133 140//140 
f 138//138 135//135 134//134 
f 138//138 134//134 139//139 
f 137//137 136//136 135//135 
f 137//137 135//135 138//138 

g Face_18
v 0.217 -0.2102 -0.1395
v 0.21587499999999998 -0.20955048 -0.1395
v 0.21587499999999998 -0.21084950000000002 -0.1395
v 0.217 -0.2102 -0.1395
v 0.217 -0.2102 -0.1375
v 0.217 -0.2102 -0.1375
v 0.21587499999999998 -0.20955048 -0.1375
v 0.21587499999999998 -0.21084950000000002 -0.1375
vn -1 -0 -0
vn 0.5 -0.866025 -0
vn 0.5 0.866025 -0
vn -1 2.44929e-16 -0
vn -1 2.44929e-16 -0
vn -1 -0 -0
vn 0.5 -0.866025 -0
vn 0.5 0.866025 -0
f 152//152 147//147 146//146 
f 152//152 146//146 151//151 
f 153//153 148//148 147//147 
f 153//153 147//147 152//152 
f 150//150 149//149 148//148 
f 150//150 148//148 153//153 

g Face_19
v 0.217 -0.2102 -0.1395
v 0.21587499999999998 -0.20955048 -0.1395
v 0.21587499999999998 -0.21084950000000002 -0.1395
vn 0 0 1
vn 0 0 1
vn 0 0 1
f 154//154 155//155 156//156 

