mtllib Pied_marteaux_Heures.mtl
usemtl Pied_marteaux_Heures
#Wavefront export of shape 1-9-10--Pied_marteaux_Heures

g Face_1
v 0.04224999999999999 -0.21050000000000002 -0.14550000000000002
v 0.04224999999999999 -0.21050000000000002 -0.14700000000000002
v 0.05225 -0.21050000000000002 -0.14550000000000002
v 0.05225 -0.21050000000000002 -0.14700000000000002
vn -1.11022e-16 -1 1.84889e-32
vn -1.11022e-16 -1 1.84889e-32
vn -1.11022e-16 -1 1.84889e-32
vn -1.11022e-16 -1 1.84889e-32
f 2//2 3//3 1//1 
f 2//2 4//4 3//3 

g Face_2
v 0.042249999999999996 -0.2005 -0.14700000000000002
v 0.042249999999999996 -0.2005 -0.1375
v 0.04224999999999999 -0.2305 -0.1375
v 0.04224999999999999 -0.2305 -0.1405
v 0.04224999999999999 -0.2195 -0.1405
v 0.04224999999999999 -0.2195 -0.14550000000000002
v 0.04224999999999999 -0.21050000000000002 -0.14550000000000002
v 0.04224999999999999 -0.21050000000000002 -0.14700000000000002
vn -1 2.33487e-16 5.55112e-17
vn -1 2.33487e-16 5.55112e-17
vn -1 2.33487e-16 5.55112e-17
vn -1 2.33487e-16 5.55112e-17
vn -1 2.33487e-16 5.55112e-17
vn -1 2.33487e-16 5.55112e-17
vn -1 2.33487e-16 5.55112e-17
vn -1 2.33487e-16 5.55112e-17
f 11//11 6//6 5//5 
f 12//12 11//11 5//5 
f 9//9 6//6 11//11 
f 10//10 9//9 11//11 
f 7//7 6//6 9//9 
f 8//8 7//7 9//9 

g Face_3
v 0.05925 -0.2005 -0.14200000000000002
v 0.05925 -0.2005 -0.14500000000000002
v 0.061285799999999994 -0.2005 -0.14632377000000002
v 0.0637142 -0.2005 -0.14632377000000002
v 0.06575 -0.2005 -0.14500000000000002
v 0.06575 -0.2005 -0.1375
v 0.042249999999999996 -0.2005 -0.1375
v 0.042249999999999996 -0.2005 -0.14700000000000002
v 0.05225 -0.2005 -0.14700000000000002
v 0.05225 -0.2005 -0.14200000000000002
v 0.04865 -0.2005 -0.1429
v 0.04724999999999999 -0.2005 -0.1443
v 0.045849999999999995 -0.2005 -0.1429
v 0.04724999999999999 -0.2005 -0.14150000000000001
v 0.06375 -0.2005 -0.1439
v 0.062349999999999996 -0.2005 -0.1453
v 0.06095 -0.2005 -0.1439
v 0.062349999999999996 -0.2005 -0.14250000000000002
vn 2.33487e-16 1 -2.52871e-32
vn 2.33487e-16 1 -2.52871e-32
vn 2.33487e-16 1 -2.52871e-32
vn 2.33487e-16 1 -2.52871e-32
vn 2.33487e-16 1 -2.52871e-32
vn 2.33487e-16 1 -2.52871e-32
vn 2.33487e-16 1 -2.52871e-32
vn 2.33487e-16 1 -2.52871e-32
vn 2.33487e-16 1 -2.52871e-32
vn 2.33487e-16 1 -2.52871e-32
vn 2.33487e-16 1 -2.52871e-32
vn 2.33487e-16 1 -2.52871e-32
vn 2.33487e-16 1 -2.52871e-32
vn 2.33487e-16 1 -2.52871e-32
vn 2.33487e-16 1 -2.52871e-32
vn 2.33487e-16 1 -2.52871e-32
vn 2.33487e-16 1 -2.52871e-32
vn 2.33487e-16 1 -2.52871e-32
f 27//27 18//18 17//17 
f 30//30 18//18 27//27 
f 16//16 27//27 17//17 
f 13//13 18//18 30//30 
f 29//29 13//13 30//30 
f 28//28 27//27 16//16 
f 15//15 29//29 28//28 
f 15//15 28//28 16//16 
f 14//14 13//13 29//29 
f 14//14 29//29 15//15 
f 22//22 18//18 13//13 
f 26//26 22//22 23//23 
f 21//21 23//23 22//22 
f 19//19 18//18 22//22 
f 19//19 22//22 26//26 
f 24//24 23//23 21//21 
f 25//25 19//19 26//26 
f 20//20 25//25 24//24 
f 20//20 24//24 21//21 
f 20//20 19//19 25//25 

g Face_4
v 0.06575 -0.2005 -0.1375
v 0.06575 -0.21050000000000002 -0.1375
v 0.06575 -0.2005 -0.14500000000000002
v 0.06575 -0.21050000000000002 -0.14500000000000002
vn 1 -1.11022e-16 -5.55112e-17
vn 1 -1.11022e-16 -5.55112e-17
vn 1 -1.11022e-16 -5.55112e-17
vn 1 -1.11022e-16 -5.55112e-17
f 31//31 34//34 33//33 
f 31//31 32//32 34//34 

g Face_5
v 0.05225 -0.21050000000000002 -0.14200000000000002
v 0.05925 -0.21050000000000002 -0.14200000000000002
v 0.05225 -0.21050000000000002 -0.1375
v 0.06575 -0.21050000000000002 -0.1375
v 0.06575 -0.21050000000000002 -0.14500000000000002
v 0.05925 -0.21050000000000002 -0.14500000000000002
v 0.061285799999999994 -0.21050000000000002 -0.14632377000000002
v 0.0637142 -0.21050000000000002 -0.14632377000000002
vn -1.11022e-16 -1 1.84889e-32
vn -1.11022e-16 -1 1.84889e-32
vn -1.11022e-16 -1 1.84889e-32
vn -1.11022e-16 -1 1.84889e-32
vn -1.11022e-16 -1 1.84889e-32
vn -1.11022e-16 -1 1.84889e-32
vn -1.11022e-16 -1 1.84889e-32
vn -1.11022e-16 -1 1.84889e-32
f 36//36 39//39 38//38 
f 36//36 42//42 39//39 
f 41//41 42//42 36//36 
f 37//37 36//36 38//38 
f 40//40 41//41 36//36 
f 35//35 36//36 37//37 

g Face_6
v 0.05225 -0.2305 -0.1405
v 0.05225 -0.2195 -0.1405
v 0.05225 -0.2305 -0.1375
v 0.05225 -0.21050000000000002 -0.1375
v 0.05225 -0.21050000000000002 -0.14200000000000002
v 0.05225 -0.2005 -0.14200000000000002
v 0.05225 -0.2005 -0.14700000000000002
v 0.05225 -0.21050000000000002 -0.14700000000000002
v 0.05225 -0.21050000000000002 -0.14550000000000002
v 0.05225 -0.2195 -0.14550000000000002
v 0.05225 -0.2134 -0.1433
v 0.05225 -0.21200000000000002 -0.14190000000000003
v 0.05225 -0.2134 -0.1405
v 0.05225 -0.21480000000000002 -0.14190000000000003
vn 1 -1.11022e-16 -5.55112e-17
vn 1 -1.11022e-16 -5.55112e-17
vn 1 -1.11022e-16 -5.55112e-17
vn 1 -1.11022e-16 -5.55112e-17
vn 1 -1.11022e-16 -5.55112e-17
vn 1 -1.11022e-16 -5.55112e-17
vn 1 -1.11022e-16 -5.55112e-17
vn 1 -1.11022e-16 -5.55112e-17
vn 1 -1.11022e-16 -5.55112e-17
vn 1 -1.11022e-16 -5.55112e-17
vn 1 -1.11022e-16 -5.55112e-17
vn 1 -1.11022e-16 -5.55112e-17
vn 1 -1.11022e-16 -5.55112e-17
vn 1 -1.11022e-16 -5.55112e-17
f 44//44 45//45 43//43 
f 56//56 44//44 52//52 
f 56//56 52//52 53//53 
f 54//54 53//53 51//51 
f 55//55 44//44 56//56 
f 47//47 54//54 51//51 
f 46//46 55//55 54//54 
f 46//46 45//45 44//44 
f 46//46 54//54 47//47 
f 46//46 44//44 55//55 
f 49//49 51//51 50//50 
f 48//48 51//51 49//49 
f 48//48 47//47 51//51 
f 51//51 53//53 52//52 

g Face_7
v 0.05225 -0.2305 -0.1375
v 0.04224999999999999 -0.2305 -0.1375
v 0.05225 -0.2305 -0.1405
v 0.04224999999999999 -0.2305 -0.1405
vn -1.11022e-16 -1 1.84889e-32
vn -1.11022e-16 -1 1.84889e-32
vn -1.11022e-16 -1 1.84889e-32
vn -1.11022e-16 -1 1.84889e-32
f 60//60 57//57 58//58 
f 60//60 59//59 57//57 

g Face_8
v 0.04224999999999999 -0.21050000000000002 -0.14700000000000002
v 0.042249999999999996 -0.2005 -0.14700000000000002
v 0.05225 -0.21050000000000002 -0.14700000000000002
v 0.05225 -0.2005 -0.14700000000000002
vn -5.55112e-17 -1.2326e-32 -1
vn -5.55112e-17 -1.2326e-32 -1
vn -5.55112e-17 -1.2326e-32 -1
vn -5.55112e-17 -1.2326e-32 -1
f 64//64 61//61 62//62 
f 64//64 63//63 61//61 

g Face_9
v 0.04224999999999999 -0.2305 -0.1375
v 0.042249999999999996 -0.2005 -0.1375
v 0.05225 -0.2305 -0.1375
v 0.05225 -0.21050000000000002 -0.1375
v 0.06575 -0.21050000000000002 -0.1375
v 0.06575 -0.2005 -0.1375
v 0.049999999999999996 -0.223 -0.1375
v 0.048237989999999994 -0.22542520000000002 -0.1375
v 0.04538701 -0.2244989 -0.1375
v 0.04538701 -0.2215011 -0.1375
v 0.048237989999999994 -0.22057480000000002 -0.1375
v 0.05829999999999999 -0.20500000000000002 -0.1375
v 0.056538 -0.20742519 -0.1375
v 0.053687 -0.20649885 -0.1375
v 0.053687 -0.20350115000000002 -0.1375
v 0.056538 -0.20257481000000002 -0.1375
vn 5.55112e-17 1.2326e-32 1
vn 5.55112e-17 1.2326e-32 1
vn 5.55112e-17 1.2326e-32 1
vn 5.55112e-17 1.2326e-32 1
vn 5.55112e-17 1.2326e-32 1
vn 5.55112e-17 1.2326e-32 1
vn 5.55112e-17 1.2326e-32 1
vn 5.55112e-17 1.2326e-32 1
vn 5.55112e-17 1.2326e-32 1
vn 5.55112e-17 1.2326e-32 1
vn 5.55112e-17 1.2326e-32 1
vn 5.55112e-17 1.2326e-32 1
vn 5.55112e-17 1.2326e-32 1
vn 5.55112e-17 1.2326e-32 1
vn 5.55112e-17 1.2326e-32 1
vn 5.55112e-17 1.2326e-32 1
f 72//72 65//65 67//67 
f 72//72 73//73 65//65 
f 74//74 65//65 73//73 
f 71//71 72//72 67//67 
f 68//68 74//74 75//75 
f 68//68 75//75 71//71 
f 66//66 65//65 74//74 
f 66//66 74//74 68//68 
f 78//78 66//66 68//68 
f 77//77 78//78 68//68 
f 79//79 66//66 78//78 
f 80//80 66//66 79//79 
f 69//69 76//76 77//77 
f 69//69 77//77 68//68 
f 70//70 80//80 76//76 
f 70//70 76//76 69//69 
f 67//67 68//68 71//71 
f 70//70 66//66 80//80 

g Face_10
v 0.05225 -0.2195 -0.14550000000000002
v 0.05225 -0.21050000000000002 -0.14550000000000002
v 0.04224999999999999 -0.21050000000000002 -0.14550000000000002
v 0.04224999999999999 -0.2195 -0.14550000000000002
vn -5.55112e-17 -1.92747e-16 -1
vn -5.55112e-17 -1.92747e-16 -1
vn -5.55112e-17 -1.92747e-16 -1
vn -5.55112e-17 -1.92747e-16 -1
f 83//83 82//82 81//81 
f 83//83 81//81 84//84 

g Face_11
v 0.05225 -0.2195 -0.1405
v 0.05225 -0.2195 -0.14550000000000002
v 0.04224999999999999 -0.2195 -0.14550000000000002
v 0.04224999999999999 -0.2195 -0.1405
vn -2.33487e-16 -1 2.52871e-32
vn -2.33487e-16 -1 2.52871e-32
vn -2.33487e-16 -1 2.52871e-32
vn -2.33487e-16 -1 2.52871e-32
f 86//86 88//88 87//87 
f 86//86 85//85 88//88 

g Face_12
v 0.05225 -0.2305 -0.1405
v 0.05225 -0.2195 -0.1405
v 0.04224999999999999 -0.2195 -0.1405
v 0.04224999999999999 -0.2305 -0.1405
v 0.049999999999999996 -0.223 -0.1405
v 0.048237989999999994 -0.22057480000000002 -0.1405
v 0.04538701 -0.2215011 -0.1405
v 0.04538701 -0.2244989 -0.1405
v 0.048237989999999994 -0.22542520000000002 -0.1405
vn -5.55112e-17 -1.2326e-32 -1
vn -5.55112e-17 -1.2326e-32 -1
vn -5.55112e-17 -1.2326e-32 -1
vn -5.55112e-17 -1.2326e-32 -1
vn -5.55112e-17 -1.2326e-32 -1
vn -5.55112e-17 -1.2326e-32 -1
vn -5.55112e-17 -1.2326e-32 -1
vn -5.55112e-17 -1.2326e-32 -1
vn -5.55112e-17 -1.2326e-32 -1
f 91//91 96//96 92//92 
f 97//97 89//89 92//92 
f 97//97 92//92 96//96 
f 95//95 96//96 91//91 
f 93//93 89//89 97//97 
f 94//94 95//95 91//91 
f 90//90 93//93 94//94 
f 90//90 89//89 93//93 
f 90//90 94//94 91//91 

g Face_13
v 0.05925 -0.21050000000000002 -0.14500000000000002
v 0.05925 -0.2005 -0.14500000000000002
v 0.061285799999999994 -0.2005 -0.14632377000000002
v 0.0637142 -0.2005 -0.14632377000000002
v 0.06575 -0.2005 -0.14500000000000002
v 0.06575 -0.21050000000000002 -0.14500000000000002
v 0.061285799999999994 -0.21050000000000002 -0.14632377000000002
v 0.0637142 -0.21050000000000002 -0.14632377000000002
vn -0.760976 1.77678e-16 -0.64878
vn -0.760976 1.77678e-16 -0.64878
vn -0.284296 6.63794e-17 -0.958737
vn 0.284296 -6.63794e-17 -0.958737
vn 0.760976 -1.77678e-16 -0.64878
vn 0.760976 -1.77678e-16 -0.64878
vn -0.284296 6.63794e-17 -0.958737
vn 0.284296 -6.63794e-17 -0.958737
f 101//101 102//102 103//103 
f 101//101 103//103 105//105 
f 100//100 105//105 104//104 
f 100//100 101//101 105//105 
f 99//99 104//104 98//98 
f 99//99 100//100 104//104 

g Face_14
v 0.05925 -0.21050000000000002 -0.14200000000000002
v 0.05925 -0.21050000000000002 -0.14500000000000002
v 0.05925 -0.2005 -0.14500000000000002
v 0.05925 -0.2005 -0.14200000000000002
vn -1 2.33487e-16 5.55112e-17
vn -1 2.33487e-16 5.55112e-17
vn -1 2.33487e-16 5.55112e-17
vn -1 2.33487e-16 5.55112e-17
f 107//107 109//109 108//108 
f 107//107 106//106 109//109 

g Face_15
v 0.05225 -0.21050000000000002 -0.14200000000000002
v 0.05925 -0.21050000000000002 -0.14200000000000002
v 0.05925 -0.2005 -0.14200000000000002
v 0.05225 -0.2005 -0.14200000000000002
v 0.05829999999999999 -0.20500000000000002 -0.14200000000000002
v 0.056538 -0.20257481000000002 -0.14200000000000002
v 0.053687 -0.20350115000000002 -0.14200000000000002
v 0.053687 -0.20649885 -0.14200000000000002
v 0.056538 -0.20742519 -0.14200000000000002
vn -1.7942e-16 1.66051e-32 -1
vn -1.7942e-16 1.66051e-32 -1
vn -1.7942e-16 1.66051e-32 -1
vn -1.7942e-16 1.66051e-32 -1
vn -1.7942e-16 1.66051e-32 -1
vn -1.7942e-16 1.66051e-32 -1
vn -1.7942e-16 1.66051e-32 -1
vn -1.7942e-16 1.66051e-32 -1
vn -1.7942e-16 1.66051e-32 -1
f 118//118 111//111 110//110 
f 118//118 110//110 117//117 
f 113//113 116//116 117//117 
f 113//113 117//117 110//110 
f 114//114 111//111 118//118 
f 115//115 116//116 113//113 
f 112//112 114//114 115//115 
f 112//112 115//115 113//113 
f 111//111 114//114 112//112 

g Face_16
v 0.06375 -0.20350000000000001 -0.1439
v 0.062349999999999996 -0.20350000000000001 -0.1453
v 0.06095 -0.20350000000000001 -0.1439
v 0.062349999999999996 -0.20350000000000001 -0.14250000000000002
v 0.06375 -0.20350000000000001 -0.1439
v 0.06375 -0.2005 -0.1439
v 0.06375 -0.2005 -0.1439
v 0.062349999999999996 -0.2005 -0.1453
v 0.06095 -0.2005 -0.1439
v 0.062349999999999996 -0.2005 -0.14250000000000002
vn -1 2.33487e-16 5.55112e-17
vn -5.72119e-18 2.66229e-32 1
vn 1 -2.33487e-16 6.69535e-17
vn 1.28186e-16 -5.52168e-32 -1
vn -1 2.33487e-16 -1.89418e-16
vn -1 2.33487e-16 -1.89418e-16
vn -1 2.33487e-16 5.55112e-17
vn -5.72119e-18 2.66229e-32 1
vn 1 -2.33487e-16 6.69535e-17
vn 1.28186e-16 -5.52168e-32 -1
f 126//126 120//120 119//119 
f 126//126 119//119 125//125 
f 127//127 121//121 120//120 
f 127//127 120//120 126//126 
f 128//128 122//122 121//121 
f 128//128 121//121 127//127 
f 124//124 123//123 122//122 
f 124//124 122//122 128//128 

g Face_17
v 0.04865 -0.20350000000000001 -0.1429
v 0.04724999999999999 -0.20350000000000001 -0.1443
v 0.045849999999999995 -0.20350000000000001 -0.1429
v 0.04724999999999999 -0.20350000000000001 -0.14150000000000001
v 0.04865 -0.20350000000000001 -0.1429
v 0.04865 -0.2005 -0.1429
v 0.04865 -0.2005 -0.1429
v 0.04724999999999999 -0.2005 -0.1443
v 0.045849999999999995 -0.2005 -0.1429
v 0.04724999999999999 -0.2005 -0.14150000000000001
vn -1 2.33487e-16 5.55112e-17
vn -5.72119e-18 2.66229e-32 1
vn 1 -2.33487e-16 6.69535e-17
vn 1.28186e-16 -5.52168e-32 -1
vn -1 2.33487e-16 -1.89418e-16
vn -1 2.33487e-16 -1.89418e-16
vn -1 2.33487e-16 5.55112e-17
vn -5.72119e-18 2.66229e-32 1
vn 1 -2.33487e-16 6.69535e-17
vn 1.28186e-16 -5.52168e-32 -1
f 136//136 130//130 129//129 
f 136//136 129//129 135//135 
f 137//137 131//131 130//130 
f 137//137 130//130 136//136 
f 138//138 132//132 131//131 
f 138//138 131//131 137//137 
f 134//134 133//133 132//132 
f 134//134 132//132 138//138 

g Face_18
v 0.06375 -0.20350000000000001 -0.1439
v 0.062349999999999996 -0.20350000000000001 -0.1453
v 0.06095 -0.20350000000000001 -0.1439
v 0.062349999999999996 -0.20350000000000001 -0.14250000000000002
v 0.06375 -0.20350000000000001 -0.1439
v 0.062349999999999996 -0.2049 -0.1439
v 0.062349999999999996 -0.2049 -0.1439
vn -0.707107 0.707107 3.92523e-17
vn 4.04549e-18 0.707107 0.707107
vn 0.707107 0.707107 3.61362e-16
vn 2.55741e-16 0.707107 -0.707107
vn -0.707107 0.707107 -7.61976e-16
vn 0 -0 0
vn -0 0 -0
f 140//140 144//144 139//139 
f 141//141 144//144 140//140 
f 145//145 144//144 141//141 
f 142//142 145//145 141//141 
f 143//143 145//145 142//142 

g Face_19
v 0.04865 -0.20350000000000001 -0.1429
v 0.04724999999999999 -0.20350000000000001 -0.1443
v 0.045849999999999995 -0.20350000000000001 -0.1429
v 0.04724999999999999 -0.20350000000000001 -0.14150000000000001
v 0.04865 -0.20350000000000001 -0.1429
v 0.04724999999999999 -0.2049 -0.1429
v 0.04724999999999999 -0.2049 -0.1429
vn -0.707107 0.707107 3.92523e-17
vn 3.18064e-16 0.707107 0.707107
vn 0.707107 0.707107 -2.66675e-16
vn 2.55741e-16 0.707107 -0.707107
vn -0.707107 0.707107 4.94098e-16
vn 0 -0 0
vn 0 -0 0
f 147//147 151//151 146//146 
f 148//148 151//151 147//147 
f 152//152 151//151 148//148 
f 149//149 152//152 148//148 
f 150//150 152//152 149//149 

g Face_20
v 0.057499999999999996 -0.20500000000000002 -0.14120000000000002
v 0.056290799999999995 -0.20666435000000002 -0.14120000000000002
v 0.0543342 -0.20602862000000002 -0.14120000000000002
v 0.0543342 -0.20397138 -0.14120000000000002
v 0.056290799999999995 -0.20333565 -0.14120000000000002
v 0.057499999999999996 -0.20500000000000002 -0.14120000000000002
v 0.057499999999999996 -0.20500000000000002 -0.1383
v 0.057499999999999996 -0.20500000000000002 -0.1383
v 0.056290799999999995 -0.20333565 -0.1383
v 0.0543342 -0.20397138 -0.1383
v 0.0543342 -0.20602862000000002 -0.1383
v 0.056290799999999995 -0.20666435000000002 -0.1383
vn -1 -1.14424e-17 5.55112e-17
vn -0.309017 0.951057 1.71539e-17
vn 0.809017 0.587785 -4.49095e-17
vn 0.809017 -0.587785 -4.49095e-17
vn -0.309017 -0.951057 1.71539e-17
vn -1 -2.56372e-16 5.55112e-17
vn -1 -1.14424e-17 5.55112e-17
vn -1 -2.56372e-16 5.55112e-17
vn -0.309017 -0.951057 1.71539e-17
vn 0.809017 -0.587785 -4.49095e-17
vn 0.809017 0.587785 -4.49095e-17
vn -0.309017 0.951057 1.71539e-17
f 154//154 159//159 153//153 
f 154//154 164//164 159//159 
f 155//155 163//163 164//164 
f 155//155 164//164 154//154 
f 156//156 162//162 163//163 
f 156//156 163//163 155//155 
f 157//157 161//161 162//162 
f 157//157 162//162 156//156 
f 158//158 160//160 161//161 
f 158//158 161//161 157//157 

g Face_21
v 0.049199999999999994 -0.223 -0.13970000000000002
v 0.04799078 -0.2246643 -0.13970000000000002
v 0.046034219999999994 -0.22402860000000002 -0.13970000000000002
v 0.046034219999999994 -0.2219714 -0.13970000000000002
v 0.04799078 -0.22133570000000002 -0.13970000000000002
v 0.049199999999999994 -0.223 -0.13970000000000002
v 0.049199999999999994 -0.223 -0.1383
v 0.049199999999999994 -0.223 -0.1383
v 0.04799078 -0.22133570000000002 -0.1383
v 0.046034219999999994 -0.2219714 -0.1383
v 0.046034219999999994 -0.22402860000000002 -0.1383
v 0.04799078 -0.2246643 -0.1383
vn -1 -1.14424e-17 5.55112e-17
vn -0.309017 0.951057 1.71539e-17
vn 0.809017 0.587785 -4.49095e-17
vn 0.809017 -0.587785 -4.49095e-17
vn -0.309017 -0.951057 1.71539e-17
vn -1 -2.56372e-16 5.55112e-17
vn -1 -1.14424e-17 5.55112e-17
vn -1 -2.56372e-16 5.55112e-17
vn -0.309017 -0.951057 1.71539e-17
vn 0.809017 -0.587785 -4.49095e-17
vn 0.809017 0.587785 -4.49095e-17
vn -0.309017 0.951057 1.71539e-17
f 166//166 171//171 165//165 
f 166//166 176//176 171//171 
f 167//167 175//175 176//176 
f 167//167 176//176 166//166 
f 168//168 174//174 175//175 
f 168//168 175//175 167//167 
f 169//169 173//173 174//174 
f 169//169 174//174 168//168 
f 170//170 172//172 173//173 
f 170//170 173//173 169//169 

g Face_22
v 0.049199999999999994 -0.223 -0.13970000000000002
v 0.04799078 -0.2246643 -0.13970000000000002
v 0.046034219999999994 -0.22402860000000002 -0.13970000000000002
v 0.046034219999999994 -0.2219714 -0.13970000000000002
v 0.04799078 -0.22133570000000002 -0.13970000000000002
v 0.049199999999999994 -0.223 -0.13970000000000002
v 0.049999999999999996 -0.223 -0.1405
v 0.048237989999999994 -0.22057480000000002 -0.1405
v 0.04538701 -0.2215011 -0.1405
v 0.04538701 -0.2244989 -0.1405
v 0.048237989999999994 -0.22542520000000002 -0.1405
v 0.049999999999999996 -0.223 -0.1405
vn -0.707107 -8.09098e-18 -0.707107
vn -0.218508 0.672499 -0.707107
vn 0.572061 0.415627 -0.707107
vn 0.572061 -0.415627 -0.707107
vn -0.218508 -0.672499 -0.707107
vn -0.707107 -1.81282e-16 -0.707107
vn -0.707107 -1.81282e-16 -0.707107
vn -0.218508 -0.672499 -0.707107
vn 0.572061 -0.415627 -0.707107
vn 0.572061 0.415627 -0.707107
vn -0.218508 0.672499 -0.707107
vn -0.707107 -8.09098e-18 -0.707107
f 187//187 178//178 177//177 
f 187//187 177//177 188//188 
f 186//186 179//179 178//178 
f 186//186 178//178 187//187 
f 185//185 180//180 179//179 
f 185//185 179//179 186//186 
f 184//184 181//181 180//180 
f 184//184 180//180 185//185 
f 183//183 182//182 181//181 
f 183//183 181//181 184//184 

g Face_23
v 0.049199999999999994 -0.223 -0.1383
v 0.04799078 -0.22133570000000002 -0.1383
v 0.046034219999999994 -0.2219714 -0.1383
v 0.046034219999999994 -0.22402860000000002 -0.1383
v 0.04799078 -0.2246643 -0.1383
v 0.049199999999999994 -0.223 -0.1383
v 0.049999999999999996 -0.223 -0.1375
v 0.048237989999999994 -0.22542520000000002 -0.1375
v 0.04538701 -0.2244989 -0.1375
v 0.04538701 -0.2215011 -0.1375
v 0.048237989999999994 -0.22057480000000002 -0.1375
v 0.049999999999999996 -0.223 -0.1375
vn -0.707107 7.85046e-17 0.707107
vn -0.218508 -0.672499 0.707107
vn 0.572061 -0.415627 0.707107
vn 0.572061 0.415627 0.707107
vn -0.218508 0.672499 0.707107
vn -0.707107 2.51696e-16 0.707107
vn -0.707107 2.51696e-16 0.707107
vn -0.218508 0.672499 0.707107
vn 0.572061 0.415627 0.707107
vn 0.572061 -0.415627 0.707107
vn -0.218508 -0.672499 0.707107
vn -0.707107 7.85046e-17 0.707107
f 199//199 190//190 189//189 
f 199//199 189//189 200//200 
f 198//198 191//191 190//190 
f 198//198 190//190 199//199 
f 197//197 192//192 191//191 
f 197//197 191//191 198//198 
f 196//196 193//193 192//192 
f 196//196 192//192 197//197 
f 195//195 194//194 193//193 
f 195//195 193//193 196//196 

g Face_24
v 0.05829999999999999 -0.20500000000000002 -0.14200000000000002
v 0.056538 -0.20257481000000002 -0.14200000000000002
v 0.053687 -0.20350115000000002 -0.14200000000000002
v 0.053687 -0.20649885 -0.14200000000000002
v 0.056538 -0.20742519 -0.14200000000000002
v 0.05829999999999999 -0.20500000000000002 -0.14200000000000002
v 0.057499999999999996 -0.20500000000000002 -0.14120000000000002
v 0.056290799999999995 -0.20666435000000002 -0.14120000000000002
v 0.0543342 -0.20602862000000002 -0.14120000000000002
v 0.0543342 -0.20397138 -0.14120000000000002
v 0.056290799999999995 -0.20333565 -0.14120000000000002
v 0.057499999999999996 -0.20500000000000002 -0.14120000000000002
vn -0.707107 -1.81282e-16 -0.707107
vn -0.218508 -0.672499 -0.707107
vn 0.572061 -0.415627 -0.707107
vn 0.572061 0.415627 -0.707107
vn -0.218508 0.672499 -0.707107
vn -0.707107 -8.09098e-18 -0.707107
vn -0.707107 -8.09098e-18 -0.707107
vn -0.218508 0.672499 -0.707107
vn 0.572061 0.415627 -0.707107
vn 0.572061 -0.415627 -0.707107
vn -0.218508 -0.672499 -0.707107
vn -0.707107 -1.81282e-16 -0.707107
f 205//205 207//207 206//206 
f 205//205 208//208 207//207 
f 204//204 209//209 208//208 
f 204//204 208//208 205//205 
f 203//203 210//210 209//209 
f 203//203 209//209 204//204 
f 202//202 211//211 210//210 
f 202//202 210//210 203//203 
f 201//201 212//212 211//211 
f 201//201 211//211 202//202 

g Face_25
v 0.057499999999999996 -0.20500000000000002 -0.1383
v 0.056290799999999995 -0.20333565 -0.1383
v 0.0543342 -0.20397138 -0.1383
v 0.0543342 -0.20602862000000002 -0.1383
v 0.056290799999999995 -0.20666435000000002 -0.1383
v 0.057499999999999996 -0.20500000000000002 -0.1383
v 0.05829999999999999 -0.20500000000000002 -0.1375
v 0.056538 -0.20742519 -0.1375
v 0.053687 -0.20649885 -0.1375
v 0.053687 -0.20350115000000002 -0.1375
v 0.056538 -0.20257481000000002 -0.1375
v 0.05829999999999999 -0.20500000000000002 -0.1375
vn -0.707107 7.85046e-17 0.707107
vn -0.218508 -0.672499 0.707107
vn 0.572061 -0.415627 0.707107
vn 0.572061 0.415627 0.707107
vn -0.218508 0.672499 0.707107
vn -0.707107 2.51696e-16 0.707107
vn -0.707107 2.51696e-16 0.707107
vn -0.218508 0.672499 0.707107
vn 0.572061 0.415627 0.707107
vn 0.572061 -0.415627 0.707107
vn -0.218508 -0.672499 0.707107
vn -0.707107 7.85046e-17 0.707107
f 223//223 214//214 213//213 
f 223//223 213//213 224//224 
f 222//222 215//215 214//214 
f 222//222 214//214 223//223 
f 221//221 216//216 215//215 
f 221//221 215//215 222//222 
f 220//220 217//217 216//216 
f 220//220 216//216 221//221 
f 219//219 218//218 217//217 
f 219//219 217//217 220//220 

g Face_26
v 0.04525 -0.2134 -0.1433
v 0.04525 -0.21200000000000002 -0.1419
v 0.04525 -0.2134 -0.1405
v 0.04525 -0.21480000000000002 -0.1419
v 0.04525 -0.2134 -0.1433
v 0.05225 -0.2134 -0.1433
v 0.05225 -0.2134 -0.1433
v 0.05225 -0.21200000000000002 -0.14190000000000003
v 0.05225 -0.2134 -0.1405
v 0.05225 -0.21480000000000002 -0.14190000000000003
vn 5.55112e-17 1.2326e-32 1
vn -1.11022e-16 -1 -1.60812e-16
vn -5.55112e-17 3.21625e-16 -1
vn 1.11022e-16 1 -1.83697e-16
vn 5.55112e-17 -6.43249e-16 1
vn 5.55112e-17 -6.43249e-16 1
vn 5.55112e-17 1.2326e-32 1
vn -1.11022e-16 -1 -1.60812e-16
vn -5.55112e-17 3.21625e-16 -1
vn 1.11022e-16 1 -1.83697e-16
f 232//232 226//226 225//225 
f 232//232 225//225 231//231 
f 233//233 227//227 226//226 
f 233//233 226//226 232//232 
f 234//234 228//228 227//227 
f 234//234 227//227 233//233 
f 230//230 229//229 228//228 
f 230//230 228//228 234//234 

g Face_27
v 0.04525 -0.2134 -0.1433
v 0.04525 -0.21200000000000002 -0.1419
v 0.04525 -0.2134 -0.1405
v 0.04525 -0.21480000000000002 -0.1419
v 0.04525 -0.2134 -0.1433
v 0.04384999999999999 -0.2134 -0.1419
v 0.04384999999999999 -0.2134 -0.1419
vn 0.707107 -7.85046e-17 0.707107
vn 0.707107 -0.707107 -1.52964e-16
vn 0.707107 1.48918e-16 -0.707107
vn 0.707107 0.707107 -1.69146e-16
vn 0.707107 -5.3335e-16 0.707107
vn -0 -0 0
vn 0 -0 -0
f 236//236 240//240 235//235 
f 237//237 240//240 236//236 
f 241//241 240//240 237//237 
f 238//238 241//241 237//237 
f 239//239 241//241 238//238 

