mtllib Pied_roue_intermediaire_quantieme_-_plaque.mtl
usemtl Pied_roue_intermediaire_quantieme_-_plaque
#Wavefront export of shape 1-12-10-1--Pied_roue_intermediaire_quantieme_-_plaque

g Face_1
v 0.23225 -0.1405 -0.03699999999999999
v 0.23225 -0.1405 -0.040499999999999994
v 0.23225 -0.1255 -0.03699999999999999
v 0.23225 -0.1255 -0.040499999999999994
vn 1 -0 -0
vn 1 -0 -0
vn 1 -0 -0
vn 1 -0 -0
f 3//3 1//1 2//2 
f 3//3 2//2 4//4 

g Face_2
v 0.23225 -0.1255 -0.03699999999999999
v 0.23225 -0.1255 -0.040499999999999994
v 0.18375 -0.1255 -0.03699999999999999
v 0.18375 -0.1255 -0.040499999999999994
vn -1.25186e-16 1 -0
vn -1.25186e-16 1 -0
vn -1.25186e-16 1 -0
vn -1.25186e-16 1 -0
f 5//5 8//8 7//7 
f 5//5 6//6 8//8 

g Face_3
v 0.18375 -0.1255 -0.03699999999999999
v 0.18375 -0.1255 -0.040499999999999994
v 0.17725000000000002 -0.1305 -0.03699999999999999
v 0.17725000000000002 -0.1305 -0.040499999999999994
vn -0.609711 0.792624 -0
vn -0.609711 0.792624 -0
vn -0.609711 0.792624 -0
vn -0.609711 0.792624 -0
f 9//9 12//12 11//11 
f 9//9 10//10 12//12 

g Face_4
v 0.17725000000000002 -0.1305 -0.03699999999999999
v 0.17725000000000002 -0.1305 -0.040499999999999994
v 0.17725000000000002 -0.1405 -0.03699999999999999
v 0.17725000000000002 -0.1405 -0.040499999999999994
vn -1 0 -0
vn -1 0 -0
vn -1 0 -0
vn -1 0 -0
f 14//14 15//15 13//13 
f 14//14 16//16 15//15 

g Face_5
v 0.17725000000000002 -0.1405 -0.03699999999999999
v 0.17725000000000002 -0.1405 -0.040499999999999994
v 0.23225 -0.1405 -0.03699999999999999
v 0.23225 -0.1405 -0.040499999999999994
vn 1.26162e-16 -1 -0
vn 1.26162e-16 -1 -0
vn 1.26162e-16 -1 -0
vn 1.26162e-16 -1 -0
f 17//17 20//20 19//19 
f 17//17 18//18 20//20 

g Face_6
v 0.17725000000000002 -0.1405 -0.03699999999999999
v 0.23225 -0.1405 -0.03699999999999999
v 0.17725000000000002 -0.1305 -0.03699999999999999
v 0.18375 -0.1255 -0.03699999999999999
v 0.23225 -0.1255 -0.03699999999999999
v 0.2195 -0.133 -0.03699999999999999
v 0.22105471200000001 -0.13086012 -0.03699999999999999
v 0.22357029 -0.13167748 -0.03699999999999999
v 0.22357029 -0.13432252 -0.03699999999999999
v 0.22105471200000001 -0.13513988000000002 -0.03699999999999999
v 0.184 -0.133 -0.03699999999999999
v 0.1824453 -0.13086012 -0.03699999999999999
v 0.1799297 -0.13167748 -0.03699999999999999
v 0.1799297 -0.13432252 -0.03699999999999999
v 0.1824453 -0.13513988000000002 -0.03699999999999999
vn -0 -0 1
vn -0 -0 1
vn -0 -0 1
vn -0 -0 1
vn -0 -0 1
vn -0 -0 1
vn -0 -0 1
vn -0 -0 1
vn -0 -0 1
vn -0 -0 1
vn -0 -0 1
vn -0 -0 1
vn -0 -0 1
vn -0 -0 1
vn -0 -0 1
f 30//30 22//22 29//29 
f 28//28 22//22 25//25 
f 28//28 29//29 22//22 
f 27//27 28//28 25//25 
f 21//21 22//22 30//30 
f 35//35 21//21 30//30 
f 31//31 30//30 26//26 
f 31//31 35//35 30//30 
f 34//34 21//21 35//35 
f 24//24 26//26 27//27 
f 24//24 32//32 31//31 
f 24//24 31//31 26//26 
f 23//23 33//33 32//32 
f 23//23 34//34 33//33 
f 23//23 32//32 24//24 
f 23//23 21//21 34//34 
f 24//24 27//27 25//25 

g Face_7
v 0.23225 -0.1405 -0.040499999999999994
v 0.23225 -0.1255 -0.040499999999999994
v 0.17725000000000002 -0.1405 -0.040499999999999994
v 0.17725000000000002 -0.1305 -0.040499999999999994
v 0.18375 -0.1255 -0.040499999999999994
v 0.2195 -0.133 -0.040499999999999994
v 0.22105471200000001 -0.13513988000000002 -0.040499999999999994
v 0.22357029 -0.13432252 -0.040499999999999994
v 0.22357029 -0.13167748 -0.040499999999999994
v 0.22105471200000001 -0.13086012 -0.040499999999999994
v 0.179 -0.133 -0.040499999999999994
v 0.180375 -0.13538157 -0.040499999999999994
v 0.183125 -0.13538157 -0.040499999999999994
v 0.1845 -0.133 -0.040499999999999994
v 0.183125 -0.13061843 -0.040499999999999994
v 0.180375 -0.13061843 -0.040499999999999994
v 0.2289 -0.1365 -0.040499999999999994
v 0.230175 -0.13576388 -0.040499999999999994
v 0.230175 -0.13723612000000002 -0.040499999999999994
v 0.2134 -0.1295 -0.040499999999999994
v 0.214675 -0.12876388 -0.040499999999999994
v 0.214675 -0.13023612 -0.040499999999999994
vn 0 0 -1
vn 0 0 -1
vn 0 0 -1
vn 0 0 -1
vn 0 0 -1
vn 0 0 -1
vn 0 0 -1
vn 0 0 -1
vn 0 0 -1
vn 0 0 -1
vn 0 0 -1
vn 0 0 -1
vn 0 0 -1
vn 0 0 -1
vn 0 0 -1
vn 0 0 -1
vn 0 0 -1
vn 0 0 -1
vn 0 0 -1
vn 0 0 -1
vn 0 0 -1
vn 0 0 -1
f 53//53 36//36 54//54 
f 52//52 54//54 36//36 
f 37//37 36//36 53//53 
f 42//42 43//43 52//52 
f 42//42 52//52 36//36 
f 44//44 53//53 52//52 
f 44//44 52//52 43//43 
f 44//44 37//37 53//53 
f 45//45 37//37 44//44 
f 57//57 41//41 42//42 
f 57//57 45//45 41//41 
f 56//56 45//45 57//57 
f 56//56 37//37 45//45 
f 48//48 55//55 57//57 
f 48//48 57//57 42//42 
f 38//38 42//42 36//36 
f 38//38 48//48 42//42 
f 49//49 55//55 48//48 
f 47//47 48//48 38//38 
f 46//46 47//47 38//38 
f 40//40 49//49 50//50 
f 40//40 50//50 51//51 
f 40//40 56//56 55//55 
f 40//40 55//55 49//49 
f 39//39 51//51 46//46 
f 39//39 40//40 51//51 
f 39//39 46//46 38//38 
f 40//40 37//37 56//56 

g Face_8
v 0.22 -0.133 -0.03749999999999999
v 0.22120922 -0.13466435000000002 -0.03749999999999999
v 0.22316578 -0.13402862000000001 -0.03749999999999999
v 0.22316578 -0.13197138 -0.03749999999999999
v 0.22120922 -0.13133565 -0.03749999999999999
v 0.22 -0.133 -0.03749999999999999
v 0.22 -0.133 -0.039999999999999994
v 0.22 -0.133 -0.039999999999999994
v 0.22120922 -0.13133565 -0.039999999999999994
v 0.22316578 -0.13197138 -0.039999999999999994
v 0.22316578 -0.13402862000000001 -0.039999999999999994
v 0.22120922 -0.13466435000000002 -0.039999999999999994
vn 1 -1.22465e-16 -0
vn 0.309017 0.951057 -0
vn -0.809017 0.587785 -0
vn -0.809017 -0.587785 0
vn 0.309017 -0.951057 -0
vn 1 -3.67394e-16 -0
vn 1 -1.22465e-16 -0
vn 1 -3.67394e-16 -0
vn 0.309017 -0.951057 -0
vn -0.809017 -0.587785 0
vn -0.809017 0.587785 -0
vn 0.309017 0.951057 -0
f 59//59 64//64 58//58 
f 59//59 69//69 64//64 
f 60//60 68//68 69//69 
f 60//60 69//69 59//59 
f 61//61 67//67 68//68 
f 61//61 68//68 60//60 
f 62//62 66//66 67//67 
f 62//62 67//67 61//61 
f 63//63 65//65 66//66 
f 63//63 66//66 62//62 

g Face_9
v 0.184 -0.133 -0.039999999999999994
v 0.182875 -0.13494856 -0.039999999999999994
v 0.180625 -0.13494856 -0.039999999999999994
v 0.1795 -0.133 -0.039999999999999994
v 0.184 -0.133 -0.03699999999999999
v 0.184 -0.133 -0.03699999999999999
v 0.1824453 -0.13086012 -0.03699999999999999
v 0.1799297 -0.13167748 -0.03699999999999999
v 0.1799297 -0.13432252 -0.03699999999999999
v 0.1824453 -0.13513988000000002 -0.03699999999999999
v 0.184 -0.133 -0.039999999999999994
v 0.180625 -0.13105144000000002 -0.039999999999999994
v 0.182875 -0.13105144000000002 -0.039999999999999994
vn -1 2.44929e-16 -0
vn -0.5 0.866025 -0
vn 0.5 0.866025 -0
vn 1 -1.22465e-16 -0
vn -1 2.44929e-16 -0
vn -1 -0 -0
vn -0.309017 -0.951057 0
vn 0.809017 -0.587785 -0
vn 0.809017 0.587785 -0
vn -0.309017 0.951057 -0
vn -1 -0 -0
vn 0.5 -0.866025 -0
vn -0.5 -0.866025 0
f 75//75 82//82 80//80 
f 76//76 81//81 82//82 
f 76//76 82//82 75//75 
f 77//77 73//73 81//81 
f 77//77 81//81 76//76 
f 78//78 72//72 73//73 
f 78//78 73//73 77//77 
f 79//79 71//71 72//72 
f 79//79 72//72 78//78 
f 74//74 70//70 71//71 
f 74//74 71//71 79//79 

g Face_10
v 0.2134 -0.1295 -0.03899999999999999
v 0.214675 -0.12876388 -0.03899999999999999
v 0.214675 -0.13023612 -0.03899999999999999
v 0.2134 -0.1295 -0.03899999999999999
v 0.2134 -0.1295 -0.040499999999999994
v 0.2134 -0.1295 -0.040499999999999994
v 0.214675 -0.12876388 -0.040499999999999994
v 0.214675 -0.13023612 -0.040499999999999994
vn 1 -0 -0
vn -0.5 -0.866025 0
vn -0.5 0.866025 -0
vn 1 2.44929e-16 -0
vn 1 2.44929e-16 -0
vn 1 -0 -0
vn -0.5 -0.866025 0
vn -0.5 0.866025 -0
f 89//89 84//84 83//83 
f 89//89 83//83 88//88 
f 90//90 85//85 84//84 
f 90//90 84//84 89//89 
f 87//87 86//86 85//85 
f 87//87 85//85 90//90 

g Face_11
v 0.2134 -0.1295 -0.03899999999999999
v 0.214675 -0.12876388 -0.03899999999999999
v 0.214675 -0.13023612 -0.03899999999999999
vn 0 0 -1
vn 0 0 -1
vn 0 0 -1
f 91//91 92//92 93//93 

g Face_12
v 0.2289 -0.1365 -0.03899999999999999
v 0.230175 -0.13576388 -0.03899999999999999
v 0.230175 -0.13723612000000002 -0.03899999999999999
v 0.2289 -0.1365 -0.03899999999999999
v 0.2289 -0.1365 -0.040499999999999994
v 0.2289 -0.1365 -0.040499999999999994
v 0.230175 -0.13576388 -0.040499999999999994
v 0.230175 -0.13723612000000002 -0.040499999999999994
vn 1 -0 -0
vn -0.5 -0.866025 0
vn -0.5 0.866025 -0
vn 1 2.44929e-16 -0
vn 1 2.44929e-16 -0
vn 1 -0 -0
vn -0.5 -0.866025 0
vn -0.5 0.866025 -0
f 100//100 95//95 94//94 
f 100//100 94//94 99//99 
f 101//101 96//96 95//95 
f 101//101 95//95 100//100 
f 98//98 97//97 96//96 
f 98//98 96//96 101//101 

g Face_13
v 0.2289 -0.1365 -0.03899999999999999
v 0.230175 -0.13576388 -0.03899999999999999
v 0.230175 -0.13723612000000002 -0.03899999999999999
vn 0 0 -1
vn 0 0 -1
vn 0 0 -1
f 102//102 103//103 104//104 

g Face_14
v 0.2195 -0.133 -0.03699999999999999
v 0.22105471200000001 -0.13086012 -0.03699999999999999
v 0.22357029 -0.13167748 -0.03699999999999999
v 0.22357029 -0.13432252 -0.03699999999999999
v 0.22105471200000001 -0.13513988000000002 -0.03699999999999999
v 0.2195 -0.133 -0.03699999999999999
v 0.22 -0.133 -0.03749999999999999
v 0.22120922 -0.13466435000000002 -0.03749999999999999
v 0.22316578 -0.13402862000000001 -0.03749999999999999
v 0.22316578 -0.13197138 -0.03749999999999999
v 0.22120922 -0.13133565 -0.03749999999999999
v 0.22 -0.133 -0.03749999999999999
vn 0.707107 -2.59787e-16 0.707107
vn 0.218508 -0.672499 0.707107
vn -0.572061 -0.415627 0.707107
vn -0.572061 0.415627 0.707107
vn 0.218508 0.672499 0.707107
vn 0.707107 -8.65956e-17 0.707107
vn 0.707107 -8.65956e-17 0.707107
vn 0.218508 0.672499 0.707107
vn -0.572061 0.415627 0.707107
vn -0.572061 -0.415627 0.707107
vn 0.218508 -0.672499 0.707107
vn 0.707107 -2.59787e-16 0.707107
f 109//109 111//111 110//110 
f 109//109 112//112 111//111 
f 108//108 113//113 112//112 
f 108//108 112//112 109//109 
f 107//107 114//114 113//113 
f 107//107 113//113 108//108 
f 106//106 115//115 114//114 
f 106//106 114//114 107//107 
f 105//105 116//116 115//115 
f 105//105 115//115 106//106 

g Face_15
v 0.22 -0.133 -0.039999999999999994
v 0.22120922 -0.13133565 -0.039999999999999994
v 0.22316578 -0.13197138 -0.039999999999999994
v 0.22316578 -0.13402862000000001 -0.039999999999999994
v 0.22120922 -0.13466435000000002 -0.039999999999999994
v 0.22 -0.133 -0.039999999999999994
v 0.2195 -0.133 -0.040499999999999994
v 0.22105471200000001 -0.13513988000000002 -0.040499999999999994
v 0.22357029 -0.13432252 -0.040499999999999994
v 0.22357029 -0.13167748 -0.040499999999999994
v 0.22105471200000001 -0.13086012 -0.040499999999999994
v 0.2195 -0.133 -0.040499999999999994
vn 0.707107 -0 -0.707107
vn 0.218508 -0.672499 -0.707107
vn -0.572061 -0.415627 -0.707107
vn -0.572061 0.415627 -0.707107
vn 0.218508 0.672499 -0.707107
vn 0.707107 1.73191e-16 -0.707107
vn 0.707107 1.73191e-16 -0.707107
vn 0.218508 0.672499 -0.707107
vn -0.572061 0.415627 -0.707107
vn -0.572061 -0.415627 -0.707107
vn 0.218508 -0.672499 -0.707107
vn 0.707107 -0 -0.707107
f 127//127 118//118 117//117 
f 127//127 117//117 128//128 
f 126//126 119//119 118//118 
f 126//126 118//118 127//127 
f 125//125 120//120 119//119 
f 125//125 119//119 126//126 
f 124//124 121//121 120//120 
f 124//124 120//120 125//125 
f 123//123 122//122 121//121 
f 123//123 121//121 124//124 

g Face_16
v 0.184 -0.133 -0.039999999999999994
v 0.182875 -0.13494856 -0.039999999999999994
v 0.180625 -0.13494856 -0.039999999999999994
v 0.1795 -0.133 -0.039999999999999994
v 0.179 -0.133 -0.040499999999999994
v 0.180375 -0.13538157 -0.040499999999999994
v 0.183125 -0.13538157 -0.040499999999999994
v 0.1845 -0.133 -0.040499999999999994
v 0.183125 -0.13061843 -0.040499999999999994
v 0.180375 -0.13061843 -0.040499999999999994
v 0.179 -0.133 -0.040499999999999994
v 0.1795 -0.133 -0.039999999999999994
v 0.180625 -0.13105144000000002 -0.039999999999999994
v 0.182875 -0.13105144000000002 -0.039999999999999994
vn -0.707107 -8.65956e-17 -0.707107
vn -0.353553 0.612372 -0.707107
vn 0.353553 0.612372 -0.707107
vn 0.707107 1.73191e-16 -0.707107
vn 0.707107 1.73191e-16 -0.707107
vn 0.353553 0.612372 -0.707107
vn -0.353553 0.612372 -0.707107
vn -0.707107 -8.65956e-17 -0.707107
vn -0.353553 -0.612372 -0.707107
vn 0.353553 -0.612372 -0.707107
vn 0.707107 -0 -0.707107
vn 0.707107 -0 -0.707107
vn 0.353553 -0.612372 -0.707107
vn -0.353553 -0.612372 -0.707107
f 138//138 140//140 139//139 
f 138//138 141//141 140//140 
f 137//137 142//142 141//141 
f 137//137 141//141 138//138 
f 136//136 129//129 142//142 
f 136//136 142//142 137//137 
f 135//135 130//130 129//129 
f 135//135 129//129 136//136 
f 134//134 131//131 130//130 
f 134//134 130//130 135//135 
f 133//133 132//132 131//131 
f 133//133 131//131 134//134 

