mtllib Pilier_centre_droit_(7x7).mtl
usemtl Pilier_centre_droit_(7x7)
#Wavefront export of shape 1-1-7--Pilier_centre_droit__7x7_

g Face_1
v 0.183 -0.3125 -0.08549999999999999
v 0.182 -0.3125 -0.08549999999999999
v 0.183 -0.3125 -0.0925
v 0.182 -0.3125 -0.0925
vn -0 -1 -0
vn -0 -1 -0
vn -0 -1 -0
vn -0 -1 -0
f 1//1 4//4 3//3 
f 1//1 2//2 4//4 

g Face_2
v 0.176 -0.3125 -0.0925
v 0.177 -0.3125 -0.0925
v 0.176 -0.3125 -0.08549999999999999
v 0.177 -0.3125 -0.08549999999999999
vn -0 -1 -0
vn -0 -1 -0
vn -0 -1 -0
vn -0 -1 -0
f 8//8 5//5 6//6 
f 8//8 7//7 5//5 

g Face_3
v 0.177 0.0 -0.0925
v 0.177 0.0 -0.08549999999999999
v 0.176 0.0 -0.0925
v 0.176 0.0 -0.08549999999999999
vn 0 1 0
vn 0 1 0
vn 0 1 0
vn 0 1 0
f 10//10 9//9 11//11 
f 10//10 11//11 12//12 

g Face_4
v 0.183 -0.3125 -0.0925
v 0.183 -0.3125 -0.08549999999999999
v 0.183 0.0 -0.0925
v 0.183 0.0 -0.08549999999999999
vn 1 0 -1.23909e-16
vn 1 0 -1.23909e-16
vn 1 0 -1.23909e-16
vn 1 0 -1.23909e-16
f 15//15 14//14 13//13 
f 15//15 16//16 14//14 

g Face_5
v 0.183 -0.3125 -0.08549999999999999
v 0.182 -0.3125 -0.08549999999999999
v 0.183 0.0 -0.08549999999999999
v 0.182 0.0 -0.08549999999999999
v 0.182 0.0034 -0.08549999999999999
v 0.177 0.0034 -0.08549999999999999
v 0.177 0.0 -0.08549999999999999
v 0.176 0.0 -0.08549999999999999
v 0.176 -0.3125 -0.08549999999999999
v 0.177 -0.3125 -0.08549999999999999
v 0.177 -0.3159 -0.08549999999999999
v 0.182 -0.3159 -0.08549999999999999
v 0.1807 -0.1375 -0.08549999999999999
v 0.1795 -0.1363 -0.08549999999999999
v 0.1783 -0.1375 -0.08549999999999999
v 0.1795 -0.1387 -0.08549999999999999
vn 0 0 1
vn 0 0 1
vn 0 0 1
vn 0 0 1
vn 0 0 1
vn 0 0 1
vn 0 0 1
vn 0 0 1
vn 0 0 1
vn 0 0 1
vn 0 0 1
vn 0 0 1
vn 0 0 1
vn 0 0 1
vn 0 0 1
vn 0 0 1
f 18//18 26//26 27//27 
f 18//18 27//27 28//28 
f 32//32 18//18 17//17 
f 32//32 25//25 26//26 
f 32//32 26//26 18//18 
f 32//32 31//31 25//25 
f 29//29 32//32 17//17 
f 24//24 31//31 30//30 
f 23//23 24//24 30//30 
f 20//20 23//23 30//30 
f 19//19 30//30 29//29 
f 19//19 20//20 30//30 
f 21//21 22//22 23//23 
f 21//21 23//23 20//20 
f 17//17 19//19 29//29 
f 24//24 25//25 31//31 

g Face_6
v 0.176 -0.3125 -0.08549999999999999
v 0.176 -0.3125 -0.0925
v 0.176 0.0 -0.08549999999999999
v 0.176 0.0 -0.0925
vn -1 0 6.19544e-17
vn -1 0 6.19544e-17
vn -1 0 6.19544e-17
vn -1 0 6.19544e-17
f 35//35 34//34 33//33 
f 35//35 36//36 34//34 

g Face_7
v 0.176 -0.3125 -0.0925
v 0.177 -0.3125 -0.0925
v 0.176 0.0 -0.0925
v 0.177 0.0 -0.0925
v 0.177 0.0034 -0.0925
v 0.182 0.0034 -0.0925
v 0.182 0.0 -0.0925
v 0.183 0.0 -0.0925
v 0.183 -0.3125 -0.0925
v 0.182 -0.3125 -0.0925
v 0.182 -0.3159 -0.0925
v 0.177 -0.3159 -0.0925
v 0.1783 -0.1375 -0.0925
v 0.1789 -0.136461 -0.0925
v 0.18009999999999998 -0.136461 -0.0925
v 0.1807 -0.1375 -0.0925
v 0.18009999999999998 -0.138539 -0.0925
v 0.1789 -0.138539 -0.0925
vn 0 0 -1
vn 0 0 -1
vn 0 0 -1
vn 0 0 -1
vn 0 0 -1
vn 0 0 -1
vn 0 0 -1
vn 0 0 -1
vn 0 0 -1
vn 0 0 -1
vn 0 0 -1
vn 0 0 -1
vn 0 0 -1
vn 0 0 -1
vn 0 0 -1
vn 0 0 -1
vn 0 0 -1
vn 0 0 -1
f 38//38 46//46 47//47 
f 38//38 47//47 48//48 
f 53//53 45//45 46//46 
f 52//52 45//45 53//53 
f 54//54 38//38 37//37 
f 54//54 53//53 46//46 
f 54//54 46//46 38//38 
f 49//49 54//54 37//37 
f 44//44 52//52 51//51 
f 43//43 44//44 51//51 
f 40//40 42//42 43//43 
f 40//40 51//51 50//50 
f 40//40 43//43 51//51 
f 39//39 50//50 49//49 
f 39//39 40//40 50//50 
f 41//41 42//42 40//40 
f 37//37 39//39 49//49 
f 44//44 45//45 52//52 

g Face_8
v 0.182 0.0 -0.08549999999999999
v 0.182 0.0 -0.0925
v 0.183 0.0 -0.08549999999999999
v 0.183 0.0 -0.0925
vn 0 1 0
vn 0 1 0
vn 0 1 0
vn 0 1 0
f 57//57 56//56 55//55 
f 57//57 58//58 56//56 

g Face_9
v 0.182 0.0034 -0.0925
v 0.182 0.0 -0.0925
v 0.182 0.0 -0.08549999999999999
v 0.182 0.0034 -0.08549999999999999
vn 1 -0 -0
vn 1 -0 -0
vn 1 -0 -0
vn 1 -0 -0
f 62//62 60//60 59//59 
f 62//62 61//61 60//60 

g Face_10
v 0.177 0.0034 -0.08549999999999999
v 0.177 0.0 -0.08549999999999999
v 0.177 0.0 -0.0925
v 0.177 0.0034 -0.0925
vn -1 0 -0
vn -1 0 -0
vn -1 0 -0
vn -1 0 -0
f 66//66 64//64 63//63 
f 66//66 65//65 64//64 

g Face_11
v 0.1765 0.0034 -0.093
v 0.1765 0.0034 -0.08499999999999999
v 0.1825 0.0034 -0.08499999999999999
v 0.1825 0.0034 -0.093
v 0.177 0.0034 -0.0925
v 0.177 0.0034 -0.08549999999999999
v 0.182 0.0034 -0.0925
v 0.182 0.0034 -0.08549999999999999
vn -0 -1 -0
vn -0 -1 -0
vn -0 -1 -0
vn -0 -1 -0
vn -0 -1 -0
vn -0 -1 -0
vn -0 -1 -0
vn -0 -1 -0
f 73//73 67//67 70//70 
f 73//73 71//71 67//67 
f 72//72 68//68 67//67 
f 72//72 67//67 71//71 
f 69//69 72//72 74//74 
f 69//69 68//68 72//72 
f 69//69 73//73 70//70 
f 69//69 74//74 73//73 

g Face_12
v 0.1825 0.00365 -0.093
v 0.1825 0.0034 -0.093
v 0.1765 0.00365 -0.093
v 0.1765 0.0034 -0.093
vn -0 -0 -1
vn -0 -0 -1
vn -0 -0 -1
vn -0 -0 -1
f 75//75 78//78 77//77 
f 75//75 76//76 78//78 

g Face_13
v 0.1765 0.00365 -0.093
v 0.1765 0.0034 -0.093
v 0.1765 0.00365 -0.08499999999999999
v 0.1765 0.0034 -0.08499999999999999
vn -1 0 -0
vn -1 0 -0
vn -1 0 -0
vn -1 0 -0
f 79//79 82//82 81//81 
f 79//79 80//80 82//82 

g Face_14
v 0.1765 0.00365 -0.08499999999999999
v 0.1765 0.0034 -0.08499999999999999
v 0.1825 0.00365 -0.08499999999999999
v 0.1825 0.0034 -0.08499999999999999
vn -0 -0 1
vn -0 -0 1
vn -0 -0 1
vn -0 -0 1
f 83//83 86//86 85//85 
f 83//83 84//84 86//86 

g Face_15
v 0.1825 0.00365 -0.08499999999999999
v 0.1825 0.0034 -0.08499999999999999
v 0.1825 0.00365 -0.093
v 0.1825 0.0034 -0.093
vn 1 -0 -0
vn 1 -0 -0
vn 1 -0 -0
vn 1 -0 -0
f 87//87 90//90 89//89 
f 87//87 88//88 90//90 

g Face_16
v 0.1825 0.00365 -0.093
v 0.1765 0.00365 -0.093
v 0.1765 0.00365 -0.08499999999999999
v 0.1825 0.00365 -0.08499999999999999
vn 0 1 0
vn 0 1 0
vn 0 1 0
vn 0 1 0
f 94//94 91//91 92//92 
f 94//94 92//92 93//93 

g Face_17
v 0.182 -0.3125 -0.0925
v 0.182 -0.3125 -0.08549999999999999
v 0.182 -0.3159 -0.0925
v 0.182 -0.3159 -0.08549999999999999
vn 1 -0 -0
vn 1 -0 -0
vn 1 -0 -0
vn 1 -0 -0
f 96//96 97//97 95//95 
f 96//96 98//98 97//97 

g Face_18
v 0.177 -0.3125 -0.08549999999999999
v 0.177 -0.3125 -0.0925
v 0.177 -0.3159 -0.08549999999999999
v 0.177 -0.3159 -0.0925
vn -1 0 -0
vn -1 0 -0
vn -1 0 -0
vn -1 0 -0
f 100//100 101//101 99//99 
f 100//100 102//102 101//101 

g Face_19
v 0.1765 -0.3159 -0.08499999999999999
v 0.1765 -0.3159 -0.093
v 0.1825 -0.3159 -0.093
v 0.1825 -0.3159 -0.08499999999999999
v 0.177 -0.3159 -0.0925
v 0.177 -0.3159 -0.08549999999999999
v 0.182 -0.3159 -0.08549999999999999
v 0.182 -0.3159 -0.0925
vn -0 1 -0
vn -0 1 -0
vn -0 1 -0
vn -0 1 -0
vn -0 1 -0
vn -0 1 -0
vn -0 1 -0
vn -0 1 -0
f 109//109 103//103 106//106 
f 109//109 108//108 103//103 
f 107//107 104//104 103//103 
f 107//107 103//103 108//108 
f 105//105 107//107 110//110 
f 105//105 104//104 107//107 
f 105//105 109//109 106//106 
f 105//105 110//110 109//109 

g Face_20
v 0.1825 -0.31615 -0.08499999999999999
v 0.1825 -0.3159 -0.08499999999999999
v 0.1765 -0.31615 -0.08499999999999999
v 0.1765 -0.3159 -0.08499999999999999
vn -0 -0 1
vn -0 -0 1
vn -0 -0 1
vn -0 -0 1
f 114//114 111//111 112//112 
f 114//114 113//113 111//111 

g Face_21
v 0.1765 -0.31615 -0.08499999999999999
v 0.1765 -0.3159 -0.08499999999999999
v 0.1765 -0.31615 -0.093
v 0.1765 -0.3159 -0.093
vn -1 0 -0
vn -1 0 -0
vn -1 0 -0
vn -1 0 -0
f 118//118 115//115 116//116 
f 118//118 117//117 115//115 

g Face_22
v 0.1765 -0.31615 -0.093
v 0.1765 -0.3159 -0.093
v 0.1825 -0.31615 -0.093
v 0.1825 -0.3159 -0.093
vn -0 -0 -1
vn -0 -0 -1
vn -0 -0 -1
vn -0 -0 -1
f 122//122 119//119 120//120 
f 122//122 121//121 119//119 

g Face_23
v 0.1825 -0.31615 -0.093
v 0.1825 -0.3159 -0.093
v 0.1825 -0.31615 -0.08499999999999999
v 0.1825 -0.3159 -0.08499999999999999
vn 1 -0 -0
vn 1 -0 -0
vn 1 -0 -0
vn 1 -0 -0
f 126//126 123//123 124//124 
f 126//126 125//125 123//123 

g Face_24
v 0.1825 -0.31615 -0.08499999999999999
v 0.1765 -0.31615 -0.08499999999999999
v 0.1765 -0.31615 -0.093
v 0.1825 -0.31615 -0.093
vn 0 -1 0
vn 0 -1 0
vn 0 -1 0
vn 0 -1 0
f 130//130 127//127 128//128 
f 130//130 128//128 129//129 

g Face_25
v 0.1807 -0.1375 -0.0925
v 0.18009999999999998 -0.138539 -0.0925
v 0.1789 -0.138539 -0.0925
v 0.1783 -0.1375 -0.0925
v 0.1807 -0.1375 -0.08549999999999999
v 0.1807 -0.1375 -0.08549999999999999
v 0.1795 -0.1363 -0.08549999999999999
v 0.1783 -0.1375 -0.08549999999999999
v 0.1795 -0.1387 -0.08549999999999999
v 0.1807 -0.1375 -0.0925
v 0.1789 -0.136461 -0.0925
v 0.18009999999999998 -0.136461 -0.0925
vn -1 2.44929e-16 -0
vn -0.5 0.866025 -0
vn 0.5 0.866025 -0
vn 1 -1.22465e-16 -0
vn -1 2.44929e-16 -0
vn -1 -0 -0
vn -6.12323e-17 -1 0
vn 1 -1.22465e-16 -0
vn 1.83697e-16 1 -0
vn -1 -0 -0
vn 0.5 -0.866025 -0
vn -0.5 -0.866025 0
f 136//136 142//142 140//140 
f 137//137 141//141 142//142 
f 137//137 142//142 136//136 
f 138//138 133//133 134//134 
f 138//138 134//134 141//141 
f 138//138 141//141 137//137 
f 139//139 132//132 133//133 
f 139//139 133//133 138//138 
f 135//135 131//131 132//132 
f 135//135 132//132 139//139 

