mtllib Pilier_arriere_gauche_(10x9.5).mtl
usemtl Pilier_arriere_gauche_(10x9.5)
#Wavefront export of shape 1-1-6--Pilier_arriere_gauche__10x9_5_

g Face_1
v 0.01625 -0.3125 -0.1585
v 0.01625 -0.3125 -0.1565
v 0.00675 -0.3125 -0.1585
v 0.00675 -0.3125 -0.1565
vn -0 -1 -0
vn -0 -1 -0
vn -0 -1 -0
vn -0 -1 -0
f 2//2 3//3 1//1 
f 2//2 4//4 3//3 

g Face_2
v 0.00675 -0.3125 -0.1485
v 0.00675 -0.3125 -0.1505
v 0.01625 -0.3125 -0.1485
v 0.01625 -0.3125 -0.1505
vn -0 -1 -0
vn -0 -1 -0
vn -0 -1 -0
vn -0 -1 -0
f 7//7 5//5 6//6 
f 7//7 6//6 8//8 

g Face_3
v 0.01625 0.0 -0.1565
v 0.00675 0.0 -0.1565
v 0.01625 0.0 -0.1585
v 0.00675 0.0 -0.1585
vn 0 1 0
vn 0 1 0
vn 0 1 0
vn 0 1 0
f 9//9 11//11 12//12 
f 9//9 12//12 10//10 

g Face_4
v 0.01625 -0.3125 -0.1585
v 0.01625 -0.3125 -0.1565
v 0.01625 0.0 -0.1585
v 0.01625 0.0 -0.1565
v 0.01625 0.0034 -0.1565
v 0.01625 0.0034 -0.1505
v 0.01625 0.0 -0.1505
v 0.01625 0.0 -0.1485
v 0.01625 -0.3125 -0.1485
v 0.01625 -0.3125 -0.1505
v 0.01625 -0.3159 -0.1505
v 0.01625 -0.3159 -0.1565
vn 1 0 -1.73472e-16
vn 1 0 -1.73472e-16
vn 1 0 -1.73472e-16
vn 1 0 -1.73472e-16
vn 1 0 -1.73472e-16
vn 1 0 -1.73472e-16
vn 1 0 -1.73472e-16
vn 1 0 -1.73472e-16
vn 1 0 -1.73472e-16
vn 1 0 -1.73472e-16
vn 1 0 -1.73472e-16
vn 1 0 -1.73472e-16
f 14//14 22//22 23//23 
f 14//14 23//23 24//24 
f 19//19 20//20 21//21 
f 19//19 21//21 22//22 
f 16//16 22//22 14//14 
f 16//16 19//19 22//22 
f 15//15 14//14 13//13 
f 15//15 16//16 14//14 
f 17//17 18//18 19//19 
f 17//17 19//19 16//16 

g Face_5
v 0.01625 -0.3125 -0.1485
v 0.00675 -0.3125 -0.1485
v 0.01625 0.0 -0.1485
v 0.00675 0.0 -0.1485
vn 0 0 1
vn 0 0 1
vn 0 0 1
vn 0 0 1
f 27//27 26//26 25//25 
f 27//27 28//28 26//26 

g Face_6
v 0.00675 -0.3125 -0.1485
v 0.00675 -0.3125 -0.1505
v 0.00675 0.0 -0.1485
v 0.00675 0.0 -0.1505
v 0.00675 0.0034 -0.1505
v 0.00675 0.0034 -0.1565
v 0.00675 0.0 -0.1565
v 0.00675 0.0 -0.1585
v 0.00675 -0.3125 -0.1585
v 0.00675 -0.3125 -0.1565
v 0.00675 -0.3159 -0.1565
v 0.00675 -0.3159 -0.1505
vn -1 0 1.73472e-16
vn -1 0 1.73472e-16
vn -1 0 1.73472e-16
vn -1 0 1.73472e-16
vn -1 0 1.73472e-16
vn -1 0 1.73472e-16
vn -1 0 1.73472e-16
vn -1 0 1.73472e-16
vn -1 0 1.73472e-16
vn -1 0 1.73472e-16
vn -1 0 1.73472e-16
vn -1 0 1.73472e-16
f 30//30 38//38 39//39 
f 30//30 39//39 40//40 
f 35//35 36//36 37//37 
f 35//35 37//37 38//38 
f 32//32 38//38 30//30 
f 32//32 35//35 38//38 
f 31//31 30//30 29//29 
f 31//31 32//32 30//30 
f 33//33 34//34 35//35 
f 33//33 35//35 32//32 

g Face_7
v 0.00675 -0.3125 -0.1585
v 0.01625 -0.3125 -0.1585
v 0.00675 0.0 -0.1585
v 0.01625 0.0 -0.1585
v 0.0108 -0.123 -0.1585
v 0.01225 -0.12155 -0.1585
v 0.0137 -0.123 -0.1585
v 0.01225 -0.12445 -0.1585
vn 0 0 -1
vn 0 0 -1
vn 0 0 -1
vn 0 0 -1
vn 0 0 -1
vn 0 0 -1
vn 0 0 -1
vn 0 0 -1
f 48//48 42//42 41//41 
f 48//48 47//47 42//42 
f 45//45 48//48 41//41 
f 44//44 47//47 46//46 
f 43//43 46//46 45//45 
f 43//43 44//44 46//46 
f 41//41 43//43 45//45 
f 44//44 42//42 47//47 

g Face_8
v 0.00675 0.0 -0.1505
v 0.01625 0.0 -0.1505
v 0.00675 0.0 -0.1485
v 0.01625 0.0 -0.1485
vn 0 1 0
vn 0 1 0
vn 0 1 0
vn 0 1 0
f 52//52 50//50 49//49 
f 52//52 49//49 51//51 

g Face_9
v 0.01625 0.0034 -0.1505
v 0.01625 0.0 -0.1505
v 0.00675 0.0 -0.1505
v 0.00675 0.0034 -0.1505
vn -0 -0 1
vn -0 -0 1
vn -0 -0 1
vn -0 -0 1
f 56//56 54//54 53//53 
f 56//56 55//55 54//54 

g Face_10
v 0.00675 0.0034 -0.1565
v 0.00675 0.0 -0.1565
v 0.01625 0.0 -0.1565
v 0.01625 0.0034 -0.1565
vn -0 -0 -1
vn -0 -0 -1
vn -0 -0 -1
vn -0 -0 -1
f 60//60 58//58 57//57 
f 60//60 59//59 58//58 

g Face_11
v 0.01675 0.0034 -0.157
v 0.0062499999999999995 0.0034 -0.157
v 0.0062499999999999995 0.0034 -0.15
v 0.01675 0.0034 -0.15
v 0.01625 0.0034 -0.1565
v 0.00675 0.0034 -0.1565
v 0.01625 0.0034 -0.1505
v 0.00675 0.0034 -0.1505
vn -0 -1 -0
vn -0 -1 -0
vn -0 -1 -0
vn -0 -1 -0
vn -0 -1 -0
vn -0 -1 -0
vn -0 -1 -0
vn -0 -1 -0
f 68//68 63//63 62//62 
f 68//68 62//62 66//66 
f 65//65 62//62 61//61 
f 65//65 66//66 62//62 
f 64//64 67//67 65//65 
f 64//64 68//68 67//67 
f 64//64 65//65 61//61 
f 64//64 63//63 68//68 

g Face_12
v 0.01675 0.00365 -0.15
v 0.01675 0.0034 -0.15
v 0.01675 0.00365 -0.157
v 0.01675 0.0034 -0.157
vn 1 -0 -0
vn 1 -0 -0
vn 1 -0 -0
vn 1 -0 -0
f 69//69 72//72 71//71 
f 69//69 70//70 72//72 

g Face_13
v 0.01675 0.00365 -0.157
v 0.01675 0.0034 -0.157
v 0.0062499999999999995 0.00365 -0.157
v 0.0062499999999999995 0.0034 -0.157
vn -0 -0 -1
vn -0 -0 -1
vn -0 -0 -1
vn -0 -0 -1
f 73//73 76//76 75//75 
f 73//73 74//74 76//76 

g Face_14
v 0.0062499999999999995 0.00365 -0.157
v 0.0062499999999999995 0.0034 -0.157
v 0.0062499999999999995 0.00365 -0.15
v 0.0062499999999999995 0.0034 -0.15
vn -1 -0 1.23909e-16
vn -1 -0 1.23909e-16
vn -1 -0 1.23909e-16
vn -1 -0 1.23909e-16
f 77//77 80//80 79//79 
f 77//77 78//78 80//80 

g Face_15
v 0.0062499999999999995 0.00365 -0.15
v 0.0062499999999999995 0.0034 -0.15
v 0.01675 0.00365 -0.15
v 0.01675 0.0034 -0.15
vn -0 -0 1
vn -0 -0 1
vn -0 -0 1
vn -0 -0 1
f 81//81 84//84 83//83 
f 81//81 82//82 84//84 

g Face_16
v 0.01675 0.00365 -0.15
v 0.01675 0.00365 -0.157
v 0.0062499999999999995 0.00365 -0.157
v 0.0062499999999999995 0.00365 -0.15
vn 0 1 0
vn 0 1 0
vn 0 1 0
vn 0 1 0
f 85//85 86//86 87//87 
f 85//85 87//87 88//88 

g Face_17
v 0.00675 -0.3125 -0.1565
v 0.01625 -0.3125 -0.1565
v 0.00675 -0.3159 -0.1565
v 0.01625 -0.3159 -0.1565
vn -0 -0 -1
vn -0 -0 -1
vn -0 -0 -1
vn -0 -0 -1
f 90//90 91//91 89//89 
f 90//90 92//92 91//91 

g Face_18
v 0.01625 -0.3125 -0.1505
v 0.00675 -0.3125 -0.1505
v 0.01625 -0.3159 -0.1505
v 0.00675 -0.3159 -0.1505
vn -0 -0 1
vn -0 -0 1
vn -0 -0 1
vn -0 -0 1
f 94//94 95//95 93//93 
f 94//94 96//96 95//95 

g Face_19
v 0.01675 -0.3159 -0.15
v 0.0062499999999999995 -0.3159 -0.15
v 0.0062499999999999995 -0.3159 -0.157
v 0.01675 -0.3159 -0.157
v 0.00675 -0.3159 -0.1505
v 0.01625 -0.3159 -0.1505
v 0.01625 -0.3159 -0.1565
v 0.00675 -0.3159 -0.1565
vn -0 1 -0
vn -0 1 -0
vn -0 1 -0
vn -0 1 -0
vn -0 1 -0
vn -0 1 -0
vn -0 1 -0
vn -0 1 -0
f 99//99 101//101 104//104 
f 99//99 98//98 101//101 
f 102//102 98//98 97//97 
f 102//102 101//101 98//98 
f 100//100 103//103 102//102 
f 100//100 104//104 103//103 
f 100//100 102//102 97//97 
f 100//100 99//99 104//104 

g Face_20
v 0.01675 -0.31615 -0.157
v 0.01675 -0.3159 -0.157
v 0.01675 -0.31615 -0.15
v 0.01675 -0.3159 -0.15
vn 1 -0 -0
vn 1 -0 -0
vn 1 -0 -0
vn 1 -0 -0
f 108//108 105//105 106//106 
f 108//108 107//107 105//105 

g Face_21
v 0.01675 -0.31615 -0.15
v 0.01675 -0.3159 -0.15
v 0.0062499999999999995 -0.31615 -0.15
v 0.0062499999999999995 -0.3159 -0.15
vn -0 -0 1
vn -0 -0 1
vn -0 -0 1
vn -0 -0 1
f 112//112 109//109 110//110 
f 112//112 111//111 109//109 

g Face_22
v 0.0062499999999999995 -0.31615 -0.15
v 0.0062499999999999995 -0.3159 -0.15
v 0.0062499999999999995 -0.31615 -0.157
v 0.0062499999999999995 -0.3159 -0.157
vn -1 -0 1.23909e-16
vn -1 -0 1.23909e-16
vn -1 -0 1.23909e-16
vn -1 -0 1.23909e-16
f 116//116 113//113 114//114 
f 116//116 115//115 113//113 

g Face_23
v 0.0062499999999999995 -0.31615 -0.157
v 0.0062499999999999995 -0.3159 -0.157
v 0.01675 -0.31615 -0.157
v 0.01675 -0.3159 -0.157
vn -0 -0 -1
vn -0 -0 -1
vn -0 -0 -1
vn -0 -0 -1
f 120//120 117//117 118//118 
f 120//120 119//119 117//117 

g Face_24
v 0.01675 -0.31615 -0.157
v 0.01675 -0.31615 -0.15
v 0.0062499999999999995 -0.31615 -0.15
v 0.0062499999999999995 -0.31615 -0.157
vn 0 -1 0
vn 0 -1 0
vn 0 -1 0
vn 0 -1 0
f 121//121 122//122 123//123 
f 121//121 123//123 124//124 

g Face_25
v 0.0108 -0.123 -0.153
v 0.01225 -0.12155 -0.153
v 0.0137 -0.123 -0.153
v 0.01225 -0.12445 -0.153
v 0.0108 -0.123 -0.153
v 0.01225 -0.123 -0.15212875
v 0.01225 -0.123 -0.15212875
vn 0.515038 -0 -0.857167
vn 1.45898e-16 -0.515038 -0.857167
vn -0.515038 -2.91797e-16 -0.857167
vn -9.4611e-17 0.515038 -0.857167
vn 0.515038 5.83594e-16 -0.857167
vn 0 -0 -0
vn -0 -0 -0
f 126//126 130//130 125//125 
f 127//127 130//130 126//126 
f 131//131 130//130 127//127 
f 128//128 131//131 127//127 
f 129//129 131//131 128//128 

g Face_26
v 0.0108 -0.123 -0.153
v 0.01225 -0.12155 -0.153
v 0.0137 -0.123 -0.153
v 0.01225 -0.12445 -0.153
v 0.0108 -0.123 -0.153
v 0.0108 -0.123 -0.1585
v 0.0108 -0.123 -0.1585
v 0.01225 -0.12155 -0.1585
v 0.0137 -0.123 -0.1585
v 0.01225 -0.12445 -0.1585
vn 1 -0 -0
vn 6.12323e-17 -1 -0
vn -1 -1.22465e-16 0
vn -1.83697e-16 1 -0
vn 1 2.44929e-16 -0
vn 1 2.44929e-16 -0
vn 1 -0 -0
vn 6.12323e-17 -1 -0
vn -1 -1.22465e-16 0
vn -1.83697e-16 1 -0
f 139//139 133//133 132//132 
f 139//139 132//132 138//138 
f 140//140 134//134 133//133 
f 140//140 133//133 139//139 
f 141//141 135//135 134//134 
f 141//141 134//134 140//140 
f 137//137 136//136 135//135 
f 137//137 135//135 141//141 

