mtllib Poid_h_Gdetente_instance_1.mtl
usemtl Poid_h_Gdetente_instance_1
#Wavefront export of shape 1-66-6--Poid_h_Gdetente

g Face_1
v 0.231071702145442 -0.027339980160134003 -0.0662
v 0.23254098576673055 -0.02722571699537356 -0.0717
v 0.236555145348416 -0.026913544062244003 -0.07572627999999999
v 0.24203858855139002 -0.026487107964354002 -0.07719999999999999
v 0.231071702145442 -0.027339980160134003 -0.0662
v 0.253005474957338 -0.025634235768574 -0.0662
v 0.2515361913360495 -0.025748498933334446 -0.0607
v 0.24752203175436402 -0.026060671866464002 -0.05667372
v 0.24203858855139004 -0.026487107964354002 -0.0552
v 0.236555145348416 -0.026913544062244003 -0.05667372
v 0.23254098576673055 -0.02722571699537356 -0.0607
v 0.253005474957338 -0.025634235768574 -0.0662
v 0.24752203175436402 -0.026060671866464002 -0.07572627999999999
v 0.2515361913360495 -0.025748498933334446 -0.0717
v 0.24119368683394876 -0.01562271209681795 -0.0677
v 0.23969820232404676 -0.01573901285078795 -0.0662
v 0.24119368683394876 -0.01562271209681795 -0.0647
v 0.24268917134385076 -0.01550641134284795 -0.0662
v 0.232430616351213 -0.02580650219547656 -0.07151258999999999
v 0.23223944892522072 -0.023348324457066978 -0.07008908999999999
v 0.23212907950970318 -0.02192910965716998 -0.06762349999999999
v 0.23212907950970318 -0.02192910965716998 -0.0647765
v 0.23618584393425968 -0.02216478254950119 -0.07444999999999999
v 0.23223944892522072 -0.023348324457066978 -0.06231091
v 0.235915491201581 -0.018688379257783 -0.07096314
v 0.232430616351213 -0.02580650219547656 -0.060887409999999996
v 0.23581653476671974 -0.017415921337791053 -0.0662
v 0.24181784972035494 -0.023648678364560007 -0.0768252
v 0.235915491201581 -0.018688379257783 -0.061436859999999996
v 0.24143551486837037 -0.018732322887740842 -0.07397817
v 0.23618584393425968 -0.02216478254950119 -0.057949999999999995
v 0.24121477603733532 -0.015893893287946846 -0.06904700999999999
v 0.24121477603733532 -0.015893893287946846 -0.06335299
v 0.24715273034020768 -0.021311910353721188 -0.07444999999999999
v 0.24143551486837037 -0.018732322887740842 -0.058421829999999994
v 0.246882377607529 -0.017835507062003 -0.07096314
v 0.24181784972035494 -0.023648678364560007 -0.055574799999999994
v 0.24678342117266774 -0.016563049142011052 -0.0662
v 0.251425821920532 -0.024329284133437448 -0.07151259
v 0.246882377607529 -0.017835507062003 -0.061436859999999996
v 0.2512346544945397 -0.021871106395027866 -0.07008908999999999
v 0.24715273034020768 -0.021311910353721188 -0.057949999999999995
v 0.2511242850790221 -0.020451891595130868 -0.06762349999999999
v 0.2511242850790221 -0.020451891595130868 -0.0647765
v 0.2512346544945397 -0.021871106395027866 -0.06231091
v 0.251425821920532 -0.024329284133437448 -0.060887409999999996
vn -0.891007 -0.45399 0
vn -0.771634 -0.393167 -0.5
vn -0.445503 -0.226995 -0.866025
vn 7.37877e-16 3.73341e-16 -1
vn -0.891007 -0.45399 1.22465e-16
vn 0.891007 0.45399 0
vn 0.771634 0.393167 0.5
vn 0.445503 0.226995 0.866025
vn -2.11252e-16 1.52767e-15 1
vn -0.445503 -0.226995 0.866025
vn -0.771634 -0.393167 0.5
vn 0.891007 0.45399 -1.22465e-16
vn 0.445503 0.226995 -0.866025
vn 0.771634 0.393167 -0.5
vn -0.44975 0.882683 -0.136364
vn -0.571248 0.820777 4.31173e-08
vn -0.44975 0.882683 0.136364
vn -0.328251 0.94459 4.31173e-08
vn -0.830385 -0.277863 -0.482963
vn -0.932144 -0.0781489 -0.353553
vn -0.990895 0.0371558 -0.12941
vn -0.990895 0.0371558 0.12941
vn -0.642087 0.158822 -0.75
vn -0.932144 -0.0781489 0.353553
vn -0.785996 0.44126 -0.433013
vn -0.830385 -0.277863 0.482963
vn -0.838671 0.544639 -2.4439e-17
vn -0.117501 0.230609 -0.965926
vn -0.785996 0.44126 0.433013
vn -0.32102 0.630037 -0.707107
vn -0.642087 0.158822 0.75
vn -0.438521 0.860646 -0.258819
vn -0.438521 0.860646 0.258819
vn 0.24892 0.612812 -0.75
vn -0.32102 0.630037 0.707107
vn 0.10501 0.89525 -0.433013
vn -0.117501 0.230609 0.965926
vn 0.052336 0.99863 -8.56714e-17
vn 0.712884 0.508472 -0.482963
vn 0.10501 0.89525 0.433013
vn 0.611124 0.708186 -0.353553
vn 0.24892 0.612812 0.75
vn 0.552374 0.82349 -0.12941
vn 0.552374 0.82349 0.12941
vn 0.611124 0.708186 0.353553
vn 0.712884 0.508472 0.482963
f 19//19 2//2 1//1 
f 19//19 3//3 2//2 
f 20//20 19//19 1//1 
f 21//21 20//20 1//1 
f 22//22 1//1 5//5 
f 22//22 21//21 1//1 
f 23//23 3//3 19//19 
f 23//23 19//19 20//20 
f 24//24 22//22 5//5 
f 25//25 23//23 20//20 
f 25//25 20//20 21//21 
f 26//26 11//11 10//10 
f 26//26 5//5 11//11 
f 26//26 24//24 5//5 
f 27//27 25//25 21//21 
f 27//27 16//16 25//25 
f 27//27 21//21 22//22 
f 28//28 4//4 3//3 
f 28//28 13//13 4//4 
f 28//28 3//3 23//23 
f 29//29 22//22 24//24 
f 29//29 16//16 27//27 
f 29//29 27//27 22//22 
f 30//30 23//23 25//25 
f 30//30 25//25 16//16 
f 30//30 28//28 23//23 
f 31//31 26//26 10//10 
f 31//31 24//24 26//26 
f 31//31 29//29 24//24 
f 32//32 16//16 15//15 
f 32//32 15//15 18//18 
f 32//32 18//18 30//30 
f 32//32 30//30 16//16 
f 33//33 17//17 16//16 
f 33//33 18//18 17//17 
f 34//34 13//13 28//28 
f 34//34 28//28 30//30 
f 35//35 16//16 29//29 
f 35//35 33//33 16//16 
f 35//35 29//29 31//31 
f 35//35 18//18 33//33 
f 36//36 30//30 18//18 
f 36//36 34//34 30//30 
f 37//37 9//9 8//8 
f 37//37 10//10 9//9 
f 37//37 31//31 10//10 
f 37//37 35//35 31//31 
f 38//38 36//36 18//18 
f 39//39 14//14 13//13 
f 39//39 12//12 14//14 
f 39//39 13//13 34//34 
f 40//40 18//18 35//35 
f 40//40 38//38 18//18 
f 41//41 12//12 39//39 
f 41//41 34//34 36//36 
f 41//41 39//39 34//34 
f 42//42 40//40 35//35 
f 42//42 37//37 8//8 
f 42//42 35//35 37//37 
f 43//43 41//41 36//36 
f 43//43 36//36 38//38 
f 43//43 12//12 41//41 
f 44//44 12//12 43//43 
f 44//44 43//43 38//38 
f 44//44 6//6 12//12 
f 44//44 38//38 40//40 
f 45//45 44//44 40//40 
f 45//45 6//6 44//44 
f 45//45 40//40 42//42 
f 46//46 42//42 8//8 
f 46//46 7//7 6//6 
f 46//46 8//8 7//7 
f 46//46 6//6 45//45 
f 46//46 45//45 42//42 

g Face_2
v 0.2427751599932 -0.0359585098604 -0.07073522
v 0.24631026603688022 -0.035683591935458836 -0.06902765999999999
v 0.2471833598034512 -0.035615693229276074 -0.06519082
v 0.24473699639266985 -0.035805941879312 -0.062113909999999994
v 0.24081332359373017 -0.036111077841488 -0.062113909999999994
v 0.2383669601829488 -0.03630132649152393 -0.06519082
v 0.2392400539495198 -0.036233427785341166 -0.06902765999999999
v 0.2427751599932 -0.0359585098604 -0.0677
v 0.24148003052803796 -0.03605922941469146 -0.06695
v 0.24148003052803796 -0.03605922941469146 -0.06545
v 0.2427751599932 -0.0359585098604 -0.0647
v 0.24407028945836207 -0.03585779030610854 -0.06545
v 0.24407028945836207 -0.03585779030610854 -0.06695
vn 0.45399 -0.891007 2.33995e-18
vn 0.45399 -0.891007 2.33995e-18
vn 0.45399 -0.891007 2.33995e-18
vn 0.45399 -0.891007 2.33995e-18
vn 0.45399 -0.891007 2.33995e-18
vn 0.45399 -0.891007 2.33995e-18
vn 0.45399 -0.891007 2.33995e-18
vn 0.45399 -0.891007 2.33995e-18
vn 0.45399 -0.891007 2.33995e-18
vn 0.45399 -0.891007 2.33995e-18
vn 0.45399 -0.891007 2.33995e-18
vn 0.45399 -0.891007 2.33995e-18
vn 0.45399 -0.891007 2.33995e-18
f 55//55 52//52 53//53 
f 54//54 53//53 47//47 
f 54//54 55//55 53//53 
f 56//56 52//52 55//55 
f 48//48 59//59 54//54 
f 48//48 54//54 47//47 
f 51//51 56//56 57//57 
f 51//51 52//52 56//56 
f 49//49 58//58 59//59 
f 49//49 59//59 48//48 
f 50//50 57//57 58//58 
f 50//50 51//51 57//57 
f 50//50 58//58 49//49 

g Face_3
v 0.2427751599932 -0.0359585098604 -0.07073522
v 0.24631026603688022 -0.035683591935458836 -0.06902765999999999
v 0.2471833598034512 -0.035615693229276074 -0.06519082
v 0.24473699639266985 -0.035805941879312 -0.062113909999999994
v 0.24081332359373017 -0.036111077841488 -0.062113909999999994
v 0.2383669601829488 -0.03630132649152393 -0.06519082
v 0.2392400539495198 -0.036233427785341166 -0.06902765999999999
v 0.2427751599932 -0.0359585098604 -0.07073522
v 0.24238706825389392 -0.03096812790034069 -0.07241057
v 0.24218718059736896 -0.028397818733378658 -0.07449485
v 0.24203858855139002 -0.026487107964354002 -0.07719999999999999
v 0.231071702145442 -0.027339980160134003 -0.0662
v 0.23254098576673055 -0.02722571699537356 -0.0717
v 0.236555145348416 -0.026913544062244003 -0.07572627999999999
v 0.253005474957338 -0.025634235768574 -0.0662
v 0.2515361913360495 -0.025748498933334446 -0.0607
v 0.24752203175436402 -0.026060671866464002 -0.05667372
v 0.24203858855139004 -0.026487107964354002 -0.0552
v 0.236555145348416 -0.026913544062244003 -0.05667372
v 0.23254098576673055 -0.02722571699537356 -0.0607
v 0.24203858855139002 -0.026487107964354002 -0.07719999999999999
v 0.24752203175436402 -0.026060671866464002 -0.07572627999999999
v 0.2515361913360495 -0.025748498933334446 -0.0717
v 0.24238706825389392 -0.03096812790034069 -0.07241057
v 0.24218718059736896 -0.028397818733378658 -0.07449485
v 0.24548300034649956 -0.030727363630148715 -0.07157851
v 0.2472280712512075 -0.030591653055679482 -0.07007221999999999
v 0.24632212547797086 -0.028076252576020127 -0.07338354999999999
v 0.24865283808665312 -0.027894997850957882 -0.07137175999999999
v 0.24857894240900197 -0.03048659858461838 -0.0662
v 0.24842369117708066 -0.030498672153557185 -0.06481801999999999
v 0.25045706038867604 -0.027754687193999955 -0.0662
v 0.24774938718146258 -0.0305511113881839 -0.06309471999999999
v 0.2502497164463265 -0.027770811905868716 -0.06435421999999999
v 0.24934910576477332 -0.027840850545924528 -0.062052569999999994
v 0.24548300034649959 -0.030727363630148715 -0.06082148999999999
v 0.24632212547797086 -0.028076252576020127 -0.05901645
v 0.24238706825389392 -0.03096812790034069 -0.059989429999999996
v 0.23970052006092557 -0.031177055226802555 -0.060604469999999994
v 0.24218718059736896 -0.028397818733378658 -0.057905149999999996
v 0.23859901476327744 -0.02867686300907068 -0.0587266
v 0.23702474932632525 -0.03138514441249748 -0.06309471999999999
v 0.23635044533070718 -0.03143758364712419 -0.06481801999999999
v 0.2350252554299646 -0.028954786920832788 -0.062052569999999994
v 0.23619519409878587 -0.031449657216063 -0.0662
v 0.23412464474841144 -0.0290248255608886 -0.06435421999999999
v 0.23391730080606188 -0.02904095027275736 -0.0662
v 0.23702474932632525 -0.03138514441249748 -0.06930528
v 0.2350252554299646 -0.028954786920832788 -0.07034742999999999
v 0.23929113616128825 -0.031208892170532663 -0.07157851
v 0.23805223571676706 -0.02871938489073719 -0.07338354999999999
vn 0.0468389 -0.0919266 -0.994664
vn 0.739738 0.261123 -0.620163
vn 0.91087 0.348319 0.221333
vn 0.431369 0.104001 0.896161
vn -0.337691 -0.287855 0.896161
vn -0.817193 -0.532173 0.221333
vn -0.646061 -0.444977 -0.620163
vn 0.0468389 -0.0919266 -0.994664
vn 0.23443 -0.460094 -0.856362
vn 0.331049 -0.649721 -0.684302
vn 0.402874 -0.790684 -0.46099
vn -0.00787128 -0.999969 3.0304e-17
vn 0.0471581 -0.97193 -0.230495
vn 0.197501 -0.895327 -0.399229
vn 0.813619 -0.581399 -2.6151e-17
vn 0.758589 -0.609438 0.230495
vn 0.608246 -0.686042 0.399229
vn 0.402874 -0.790684 0.46099
vn 0.197501 -0.895327 0.399229
vn 0.0471581 -0.97193 0.230495
vn 0.402874 -0.790684 -0.46099
vn 0.608246 -0.686042 -0.399229
vn 0.758589 -0.609438 -0.230495
vn 0.23443 -0.460094 -0.856362
vn 0.331049 -0.649721 -0.684302
vn 0.615942 -0.265704 -0.741631
vn 0.830986 -0.156134 -0.533933
vn 0.635908 -0.494387 -0.592623
vn 0.807746 -0.406831 -0.426656
vn 0.997454 -0.0713141 -5.12288e-17
vn 0.978323 -0.0810616 0.190558
vn 0.940767 -0.339054 -4.01951e-17
vn 0.895228 -0.123401 0.428181
vn 0.92548 -0.346843 0.152272
vn 0.85908 -0.380675 0.342151
vn 0.615942 -0.265704 0.741631
vn 0.635908 -0.494387 0.592623
vn 0.23443 -0.460094 0.856362
vn -0.096634 -0.62878 0.771556
vn 0.331049 -0.649721 0.684302
vn 0.0665025 -0.784514 0.616535
vn -0.426369 -0.796788 0.428181
vn -0.509464 -0.839127 0.190558
vn -0.196982 -0.918766 0.342151
vn -0.528594 -0.848875 5.36453e-17
vn -0.263382 -0.952598 0.152272
vn -0.278669 -0.960387 4.36077e-17
vn -0.426369 -0.796788 -0.428181
vn -0.196982 -0.918766 -0.342151
vn -0.147082 -0.654484 -0.741631
vn 0.0261902 -0.805054 -0.592623
f 85//85 61//61 60//60 
f 85//85 60//60 83//83 
f 86//86 61//61 85//85 
f 87//87 80//80 81//81 
f 87//87 83//83 84//84 
f 87//87 84//84 80//80 
f 87//87 85//85 83//83 
f 88//88 81//81 82//82 
f 88//88 85//85 87//87 
f 88//88 86//86 85//85 
f 88//88 87//87 81//81 
f 89//89 62//62 61//61 
f 89//89 61//61 86//86 
f 90//90 62//62 89//89 
f 91//91 82//82 74//74 
f 91//91 88//88 82//82 
f 91//91 86//86 88//88 
f 91//91 89//89 86//86 
f 92//92 63//63 62//62 
f 92//92 62//62 90//90 
f 93//93 74//74 75//75 
f 93//93 91//91 74//74 
f 93//93 89//89 91//91 
f 93//93 90//90 89//89 
f 94//94 93//93 75//75 
f 94//94 90//90 93//93 
f 94//94 92//92 90//90 
f 95//95 63//63 92//92 
f 96//96 75//75 76//76 
f 96//96 94//94 75//75 
f 96//96 92//92 94//94 
f 96//96 95//95 92//92 
f 97//97 64//64 63//63 
f 97//97 63//63 95//95 
f 98//98 64//64 97//97 
f 99//99 76//76 77//77 
f 99//99 96//96 76//76 
f 99//99 95//95 96//96 
f 99//99 97//97 95//95 
f 100//100 77//77 78//78 
f 100//100 99//99 77//77 
f 100//100 98//98 97//97 
f 100//100 97//97 99//99 
f 101//101 65//65 64//64 
f 101//101 64//64 98//98 
f 102//102 65//65 101//101 
f 103//103 78//78 79//79 
f 103//103 100//100 78//78 
f 103//103 98//98 100//100 
f 103//103 101//101 98//98 
f 104//104 66//66 65//65 
f 104//104 65//65 102//102 
f 105//105 102//102 101//101 
f 105//105 79//79 71//71 
f 105//105 103//103 79//79 
f 105//105 101//101 103//103 
f 106//106 104//104 102//102 
f 106//106 105//105 71//71 
f 106//106 102//102 105//105 
f 107//107 66//66 104//104 
f 108//108 104//104 106//106 
f 108//108 107//107 104//104 
f 108//108 106//106 71//71 
f 108//108 71//71 72//72 
f 109//109 67//67 66//66 
f 109//109 68//68 67//67 
f 109//109 66//66 107//107 
f 110//110 69//69 68//68 
f 110//110 70//70 69//69 
f 110//110 72//72 73//73 
f 110//110 73//73 70//70 
f 110//110 108//108 72//72 
f 110//110 109//109 107//107 
f 110//110 68//68 109//109 
f 110//110 107//107 108//108 

g Face_4
v 0.2427751599932 -0.0359585098604 -0.0647
v 0.24407028945836207 -0.03585779030610854 -0.06545
v 0.24407028945836207 -0.03585779030610854 -0.06695
v 0.2427751599932 -0.0359585098604 -0.0677
v 0.24119368683394876 -0.01562271209681795 -0.0677
v 0.24119368683394876 -0.01562271209681795 -0.0677
v 0.23969820232404676 -0.01573901285078795 -0.0662
v 0.24119368683394876 -0.01562271209681795 -0.0647
v 0.24268917134385076 -0.01550641134284795 -0.0662
v 0.2427751599932 -0.0359585098604 -0.0677
v 0.24148003052803796 -0.03605922941469146 -0.06695
v 0.24148003052803796 -0.03605922941469146 -0.06545
vn -1.62613e-16 -8.54816e-17 -1
vn -0.771634 -0.393167 -0.5
vn -0.771634 -0.393167 0.5
vn 5.34961e-17 2.98838e-17 1
vn 5.34961e-17 2.98838e-17 1
vn 2.7173e-16 1.41079e-16 1
vn 0.891007 0.45399 -2.44929e-16
vn -1.62613e-16 -8.54816e-17 -1
vn -0.891007 -0.45399 1.22465e-16
vn 2.7173e-16 1.41079e-16 1
vn 0.771634 0.393167 0.5
vn 0.771634 0.393167 -0.5
f 113//113 115//115 114//114 
f 113//113 119//119 115//115 
f 112//112 118//118 119//119 
f 112//112 119//119 113//113 
f 111//111 118//118 112//112 
f 122//122 117//117 118//118 
f 122//122 118//118 111//111 
f 121//121 116//116 117//117 
f 121//121 117//117 122//122 
f 120//120 116//116 121//121 

