mtllib Pont_Echappement_-_Plaque.mtl
usemtl Pont_Echappement_-_Plaque
#Wavefront export of shape 1-10-8-1--Pont_Echappement_-_Plaque

g Face_1
v 0.13565000000000002 -0.12450000000000001 -0.03901299
v 0.136575 -0.12610210000000002 -0.03901299
v 0.13842500000000002 -0.12610210000000002 -0.03901299
v 0.13935 -0.12450000000000001 -0.03901299
v 0.13565000000000002 -0.12450000000000001 -0.040499999999999994
v 0.13565000000000002 -0.12450000000000001 -0.040499999999999994
v 0.13692831900000002 -0.12274050000000002 -0.040499999999999994
v 0.13899668 -0.12341260000000001 -0.040499999999999994
v 0.13899668 -0.12558740000000002 -0.040499999999999994
v 0.13692831900000002 -0.12625950000000002 -0.040499999999999994
v 0.13565000000000002 -0.12450000000000001 -0.03901299
v 0.13842500000000002 -0.1228979 -0.03901299
v 0.136575 -0.1228979 -0.03901299
vn 1 2.44929e-16 -0
vn 0.5 0.866025 -0
vn -0.5 0.866025 -0
vn -1 -1.22465e-16 0
vn 1 2.44929e-16 -0
vn 1 -0 -0
vn 0.309017 -0.951057 -0
vn -0.809017 -0.587785 0
vn -0.809017 0.587785 -0
vn 0.309017 0.951057 -0
vn 1 -0 -0
vn -0.5 -0.866025 0
vn 0.5 -0.866025 -0
f 6//6 13//13 11//11 
f 7//7 12//12 13//13 
f 7//7 13//13 6//6 
f 8//8 4//4 12//12 
f 8//8 12//12 7//7 
f 9//9 3//3 4//4 
f 9//9 4//4 8//8 
f 10//10 2//2 3//3 
f 10//10 3//3 9//9 
f 5//5 1//1 2//2 
f 5//5 2//2 10//10 

g Face_2
v 0.13565000000000002 -0.15250000000000002 -0.03901299
v 0.136575 -0.15410210000000002 -0.03901299
v 0.13842500000000002 -0.15410210000000002 -0.03901299
v 0.13935 -0.15250000000000002 -0.03901299
v 0.13565000000000002 -0.15250000000000002 -0.040499999999999994
v 0.13565000000000002 -0.15250000000000002 -0.040499999999999994
v 0.13692831900000002 -0.1507405 -0.040499999999999994
v 0.13899668 -0.1514126 -0.040499999999999994
v 0.13899668 -0.1535874 -0.040499999999999994
v 0.13692831900000002 -0.15425950000000002 -0.040499999999999994
v 0.13565000000000002 -0.15250000000000002 -0.03901299
v 0.13842500000000002 -0.1508979 -0.03901299
v 0.136575 -0.1508979 -0.03901299
vn 1 2.44929e-16 -0
vn 0.5 0.866025 -0
vn -0.5 0.866025 -0
vn -1 -1.22465e-16 0
vn 1 2.44929e-16 -0
vn 1 -0 -0
vn 0.309017 -0.951057 -0
vn -0.809017 -0.587785 0
vn -0.809017 0.587785 -0
vn 0.309017 0.951057 -0
vn 1 -0 -0
vn -0.5 -0.866025 0
vn 0.5 -0.866025 -0
f 19//19 26//26 24//24 
f 20//20 25//25 26//26 
f 20//20 26//26 19//19 
f 21//21 17//17 25//25 
f 21//21 25//25 20//20 
f 22//22 16//16 17//17 
f 22//22 17//17 21//21 
f 23//23 15//15 16//16 
f 23//23 16//16 22//22 
f 18//18 14//14 15//15 
f 18//18 15//15 23//23 

g Face_3
v 0.13075 -0.15575 -0.03749999999999999
v 0.14425000000000002 -0.15575 -0.03749999999999999
v 0.13075 -0.12125000000000001 -0.03749999999999999
v 0.14425000000000002 -0.12125000000000001 -0.03749999999999999
v 0.14020000000000002 -0.12450000000000001 -0.03749999999999999
v 0.13885 -0.12216170000000001 -0.03749999999999999
v 0.13615000000000002 -0.12216170000000001 -0.03749999999999999
v 0.1348 -0.12450000000000001 -0.03749999999999999
v 0.13615000000000002 -0.12683830000000001 -0.03749999999999999
v 0.13885 -0.12683830000000001 -0.03749999999999999
v 0.14020000000000002 -0.15250000000000002 -0.03749999999999999
v 0.13885 -0.1501617 -0.03749999999999999
v 0.13615000000000002 -0.1501617 -0.03749999999999999
v 0.1348 -0.15250000000000002 -0.03749999999999999
v 0.13615000000000002 -0.1548383 -0.03749999999999999
v 0.13885 -0.1548383 -0.03749999999999999
v 0.14115 -0.1385 -0.03749999999999999
v 0.139325 -0.13533901 -0.03749999999999999
v 0.13567500000000002 -0.13533901 -0.03749999999999999
v 0.13385000000000002 -0.1385 -0.03749999999999999
v 0.13567500000000002 -0.14166099000000001 -0.03749999999999999
v 0.139325 -0.14166099000000001 -0.03749999999999999
vn -0 -0 1
vn -0 -0 1
vn -0 -0 1
vn -0 -0 1
vn -0 -0 1
vn -0 -0 1
vn -0 -0 1
vn -0 -0 1
vn -0 -0 1
vn -0 -0 1
vn -0 -0 1
vn -0 -0 1
vn -0 -0 1
vn -0 -0 1
vn -0 -0 1
vn -0 -0 1
vn -0 -0 1
vn -0 -0 1
vn -0 -0 1
vn -0 -0 1
vn -0 -0 1
vn -0 -0 1
f 37//37 42//42 28//28 
f 27//27 41//41 40//40 
f 27//27 42//42 41//41 
f 27//27 28//28 42//42 
f 48//48 38//38 37//37 
f 48//48 37//37 28//28 
f 43//43 48//48 28//28 
f 47//47 39//39 38//38 
f 47//47 40//40 39//39 
f 47//47 38//38 48//48 
f 47//47 27//27 40//40 
f 46//46 27//27 47//47 
f 30//30 44//44 43//43 
f 31//31 36//36 44//44 
f 31//31 44//44 30//30 
f 35//35 45//45 44//44 
f 35//35 44//44 36//36 
f 32//32 31//31 30//30 
f 34//34 45//45 35//35 
f 29//29 34//34 33//33 
f 29//29 46//46 45//45 
f 29//29 45//45 34//34 
f 27//27 46//46 29//29 
f 29//29 32//32 30//30 
f 29//29 33//33 32//32 
f 30//30 43//43 28//28 

g Face_4
v 0.14425000000000002 -0.15575 -0.040499999999999994
v 0.14425000000000002 -0.12125000000000001 -0.040499999999999994
v 0.13075 -0.15575 -0.040499999999999994
v 0.13075 -0.12125000000000001 -0.040499999999999994
v 0.13565000000000002 -0.15250000000000002 -0.040499999999999994
v 0.13692831900000002 -0.1507405 -0.040499999999999994
v 0.13899668 -0.1514126 -0.040499999999999994
v 0.13899668 -0.1535874 -0.040499999999999994
v 0.13692831900000002 -0.15425950000000002 -0.040499999999999994
v 0.13565000000000002 -0.12450000000000001 -0.040499999999999994
v 0.13692831900000002 -0.12274050000000002 -0.040499999999999994
v 0.13899668 -0.12341260000000001 -0.040499999999999994
v 0.13899668 -0.12558740000000002 -0.040499999999999994
v 0.13692831900000002 -0.12625950000000002 -0.040499999999999994
v 0.14115 -0.1385 -0.040499999999999994
v 0.139325 -0.13533901 -0.040499999999999994
v 0.13567500000000002 -0.13533901 -0.040499999999999994
v 0.13385000000000002 -0.1385 -0.040499999999999994
v 0.13567500000000002 -0.14166099000000001 -0.040499999999999994
v 0.139325 -0.14166099000000001 -0.040499999999999994
vn 0 0 -1
vn 0 0 -1
vn 0 0 -1
vn 0 0 -1
vn 0 0 -1
vn 0 0 -1
vn 0 0 -1
vn 0 0 -1
vn 0 0 -1
vn 0 0 -1
vn 0 0 -1
vn 0 0 -1
vn 0 0 -1
vn 0 0 -1
vn 0 0 -1
vn 0 0 -1
vn 0 0 -1
vn 0 0 -1
vn 0 0 -1
vn 0 0 -1
f 57//57 56//56 49//49 
f 55//55 49//49 56//56 
f 51//51 53//53 57//57 
f 51//51 57//57 49//49 
f 68//68 55//55 54//54 
f 68//68 49//49 55//55 
f 63//63 49//49 68//68 
f 67//67 54//54 53//53 
f 67//67 53//53 51//51 
f 67//67 68//68 54//54 
f 66//66 67//67 51//51 
f 50//50 63//63 64//64 
f 61//61 50//50 64//64 
f 62//62 64//64 65//65 
f 62//62 61//61 64//64 
f 60//60 50//50 61//61 
f 58//58 62//62 65//65 
f 59//59 50//50 60//60 
f 52//52 59//59 58//58 
f 52//52 65//65 66//66 
f 52//52 58//58 65//65 
f 52//52 50//50 59//59 
f 50//50 49//49 63//63 
f 51//51 52//52 66//66 

g Face_5
v 0.14425000000000002 -0.15575 -0.03749999999999999
v 0.14425000000000002 -0.15575 -0.040499999999999994
v 0.14425000000000002 -0.12125000000000001 -0.03749999999999999
v 0.14425000000000002 -0.12125000000000001 -0.040499999999999994
vn 1 -0 -0
vn 1 -0 -0
vn 1 -0 -0
vn 1 -0 -0
f 71//71 69//69 70//70 
f 71//71 70//70 72//72 

g Face_6
v 0.14425000000000002 -0.12125000000000001 -0.03749999999999999
v 0.14425000000000002 -0.12125000000000001 -0.040499999999999994
v 0.13075 -0.12125000000000001 -0.03749999999999999
v 0.13075 -0.12125000000000001 -0.040499999999999994
vn -0 1 -0
vn -0 1 -0
vn -0 1 -0
vn -0 1 -0
f 74//74 75//75 73//73 
f 74//74 76//76 75//75 

g Face_7
v 0.13075 -0.12125000000000001 -0.03749999999999999
v 0.13075 -0.12125000000000001 -0.040499999999999994
v 0.13075 -0.15575 -0.03749999999999999
v 0.13075 -0.15575 -0.040499999999999994
vn -1 0 -0
vn -1 0 -0
vn -1 0 -0
vn -1 0 -0
f 78//78 79//79 77//77 
f 78//78 80//80 79//79 

g Face_8
v 0.13075 -0.15575 -0.03749999999999999
v 0.13075 -0.15575 -0.040499999999999994
v 0.14425000000000002 -0.15575 -0.03749999999999999
v 0.14425000000000002 -0.15575 -0.040499999999999994
vn -0 -1 -0
vn -0 -1 -0
vn -0 -1 -0
vn -0 -1 -0
f 83//83 81//81 82//82 
f 83//83 82//82 84//84 

g Face_9
v 0.14115 -0.1385 -0.03749999999999999
v 0.139325 -0.13533901 -0.03749999999999999
v 0.13567500000000002 -0.13533901 -0.03749999999999999
v 0.13385000000000002 -0.1385 -0.03749999999999999
v 0.13567500000000002 -0.14166099000000001 -0.03749999999999999
v 0.139325 -0.14166099000000001 -0.03749999999999999
v 0.14115 -0.1385 -0.03749999999999999
v 0.14115 -0.1385 -0.040499999999999994
v 0.139325 -0.13533901 -0.040499999999999994
v 0.13567500000000002 -0.13533901 -0.040499999999999994
v 0.13385000000000002 -0.1385 -0.040499999999999994
v 0.13567500000000002 -0.14166099000000001 -0.040499999999999994
v 0.139325 -0.14166099000000001 -0.040499999999999994
v 0.14115 -0.1385 -0.040499999999999994
vn -1 -3.67394e-16 0
vn -0.5 -0.866025 0
vn 0.5 -0.866025 -0
vn 1 2.44929e-16 -0
vn 0.5 0.866025 -0
vn -0.5 0.866025 -0
vn -1 -1.22465e-16 0
vn -1 -3.67394e-16 0
vn -0.5 -0.866025 0
vn 0.5 -0.866025 -0
vn 1 2.44929e-16 -0
vn 0.5 0.866025 -0
vn -0.5 0.866025 -0
vn -1 -1.22465e-16 0
f 97//97 90//90 91//91 
f 97//97 91//91 98//98 
f 96//96 89//89 90//90 
f 96//96 90//90 97//97 
f 95//95 88//88 89//89 
f 95//95 89//89 96//96 
f 94//94 87//87 88//88 
f 94//94 88//88 95//95 
f 93//93 86//86 87//87 
f 93//93 87//87 94//94 
f 92//92 85//85 86//86 
f 92//92 86//86 93//93 

g Face_10
v 0.14020000000000002 -0.15250000000000002 -0.03799999999999999
v 0.13885 -0.1501617 -0.03799999999999999
v 0.13615000000000002 -0.1501617 -0.03799999999999999
v 0.1348 -0.15250000000000002 -0.03799999999999999
v 0.13615000000000002 -0.1548383 -0.03799999999999999
v 0.13885 -0.1548383 -0.03799999999999999
v 0.14020000000000002 -0.15250000000000002 -0.03799999999999999
v 0.14020000000000002 -0.15250000000000002 -0.03749999999999999
v 0.14020000000000002 -0.15250000000000002 -0.03749999999999999
v 0.13885 -0.1501617 -0.03749999999999999
v 0.13615000000000002 -0.1501617 -0.03749999999999999
v 0.1348 -0.15250000000000002 -0.03749999999999999
v 0.13615000000000002 -0.1548383 -0.03749999999999999
v 0.13885 -0.1548383 -0.03749999999999999
vn -1 -0 -0
vn -0.5 -0.866025 0
vn 0.5 -0.866025 -0
vn 1 -1.22465e-16 -0
vn 0.5 0.866025 -0
vn -0.5 0.866025 -0
vn -1 2.44929e-16 -0
vn -1 2.44929e-16 -0
vn -1 -0 -0
vn -0.5 -0.866025 0
vn 0.5 -0.866025 -0
vn 1 -1.22465e-16 -0
vn 0.5 0.866025 -0
vn -0.5 0.866025 -0
f 108//108 100//100 99//99 
f 108//108 99//99 107//107 
f 109//109 101//101 100//100 
f 109//109 100//100 108//108 
f 110//110 102//102 101//101 
f 110//110 101//101 109//109 
f 111//111 103//103 102//102 
f 111//111 102//102 110//110 
f 112//112 104//104 103//103 
f 112//112 103//103 111//111 
f 106//106 105//105 104//104 
f 106//106 104//104 112//112 

g Face_11
v 0.14020000000000002 -0.12450000000000001 -0.03799999999999999
v 0.13885 -0.12216170000000001 -0.03799999999999999
v 0.13615000000000002 -0.12216170000000001 -0.03799999999999999
v 0.1348 -0.12450000000000001 -0.03799999999999999
v 0.13615000000000002 -0.12683830000000001 -0.03799999999999999
v 0.13885 -0.12683830000000001 -0.03799999999999999
v 0.14020000000000002 -0.12450000000000001 -0.03799999999999999
v 0.14020000000000002 -0.12450000000000001 -0.03749999999999999
v 0.14020000000000002 -0.12450000000000001 -0.03749999999999999
v 0.13885 -0.12216170000000001 -0.03749999999999999
v 0.13615000000000002 -0.12216170000000001 -0.03749999999999999
v 0.1348 -0.12450000000000001 -0.03749999999999999
v 0.13615000000000002 -0.12683830000000001 -0.03749999999999999
v 0.13885 -0.12683830000000001 -0.03749999999999999
vn -1 -0 -0
vn -0.5 -0.866025 0
vn 0.5 -0.866025 -0
vn 1 -1.22465e-16 -0
vn 0.5 0.866025 -0
vn -0.5 0.866025 -0
vn -1 2.44929e-16 -0
vn -1 2.44929e-16 -0
vn -1 -0 -0
vn -0.5 -0.866025 0
vn 0.5 -0.866025 -0
vn 1 -1.22465e-16 -0
vn 0.5 0.866025 -0
vn -0.5 0.866025 -0
f 122//122 114//114 113//113 
f 122//122 113//113 121//121 
f 123//123 115//115 114//114 
f 123//123 114//114 122//122 
f 124//124 116//116 115//115 
f 124//124 115//115 123//123 
f 125//125 117//117 116//116 
f 125//125 116//116 124//124 
f 126//126 118//118 117//117 
f 126//126 117//117 125//125 
f 120//120 119//119 118//118 
f 120//120 118//118 126//126 

g Face_12
v 0.14020000000000002 -0.12450000000000001 -0.03799999999999999
v 0.13885 -0.12216170000000001 -0.03799999999999999
v 0.13615000000000002 -0.12216170000000001 -0.03799999999999999
v 0.1348 -0.12450000000000001 -0.03799999999999999
v 0.13615000000000002 -0.12683830000000001 -0.03799999999999999
v 0.13885 -0.12683830000000001 -0.03799999999999999
v 0.14020000000000002 -0.12450000000000001 -0.03799999999999999
v 0.13935 -0.12450000000000001 -0.03901299
v 0.13842500000000002 -0.1228979 -0.03901299
v 0.136575 -0.1228979 -0.03901299
v 0.13565000000000002 -0.12450000000000001 -0.03901299
v 0.136575 -0.12610210000000002 -0.03901299
v 0.13842500000000002 -0.12610210000000002 -0.03901299
v 0.13935 -0.12450000000000001 -0.03901299
vn -0.766044 -0 0.642788
vn -0.383022 -0.663414 0.642788
vn 0.383022 -0.663414 0.642788
vn 0.766044 -9.38134e-17 0.642788
vn 0.383022 0.663414 0.642788
vn -0.383022 0.663414 0.642788
vn -0.766044 1.87627e-16 0.642788
vn -0.766044 -0 0.642788
vn -0.383022 -0.663414 0.642788
vn 0.383022 -0.663414 0.642788
vn 0.766044 -9.38134e-17 0.642788
vn 0.383022 0.663414 0.642788
vn -0.383022 0.663414 0.642788
vn -0.766044 1.87627e-16 0.642788
f 128//128 134//134 127//127 
f 128//128 135//135 134//134 
f 129//129 136//136 135//135 
f 129//129 135//135 128//128 
f 130//130 137//137 136//136 
f 130//130 136//136 129//129 
f 131//131 138//138 137//137 
f 131//131 137//137 130//130 
f 132//132 139//139 138//138 
f 132//132 138//138 131//131 
f 133//133 140//140 139//139 
f 133//133 139//139 132//132 

g Face_13
v 0.14020000000000002 -0.15250000000000002 -0.03799999999999999
v 0.13885 -0.1501617 -0.03799999999999999
v 0.13615000000000002 -0.1501617 -0.03799999999999999
v 0.1348 -0.15250000000000002 -0.03799999999999999
v 0.13615000000000002 -0.1548383 -0.03799999999999999
v 0.13885 -0.1548383 -0.03799999999999999
v 0.14020000000000002 -0.15250000000000002 -0.03799999999999999
v 0.13935 -0.15250000000000002 -0.03901299
v 0.13842500000000002 -0.1508979 -0.03901299
v 0.136575 -0.1508979 -0.03901299
v 0.13565000000000002 -0.15250000000000002 -0.03901299
v 0.136575 -0.15410210000000002 -0.03901299
v 0.13842500000000002 -0.15410210000000002 -0.03901299
v 0.13935 -0.15250000000000002 -0.03901299
vn -0.766044 -0 0.642788
vn -0.383022 -0.663414 0.642788
vn 0.383022 -0.663414 0.642788
vn 0.766044 -9.38134e-17 0.642788
vn 0.383022 0.663414 0.642788
vn -0.383022 0.663414 0.642788
vn -0.766044 1.87627e-16 0.642788
vn -0.766044 -0 0.642788
vn -0.383022 -0.663414 0.642788
vn 0.383022 -0.663414 0.642788
vn 0.766044 -9.38134e-17 0.642788
vn 0.383022 0.663414 0.642788
vn -0.383022 0.663414 0.642788
vn -0.766044 1.87627e-16 0.642788
f 142//142 148//148 141//141 
f 142//142 149//149 148//148 
f 143//143 150//150 149//149 
f 143//143 149//149 142//142 
f 144//144 151//151 150//150 
f 144//144 150//150 143//143 
f 145//145 152//152 151//151 
f 145//145 151//151 144//144 
f 146//146 153//153 152//152 
f 146//146 152//152 145//145 
f 147//147 154//154 153//153 
f 147//147 153//153 146//146 

