mtllib Pont_Grande_detente.mtl
usemtl Pont_Grande_detente
#Wavefront export of shape 1-12-9-1--Pont_Grande_detente

g Face_1
v 0.212 -0.0475 -0.026999999999999996
v 0.19749999999999998 -0.0475 -0.026999999999999996
v 0.212 -0.0335 -0.026999999999999996
v 0.19749999999999998 -0.0335 -0.026999999999999996
v 0.1966118 -0.038138570000000004 -0.026999999999999996
v 0.1966118 -0.04286143 -0.026999999999999996
v 0.20299999999999999 -0.0405 -0.026999999999999996
v 0.2012725 -0.04287764 -0.026999999999999996
v 0.1984775 -0.04196946 -0.026999999999999996
v 0.1984775 -0.03903054 -0.026999999999999996
v 0.2012725 -0.03812236 -0.026999999999999996
vn -1.11918e-16 0 -1
vn -1.11918e-16 0 -1
vn -1.11918e-16 0 -1
vn -1.11918e-16 0 -1
vn -1.11918e-16 0 -1
vn -1.11918e-16 0 -1
vn -1.11918e-16 0 -1
vn -1.11918e-16 0 -1
vn -1.11918e-16 0 -1
vn -1.11918e-16 0 -1
vn -1.11918e-16 0 -1
f 9//9 2//2 6//6 
f 8//8 2//2 9//9 
f 10//10 6//6 5//5 
f 10//10 9//9 6//6 
f 4//4 11//11 10//10 
f 4//4 10//10 5//5 
f 1//1 8//8 7//7 
f 1//1 2//2 8//8 
f 3//3 7//7 11//11 
f 3//3 11//11 4//4 
f 3//3 1//1 7//7 

g Face_2
v 0.19749999999999998 -0.0335 -0.023999999999999994
v 0.2155 -0.0335 -0.023999999999999994
v 0.2155 -0.0475 -0.023999999999999994
v 0.19749999999999998 -0.0475 -0.023999999999999994
v 0.1966118 -0.04286143 -0.023999999999999994
v 0.1966118 -0.038138570000000004 -0.023999999999999994
v 0.20299999999999999 -0.0405 -0.023999999999999994
v 0.2012725 -0.03812236 -0.023999999999999994
v 0.1984775 -0.03903054 -0.023999999999999994
v 0.1984775 -0.04196946 -0.023999999999999994
v 0.2012725 -0.04287764 -0.023999999999999994
vn -0 -0 1
vn -0 -0 1
vn -0 -0 1
vn -0 -0 1
vn -0 -0 1
vn -0 -0 1
vn -0 -0 1
vn -0 -0 1
vn -0 -0 1
vn -0 -0 1
vn -0 -0 1
f 22//22 15//15 14//14 
f 18//18 14//14 13//13 
f 18//18 22//22 14//14 
f 21//21 15//15 22//22 
f 16//16 15//15 21//21 
f 19//19 18//18 13//13 
f 17//17 21//21 20//20 
f 17//17 16//16 21//21 
f 12//12 20//20 19//19 
f 12//12 17//17 20//20 
f 12//12 19//19 13//13 

g Face_3
v 0.212 -0.0335 -0.026999999999999996
v 0.19749999999999998 -0.0335 -0.026999999999999996
v 0.19749999999999998 -0.0335 -0.023999999999999994
v 0.2155 -0.0335 -0.023999999999999994
v 0.2155 -0.0335 -0.03699999999999999
v 0.23199999999999998 -0.0335 -0.03699999999999999
v 0.23199999999999998 -0.0335 -0.040499999999999994
v 0.212 -0.0335 -0.040499999999999994
vn 0 1 0
vn 0 1 0
vn 0 1 0
vn 0 1 0
vn 0 1 0
vn 0 1 0
vn 0 1 0
vn 0 1 0
f 23//23 24//24 25//25 
f 23//23 27//27 30//30 
f 29//29 30//30 27//27 
f 26//26 23//23 25//25 
f 26//26 27//27 23//23 
f 28//28 29//29 27//27 

g Face_4
v 0.19749999999999998 -0.0475 -0.023999999999999994
v 0.2155 -0.0475 -0.023999999999999994
v 0.2155 -0.0475 -0.03699999999999999
v 0.23199999999999998 -0.0475 -0.03699999999999999
v 0.23199999999999998 -0.0475 -0.040499999999999994
v 0.212 -0.0475 -0.040499999999999994
v 0.212 -0.0475 -0.026999999999999996
v 0.19749999999999998 -0.0475 -0.026999999999999996
vn -0 -1 -0
vn -0 -1 -0
vn -0 -1 -0
vn -0 -1 -0
vn -0 -1 -0
vn -0 -1 -0
vn -0 -1 -0
vn -0 -1 -0
f 37//37 31//31 38//38 
f 37//37 36//36 33//33 
f 35//35 33//33 36//36 
f 32//32 31//31 37//37 
f 32//32 37//37 33//33 
f 34//34 33//33 35//35 

g Face_5
v 0.23199999999999998 -0.0335 -0.040499999999999994
v 0.23199999999999998 -0.0475 -0.040499999999999994
v 0.212 -0.0335 -0.040499999999999994
v 0.212 -0.0475 -0.040499999999999994
v 0.21255 -0.0405 -0.040499999999999994
v 0.21375 -0.0393 -0.040499999999999994
v 0.21495 -0.0405 -0.040499999999999994
v 0.21375 -0.0417 -0.040499999999999994
v 0.21995 -0.040499999999999994 -0.040499999999999994
v 0.2211 -0.04249186 -0.040499999999999994
v 0.2234 -0.04249186 -0.040499999999999994
v 0.22455 -0.040499999999999994 -0.040499999999999994
v 0.2234 -0.03850814 -0.040499999999999994
v 0.2211 -0.03850814 -0.040499999999999994
vn 1.87055e-17 -0 -1
vn 1.87055e-17 -0 -1
vn 1.87055e-17 -0 -1
vn 1.87055e-17 -0 -1
vn 1.87055e-17 -0 -1
vn 1.87055e-17 -0 -1
vn 1.87055e-17 -0 -1
vn 1.87055e-17 -0 -1
vn 1.87055e-17 -0 -1
vn 1.87055e-17 -0 -1
vn 1.87055e-17 -0 -1
vn 1.87055e-17 -0 -1
vn 1.87055e-17 -0 -1
vn 1.87055e-17 -0 -1
f 46//46 42//42 43//43 
f 41//41 44//44 43//43 
f 48//48 46//46 45//45 
f 48//48 42//42 46//46 
f 47//47 48//48 45//45 
f 52//52 45//45 44//44 
f 52//52 44//44 41//41 
f 52//52 47//47 45//45 
f 40//40 48//48 49//49 
f 40//40 49//49 50//50 
f 40//40 42//42 48//48 
f 39//39 50//50 51//51 
f 39//39 51//51 52//52 
f 39//39 40//40 50//50 
f 39//39 52//52 41//41 
f 41//41 43//43 42//42 

g Face_6
v 0.2155 -0.0335 -0.03699999999999999
v 0.2155 -0.0475 -0.03699999999999999
v 0.23199999999999998 -0.0335 -0.03699999999999999
v 0.23199999999999998 -0.0475 -0.03699999999999999
v 0.21995 -0.040499999999999994 -0.03699999999999999
v 0.22153926 -0.04268743 -0.03699999999999999
v 0.2241107 -0.04185191 -0.03699999999999999
v 0.2241107 -0.03914809 -0.03699999999999999
v 0.22153926 -0.038312570000000004 -0.03699999999999999
vn -0 -0 1
vn -0 -0 1
vn -0 -0 1
vn -0 -0 1
vn -0 -0 1
vn -0 -0 1
vn -0 -0 1
vn -0 -0 1
vn -0 -0 1
f 58//58 56//56 59//59 
f 60//60 56//56 55//55 
f 60//60 59//59 56//56 
f 54//54 56//56 58//58 
f 57//57 54//54 58//58 
f 61//61 60//60 55//55 
f 53//53 57//57 61//61 
f 53//53 54//54 57//57 
f 53//53 61//61 55//55 

g Face_7
v 0.23199999999999998 -0.0335 -0.03699999999999999
v 0.23199999999999998 -0.0475 -0.03699999999999999
v 0.23199999999999998 -0.0335 -0.040499999999999994
v 0.23199999999999998 -0.0475 -0.040499999999999994
vn 1 -0 -0
vn 1 -0 -0
vn 1 -0 -0
vn 1 -0 -0
f 62//62 65//65 64//64 
f 62//62 63//63 65//65 

g Face_8
v 0.212 -0.0335 -0.040499999999999994
v 0.212 -0.0475 -0.040499999999999994
v 0.212 -0.0335 -0.026999999999999996
v 0.212 -0.0475 -0.026999999999999996
vn -1 -0 1.22465e-16
vn -1 -0 1.22465e-16
vn -1 -0 1.22465e-16
vn -1 -0 1.22465e-16
f 66//66 69//69 68//68 
f 66//66 67//67 69//69 

g Face_9
v 0.2155 -0.0335 -0.023999999999999994
v 0.2155 -0.0475 -0.023999999999999994
v 0.2155 -0.0335 -0.03699999999999999
v 0.2155 -0.0475 -0.03699999999999999
vn 1 -0 -3.33601e-17
vn 1 -0 -3.33601e-17
vn 1 -0 -3.33601e-17
vn 1 -0 -3.33601e-17
f 70//70 73//73 72//72 
f 70//70 71//71 73//73 

g Face_10
v 0.22455 -0.040499999999999994 -0.040499999999999994
v 0.2234 -0.03850814 -0.040499999999999994
v 0.2211 -0.03850814 -0.040499999999999994
v 0.21995 -0.040499999999999994 -0.040499999999999994
v 0.21995 -0.040499999999999994 -0.03699999999999999
v 0.21995 -0.040499999999999994 -0.03699999999999999
v 0.22153926 -0.04268743 -0.03699999999999999
v 0.2241107 -0.04185191 -0.03699999999999999
v 0.2241107 -0.03914809 -0.03699999999999999
v 0.22153926 -0.038312570000000004 -0.03699999999999999
v 0.21995 -0.040499999999999994 -0.040499999999999994
v 0.2211 -0.04249186 -0.040499999999999994
v 0.2234 -0.04249186 -0.040499999999999994
vn -1 -1.22465e-16 -0
vn -0.5 -0.866025 -0
vn 0.5 -0.866025 -0
vn 1 -0 -0
vn 1 -0 -0
vn 1 2.44929e-16 0
vn 0.309017 0.951057 0
vn -0.809017 0.587785 -0
vn -0.809017 -0.587785 -0
vn 0.309017 -0.951057 -0
vn 1 2.44929e-16 0
vn 0.5 0.866025 0
vn -0.5 0.866025 -0
f 76//76 78//78 77//77 
f 76//76 83//83 78//78 
f 75//75 82//82 83//83 
f 75//75 83//83 76//76 
f 74//74 81//81 82//82 
f 74//74 82//82 75//75 
f 86//86 80//80 81//81 
f 86//86 81//81 74//74 
f 85//85 79//79 80//80 
f 85//85 80//80 86//86 
f 84//84 79//79 85//85 

g Face_11
v 0.20299999999999999 -0.0405 -0.023999999999999994
v 0.2012725 -0.03812236 -0.023999999999999994
v 0.1984775 -0.03903054 -0.023999999999999994
v 0.1984775 -0.04196946 -0.023999999999999994
v 0.2012725 -0.04287764 -0.023999999999999994
v 0.20299999999999999 -0.0405 -0.023999999999999994
v 0.20299999999999999 -0.0405 -0.026999999999999996
v 0.20299999999999999 -0.0405 -0.026999999999999996
v 0.2012725 -0.04287764 -0.026999999999999996
v 0.1984775 -0.04196946 -0.026999999999999996
v 0.1984775 -0.03903054 -0.026999999999999996
v 0.2012725 -0.03812236 -0.026999999999999996
vn -1 -3.67394e-16 -0
vn -0.309017 -0.951057 -0
vn 0.809017 -0.587785 -0
vn 0.809017 0.587785 0
vn -0.309017 0.951057 -0
vn -1 -1.22465e-16 -0
vn -1 -3.67394e-16 -0
vn -1 -1.22465e-16 -0
vn -0.309017 0.951057 -0
vn 0.809017 0.587785 0
vn 0.809017 -0.587785 -0
vn -0.309017 -0.951057 -0
f 95//95 91//91 92//92 
f 95//95 92//92 94//94 
f 96//96 90//90 91//91 
f 96//96 91//91 95//95 
f 97//97 89//89 90//90 
f 97//97 90//90 96//96 
f 98//98 88//88 89//89 
f 98//98 89//89 97//97 
f 93//93 87//87 88//88 
f 93//93 88//88 98//98 

g Face_12
v 0.19749999999999998 -0.0335 -0.026999999999999996
v 0.1966118 -0.038138570000000004 -0.026999999999999996
v 0.1966118 -0.04286143 -0.026999999999999996
v 0.19749999999999998 -0.0475 -0.026999999999999996
v 0.19749999999999998 -0.0475 -0.023999999999999994
v 0.1966118 -0.04286143 -0.023999999999999994
v 0.1966118 -0.038138570000000004 -0.023999999999999994
v 0.19749999999999998 -0.0335 -0.023999999999999994
vn -0.96 0.28 0
vn -0.995529 0.094457 0
vn -0.995529 -0.094457 -0
vn -0.96 -0.28 -0
vn -0.96 -0.28 -0
vn -0.995529 -0.094457 -0
vn -0.995529 0.094457 0
vn -0.96 0.28 0
f 101//101 102//102 103//103 
f 101//101 103//103 104//104 
f 100//100 104//104 105//105 
f 100//100 101//101 104//104 
f 99//99 105//105 106//106 
f 99//99 100//100 105//105 

g Face_13
v 0.21255 -0.0405 -0.03849999999999999
v 0.21375 -0.0393 -0.03849999999999999
v 0.21495 -0.0405 -0.03849999999999999
v 0.21375 -0.0417 -0.03849999999999999
v 0.21255 -0.0405 -0.03849999999999999
v 0.21255 -0.0405 -0.040499999999999994
v 0.21255 -0.0405 -0.040499999999999994
v 0.21375 -0.0393 -0.040499999999999994
v 0.21495 -0.0405 -0.040499999999999994
v 0.21375 -0.0417 -0.040499999999999994
vn 1 -0 1.87055e-17
vn 6.12323e-17 -1 1.14538e-33
vn -1 -1.22465e-16 -1.87055e-17
vn -1.83697e-16 1 -3.43614e-33
vn 1 2.44929e-16 1.87055e-17
vn 1 2.44929e-16 1.87055e-17
vn 1 -0 1.87055e-17
vn 6.12323e-17 -1 1.14538e-33
vn -1 -1.22465e-16 -1.87055e-17
vn -1.83697e-16 1 -3.43614e-33
f 114//114 108//108 107//107 
f 114//114 107//107 113//113 
f 115//115 109//109 108//108 
f 115//115 108//108 114//114 
f 116//116 110//110 109//109 
f 116//116 109//109 115//115 
f 112//112 111//111 110//110 
f 112//112 110//110 116//116 

g Face_14
v 0.21255 -0.0405 -0.03849999999999999
v 0.21375 -0.0393 -0.03849999999999999
v 0.21495 -0.0405 -0.03849999999999999
v 0.21375 -0.0417 -0.03849999999999999
vn 1.87055e-17 0 -1
vn 1.87055e-17 0 -1
vn 1.87055e-17 0 -1
vn 1.87055e-17 0 -1
f 118//118 119//119 120//120 
f 118//118 120//120 117//117 

