mtllib Pont_Echappement_-_Palier_filete.mtl
usemtl Pont_Echappement_-_Palier_filete
#Wavefront export of shape 1-10-8-3--Pont_Echappement_-_Palier_filete

g Face_1
v 0.1395 -0.1385 0.018200000000000008
v 0.13923205000000002 -0.1375 0.018200000000000008
v 0.1385 -0.13676795 0.018200000000000008
v 0.1375 -0.1365 0.018200000000000008
v 0.1375 -0.1365 0.024000000000000007
v 0.13940211000000002 -0.13788196600000002 0.024000000000000007
v 0.13867557 -0.14011803 0.024000000000000007
v 0.13632443000000002 -0.14011803 0.024000000000000007
v 0.13559789 -0.13788196600000002 0.024000000000000007
v 0.1375 -0.1365 0.024000000000000007
v 0.1375 -0.1365 0.018200000000000008
v 0.13565224 -0.13773463300000002 0.018200000000000008
v 0.13608579 -0.13991421 0.018200000000000008
v 0.138265367 -0.14034776000000002 0.018200000000000008
vn 1 1.22465e-16 -0
vn 0.866025 0.5 -0
vn 0.5 0.866025 -0
vn -6.12323e-17 1 0
vn -6.12323e-17 1 0
vn 0.951057 0.309017 -0
vn 0.587785 -0.809017 0
vn -0.587785 -0.809017 0
vn -0.951057 0.309017 0
vn -3.06162e-16 1 0
vn -3.06162e-16 1 0
vn -0.92388 0.382683 0
vn -0.707107 -0.707107 0
vn 0.382683 -0.92388 0
f 3//3 4//4 5//5 
f 3//3 5//5 6//6 
f 2//2 3//3 6//6 
f 1//1 6//6 7//7 
f 1//1 2//2 6//6 
f 14//14 7//7 8//8 
f 14//14 1//1 7//7 
f 13//13 8//8 9//9 
f 13//13 14//14 8//8 
f 12//12 9//9 10//10 
f 12//12 13//13 9//9 
f 11//11 12//12 10//10 

g Face_2
v 0.1375 -0.1365 0.018200000000000008
v 0.13565224 -0.13773463300000002 0.018200000000000008
v 0.13608579 -0.13991421 0.018200000000000008
v 0.138265367 -0.14034776000000002 0.018200000000000008
v 0.1395 -0.1385 0.018200000000000008
v 0.13923205000000002 -0.1375 0.018200000000000008
v 0.1385 -0.13676795 0.018200000000000008
v 0.1375 -0.1378 0.018200000000000008
v 0.1368 -0.1385 0.018200000000000008
v 0.1375 -0.13920000000000002 0.018200000000000008
v 0.13820000000000002 -0.1385 0.018200000000000008
v 0.138106218 -0.13815000000000002 0.018200000000000008
v 0.13785 -0.13789378200000002 0.018200000000000008
vn -0 -0 -1
vn -0 -0 -1
vn -0 -0 -1
vn -0 -0 -1
vn -0 -0 -1
vn -0 -0 -1
vn -0 -0 -1
vn -0 -0 -1
vn -0 -0 -1
vn -0 -0 -1
vn -0 -0 -1
vn -0 -0 -1
vn -0 -0 -1
f 24//24 18//18 17//17 
f 23//23 17//17 16//16 
f 23//23 24//24 17//17 
f 22//22 23//23 16//16 
f 25//25 18//18 24//24 
f 19//19 18//18 25//25 
f 15//15 22//22 16//16 
f 21//21 27//27 22//22 
f 21//21 22//22 15//15 
f 20//20 25//25 26//26 
f 20//20 26//26 27//27 
f 20//20 19//19 25//25 
f 20//20 27//27 21//21 

g Face_3
v 0.1375 -0.1378 0.024500000000000008
v 0.138106218 -0.13885 0.024500000000000008
v 0.13689378200000002 -0.13885 0.024500000000000008
v 0.1375 -0.1378 0.024500000000000008
v 0.1375 -0.1378 0.018200000000000008
v 0.1368 -0.1385 0.018200000000000008
v 0.1375 -0.13920000000000002 0.018200000000000008
v 0.13820000000000002 -0.1385 0.018200000000000008
v 0.138106218 -0.13815000000000002 0.018200000000000008
v 0.13785 -0.13789378200000002 0.018200000000000008
v 0.1375 -0.1378 0.018200000000000008
vn 6.12323e-17 -1 -0
vn -0.866025 0.5 -0
vn 0.866025 0.5 -0
vn 3.06162e-16 -1 -0
vn 3.06162e-16 -1 -0
vn 1 2.44929e-16 -0
vn -1.83697e-16 1 -0
vn -1 -1.22465e-16 0
vn -0.866025 -0.5 0
vn -0.5 -0.866025 0
vn 6.12323e-17 -1 -0
f 37//37 28//28 38//38 
f 36//36 29//29 28//28 
f 36//36 28//28 37//37 
f 35//35 29//29 36//36 
f 34//34 30//30 29//29 
f 34//34 29//29 35//35 
f 33//33 31//31 30//30 
f 33//33 30//30 34//34 
f 32//32 31//31 33//33 

g Face_4
v 0.1375 -0.1365 0.024000000000000007
v 0.13940211000000002 -0.13788196600000002 0.024000000000000007
v 0.13867557 -0.14011803 0.024000000000000007
v 0.13632443000000002 -0.14011803 0.024000000000000007
v 0.13559789 -0.13788196600000002 0.024000000000000007
v 0.1375 -0.1378 0.024500000000000008
v 0.138106218 -0.13885 0.024500000000000008
v 0.13689378200000002 -0.13885 0.024500000000000008
vn -1.11022e-16 0.52293 0.852376
vn 0.497321 0.161566 0.852389
vn 0.307372 -0.423054 0.852378
vn -0.307372 -0.423054 0.852378
vn -0.497321 0.161566 0.852389
vn -0 0.183025 0.983108
vn 0.158503 -0.0915106 0.983109
vn -0.158503 -0.0915106 0.983109
f 44//44 39//39 43//43 
f 46//46 44//44 43//43 
f 42//42 46//46 43//43 
f 40//40 44//44 45//45 
f 40//40 39//39 44//44 
f 41//41 45//45 46//46 
f 41//41 46//46 42//42 
f 41//41 40//40 45//45 

