mtllib Pont_bascule_des_Heures_-_axe.mtl
usemtl Pont_bascule_des_Heures_-_axe
#Wavefront export of shape 1-9-8-2--Pont_bascule_des_Heures_-_axe

g Face_1
v 0.07975 -0.12 -0.1375
v 0.078022542 -0.11762236 -0.1375
v 0.07522746 -0.11853053999999999 -0.1375
v 0.07522746 -0.12146946 -0.1375
v 0.078022542 -0.12237764 -0.1375
vn -0 -0 1
vn -0 -0 1
vn -0 -0 1
vn -0 -0 1
vn -0 -0 1
f 3//3 1//1 2//2 
f 3//3 4//4 5//5 
f 3//3 5//5 1//1 

g Face_2
v 0.07895017 -0.12 -0.1555
v 0.07725 -0.11829983 -0.1555
v 0.07554983 -0.12 -0.1555
v 0.07725 -0.12170017 -0.1555
vn -0 -0 -1
vn -0 -0 -1
vn -0 -0 -1
vn -0 -0 -1
f 6//6 8//8 7//7 
f 6//6 9//9 8//8 

g Face_3
v 0.07905 -0.12 -0.14120000000000002
v 0.077806231 -0.1182881 -0.14120000000000002
v 0.07579377 -0.11894199 -0.14120000000000002
v 0.07579377 -0.12105801 -0.14120000000000002
v 0.077806231 -0.1217119 -0.14120000000000002
v 0.07905 -0.12 -0.14120000000000002
v 0.07895017 -0.12 -0.1555
v 0.07898344 -0.12 -0.15073330000000001
v 0.07901672 -0.12 -0.14596667000000002
v 0.07725 -0.11829983 -0.1555
v 0.07554983 -0.12 -0.1555
v 0.07725 -0.12170017 -0.1555
v 0.07895017 -0.12 -0.1555
v 0.07898344 -0.12 -0.15073330000000001
v 0.07901672 -0.12 -0.14596667000000002
v 0.076821455 -0.12165345 -0.15436550000000002
v 0.076926435 -0.12168591 -0.1530736
v 0.077997566 -0.12154018999999999 -0.15381
v 0.076821455 -0.11834655 -0.15436550000000002
v 0.077997414 -0.11845975 -0.1538119
v 0.07692825 -0.11831375999999999 -0.1530729
v 0.076383278 -0.11849878999999999 -0.15073330000000001
v 0.076383278 -0.12150121 -0.15073330000000001
v 0.076366639 -0.11846997 -0.14596667000000002
v 0.076366639 -0.12153003 -0.14596667000000002
vn 0.999976 0 -0.00698126
vn 0.309009 0.951033 -0.00698126
vn -0.808997 0.587771 -0.00698126
vn -0.808997 -0.587771 -0.00698126
vn 0.309009 -0.951033 -0.00698126
vn 0.999976 -1.13308e-15 -0.00698126
vn 0.999976 0 -0.00698126
vn 0.999976 0 -0.00698126
vn 0.999976 0 -0.00698126
vn 2.8327e-16 0.999976 -0.00698126
vn -0.999976 5.6654e-16 -0.00698126
vn -1.83693e-16 -0.999976 -0.00698126
vn 0.999976 -1.13308e-15 -0.00698126
vn 0.999976 -1.13308e-15 -0.00698126
vn 0.999976 -1.13308e-15 -0.00698126
vn -0.250886 -0.967991 -0.00698126
vn -0.188479 -0.982052 -0.00698126
vn 0.436645 -0.899607 -0.00698126
vn -0.250886 0.967991 -0.00698126
vn 0.43656 0.899648 -0.00698126
vn -0.187423 0.982254 -0.00698126
vn -0.499988 0.866004 -0.00698126
vn -0.499988 -0.866004 -0.00698126
vn -0.499988 0.866004 -0.00698126
vn -0.499988 -0.866004 -0.00698126
f 29//29 16//16 19//19 
f 28//28 29//29 19//19 
f 17//17 16//16 29//29 
f 20//20 28//28 19//19 
f 30//30 17//17 29//29 
f 30//30 28//28 20//20 
f 25//25 20//20 21//21 
f 26//26 30//30 20//20 
f 26//26 20//20 25//25 
f 27//27 25//25 21//21 
f 22//22 27//27 21//21 
f 23//23 26//26 27//27 
f 23//23 27//27 22//22 
f 11//11 10//10 18//18 
f 15//15 14//14 24//24 
f 31//31 17//17 30//30 
f 31//31 30//30 26//26 
f 32//32 31//31 26//26 
f 32//32 26//26 23//23 
f 33//33 12//12 11//11 
f 33//33 18//18 17//17 
f 33//33 11//11 18//18 
f 33//33 17//17 31//31 
f 34//34 13//13 12//12 
f 34//34 14//14 13//13 
f 34//34 23//23 24//24 
f 34//34 31//31 32//32 
f 34//34 12//12 33//33 
f 34//34 32//32 23//23 
f 34//34 33//33 31//31 
f 34//34 24//24 14//14 

g Face_4
v 0.08025 -0.12 -0.14120000000000002
v 0.07875 -0.11740191999999999 -0.14120000000000002
v 0.07575 -0.11740191999999999 -0.14120000000000002
v 0.07425 -0.12 -0.14120000000000002
v 0.07575 -0.12259808 -0.14120000000000002
v 0.07875 -0.12259808 -0.14120000000000002
v 0.07905 -0.12 -0.14120000000000002
v 0.077806231 -0.1182881 -0.14120000000000002
v 0.07579377 -0.11894199 -0.14120000000000002
v 0.07579377 -0.12105801 -0.14120000000000002
v 0.077806231 -0.1217119 -0.14120000000000002
vn -0 -0 -1
vn -0 -0 -1
vn -0 -0 -1
vn -0 -0 -1
vn -0 -0 -1
vn -0 -0 -1
vn -0 -0 -1
vn -0 -0 -1
vn -0 -0 -1
vn -0 -0 -1
vn -0 -0 -1
f 44//44 39//39 38//38 
f 45//45 39//39 44//44 
f 40//40 39//39 45//45 
f 43//43 44//44 38//38 
f 37//37 43//43 38//38 
f 41//41 40//40 45//45 
f 42//42 43//43 37//37 
f 35//35 40//40 41//41 
f 36//36 41//41 42//42 
f 36//36 35//35 41//41 
f 36//36 42//42 37//37 

g Face_5
v 0.08025 -0.12 -0.1395
v 0.07875 -0.11740191999999999 -0.1395
v 0.07575 -0.11740191999999999 -0.1395
v 0.07425 -0.12 -0.1395
v 0.07575 -0.12259808 -0.1395
v 0.07875 -0.12259808 -0.1395
v 0.08025 -0.12 -0.1395
v 0.08025 -0.12 -0.14120000000000002
v 0.07875 -0.11740191999999999 -0.14120000000000002
v 0.07575 -0.11740191999999999 -0.14120000000000002
v 0.07425 -0.12 -0.14120000000000002
v 0.07575 -0.12259808 -0.14120000000000002
v 0.07875 -0.12259808 -0.14120000000000002
v 0.08025 -0.12 -0.14120000000000002
vn 1 0 0
vn 0.5 0.866025 -0
vn -0.5 0.866025 0
vn -1 1.22465e-16 0
vn -0.5 -0.866025 0
vn 0.5 -0.866025 0
vn 1 -2.44929e-16 0
vn 1 0 0
vn 0.5 0.866025 -0
vn -0.5 0.866025 0
vn -1 1.22465e-16 0
vn -0.5 -0.866025 0
vn 0.5 -0.866025 0
vn 1 -2.44929e-16 0
f 47//47 46//46 53//53 
f 47//47 53//53 54//54 
f 48//48 54//54 55//55 
f 48//48 47//47 54//54 
f 49//49 55//55 56//56 
f 49//49 48//48 55//55 
f 50//50 56//56 57//57 
f 50//50 49//49 56//56 
f 51//51 57//57 58//58 
f 51//51 50//50 57//57 
f 52//52 58//58 59//59 
f 52//52 51//51 58//58 

g Face_6
v 0.08025 -0.12 -0.1395
v 0.07875 -0.11740191999999999 -0.1395
v 0.07575 -0.11740191999999999 -0.1395
v 0.07425 -0.12 -0.1395
v 0.07575 -0.12259808 -0.1395
v 0.07875 -0.12259808 -0.1395
v 0.07975 -0.12 -0.1395
v 0.078022542 -0.11762236 -0.1395
v 0.07522746 -0.11853053999999999 -0.1395
v 0.07522746 -0.12146946 -0.1395
v 0.078022542 -0.12237764 -0.1395
vn -0 -0 1
vn -0 -0 1
vn -0 -0 1
vn -0 -0 1
vn -0 -0 1
vn -0 -0 1
vn -0 -0 1
vn -0 -0 1
vn -0 -0 1
vn -0 -0 1
vn -0 -0 1
f 66//66 65//65 60//60 
f 66//66 70//70 65//65 
f 64//64 65//65 70//70 
f 69//69 64//64 70//70 
f 61//61 66//66 60//60 
f 67//67 66//66 61//61 
f 68//68 63//63 69//69 
f 62//62 68//68 67//67 
f 62//62 63//63 68//68 
f 62//62 67//67 61//61 
f 64//64 69//69 63//63 

g Face_7
v 0.07975 -0.12 -0.1375
v 0.078022542 -0.11762236 -0.1375
v 0.07522746 -0.11853053999999999 -0.1375
v 0.07522746 -0.12146946 -0.1375
v 0.078022542 -0.12237764 -0.1375
v 0.07975 -0.12 -0.1375
v 0.07975 -0.12 -0.1395
v 0.078022542 -0.11762236 -0.1395
v 0.07522746 -0.11853053999999999 -0.1395
v 0.07522746 -0.12146946 -0.1395
v 0.078022542 -0.12237764 -0.1395
v 0.07975 -0.12 -0.1395
vn 1 0 0
vn 0.309017 0.951057 -0
vn -0.809017 0.587785 0
vn -0.809017 -0.587785 0
vn 0.309017 -0.951057 0
vn 1 -2.44929e-16 0
vn 1 0 0
vn 0.309017 0.951057 -0
vn -0.809017 0.587785 0
vn -0.809017 -0.587785 0
vn 0.309017 -0.951057 0
vn 1 -2.44929e-16 0
f 72//72 71//71 77//77 
f 72//72 77//77 78//78 
f 73//73 78//78 79//79 
f 73//73 72//72 78//78 
f 74//74 79//79 80//80 
f 74//74 73//73 79//79 
f 75//75 80//80 81//81 
f 75//75 74//74 80//80 
f 76//76 81//81 82//82 
f 76//76 75//75 81//81 

g Face_8
v 0.076821455 -0.11834655 -0.15436550000000002
v 0.077997414 -0.11845975 -0.1538119
v 0.07692825 -0.11831375999999999 -0.1530729
v 0.076821455 -0.11834655 -0.15436550000000002
v 0.076821455 -0.12165345 -0.15436550000000002
v 0.076926435 -0.12168591 -0.1530736
v 0.077997566 -0.12154018999999999 -0.15381
v 0.076821455 -0.12165345 -0.15436550000000002
vn 0.571394 -0 0.820676
vn -0.996585 -0 0.0825718
vn 0.429183 -0 -0.903218
vn 0.571394 -0 0.820676
vn 0.571394 -0 0.820676
vn 0.43154 -0 -0.902094
vn -0.996799 -0 0.0799495
vn 0.571394 -0 0.820676
f 86//86 88//88 87//87 
f 85//85 89//89 88//88 
f 85//85 88//88 86//86 
f 84//84 90//90 89//89 
f 84//84 89//89 85//85 
f 83//83 90//90 84//84 

