mtllib Pont_cremaillere_Heures.mtl
usemtl Pont_cremaillere_Heures
#Wavefront export of shape 1-8-12--Pont_cremaillere_Heures

g Face_1
v 0.05975 -0.1705 -0.0465
v 0.06725 -0.1705 -0.0465
v 0.06725 -0.17250000000000001 -0.0465
v 0.05975 -0.17250000000000001 -0.0465
vn -3.43297e-32 2.46322e-47 1
vn -3.43297e-32 2.46322e-47 1
vn -3.43297e-32 2.46322e-47 1
vn -3.43297e-32 2.46322e-47 1
f 3//3 2//2 1//1 
f 3//3 1//1 4//4 

g Face_2
v 0.057749999999999996 -0.17250000000000001 -0.053
v 0.057749999999999996 -0.1705 -0.053
v 0.057749999999999996 -0.1705 -0.04
v 0.057749999999999996 -0.17250000000000001 -0.04
vn -1 1.11022e-16 -3.43297e-32
vn -1 1.11022e-16 -3.43297e-32
vn -1 1.11022e-16 -3.43297e-32
vn -1 1.11022e-16 -3.43297e-32
f 8//8 6//6 5//5 
f 8//8 7//7 6//6 

g Face_3
v 0.057749999999999996 -0.1705 -0.053
v 0.06725 -0.1705 -0.053
v 0.06725 -0.1705 -0.0465
v 0.05975 -0.1705 -0.0465
v 0.05975 -0.1705 -0.04
v 0.057749999999999996 -0.1705 -0.04
v 0.06005 -0.1705 -0.0515
v 0.060916029999999996 -0.1705 -0.05
v 0.059183975 -0.1705 -0.05
vn 1.11022e-16 1 -2.08208e-47
vn 1.11022e-16 1 -2.08208e-47
vn 1.11022e-16 1 -2.08208e-47
vn 1.11022e-16 1 -2.08208e-47
vn 1.11022e-16 1 -2.08208e-47
vn 1.11022e-16 1 -2.08208e-47
vn 1.11022e-16 1 -2.08208e-47
vn 1.11022e-16 1 -2.08208e-47
vn 1.11022e-16 1 -2.08208e-47
f 12//12 14//14 13//13 
f 17//17 14//14 12//12 
f 9//9 14//14 17//17 
f 16//16 17//17 12//12 
f 15//15 9//9 17//17 
f 11//11 16//16 12//12 
f 10//10 15//15 16//16 
f 10//10 16//16 11//11 
f 10//10 9//9 15//15 

g Face_4
v 0.06725 -0.1705 -0.053
v 0.06725 -0.1705 -0.0465
v 0.06725 -0.17250000000000001 -0.053
v 0.06725 -0.17250000000000001 -0.0465
vn 1 -1.11022e-16 3.43297e-32
vn 1 -1.11022e-16 3.43297e-32
vn 1 -1.11022e-16 3.43297e-32
vn 1 -1.11022e-16 3.43297e-32
f 20//20 18//18 19//19 
f 20//20 19//19 21//21 

g Face_5
v 0.06725 -0.17250000000000001 -0.053
v 0.06725 -0.17250000000000001 -0.0465
v 0.057749999999999996 -0.17250000000000001 -0.053
v 0.057749999999999996 -0.17250000000000001 -0.04
v 0.05975 -0.17250000000000001 -0.04
v 0.05975 -0.17250000000000001 -0.0465
v 0.06005 -0.17250000000000001 -0.0515
v 0.060916029999999996 -0.17250000000000001 -0.05
v 0.059183975 -0.17250000000000001 -0.05
vn -1.11022e-16 -1 2.08208e-47
vn -1.11022e-16 -1 2.08208e-47
vn -1.11022e-16 -1 2.08208e-47
vn -1.11022e-16 -1 2.08208e-47
vn -1.11022e-16 -1 2.08208e-47
vn -1.11022e-16 -1 2.08208e-47
vn -1.11022e-16 -1 2.08208e-47
vn -1.11022e-16 -1 2.08208e-47
vn -1.11022e-16 -1 2.08208e-47
f 30//30 24//24 28//28 
f 27//27 30//30 29//29 
f 22//22 29//29 28//28 
f 22//22 28//28 24//24 
f 25//25 30//30 27//27 
f 25//25 24//24 30//30 
f 26//26 25//25 27//27 
f 23//23 27//27 29//29 
f 23//23 29//29 22//22 

g Face_6
v 0.057749999999999996 -0.17250000000000001 -0.053
v 0.057749999999999996 -0.1705 -0.053
v 0.06725 -0.1705 -0.053
v 0.06725 -0.17250000000000001 -0.053
vn 3.43297e-32 -2.46322e-47 -1
vn 3.43297e-32 -2.46322e-47 -1
vn 3.43297e-32 -2.46322e-47 -1
vn 3.43297e-32 -2.46322e-47 -1
f 34//34 31//31 32//32 
f 34//34 32//32 33//33 

g Face_7
v 0.06005 -0.1705 -0.0515
v 0.060916029999999996 -0.1705 -0.05
v 0.06005 -0.1705 -0.0495
v 0.059183975 -0.1705 -0.05
v 0.059183975 -0.1705 -0.051
v 0.06005 -0.1705 -0.0515
v 0.06005 -0.17250000000000001 -0.0515
v 0.06005 -0.17250000000000001 -0.0515
v 0.060916029999999996 -0.17250000000000001 -0.05
v 0.06005 -0.17250000000000001 -0.0495
v 0.059183975 -0.17250000000000001 -0.05
v 0.059183975 -0.17250000000000001 -0.051
vn -3.43297e-32 2.46322e-47 1
vn -0.866025 9.61481e-17 -0.5
vn -1.22465e-16 1.35963e-32 -1
vn 0.866025 -9.61481e-17 -0.5
vn 0.866025 -9.61481e-17 0.5
vn 2.44929e-16 -2.71926e-32 1
vn 2.44929e-16 -2.71926e-32 1
vn -3.43297e-32 2.46322e-47 1
vn -0.866025 9.61481e-17 -0.5
vn -1.22465e-16 1.35963e-32 -1
vn 0.866025 -9.61481e-17 -0.5
vn 0.866025 -9.61481e-17 0.5
f 43//43 36//36 35//35 
f 43//43 35//35 42//42 
f 44//44 37//37 36//36 
f 44//44 36//36 43//43 
f 45//45 38//38 37//37 
f 45//45 37//37 44//44 
f 46//46 39//39 38//38 
f 46//46 38//38 45//45 
f 41//41 40//40 39//39 
f 41//41 39//39 46//46 

g Face_8
v 0.05975 -0.17250000000000001 -0.04
v 0.05975 -0.17250000000000001 -0.0465
v 0.05975 -0.1705 -0.04
v 0.05975 -0.1705 -0.0465
vn 1 1.05818e-16 3.43297e-32
vn 1 1.05818e-16 3.43297e-32
vn 1 1.05818e-16 3.43297e-32
vn 1 1.05818e-16 3.43297e-32
f 50//50 47//47 48//48 
f 50//50 49//49 47//47 

g Face_9
v 0.05975 -0.1705 -0.04
v 0.057749999999999996 -0.1705 -0.04
v 0.05975 -0.17250000000000001 -0.04
v 0.057749999999999996 -0.17250000000000001 -0.04
vn -3.43297e-32 2.46322e-47 1
vn -3.43297e-32 2.46322e-47 1
vn -3.43297e-32 2.46322e-47 1
vn -3.43297e-32 2.46322e-47 1
f 53//53 51//51 52//52 
f 53//53 52//52 54//54 

