mtllib Pont_Echappement_-_Cone.mtl
usemtl Pont_Echappement_-_Cone
#Wavefront export of shape 1-10-8-2--Pont_Echappement_-_Cone

g Face_1
v 0.1375 -0.13485000000000003 -0.040499999999999994
v 0.14066099 -0.13667500000000002 -0.040499999999999994
v 0.14066099 -0.140325 -0.040499999999999994
v 0.1375 -0.14215 -0.040499999999999994
v 0.13433901 -0.140325 -0.040499999999999994
v 0.13433901 -0.13667500000000002 -0.040499999999999994
v 0.1375 -0.136 -0.040499999999999994
v 0.13987764 -0.13772745800000002 -0.040499999999999994
v 0.13896946000000002 -0.14052254 -0.040499999999999994
v 0.13603054 -0.14052254 -0.040499999999999994
v 0.13512236000000002 -0.13772745800000002 -0.040499999999999994
vn 0 1.22465e-16 -1
vn 0 1.22465e-16 -1
vn 0 1.22465e-16 -1
vn 0 1.22465e-16 -1
vn 0 1.22465e-16 -1
vn 0 1.22465e-16 -1
vn 0 1.22465e-16 -1
vn 0 1.22465e-16 -1
vn 0 1.22465e-16 -1
vn 0 1.22465e-16 -1
vn 0 1.22465e-16 -1
f 10//10 4//4 5//5 
f 11//11 10//10 5//5 
f 6//6 11//11 5//5 
f 9//9 4//4 10//10 
f 3//3 4//4 9//9 
f 7//7 11//11 6//6 
f 8//8 3//3 9//9 
f 1//1 7//7 6//6 
f 2//2 8//8 7//7 
f 2//2 7//7 1//1 
f 2//2 3//3 8//8 

g Face_2
v 0.1375 -0.13485000000000003 -0.03389999999999999
v 0.14066099 -0.13667500000000002 -0.03389999999999999
v 0.14066099 -0.140325 -0.03389999999999999
v 0.1375 -0.14215 -0.03389999999999999
v 0.13433901 -0.140325 -0.03389999999999999
v 0.13433901 -0.13667500000000002 -0.03389999999999999
v 0.1375 -0.13485000000000003 -0.03389999999999999
v 0.1375 -0.13485000000000003 -0.040499999999999994
v 0.1375 -0.13485000000000003 -0.040499999999999994
v 0.14066099 -0.13667500000000002 -0.040499999999999994
v 0.14066099 -0.140325 -0.040499999999999994
v 0.1375 -0.14215 -0.040499999999999994
v 0.13433901 -0.140325 -0.040499999999999994
v 0.13433901 -0.13667500000000002 -0.040499999999999994
vn -0 1 1.22465e-16
vn 0.866025 0.5 6.12323e-17
vn 0.866025 -0.5 -6.12323e-17
vn 1.22465e-16 -1 -1.22465e-16
vn -0.866025 -0.5 -6.12323e-17
vn -0.866025 0.5 6.12323e-17
vn -2.44929e-16 1 1.22465e-16
vn -2.44929e-16 1 1.22465e-16
vn -0 1 1.22465e-16
vn 0.866025 0.5 6.12323e-17
vn 0.866025 -0.5 -6.12323e-17
vn 1.22465e-16 -1 -1.22465e-16
vn -0.866025 -0.5 -6.12323e-17
vn -0.866025 0.5 6.12323e-17
f 21//21 12//12 13//13 
f 21//21 20//20 12//12 
f 22//22 13//13 14//14 
f 22//22 21//21 13//13 
f 23//23 14//14 15//15 
f 23//23 22//22 14//14 
f 24//24 15//15 16//16 
f 24//24 23//23 15//15 
f 25//25 16//16 17//17 
f 25//25 24//24 16//16 
f 19//19 17//17 18//18 
f 19//19 25//25 17//17 

g Face_3
v 0.1375 -0.13485000000000003 -0.03389999999999999
v 0.14066099 -0.13667500000000002 -0.03389999999999999
v 0.14066099 -0.140325 -0.03389999999999999
v 0.1375 -0.14215 -0.03389999999999999
v 0.13433901 -0.140325 -0.03389999999999999
v 0.13433901 -0.13667500000000002 -0.03389999999999999
v 0.1375 -0.1353 -0.03389999999999999
v 0.14027128 -0.13690000000000002 -0.03389999999999999
v 0.14027128 -0.1401 -0.03389999999999999
v 0.1375 -0.14170000000000002 -0.03389999999999999
v 0.13472872000000002 -0.1401 -0.03389999999999999
v 0.13472872000000002 -0.13690000000000002 -0.03389999999999999
vn 0 -1.22465e-16 1
vn 0 -1.22465e-16 1
vn 0 -1.22465e-16 1
vn 0 -1.22465e-16 1
vn 0 -1.22465e-16 1
vn 0 -1.22465e-16 1
vn 0 -1.22465e-16 1
vn 0 -1.22465e-16 1
vn 0 -1.22465e-16 1
vn 0 -1.22465e-16 1
vn 0 -1.22465e-16 1
vn 0 -1.22465e-16 1
f 32//32 26//26 31//31 
f 32//32 31//31 37//37 
f 36//36 31//31 30//30 
f 36//36 37//37 31//31 
f 27//27 32//32 33//33 
f 27//27 26//26 32//32 
f 29//29 35//35 36//36 
f 29//29 36//36 30//30 
f 28//28 33//33 34//34 
f 28//28 34//34 35//35 
f 28//28 35//35 29//29 
f 28//28 27//27 33//33 

g Face_4
v 0.1375 -0.13607358 0.021500000000000005
v 0.13980766 -0.13775019500000002 0.021500000000000005
v 0.13892621000000002 -0.14046301 0.021500000000000005
v 0.13607379 -0.14046301 0.021500000000000005
v 0.13519234000000002 -0.13775019500000002 0.021500000000000005
v 0.1375 -0.13607358 0.021500000000000005
v 0.1375 -0.13598763000000003 0.015344400000000008
v 0.1375 -0.13590167 0.009188900000000007
v 0.1375 -0.13581572 0.0030333000000000027
v 0.1375 -0.13572977 -0.0031221999999999916
v 0.1375 -0.13564381 -0.009277799999999996
v 0.1375 -0.13555786 -0.015433299999999994
v 0.1375 -0.13547191 -0.021588899999999994
v 0.1375 -0.13538595 -0.027744399999999995
v 0.1375 -0.1353 -0.03389999999999999
v 0.1375 -0.1353 -0.03389999999999999
v 0.14027128 -0.13690000000000002 -0.03389999999999999
v 0.14027128 -0.1401 -0.03389999999999999
v 0.1375 -0.14170000000000002 -0.03389999999999999
v 0.13472872000000002 -0.1401 -0.03389999999999999
v 0.13472872000000002 -0.13690000000000002 -0.03389999999999999
v 0.1375 -0.13598763000000003 0.015344400000000008
v 0.1375 -0.13590167 0.009188900000000007
v 0.1375 -0.13581572 0.0030333000000000027
v 0.1375 -0.13572977 -0.0031221999999999916
v 0.1375 -0.13564381 -0.009277799999999996
v 0.1375 -0.13555786 -0.015433299999999994
v 0.1375 -0.13547191 -0.021588899999999994
v 0.1375 -0.13538595 -0.027744399999999995
v 0.14001237 -0.1385 0.015344400000000008
v 0.1375 -0.14101237 0.015344400000000008
v 0.14009833000000002 -0.1385 0.009188900000000007
v 0.13498763000000003 -0.1385 0.015344400000000008
v 0.1375 -0.14109833000000002 0.009188900000000007
v 0.14018428000000002 -0.1385 0.0030333000000000027
v 0.13490167 -0.1385 0.009188900000000007
v 0.1375 -0.14118428000000002 0.0030333000000000027
v 0.14027023000000002 -0.1385 -0.0031221999999999916
v 0.13481572 -0.1385 0.0030333000000000027
v 0.1375 -0.14127023000000002 -0.0031221999999999916
v 0.14035619000000002 -0.1385 -0.009277799999999996
v 0.13472977 -0.1385 -0.0031221999999999916
v 0.1375 -0.14135619000000002 -0.009277799999999996
v 0.14044214000000002 -0.1385 -0.015433299999999994
v 0.13464381 -0.1385 -0.009277799999999996
v 0.1375 -0.14144214000000002 -0.015433299999999994
v 0.14052809000000002 -0.1385 -0.021588899999999994
v 0.13455786 -0.1385 -0.015433299999999994
v 0.1375 -0.14152809000000002 -0.021588899999999994
v 0.14061405000000002 -0.1385 -0.027744399999999995
v 0.13447191 -0.1385 -0.021588899999999994
v 0.1375 -0.14161405000000002 -0.027744399999999995
v 0.13438595 -0.1385 -0.027744399999999995
vn -0 0.999903 0.0139622
vn 0.950964 0.308987 0.0139622
vn 0.587728 -0.808938 0.0139622
vn -0.587728 -0.808938 0.0139622
vn -0.950964 0.308987 0.0139622
vn -1.133e-15 0.999903 0.0139622
vn -1.133e-15 0.999903 0.0139622
vn -1.133e-15 0.999903 0.0139622
vn -1.133e-15 0.999903 0.0139622
vn -1.133e-15 0.999903 0.0139622
vn -1.133e-15 0.999903 0.0139622
vn -1.133e-15 0.999903 0.0139622
vn -1.133e-15 0.999903 0.0139622
vn -1.133e-15 0.999903 0.0139622
vn -1.133e-15 0.999903 0.0139622
vn -0 0.999903 0.0139622
vn 0.865941 0.499951 0.0139622
vn 0.865941 -0.499951 0.0139622
vn 5.66499e-16 -0.999903 0.0139622
vn -0.865941 -0.499951 0.0139622
vn -0.865941 0.499951 0.0139622
vn -0 0.999903 0.0139622
vn -0 0.999903 0.0139622
vn -0 0.999903 0.0139622
vn -0 0.999903 0.0139622
vn -0 0.999903 0.0139622
vn -0 0.999903 0.0139622
vn -0 0.999903 0.0139622
vn -0 0.999903 0.0139622
vn 0.999903 2.81539e-16 0.0139622
vn 5.66499e-16 -0.999903 0.0139622
vn 0.999903 2.81539e-16 0.0139622
vn -0.999903 -1.85389e-16 0.0139622
vn 5.66499e-16 -0.999903 0.0139622
vn 0.999903 2.81539e-16 0.0139622
vn -0.999903 -1.85389e-16 0.0139622
vn 5.66499e-16 -0.999903 0.0139622
vn 0.999903 2.81539e-16 0.0139622
vn -0.999903 -1.85389e-16 0.0139622
vn 5.66499e-16 -0.999903 0.0139622
vn 0.999903 2.81539e-16 0.0139622
vn -0.999903 -1.85389e-16 0.0139622
vn 5.66499e-16 -0.999903 0.0139622
vn 0.999903 2.81539e-16 0.0139622
vn -0.999903 -1.85389e-16 0.0139622
vn 5.66499e-16 -0.999903 0.0139622
vn 0.999903 2.81539e-16 0.0139622
vn -0.999903 -1.85389e-16 0.0139622
vn 5.66499e-16 -0.999903 0.0139622
vn 0.999903 2.81539e-16 0.0139622
vn -0.999903 -1.85389e-16 0.0139622
vn 5.66499e-16 -0.999903 0.0139622
vn -0.999903 -1.85389e-16 0.0139622
f 59//59 38//38 39//39 
f 44//44 42//42 43//43 
f 54//54 53//53 66//66 
f 52//52 58//58 51//51 
f 67//67 39//39 40//40 
f 67//67 59//59 39//39 
f 68//68 40//40 41//41 
f 68//68 67//67 40//40 
f 69//69 60//60 59//59 
f 69//69 59//59 67//67 
f 70//70 41//41 42//42 
f 70//70 42//42 44//44 
f 70//70 68//68 41//41 
f 71//71 69//69 67//67 
f 71//71 67//67 68//68 
f 72//72 61//61 60//60 
f 72//72 60//60 69//69 
f 73//73 44//44 45//45 
f 73//73 68//68 70//70 
f 73//73 71//71 68//68 
f 73//73 70//70 44//44 
f 74//74 69//69 71//71 
f 74//74 72//72 69//69 
f 75//75 62//62 61//61 
f 75//75 61//61 72//72 
f 76//76 45//45 46//46 
f 76//76 71//71 73//73 
f 76//76 74//74 71//71 
f 76//76 73//73 45//45 
f 77//77 75//75 72//72 
f 77//77 72//72 74//74 
f 78//78 63//63 62//62 
f 78//78 62//62 75//75 
f 79//79 46//46 47//47 
f 79//79 74//74 76//76 
f 79//79 76//76 46//46 
f 79//79 77//77 74//74 
f 80//80 78//78 75//75 
f 80//80 75//75 77//77 
f 81//81 64//64 63//63 
f 81//81 63//63 78//78 
f 82//82 47//47 48//48 
f 82//82 79//79 47//47 
f 82//82 77//77 79//79 
f 82//82 80//80 77//77 
f 83//83 78//78 80//80 
f 83//83 81//81 78//78 
f 84//84 65//65 64//64 
f 84//84 64//64 81//81 
f 85//85 83//83 80//80 
f 85//85 80//80 82//82 
f 85//85 48//48 49//49 
f 85//85 82//82 48//48 
f 86//86 81//81 83//83 
f 86//86 84//84 81//81 
f 87//87 65//65 84//84 
f 87//87 55//55 54//54 
f 87//87 66//66 65//65 
f 87//87 54//54 66//66 
f 88//88 86//86 83//83 
f 88//88 85//85 49//49 
f 88//88 49//49 50//50 
f 88//88 83//83 85//85 
f 89//89 84//84 86//86 
f 89//89 56//56 55//55 
f 89//89 57//57 56//56 
f 89//89 55//55 87//87 
f 89//89 87//87 84//84 
f 90//90 50//50 51//51 
f 90//90 86//86 88//88 
f 90//90 88//88 50//50 
f 90//90 89//89 86//86 
f 90//90 58//58 57//57 
f 90//90 57//57 89//89 
f 90//90 51//51 58//58 

g Face_5
v 0.1375 -0.13607358 0.021500000000000005
v 0.13980766 -0.13775019500000002 0.021500000000000005
v 0.13892621000000002 -0.14046301 0.021500000000000005
v 0.13607379 -0.14046301 0.021500000000000005
v 0.13519234000000002 -0.13775019500000002 0.021500000000000005
v 0.1375 -0.1365 0.021500000000000005
v 0.13940211000000002 -0.13788196600000002 0.021500000000000005
v 0.13867557 -0.14011803 0.021500000000000005
v 0.13632443000000002 -0.14011803 0.021500000000000005
v 0.13559789 -0.13788196600000002 0.021500000000000005
vn 0 -1.22465e-16 1
vn 0 -1.22465e-16 1
vn 0 -1.22465e-16 1
vn 0 -1.22465e-16 1
vn 0 -1.22465e-16 1
vn 0 -1.22465e-16 1
vn 0 -1.22465e-16 1
vn 0 -1.22465e-16 1
vn 0 -1.22465e-16 1
vn 0 -1.22465e-16 1
f 96//96 91//91 95//95 
f 96//96 95//95 100//100 
f 94//94 99//99 100//100 
f 94//94 100//100 95//95 
f 92//92 96//96 97//97 
f 92//92 91//91 96//96 
f 93//93 97//97 98//98 
f 93//93 98//98 99//99 
f 93//93 99//99 94//94 
f 93//93 92//92 97//97 

g Face_6
v 0.1375 -0.1365 0.018200000000000008
v 0.13940211000000002 -0.13788196600000002 0.018200000000000008
v 0.13867557 -0.14011803 0.018200000000000008
v 0.13632443000000002 -0.14011803 0.018200000000000008
v 0.13559789 -0.13788196600000002 0.018200000000000008
v 0.1375 -0.1365 0.018200000000000008
v 0.1375 -0.1365 0.021500000000000005
v 0.13940211000000002 -0.13788196600000002 0.021500000000000005
v 0.13867557 -0.14011803 0.021500000000000005
v 0.13632443000000002 -0.14011803 0.021500000000000005
v 0.13559789 -0.13788196600000002 0.021500000000000005
v 0.1375 -0.1365 0.021500000000000005
vn 0 -1 -1.22465e-16
vn -0.951057 -0.309017 -3.78437e-17
vn -0.587785 0.809017 9.9076e-17
vn 0.587785 0.809017 9.9076e-17
vn 0.951057 -0.309017 -3.78437e-17
vn 2.44929e-16 -1 -1.22465e-16
vn 0 -1 -1.22465e-16
vn -0.951057 -0.309017 -3.78437e-17
vn -0.587785 0.809017 9.9076e-17
vn 0.587785 0.809017 9.9076e-17
vn 0.951057 -0.309017 -3.78437e-17
vn 2.44929e-16 -1 -1.22465e-16
f 102//102 107//107 101//101 
f 102//102 108//108 107//107 
f 103//103 109//109 108//108 
f 103//103 108//108 102//102 
f 104//104 110//110 109//109 
f 104//104 109//109 103//103 
f 105//105 111//111 110//110 
f 105//105 110//110 104//104 
f 106//106 112//112 111//111 
f 106//106 111//111 105//105 

g Face_7
v 0.1375 -0.136 -0.040499999999999994
v 0.13987764 -0.13772745800000002 -0.040499999999999994
v 0.13896946000000002 -0.14052254 -0.040499999999999994
v 0.13603054 -0.14052254 -0.040499999999999994
v 0.13512236000000002 -0.13772745800000002 -0.040499999999999994
v 0.1375 -0.136 -0.040499999999999994
v 0.1375 -0.1365 0.018200000000000008
v 0.1375 -0.13645833000000002 0.013308300000000009
v 0.1375 -0.13641667000000002 0.008416700000000006
v 0.1375 -0.13637500000000002 0.0035250000000000073
v 0.1375 -0.13633333 -0.0013666999999999915
v 0.1375 -0.13629167 -0.006258299999999994
v 0.1375 -0.13625 -0.011149999999999993
v 0.1375 -0.13620833000000002 -0.016041699999999996
v 0.1375 -0.13616667000000002 -0.020933299999999995
v 0.1375 -0.13612500000000002 -0.025824999999999994
v 0.1375 -0.13608333 -0.030716669999999995
v 0.1375 -0.13604167 -0.035608329999999994
v 0.13940211000000002 -0.13788196600000002 0.018200000000000008
v 0.13867557 -0.14011803 0.018200000000000008
v 0.13632443000000002 -0.14011803 0.018200000000000008
v 0.13559789 -0.13788196600000002 0.018200000000000008
v 0.1375 -0.1365 0.018200000000000008
v 0.1375 -0.13645833000000002 0.013308300000000009
v 0.1375 -0.13641667000000002 0.008416700000000006
v 0.1375 -0.13637500000000002 0.0035250000000000073
v 0.1375 -0.13633333 -0.0013666999999999915
v 0.1375 -0.13629167 -0.006258299999999994
v 0.1375 -0.13625 -0.011149999999999993
v 0.1375 -0.13620833000000002 -0.016041699999999996
v 0.1375 -0.13616667000000002 -0.020933299999999995
v 0.1375 -0.13612500000000002 -0.025824999999999994
v 0.1375 -0.13608333 -0.030716669999999995
v 0.1375 -0.13604167 -0.035608329999999994
v 0.13954167 -0.1385 0.013308300000000009
v 0.1375 -0.14054167 0.013308300000000009
v 0.13958333 -0.1385 0.008416700000000006
v 0.13545833000000002 -0.1385 0.013308300000000009
v 0.1375 -0.14058333 0.008416700000000006
v 0.139625 -0.1385 0.0035250000000000073
v 0.13541667000000002 -0.1385 0.008416700000000006
v 0.1375 -0.140625 0.0035250000000000073
v 0.13966667000000002 -0.1385 -0.0013666999999999915
v 0.13537500000000002 -0.1385 0.0035250000000000073
v 0.1375 -0.14066667000000002 -0.0013666999999999915
v 0.13970833000000002 -0.1385 -0.006258299999999994
v 0.13533333 -0.1385 -0.0013666999999999915
v 0.1375 -0.14070833000000002 -0.006258299999999994
v 0.13975 -0.1385 -0.011149999999999993
v 0.13529167 -0.1385 -0.006258299999999994
v 0.1375 -0.14075000000000001 -0.011149999999999993
v 0.13979167 -0.1385 -0.016041699999999996
v 0.13525 -0.1385 -0.011149999999999993
v 0.1375 -0.14079167 -0.016041699999999996
v 0.13983333 -0.1385 -0.020933299999999995
v 0.13520833000000002 -0.1385 -0.016041699999999996
v 0.1375 -0.14083333 -0.020933299999999995
v 0.139875 -0.1385 -0.025824999999999994
v 0.13516667000000002 -0.1385 -0.020933299999999995
v 0.1375 -0.140875 -0.025824999999999994
v 0.13991667000000002 -0.1385 -0.030716669999999995
v 0.13512500000000002 -0.1385 -0.025824999999999994
v 0.1375 -0.14091667000000002 -0.030716669999999995
v 0.13995833000000002 -0.1385 -0.035608329999999994
v 0.13508333 -0.1385 -0.030716669999999995
v 0.1375 -0.14095833000000002 -0.035608329999999994
v 0.13504167 -0.1385 -0.035608329999999994
vn 0 -0.999964 -0.00851758
vn -0.951022 -0.309006 -0.00851758
vn -0.587764 0.808988 -0.00851758
vn 0.587764 0.808988 -0.00851758
vn 0.951022 -0.309006 -0.00851758
vn 2.4492e-16 -0.999964 -0.00851758
vn 0 -0.999964 -0.00851758
vn 0 -0.999964 -0.00851758
vn 0 -0.999964 -0.00851758
vn 0 -0.999964 -0.00851758
vn 0 -0.999964 -0.00851758
vn 0 -0.999964 -0.00851758
vn 0 -0.999964 -0.00851758
vn 0 -0.999964 -0.00851758
vn 0 -0.999964 -0.00851758
vn 0 -0.999964 -0.00851758
vn 0 -0.999964 -0.00851758
vn 0 -0.999964 -0.00851758
vn -0.951022 -0.309006 -0.00851758
vn -0.587764 0.808988 -0.00851758
vn 0.587764 0.808988 -0.00851758
vn 0.951022 -0.309006 -0.00851758
vn 2.4492e-16 -0.999964 -0.00851758
vn 2.4492e-16 -0.999964 -0.00851758
vn 2.4492e-16 -0.999964 -0.00851758
vn 2.4492e-16 -0.999964 -0.00851758
vn 2.4492e-16 -0.999964 -0.00851758
vn 2.4492e-16 -0.999964 -0.00851758
vn 2.4492e-16 -0.999964 -0.00851758
vn 2.4492e-16 -0.999964 -0.00851758
vn 2.4492e-16 -0.999964 -0.00851758
vn 2.4492e-16 -0.999964 -0.00851758
vn 2.4492e-16 -0.999964 -0.00851758
vn 2.4492e-16 -0.999964 -0.00851758
vn -0.999964 -6.0187e-17 -0.00851758
vn -1.2246e-16 0.999964 -0.00851758
vn -0.999964 -6.0187e-17 -0.00851758
vn 0.999964 1.84733e-16 -0.00851758
vn -1.2246e-16 0.999964 -0.00851758
vn -0.999964 -6.0187e-17 -0.00851758
vn 0.999964 1.84733e-16 -0.00851758
vn -1.2246e-16 0.999964 -0.00851758
vn -0.999964 -6.0187e-17 -0.00851758
vn 0.999964 1.84733e-16 -0.00851758
vn -1.2246e-16 0.999964 -0.00851758
vn -0.999964 -6.0187e-17 -0.00851758
vn 0.999964 1.84733e-16 -0.00851758
vn -1.2246e-16 0.999964 -0.00851758
vn -0.999964 -6.0187e-17 -0.00851758
vn 0.999964 1.84733e-16 -0.00851758
vn -1.2246e-16 0.999964 -0.00851758
vn -0.999964 -6.0187e-17 -0.00851758
vn 0.999964 1.84733e-16 -0.00851758
vn -1.2246e-16 0.999964 -0.00851758
vn -0.999964 -6.0187e-17 -0.00851758
vn 0.999964 1.84733e-16 -0.00851758
vn -1.2246e-16 0.999964 -0.00851758
vn -0.999964 -6.0187e-17 -0.00851758
vn 0.999964 1.84733e-16 -0.00851758
vn -1.2246e-16 0.999964 -0.00851758
vn -0.999964 -6.0187e-17 -0.00851758
vn 0.999964 1.84733e-16 -0.00851758
vn -1.2246e-16 0.999964 -0.00851758
vn -0.999964 -6.0187e-17 -0.00851758
vn 0.999964 1.84733e-16 -0.00851758
vn -1.2246e-16 0.999964 -0.00851758
vn 0.999964 1.84733e-16 -0.00851758
f 120//120 131//131 119//119 
f 136//136 135//135 134//134 
f 114//114 130//130 113//113 
f 118//118 146//146 117//117 
f 147//147 132//132 131//131 
f 147//147 131//131 120//120 
f 148//148 132//132 147//147 
f 148//148 133//133 132//132 
f 149//149 120//120 121//121 
f 149//149 147//147 120//120 
f 150//150 134//134 133//133 
f 150//150 136//136 134//134 
f 150//150 133//133 148//148 
f 151//151 148//148 147//147 
f 151//151 147//147 149//149 
f 152//152 121//121 122//122 
f 152//152 149//149 121//121 
f 153//153 137//137 136//136 
f 153//153 148//148 151//151 
f 153//153 136//136 150//150 
f 153//153 150//150 148//148 
f 154//154 151//151 149//149 
f 154//154 149//149 152//152 
f 155//155 122//122 123//123 
f 155//155 152//152 122//122 
f 156//156 138//138 137//137 
f 156//156 137//137 153//153 
f 156//156 153//153 151//151 
f 156//156 151//151 154//154 
f 157//157 152//152 155//155 
f 157//157 154//154 152//152 
f 158//158 123//123 124//124 
f 158//158 155//155 123//123 
f 159//159 139//139 138//138 
f 159//159 138//138 156//156 
f 159//159 154//154 157//157 
f 159//159 156//156 154//154 
f 160//160 157//157 155//155 
f 160//160 155//155 158//158 
f 161//161 124//124 125//125 
f 161//161 158//158 124//124 
f 162//162 157//157 160//160 
f 162//162 140//140 139//139 
f 162//162 139//139 159//159 
f 162//162 159//159 157//157 
f 163//163 158//158 161//161 
f 163//163 160//160 158//158 
f 164//164 125//125 126//126 
f 164//164 161//161 125//125 
f 165//165 162//162 160//160 
f 165//165 160//160 163//163 
f 165//165 140//140 162//162 
f 165//165 141//141 140//140 
f 166//166 161//161 164//164 
f 166//166 163//163 161//161 
f 167//167 126//126 127//127 
f 167//167 164//164 126//126 
f 168//168 141//141 165//165 
f 168//168 163//163 166//166 
f 168//168 142//142 141//141 
f 168//168 165//165 163//163 
f 169//169 164//164 167//167 
f 169//169 166//166 164//164 
f 170//170 127//127 128//128 
f 170//170 167//167 127//127 
f 171//171 143//143 142//142 
f 171//171 142//142 168//168 
f 171//171 166//166 169//169 
f 171//171 168//168 166//166 
f 172//172 167//167 170//170 
f 172//172 169//169 167//167 
f 173//173 128//128 129//129 
f 173//173 170//170 128//128 
f 174//174 144//144 143//143 
f 174//174 171//171 169//169 
f 174//174 143//143 171//171 
f 174//174 169//169 172//172 
f 175//175 170//170 173//173 
f 175//175 172//172 170//170 
f 176//176 114//114 115//115 
f 176//176 129//129 130//130 
f 176//176 173//173 129//129 
f 176//176 130//130 114//114 
f 177//177 145//145 144//144 
f 177//177 144//144 174//174 
f 177//177 174//174 172//172 
f 177//177 172//172 175//175 
f 178//178 115//115 116//116 
f 178//178 176//176 115//115 
f 178//178 175//175 173//173 
f 178//178 173//173 176//176 
f 179//179 117//117 146//146 
f 179//179 116//116 117//117 
f 179//179 146//146 145//145 
f 179//179 145//145 177//177 
f 179//179 178//178 116//116 
f 179//179 177//177 175//175 
f 179//179 175//175 178//178 

