mtllib Pont_sautoir_limacon_heures.mtl
usemtl Pont_sautoir_limacon_heures
#Wavefront export of shape 1-8-2--Pont_sautoir_limacon_heures

g Face_1
v 0.05815031975 -0.28820396424999994 -0.026999999999999996
v 0.060321452034152 -0.282056421122588 -0.026999999999999996
v 0.06153106075 -0.28910983074999996 -0.026999999999999996
v 0.06321338424999999 -0.28283131175 -0.026999999999999996
vn -0 0 1
vn -0 0 1
vn -0 0 1
vn -0 0 1
f 2//2 1//1 3//3 
f 4//4 2//2 3//3 

g Face_2
v 0.06321338424999999 -0.28283131175 -0.040499999999999994
v 0.055968939249999995 -0.28089016925 -0.040499999999999994
v 0.054286615749999996 -0.28716868824999997 -0.040499999999999994
v 0.06153106075 -0.28910983074999996 -0.040499999999999994
v 0.057512562749999996 -0.28285669625 -0.040499999999999994
v 0.06089330375 -0.28376256275 -0.040499999999999994
v 0.05998743725 -0.28714330374999997 -0.040499999999999994
v 0.05660669624999999 -0.28623743724999995 -0.040499999999999994
vn 0 -0 -1
vn 0 -0 -1
vn 0 -0 -1
vn 0 -0 -1
vn 0 -0 -1
vn 0 -0 -1
vn 0 -0 -1
vn 0 -0 -1
f 9//9 7//7 6//6 
f 9//9 12//12 7//7 
f 8//8 12//12 11//11 
f 8//8 7//7 12//12 
f 5//5 11//11 10//10 
f 5//5 8//8 11//11 
f 5//5 9//9 6//6 
f 5//5 10//10 9//9 

g Face_3
v 0.06153106075 -0.28910983074999996 -0.026999999999999996
v 0.06153106075 -0.28910983074999996 -0.040499999999999994
v 0.06321338424999999 -0.28283131175 -0.026999999999999996
v 0.06321338424999999 -0.28283131175 -0.040499999999999994
vn 0.965926 -0.258819 -0
vn 0.965926 -0.258819 -0
vn 0.965926 -0.258819 -0
vn 0.965926 -0.258819 -0
f 13//13 16//16 15//15 
f 13//13 14//14 16//16 

g Face_4
v 0.058383754249999996 -0.28153721675 -0.030999999999999993
v 0.058383754249999996 -0.28153721675 -0.026999999999999996
v 0.055968939249999995 -0.28089016925 -0.026999999999999996
v 0.055968939249999995 -0.28089016925 -0.040499999999999994
v 0.06321338424999999 -0.28283131175 -0.040499999999999994
v 0.06321338424999999 -0.28283131175 -0.026999999999999996
v 0.060321452034152 -0.282056421122588 -0.026999999999999996
v 0.060321452034152 -0.282056421122588 -0.030999999999999993
vn 0.258819 0.965926 -0
vn 0.258819 0.965926 -0
vn 0.258819 0.965926 -0
vn 0.258819 0.965926 -0
vn 0.258819 0.965926 -0
vn 0.258819 0.965926 -0
vn 0.258819 0.965926 -0
vn 0.258819 0.965926 -0
f 17//17 19//19 18//18 
f 24//24 23//23 22//22 
f 20//20 17//17 24//24 
f 20//20 19//19 17//17 
f 21//21 20//20 24//24 
f 21//21 24//24 22//22 

g Face_5
v 0.055968939249999995 -0.28089016925 -0.026999999999999996
v 0.055968939249999995 -0.28089016925 -0.040499999999999994
v 0.054286615749999996 -0.28716868824999997 -0.026999999999999996
v 0.054286615749999996 -0.28716868824999997 -0.040499999999999994
vn -0.965926 0.258819 -0
vn -0.965926 0.258819 -0
vn -0.965926 0.258819 -0
vn -0.965926 0.258819 -0
f 25//25 28//28 27//27 
f 25//25 26//26 28//28 

g Face_6
v 0.06153106075 -0.28910983074999996 -0.026999999999999996
v 0.06153106075 -0.28910983074999996 -0.040499999999999994
v 0.054286615749999996 -0.28716868824999997 -0.040499999999999994
v 0.054286615749999996 -0.28716868824999997 -0.026999999999999996
v 0.056212623897699994 -0.28768476039505 -0.026999999999999996
v 0.056212623897699994 -0.28768476039505 -0.030999999999999993
v 0.05815031975 -0.28820396424999994 -0.030999999999999993
v 0.05815031975 -0.28820396424999994 -0.026999999999999996
vn -0.258819 -0.965926 0
vn -0.258819 -0.965926 0
vn -0.258819 -0.965926 0
vn -0.258819 -0.965926 0
vn -0.258819 -0.965926 0
vn -0.258819 -0.965926 0
vn -0.258819 -0.965926 0
vn -0.258819 -0.965926 0
f 32//32 31//31 34//34 
f 35//35 31//31 30//30 
f 35//35 34//34 31//31 
f 33//33 32//32 34//34 
f 29//29 36//36 35//35 
f 29//29 35//35 30//30 

g Face_7
v 0.058383754249999996 -0.28153721675 -0.026999999999999996
v 0.056212623897699994 -0.28768476039505 -0.026999999999999996
v 0.055968939249999995 -0.28089016925 -0.026999999999999996
v 0.054286615749999996 -0.28716868824999997 -0.026999999999999996
vn -0 0 1
vn -0 0 1
vn -0 0 1
vn -0 0 1
f 39//39 40//40 38//38 
f 37//37 39//39 38//38 

g Face_8
v 0.05660669624999999 -0.28623743724999995 -0.040499999999999994
v 0.057512562749999996 -0.28285669625 -0.040499999999999994
v 0.05660669624999999 -0.28623743724999995 -0.04649999999999999
v 0.057512562749999996 -0.28285669625 -0.04649999999999999
vn -0.965926 0.258819 -0
vn -0.965926 0.258819 -0
vn -0.965926 0.258819 -0
vn -0.965926 0.258819 -0
f 44//44 41//41 42//42 
f 44//44 43//43 41//41 

g Face_9
v 0.05998743725 -0.28714330374999997 -0.040499999999999994
v 0.05660669624999999 -0.28623743724999995 -0.040499999999999994
v 0.05998743725 -0.28714330374999997 -0.04649999999999999
v 0.05660669624999999 -0.28623743724999995 -0.04649999999999999
vn -0.258819 -0.965926 0
vn -0.258819 -0.965926 0
vn -0.258819 -0.965926 0
vn -0.258819 -0.965926 0
f 46//46 47//47 45//45 
f 46//46 48//48 47//47 

g Face_10
v 0.06089330375 -0.28376256275 -0.040499999999999994
v 0.05998743725 -0.28714330374999997 -0.040499999999999994
v 0.06089330375 -0.28376256275 -0.04649999999999999
v 0.05998743725 -0.28714330374999997 -0.04649999999999999
vn 0.965926 -0.258819 -0
vn 0.965926 -0.258819 -0
vn 0.965926 -0.258819 -0
vn 0.965926 -0.258819 -0
f 50//50 51//51 49//49 
f 50//50 52//52 51//51 

g Face_11
v 0.057512562749999996 -0.28285669625 -0.040499999999999994
v 0.06089330375 -0.28376256275 -0.040499999999999994
v 0.057512562749999996 -0.28285669625 -0.04649999999999999
v 0.06089330375 -0.28376256275 -0.04649999999999999
vn 0.258819 0.965926 -0
vn 0.258819 0.965926 -0
vn 0.258819 0.965926 -0
vn 0.258819 0.965926 -0
f 54//54 55//55 53//53 
f 54//54 56//56 55//55 

g Face_12
v 0.06113825275 -0.28362114135 -0.04649999999999999
v 0.06012885864999999 -0.28738825274999996 -0.04649999999999999
v 0.05636174725 -0.28637885864999996 -0.04649999999999999
v 0.05737114135 -0.28261174725 -0.04649999999999999
v 0.05998743725 -0.28714330374999997 -0.04649999999999999
v 0.06089330375 -0.28376256275 -0.04649999999999999
v 0.057512562749999996 -0.28285669625 -0.04649999999999999
v 0.05660669624999999 -0.28623743724999995 -0.04649999999999999
vn -0 -0 1
vn -0 -0 1
vn -0 -0 1
vn -0 -0 1
vn -0 -0 1
vn -0 -0 1
vn -0 -0 1
vn -0 -0 1
f 62//62 58//58 57//57 
f 62//62 61//61 58//58 
f 64//64 59//59 58//58 
f 64//64 58//58 61//61 
f 60//60 64//64 63//63 
f 60//60 59//59 64//64 
f 60//60 62//62 57//57 
f 60//60 63//63 62//62 

g Face_13
v 0.05737114135 -0.28261174725 -0.04699999999999999
v 0.05737114135 -0.28261174725 -0.04649999999999999
v 0.06113825275 -0.28362114135 -0.04699999999999999
v 0.06113825275 -0.28362114135 -0.04649999999999999
vn 0.258819 0.965926 -0
vn 0.258819 0.965926 -0
vn 0.258819 0.965926 -0
vn 0.258819 0.965926 -0
f 68//68 65//65 66//66 
f 68//68 67//67 65//65 

g Face_14
v 0.06113825275 -0.28362114135 -0.04699999999999999
v 0.06113825275 -0.28362114135 -0.04649999999999999
v 0.06012885864999999 -0.28738825274999996 -0.04699999999999999
v 0.06012885864999999 -0.28738825274999996 -0.04649999999999999
vn 0.965926 -0.258819 -0
vn 0.965926 -0.258819 -0
vn 0.965926 -0.258819 -0
vn 0.965926 -0.258819 -0
f 72//72 69//69 70//70 
f 72//72 71//71 69//69 

g Face_15
v 0.06012885864999999 -0.28738825274999996 -0.04699999999999999
v 0.06012885864999999 -0.28738825274999996 -0.04649999999999999
v 0.05636174725 -0.28637885864999996 -0.04699999999999999
v 0.05636174725 -0.28637885864999996 -0.04649999999999999
vn -0.258819 -0.965926 0
vn -0.258819 -0.965926 0
vn -0.258819 -0.965926 0
vn -0.258819 -0.965926 0
f 76//76 73//73 74//74 
f 76//76 75//75 73//73 

g Face_16
v 0.05636174725 -0.28637885864999996 -0.04699999999999999
v 0.05636174725 -0.28637885864999996 -0.04649999999999999
v 0.05737114135 -0.28261174725 -0.04699999999999999
v 0.05737114135 -0.28261174725 -0.04649999999999999
vn -0.965926 0.258819 -0
vn -0.965926 0.258819 -0
vn -0.965926 0.258819 -0
vn -0.965926 0.258819 -0
f 79//79 77//77 78//78 
f 79//79 78//78 80//80 

g Face_17
v 0.05737114135 -0.28261174725 -0.04699999999999999
v 0.06113825275 -0.28362114135 -0.04699999999999999
v 0.06012885864999999 -0.28738825274999996 -0.04699999999999999
v 0.05636174725 -0.28637885864999996 -0.04699999999999999
vn 0 0 -1
vn 0 0 -1
vn 0 0 -1
vn 0 0 -1
f 81//81 82//82 83//83 
f 81//81 83//83 84//84 

g Face_18
v 0.05815031975 -0.28820396424999994 -0.030999999999999993
v 0.05815031975 -0.28820396424999994 -0.026999999999999996
v 0.060321452034152 -0.282056421122588 -0.030999999999999993
v 0.060321452034152 -0.282056421122588 -0.026999999999999996
vn -0.942922 0.333013 -0
vn -0.942922 0.333013 -0
vn -0.942922 0.333013 -0
vn -0.942922 0.333013 -0
f 88//88 85//85 86//86 
f 88//88 87//87 85//85 

g Face_19
v 0.058383754249999996 -0.28153721675 -0.030999999999999993
v 0.058383754249999996 -0.28153721675 -0.026999999999999996
v 0.056212623897699994 -0.28768476039505 -0.030999999999999993
v 0.056212623897699994 -0.28768476039505 -0.026999999999999996
vn 0.942922 -0.333013 -0
vn 0.942922 -0.333013 -0
vn 0.942922 -0.333013 -0
vn 0.942922 -0.333013 -0
f 92//92 89//89 90//90 
f 92//92 91//91 89//89 

g Face_20
v 0.060321452034152 -0.282056421122588 -0.030999999999999993
v 0.058383754249999996 -0.28153721675 -0.030999999999999993
v 0.056212623897699994 -0.28768476039505 -0.030999999999999993
v 0.05815031975 -0.28820396424999994 -0.030999999999999993
vn -0 0 1
vn -0 0 1
vn -0 0 1
vn -0 0 1
f 94//94 95//95 96//96 
f 93//93 94//94 96//96 

