mtllib Ressort_fil_Marteaux_Q.dessus_Heures.mtl
usemtl Ressort_fil_Marteaux_Q.dessus_Heures
#Wavefront export of shape 1-97--Ressort_fil_Marteaux_Q_dessus_Heures

g Face_1
v 0.23424999999999999 0.0089 -0.14675
v 0.23424999999999999 0.0089 -0.14125
v 0.23645 0.0089 -0.14675
v 0.23645 0.0089 -0.14125
vn -0 1 -0
vn -0 1 -0
vn -0 1 -0
vn -0 1 -0
f 3//3 1//1 2//2 
f 3//3 2//2 4//4 

g Face_2
v 0.23584085999999999 -0.236091 -0.14539096999999998
v 0.23548289 -0.236093 -0.144683499
v 0.23575241 -0.236099 -0.1439378488
v 0.236481017 -0.23610299999999998 -0.14362277999999998
v 0.23743848199999998 -0.23610399999999998 -0.14433423699999998
v 0.2370327168 -0.236096 -0.14545681
v 0.236653636 -0.236096 -0.14509202
v 0.23598834 -0.236096 -0.14453760899999998
vn -0.00440738 -0.999976 -0.00528886
vn -0.00440738 -0.999976 -0.00528886
vn -0.00440738 -0.999976 -0.00528886
vn -0.00440738 -0.999976 -0.00528886
vn -0.00440738 -0.999976 -0.00528886
vn -0.00440738 -0.999976 -0.00528886
vn -0.00440738 -0.999976 -0.00528886
vn -0.00440738 -0.999976 -0.00528886
f 12//12 6//6 5//5 
f 10//10 11//11 5//5 
f 7//7 6//6 12//12 
f 8//8 7//7 12//12 
f 9//9 12//12 11//11 
f 9//9 8//8 12//12 
f 9//9 11//11 10//10 

g Face_3
v 0.237 -0.0006 -0.143
v 0.23786602499999998 -0.0006 -0.1445
v 0.237 -0.0006 -0.145
v 0.236133975 -0.0006 -0.1445
v 0.237 -0.0006 -0.143
v 0.236481017 -0.23610299999999998 -0.14362277999999998
v 0.23584085999999999 -0.236091 -0.14539096999999998
v 0.23548289 -0.236093 -0.144683499
v 0.23575241 -0.236099 -0.1439378488
v 0.236481017 -0.23610299999999998 -0.14362277999999998
v 0.23743848199999998 -0.23610399999999998 -0.14433423699999998
v 0.2370327168 -0.236096 -0.14545681
v 0.236837253 -0.13247699999999998 -0.1451953
v 0.23795931299999998 -0.06653970000000001 -0.1440488247
v 0.237684247 -0.18429399999999999 -0.144378904
v 0.236389828 -0.0335693 -0.144812206
v 0.23598892999999999 -0.21018699999999998 -0.14529328
v 0.23637171099999998 -0.21018799999999999 -0.1454694
v 0.23787981 -0.0170844 -0.14447364
v 0.23751710999999998 -0.22315 -0.144752306
v 0.23624594 -0.00884239 -0.144658297
v 0.23584659 -0.22961499999999999 -0.14533794
v 0.236232149 -0.229616 -0.14554983
v 0.237821905 -0.00472107 -0.144569586
v 0.23746500699999998 -0.232863 -0.14484962099999998
v 0.23621131399999998 -0.0026606 -0.144614895
v 0.23619586499999998 -0.234473 -0.14557055
vn -0 -0 1
vn 0.866077 -0 -0.499911
vn -0 -0 -1
vn -0.866077 -0 -0.499911
vn -0 -0 1
vn -1.16552e-05 -0.00528886 0.999986
vn -0.640169 0.00688456 -0.768203
vn -0.998143 0.00472052 -0.0607337
vn -0.72871 -0.00041023 0.684822
vn -1.16552e-05 -0.00528886 0.999986
vn 0.957454 -0.00574599 0.288528
vn 0.551356 0.00198234 -0.834268
vn 3.65507e-06 0.00296178 -0.999996
vn 0.999999 -0.00123405 -8.13795e-07
vn 0.999994 -0.00343779 -7.02939e-06
vn -0.6 0.00096259 -0.799999
vn -0.599988 0.00611922 -0.799985
vn -0.217211 0.00544677 -0.976109
vn 0.882353 -9.80003e-05 -0.470588
vn 0.980568 -0.00310372 -0.196157
vn -0.753425 0.000237943 -0.657534
vn -0.662588 0.00669231 -0.748954
vn -0.27703 0.00612955 -0.960842
vn 0.822064 -1.07049e-05 -0.569395
vn 0.969805 -0.00294358 -0.243862
vn -0.788646 5.88685e-05 -0.614847
vn -0.292274 0.0063025 -0.956314
f 25//25 18//18 17//17 
f 26//26 13//13 22//22 
f 27//27 25//25 26//26 
f 27//27 26//26 22//22 
f 28//28 26//26 25//25 
f 28//28 25//25 17//17 
f 29//29 27//27 30//30 
f 29//29 25//25 27//27 
f 29//29 18//18 25//25 
f 31//31 26//26 28//28 
f 31//31 13//13 26//26 
f 32//32 30//30 27//27 
f 32//32 29//29 30//30 
f 32//32 27//27 22//22 
f 33//33 28//28 17//17 
f 33//33 31//31 28//28 
f 34//34 18//18 29//29 
f 34//34 29//29 32//32 
f 34//34 32//32 35//35 
f 36//36 14//14 13//13 
f 36//36 13//13 31//31 
f 36//36 31//31 33//33 
f 37//37 22//22 23//23 
f 37//37 23//23 24//24 
f 37//37 32//32 22//22 
f 37//37 35//35 32//32 
f 37//37 34//34 35//35 
f 38//38 15//15 14//14 
f 38//38 16//16 15//15 
f 38//38 17//17 16//16 
f 38//38 14//14 36//36 
f 38//38 33//33 17//17 
f 38//38 36//36 33//33 
f 39//39 19//19 20//20 
f 39//39 20//20 21//21 
f 39//39 21//21 18//18 
f 39//39 24//24 19//19 
f 39//39 18//18 34//34 
f 39//39 37//37 24//24 
f 39//39 34//34 37//37 

g Face_4
v 0.23582763999999998 -0.239091 -0.14540683999999998
v 0.23592433999999998 -0.239091 -0.14547005
v 0.23603296699999998 -0.239092 -0.14550938
v 0.23614772199999998 -0.239092 -0.14552273
v 0.23584085999999999 -0.236091 -0.14539096999999998
v 0.236653636 -0.236096 -0.14509202
v 0.23598834 -0.236096 -0.14453760899999998
v 0.23584085999999999 -0.236091 -0.14539096999999998
v 0.23582763999999998 -0.239091 -0.14540683999999998
v 0.236626549 -0.23909699999999998 -0.144878802
v 0.23587202 -0.239096 -0.144605614
vn -0.640169 0.00688456 -0.768203
vn -0.446765 0.00670078 -0.894626
vn -0.229509 0.00615926 -0.973287
vn 4.55525e-16 0.00528891 -0.999986
vn -0.640169 0.00688456 -0.768203
vn 0.985384 -0.00344228 -0.170314
vn -0.345215 -0.00344228 0.938517
vn -0.640169 0.00688456 -0.768203
vn -0.640169 0.00688456 -0.768203
vn 0.957654 -0.00574336 0.287864
vn -0.551399 -0.001982 0.834239
f 47//47 48//48 50//50 
f 46//46 50//50 49//49 
f 46//46 47//47 50//50 
f 45//45 49//49 43//43 
f 45//45 46//46 49//49 
f 44//44 41//41 40//40 
f 44//44 42//42 41//41 
f 44//44 43//43 42//42 
f 44//44 45//45 43//43 

g Face_5
v 0.23614772199999998 -0.239092 -0.14552273
v 0.236626549 -0.23909699999999998 -0.144878802
v 0.23587202 -0.239096 -0.144605614
v 0.23582763999999998 -0.239091 -0.14540683999999998
v 0.23592433999999998 -0.239091 -0.14547005
v 0.23603296699999998 -0.239092 -0.14550938
vn -0.00440738 -0.999976 -0.00528886
vn -0.00440738 -0.999976 -0.00528886
vn -0.00440738 -0.999976 -0.00528886
vn -0.00440738 -0.999976 -0.00528886
vn -0.00440738 -0.999976 -0.00528886
vn -0.00440738 -0.999976 -0.00528886
f 51//51 52//52 53//53 
f 51//51 53//53 54//54 
f 51//51 54//54 55//55 
f 51//51 55//55 56//56 

g Face_6
v 0.237 -0.0006 -0.14209999999999998
v 0.23519299 -0.0006 -0.143412868
v 0.23588320999999998 -0.0006 -0.14553713
v 0.23811679 -0.0006 -0.14553713
v 0.23880701 -0.0006 -0.143412868
v 0.237 -0.0006 -0.143
v 0.23786602499999998 -0.0006 -0.1445
v 0.236133975 -0.0006 -0.1445
vn -0 -1 -0
vn -0 -1 -0
vn -0 -1 -0
vn -0 -1 -0
vn -0 -1 -0
vn -0 -1 -0
vn -0 -1 -0
vn -0 -1 -0
f 58//58 59//59 64//64 
f 63//63 59//59 60//60 
f 63//63 64//64 59//59 
f 62//62 58//58 64//64 
f 57//57 58//58 62//62 
f 61//61 62//62 63//63 
f 61//61 57//57 62//62 
f 61//61 63//63 60//60 

g Face_7
v 0.237 -0.00024999999999999995 -0.14175
v 0.23913988 -0.00024999999999999995 -0.143304712
v 0.23832251999999998 -0.00024999999999999995 -0.14582029
v 0.23567748 -0.00024999999999999995 -0.14582029
v 0.23486011999999998 -0.00024999999999999995 -0.143304712
v 0.237 -0.00024999999999999995 -0.14175
v 0.237 0.0034000000000000002 -0.14175
v 0.237 0.0034000000000000002 -0.14175
v 0.23913988 0.0034000000000000002 -0.143304712
v 0.23832251999999998 0.0034000000000000002 -0.14582029
v 0.23567748 0.0034000000000000002 -0.14582029
v 0.23486011999999998 0.0034000000000000002 -0.143304712
vn 3.67394e-16 -0 1
vn 0.951057 -0 0.309017
vn 0.587785 0 -0.809017
vn -0.587785 0 -0.809017
vn -0.951057 0 0.309017
vn 1.22465e-16 -0 1
vn 1.22465e-16 -0 1
vn 3.67394e-16 -0 1
vn 0.951057 -0 0.309017
vn 0.587785 0 -0.809017
vn -0.587785 0 -0.809017
vn -0.951057 0 0.309017
f 69//69 70//70 71//71 
f 69//69 71//71 76//76 
f 68//68 76//76 75//75 
f 68//68 69//69 76//76 
f 67//67 75//75 74//74 
f 67//67 68//68 75//75 
f 66//66 74//74 73//73 
f 66//66 67//67 74//74 
f 65//65 73//73 72//72 
f 65//65 66//66 73//73 

g Face_8
v 0.23424999999999999 0.0034000000000000002 -0.14675
v 0.23424999999999999 0.0034000000000000002 -0.14125
v 0.23975 0.0034000000000000002 -0.14675
v 0.23975 0.0034000000000000002 -0.14125
v 0.237 0.0034000000000000002 -0.14175
v 0.23913988 0.0034000000000000002 -0.143304712
v 0.23832251999999998 0.0034000000000000002 -0.14582029
v 0.23567748 0.0034000000000000002 -0.14582029
v 0.23486011999999998 0.0034000000000000002 -0.143304712
vn 0 -1 0
vn 0 -1 0
vn 0 -1 0
vn 0 -1 0
vn 0 -1 0
vn 0 -1 0
vn 0 -1 0
vn 0 -1 0
vn 0 -1 0
f 81//81 78//78 85//85 
f 77//77 85//85 78//78 
f 80//80 78//78 81//81 
f 84//84 85//85 77//77 
f 82//82 80//80 81//81 
f 79//79 82//82 83//83 
f 79//79 83//83 84//84 
f 79//79 84//84 77//77 
f 79//79 80//80 82//82 

g Face_9
v 0.23424999999999999 0.0089 -0.14675
v 0.23424999999999999 0.0034000000000000002 -0.14675
v 0.23424999999999999 0.0089 -0.14125
v 0.23424999999999999 0.0034000000000000002 -0.14125
vn -1 -0 1.57702e-16
vn -1 -0 1.57702e-16
vn -1 -0 1.57702e-16
vn -1 -0 1.57702e-16
f 86//86 89//89 88//88 
f 86//86 87//87 89//89 

g Face_10
v 0.23754999999999998 0.0089 -0.14125
v 0.23729999999999998 0.0074 -0.14125
v 0.23975 0.0089 -0.14125
v 0.23975 0.0034000000000000002 -0.14125
v 0.23424999999999999 0.0034000000000000002 -0.14125
v 0.23424999999999999 0.0089 -0.14125
v 0.23645 0.0089 -0.14125
v 0.2367 0.0074 -0.14125
vn 1.57702e-16 -0 1
vn 1.57702e-16 -0 1
vn 1.57702e-16 -0 1
vn 1.57702e-16 -0 1
vn 1.57702e-16 -0 1
vn 1.57702e-16 -0 1
vn 1.57702e-16 -0 1
vn 1.57702e-16 -0 1
f 91//91 93//93 92//92 
f 97//97 94//94 93//93 
f 97//97 93//93 91//91 
f 90//90 91//91 92//92 
f 95//95 97//97 96//96 
f 95//95 94//94 97//97 

g Face_11
v 0.23975 0.0089 -0.14125
v 0.23975 0.0034000000000000002 -0.14125
v 0.23975 0.0089 -0.14675
v 0.23975 0.0034000000000000002 -0.14675
vn 1 -0 -1.57702e-16
vn 1 -0 -1.57702e-16
vn 1 -0 -1.57702e-16
vn 1 -0 -1.57702e-16
f 98//98 101//101 100//100 
f 98//98 99//99 101//101 

g Face_12
v 0.23424999999999999 0.0089 -0.14675
v 0.23424999999999999 0.0034000000000000002 -0.14675
v 0.23975 0.0034000000000000002 -0.14675
v 0.23975 0.0089 -0.14675
v 0.23754999999999998 0.0089 -0.14675
v 0.23729999999999998 0.0074 -0.14675
v 0.2367 0.0074 -0.14675
v 0.23645 0.0089 -0.14675
vn -1.57702e-16 0 -1
vn -1.57702e-16 0 -1
vn -1.57702e-16 0 -1
vn -1.57702e-16 0 -1
vn -1.57702e-16 0 -1
vn -1.57702e-16 0 -1
vn -1.57702e-16 0 -1
vn -1.57702e-16 0 -1
f 108//108 103//103 102//102 
f 107//107 104//104 103//103 
f 107//107 103//103 108//108 
f 109//109 108//108 102//102 
f 105//105 107//107 106//106 
f 105//105 104//104 107//107 

g Face_13
v 0.23975 0.0089 -0.14125
v 0.23975 0.0089 -0.14675
v 0.23754999999999998 0.0089 -0.14125
v 0.23754999999999998 0.0089 -0.14675
vn -0 1 -0
vn -0 1 -0
vn -0 1 -0
vn -0 1 -0
f 111//111 112//112 110//110 
f 111//111 113//113 112//112 

g Face_14
v 0.237 -0.0006 -0.14209999999999998
v 0.23519299 -0.0006 -0.143412868
v 0.23588320999999998 -0.0006 -0.14553713
v 0.23811679 -0.0006 -0.14553713
v 0.23880701 -0.0006 -0.143412868
v 0.237 -0.0006 -0.14209999999999998
v 0.237 -0.00024999999999999995 -0.14175
v 0.237 -0.00024999999999999995 -0.14175
v 0.23913988 -0.00024999999999999995 -0.143304712
v 0.23832251999999998 -0.00024999999999999995 -0.14582029
v 0.23567748 -0.00024999999999999995 -0.14582029
v 0.23486011999999998 -0.00024999999999999995 -0.143304712
vn -1.73191e-16 -0.707107 0.707107
vn -0.672499 -0.707107 0.218508
vn -0.415627 -0.707107 -0.572061
vn 0.415627 -0.707107 -0.572061
vn 0.672499 -0.707107 0.218508
vn 0 -0.707107 0.707107
vn -1.73191e-16 -0.707107 0.707107
vn 0 -0.707107 0.707107
vn 0.672499 -0.707107 0.218508
vn 0.415627 -0.707107 -0.572061
vn -0.415627 -0.707107 -0.572061
vn -0.672499 -0.707107 0.218508
f 122//122 119//119 118//118 
f 122//122 121//121 119//119 
f 123//123 118//118 117//117 
f 123//123 122//122 118//118 
f 124//124 117//117 116//116 
f 124//124 123//123 117//117 
f 125//125 116//116 115//115 
f 125//125 124//124 116//116 
f 120//120 115//115 114//114 
f 120//120 125//125 115//115 

g Face_15
v 0.2367 0.0074 -0.14125
v 0.2367 0.0074 -0.14675
v 0.23645 0.0089 -0.14125
v 0.23645 0.0089 -0.14675
vn 0.986394 0.164399 -1.55556e-16
vn 0.986394 0.164399 -1.55556e-16
vn 0.986394 0.164399 -1.55556e-16
vn 0.986394 0.164399 -1.55556e-16
f 126//126 129//129 128//128 
f 126//126 127//127 129//129 

g Face_16
v 0.23729999999999998 0.0074 -0.14125
v 0.23729999999999998 0.0074 -0.14675
v 0.2367 0.0074 -0.14125
v 0.2367 0.0074 -0.14675
vn -0 1 -0
vn -0 1 -0
vn -0 1 -0
vn -0 1 -0
f 131//131 132//132 130//130 
f 131//131 133//133 132//132 

g Face_17
v 0.23754999999999998 0.0089 -0.14125
v 0.23754999999999998 0.0089 -0.14675
v 0.23729999999999998 0.0074 -0.14125
v 0.23729999999999998 0.0074 -0.14675
vn -0.986394 0.164399 1.55556e-16
vn -0.986394 0.164399 1.55556e-16
vn -0.986394 0.164399 1.55556e-16
vn -0.986394 0.164399 1.55556e-16
f 134//134 137//137 136//136 
f 134//134 135//135 137//137 

