mtllib Ressort_barillet_Mouvement.mtl
usemtl Ressort_barillet_Mouvement
#Wavefront export of shape 1-19--Ressort_barillet_Mouvement

g Face_1
v 0.10758674522608001 -0.23685330229844 -0.11220000000000005
v 0.10785184874950002 -0.23662298270267001 -0.11220000000000005
v 0.10818487553371 -0.23651166852878 -0.11220000000000005
v 0.10853521260055 -0.23653628100389001 -0.11220000000000004
v 0.10853521260055 -0.23653628100389001 -0.11420000000000005
v 0.10758674522608001 -0.23685330229844 -0.11420000000000005
v 0.10785184874950002 -0.23662298270267001 -0.11420000000000005
v 0.10818487553371 -0.23651166852878 -0.11420000000000005
vn -0.790525 0.612429 -1.44183e-15
vn -0.495968 0.868341 -7.66992e-16
vn -0.125898 0.992043 2.46198e-17
vn 0.263341 0.964703 8.12483e-16
vn 0.263341 0.964703 8.12483e-16
vn -0.790525 0.612429 -1.44183e-15
vn -0.495968 0.868341 -7.66992e-16
vn -0.125898 0.992043 2.46198e-17
f 3//3 4//4 5//5 
f 3//3 5//5 8//8 
f 2//2 8//8 7//7 
f 2//2 3//3 8//8 
f 1//1 7//7 6//6 
f 1//1 2//2 7//7 

g Face_2
v 0.106008319125793 -0.22603610882630001 -0.11220000000000006
v 0.106334072492305 -0.2259050040479 -0.11220000000000006
v 0.10668519094204902 -0.22590855681569003 -0.11220000000000005
v 0.107008287917776 -0.22604624073455 -0.11220000000000004
v 0.107008287917776 -0.22604624073455 -0.11420000000000005
v 0.10600831912579302 -0.22603610882630001 -0.11420000000000005
v 0.106334072492305 -0.2259050040479 -0.11420000000000005
v 0.10668519094204902 -0.22590855681569003 -0.11420000000000005
vn -0.54714 0.837041 -8.80487e-16
vn -0.185153 0.98271 -9.91542e-17
vn 0.205025 0.978757 6.97276e-16
vn 0.563987 0.825783 1.38754e-15
vn 0.563987 0.825783 1.38754e-15
vn -0.54714 0.837041 -8.80487e-16
vn -0.185153 0.98271 -9.91542e-17
vn 0.205025 0.978757 6.97276e-16
f 11//11 12//12 13//13 
f 11//11 13//13 16//16 
f 10//10 16//16 15//15 
f 10//10 11//11 16//16 
f 9//9 15//15 14//14 
f 9//9 10//10 15//15 

g Face_3
v 0.10902210161545 -0.23793921132554 -0.11420000000000005
v 0.10910327947882001 -0.23815408540964 -0.11440000000000004
v 0.10876245501148002 -0.23817557013191 -0.11420000000000005
v 0.10843201863253002 -0.23829456153413 -0.11420000000000005
v 0.10808122887889002 -0.23827794187505 -0.11420000000000005
v 0.10816349061793 -0.23849623286129 -0.11440000000000006
v 0.10883183613313001 -0.23836643011061 -0.11440000000000004
v 0.10850793113035001 -0.23848433011547002 -0.11440000000000006
vn 0.568806 -0.420071 0.707107
vn 0.517525 -0.481838 0.707107
vn 0.364744 -0.605774 0.707107
vn 0.105147 -0.699245 0.707107
vn -0.170458 -0.686254 0.707107
vn -0.0865772 -0.701787 0.707107
vn 0.343019 -0.618335 0.707107
vn 0.134839 -0.694131 0.707107
f 18//18 17//17 19//19 
f 23//23 18//18 19//19 
f 24//24 19//19 20//20 
f 24//24 23//23 19//19 
f 22//22 20//20 21//21 
f 22//22 24//24 20//20 

g Face_4
v 0.10701032509995101 -0.2275312465637 -0.11420000000000005
v 0.10701678943555301 -0.2277608486549 -0.11440000000000006
v 0.10668768434792501 -0.22766981667968 -0.11420000000000005
v 0.10633650768657703 -0.22767433411916002 -0.11420000000000005
v 0.10601039393527603 -0.22754413997327 -0.11420000000000005
v 0.106016823528523 -0.22777730454950001 -0.11440000000000006
v 0.10669092707053902 -0.22787287887671 -0.11440000000000006
v 0.10634627145953801 -0.22787854384625 -0.11440000000000006
vn 0.400409 -0.582815 0.707107
vn 0.331766 -0.624445 0.707107
vn 0.146884 -0.691683 0.707107
vn -0.129005 -0.695239 0.707107
vn -0.385252 -0.592942 0.707107
vn -0.311045 -0.635021 0.707107
vn 0.122248 -0.696459 0.707107
vn -0.0992711 -0.700104 0.707107
f 26//26 25//25 27//27 
f 31//31 26//26 27//27 
f 32//32 27//27 28//28 
f 32//32 31//31 27//27 
f 30//30 28//28 29//29 
f 30//30 32//32 28//28 

g Face_5
v 0.10758674522608001 -0.23685330229844 -0.11220000000000005
v 0.10676467415500603 -0.23380535985317 -0.11220000000000005
v 0.10623767585593602 -0.23069280503747 -0.11220000000000005
v 0.10601039393527602 -0.22754413997327 -0.11220000000000006
v 0.10785184874950002 -0.23662298270267001 -0.11220000000000005
v 0.10818487553371 -0.23651166852878 -0.11220000000000005
v 0.10853521260055 -0.23653628100389001 -0.11220000000000004
v 0.10774072591503701 -0.23358775877450003 -0.11220000000000005
v 0.1072309485856 -0.23057694108406998 -0.11220000000000005
v 0.10701032509995101 -0.2275312465637 -0.11220000000000005
v 0.10668768434792501 -0.22766981667968 -0.11220000000000005
v 0.10633650768657701 -0.22767433411916002 -0.11220000000000005
vn 2.04408e-15 2.84226e-16 -1
vn 2.04408e-15 2.84226e-16 -1
vn 2.04408e-15 2.84226e-16 -1
vn 2.04408e-15 2.84226e-16 -1
vn 2.04408e-15 2.84226e-16 -1
vn 2.04408e-15 2.84226e-16 -1
vn 2.04408e-15 2.84226e-16 -1
vn 2.04408e-15 2.84226e-16 -1
vn 2.04408e-15 2.84226e-16 -1
vn 2.04408e-15 2.84226e-16 -1
vn 2.04408e-15 2.84226e-16 -1
vn 2.04408e-15 2.84226e-16 -1
f 34//34 37//37 33//33 
f 34//34 38//38 37//37 
f 40//40 39//39 38//38 
f 40//40 38//38 34//34 
f 35//35 40//40 34//34 
f 41//41 40//40 35//35 
f 44//44 35//35 36//36 
f 43//43 41//41 35//35 
f 43//43 35//35 44//44 
f 42//42 41//41 43//43 

g Face_6
v 0.107008287917776 -0.22604624073455 -0.11220000000000004
v 0.10922549504357201 -0.21501977825093002 -0.11220000000000005
v 0.11512008443617003 -0.20544107554742 -0.11220000000000004
v 0.12396426210499002 -0.19849280620667 -0.1122
v 0.13466608171876002 -0.195032927188826 -0.1122
v 0.13453042996633 -0.194042106828815 -0.1122
v 0.106008319125793 -0.22603610882630001 -0.11220000000000006
v 0.107515356652654 -0.21686047881836001 -0.11220000000000004
v 0.11152166672689001 -0.20846929828961 -0.11220000000000002
v 0.11770941219403 -0.20152836914846 -0.11220000000000001
v 0.12558737727181 -0.19658863182638 -0.1122
v 0.106334072492305 -0.2259050040479 -0.11220000000000006
v 0.10668519094204902 -0.22590855681569003 -0.11220000000000005
vn 2.04408e-15 2.84226e-16 -1
vn 2.04408e-15 2.84226e-16 -1
vn 2.04408e-15 2.84226e-16 -1
vn 2.04408e-15 2.84226e-16 -1
vn 2.04408e-15 2.84226e-16 -1
vn 2.04408e-15 2.84226e-16 -1
vn 2.04408e-15 2.84226e-16 -1
vn 2.04408e-15 2.84226e-16 -1
vn 2.04408e-15 2.84226e-16 -1
vn 2.04408e-15 2.84226e-16 -1
vn 2.04408e-15 2.84226e-16 -1
vn 2.04408e-15 2.84226e-16 -1
vn 2.04408e-15 2.84226e-16 -1
f 52//52 56//56 51//51 
f 52//52 57//57 56//56 
f 52//52 45//45 57//57 
f 46//46 45//45 52//52 
f 53//53 46//46 52//52 
f 47//47 46//46 53//53 
f 54//54 47//47 53//53 
f 48//48 47//47 54//54 
f 55//55 48//48 54//54 
f 49//49 48//48 55//55 
f 50//50 49//49 55//55 

g Face_7
v 0.13466608171876002 -0.195032927188826 -0.10919999999999999
v 0.13466608171876002 -0.195032927188826 -0.1122
v 0.107008287917776 -0.22604624073455 -0.11220000000000004
v 0.10922549504357201 -0.21501977825093002 -0.11220000000000005
v 0.11512008443617003 -0.20544107554742 -0.11220000000000004
v 0.12396426210499002 -0.19849280620667 -0.1122
v 0.107008287917776 -0.22604624073455 -0.11420000000000005
v 0.10701418004189203 -0.22581661907618 -0.11440000000000006
v 0.107001860912458 -0.22646466677024002 -0.11440000000000006
v 0.107002789568737 -0.22711282920422002 -0.11440000000000006
v 0.10701678943555301 -0.2277608486549 -0.11440000000000006
v 0.10701032509995101 -0.2275312465637 -0.11420000000000005
v 0.10701032509995101 -0.2275312465637 -0.11220000000000005
v 0.10853521260055 -0.23653628100389001 -0.11220000000000004
v 0.10774072591503701 -0.23358775877450003 -0.11220000000000005
v 0.1072309485856 -0.23057694108406998 -0.11220000000000005
v 0.10853521260055 -0.23653628100389001 -0.11420000000000005
v 0.10846566422569001 -0.23631738136691002 -0.11440000000000006
v 0.10866584494219002 -0.23693390771663 -0.11440000000000006
v 0.10887838022923002 -0.23754617558354 -0.11440000000000004
v 0.10910327947882001 -0.23815408540964 -0.11440000000000004
v 0.10902210161545 -0.23793921132554 -0.11420000000000005
v 0.10902210161544999 -0.23793921132554 -0.10920000000000005
v 0.10705565115436301 -0.22862019731684 -0.10920000000000006
v 0.10791840127277802 -0.21913514800865 -0.10920000000000006
v 0.11153384191237 -0.21032383982024003 -0.10920000000000005
v 0.11758198350165999 -0.20296645813928 -0.10920000000000002
v 0.12552717384316 -0.19771445423696002 -0.1092
vn 0.135661 -0.990755 -4.29654e-18
vn 0.135661 -0.990755 -4.29654e-18
vn 0.999762 -0.0218187 2.03739e-15
vn 0.930491 -0.366314 1.79788e-15
vn 0.746328 -0.665578 1.33638e-15
vn 0.470012 -0.88266 7.09866e-16
vn 0.999762 -0.0218187 2.03739e-15
vn 0.99958 -0.0289927 2.03498e-15
vn 0.999962 -0.00874586 2.04151e-15
vn 0.999934 0.0115046 2.04721e-15
vn 0.999496 0.0317503 2.05207e-15
vn 0.999698 0.0245768 2.05044e-15
vn 0.999698 0.0245768 2.05044e-15
vn 0.952058 0.305918 2.03303e-15
vn 0.976878 0.213798 2.05758e-15
vn 0.992806 0.119732 2.0634e-15
vn 0.952058 0.305918 2.03303e-15
vn 0.954229 0.299077 2.03552e-15
vn 0.947977 0.318339 2.02822e-15
vn 0.941336 0.337469 2.02008e-15
vn 0.93431 0.356462 2.01112e-15
vn 0.936844 0.349748 2.01439e-15
vn 0.936844 0.349748 2.01439e-15
vn 0.998282 0.0585986 2.05722e-15
vn 0.971329 -0.237739 1.9179e-15
vn 0.858373 -0.513026 1.60876e-15
vn 0.669414 -0.742889 1.15718e-15
vn 0.421184 -0.906975 6.03146e-16
f 72//72 81//81 80//80 
f 72//72 80//80 71//71 
f 79//79 71//71 80//80 
f 77//77 79//79 78//78 
f 73//73 81//81 72//72 
f 74//74 71//71 79//79 
f 76//76 79//79 77//77 
f 76//76 74//74 79//79 
f 75//75 74//74 76//76 
f 70//70 81//81 73//73 
f 60//60 82//82 81//81 
f 60//60 81//81 70//70 
f 67//67 69//69 68//68 
f 64//64 70//70 69//69 
f 64//64 60//60 70//70 
f 66//66 69//69 67//67 
f 66//66 64//64 69//69 
f 65//65 64//64 66//66 
f 61//61 83//83 82//82 
f 61//61 82//82 60//60 
f 62//62 84//84 83//83 
f 62//62 83//83 61//61 
f 63//63 85//85 84//84 
f 63//63 84//84 62//62 
f 59//59 58//58 85//85 
f 59//59 85//85 63//63 

g Face_8
v 0.13453042996633 -0.194042106828815 -0.1122
v 0.13466608171876002 -0.195032927188826 -0.1122
v 0.13453042996633 -0.194042106828815 -0.10919999999999999
v 0.13466608171876002 -0.195032927188826 -0.10919999999999999
vn 0.990755 0.135661 2.06374e-15
vn 0.990755 0.135661 2.06374e-15
vn 0.990755 0.135661 2.06374e-15
vn 0.990755 0.135661 2.06374e-15
f 88//88 87//87 86//86 
f 88//88 89//89 87//87 

g Face_9
v 0.10758674522608001 -0.23685330229844 -0.11220000000000005
v 0.10676467415500603 -0.23380535985317 -0.11220000000000005
v 0.10623767585593602 -0.23069280503747 -0.11220000000000005
v 0.10601039393527602 -0.22754413997327 -0.11220000000000006
v 0.10758674522608001 -0.23685330229844 -0.11420000000000005
v 0.10751600402554001 -0.23663107592531 -0.11440000000000006
v 0.10816349061793 -0.23849623286129 -0.11440000000000006
v 0.10793526460525 -0.23787886879277 -0.11440000000000006
v 0.10771941194713001 -0.23725704712544 -0.11440000000000006
v 0.10808122887889002 -0.23827794187505 -0.11420000000000005
v 0.10808122887889 -0.23827794187505 -0.10920000000000005
v 0.106056845273716 -0.22866907548446 -0.10920000000000006
v 0.10694885530049501 -0.21888983378522 -0.10920000000000006
v 0.11067841404991001 -0.20980580802221 -0.10920000000000005
v 0.11691545411362 -0.20222096218592 -0.10920000000000002
v 0.12510777136159001 -0.19680675141668 -0.1092
v 0.13453042996633 -0.194042106828815 -0.10919999999999999
v 0.13453042996633 -0.194042106828815 -0.1122
v 0.106008319125793 -0.22603610882630001 -0.11220000000000006
v 0.107515356652654 -0.21686047881836001 -0.11220000000000004
v 0.11152166672689001 -0.20846929828961 -0.11220000000000002
v 0.11770941219403 -0.20152836914846 -0.11220000000000001
v 0.12558737727181 -0.19658863182638 -0.1122
v 0.10600831912579302 -0.22603610882630001 -0.11420000000000005
v 0.10601414549506302 -0.22580292524669002 -0.11440000000000006
v 0.106016823528523 -0.22777730454950001 -0.11440000000000006
v 0.10600276728270702 -0.22711923537872 -0.11440000000000006
v 0.10600188274462902 -0.22646102266085 -0.11440000000000006
v 0.10601039393527603 -0.22754413997327 -0.11420000000000005
vn -0.95195 -0.306255 -2.0329e-15
vn -0.976853 -0.213913 -2.05756e-15
vn -0.99282 -0.119615 -2.0634e-15
vn -0.999707 -0.0242227 -2.05036e-15
vn -0.95195 -0.306255 -2.0329e-15
vn -0.95409 -0.29952 -2.03536e-15
vn -0.934475 -0.356028 -2.01133e-15
vn -0.941389 -0.337324 -2.02015e-15
vn -0.947928 -0.318485 -2.02816e-15
vn -0.936968 -0.349416 -2.01455e-15
vn -0.936968 -0.349416 -2.01455e-15
vn -0.998299 -0.058304 -2.05717e-15
vn -0.971273 0.237968 -1.91772e-15
vn -0.858282 0.513178 -1.60853e-15
vn -0.669326 0.742968 -1.15698e-15
vn -0.421131 0.907 -6.0303e-16
vn -0.135661 0.990755 4.29654e-18
vn -0.135661 0.990755 4.29654e-18
vn -0.99977 0.0214646 -2.0375e-15
vn -0.954112 0.29945 -1.86517e-15
vn -0.832736 0.553671 -1.54481e-15
vn -0.645273 0.763952 -1.10185e-15
vn -0.406601 0.913606 -5.71453e-16
vn -0.99977 0.0214646 -2.0375e-15
vn -0.999593 0.0285292 -2.03513e-15
vn -0.99951 -0.0312868 -2.05197e-15
vn -0.999936 -0.01135 -2.04717e-15
vn -0.999963 0.00859129 -2.04156e-15
vn -0.999707 -0.0242227 -2.05036e-15
f 91//91 100//100 101//101 
f 91//91 90//90 100//100 
f 99//99 100//100 90//90 
f 97//97 96//96 99//99 
f 94//94 99//99 90//90 
f 92//92 91//91 101//101 
f 98//98 99//99 94//94 
f 98//98 97//97 99//99 
f 95//95 98//98 94//94 
f 93//93 92//92 101//101 
f 108//108 101//101 102//102 
f 108//108 93//93 101//101 
f 116//116 115//115 118//118 
f 113//113 118//118 93//93 
f 113//113 93//93 108//108 
f 117//117 116//116 118//118 
f 117//117 118//118 113//113 
f 114//114 117//117 113//113 
f 109//109 102//102 103//103 
f 109//109 108//108 102//102 
f 110//110 103//103 104//104 
f 110//110 109//109 103//103 
f 111//111 104//104 105//105 
f 111//111 110//110 104//104 
f 112//112 105//105 106//106 
f 112//112 111//111 105//105 
f 107//107 112//112 106//106 

g Face_10
v 0.10902210161544999 -0.23793921132554 -0.10920000000000005
v 0.10705565115436301 -0.22862019731684 -0.10920000000000006
v 0.10791840127277802 -0.21913514800865 -0.10920000000000006
v 0.11153384191237 -0.21032383982024003 -0.10920000000000005
v 0.11758198350165999 -0.20296645813928 -0.10920000000000002
v 0.12552717384316 -0.19771445423696002 -0.1092
v 0.13466608171876002 -0.195032927188826 -0.10919999999999999
v 0.13453042996633 -0.194042106828815 -0.10919999999999999
v 0.10808122887889 -0.23827794187505 -0.10920000000000005
v 0.106056845273716 -0.22866907548446 -0.10920000000000006
v 0.10694885530049501 -0.21888983378522 -0.10920000000000006
v 0.11067841404991001 -0.20980580802221 -0.10920000000000005
v 0.11691545411362 -0.20222096218592 -0.10920000000000002
v 0.12510777136159001 -0.19680675141668 -0.1092
v 0.10843201863253 -0.23829456153413 -0.10920000000000005
v 0.10876245501148002 -0.23817557013191 -0.10920000000000005
vn -2.04408e-15 -2.84226e-16 1
vn -2.04408e-15 -2.84226e-16 1
vn -2.04408e-15 -2.84226e-16 1
vn -2.04408e-15 -2.84226e-16 1
vn -2.04408e-15 -2.84226e-16 1
vn -2.04408e-15 -2.84226e-16 1
vn -2.04408e-15 -2.84226e-16 1
vn -2.04408e-15 -2.84226e-16 1
vn -2.04408e-15 -2.84226e-16 1
vn -2.04408e-15 -2.84226e-16 1
vn -2.04408e-15 -2.84226e-16 1
vn -2.04408e-15 -2.84226e-16 1
vn -2.04408e-15 -2.84226e-16 1
vn -2.04408e-15 -2.84226e-16 1
vn -2.04408e-15 -2.84226e-16 1
vn -2.04408e-15 -2.84226e-16 1
f 119//119 127//127 133//133 
f 119//119 133//133 134//134 
f 120//120 128//128 127//127 
f 120//120 127//127 119//119 
f 121//121 129//129 128//128 
f 121//121 128//128 120//120 
f 122//122 130//130 129//129 
f 122//122 129//129 121//121 
f 123//123 131//131 130//130 
f 123//123 130//130 122//122 
f 124//124 131//131 123//123 
f 132//132 131//131 124//124 
f 125//125 132//132 124//124 
f 126//126 132//132 125//125 

g Face_11
v 0.10902210161545 -0.23793921132554 -0.11420000000000005
v 0.10876245501148002 -0.23817557013191 -0.11420000000000005
v 0.10843201863253002 -0.23829456153413 -0.11420000000000005
v 0.10808122887889002 -0.23827794187505 -0.11420000000000005
v 0.10902210161544999 -0.23793921132554 -0.10920000000000005
v 0.10808122887889 -0.23827794187505 -0.10920000000000005
v 0.10843201863253 -0.23829456153413 -0.10920000000000005
v 0.10876245501148002 -0.23817557013191 -0.10920000000000005
vn 0.804414 -0.59407 1.47543e-15
vn 0.515826 -0.856694 8.10892e-16
vn 0.148701 -0.988882 2.28894e-17
vn -0.241065 -0.970509 -7.68598e-16
vn 0.804414 -0.59407 1.47543e-15
vn -0.241065 -0.970509 -7.68598e-16
vn 0.148701 -0.988882 2.28894e-17
vn 0.515826 -0.856694 8.10892e-16
f 141//141 138//138 137//137 
f 141//141 140//140 138//138 
f 142//142 137//137 136//136 
f 142//142 141//141 137//137 
f 139//139 136//136 135//135 
f 139//139 142//142 136//136 

g Face_12
v 0.10701032509995101 -0.2275312465637 -0.11420000000000005
v 0.10668768434792501 -0.22766981667968 -0.11420000000000005
v 0.10633650768657703 -0.22767433411916002 -0.11420000000000005
v 0.10601039393527603 -0.22754413997327 -0.11420000000000005
v 0.10701032509995101 -0.2275312465637 -0.11220000000000005
v 0.10668768434792501 -0.22766981667968 -0.11220000000000005
v 0.10633650768657701 -0.22767433411916002 -0.11220000000000005
v 0.10601039393527602 -0.22754413997327 -0.11220000000000006
vn 0.566263 -0.824224 9.23219e-16
vn 0.207725 -0.978187 1.46579e-16
vn -0.182441 -0.983217 -6.52379e-16
vn -0.544829 -0.838547 -1.35201e-15
vn 0.566263 -0.824224 9.23219e-16
vn 0.207725 -0.978187 1.46579e-16
vn -0.182441 -0.983217 -6.52379e-16
vn -0.544829 -0.838547 -1.35201e-15
f 149//149 146//146 145//145 
f 149//149 150//150 146//146 
f 148//148 145//145 144//144 
f 148//148 149//149 145//145 
f 147//147 144//144 143//143 
f 147//147 148//148 144//144 

g Face_13
v 0.10846566422569001 -0.23631738136691002 -0.11440000000000006
v 0.10853521260055 -0.23653628100389001 -0.11420000000000005
v 0.10751600402554001 -0.23663107592531 -0.11440000000000006
v 0.10779380219647001 -0.23642696446505002 -0.11440000000000006
v 0.10812109595230002 -0.23631892632662002 -0.11440000000000006
v 0.10758674522608001 -0.23685330229844 -0.11420000000000005
v 0.10785184874950002 -0.23662298270267001 -0.11420000000000005
v 0.10818487553371 -0.23651166852878 -0.11420000000000005
vn 0.107688 0.698859 0.707107
vn 0.18621 0.682148 0.707107
vn -0.502768 0.497216 0.707107
vn -0.324228 0.628392 0.707107
vn -0.113858 0.69788 0.707107
vn -0.558986 0.433053 0.707107
vn -0.350703 0.61401 0.707107
vn -0.0890232 0.70148 0.707107
f 153//153 156//156 157//157 
f 154//154 153//153 157//157 
f 158//158 154//154 157//157 
f 155//155 154//154 158//158 
f 151//151 158//158 152//152 
f 151//151 155//155 158//158 

g Face_14
v 0.10816349061793 -0.23849623286129 -0.11440000000000006
v 0.10793526460525 -0.23787886879277 -0.11440000000000006
v 0.10771941194713001 -0.23725704712544 -0.11440000000000006
v 0.10751600402554001 -0.23663107592531 -0.11440000000000006
v 0.10910327947882001 -0.23815408540964 -0.11440000000000004
v 0.10883183613313001 -0.23836643011061 -0.11440000000000004
v 0.10850793113035001 -0.23848433011547002 -0.11440000000000006
v 0.10846566422569001 -0.23631738136691002 -0.11440000000000006
v 0.10866584494219002 -0.23693390771663 -0.11440000000000006
v 0.10887838022923002 -0.23754617558354 -0.11440000000000004
v 0.10779380219647001 -0.23642696446505002 -0.11440000000000006
v 0.10812109595230002 -0.23631892632662002 -0.11440000000000006
vn 2.04408e-15 2.84226e-16 -1
vn 2.04408e-15 2.84226e-16 -1
vn 2.04408e-15 2.84226e-16 -1
vn 2.04408e-15 2.84226e-16 -1
vn 2.04408e-15 2.84226e-16 -1
vn 2.04408e-15 2.84226e-16 -1
vn 2.04408e-15 2.84226e-16 -1
vn 2.04408e-15 2.84226e-16 -1
vn 2.04408e-15 2.84226e-16 -1
vn 2.04408e-15 2.84226e-16 -1
vn 2.04408e-15 2.84226e-16 -1
vn 2.04408e-15 2.84226e-16 -1
f 165//165 159//159 160//160 
f 169//169 161//161 162//162 
f 168//168 163//163 164//164 
f 168//168 164//164 165//165 
f 168//168 165//165 160//160 
f 167//167 160//160 161//161 
f 167//167 169//169 170//170 
f 167//167 161//161 169//169 
f 167//167 168//168 160//160 
f 166//166 167//167 170//170 

g Face_15
v 0.10701418004189203 -0.22581661907618 -0.11440000000000006
v 0.107008287917776 -0.22604624073455 -0.11420000000000005
v 0.10601414549506302 -0.22580292524669002 -0.11440000000000006
v 0.10634329517672503 -0.2257007674109 -0.11440000000000006
v 0.10668787567589202 -0.22570548126665002 -0.11440000000000006
v 0.10600831912579302 -0.22603610882630001 -0.11420000000000005
v 0.106334072492305 -0.2259050040479 -0.11420000000000005
v 0.10668519094204902 -0.22590855681569003 -0.11420000000000005
vn 0.330042 0.625358 0.707107
vn 0.398799 0.583917 0.707107
vn -0.312795 0.63416 0.707107
vn -0.101202 0.699827 0.707107
vn 0.120326 0.696794 0.707107
vn -0.386887 0.591877 0.707107
vn -0.130923 0.694881 0.707107
vn 0.144975 0.692085 0.707107
f 173//173 176//176 177//177 
f 174//174 173//173 177//177 
f 178//178 174//174 177//177 
f 175//175 174//174 178//178 
f 171//171 178//178 172//172 
f 171//171 175//175 178//178 

g Face_16
v 0.106016823528523 -0.22777730454950001 -0.11440000000000006
v 0.10600276728270702 -0.22711923537872 -0.11440000000000006
v 0.10600188274462902 -0.22646102266085 -0.11440000000000006
v 0.10601414549506302 -0.22580292524669002 -0.11440000000000006
v 0.10701678943555301 -0.2277608486549 -0.11440000000000006
v 0.10669092707053902 -0.22787287887671 -0.11440000000000006
v 0.10634627145953801 -0.22787854384625 -0.11440000000000006
v 0.10701418004189203 -0.22581661907618 -0.11440000000000006
v 0.107001860912458 -0.22646466677024002 -0.11440000000000006
v 0.107002789568737 -0.22711282920422002 -0.11440000000000006
v 0.10634329517672503 -0.2257007674109 -0.11440000000000006
v 0.10668787567589202 -0.22570548126665002 -0.11440000000000006
vn 2.04408e-15 2.84226e-16 -1
vn 2.04408e-15 2.84226e-16 -1
vn 2.04408e-15 2.84226e-16 -1
vn 2.04408e-15 2.84226e-16 -1
vn 2.04408e-15 2.84226e-16 -1
vn 2.04408e-15 2.84226e-16 -1
vn 2.04408e-15 2.84226e-16 -1
vn 2.04408e-15 2.84226e-16 -1
vn 2.04408e-15 2.84226e-16 -1
vn 2.04408e-15 2.84226e-16 -1
vn 2.04408e-15 2.84226e-16 -1
vn 2.04408e-15 2.84226e-16 -1
f 180//180 185//185 179//179 
f 188//188 183//183 184//184 
f 188//188 184//184 185//185 
f 188//188 185//185 180//180 
f 189//189 181//181 182//182 
f 187//187 180//180 181//181 
f 187//187 188//188 180//180 
f 187//187 181//181 189//189 
f 190//190 187//187 189//189 
f 186//186 187//187 190//190 

