mtllib Ressort_Roue_lien_limacons.mtl
usemtl Ressort_Roue_lien_limacons
#Wavefront export of shape 1-73--Ressort_Roue_lien_limacons

g Face_1
v 0.14174782347950002 -0.178497512548 -0.03565447
v 0.14174782347950002 -0.178497512548 -0.0375
v 0.1417521765205 -0.185497512548 -0.0375
v 0.1417521765205 -0.185497512548 -0.03565447
vn 1 0.000621863 -0
vn 1 0.000621863 -0
vn 1 0.000621863 -0
vn 1 0.000621863 -0
f 1//1 3//3 2//2 
f 1//1 4//4 3//3 

g Face_2
v 0.1337521765205 -0.185502487452 -0.03565447
v 0.1337521765205 -0.185502487452 -0.0375
v 0.1337478234795 -0.17850248745199998 -0.0375
v 0.1337478234795 -0.17850248745199998 -0.03565447
vn -1 -0.000621863 -0
vn -1 -0.000621863 -0
vn -1 -0.000621863 -0
vn -1 -0.000621863 -0
f 7//7 6//6 5//5 
f 7//7 5//5 8//8 

g Face_3
v 0.11666682347950001 -0.178513109493903 -0.03443101
v 0.11672272347950001 -0.17851307473176128 -0.034015909999999996
v 0.12234622347950001 -0.1785095776851808 -0.035023809999999996
v 0.1280418934795 -0.17850603575874757 -0.03543177
v 0.1337478234795 -0.17850248745199998 -0.03565447
v 0.1337478234795 -0.17850248745199998 -0.0375
v 0.14174782347950002 -0.178497512548 -0.0375
v 0.14174782347950002 -0.178497512548 -0.03565447
v 0.14745375347950002 -0.1784939642412524 -0.03543177
v 0.1531494234795 -0.17849042231481918 -0.035023809999999996
v 0.1588288234795 -0.17848689050609698 -0.03443101
v 0.1587729234795 -0.1784869252682387 -0.034015909999999996
v 0.14476527347950002 -0.17849563610749064 -0.03489059
v 0.1307303734795 -0.17850436389250934 -0.03489059
vn -0.000621863 1 -0
vn -0.000621863 1 -0
vn -0.000621863 1 -0
vn -0.000621863 1 -0
vn -0.000621863 1 -0
vn -0.000621863 1 -0
vn -0.000621863 1 -0
vn -0.000621863 1 -0
vn -0.000621863 1 -0
vn -0.000621863 1 -0
vn -0.000621863 1 -0
vn -0.000621863 1 -0
vn -0.000621863 1 -0
vn -0.000621863 1 -0
f 11//11 9//9 10//10 
f 22//22 12//12 11//11 
f 15//15 14//14 13//13 
f 15//15 13//13 16//16 
f 21//21 16//16 13//13 
f 21//21 13//13 22//22 
f 18//18 17//17 21//21 
f 20//20 18//18 21//21 
f 19//19 18//18 20//20 
f 12//12 22//22 13//13 
f 16//16 21//21 17//17 
f 22//22 11//11 10//10 

g Face_4
v 0.1417521765205 -0.185497512548 -0.03565447
v 0.1417521765205 -0.185497512548 -0.0375
v 0.1337521765205 -0.185502487452 -0.0375
v 0.1337521765205 -0.185502487452 -0.03565447
v 0.1166711765205 -0.185513109493903 -0.03443101
v 0.1223505765205 -0.1855095776851808 -0.035023809999999996
v 0.1280462465205 -0.18550603575874758 -0.03543177
v 0.1167270765205 -0.1855130747317613 -0.034015909999999996
v 0.1587772765205 -0.1854869252682387 -0.034015909999999996
v 0.14476962652050002 -0.18549563610749065 -0.03489059
v 0.1307347265205 -0.18550436389250935 -0.03489059
v 0.1588331765205 -0.18548689050609699 -0.03443101
v 0.1474581065205 -0.18549396424125242 -0.03543177
v 0.1531537765205 -0.1854904223148192 -0.035023809999999996
vn 0.000621863 -1 -0
vn 0.000621863 -1 -0
vn 0.000621863 -1 -0
vn 0.000621863 -1 -0
vn 0.000621863 -1 -0
vn 0.000621863 -1 -0
vn 0.000621863 -1 -0
vn 0.000621863 -1 -0
vn 0.000621863 -1 -0
vn 0.000621863 -1 -0
vn 0.000621863 -1 -0
vn 0.000621863 -1 -0
vn 0.000621863 -1 -0
vn 0.000621863 -1 -0
f 28//28 30//30 27//27 
f 33//33 28//28 29//29 
f 23//23 25//25 24//24 
f 23//23 26//26 25//25 
f 32//32 26//26 23//23 
f 32//32 33//33 26//26 
f 36//36 32//32 35//35 
f 31//31 36//36 34//34 
f 31//31 32//32 36//36 
f 26//26 33//33 29//29 
f 30//30 28//28 33//33 
f 35//35 32//32 23//23 

g Face_5
v 0.1417521765205 -0.185497512548 -0.0375
v 0.14174782347950002 -0.178497512548 -0.0375
v 0.1337521765205 -0.185502487452 -0.0375
v 0.1337478234795 -0.17850248745199998 -0.0375
v 0.13575 -0.18200124372599996 -0.0375
v 0.1371307831481691 -0.18009827433247733 -0.0375
v 0.1393672989565131 -0.1808234238070101 -0.0375
v 0.13936876104348692 -0.18317456380701008 -0.0375
v 0.13713314885183095 -0.18390249433247735 -0.0375
vn -0 0 -1
vn -0 0 -1
vn -0 0 -1
vn -0 0 -1
vn -0 0 -1
vn -0 0 -1
vn -0 0 -1
vn -0 0 -1
vn -0 0 -1
f 45//45 44//44 37//37 
f 43//43 38//38 37//37 
f 43//43 37//37 44//44 
f 39//39 45//45 37//37 
f 41//41 45//45 39//39 
f 42//42 38//38 43//43 
f 40//40 42//42 41//41 
f 40//40 41//41 39//39 
f 40//40 38//38 42//42 

g Face_6
v 0.14174782347950002 -0.178497512548 -0.03565447
v 0.14745375347950002 -0.1784939642412524 -0.03543177
v 0.1531494234795 -0.17849042231481918 -0.035023809999999996
v 0.1588288234795 -0.17848689050609698 -0.03443101
v 0.15951559911010163 -0.1819850337586872 -0.03434693
v 0.1588331765205 -0.18548689050609699 -0.03443101
v 0.1417521765205 -0.185497512548 -0.03565447
v 0.1474581065205 -0.18549396424125242 -0.03543177
v 0.1531537765205 -0.1854904223148192 -0.035023809999999996
vn 0.0227611 1.41543e-05 -0.999741
vn 0.0552293 3.43451e-05 -0.998474
vn 0.0876393 5.44996e-05 -0.996152
vn 0.119957 7.45966e-05 -0.992779
vn 0.123852 7.7019e-05 -0.992301
vn 0.119957 7.45966e-05 -0.992779
vn 0.0227611 1.41543e-05 -0.999741
vn 0.0552293 3.43451e-05 -0.998474
vn 0.0876393 5.44996e-05 -0.996152
f 50//50 46//46 47//47 
f 50//50 47//47 48//48 
f 50//50 48//48 49//49 
f 52//52 46//46 50//50 
f 53//53 52//52 50//50 
f 54//54 53//53 50//50 
f 51//51 54//54 50//50 

g Face_7
v 0.1166711765205 -0.185513109493903 -0.03443101
v 0.1223505765205 -0.1855095776851808 -0.035023809999999996
v 0.1280462465205 -0.18550603575874758 -0.03543177
v 0.1337521765205 -0.185502487452 -0.03565447
v 0.11598440088989839 -0.1820149662413128 -0.03434693
v 0.11666682347950001 -0.178513109493903 -0.03443101
v 0.12234622347950001 -0.1785095776851808 -0.035023809999999996
v 0.1280418934795 -0.17850603575874757 -0.03543177
v 0.1337478234795 -0.17850248745199998 -0.03565447
vn -0.119957 -7.45966e-05 -0.992779
vn -0.0876393 -5.44996e-05 -0.996152
vn -0.0552293 -3.43451e-05 -0.998474
vn -0.0227611 -1.41543e-05 -0.999741
vn -0.123852 -7.7019e-05 -0.992301
vn -0.119957 -7.45966e-05 -0.992779
vn -0.0876393 -5.44996e-05 -0.996152
vn -0.0552293 -3.43451e-05 -0.998474
vn -0.0227611 -1.41543e-05 -0.999741
f 59//59 60//60 61//61 
f 59//59 61//61 62//62 
f 59//59 62//62 63//63 
f 56//56 55//55 59//59 
f 57//57 56//56 59//59 
f 58//58 59//59 63//63 
f 58//58 57//57 59//59 

g Face_8
v 0.11672272347950001 -0.17851307473176128 -0.034015909999999996
v 0.11603379904141063 -0.1820119630212806 -0.03395
v 0.1167270765205 -0.1855130747317613 -0.034015909999999996
v 0.1587729234795 -0.1784869252682387 -0.034015909999999996
v 0.14476527347950002 -0.17849563610749064 -0.03489059
v 0.1307303734795 -0.17850436389250934 -0.03489059
v 0.1587772765205 -0.1854869252682387 -0.034015909999999996
v 0.15946620095858938 -0.1819880369787194 -0.03395
v 0.14476962652050002 -0.18549563610749065 -0.03489059
v 0.1307347265205 -0.18550436389250935 -0.03489059
v 0.13575 -0.18200124372599996 -0.03499111
v 0.1374237539585843 -0.1800270321172904 -0.03499976
v 0.13964427165943671 -0.18135826177482978 -0.03499203
v 0.13867555790512365 -0.18377297511564034 -0.0349981
v 0.13671517390809493 -0.18371148418166305 -0.03499762
vn 0.0934062 5.80859e-05 0.995628
vn 0.0964766 5.99952e-05 0.995335
vn 0.0934062 5.80859e-05 0.995628
vn -0.0934062 -5.80859e-05 0.995628
vn -0.0311758 -1.93871e-05 0.999514
vn 0.0311758 1.93871e-05 0.999514
vn -0.0934062 -5.80859e-05 0.995628
vn -0.0964766 -5.99952e-05 0.995335
vn -0.0311758 -1.93871e-05 0.999514
vn 0.0311758 1.93871e-05 0.999514
vn 0.00888523 5.52539e-06 0.999961
vn 0.00144393 8.97928e-07 0.999999
vn -0.00841727 -5.23439e-06 0.999965
vn -0.004107 -2.55399e-06 0.999992
vn 0.00460205 2.86185e-06 0.999989
f 65//65 69//69 64//64 
f 75//75 68//68 69//69 
f 75//75 69//69 65//65 
f 74//74 75//75 65//65 
f 76//76 68//68 75//75 
f 78//78 74//74 65//65 
f 73//73 65//65 66//66 
f 73//73 77//77 78//78 
f 73//73 78//78 65//65 
f 71//71 67//67 68//68 
f 71//71 76//76 77//77 
f 71//71 68//68 76//76 
f 72//72 71//71 77//77 
f 72//72 77//77 73//73 
f 70//70 71//71 72//72 

g Face_9
v 0.1167270765205 -0.1855130747317613 -0.034015909999999996
v 0.1166711765205 -0.185513109493903 -0.03443101
v 0.11672272347950001 -0.17851307473176128 -0.034015909999999996
v 0.11603379904141063 -0.1820119630212806 -0.03395
v 0.11666682347950001 -0.178513109493903 -0.03443101
v 0.11598440088989839 -0.1820149662413128 -0.03434693
vn -0.915905 -0.381892 0.123601
vn -0.916799 -0.37974 0.123601
vn -0.916379 0.380752 0.123601
vn -0.992332 -0.000449 0.123601
vn -0.917271 0.378599 0.123601
vn -0.992332 -0.0007723 0.123601
f 82//82 80//80 79//79 
f 84//84 80//80 82//82 
f 83//83 82//82 81//81 
f 83//83 84//84 82//82 

g Face_10
v 0.1587729234795 -0.1784869252682387 -0.034015909999999996
v 0.1588288234795 -0.17848689050609698 -0.03443101
v 0.1587772765205 -0.1854869252682387 -0.034015909999999996
v 0.15946620095858938 -0.1819880369787194 -0.03395
v 0.1588331765205 -0.18548689050609699 -0.03443101
v 0.15951559911010163 -0.1819850337586872 -0.03434693
vn 0.915905 0.381892 0.123601
vn 0.916799 0.37974 0.123601
vn 0.916379 -0.380752 0.123601
vn 0.992332 0.000449 0.123601
vn 0.917271 -0.378599 0.123601
vn 0.992332 0.0007723 0.123601
f 88//88 86//86 85//85 
f 90//90 86//86 88//88 
f 89//89 88//88 87//87 
f 89//89 90//90 88//88 

g Face_11
v 0.13575 -0.18200124372599996 -0.0375
v 0.1371307831481691 -0.18009827433247733 -0.0375
v 0.1393672989565131 -0.1808234238070101 -0.0375
v 0.13936876104348692 -0.18317456380701008 -0.0375
v 0.13713314885183095 -0.18390249433247735 -0.0375
v 0.13575 -0.18200124372599996 -0.0375
v 0.13575 -0.18200124372599996 -0.03499111
v 0.1374237539585843 -0.1800270321172904 -0.03499976
v 0.13964427165943671 -0.18135826177482978 -0.03499203
v 0.13867555790512365 -0.18377297511564034 -0.0349981
v 0.13671517390809493 -0.18371148418166305 -0.03499762
v 0.13575 -0.18200124372599996 -0.03499111
vn 1 0.000621863 -0
vn 0.309608 -0.950864 0
vn -0.808651 -0.588288 -0
vn -0.809382 0.587282 -0
vn 0.308426 0.951248 -0
vn 1 0.000621863 -0
vn 1 0.000621863 -0
vn 0.163142 -0.986603 0
vn -0.947125 -0.320866 -0
vn -0.462774 0.886476 -0
vn 0.517409 0.855738 -0
vn 1 0.000621863 -0
f 92//92 97//97 91//91 
f 92//92 98//98 97//97 
f 93//93 99//99 98//98 
f 93//93 98//98 92//92 
f 94//94 100//100 99//99 
f 94//94 99//99 93//93 
f 95//95 101//101 100//100 
f 95//95 100//100 94//94 
f 96//96 102//102 101//101 
f 96//96 101//101 95//95 

