mtllib Ressort_barillet_Quarts.mtl
usemtl Ressort_barillet_Quarts
#Wavefront export of shape 1-57--Ressort_barillet_Quarts

g Face_1
v 0.187257170307458 -0.26699536011372 -0.12199999999999998
v 0.18731850949397 -0.26722609728061997 -0.12179999999999998
v 0.18629500069874 -0.26726603181694997 -0.12199999999999998
v 0.18657683953414902 -0.26706342049762 -0.12199999999999998
v 0.186911032928124 -0.26696944702839004 -0.12199999999999998
v 0.18635770071273 -0.26750206669818 -0.12179999999999998
v 0.18662376345138998 -0.26726419725787004 -0.12179999999999998
v 0.18696677903504 -0.26716570476628004 -0.12179999999999998
vn 0.17438 0.685268 0.707107
vn 0.272151 0.652636 0.707107
vn -0.506015 0.493912 0.707107
vn -0.30668 0.63714 0.707107
vn -0.070391 0.703594 0.707107
vn -0.577038 0.40869 0.707107
vn -0.341902 0.618953 0.707107
vn -0.038729 0.706045 0.707107
f 3//3 6//6 7//7 
f 4//4 3//3 7//7 
f 8//8 4//4 7//7 
f 5//5 4//4 8//8 
f 1//1 8//8 2//2 
f 1//1 5//5 8//8 

g Face_2
v 0.1861447579656264 -0.25620711147332403 -0.12199999999999998
v 0.1861333431867751 -0.256446522887591 -0.12179999999999998
v 0.1851469237665322 -0.256168681516432 -0.12199999999999998
v 0.18547712732469418 -0.256062888763862 -0.12199999999999998
v 0.18582359612453628 -0.256076233212023 -0.12199999999999998
v 0.18513542070904562 -0.256411440768596 -0.12179999999999998
v 0.1854617150888904 -0.256268007874324 -0.12179999999999998
v 0.18581800890388908 -0.256280533021611 -0.12179999999999998
vn 0.376371 0.598619 0.707107
vn 0.460429 0.536661 0.707107
vn -0.329215 0.625794 0.707107
vn -0.095707 0.7006 0.707107
vn 0.149309 0.691163 0.707107
vn -0.421606 0.56767 0.707107
vn -0.133203 0.694447 0.707107
vn 0.181641 0.683379 0.707107
f 11//11 14//14 15//15 
f 12//12 11//11 15//15 
f 16//16 12//12 15//15 
f 13//13 12//12 16//16 
f 9//9 16//16 10//10 
f 9//9 13//13 16//16 

g Face_3
v 0.1861333431867751 -0.256446522887591 -0.11419999999999998
v 0.18628753232619602 -0.25435486246185 -0.11419999999999998
v 0.186565127412855 -0.25227598642513005 -0.11419999999999998
v 0.186965137010254 -0.25021714416594 -0.11419999999999998
v 0.18513542070904562 -0.256411440768596 -0.11419999999999998
v 0.1854617150888904 -0.256268007874324 -0.11419999999999998
v 0.1858180089038891 -0.256280533021611 -0.11419999999999998
v 0.185989587508696 -0.24999749256965997 -0.11419999999999998
v 0.18557846509459 -0.25211737313713 -0.11419999999999998
v 0.18529344351826502 -0.25425785484993 -0.11419999999999998
v 0.21276755763512 -0.22569777597506396 -0.1142
v 0.20354028574239 -0.22832456208861002 -0.11419999999999998
v 0.19553502287510002 -0.23361208577664 -0.11419999999999998
v 0.18949728846252 -0.24106792734956997 -0.11419999999999998
v 0.21284747162549 -0.226292389379896 -0.1142
v 0.1903602081298 -0.24152243177799002 -0.11419999999999998
v 0.19618479183832002 -0.2342288280731 -0.11419999999999998
v 0.20391315287159 -0.22899462389549 -0.11419999999999998
vn -5.07498e-16 1.58155e-16 -1
vn -5.07498e-16 1.58155e-16 -1
vn -5.07498e-16 1.58155e-16 -1
vn -5.07498e-16 1.58155e-16 -1
vn -5.07498e-16 1.58155e-16 -1
vn -5.07498e-16 1.58155e-16 -1
vn -5.07498e-16 1.58155e-16 -1
vn -5.07498e-16 1.58155e-16 -1
vn -5.07498e-16 1.58155e-16 -1
vn -5.07498e-16 1.58155e-16 -1
vn -5.07498e-16 1.58155e-16 -1
vn -5.07498e-16 1.58155e-16 -1
vn -5.07498e-16 1.58155e-16 -1
vn -5.07498e-16 1.58155e-16 -1
vn -5.07498e-16 1.58155e-16 -1
vn -5.07498e-16 1.58155e-16 -1
vn -5.07498e-16 1.58155e-16 -1
vn -5.07498e-16 1.58155e-16 -1
f 34//34 28//28 27//27 
f 34//34 27//27 31//31 
f 33//33 28//28 34//34 
f 29//29 28//28 33//33 
f 32//32 29//29 33//33 
f 30//30 29//29 32//32 
f 20//20 30//30 32//32 
f 24//24 30//30 20//20 
f 19//19 24//24 20//20 
f 25//25 24//24 19//19 
f 18//18 25//25 19//19 
f 26//26 25//25 18//18 
f 23//23 18//18 17//17 
f 23//23 26//26 18//18 
f 22//22 26//26 23//23 
f 21//21 26//26 22//22 

g Face_4
v 0.18510223772162152 -0.257669856946605 -0.11419999999999998
v 0.185222203916612 -0.26098080627410003 -0.11419999999999998
v 0.185641920544681 -0.26426724339643004 -0.11419999999999998
v 0.18635770071273 -0.26750206669818 -0.11419999999999998
v 0.18610051746940723 -0.257687596448692 -0.11419999999999998
v 0.1857767762517229 -0.257836633593509 -0.11419999999999998
v 0.1854204191827618 -0.257830300933568 -0.11419999999999998
v 0.18731850949397 -0.26722609728061997 -0.11419999999999998
v 0.186624391715306 -0.26408782858896 -0.11419999999999998
v 0.186217290779789 -0.26089959818359004 -0.11419999999999998
v 0.18662376345138998 -0.26726419725787004 -0.11419999999999998
v 0.18696677903504 -0.26716570476628004 -0.11419999999999998
vn -5.07498e-16 1.58155e-16 -1
vn -5.07498e-16 1.58155e-16 -1
vn -5.07498e-16 1.58155e-16 -1
vn -5.07498e-16 1.58155e-16 -1
vn -5.07498e-16 1.58155e-16 -1
vn -5.07498e-16 1.58155e-16 -1
vn -5.07498e-16 1.58155e-16 -1
vn -5.07498e-16 1.58155e-16 -1
vn -5.07498e-16 1.58155e-16 -1
vn -5.07498e-16 1.58155e-16 -1
vn -5.07498e-16 1.58155e-16 -1
vn -5.07498e-16 1.58155e-16 -1
f 44//44 40//40 39//39 
f 36//36 41//41 40//40 
f 36//36 35//35 41//41 
f 36//36 40//40 44//44 
f 43//43 36//36 44//44 
f 37//37 36//36 43//43 
f 46//46 43//43 42//42 
f 46//46 37//37 43//43 
f 45//45 37//37 46//46 
f 38//38 37//37 45//45 

g Face_5
v 0.21276755763512 -0.22569777597506396 -0.1142
v 0.20354028574239 -0.22832456208861002 -0.11419999999999998
v 0.19553502287510002 -0.23361208577664 -0.11419999999999998
v 0.18949728846252 -0.24106792734956997 -0.11419999999999998
v 0.185989587508696 -0.24999749256965997 -0.11419999999999998
v 0.185989587508696 -0.24999749256965997 -0.11119999999999998
v 0.21276755763512 -0.22569777597506396 -0.1112
v 0.20354028574239 -0.22832456208861002 -0.11119999999999998
v 0.19553502287510002 -0.23361208577664 -0.11119999999999998
v 0.18949728846252 -0.24106792734956997 -0.11119999999999998
vn -0.123834 0.992303 2.19783e-16
vn -0.417357 0.908743 3.5553e-16
vn -0.672008 0.740544 4.58164e-16
vn -0.864069 0.503373 5.18125e-16
vn -0.975653 0.219319 5.29829e-16
vn -0.975653 0.219319 5.29829e-16
vn -0.123834 0.992303 2.19783e-16
vn -0.417357 0.908743 3.5553e-16
vn -0.672008 0.740544 4.58164e-16
vn -0.864069 0.503373 5.18125e-16
f 50//50 51//51 52//52 
f 50//50 52//52 56//56 
f 49//49 56//56 55//55 
f 49//49 50//50 56//56 
f 48//48 55//55 54//54 
f 48//48 49//49 55//55 
f 47//47 54//54 53//53 
f 47//47 48//48 54//54 

g Face_6
v 0.18510223772162152 -0.257669856946605 -0.12179999999999998
v 0.18510223772162152 -0.257669856946605 -0.11419999999999998
v 0.185222203916612 -0.26098080627410003 -0.11419999999999998
v 0.185641920544681 -0.26426724339643004 -0.11419999999999998
v 0.18635770071273 -0.26750206669818 -0.11419999999999998
v 0.18635770071273 -0.26750206669818 -0.12179999999999998
v 0.18629500069874 -0.26726603181694997 -0.12199999999999998
v 0.18677583269703 -0.26893658766844 -0.12199999999999998
v 0.18660678633331998 -0.26838223877342005 -0.12199999999999998
v 0.18644641079257002 -0.26782531754342 -0.12199999999999998
v 0.18670345957111 -0.26870319872779 -0.12179999999999998
v 0.18670345957111 -0.26870319872779 -0.11119999999999998
v 0.185989587508696 -0.24999749256965997 -0.11119999999999998
v 0.1851432691256847 -0.25624278596621697 -0.11119999999999998
v 0.185383544877506 -0.26254058189932 -0.11119999999999998
v 0.185989587508696 -0.24999749256965997 -0.11419999999999998
v 0.18557846509459 -0.25211737313713 -0.11419999999999998
v 0.18529344351826502 -0.25425785484993 -0.11419999999999998
v 0.18513542070904562 -0.256411440768596 -0.11419999999999998
v 0.18513542070904562 -0.256411440768596 -0.12179999999999998
v 0.1851469237665322 -0.256168681516432 -0.12199999999999998
v 0.18512229677202557 -0.25674981256365603 -0.12199999999999998
v 0.1851068646345012 -0.25733126009444196 -0.12199999999999998
v 0.1851008311594349 -0.257912882431739 -0.12199999999999998
vn -0.999958 0.00916539 5.08927e-16
vn -0.999958 0.00916539 5.08927e-16
vn -0.996671 -0.0815245 4.92916e-16
vn -0.985177 -0.171543 4.72845e-16
vn -0.965569 -0.260149 4.48881e-16
vn -0.965569 -0.260149 4.48881e-16
vn -0.967288 -0.253681 4.50776e-16
vn -0.954115 -0.29944 4.36854e-16
vn -0.958748 -0.284257 4.41606e-16
vn -0.963139 -0.269003 4.46247e-16
vn -0.956098 -0.293048 4.38871e-16
vn -0.956098 -0.293048 4.38871e-16
vn -0.975653 0.219319 5.29829e-16
vn -0.998835 0.0482542 5.14539e-16
vn -0.992251 -0.124248 4.83915e-16
vn -0.975653 0.219319 5.29829e-16
vn -0.986913 0.161253 5.2636e-16
vn -0.99472 0.102623 5.21049e-16
vn -0.999048 0.0436345 5.13916e-16
vn -0.999048 0.0436345 5.13916e-16
vn -0.998735 0.050284 5.14809e-16
vn -0.999409 0.0343663 5.12634e-16
vn -0.99983 0.0184398 5.10328e-16
vn -0.999997 0.00250871 5.07893e-16
f 60//60 68//68 71//71 
f 60//60 61//61 68//68 
f 59//59 71//71 70//70 
f 59//59 60//60 71//71 
f 58//58 59//59 70//70 
f 75//75 58//58 70//70 
f 65//65 64//64 67//67 
f 62//62 66//66 65//65 
f 62//62 65//65 67//67 
f 62//62 67//67 61//61 
f 63//63 66//66 62//62 
f 74//74 75//75 70//70 
f 73//73 70//70 69//69 
f 73//73 74//74 70//70 
f 72//72 73//73 69//69 
f 79//79 80//80 57//57 
f 76//76 57//57 58//58 
f 76//76 78//78 79//79 
f 76//76 58//58 75//75 
f 76//76 79//79 57//57 
f 77//77 78//78 76//76 
f 67//67 68//68 61//61 

g Face_7
v 0.18670345957111 -0.26870319872779 -0.11119999999999998
v 0.18670345957111 -0.26870319872779 -0.12179999999999998
v 0.1876642079266 -0.26842572719476004 -0.12179999999999998
v 0.18739843190399 -0.26866410436947996 -0.12179999999999998
v 0.18705550046982 -0.26876319928884 -0.12179999999999998
v 0.1876642079266 -0.26842572719476004 -0.11119999999999998
v 0.18705550046982 -0.26876319928884 -0.11119999999999998
v 0.18739843190399 -0.26866410436947996 -0.11119999999999998
vn -0.38385 -0.923396 4.87634e-17
vn -0.38385 -0.923396 4.87634e-17
vn 0.817065 -0.576546 -5.05843e-16
vn 0.484869 -0.874587 -3.84391e-16
vn 0.0560965 -0.998425 -1.86375e-16
vn 0.817065 -0.576546 -5.05843e-16
vn 0.0560965 -0.998425 -1.86375e-16
vn 0.484869 -0.874587 -3.84391e-16
f 84//84 83//83 86//86 
f 84//84 86//86 88//88 
f 85//85 88//88 87//87 
f 85//85 84//84 88//88 
f 82//82 87//87 81//81 
f 82//82 85//85 87//87 

g Face_8
v 0.187257170307458 -0.26699536011372 -0.12199999999999998
v 0.18731850949397 -0.26722609728061997 -0.12179999999999998
v 0.1874074852021 -0.26755065558267 -0.12199999999999998
v 0.18756686656335 -0.268103549205 -0.12199999999999998
v 0.1877351239501 -0.26865367583369004 -0.12199999999999998
v 0.1876642079266 -0.26842572719476004 -0.12179999999999998
v 0.1876642079266 -0.26842572719476004 -0.11119999999999998
v 0.186375674988101 -0.26242734472513 -0.11119999999999998
v 0.186140296021696 -0.25629665701565 -0.11119999999999998
v 0.18696513701025402 -0.25021714416594 -0.11119999999999998
v 0.186965137010254 -0.25021714416594 -0.11419999999999998
v 0.1861333431867751 -0.256446522887591 -0.11419999999999998
v 0.18628753232619602 -0.25435486246185 -0.11419999999999998
v 0.186565127412855 -0.25227598642513005 -0.11419999999999998
v 0.1861333431867751 -0.256446522887591 -0.12179999999999998
v 0.1861447579656264 -0.25620711147332403 -0.12199999999999998
v 0.1860990992205559 -0.25792727145995903 -0.12199999999999998
v 0.1861050213879267 -0.257353663977427 -0.12199999999999998
v 0.186120242305175 -0.25678022666613 -0.12199999999999998
v 0.1861005174694072 -0.257687596448692 -0.12179999999999998
v 0.18610051746940723 -0.257687596448692 -0.11419999999999998
v 0.18731850949397 -0.26722609728061997 -0.11419999999999998
v 0.186624391715306 -0.26408782858896 -0.11419999999999998
v 0.186217290779789 -0.26089959818359004 -0.11419999999999998
vn 0.967341 0.25348 -4.50835e-16
vn 0.965612 0.259986 -4.48928e-16
vn 0.963101 0.26914 -4.46206e-16
vn 0.958608 0.284729 -4.41461e-16
vn 0.953863 0.300244 -4.36599e-16
vn 0.955862 0.293815 -4.3863e-16
vn 0.955862 0.293815 -4.3863e-16
vn 0.992199 0.124663 -4.83823e-16
vn 0.998837 -0.0482198 -5.14534e-16
vn 0.975577 -0.219659 -5.29844e-16
vn 0.975577 -0.219659 -5.29844e-16
vn 0.999032 -0.0439936 -5.13965e-16
vn 0.994684 -0.102977 -5.21087e-16
vn 0.986856 -0.161601 -5.26386e-16
vn 0.999032 -0.0439936 -5.13965e-16
vn 0.998712 -0.0507449 -5.1487e-16
vn 0.999997 -0.00223705 -5.07851e-16
vn 0.99983 -0.0184126 -5.10324e-16
vn 0.999402 -0.0345833 -5.12664e-16
vn 0.99996 -0.00899586 -5.08901e-16
vn 0.99996 -0.00899586 -5.08901e-16
vn 0.965612 0.259986 -4.48928e-16
vn 0.985186 0.171488 -4.72859e-16
vn 0.996667 0.0815813 -4.92904e-16
f 111//111 96//96 95//95 
f 111//111 95//95 110//110 
f 112//112 97//97 96//96 
f 112//112 96//96 111//111 
f 109//109 97//97 112//112 
f 100//100 97//97 109//109 
f 92//92 94//94 93//93 
f 90//90 92//92 91//91 
f 90//90 110//110 94//94 
f 90//90 94//94 92//92 
f 89//89 90//90 91//91 
f 101//101 97//97 100//100 
f 102//102 98//98 97//97 
f 102//102 97//97 101//101 
f 99//99 98//98 102//102 
f 106//106 108//108 105//105 
f 103//103 106//106 107//107 
f 103//103 109//109 108//108 
f 103//103 100//100 109//109 
f 103//103 108//108 106//106 
f 104//104 103//103 107//107 
f 94//94 110//110 95//95 

g Face_9
v 0.18696513701025402 -0.25021714416594 -0.11119999999999998
v 0.186965137010254 -0.25021714416594 -0.11419999999999998
v 0.1903602081298 -0.24152243177799002 -0.11119999999999998
v 0.19618479183832002 -0.2342288280731 -0.11119999999999998
v 0.20391315287159 -0.22899462389549 -0.11119999999999998
v 0.21284747162549 -0.226292389379896 -0.1112
v 0.21284747162549 -0.226292389379896 -0.1142
v 0.1903602081298 -0.24152243177799002 -0.11419999999999998
v 0.19618479183832002 -0.2342288280731 -0.11419999999999998
v 0.20391315287159 -0.22899462389549 -0.11419999999999998
vn 0.975577 -0.219659 -5.29844e-16
vn 0.975577 -0.219659 -5.29844e-16
vn 0.866288 -0.499545 -5.18645e-16
vn 0.678791 -0.734332 -4.60623e-16
vn 0.430013 -0.902823 -3.61017e-16
vn 0.142413 -0.989807 -2.28817e-16
vn 0.142413 -0.989807 -2.28817e-16
vn 0.866288 -0.499545 -5.18645e-16
vn 0.678791 -0.734332 -4.60623e-16
vn 0.430013 -0.902823 -3.61017e-16
f 120//120 113//113 114//114 
f 120//120 115//115 113//113 
f 121//121 116//116 115//115 
f 121//121 115//115 120//120 
f 122//122 117//117 116//116 
f 122//122 116//116 121//121 
f 119//119 118//118 117//117 
f 119//119 117//117 122//122 

g Face_10
v 0.21284747162549 -0.226292389379896 -0.1112
v 0.21284747162549 -0.226292389379896 -0.1142
v 0.21276755763512 -0.22569777597506396 -0.1112
v 0.21276755763512 -0.22569777597506396 -0.1142
vn 0.991091 0.133186 -4.81913e-16
vn 0.991091 0.133186 -4.81913e-16
vn 0.991091 0.133186 -4.81913e-16
vn 0.991091 0.133186 -4.81913e-16
f 123//123 126//126 125//125 
f 123//123 124//124 126//126 

g Face_11
v 0.18696513701025402 -0.25021714416594 -0.11119999999999998
v 0.1903602081298 -0.24152243177799002 -0.11119999999999998
v 0.19618479183832002 -0.2342288280731 -0.11119999999999998
v 0.20391315287159 -0.22899462389549 -0.11119999999999998
v 0.21284747162549 -0.226292389379896 -0.1112
v 0.1876642079266 -0.26842572719476004 -0.11119999999999998
v 0.186375674988101 -0.26242734472513 -0.11119999999999998
v 0.186140296021696 -0.25629665701565 -0.11119999999999998
v 0.18670345957111 -0.26870319872779 -0.11119999999999998
v 0.18705550046982 -0.26876319928884 -0.11119999999999998
v 0.18739843190399 -0.26866410436947996 -0.11119999999999998
v 0.185989587508696 -0.24999749256965997 -0.11119999999999998
v 0.1851432691256847 -0.25624278596621697 -0.11119999999999998
v 0.185383544877506 -0.26254058189932 -0.11119999999999998
v 0.21276755763512 -0.22569777597506396 -0.1112
v 0.20354028574239 -0.22832456208861002 -0.11119999999999998
v 0.19553502287510002 -0.23361208577664 -0.11119999999999998
v 0.18949728846252 -0.24106792734956997 -0.11119999999999998
vn 5.07498e-16 -1.58155e-16 1
vn 5.07498e-16 -1.58155e-16 1
vn 5.07498e-16 -1.58155e-16 1
vn 5.07498e-16 -1.58155e-16 1
vn 5.07498e-16 -1.58155e-16 1
vn 5.07498e-16 -1.58155e-16 1
vn 5.07498e-16 -1.58155e-16 1
vn 5.07498e-16 -1.58155e-16 1
vn 5.07498e-16 -1.58155e-16 1
vn 5.07498e-16 -1.58155e-16 1
vn 5.07498e-16 -1.58155e-16 1
vn 5.07498e-16 -1.58155e-16 1
vn 5.07498e-16 -1.58155e-16 1
vn 5.07498e-16 -1.58155e-16 1
vn 5.07498e-16 -1.58155e-16 1
vn 5.07498e-16 -1.58155e-16 1
vn 5.07498e-16 -1.58155e-16 1
vn 5.07498e-16 -1.58155e-16 1
f 130//130 141//141 142//142 
f 130//130 131//131 141//141 
f 129//129 130//130 142//142 
f 143//143 129//129 142//142 
f 128//128 129//129 143//143 
f 144//144 128//128 143//143 
f 127//127 128//128 144//144 
f 138//138 127//127 144//144 
f 139//139 134//134 127//127 
f 139//139 127//127 138//138 
f 140//140 133//133 134//134 
f 140//140 134//134 139//139 
f 135//135 132//132 133//133 
f 135//135 136//136 137//137 
f 135//135 137//137 132//132 
f 135//135 133//133 140//140 

g Face_12
v 0.18731850949397 -0.26722609728061997 -0.12179999999999998
v 0.18731850949397 -0.26722609728061997 -0.11419999999999998
v 0.18635770071273 -0.26750206669818 -0.12179999999999998
v 0.18662376345138998 -0.26726419725787004 -0.12179999999999998
v 0.18696677903504 -0.26716570476628004 -0.12179999999999998
v 0.18635770071273 -0.26750206669818 -0.11419999999999998
v 0.18662376345138998 -0.26726419725787004 -0.11419999999999998
v 0.18696677903504 -0.26716570476628004 -0.11419999999999998
vn 0.38488 0.922967 -4.93541e-17
vn 0.38488 0.922967 -4.93541e-17
vn -0.816054 0.577975 5.05556e-16
vn -0.483523 0.875332 3.83825e-16
vn -0.054771 0.998499 1.85714e-16
vn -0.816054 0.577975 5.05556e-16
vn -0.483523 0.875332 3.83825e-16
vn -0.054771 0.998499 1.85714e-16
f 152//152 146//146 145//145 
f 152//152 145//145 149//149 
f 151//151 149//149 148//148 
f 151//151 152//152 149//149 
f 150//150 148//148 147//147 
f 150//150 151//151 148//148 

g Face_13
v 0.1861333431867751 -0.256446522887591 -0.12179999999999998
v 0.1861333431867751 -0.256446522887591 -0.11419999999999998
v 0.18513542070904562 -0.256411440768596 -0.12179999999999998
v 0.1854617150888904 -0.256268007874324 -0.12179999999999998
v 0.18581800890388908 -0.256280533021611 -0.12179999999999998
v 0.18513542070904562 -0.256411440768596 -0.11419999999999998
v 0.1854617150888904 -0.256268007874324 -0.11419999999999998
v 0.1858180089038891 -0.256280533021611 -0.11419999999999998
vn 0.651144 0.758954 -2.10422e-16
vn 0.651144 0.758954 -2.10422e-16
vn -0.59624 0.802806 4.29559e-16
vn -0.188377 0.982097 2.50925e-16
vn 0.256879 0.966444 2.24825e-17
vn -0.59624 0.802806 4.29559e-16
vn -0.188377 0.982097 2.50925e-16
vn 0.256879 0.966444 2.24825e-17
f 160//160 154//154 153//153 
f 160//160 153//153 157//157 
f 159//159 157//157 156//156 
f 159//159 160//160 157//157 
f 158//158 156//156 155//155 
f 158//158 159//159 156//156 

g Face_14
v 0.18510223772162152 -0.257669856946605 -0.12179999999999998
v 0.18510223772162152 -0.257669856946605 -0.11419999999999998
v 0.1861005174694072 -0.257687596448692 -0.12179999999999998
v 0.1857767762517229 -0.257836633593509 -0.12179999999999998
v 0.1854204191827618 -0.257830300933568 -0.12179999999999998
v 0.18610051746940723 -0.257687596448692 -0.11419999999999998
v 0.1857767762517229 -0.257836633593509 -0.11419999999999998
v 0.1854204191827618 -0.257830300933568 -0.11419999999999998
vn -0.637789 -0.770211 2.01864e-16
vn -0.637789 -0.770211 2.01864e-16
vn 0.610021 -0.792385 -4.34905e-16
vn 0.205379 -0.978683 -2.59013e-16
vn -0.24002 -0.970768 -3.1722e-17
vn 0.610021 -0.792385 -4.34905e-16
vn 0.205379 -0.978683 -2.59013e-16
vn -0.24002 -0.970768 -3.1722e-17
f 168//168 162//162 161//161 
f 168//168 161//161 165//165 
f 167//167 165//165 164//164 
f 167//167 168//168 165//165 
f 166//166 164//164 163//163 
f 166//166 167//167 164//164 

g Face_15
v 0.1876642079266 -0.26842572719476004 -0.12179999999999998
v 0.1877351239501 -0.26865367583369004 -0.12199999999999998
v 0.18739843190399 -0.26866410436947996 -0.12179999999999998
v 0.18705550046982 -0.26876319928884 -0.12179999999999998
v 0.18670345957111 -0.26870319872779 -0.12179999999999998
v 0.18677583269703 -0.26893658766844 -0.12199999999999998
v 0.18745568856148 -0.26885998179266 -0.12199999999999998
v 0.18712258272238 -0.26895823541878 -0.12199999999999998
vn 0.577752 -0.40768 0.707107
vn 0.512346 -0.487342 0.707107
vn 0.342854 -0.618426 0.707107
vn 0.0396662 -0.705993 0.707107
vn -0.271423 -0.652939 0.707107
vn -0.165959 -0.687355 0.707107
vn 0.314742 -0.633196 0.707107
vn 0.0791666 -0.702661 0.707107
f 170//170 169//169 171//171 
f 175//175 170//170 171//171 
f 176//176 171//171 172//172 
f 176//176 175//175 171//171 
f 174//174 172//172 173//173 
f 174//174 176//176 172//172 

g Face_16
v 0.187257170307458 -0.26699536011372 -0.12199999999999998
v 0.1874074852021 -0.26755065558267 -0.12199999999999998
v 0.18756686656335 -0.268103549205 -0.12199999999999998
v 0.1877351239501 -0.26865367583369004 -0.12199999999999998
v 0.18745568856148 -0.26885998179266 -0.12199999999999998
v 0.18712258272238 -0.26895823541878 -0.12199999999999998
v 0.18677583269703 -0.26893658766844 -0.12199999999999998
v 0.18660678633331998 -0.26838223877342005 -0.12199999999999998
v 0.18644641079257002 -0.26782531754342 -0.12199999999999998
v 0.18629500069874 -0.26726603181694997 -0.12199999999999998
v 0.18657683953414902 -0.26706342049762 -0.12199999999999998
v 0.186911032928124 -0.26696944702839004 -0.12199999999999998
vn -5.07498e-16 1.58155e-16 -1
vn -5.07498e-16 1.58155e-16 -1
vn -5.07498e-16 1.58155e-16 -1
vn -5.07498e-16 1.58155e-16 -1
vn -5.07498e-16 1.58155e-16 -1
vn -5.07498e-16 1.58155e-16 -1
vn -5.07498e-16 1.58155e-16 -1
vn -5.07498e-16 1.58155e-16 -1
vn -5.07498e-16 1.58155e-16 -1
vn -5.07498e-16 1.58155e-16 -1
vn -5.07498e-16 1.58155e-16 -1
vn -5.07498e-16 1.58155e-16 -1
f 178//178 188//188 177//177 
f 187//187 188//188 178//178 
f 181//181 179//179 180//180 
f 185//185 186//186 187//187 
f 185//185 187//187 178//178 
f 184//184 178//178 179//179 
f 184//184 185//185 178//178 
f 182//182 184//184 179//179 
f 182//182 179//179 181//181 
f 183//183 184//184 182//182 

g Face_17
v 0.1861005174694072 -0.257687596448692 -0.12179999999999998
v 0.1860990992205559 -0.25792727145995903 -0.12199999999999998
v 0.1857767762517229 -0.257836633593509 -0.12179999999999998
v 0.1854204191827618 -0.257830300933568 -0.12179999999999998
v 0.18510223772162152 -0.257669856946605 -0.12179999999999998
v 0.1851008311594349 -0.257912882431739 -0.12199999999999998
v 0.18577158889227569 -0.258040943946977 -0.12199999999999998
v 0.1854249000152983 -0.258035945601713 -0.12199999999999998
vn 0.43135 -0.560301 0.707107
vn 0.344128 -0.617718 0.707107
vn 0.145225 -0.692033 0.707107
vn -0.16972 -0.686437 0.707107
vn -0.450985 -0.544622 0.707107
vn -0.361791 -0.607542 0.707107
vn 0.112526 -0.698096 0.707107
vn -0.132602 -0.694562 0.707107
f 190//190 189//189 191//191 
f 195//195 190//190 191//191 
f 196//196 191//191 192//192 
f 196//196 195//195 191//191 
f 194//194 192//192 193//193 
f 194//194 196//196 192//192 

g Face_18
v 0.1860990992205559 -0.25792727145995903 -0.12199999999999998
v 0.1861050213879267 -0.257353663977427 -0.12199999999999998
v 0.186120242305175 -0.25678022666613 -0.12199999999999998
v 0.1861447579656264 -0.25620711147332403 -0.12199999999999998
v 0.18577158889227569 -0.258040943946977 -0.12199999999999998
v 0.1854249000152983 -0.258035945601713 -0.12199999999999998
v 0.1851008311594349 -0.257912882431739 -0.12199999999999998
v 0.1851469237665322 -0.256168681516432 -0.12199999999999998
v 0.18512229677202557 -0.25674981256365603 -0.12199999999999998
v 0.1851068646345012 -0.25733126009444196 -0.12199999999999998
v 0.18547712732469418 -0.256062888763862 -0.12199999999999998
v 0.18582359612453628 -0.256076233212023 -0.12199999999999998
vn -5.07498e-16 1.58155e-16 -1
vn -5.07498e-16 1.58155e-16 -1
vn -5.07498e-16 1.58155e-16 -1
vn -5.07498e-16 1.58155e-16 -1
vn -5.07498e-16 1.58155e-16 -1
vn -5.07498e-16 1.58155e-16 -1
vn -5.07498e-16 1.58155e-16 -1
vn -5.07498e-16 1.58155e-16 -1
vn -5.07498e-16 1.58155e-16 -1
vn -5.07498e-16 1.58155e-16 -1
vn -5.07498e-16 1.58155e-16 -1
vn -5.07498e-16 1.58155e-16 -1
f 199//199 207//207 208//208 
f 199//199 208//208 200//200 
f 205//205 204//204 207//207 
f 205//205 207//207 199//199 
f 206//206 199//199 198//198 
f 206//206 205//205 199//199 
f 201//201 198//198 197//197 
f 202//202 206//206 198//198 
f 202//202 198//198 201//201 
f 203//203 206//206 202//202 

