mtllib Ressort_fil_Marteaux_Q.Heures_Heures.mtl
usemtl Ressort_fil_Marteaux_Q.Heures_Heures
#Wavefront export of shape 1-95--Ressort_fil_Marteaux_Q_Heures_Heures

g Face_1
v 0.055 0.0089 -0.1523890885
v 0.0511109115 0.0089 -0.1485
v 0.0565556354 0.0089 -0.1508334531
v 0.0526665469 0.0089 -0.1469443646
vn -0 1 -0
vn -0 1 -0
vn -0 1 -0
vn -0 1 -0
f 3//3 1//1 2//2 
f 3//3 2//2 4//4 

g Face_2
v 0.053420694193175 -0.18959099999999998 -0.147846332611525
v 0.053478679795603 -0.18959099999999998 -0.14772870960471698
v 0.053551564142521 -0.18959099999999998 -0.14761969209009898
v 0.053637566031396 -0.18959099999999998 -0.14752165524008398
v 0.055268661769115 -0.189604 -0.147846425949649
v 0.0543445782083473 -0.189601 -0.14922874864613128
v 0.053948031259244 -0.189596 -0.14853320433050599
v 0.0542792065197508 -0.189596 -0.1477330544943892
vn -0.00693489 -0.999972 0.00287033
vn -0.00693489 -0.999972 0.00287033
vn -0.00693489 -0.999972 0.00287033
vn -0.00693489 -0.999972 0.00287033
vn -0.00693489 -0.999972 0.00287033
vn -0.00693489 -0.999972 0.00287033
vn -0.00693489 -0.999972 0.00287033
vn -0.00693489 -0.999972 0.00287033
f 9//9 11//11 10//10 
f 12//12 11//11 9//9 
f 6//6 5//5 12//12 
f 7//7 6//6 12//12 
f 8//8 7//7 12//12 
f 8//8 12//12 9//9 
f 10//10 11//11 5//5 

g Face_3
v 0.054292893 -0.0006 -0.14779289299999998
v 0.055965925839675 -0.0006 -0.148241181160325
v 0.05570710700000001 -0.0006 -0.14920710699999998
v 0.054741181160325 -0.0006 -0.149465925839675
v 0.054292893 -0.0006 -0.14779289299999998
v 0.053637566031396 -0.18959099999999998 -0.14752165524008398
v 0.053420694193175 -0.18959099999999998 -0.147846332611525
v 0.053478679795603 -0.18959099999999998 -0.14772870960471698
v 0.053551564142521 -0.18959099999999998 -0.14761969209009898
v 0.053637566031396 -0.18959099999999998 -0.14752165524008398
v 0.055268661769115 -0.189604 -0.147846425949649
v 0.0543445782083473 -0.189601 -0.14922874864613128
v 0.055501584936236 -0.10644100000000001 -0.1477078280279
v 0.0555015799157763 -0.106444 -0.1491220399772897
v 0.05408737942152 -0.106438 -0.1491220420279
vn -0.707107 -0 0.707107
vn 0.965899 0 0.258918
vn 0.707107 -0 -0.707107
vn -0.258918 -0 -0.965899
vn -0.707107 -0 0.707107
vn -0.707083 0.00693334 0.707097
vn -0.923957 0.00750543 0.382422
vn -0.868326 0.00744546 0.495939
vn -0.79347 0.00724962 0.608567
vn -0.707083 0.00693334 0.707097
vn 0.924012 -0.00531067 0.382326
vn -6.83394e-05 -0.00286992 -0.999996
vn 0.707104 -0.0016095 0.707108
vn 0.707099 -0.00388269 -0.707104
vn -0.707104 0.0016095 -0.707108
f 25//25 14//14 13//13 
f 25//25 22//22 23//23 
f 25//25 13//13 22//22 
f 26//26 15//15 14//14 
f 26//26 16//16 15//15 
f 26//26 23//23 24//24 
f 26//26 25//25 23//23 
f 26//26 14//14 25//25 
f 27//27 17//17 16//16 
f 27//27 18//18 17//17 
f 27//27 19//19 20//20 
f 27//27 20//20 21//21 
f 27//27 21//21 18//18 
f 27//27 24//24 19//19 
f 27//27 26//26 24//24 
f 27//27 16//16 26//26 

g Face_4
v 0.053399889691021 -0.19259099999999998 -0.147837721462479
v 0.053428905826766 -0.19259199999999999 -0.148278988050294
v 0.053796624801297 -0.192595 -0.148524617930205
v 0.054215363667199 -0.192598 -0.148382444168357
v 0.053420694193175 -0.18959099999999998 -0.147846332611525
v 0.053948031259244 -0.189596 -0.14853320433050599
v 0.0542792065197508 -0.189596 -0.1477330544943892
v 0.053420694193175 -0.18959099999999998 -0.147846332611525
v 0.053399889691021 -0.19259099999999998 -0.147837721462479
v 0.05432372512087133 -0.192597 -0.14783754030873666
v 0.053861750770211 -0.192593 -0.147528949048789
vn -0.923957 0.00750543 0.382422
vn -0.865918 0.00456954 -0.500166
vn -0.130437 -0.00194129 -0.991455
vn 0.70709 -0.00693337 -0.70709
vn -0.923957 0.00750543 0.382422
vn 0.130782 -0.00375272 -0.991404
vn 0.793175 -0.00375272 0.608982
vn -0.923957 0.00750543 0.382422
vn -0.923957 0.00750543 0.382422
vn 0.923824 -0.00530806 0.382781
vn -0.000173923 0.0028716 0.999996
f 35//35 36//36 38//38 
f 34//34 37//37 31//31 
f 34//34 38//38 37//37 
f 34//34 35//35 38//38 
f 33//33 30//30 29//29 
f 33//33 31//31 30//30 
f 33//33 34//34 31//31 
f 32//32 29//29 28//28 
f 32//32 33//33 29//29 

g Face_5
v 0.054215363667199 -0.192598 -0.148382444168357
v 0.05432372512087133 -0.192597 -0.14783754030873666
v 0.053861750770211 -0.192593 -0.147528949048789
v 0.053399889691021 -0.19259099999999998 -0.147837721462479
v 0.053428905826766 -0.19259199999999999 -0.148278988050294
v 0.053796624801297 -0.192595 -0.148524617930205
vn -0.00693489 -0.999972 0.00287033
vn -0.00693489 -0.999972 0.00287033
vn -0.00693489 -0.999972 0.00287033
vn -0.00693489 -0.999972 0.00287033
vn -0.00693489 -0.999972 0.00287033
vn -0.00693489 -0.999972 0.00287033
f 40//40 41//41 42//42 
f 40//40 42//42 43//43 
f 40//40 43//43 44//44 
f 40//40 44//44 39//39 

g Face_6
v 0.05365649670000002 -0.0006 -0.14715649669999997
v 0.053307085432806 -0.0006 -0.149362584272946
v 0.05529722535638 -0.0006 -0.15037660540944
v 0.05687660540944 -0.0006 -0.14879722535638
v 0.055862584272946 -0.0006 -0.146807085432806
v 0.054292893 -0.0006 -0.14779289299999998
v 0.055965925839675 -0.0006 -0.148241181160325
v 0.054741181160325 -0.0006 -0.149465925839675
vn -0 -1 0
vn -0 -1 0
vn -0 -1 0
vn -0 -1 0
vn -0 -1 0
vn -0 -1 0
vn -0 -1 0
vn -0 -1 0
f 46//46 47//47 52//52 
f 51//51 47//47 48//48 
f 51//51 52//52 47//47 
f 50//50 46//46 52//52 
f 45//45 46//46 50//50 
f 49//49 50//50 51//51 
f 49//49 45//45 50//50 
f 49//49 51//51 48//48 

g Face_7
v 0.05340900925000001 -0.00024999999999999995 -0.14690900924999997
v 0.056021481115344 -0.00024999999999999995 -0.146495232861024
v 0.057222302950670004 -0.00024999999999999995 -0.14885197665139
v 0.05535197665139 -0.00024999999999999995 -0.15072230295067
v 0.052995232861024 -0.00024999999999999995 -0.149521481115344
v 0.05340900925000001 -0.00024999999999999995 -0.14690900924999997
v 0.05340900925000001 0.0034000000000000002 -0.14690900924999997
v 0.05340900925000001 0.0034000000000000002 -0.14690900924999997
v 0.056021481115344 0.0034000000000000002 -0.146495232861024
v 0.057222302950670004 0.0034000000000000002 -0.14885197665139
v 0.05535197665139 0.0034000000000000002 -0.15072230295067
v 0.052995232861024 0.0034000000000000002 -0.149521481115344
vn -0.707107 -0 0.707107
vn 0.45399 0 0.891007
vn 0.987688 0 -0.156434
vn 0.156434 0 -0.987688
vn -0.891007 0 -0.45399
vn -0.707107 -0 0.707107
vn -0.707107 -0 0.707107
vn -0.707107 -0 0.707107
vn 0.45399 0 0.891007
vn 0.987688 0 -0.156434
vn 0.156434 0 -0.987688
vn -0.891007 0 -0.45399
f 57//57 58//58 59//59 
f 57//57 59//59 64//64 
f 56//56 64//64 63//63 
f 56//56 57//57 64//64 
f 55//55 63//63 62//62 
f 55//55 56//56 63//63 
f 54//54 62//62 61//61 
f 54//54 55//55 62//62 
f 53//53 61//61 60//60 
f 53//53 54//54 61//61 

g Face_8
v 0.055 0.0034000000000000002 -0.1523890885
v 0.0511109115 0.0034000000000000002 -0.1485
v 0.0588890885 0.0034000000000000002 -0.1485
v 0.055 0.0034000000000000002 -0.1446109115
v 0.05340900925000001 0.0034000000000000002 -0.14690900924999997
v 0.056021481115344 0.0034000000000000002 -0.146495232861024
v 0.057222302950670004 0.0034000000000000002 -0.14885197665139
v 0.05535197665139 0.0034000000000000002 -0.15072230295067
v 0.052995232861024 0.0034000000000000002 -0.149521481115344
vn 0 -1 0
vn 0 -1 0
vn 0 -1 0
vn 0 -1 0
vn 0 -1 0
vn 0 -1 0
vn 0 -1 0
vn 0 -1 0
vn 0 -1 0
f 69//69 66//66 73//73 
f 65//65 73//73 66//66 
f 68//68 66//66 69//69 
f 72//72 73//73 65//65 
f 70//70 68//68 69//69 
f 67//67 70//70 71//71 
f 67//67 71//71 72//72 
f 67//67 72//72 65//65 
f 67//67 68//68 70//70 

g Face_9
v 0.055 0.0089 -0.1523890885
v 0.055 0.0034000000000000002 -0.1523890885
v 0.0511109115 0.0089 -0.1485
v 0.0511109115 0.0034000000000000002 -0.1485
vn -0.707107 0 -0.707107
vn -0.707107 0 -0.707107
vn -0.707107 0 -0.707107
vn -0.707107 0 -0.707107
f 74//74 77//77 76//76 
f 74//74 75//75 77//77 

g Face_10
v 0.0534443646 0.0089 -0.1461665469
v 0.05326758785 0.0074 -0.14634332365
v 0.055 0.0089 -0.1446109115
v 0.055 0.0034000000000000002 -0.1446109115
v 0.0511109115 0.0034000000000000002 -0.1485
v 0.0511109115 0.0089 -0.1485
v 0.0526665469 0.0089 -0.1469443646
v 0.05284332365 0.0074 -0.14676758785
vn -0.707107 -0 0.707107
vn -0.707107 -0 0.707107
vn -0.707107 -0 0.707107
vn -0.707107 -0 0.707107
vn -0.707107 -0 0.707107
vn -0.707107 -0 0.707107
vn -0.707107 -0 0.707107
vn -0.707107 -0 0.707107
f 79//79 81//81 80//80 
f 85//85 82//82 81//81 
f 85//85 81//81 79//79 
f 78//78 79//79 80//80 
f 83//83 85//85 84//84 
f 83//83 82//82 85//85 

g Face_11
v 0.055 0.0089 -0.1446109115
v 0.055 0.0034000000000000002 -0.1446109115
v 0.0588890885 0.0089 -0.1485
v 0.0588890885 0.0034000000000000002 -0.1485
vn 0.707107 -0 0.707107
vn 0.707107 -0 0.707107
vn 0.707107 -0 0.707107
vn 0.707107 -0 0.707107
f 86//86 89//89 88//88 
f 86//86 87//87 89//89 

g Face_12
v 0.055 0.0089 -0.1523890885
v 0.055 0.0034000000000000002 -0.1523890885
v 0.0588890885 0.0034000000000000002 -0.1485
v 0.0588890885 0.0089 -0.1485
v 0.0573334531 0.0089 -0.1500556354
v 0.05715667635 0.0074 -0.15023241215
v 0.05673241215 0.0074 -0.15065667635
v 0.0565556354 0.0089 -0.1508334531
vn 0.707107 -0 -0.707107
vn 0.707107 -0 -0.707107
vn 0.707107 -0 -0.707107
vn 0.707107 -0 -0.707107
vn 0.707107 -0 -0.707107
vn 0.707107 -0 -0.707107
vn 0.707107 -0 -0.707107
vn 0.707107 -0 -0.707107
f 96//96 91//91 90//90 
f 95//95 92//92 91//91 
f 95//95 91//91 96//96 
f 97//97 96//96 90//90 
f 93//93 95//95 94//94 
f 93//93 92//92 95//95 

g Face_13
v 0.055 0.0089 -0.1446109115
v 0.0588890885 0.0089 -0.1485
v 0.0534443646 0.0089 -0.1461665469
v 0.0573334531 0.0089 -0.1500556354
vn -0 1 -0
vn -0 1 -0
vn -0 1 -0
vn -0 1 -0
f 99//99 100//100 98//98 
f 99//99 101//101 100//100 

g Face_14
v 0.05365649670000002 -0.0006 -0.14715649669999997
v 0.053307085432806 -0.0006 -0.149362584272946
v 0.05529722535638 -0.0006 -0.15037660540944
v 0.05687660540944 -0.0006 -0.14879722535638
v 0.055862584272946 -0.0006 -0.146807085432806
v 0.05365649670000002 -0.0006 -0.14715649669999997
v 0.05340900925000001 -0.00024999999999999995 -0.14690900924999997
v 0.05340900925000001 -0.00024999999999999995 -0.14690900924999997
v 0.056021481115344 -0.00024999999999999995 -0.146495232861024
v 0.057222302950670004 -0.00024999999999999995 -0.14885197665139
v 0.05535197665139 -0.00024999999999999995 -0.15072230295067
v 0.052995232861024 -0.00024999999999999995 -0.149521481115344
vn -0.5 -0.707107 0.5
vn -0.630037 -0.707107 -0.32102
vn 0.110616 -0.707107 -0.698401
vn 0.698401 -0.707107 -0.110616
vn 0.32102 -0.707107 0.630037
vn -0.5 -0.707107 0.5
vn -0.5 -0.707107 0.5
vn -0.5 -0.707107 0.5
vn 0.32102 -0.707107 0.630037
vn 0.698401 -0.707107 -0.110616
vn 0.110616 -0.707107 -0.698401
vn -0.630037 -0.707107 -0.32102
f 110//110 107//107 106//106 
f 110//110 109//109 107//107 
f 111//111 106//106 105//105 
f 111//111 110//110 106//106 
f 112//112 105//105 104//104 
f 112//112 111//111 105//105 
f 113//113 104//104 103//103 
f 113//113 112//112 104//104 
f 108//108 103//103 102//102 
f 108//108 113//113 103//103 

g Face_15
v 0.05284332365 0.0074 -0.14676758785
v 0.05673241215 0.0074 -0.15065667635
v 0.0526665469 0.0089 -0.1469443646
v 0.0565556354 0.0089 -0.1508334531
vn 0.697486 0.164399 0.697486
vn 0.697486 0.164399 0.697486
vn 0.697486 0.164399 0.697486
vn 0.697486 0.164399 0.697486
f 114//114 117//117 116//116 
f 114//114 115//115 117//117 

g Face_16
v 0.05326758785 0.0074 -0.14634332365
v 0.05715667635 0.0074 -0.15023241215
v 0.05284332365 0.0074 -0.14676758785
v 0.05673241215 0.0074 -0.15065667635
vn -0 1 -0
vn -0 1 -0
vn -0 1 -0
vn -0 1 -0
f 119//119 120//120 118//118 
f 119//119 121//121 120//120 

g Face_17
v 0.0534443646 0.0089 -0.1461665469
v 0.0573334531 0.0089 -0.1500556354
v 0.05326758785 0.0074 -0.14634332365
v 0.05715667635 0.0074 -0.15023241215
vn -0.697486 0.164399 -0.697486
vn -0.697486 0.164399 -0.697486
vn -0.697486 0.164399 -0.697486
vn -0.697486 0.164399 -0.697486
f 122//122 125//125 124//124 
f 122//122 123//123 125//125 

