mtllib Rivet_Cadran_email_instance_1.mtl
usemtl Rivet_Cadran_email_instance_1
#Wavefront export of shape 1-1-27--Rivet_Cadran_email-2

g Face_1
v 0.18542668641896004 -0.02308773815312001 -0.00019929300000000004
v 0.183381702769032 -0.023556916908304 4.285299999999993e-05
v 0.1832289042352 -0.025626669812 0.000434654
v 0.18517944920864 -0.02643666249648 0.0004346540000000001
v 0.186537757753992 -0.024867515476624 4.285300000000008e-05
v 0.184400094833032 -0.024206123456304 8.671199999999998e-05
v 0.185412124344368 -0.025023705591056 0.00015956800000000004
v 0.184199089602632 -0.025487156714224 0.000336884
vn -0.0758754 -0.182716 -0.980234
vn -0.0726379 -0.181973 -0.980617
vn -0.072396 -0.178696 -0.981237
vn -0.075484 -0.177414 -0.981237
vn -0.0776343 -0.179898 -0.980617
vn -0.0742501 -0.180945 -0.980686
vn -0.0758523 -0.179651 -0.980802
vn -0.0739319 -0.178917 -0.981082
f 7//7 5//5 4//4 
f 8//8 7//7 4//4 
f 3//3 8//8 4//4 
f 6//6 8//8 3//3 
f 1//1 7//7 6//6 
f 1//1 5//5 7//7 
f 2//2 1//1 6//6 
f 2//2 6//6 3//3 

g Face_2
v 0.18542668641896004 -0.02308773815312001 -0.00019929300000000004
v 0.183381702769032 -0.023556916908304 4.285299999999993e-05
v 0.1832289042352 -0.025626669812 0.000434654
v 0.18517944920864 -0.02643666249648 0.0004346540000000001
v 0.186537757753992 -0.024867515476624 4.285300000000008e-05
v 0.18521104145648 -0.02360703321056 0.0006544389999999998
v 0.18447355401667204 -0.02538297816198401 0.00113472
vn 0.36225 0.872335 0.32834
vn -0.619633 0.646619 0.444903
vn -0.692698 -0.346348 0.632624
vn 0.243588 -0.735155 0.632624
vn 0.895408 0.0174749 0.444903
vn 0.258739 0.62307 0.738131
vn -0.0952542 -0.229382 0.968664
f 14//14 9//9 10//10 
f 14//14 13//13 9//9 
f 15//15 10//10 11//11 
f 15//15 11//11 12//12 
f 15//15 12//12 13//13 
f 15//15 13//13 14//14 
f 15//15 14//14 10//10 

g Face_3
v 0.184400094833032 -0.024206123456304 8.671199999999998e-05
v 0.185412124344368 -0.025023705591056 0.00015956800000000004
v 0.184199089602632 -0.025487156714224 0.000336884
v 0.184400094833032 -0.024206123456304 8.671199999999998e-05
v 0.184400094833032 -0.024206123456304 -0.00030000000000000003
v 0.183983404745196 -0.024607884682552 -0.00030000000000000003
v 0.183976863093976 -0.025186676201552 -0.0003
v 0.18438436600000002 -0.02559775200000001 -0.00029999999999999987
v 0.18526341974876 -0.025366318198319998 -0.00029999999999999987
v 0.18527369387564802 -0.024457367258056 -0.0003
v 0.184400094833032 -0.024206123456304 -0.00030000000000000003
vn -0.36254 0.931968 -5.79999e-17
vn 0.987402 -0.158234 3.28334e-17
vn -0.630589 -0.776117 2.51496e-17
vn -0.36254 0.931968 -5.79999e-17
vn -0.36254 0.931968 -5.79999e-17
vn -0.918127 0.396287 -4.36294e-17
vn -0.926849 -0.375434 -3.27193e-18
vn -0.383512 -0.923536 3.90344e-17
vn 0.78856 -0.614958 5.19095e-17
vn 0.802258 0.596977 -1.14691e-17
vn -0.36254 0.931968 -5.79999e-17
f 25//25 16//16 17//17 
f 25//25 26//26 16//16 
f 24//24 25//25 17//17 
f 23//23 17//17 18//18 
f 23//23 24//24 17//17 
f 22//22 18//18 19//19 
f 22//22 23//23 18//18 
f 21//21 22//22 19//19 
f 20//20 21//21 19//19 

g Face_4
v 0.184400094833032 -0.024206123456304 -0.00030000000000000003
v 0.183983404745196 -0.024607884682552 -0.00030000000000000003
v 0.183976863093976 -0.025186676201552 -0.0003
v 0.18438436600000002 -0.02559775200000001 -0.00029999999999999987
v 0.18526341974876 -0.025366318198319998 -0.00029999999999999987
v 0.18527369387564802 -0.024457367258056 -0.0003
vn 2.48269e-17 -5.2576e-17 -1
vn 2.48269e-17 -5.2576e-17 -1
vn 2.48269e-17 -5.2576e-17 -1
vn 2.48269e-17 -5.2576e-17 -1
vn 2.48269e-17 -5.2576e-17 -1
vn 2.48269e-17 -5.2576e-17 -1
f 31//31 28//28 27//27 
f 31//31 29//29 28//28 
f 31//31 30//30 29//29 
f 31//31 27//27 32//32 

