mtllib Rivet_Cadran_email_instance_2.mtl
usemtl Rivet_Cadran_email_instance_2
#Wavefront export of shape 1-1-28--Rivet_Cadran_email-1

g Face_1
v 0.09004036600000001 -0.25278765200000003 -0.0018000000000000002
v 0.090784037179184 -0.252690424330728 -0.0018000000000000002
v 0.09107167117918401 -0.251997772330728 -0.0018
v 0.09061563399999999 -0.251402348 -0.0017999999999999997
v 0.09061563399999999 -0.251402348 -0.0002999999999998293
v 0.090784037179184 -0.252690424330728 -0.0002999999999998262
v 0.089584328820816 -0.252192227669272 -0.00029999999999982585
v 0.09061563399999999 -0.251402348 -0.0002999999999998293
v 0.09061563399999999 -0.251402348 -0.0017999999999999997
v 0.08987196282081601 -0.251499575669272 -0.0017999999999999997
v 0.089584328820816 -0.252192227669272 -0.0018
vn -0.383512 -0.923536 -3.37811e-16
vn 0.608049 -0.793899 -3.6102e-16
vn 0.991562 0.129637 -2.32094e-17
vn 0.383512 0.923536 3.37811e-16
vn 0.383512 0.923536 3.37811e-16
vn 0.608049 -0.793899 -3.6102e-16
vn -0.991562 -0.129637 2.32094e-17
vn 0.383512 0.923536 3.37811e-16
vn 0.383512 0.923536 3.37811e-16
vn -0.608049 0.793899 3.6102e-16
vn -0.991562 -0.129637 2.32094e-17
f 8//8 9//9 10//10 
f 7//7 10//10 11//11 
f 7//7 11//11 1//1 
f 7//7 8//8 10//10 
f 6//6 1//1 2//2 
f 6//6 2//2 3//3 
f 6//6 7//7 1//1 
f 5//5 3//3 4//4 
f 5//5 6//6 3//3 

g Face_2
v 0.09061563399999999 -0.251402348 -0.0002999999999998293
v 0.090784037179184 -0.252690424330728 -0.0002999999999998262
v 0.089584328820816 -0.252192227669272 -0.00029999999999982585
vn 1.33936e-15 2.64688e-15 1
vn 1.33936e-15 2.64688e-15 1
vn 1.33936e-15 2.64688e-15 1
f 12//12 14//14 13//13 

g Face_3
v 0.08984861000000001 -0.25324942 -0.0021000000000000003
v 0.08917358 -0.25161561 -0.0020999999999999994
v 0.09080739 -0.25094058 -0.0020999999999999994
v 0.09148242000000001 -0.25257439000000004 -0.0021000000000000003
v 0.08984861000000001 -0.25324942 -0.0021000000000000003
v 0.08984861000000001 -0.25324942 -0.0018000000000000004
v 0.08917358 -0.25161561 -0.0017999999999999997
v 0.09080739 -0.25094058 -0.0017999999999999995
v 0.09148242000000001 -0.25257439000000004 -0.0018000000000000002
v 0.08984861000000001 -0.25324942 -0.0018000000000000004
vn -0.383512 -0.923536 -2.90186e-16
vn -0.923536 0.383512 2.21835e-16
vn 0.383512 0.923536 2.90186e-16
vn 0.923536 -0.383512 -2.21835e-16
vn -0.383512 -0.923536 -2.90186e-16
vn -0.383512 -0.923536 -2.90186e-16
vn -0.923536 0.383512 2.21835e-16
vn 0.383512 0.923536 2.90186e-16
vn 0.923536 -0.383512 -2.21835e-16
vn -0.383512 -0.923536 -2.90186e-16
f 23//23 19//19 18//18 
f 23//23 24//24 19//19 
f 22//22 18//18 17//17 
f 22//22 23//23 18//18 
f 21//21 17//17 16//16 
f 21//21 22//22 17//17 
f 20//20 16//16 15//15 
f 20//20 21//21 16//16 

g Face_4
v 0.08984861000000001 -0.25324942 -0.0021000000000000003
v 0.08917358 -0.25161561 -0.0020999999999999994
v 0.09080739 -0.25094058 -0.0020999999999999994
v 0.09148242000000001 -0.25257439000000004 -0.0021000000000000003
vn -9.35828e-17 3.53073e-16 -1
vn -9.35828e-17 3.53073e-16 -1
vn -9.35828e-17 3.53073e-16 -1
vn -9.35828e-17 3.53073e-16 -1
f 25//25 26//26 27//27 
f 25//25 27//27 28//28 

g Face_5
v 0.08984861000000001 -0.25324942 -0.0018000000000000004
v 0.08917358 -0.25161561 -0.0017999999999999997
v 0.09080739 -0.25094058 -0.0017999999999999995
v 0.09148242000000001 -0.25257439000000004 -0.0018000000000000002
v 0.09061563399999999 -0.251402348 -0.0017999999999999997
v 0.08987196282081601 -0.251499575669272 -0.0017999999999999997
v 0.089584328820816 -0.252192227669272 -0.0018
v 0.09004036600000001 -0.25278765200000003 -0.0018000000000000002
v 0.090784037179184 -0.252690424330728 -0.0018000000000000002
v 0.09107167117918401 -0.251997772330728 -0.0018
vn 9.35828e-17 -3.53073e-16 1
vn 9.35828e-17 -3.53073e-16 1
vn 9.35828e-17 -3.53073e-16 1
vn 9.35828e-17 -3.53073e-16 1
vn 9.35828e-17 -3.53073e-16 1
vn 9.35828e-17 -3.53073e-16 1
vn 9.35828e-17 -3.53073e-16 1
vn 9.35828e-17 -3.53073e-16 1
vn 9.35828e-17 -3.53073e-16 1
vn 9.35828e-17 -3.53073e-16 1
f 38//38 32//32 31//31 
f 33//33 38//38 31//31 
f 37//37 32//32 38//38 
f 34//34 33//33 31//31 
f 30//30 35//35 34//34 
f 30//30 34//34 31//31 
f 29//29 36//36 35//35 
f 29//29 37//37 36//36 
f 29//29 32//32 37//37 
f 29//29 35//35 30//30 

