mtllib Rivet_Rebord_laiton_instance_3.mtl
usemtl Rivet_Rebord_laiton_instance_3
#Wavefront export of shape 1-1-25--Rivet_Rebord_laiton

g Face_1
v 0.248516 -0.248766 -0.0017999999999999997
v 0.247866481 -0.249141 -0.0018
v 0.247866481 -0.24989099999999997 -0.0018
v 0.248516 -0.250266 -0.0018000000000000002
v 0.248516 -0.250266 -0.0009500000000000016
v 0.248516 -0.250266 -0.0009500000000000016
v 0.24916551899999997 -0.249141 -0.0009500000000000015
v 0.247866481 -0.249141 -0.0009500000000000015
v 0.248516 -0.250266 -0.0018000000000000002
v 0.24916551899999997 -0.24989099999999997 -0.0018
v 0.24916551899999997 -0.249141 -0.0018
vn 1.22465e-16 1 6.12323e-17
vn -0.866025 0.5 3.06162e-17
vn -0.866025 -0.5 -3.06162e-17
vn -2.44929e-16 -1 -6.12323e-17
vn -2.44929e-16 -1 -6.12323e-17
vn 0 -1 -6.12323e-17
vn 0.866025 0.5 3.06162e-17
vn -0.866025 0.5 3.06162e-17
vn 0 -1 -6.12323e-17
vn 0.866025 -0.5 -3.06162e-17
vn 0.866025 0.5 3.06162e-17
f 6//6 9//9 10//10 
f 7//7 10//10 11//11 
f 7//7 11//11 1//1 
f 7//7 6//6 10//10 
f 8//8 1//1 2//2 
f 8//8 2//2 3//3 
f 8//8 7//7 1//1 
f 5//5 3//3 4//4 
f 5//5 8//8 3//3 

g Face_2
v 0.248516 -0.25151599999999996 -0.0009500000000000006
v 0.25041810999999997 -0.250134034 -0.0009500000000000004
v 0.24969156999999997 -0.24789797 -0.0009500000000000003
v 0.24734043 -0.24789797 -0.0009500000000000003
v 0.24661388999999997 -0.250134034 -0.0009500000000000004
v 0.248516 -0.250266 -0.0009500000000000016
v 0.24916551899999997 -0.249141 -0.0009500000000000015
v 0.247866481 -0.249141 -0.0009500000000000015
vn 0 6.12323e-17 -1
vn 0 6.12323e-17 -1
vn 0 6.12323e-17 -1
vn 0 6.12323e-17 -1
vn 0 6.12323e-17 -1
vn 0 6.12323e-17 -1
vn 0 6.12323e-17 -1
vn 0 6.12323e-17 -1
f 17//17 12//12 16//16 
f 19//19 17//17 16//16 
f 15//15 19//19 16//16 
f 13//13 17//17 18//18 
f 13//13 12//12 17//17 
f 14//14 18//18 19//19 
f 14//14 19//19 15//15 
f 14//14 13//13 18//18 

g Face_3
v 0.248516 -0.25151599999999996 -0.0009500000000000006
v 0.25041810999999997 -0.250134034 -0.0009500000000000004
v 0.24969156999999997 -0.24789797 -0.0009500000000000003
v 0.24734043 -0.24789797 -0.0009500000000000003
v 0.24661388999999997 -0.250134034 -0.0009500000000000004
v 0.248516 -0.248575684 -0.00013357899999999977
v 0.248516 -0.25069181 -0.00024376700000000028
vn -1.11022e-16 -0.8 0.6
vn 0.760846 -0.246882 0.600135
vn 0.47024 0.647217 0.599988
vn -0.47024 0.647217 0.599988
vn -0.760846 -0.246882 0.600135
vn -1.11022e-16 0.376127 0.926568
vn -1.11022e-16 -0.470325 0.882493
f 25//25 21//21 22//22 
f 25//25 22//22 23//23 
f 25//25 23//23 24//24 
f 26//26 20//20 21//21 
f 26//26 24//24 20//20 
f 26//26 25//25 24//24 
f 26//26 21//21 25//25 

g Face_4
v 0.248516 -0.248266 -0.0020999999999999994
v 0.249766 -0.249516 -0.0021
v 0.248516 -0.250766 -0.0021000000000000003
v 0.24726599999999999 -0.249516 -0.0021
v 0.248516 -0.248266 -0.0020999999999999994
v 0.248516 -0.248266 -0.0017999999999999997
v 0.249766 -0.249516 -0.0018
v 0.248516 -0.250766 -0.0018000000000000002
v 0.24726599999999999 -0.249516 -0.0018
v 0.248516 -0.248266 -0.0017999999999999997
vn 3.67394e-16 1 2.44929e-16
vn 1 -3.06162e-16 -7.4988e-32
vn -2.44929e-16 -1 -2.44929e-16
vn -1 1.83697e-16 4.49928e-32
vn 1.22465e-16 1 2.44929e-16
vn 3.67394e-16 1 2.44929e-16
vn 1 -3.06162e-16 -7.4988e-32
vn -2.44929e-16 -1 -2.44929e-16
vn -1 1.83697e-16 4.49928e-32
vn 1.22465e-16 1 2.44929e-16
f 35//35 31//31 30//30 
f 35//35 36//36 31//31 
f 34//34 30//30 29//29 
f 34//34 35//35 30//30 
f 33//33 29//29 28//28 
f 33//33 34//34 29//29 
f 32//32 28//28 27//27 
f 32//32 33//33 28//28 

g Face_5
v 0.248516 -0.248266 -0.0020999999999999994
v 0.249766 -0.249516 -0.0021
v 0.248516 -0.250766 -0.0021000000000000003
v 0.24726599999999999 -0.249516 -0.0021
vn 0 2.44929e-16 -1
vn 0 2.44929e-16 -1
vn 0 2.44929e-16 -1
vn 0 2.44929e-16 -1
f 38//38 39//39 40//40 
f 38//38 40//40 37//37 

g Face_6
v 0.248516 -0.248266 -0.0017999999999999997
v 0.249766 -0.249516 -0.0018
v 0.248516 -0.250766 -0.0018000000000000002
v 0.24726599999999999 -0.249516 -0.0018
v 0.248516 -0.250266 -0.0018000000000000002
v 0.24916551899999997 -0.24989099999999997 -0.0018
v 0.24916551899999997 -0.249141 -0.0018
v 0.248516 -0.248766 -0.0017999999999999997
v 0.247866481 -0.249141 -0.0018
v 0.247866481 -0.24989099999999997 -0.0018
vn -0 -2.44929e-16 1
vn -0 -2.44929e-16 1
vn -0 -2.44929e-16 1
vn -0 -2.44929e-16 1
vn -0 -2.44929e-16 1
vn -0 -2.44929e-16 1
vn -0 -2.44929e-16 1
vn -0 -2.44929e-16 1
vn -0 -2.44929e-16 1
vn -0 -2.44929e-16 1
f 50//50 44//44 43//43 
f 45//45 50//50 43//43 
f 49//49 44//44 50//50 
f 46//46 45//45 43//43 
f 41//41 48//48 47//47 
f 41//41 49//49 48//48 
f 41//41 44//44 49//49 
f 42//42 47//47 46//46 
f 42//42 46//46 43//43 
f 42//42 41//41 47//47 

