mtllib Rondelle_cuir_instance_9.mtl
usemtl Rondelle_cuir_instance_9
#Wavefront export of shape 1-99-8--Rondelle_cuir

g Face_1
v 0.207 0.059818500000000004 -0.057
v 0.21214229999999998 0.059818500000000004 -0.05887164
v 0.21487846 0.059818500000000004 -0.06361081
v 0.21392819999999999 0.059818500000000004 -0.069
v 0.20973615999999998 0.059818500000000004 -0.07251754
v 0.20426384 0.059818500000000004 -0.07251754
v 0.2000718 0.059818500000000004 -0.069
v 0.19912153999999999 0.059818500000000004 -0.06361081
v 0.2018577 0.059818500000000004 -0.05887164
v 0.207 0.059818500000000004 -0.0625
v 0.20937763999999998 0.059818500000000004 -0.064227458
v 0.20846946 0.059818500000000004 -0.06702254
v 0.20553053999999998 0.059818500000000004 -0.06702254
v 0.20462236 0.059818500000000004 -0.064227458
vn 0 1 0
vn 0 1 0
vn 0 1 0
vn 0 1 0
vn 0 1 0
vn 0 1 0
vn 0 1 0
vn 0 1 0
vn 0 1 0
vn 0 1 0
vn 0 1 0
vn 0 1 0
vn 0 1 0
vn 0 1 0
f 13//13 6//6 7//7 
f 14//14 7//7 8//8 
f 14//14 13//13 7//7 
f 12//12 5//5 6//6 
f 12//12 6//6 13//13 
f 9//9 14//14 8//8 
f 10//10 14//14 9//9 
f 4//4 5//5 12//12 
f 11//11 4//4 12//12 
f 1//1 10//10 9//9 
f 3//3 4//4 11//11 
f 2//2 11//11 10//10 
f 2//2 3//3 11//11 
f 2//2 10//10 1//1 

g Face_2
v 0.207 0.0583185 -0.057
v 0.21214229999999998 0.0583185 -0.05887164
v 0.21487846 0.0583185 -0.06361081
v 0.21392819999999999 0.0583185 -0.069
v 0.20973615999999998 0.0583185 -0.07251754
v 0.20426384 0.0583185 -0.07251754
v 0.2000718 0.0583185 -0.069
v 0.19912153999999999 0.0583185 -0.06361081
v 0.2018577 0.0583185 -0.05887164
v 0.207 0.0583185 -0.0625
v 0.20937763999999998 0.0583185 -0.064227458
v 0.20846946 0.0583185 -0.06702254
v 0.20553053999999998 0.0583185 -0.06702254
v 0.20462236 0.0583185 -0.064227458
vn -0 -1 -0
vn -0 -1 -0
vn -0 -1 -0
vn -0 -1 -0
vn -0 -1 -0
vn -0 -1 -0
vn -0 -1 -0
vn -0 -1 -0
vn -0 -1 -0
vn -0 -1 -0
vn -0 -1 -0
vn -0 -1 -0
vn -0 -1 -0
vn -0 -1 -0
f 27//27 21//21 20//20 
f 28//28 22//22 21//21 
f 28//28 21//21 27//27 
f 26//26 20//20 19//19 
f 26//26 27//27 20//20 
f 23//23 22//22 28//28 
f 24//24 23//23 28//28 
f 18//18 26//26 19//19 
f 25//25 26//26 18//18 
f 15//15 23//23 24//24 
f 17//17 25//25 18//18 
f 16//16 24//24 25//25 
f 16//16 25//25 17//17 
f 16//16 15//15 24//24 

g Face_3
v 0.207 0.059818500000000004 -0.057
v 0.21214229999999998 0.059818500000000004 -0.05887164
v 0.21487846 0.059818500000000004 -0.06361081
v 0.21392819999999999 0.059818500000000004 -0.069
v 0.20973615999999998 0.059818500000000004 -0.07251754
v 0.20426384 0.059818500000000004 -0.07251754
v 0.2000718 0.059818500000000004 -0.069
v 0.19912153999999999 0.059818500000000004 -0.06361081
v 0.2018577 0.059818500000000004 -0.05887164
v 0.207 0.059818500000000004 -0.057
v 0.207 0.0583185 -0.057
v 0.21214229999999998 0.0583185 -0.05887164
v 0.21487846 0.0583185 -0.06361081
v 0.21392819999999999 0.0583185 -0.069
v 0.20973615999999998 0.0583185 -0.07251754
v 0.20426384 0.0583185 -0.07251754
v 0.2000718 0.0583185 -0.069
v 0.19912153999999999 0.0583185 -0.06361081
v 0.2018577 0.0583185 -0.05887164
v 0.207 0.0583185 -0.057
vn 3.67394e-16 -0 1
vn 0.642788 -0 0.766044
vn 0.984808 -0 0.173648
vn 0.866025 0 -0.5
vn 0.34202 0 -0.939693
vn -0.34202 0 -0.939693
vn -0.866025 0 -0.5
vn -0.984808 0 0.173648
vn -0.642788 0 0.766044
vn 1.22465e-16 -0 1
vn 3.67394e-16 -0 1
vn 0.642788 -0 0.766044
vn 0.984808 -0 0.173648
vn 0.866025 0 -0.5
vn 0.34202 0 -0.939693
vn -0.34202 0 -0.939693
vn -0.866025 0 -0.5
vn -0.984808 0 0.173648
vn -0.642788 0 0.766044
vn 1.22465e-16 -0 1
f 47//47 38//38 37//37 
f 47//47 48//48 38//38 
f 46//46 37//37 36//36 
f 46//46 47//47 37//37 
f 45//45 36//36 35//35 
f 45//45 46//46 36//36 
f 44//44 35//35 34//34 
f 44//44 45//45 35//35 
f 43//43 34//34 33//33 
f 43//43 44//44 34//34 
f 42//42 33//33 32//32 
f 42//42 43//43 33//33 
f 41//41 32//32 31//31 
f 41//41 42//42 32//32 
f 40//40 31//31 30//30 
f 40//40 41//41 31//31 
f 39//39 30//30 29//29 
f 39//39 40//40 30//30 

g Face_4
v 0.207 0.059818500000000004 -0.0625
v 0.20937763999999998 0.059818500000000004 -0.064227458
v 0.20846946 0.059818500000000004 -0.06702254
v 0.20553053999999998 0.059818500000000004 -0.06702254
v 0.20462236 0.059818500000000004 -0.064227458
v 0.207 0.059818500000000004 -0.0625
v 0.207 0.0583185 -0.0625
v 0.20937763999999998 0.0583185 -0.064227458
v 0.20846946 0.0583185 -0.06702254
v 0.20553053999999998 0.0583185 -0.06702254
v 0.20462236 0.0583185 -0.064227458
v 0.207 0.0583185 -0.0625
vn -3.67394e-16 0 -1
vn -0.951057 0 -0.309017
vn -0.587785 -0 0.809017
vn 0.587785 -0 0.809017
vn 0.951057 -0 -0.309017
vn -1.22465e-16 0 -1
vn -3.67394e-16 0 -1
vn -0.951057 0 -0.309017
vn -0.587785 -0 0.809017
vn 0.587785 -0 0.809017
vn 0.951057 -0 -0.309017
vn -1.22465e-16 0 -1
f 59//59 53//53 54//54 
f 59//59 54//54 60//60 
f 58//58 52//52 53//53 
f 58//58 53//53 59//59 
f 57//57 51//51 52//52 
f 57//57 52//52 58//58 
f 56//56 50//50 51//51 
f 56//56 51//51 57//57 
f 55//55 49//49 50//50 
f 55//55 50//50 56//56 

