mtllib Roue_dente_etoile_Quarts.mtl
usemtl Roue_dente_etoile_Quarts
#Wavefront export of shape 1-59-4--Roue_dente_etoile_Quarts

g Face_1
v 0.223530200033 -0.22990065927875997 -0.1253
v 0.2249930471222 -0.23596180473203998 -0.1253
v 0.2342007855884 -0.23237981400753197 -0.1253
v 0.23025294400000001 -0.22755359999999997 -0.1253
v 0.240942481884 -0.22515744603099996 -0.1253
v 0.235291573621 -0.22252208082123998 -0.1253
v 0.2438828731324 -0.21572523361539997 -0.1253
v 0.23764812858456 -0.2158026667278 -0.1253
v 0.24243957655404 -0.20595126630699997 -0.1253
v 0.23685582389322002 -0.20872622286379997 -0.1253
v 0.23689842327747998 -0.19777149089759996 -0.1253
v 0.23307166306678 -0.20269431177779998 -0.1253
v 0.2283569767418 -0.19280595042999996 -0.1253
v 0.22704512747544 -0.19890159859979997 -0.1253
v 0.2185069528778 -0.19203819526795995 -0.1253
v 0.219969799967 -0.19809934072123997 -0.1253
v 0.20929921441160002 -0.19562018599246797 -0.1253
v 0.213247056 -0.20044639999999997 -0.1253
v 0.202557518116 -0.20284255396899997 -0.1253
v 0.208208426379 -0.20547791917875996 -0.1253
v 0.1996171268676 -0.21227476638459997 -0.1253
v 0.20585187141544 -0.21219733327219995 -0.1253
v 0.20106042344596 -0.22204873369299996 -0.12530000000000002
v 0.20664417610678 -0.21927377713619997 -0.1253
v 0.20660157672252003 -0.23022850910239998 -0.1253
v 0.21042833693322 -0.22530568822219996 -0.1253
v 0.2151430232582 -0.23519404956999998 -0.1253
v 0.21645487252456 -0.22909840140019996 -0.1253
v 0.218149825 -0.21625859449999996 -0.1253
v 0.22127116727352 -0.21822293669421997 -0.1253
v 0.22475307922236 -0.21700732345012397 -0.1253
v 0.22597361716234 -0.21352713631291997 -0.1253
v 0.22401367794166 -0.21040301457091998 -0.1253
v 0.22034914943644 -0.20998750740212396 -0.1253
v 0.21773949074048002 -0.21259348281821996 -0.1253
vn -1.60812e-16 -3.20206e-17 1
vn -1.60812e-16 -3.20206e-17 1
vn -1.60812e-16 -3.20206e-17 1
vn -1.60812e-16 -3.20206e-17 1
vn -1.60812e-16 -3.20206e-17 1
vn -1.60812e-16 -3.20206e-17 1
vn -1.60812e-16 -3.20206e-17 1
vn -1.60812e-16 -3.20206e-17 1
vn -1.60812e-16 -3.20206e-17 1
vn -1.60812e-16 -3.20206e-17 1
vn -1.60812e-16 -3.20206e-17 1
vn -1.60812e-16 -3.20206e-17 1
vn -1.60812e-16 -3.20206e-17 1
vn -1.60812e-16 -3.20206e-17 1
vn -1.60812e-16 -3.20206e-17 1
vn -1.60812e-16 -3.20206e-17 1
vn -1.60812e-16 -3.20206e-17 1
vn -1.60812e-16 -3.20206e-17 1
vn -1.60812e-16 -3.20206e-17 1
vn -1.60812e-16 -3.20206e-17 1
vn -1.60812e-16 -3.20206e-17 1
vn -1.60812e-16 -3.20206e-17 1
vn -1.60812e-16 -3.20206e-17 1
vn -1.60812e-16 -3.20206e-17 1
vn -1.60812e-16 -3.20206e-17 1
vn -1.60812e-16 -3.20206e-17 1
vn -1.60812e-16 -3.20206e-17 1
vn -1.60812e-16 -3.20206e-17 1
vn -1.60812e-16 -3.20206e-17 1
vn -1.60812e-16 -3.20206e-17 1
vn -1.60812e-16 -3.20206e-17 1
vn -1.60812e-16 -3.20206e-17 1
vn -1.60812e-16 -3.20206e-17 1
vn -1.60812e-16 -3.20206e-17 1
vn -1.60812e-16 -3.20206e-17 1
f 33//33 12//12 14//14 
f 34//34 14//14 16//16 
f 34//34 16//16 18//18 
f 34//34 33//33 14//14 
f 32//32 12//12 33//33 
f 32//32 10//10 12//12 
f 32//32 8//8 10//10 
f 35//35 18//18 20//20 
f 35//35 34//34 18//18 
f 22//22 35//35 20//20 
f 6//6 32//32 31//31 
f 6//6 8//8 32//32 
f 24//24 29//29 35//35 
f 24//24 35//35 22//22 
f 4//4 6//6 31//31 
f 26//26 29//29 24//24 
f 1//1 31//31 30//30 
f 1//1 4//4 31//31 
f 28//28 29//29 26//26 
f 28//28 1//1 30//30 
f 28//28 30//30 29//29 
f 1//1 3//3 4//4 
f 4//4 5//5 6//6 
f 6//6 7//7 8//8 
f 8//8 9//9 10//10 
f 10//10 11//11 12//12 
f 12//12 13//13 14//14 
f 14//14 15//15 16//16 
f 16//16 17//17 18//18 
f 18//18 19//19 20//20 
f 20//20 21//21 22//22 
f 22//22 23//23 24//24 
f 24//24 25//25 26//26 
f 26//26 27//27 28//28 
f 28//28 2//2 1//1 

g Face_2
v 0.23025294400000001 -0.22755359999999997 -0.128
v 0.2342007855884 -0.23237981400753197 -0.128
v 0.240942481884 -0.22515744603099996 -0.128
v 0.235291573621 -0.22252208082123998 -0.128
v 0.2438828731324 -0.21572523361539997 -0.128
v 0.23764812858456 -0.2158026667278 -0.128
v 0.24243957655404 -0.20595126630699997 -0.128
v 0.23685582389322002 -0.20872622286379997 -0.128
v 0.23689842327747998 -0.19777149089759996 -0.128
v 0.23307166306678 -0.20269431177779998 -0.128
v 0.2283569767418 -0.19280595042999996 -0.128
v 0.22704512747544 -0.19890159859979997 -0.128
v 0.2185069528778 -0.19203819526795995 -0.128
v 0.219969799967 -0.19809934072123997 -0.128
v 0.20929921441160002 -0.19562018599246797 -0.128
v 0.213247056 -0.20044639999999997 -0.128
v 0.202557518116 -0.20284255396899997 -0.128
v 0.208208426379 -0.20547791917875996 -0.128
v 0.1996171268676 -0.21227476638459997 -0.128
v 0.20585187141544 -0.21219733327219995 -0.128
v 0.20106042344596 -0.22204873369299996 -0.128
v 0.20664417610678 -0.21927377713619997 -0.128
v 0.20660157672252003 -0.23022850910239998 -0.128
v 0.21042833693322 -0.22530568822219996 -0.128
v 0.2151430232582 -0.23519404956999998 -0.128
v 0.21645487252456 -0.22909840140019996 -0.128
v 0.2249930471222 -0.23596180473203998 -0.128
v 0.223530200033 -0.22990065927875997 -0.128
v 0.2241624345 -0.21455241549999998 -0.128
v 0.22230241550000002 -0.21158756549999996 -0.128
v 0.2211975845 -0.21641243449999997 -0.128
v 0.2193375655 -0.21344758449999995 -0.128
vn 1.60812e-16 3.20206e-17 -1
vn 1.60812e-16 3.20206e-17 -1
vn 1.60812e-16 3.20206e-17 -1
vn 1.60812e-16 3.20206e-17 -1
vn 1.60812e-16 3.20206e-17 -1
vn 1.60812e-16 3.20206e-17 -1
vn 1.60812e-16 3.20206e-17 -1
vn 1.60812e-16 3.20206e-17 -1
vn 1.60812e-16 3.20206e-17 -1
vn 1.60812e-16 3.20206e-17 -1
vn 1.60812e-16 3.20206e-17 -1
vn 1.60812e-16 3.20206e-17 -1
vn 1.60812e-16 3.20206e-17 -1
vn 1.60812e-16 3.20206e-17 -1
vn 1.60812e-16 3.20206e-17 -1
vn 1.60812e-16 3.20206e-17 -1
vn 1.60812e-16 3.20206e-17 -1
vn 1.60812e-16 3.20206e-17 -1
vn 1.60812e-16 3.20206e-17 -1
vn 1.60812e-16 3.20206e-17 -1
vn 1.60812e-16 3.20206e-17 -1
vn 1.60812e-16 3.20206e-17 -1
vn 1.60812e-16 3.20206e-17 -1
vn 1.60812e-16 3.20206e-17 -1
vn 1.60812e-16 3.20206e-17 -1
vn 1.60812e-16 3.20206e-17 -1
vn 1.60812e-16 3.20206e-17 -1
vn 1.60812e-16 3.20206e-17 -1
vn 1.60812e-16 3.20206e-17 -1
vn 1.60812e-16 3.20206e-17 -1
vn 1.60812e-16 3.20206e-17 -1
vn 1.60812e-16 3.20206e-17 -1
f 65//65 49//49 47//47 
f 65//65 51//51 49//49 
f 65//65 47//47 45//45 
f 64//64 43//43 41//41 
f 64//64 65//65 45//45 
f 64//64 45//45 43//43 
f 67//67 53//53 51//51 
f 67//67 51//51 65//65 
f 55//55 53//53 67//67 
f 39//39 64//64 41//41 
f 57//57 55//55 67//67 
f 36//36 66//66 64//64 
f 36//36 64//64 39//39 
f 59//59 67//67 66//66 
f 59//59 57//57 67//67 
f 63//63 66//66 36//36 
f 61//61 59//59 66//66 
f 61//61 66//66 63//63 
f 36//36 39//39 38//38 
f 39//39 41//41 40//40 
f 41//41 43//43 42//42 
f 43//43 45//45 44//44 
f 45//45 47//47 46//46 
f 47//47 49//49 48//48 
f 49//49 51//51 50//50 
f 51//51 53//53 52//52 
f 53//53 55//55 54//54 
f 55//55 57//57 56//56 
f 57//57 59//59 58//58 
f 59//59 61//61 60//60 
f 61//61 63//63 62//62 
f 63//63 36//36 37//37 

g Face_3
v 0.23025294400000001 -0.22755359999999997 -0.128
v 0.23025294400000001 -0.22755359999999997 -0.1253
v 0.2342007855884 -0.23237981400753197 -0.128
v 0.2342007855884 -0.23237981400753197 -0.1253
vn 0.992157 0.125 1.63554e-16
vn 0.992157 0.125 1.63554e-16
vn 0.992157 0.125 1.63554e-16
vn 0.992157 0.125 1.63554e-16
f 71//71 68//68 69//69 
f 71//71 70//70 68//68 

g Face_4
v 0.240942481884 -0.22515744603099996 -0.128
v 0.240942481884 -0.22515744603099996 -0.1253
v 0.23025294400000001 -0.22755359999999997 -0.128
v 0.23025294400000001 -0.22755359999999997 -0.1253
vn -0.333279 -0.942828 -8.37853e-17
vn -0.333279 -0.942828 -8.37853e-17
vn -0.333279 -0.942828 -8.37853e-17
vn -0.333279 -0.942828 -8.37853e-17
f 75//75 72//72 73//73 
f 75//75 74//74 72//72 

g Face_5
v 0.235291573621 -0.22252208082123998 -0.128
v 0.235291573621 -0.22252208082123998 -0.1253
v 0.240942481884 -0.22515744603099996 -0.128
v 0.240942481884 -0.22515744603099996 -0.1253
vn 0.839667 0.543102 1.52419e-16
vn 0.839667 0.543102 1.52419e-16
vn 0.839667 0.543102 1.52419e-16
vn 0.839667 0.543102 1.52419e-16
f 79//79 76//76 77//77 
f 79//79 78//78 76//76 

g Face_6
v 0.2438828731324 -0.21572523361539997 -0.128
v 0.2438828731324 -0.21572523361539997 -0.1253
v 0.235291573621 -0.22252208082123998 -0.128
v 0.235291573621 -0.22252208082123998 -0.1253
vn 0.108804 -0.994063 -1.43336e-17
vn 0.108804 -0.994063 -1.43336e-17
vn 0.108804 -0.994063 -1.43336e-17
vn 0.108804 -0.994063 -1.43336e-17
f 83//83 80//80 81//81 
f 83//83 82//82 80//80 

g Face_7
v 0.23764812858456 -0.2158026667278 -0.128
v 0.23764812858456 -0.2158026667278 -0.1253
v 0.2438828731324 -0.21572523361539997 -0.128
v 0.2438828731324 -0.21572523361539997 -0.1253
vn 0.520871 0.853636 1.11096e-16
vn 0.520871 0.853636 1.11096e-16
vn 0.520871 0.853636 1.11096e-16
vn 0.520871 0.853636 1.11096e-16
f 87//87 84//84 85//85 
f 87//87 86//86 84//84 

g Face_8
v 0.24243957655404 -0.20595126630699997 -0.128
v 0.24243957655404 -0.20595126630699997 -0.1253
v 0.23764812858456 -0.2158026667278 -0.128
v 0.23764812858456 -0.2158026667278 -0.1253
vn 0.529337 -0.848412 5.79571e-17
vn 0.529337 -0.848412 5.79571e-17
vn 0.529337 -0.848412 5.79571e-17
vn 0.529337 -0.848412 5.79571e-17
f 91//91 88//88 89//89 
f 91//91 90//90 88//88 

g Face_9
v 0.23685582389322002 -0.20872622286379997 -0.128
v 0.23685582389322002 -0.20872622286379997 -0.1253
v 0.24243957655404 -0.20595126630699997 -0.128
v 0.24243957655404 -0.20595126630699997 -0.1253
vn 0.0989097 0.995096 4.77695e-17
vn 0.0989097 0.995096 4.77695e-17
vn 0.0989097 0.995096 4.77695e-17
vn 0.0989097 0.995096 4.77695e-17
f 95//95 92//92 93//93 
f 95//95 94//94 92//92 

g Face_10
v 0.23689842327747998 -0.19777149089759996 -0.128
v 0.23689842327747998 -0.19777149089759996 -0.1253
v 0.23685582389322002 -0.20872622286379997 -0.128
v 0.23685582389322002 -0.20872622286379997 -0.1253
vn 0.845028 -0.534722 1.18769e-16
vn 0.845028 -0.534722 1.18769e-16
vn 0.845028 -0.534722 1.18769e-16
vn 0.845028 -0.534722 1.18769e-16
f 99//99 96//96 97//97 
f 99//99 98//98 96//96 

g Face_11
v 0.23307166306678 -0.20269431177779998 -0.128
v 0.23307166306678 -0.20269431177779998 -0.1253
v 0.23689842327747998 -0.19777149089759996 -0.128
v 0.23689842327747998 -0.19777149089759996 -0.1253
vn -0.342642 0.939466 -2.50187e-17
vn -0.342642 0.939466 -2.50187e-17
vn -0.342642 0.939466 -2.50187e-17
vn -0.342642 0.939466 -2.50187e-17
f 103//103 100//100 101//101 
f 103//103 102//102 100//100 

g Face_12
v 0.2283569767418 -0.19280595042999996 -0.128
v 0.2283569767418 -0.19280595042999996 -0.1253
v 0.23307166306678 -0.20269431177779998 -0.128
v 0.23307166306678 -0.20269431177779998 -0.1253
vn 0.993351 -0.115124 1.56057e-16
vn 0.993351 -0.115124 1.56057e-16
vn 0.993351 -0.115124 1.56057e-16
vn 0.993351 -0.115124 1.56057e-16
f 107//107 104//104 105//105 
f 107//107 106//106 104//104 

g Face_13
v 0.22704512747544 -0.19890159859979997 -0.128
v 0.22704512747544 -0.19890159859979997 -0.1253
v 0.2283569767418 -0.19280595042999996 -0.128
v 0.2283569767418 -0.19280595042999996 -0.1253
vn -0.716329 0.697763 -9.28516e-17
vn -0.716329 0.697763 -9.28516e-17
vn -0.716329 0.697763 -9.28516e-17
vn -0.716329 0.697763 -9.28516e-17
f 111//111 108//108 109//109 
f 111//111 110//110 108//108 

g Face_14
v 0.2185069528778 -0.19203819526795995 -0.128
v 0.2185069528778 -0.19203819526795995 -0.1253
v 0.22704512747544 -0.19890159859979997 -0.128
v 0.22704512747544 -0.19890159859979997 -0.1253
vn 0.944929 0.327276 1.62436e-16
vn 0.944929 0.327276 1.62436e-16
vn 0.944929 0.327276 1.62436e-16
vn 0.944929 0.327276 1.62436e-16
f 115//115 112//112 113//113 
f 115//115 114//114 112//112 

g Face_15
v 0.219969799967 -0.19809934072123997 -0.128
v 0.219969799967 -0.19809934072123997 -0.1253
v 0.2185069528778 -0.19203819526795995 -0.128
v 0.2185069528778 -0.19203819526795995 -0.1253
vn -0.948138 0.31786 -1.42294e-16
vn -0.948138 0.31786 -1.42294e-16
vn -0.948138 0.31786 -1.42294e-16
vn -0.948138 0.31786 -1.42294e-16
f 119//119 116//116 117//117 
f 119//119 118//118 116//116 

g Face_16
v 0.20929921441160002 -0.19562018599246797 -0.128
v 0.20929921441160002 -0.19562018599246797 -0.1253
v 0.219969799967 -0.19809934072123997 -0.128
v 0.219969799967 -0.19809934072123997 -0.1253
vn 0.709352 0.704854 1.36642e-16
vn 0.709352 0.704854 1.36642e-16
vn 0.709352 0.704854 1.36642e-16
vn 0.709352 0.704854 1.36642e-16
f 123//123 120//120 121//121 
f 123//123 122//122 120//120 

g Face_17
v 0.213247056 -0.20044639999999997 -0.128
v 0.213247056 -0.20044639999999997 -0.1253
v 0.20929921441160002 -0.19562018599246797 -0.128
v 0.20929921441160002 -0.19562018599246797 -0.1253
vn -0.992157 -0.125 -1.63554e-16
vn -0.992157 -0.125 -1.63554e-16
vn -0.992157 -0.125 -1.63554e-16
vn -0.992157 -0.125 -1.63554e-16
f 127//127 124//124 125//125 
f 127//127 126//126 124//124 

g Face_18
v 0.202557518116 -0.20284255396899997 -0.128
v 0.202557518116 -0.20284255396899997 -0.1253
v 0.213247056 -0.20044639999999997 -0.128
v 0.213247056 -0.20044639999999997 -0.1253
vn 0.333279 0.942828 8.37853e-17
vn 0.333279 0.942828 8.37853e-17
vn 0.333279 0.942828 8.37853e-17
vn 0.333279 0.942828 8.37853e-17
f 131//131 128//128 129//129 
f 131//131 130//130 128//128 

g Face_19
v 0.208208426379 -0.20547791917875996 -0.128
v 0.208208426379 -0.20547791917875996 -0.1253
v 0.202557518116 -0.20284255396899997 -0.128
v 0.202557518116 -0.20284255396899997 -0.1253
vn -0.839667 -0.543102 -1.52419e-16
vn -0.839667 -0.543102 -1.52419e-16
vn -0.839667 -0.543102 -1.52419e-16
vn -0.839667 -0.543102 -1.52419e-16
f 135//135 132//132 133//133 
f 135//135 134//134 132//132 

g Face_20
v 0.1996171268676 -0.21227476638459997 -0.128
v 0.1996171268676 -0.21227476638459997 -0.1253
v 0.208208426379 -0.20547791917875996 -0.128
v 0.208208426379 -0.20547791917875996 -0.1253
vn -0.108804 0.994063 1.43336e-17
vn -0.108804 0.994063 1.43336e-17
vn -0.108804 0.994063 1.43336e-17
vn -0.108804 0.994063 1.43336e-17
f 139//139 136//136 137//137 
f 139//139 138//138 136//136 

g Face_21
v 0.20585187141544 -0.21219733327219995 -0.128
v 0.20585187141544 -0.21219733327219995 -0.1253
v 0.1996171268676 -0.21227476638459997 -0.128
v 0.1996171268676 -0.21227476638459997 -0.1253
vn -0.520871 -0.853636 -1.11096e-16
vn -0.520871 -0.853636 -1.11096e-16
vn -0.520871 -0.853636 -1.11096e-16
vn -0.520871 -0.853636 -1.11096e-16
f 143//143 140//140 141//141 
f 143//143 142//142 140//140 

g Face_22
v 0.20106042344596 -0.22204873369299996 -0.128
v 0.20106042344596 -0.22204873369299996 -0.12530000000000002
v 0.20585187141544 -0.21219733327219995 -0.128
v 0.20585187141544 -0.21219733327219995 -0.1253
vn -0.529337 0.848412 -5.79571e-17
vn -0.529337 0.848412 -5.79571e-17
vn -0.529337 0.848412 -5.79571e-17
vn -0.529337 0.848412 -5.79571e-17
f 147//147 144//144 145//145 
f 147//147 146//146 144//144 

g Face_23
v 0.20664417610678 -0.21927377713619997 -0.128
v 0.20664417610678 -0.21927377713619997 -0.1253
v 0.20106042344596 -0.22204873369299996 -0.128
v 0.20106042344596 -0.22204873369299996 -0.12530000000000002
vn -0.0989097 -0.995096 -4.77695e-17
vn -0.0989097 -0.995096 -4.77695e-17
vn -0.0989097 -0.995096 -4.77695e-17
vn -0.0989097 -0.995096 -4.77695e-17
f 151//151 148//148 149//149 
f 151//151 150//150 148//148 

g Face_24
v 0.20660157672252003 -0.23022850910239998 -0.128
v 0.20660157672252003 -0.23022850910239998 -0.1253
v 0.20664417610678 -0.21927377713619997 -0.128
v 0.20664417610678 -0.21927377713619997 -0.1253
vn -0.845028 0.534722 -1.18769e-16
vn -0.845028 0.534722 -1.18769e-16
vn -0.845028 0.534722 -1.18769e-16
vn -0.845028 0.534722 -1.18769e-16
f 155//155 152//152 153//153 
f 155//155 154//154 152//152 

g Face_25
v 0.21042833693322 -0.22530568822219996 -0.128
v 0.21042833693322 -0.22530568822219996 -0.1253
v 0.20660157672252003 -0.23022850910239998 -0.128
v 0.20660157672252003 -0.23022850910239998 -0.1253
vn 0.342642 -0.939466 2.50187e-17
vn 0.342642 -0.939466 2.50187e-17
vn 0.342642 -0.939466 2.50187e-17
vn 0.342642 -0.939466 2.50187e-17
f 159//159 156//156 157//157 
f 159//159 158//158 156//156 

g Face_26
v 0.2151430232582 -0.23519404956999998 -0.128
v 0.2151430232582 -0.23519404956999998 -0.1253
v 0.21042833693322 -0.22530568822219996 -0.128
v 0.21042833693322 -0.22530568822219996 -0.1253
vn -0.993351 0.115124 -1.56057e-16
vn -0.993351 0.115124 -1.56057e-16
vn -0.993351 0.115124 -1.56057e-16
vn -0.993351 0.115124 -1.56057e-16
f 163//163 160//160 161//161 
f 163//163 162//162 160//160 

g Face_27
v 0.21645487252456 -0.22909840140019996 -0.128
v 0.21645487252456 -0.22909840140019996 -0.1253
v 0.2151430232582 -0.23519404956999998 -0.128
v 0.2151430232582 -0.23519404956999998 -0.1253
vn 0.716329 -0.697763 9.28516e-17
vn 0.716329 -0.697763 9.28516e-17
vn 0.716329 -0.697763 9.28516e-17
vn 0.716329 -0.697763 9.28516e-17
f 167//167 164//164 165//165 
f 167//167 166//166 164//164 

g Face_28
v 0.2249930471222 -0.23596180473203998 -0.128
v 0.2249930471222 -0.23596180473203998 -0.1253
v 0.21645487252456 -0.22909840140019996 -0.128
v 0.21645487252456 -0.22909840140019996 -0.1253
vn -0.944929 -0.327276 -1.62436e-16
vn -0.944929 -0.327276 -1.62436e-16
vn -0.944929 -0.327276 -1.62436e-16
vn -0.944929 -0.327276 -1.62436e-16
f 171//171 168//168 169//169 
f 171//171 170//170 168//168 

g Face_29
v 0.223530200033 -0.22990065927875997 -0.128
v 0.223530200033 -0.22990065927875997 -0.1253
v 0.2249930471222 -0.23596180473203998 -0.128
v 0.2249930471222 -0.23596180473203998 -0.1253
vn 0.948138 -0.31786 1.42294e-16
vn 0.948138 -0.31786 1.42294e-16
vn 0.948138 -0.31786 1.42294e-16
vn 0.948138 -0.31786 1.42294e-16
f 175//175 172//172 173//173 
f 175//175 174//174 172//172 

g Face_30
v 0.2342007855884 -0.23237981400753197 -0.128
v 0.2342007855884 -0.23237981400753197 -0.1253
v 0.223530200033 -0.22990065927875997 -0.128
v 0.223530200033 -0.22990065927875997 -0.1253
vn -0.709352 -0.704854 -1.36642e-16
vn -0.709352 -0.704854 -1.36642e-16
vn -0.709352 -0.704854 -1.36642e-16
vn -0.709352 -0.704854 -1.36642e-16
f 179//179 176//176 177//177 
f 179//179 178//178 176//176 

g Face_31
v 0.218149825 -0.21625859449999996 -0.12510000000000002
v 0.21773949074048002 -0.21259348281821996 -0.12510000000000002
v 0.22034914943644 -0.20998750740212396 -0.1251
v 0.22401367794166 -0.21040301457091998 -0.1251
v 0.22597361716234 -0.21352713631291997 -0.1251
v 0.22475307922236 -0.21700732345012397 -0.1251
v 0.22127116727352 -0.21822293669421997 -0.12510000000000002
v 0.2193375655 -0.21344758449999995 -0.12510000000000002
v 0.2211975845 -0.21641243449999997 -0.12510000000000002
v 0.22230241550000002 -0.21158756549999996 -0.1251
v 0.2241624345 -0.21455241549999998 -0.1251
vn -1.60812e-16 -3.20206e-17 1
vn -1.60812e-16 -3.20206e-17 1
vn -1.60812e-16 -3.20206e-17 1
vn -1.60812e-16 -3.20206e-17 1
vn -1.60812e-16 -3.20206e-17 1
vn -1.60812e-16 -3.20206e-17 1
vn -1.60812e-16 -3.20206e-17 1
vn -1.60812e-16 -3.20206e-17 1
vn -1.60812e-16 -3.20206e-17 1
vn -1.60812e-16 -3.20206e-17 1
vn -1.60812e-16 -3.20206e-17 1
f 189//189 183//183 182//182 
f 190//190 184//184 183//183 
f 190//190 183//183 189//189 
f 187//187 182//182 181//181 
f 187//187 189//189 182//182 
f 185//185 184//184 190//190 
f 188//188 185//185 190//190 
f 180//180 188//188 187//187 
f 180//180 187//187 181//181 
f 186//186 188//188 180//180 
f 186//186 185//185 188//188 

g Face_32
v 0.218149825 -0.21625859449999996 -0.1253
v 0.22127116727352 -0.21822293669421997 -0.1253
v 0.22475307922236 -0.21700732345012397 -0.1253
v 0.22597361716234 -0.21352713631291997 -0.1253
v 0.22401367794166 -0.21040301457091998 -0.1253
v 0.22034914943644 -0.20998750740212396 -0.1253
v 0.21773949074048002 -0.21259348281821996 -0.1253
v 0.218149825 -0.21625859449999996 -0.1253
v 0.218149825 -0.21625859449999996 -0.12510000000000002
v 0.21773949074048002 -0.21259348281821996 -0.12510000000000002
v 0.22034914943644 -0.20998750740212396 -0.1251
v 0.22401367794166 -0.21040301457091998 -0.1251
v 0.22597361716234 -0.21352713631291997 -0.1251
v 0.22475307922236 -0.21700732345012397 -0.1251
v 0.22127116727352 -0.21822293669421997 -0.12510000000000002
v 0.218149825 -0.21625859449999996 -0.12510000000000002
vn -1 -2.00861e-16 -1.60812e-16
vn -0.62349 -0.781831 -1.253e-16
vn 0.222521 -0.974928 4.56629e-18
vn 0.900969 -0.433884 1.30994e-16
vn 0.900969 0.433884 1.5878e-16
vn 0.222521 0.974928 6.70019e-17
vn -0.62349 0.781831 -7.52301e-17
vn -1 4.40688e-17 -1.60812e-16
vn -1 4.40688e-17 -1.60812e-16
vn -0.62349 0.781831 -7.52301e-17
vn 0.222521 0.974928 6.70019e-17
vn 0.900969 0.433884 1.5878e-16
vn 0.900969 -0.433884 1.30994e-16
vn 0.222521 -0.974928 4.56629e-18
vn -0.62349 -0.781831 -1.253e-16
vn -1 -2.00861e-16 -1.60812e-16
f 197//197 198//198 199//199 
f 197//197 199//199 200//200 
f 196//196 200//200 201//201 
f 196//196 197//197 200//200 
f 195//195 201//201 202//202 
f 195//195 196//196 201//201 
f 194//194 202//202 203//203 
f 194//194 195//195 202//202 
f 193//193 203//203 204//204 
f 193//193 194//194 203//203 
f 192//192 204//204 205//205 
f 192//192 193//193 204//204 
f 191//191 205//205 206//206 
f 191//191 192//192 205//205 

g Face_33
v 0.2193375655 -0.21344758449999995 -0.12510000000000002
v 0.2211975845 -0.21641243449999997 -0.12510000000000002
v 0.2193375655 -0.21344758449999995 -0.128
v 0.2211975845 -0.21641243449999997 -0.128
vn 1 -4.26246e-17 1.60812e-16
vn 1 -4.26246e-17 1.60812e-16
vn 1 -4.26246e-17 1.60812e-16
vn 1 -4.26246e-17 1.60812e-16
f 208//208 209//209 207//207 
f 208//208 210//210 209//209 

g Face_34
v 0.22230241550000002 -0.21158756549999996 -0.1251
v 0.2193375655 -0.21344758449999995 -0.12510000000000002
v 0.22230241550000002 -0.21158756549999996 -0.128
v 0.2193375655 -0.21344758449999995 -0.128
vn -1.66533e-16 -1 -3.20206e-17
vn -1.66533e-16 -1 -3.20206e-17
vn -1.66533e-16 -1 -3.20206e-17
vn -1.66533e-16 -1 -3.20206e-17
f 214//214 211//211 212//212 
f 214//214 213//213 211//211 

g Face_35
v 0.2241624345 -0.21455241549999998 -0.1251
v 0.22230241550000002 -0.21158756549999996 -0.1251
v 0.2241624345 -0.21455241549999998 -0.128
v 0.22230241550000002 -0.21158756549999996 -0.128
vn -1 4.26246e-17 -1.60812e-16
vn -1 4.26246e-17 -1.60812e-16
vn -1 4.26246e-17 -1.60812e-16
vn -1 4.26246e-17 -1.60812e-16
f 216//216 217//217 215//215 
f 216//216 218//218 217//217 

g Face_36
v 0.2211975845 -0.21641243449999997 -0.12510000000000002
v 0.2241624345 -0.21455241549999998 -0.1251
v 0.2211975845 -0.21641243449999997 -0.128
v 0.2241624345 -0.21455241549999998 -0.128
vn 1.66533e-16 1 3.20206e-17
vn 1.66533e-16 1 3.20206e-17
vn 1.66533e-16 1 3.20206e-17
vn 1.66533e-16 1 3.20206e-17
f 219//219 222//222 221//221 
f 219//219 220//220 222//222 

