mtllib Sautoir_Quantieme_tige.mtl
usemtl Sautoir_Quantieme_tige
#Wavefront export of shape 1-85--Sautoir_Quantieme_tige

g Face_1
v 0.006500000000000002 -0.113 -0.006499999999999995
v 0.006500000000000002 -0.1075 -0.006499999999999995
v 0.006500000000000002 -0.1125 -0.003999999999999995
v 0.006500000000000002 -0.108 -0.003999999999999995
vn -1 8.7697e-36 4.51028e-16
vn -1 8.7697e-36 4.51028e-16
vn -1 8.7697e-36 4.51028e-16
vn -1 8.7697e-36 4.51028e-16
f 4//4 2//2 1//1 
f 4//4 1//1 3//3 

g Face_2
v 0.006500000000000002 -0.1075 -0.006499999999999995
v 0.0165 -0.1075 -0.006499999999999999
v 0.006500000000000002 -0.108 -0.003999999999999995
v 0.016500000000000008 -0.108 -0.003999999999999999
vn 8.84539e-17 0.980581 0.196116
vn 8.84539e-17 0.980581 0.196116
vn 8.84539e-17 0.980581 0.196116
vn 8.84539e-17 0.980581 0.196116
f 8//8 6//6 5//5 
f 8//8 5//5 7//7 

g Face_3
v 0.006500000000000002 -0.108 -0.003999999999999995
v 0.016500000000000008 -0.108 -0.003999999999999999
v 0.006500000000000002 -0.1125 -0.003999999999999995
v 0.016500000000000008 -0.1125 -0.003999999999999999
v 0.016500000000000008 -0.11301 -0.003999999999999999
v 0.0175 -0.11301 -0.004
v 0.0175 -0.10749 -0.004
v 0.016500000000000008 -0.10749 -0.003999999999999999
vn 4.51028e-16 -3.85494e-16 1
vn 4.51028e-16 -3.85494e-16 1
vn 4.51028e-16 -3.85494e-16 1
vn 4.51028e-16 -3.85494e-16 1
vn 4.51028e-16 -3.85494e-16 1
vn 4.51028e-16 -3.85494e-16 1
vn 4.51028e-16 -3.85494e-16 1
vn 4.51028e-16 -3.85494e-16 1
f 15//15 16//16 10//10 
f 12//12 10//10 9//9 
f 12//12 9//9 11//11 
f 14//14 12//12 13//13 
f 14//14 15//15 10//10 
f 14//14 10//10 12//12 

g Face_4
v 0.006500000000000002 -0.1125 -0.003999999999999995
v 0.016500000000000008 -0.1125 -0.003999999999999999
v 0.006500000000000002 -0.113 -0.006499999999999995
v 0.0165 -0.113 -0.006499999999999999
vn 8.84539e-17 -0.980581 0.196116
vn 8.84539e-17 -0.980581 0.196116
vn 8.84539e-17 -0.980581 0.196116
vn 8.84539e-17 -0.980581 0.196116
f 20//20 18//18 17//17 
f 20//20 17//17 19//19 

g Face_5
v 0.006500000000000002 -0.113 -0.006499999999999995
v 0.0165 -0.113 -0.006499999999999999
v 0.006500000000000002 -0.1075 -0.006499999999999995
v 0.0165 -0.1075 -0.006499999999999999
v 0.0165 -0.10699 -0.006499999999999999
v 0.0175 -0.10699 -0.0065
v 0.0175 -0.11025 -0.0065
v 0.0175 -0.11351 -0.0065
v 0.0165 -0.11351 -0.006499999999999999
vn -4.51028e-16 -1.57702e-16 -1
vn -4.51028e-16 -1.57702e-16 -1
vn -4.51028e-16 -1.57702e-16 -1
vn -4.51028e-16 -1.57702e-16 -1
vn -4.51028e-16 -1.57702e-16 -1
vn -4.51028e-16 -1.57702e-16 -1
vn -4.51028e-16 -1.57702e-16 -1
vn -4.51028e-16 -1.57702e-16 -1
vn -4.51028e-16 -1.57702e-16 -1
f 28//28 29//29 22//22 
f 27//27 28//28 22//22 
f 24//24 22//22 21//21 
f 24//24 21//21 23//23 
f 24//24 27//27 22//22 
f 26//26 24//24 25//25 
f 26//26 27//27 24//24 

g Face_6
v 0.0165 -0.10699 -0.006499999999999999
v 0.016500000000000008 -0.10749 -0.003999999999999999
v 0.016500000000000008 -0.108 -0.003999999999999999
v 0.0165 -0.1075 -0.006499999999999999
vn -1 8.7697e-36 4.51028e-16
vn -1 8.7697e-36 4.51028e-16
vn -1 8.7697e-36 4.51028e-16
vn -1 8.7697e-36 4.51028e-16
f 33//33 32//32 31//31 
f 30//30 33//33 31//31 

g Face_7
v 0.016500000000000008 -0.11301 -0.003999999999999999
v 0.0165 -0.11351 -0.006499999999999999
v 0.0165 -0.113 -0.006499999999999999
v 0.016500000000000008 -0.1125 -0.003999999999999999
vn -1 8.7697e-36 4.51028e-16
vn -1 8.7697e-36 4.51028e-16
vn -1 8.7697e-36 4.51028e-16
vn -1 8.7697e-36 4.51028e-16
f 36//36 35//35 34//34 
f 36//36 34//34 37//37 

g Face_8
v 0.0175 -0.11301 -0.004
v 0.016500000000000008 -0.11301 -0.003999999999999999
v 0.0175 -0.11351 -0.0065
v 0.0165 -0.11351 -0.006499999999999999
vn 8.84539e-17 -0.980581 0.196116
vn 8.84539e-17 -0.980581 0.196116
vn 8.84539e-17 -0.980581 0.196116
vn 8.84539e-17 -0.980581 0.196116
f 38//38 41//41 40//40 
f 38//38 39//39 41//41 

g Face_9
v 0.0175 -0.10699 -0.0065
v 0.0165 -0.10699 -0.006499999999999999
v 0.0175 -0.10749 -0.004
v 0.016500000000000008 -0.10749 -0.003999999999999999
vn 8.84539e-17 0.980581 0.196116
vn 8.84539e-17 0.980581 0.196116
vn 8.84539e-17 0.980581 0.196116
vn 8.84539e-17 0.980581 0.196116
f 42//42 45//45 44//44 
f 42//42 43//43 45//45 

g Face_10
v 0.0175 -0.11025 -0.0065
v 0.0175 -0.10699 -0.0065
v 0.0175 -0.10749 -0.004
v 0.0175 -0.11301 -0.004
v 0.0175 -0.11351 -0.0065
v 0.0175 -0.110552 -0.00632769
v 0.0175 -0.110473 -0.00641945
v 0.0175 -0.110369 -0.00647925
v 0.0175 -0.110552 -0.00487231
v 0.0175 -0.110727 -0.00534692
v 0.0175 -0.110727 -0.00585308
v 0.0175 -0.109948 -0.00487231
v 0.0175 -0.110131 -0.00472075
v 0.0175 -0.110369 -0.00472075
v 0.0175 -0.109948 -0.00632769
v 0.0175 -0.109773 -0.00585308
v 0.0175 -0.109773 -0.00534692
v 0.0175 -0.110131 -0.00647925
v 0.0175 -0.110027 -0.00641945
vn 1 -8.7697e-36 -4.51028e-16
vn 1 -8.7697e-36 -4.51028e-16
vn 1 -8.7697e-36 -4.51028e-16
vn 1 -8.7697e-36 -4.51028e-16
vn 1 -8.7697e-36 -4.51028e-16
vn 1 -8.7697e-36 -4.51028e-16
vn 1 -8.7697e-36 -4.51028e-16
vn 1 -8.7697e-36 -4.51028e-16
vn 1 -8.7697e-36 -4.51028e-16
vn 1 -8.7697e-36 -4.51028e-16
vn 1 -8.7697e-36 -4.51028e-16
vn 1 -8.7697e-36 -4.51028e-16
vn 1 -8.7697e-36 -4.51028e-16
vn 1 -8.7697e-36 -4.51028e-16
vn 1 -8.7697e-36 -4.51028e-16
vn 1 -8.7697e-36 -4.51028e-16
vn 1 -8.7697e-36 -4.51028e-16
vn 1 -8.7697e-36 -4.51028e-16
vn 1 -8.7697e-36 -4.51028e-16
f 59//59 49//49 54//54 
f 55//55 49//49 50//50 
f 55//55 54//54 49//49 
f 56//56 55//55 50//50 
f 51//51 56//56 50//50 
f 52//52 51//51 50//50 
f 53//53 52//52 50//50 
f 48//48 58//58 57//57 
f 48//48 59//59 58//58 
f 48//48 57//57 62//62 
f 48//48 49//49 59//59 
f 47//47 61//61 60//60 
f 47//47 62//62 61//61 
f 47//47 64//64 63//63 
f 47//47 60//60 64//64 
f 47//47 48//48 62//62 
f 46//46 47//47 63//63 
f 50//50 46//46 53//53 

g Face_11
v 0.12628699999999998 -0.10462 0.0026663999999999508
v 0.126284 -0.10476 0.002179999999999951
v 0.12628499999999998 -0.104723 0.0016752999999999508
v 0.12629 -0.104512 0.0012149999999999505
v 0.126304 -0.104019 0.0027109999999999496
v 0.12629800000000002 -0.104212 0.002848599999999951
v 0.12629200000000002 -0.104449 0.00283099999999995
v 0.126307 -0.103911 0.001259599999999951
v 0.126311 -0.103771 0.0017458999999999496
v 0.12631 -0.103808 0.002250699999999951
v 0.12629600000000002 -0.104319 0.0010773999999999506
v 0.126302 -0.104082 0.0010948999999999508
vn 0.999627 -0.0273198 2.35055e-15
vn 0.999627 -0.0273198 2.35055e-15
vn 0.999627 -0.0273198 2.35055e-15
vn 0.999627 -0.0273198 2.35055e-15
vn 0.999627 -0.0273198 2.35055e-15
vn 0.999627 -0.0273198 2.35055e-15
vn 0.999627 -0.0273198 2.35055e-15
vn 0.999627 -0.0273198 2.35055e-15
vn 0.999627 -0.0273198 2.35055e-15
vn 0.999627 -0.0273198 2.35055e-15
vn 0.999627 -0.0273198 2.35055e-15
vn 0.999627 -0.0273198 2.35055e-15
f 72//72 68//68 75//75 
f 72//72 75//75 76//76 
f 73//73 67//67 68//68 
f 73//73 68//68 72//72 
f 74//74 66//66 67//67 
f 74//74 67//67 73//73 
f 69//69 65//65 66//66 
f 69//69 70//70 71//71 
f 69//69 71//71 65//65 
f 69//69 66//66 74//74 

g Face_12
v 0.0175 -0.110552 -0.00487231
v 0.0175 -0.110727 -0.00534692
v 0.0175 -0.110727 -0.00585308
v 0.0175 -0.110552 -0.00632769
v 0.031987 -0.108931 -0.006375500000000006
v 0.0451142 -0.104444 -0.005784960000000013
v 0.0562651 -0.102198 -0.0035822900000000175
v 0.0744205 -0.102757 0.0006922499999999741
v 0.08399910000000001 -0.103189 0.0017217999999999695
v 0.0955521 -0.103618 0.0018305999999999635
v 0.12629 -0.104512 0.0012149999999999505
v 0.12628699999999998 -0.10462 0.0026663999999999508
v 0.126284 -0.10476 0.002179999999999951
v 0.12628499999999998 -0.104723 0.0016752999999999508
v 0.0319623 -0.108937 -0.004920110000000006
v 0.044918400000000004 -0.104509 -0.004343700000000012
v 0.056020600000000004 -0.102283 -0.0021461400000000177
v 0.07436720000000001 -0.102863 0.002154499999999974
v 0.0840258 -0.103298 0.0031768999999999686
v 0.0956784 -0.10373 0.0032796999999999635
vn 2.13817e-16 -0.861538 0.507692
vn 1.09604e-16 -0.984288 0.176571
vn -1.0961e-16 -0.984288 -0.176571
vn -2.87248e-16 -0.861538 -0.507692
vn 0.196213 -0.839055 -0.507432
vn 0.33919 -0.794636 -0.503491
vn 0.18284 -0.826885 -0.531818
vn 0.0522429 -0.824775 -0.563042
vn -0.00360125 -0.822105 -0.569324
vn -0.0391897 -0.82082 -0.569841
vn -0.0224457 -0.821285 -0.570076
vn -0.0244993 -0.896423 0.442523
vn -0.0271739 -0.994287 0.103223
vn -0.0264597 -0.968155 -0.24895
vn 0.19412 -0.83965 0.507252
vn 0.232418 -0.829534 0.507794
vn -0.0633701 -0.890726 0.450102
vn -0.113233 -0.892649 0.436299
vn -0.0604502 -0.895007 0.441937
vn -0.0204843 -0.896518 0.442533
f 91//91 77//77 78//78 
f 91//91 78//78 79//79 
f 81//81 79//79 80//80 
f 81//81 91//91 79//79 
f 92//92 91//91 81//81 
f 82//82 92//92 81//81 
f 83//83 93//93 92//92 
f 83//83 92//92 82//82 
f 84//84 94//94 93//93 
f 84//84 93//93 83//83 
f 85//85 95//95 94//94 
f 85//85 94//94 84//84 
f 86//86 96//96 95//95 
f 86//86 95//95 85//85 
f 89//89 88//88 96//96 
f 90//90 89//89 96//96 
f 87//87 96//96 86//86 
f 87//87 90//90 96//96 

g Face_13
v 0.0175 -0.109948 -0.00487231
v 0.0175 -0.110131 -0.00472075
v 0.0175 -0.110369 -0.00472075
v 0.0175 -0.110552 -0.00487231
v 0.0319623 -0.108937 -0.004920110000000006
v 0.044918400000000004 -0.104509 -0.004343700000000012
v 0.056020600000000004 -0.102283 -0.0021461400000000177
v 0.07436720000000001 -0.102863 0.002154499999999974
v 0.0840258 -0.103298 0.0031768999999999686
v 0.0956784 -0.10373 0.0032796999999999635
v 0.12628699999999998 -0.10462 0.0026663999999999508
v 0.126304 -0.104019 0.0027109999999999496
v 0.12629800000000002 -0.104212 0.002848599999999951
v 0.12629200000000002 -0.104449 0.00283099999999995
v 0.031876100000000004 -0.108338 -0.0049200600000000065
v 0.044814200000000005 -0.103905 -0.004334030000000012
v 0.055906 -0.101687 -0.0021355300000000165
v 0.07420410000000001 -0.102254 0.002169099999999974
v 0.0839201 -0.102692 0.0032145999999999703
v 0.0955998 -0.103125 0.0033262999999999644
vn 1.86202e-16 0.861538 0.507692
vn 4.75384e-16 0.339229 0.940704
vn 5.9202e-16 -0.339229 0.940704
vn 3.00561e-16 -0.861538 0.507692
vn 0.194097 -0.839551 0.507425
vn 0.232446 -0.829582 0.507704
vn -0.0633696 -0.890727 0.4501
vn -0.113233 -0.892649 0.436298
vn -0.0604502 -0.895007 0.441937
vn -0.0204843 -0.896518 0.442533
vn -0.0244993 -0.896423 0.442523
vn 0.0224457 0.821285 0.570076
vn 0.00733978 0.268561 0.963235
vn -0.0111447 -0.407783 0.913011
vn -0.196569 0.838868 0.507604
vn -0.338972 0.794805 0.503372
vn -0.182616 0.826887 0.531892
vn -0.0522494 0.824775 0.563041
vn 0.00348677 0.82211 0.569319
vn 0.0392 0.82082 0.569841
f 101//101 97//97 98//98 
f 101//101 98//98 99//99 
f 101//101 99//99 100//100 
f 101//101 111//111 97//97 
f 102//102 112//112 111//111 
f 102//102 111//111 101//101 
f 103//103 113//113 112//112 
f 103//103 112//112 102//102 
f 114//114 113//113 103//103 
f 104//104 114//114 103//103 
f 115//115 114//114 104//104 
f 105//105 115//115 104//104 
f 116//116 115//115 105//105 
f 106//106 116//116 105//105 
f 108//108 116//116 106//106 
f 109//109 108//108 106//106 
f 110//110 109//109 106//106 
f 107//107 110//110 106//106 

g Face_14
v 0.0175 -0.109948 -0.00632769
v 0.0175 -0.109773 -0.00585308
v 0.0175 -0.109773 -0.00534692
v 0.0175 -0.109948 -0.00487231
v 0.031876100000000004 -0.108338 -0.0049200600000000065
v 0.044814200000000005 -0.103905 -0.004334030000000012
v 0.055906 -0.101687 -0.0021355300000000165
v 0.07420410000000001 -0.102254 0.002169099999999974
v 0.0839201 -0.102692 0.0032145999999999703
v 0.0955998 -0.103125 0.0033262999999999644
v 0.126304 -0.104019 0.0027109999999999496
v 0.126307 -0.103911 0.001259599999999951
v 0.126311 -0.103771 0.0017458999999999496
v 0.12631 -0.103808 0.002250699999999951
v 0.031901 -0.108332 -0.0063754500000000065
v 0.045012800000000006 -0.103839 -0.005774890000000012
v 0.0561522 -0.101602 -0.0035711900000000175
v 0.0742679 -0.102148 0.0007081899999999749
v 0.0839009 -0.102583 0.0017597999999999694
v 0.0954783 -0.103014 0.0018771999999999643
vn -3.04973e-16 0.861538 -0.507692
vn -7.44635e-17 0.984288 -0.176571
vn 7.44592e-17 0.984288 0.176571
vn 2.06526e-16 0.861538 0.507692
vn -0.196593 0.838973 0.507421
vn -0.33896 0.794728 0.503502
vn -0.182615 0.826891 0.531887
vn -0.0522493 0.824776 0.563041
vn 0.00348678 0.82211 0.569319
vn 0.0392 0.82082 0.569841
vn 0.0224457 0.821285 0.570076
vn 0.0244993 0.896423 -0.442523
vn 0.0271739 0.994287 -0.103223
vn 0.0264597 0.968155 0.24895
vn -0.195331 0.83938 -0.507234
vn -0.229265 0.830631 -0.507435
vn 0.0589259 0.8905 -0.451151
vn 0.114932 0.892566 -0.436024
vn 0.0617104 0.894954 -0.44187
vn 0.0208204 0.896508 -0.442538
f 131//131 117//117 118//118 
f 121//121 118//118 119//119 
f 121//121 119//119 120//120 
f 121//121 131//131 118//118 
f 122//122 132//132 131//131 
f 122//122 131//131 121//121 
f 133//133 132//132 122//122 
f 123//123 133//133 122//122 
f 134//134 133//133 123//123 
f 124//124 134//134 123//123 
f 135//135 134//134 124//124 
f 125//125 135//135 124//124 
f 136//136 135//135 125//125 
f 126//126 136//136 125//125 
f 128//128 136//136 126//126 
f 129//129 128//128 126//126 
f 130//130 129//129 126//126 
f 127//127 130//130 126//126 

g Face_15
v 0.0175 -0.110552 -0.00632769
v 0.0175 -0.110473 -0.00641945
v 0.0175 -0.110369 -0.00647925
v 0.0175 -0.11025 -0.0065
v 0.0175 -0.110131 -0.00647925
v 0.0175 -0.110027 -0.00641945
v 0.0175 -0.109948 -0.00632769
v 0.031901 -0.108332 -0.0063754500000000065
v 0.045012800000000006 -0.103839 -0.005774890000000012
v 0.0561522 -0.101602 -0.0035711900000000175
v 0.0742679 -0.102148 0.0007081899999999749
v 0.0839009 -0.102583 0.0017597999999999694
v 0.0954783 -0.103014 0.0018771999999999643
v 0.126307 -0.103911 0.001259599999999951
v 0.12629 -0.104512 0.0012149999999999505
v 0.12629600000000002 -0.104319 0.0010773999999999506
v 0.126302 -0.104082 0.0010948999999999508
v 0.031987 -0.108931 -0.006375500000000006
v 0.0451142 -0.104444 -0.005784960000000013
v 0.0562651 -0.102198 -0.0035822900000000175
v 0.0744205 -0.102757 0.0006922499999999741
v 0.08399910000000001 -0.103189 0.0017217999999999695
v 0.0955521 -0.103618 0.0018305999999999635
vn -2.05188e-16 -0.861538 -0.507692
vn -1.76465e-16 -0.638228 -0.769847
vn -2.36844e-16 -0.339229 -0.940704
vn -5.19899e-16 -6.32046e-16 -1
vn -4.75457e-16 0.339229 -0.940704
vn -5.33168e-16 0.638228 -0.769847
vn -3.89044e-16 0.861538 -0.507692
vn -0.195306 0.839275 -0.507417
vn -0.229291 0.830676 -0.507349
vn 0.0589253 0.890502 -0.451148
vn 0.114932 0.892566 -0.436024
vn 0.0617105 0.894954 -0.441871
vn 0.0208204 0.896508 -0.442538
vn 0.0244993 0.896423 -0.442523
vn -0.0224457 -0.821285 -0.570076
vn -0.00733978 -0.268561 -0.963235
vn 0.0111447 0.407783 -0.913011
vn 0.196189 -0.838953 -0.50761
vn 0.339202 -0.794714 -0.50336
vn 0.182842 -0.826881 -0.531823
vn 0.052243 -0.824775 -0.563042
vn -0.00360124 -0.822105 -0.569324
vn -0.0391897 -0.82082 -0.569841
f 154//154 137//137 138//138 
f 154//154 138//138 139//139 
f 154//154 139//139 140//140 
f 154//154 140//140 141//141 
f 154//154 141//141 142//142 
f 154//154 142//142 143//143 
f 144//144 154//154 143//143 
f 155//155 154//154 144//144 
f 145//145 155//155 144//144 
f 156//156 155//155 145//145 
f 146//146 156//156 145//145 
f 147//147 157//157 156//156 
f 147//147 156//156 146//146 
f 148//148 158//158 157//157 
f 148//148 157//157 147//147 
f 149//149 159//159 158//158 
f 149//149 158//158 148//148 
f 152//152 151//151 159//159 
f 153//153 152//152 159//159 
f 150//150 159//159 149//149 
f 150//150 153//153 159//159 

