mtllib Siete_Roue_dente_Roue_etoile_Heures.mtl
usemtl Siete_Roue_dente_Roue_etoile_Heures
#Wavefront export of shape 1-39-2--Siete_Roue_dente_Roue_etoile_Heures

g Face_1
v 0.05524976999999998 -0.1730339939999999 -0.0677
v 0.05355480112379998 -0.1706330834599791 -0.0677
v 0.05074762720297599 -0.1715031735004159 -0.0677
v 0.05070766494438399 -0.17444182311977594 -0.0677
v 0.05349014072847198 -0.17538792597421912 -0.06770000000000001
v 0.05449983899999999 -0.1730237957999999 -0.0677
v 0.053313361413799984 -0.1713431564303279 -0.0677
v 0.05134833701507198 -0.17195222342291192 -0.0677
v 0.051320363488447984 -0.1740092741568319 -0.0677
v 0.05326809908267999 -0.1746715501899279 -0.0677
vn -2.80046e-29 1.04189e-27 -1
vn -2.80046e-29 1.04189e-27 -1
vn -2.80046e-29 1.04189e-27 -1
vn -2.80046e-29 1.04189e-27 -1
vn -2.80046e-29 1.04189e-27 -1
vn -2.80046e-29 1.04189e-27 -1
vn -2.80046e-29 1.04189e-27 -1
vn -2.80046e-29 1.04189e-27 -1
vn -2.80046e-29 1.04189e-27 -1
vn -2.80046e-29 1.04189e-27 -1
f 10//10 5//5 4//4 
f 10//10 4//4 9//9 
f 8//8 4//4 3//3 
f 8//8 9//9 4//4 
f 1//1 10//10 6//6 
f 1//1 5//5 10//10 
f 2//2 6//6 7//7 
f 2//2 7//7 8//8 
f 2//2 8//8 3//3 
f 2//2 1//1 6//6 

g Face_2
v 0.05524976999999999 -0.1730339939999999 -0.0599
v 0.05355480112379999 -0.1706330834599791 -0.059899999999999995
v 0.05074762720297599 -0.1715031735004159 -0.059899999999999995
v 0.05070766494438399 -0.17444182311977594 -0.059899999999999995
v 0.05349014072847199 -0.17538792597421912 -0.05990000000000001
v 0.05524976999999999 -0.1730339939999999 -0.0599
v 0.05524976999999998 -0.1730339939999999 -0.0677
v 0.05355480112379998 -0.1706330834599791 -0.0677
v 0.05074762720297599 -0.1715031735004159 -0.0677
v 0.05070766494438399 -0.17444182311977594 -0.0677
v 0.05349014072847198 -0.17538792597421912 -0.06770000000000001
v 0.05524976999999998 -0.1730339939999999 -0.0677
vn 1 -9.81739e-31 -2.80046e-29
vn 0.309017 0.951057 9.82241e-28
vn -0.809017 0.587785 6.35063e-28
vn -0.809017 -0.587785 -5.8975e-28
vn 0.309017 -0.951057 -9.99548e-28
vn 1 -2.44929e-16 -2.80046e-29
vn 1 -9.81739e-31 -2.80046e-29
vn 0.309017 0.951057 9.82241e-28
vn -0.809017 0.587785 6.35063e-28
vn -0.809017 -0.587785 -5.8975e-28
vn 0.309017 -0.951057 -9.99548e-28
vn 1 -2.44929e-16 -2.80046e-29
f 12//12 11//11 17//17 
f 12//12 17//17 18//18 
f 13//13 18//18 19//19 
f 13//13 12//12 18//18 
f 14//14 19//19 20//20 
f 14//14 13//13 19//19 
f 15//15 20//20 21//21 
f 15//15 14//14 20//20 
f 16//16 21//21 22//22 
f 16//16 15//15 21//21 

g Face_3
v 0.05774953999999999 -0.17306798799999992 -0.058
v 0.05592031838861598 -0.16913358948083992 -0.057999999999999996
v 0.05170378576406399 -0.16811067977711994 -0.05799999999999999
v 0.04827507335067199 -0.17076952457425593 -0.05799999999999999
v 0.04821607553988799 -0.17510796540097595 -0.058
v 0.051571218954335994 -0.17785906284335992 -0.058
v 0.05581400800058399 -0.17695119019539993 -0.05800000000000001
v 0.05774953999999999 -0.17306798799999992 -0.058
v 0.05524976999999999 -0.1730339939999999 -0.0599
v 0.05524976999999999 -0.1730339939999999 -0.0599
v 0.05355480112379999 -0.1706330834599791 -0.059899999999999995
v 0.05074762720297599 -0.1715031735004159 -0.059899999999999995
v 0.05070766494438399 -0.17444182311977594 -0.059899999999999995
v 0.05349014072847199 -0.17538792597421912 -0.05990000000000001
v 0.048605328667736786 -0.17254155687720393 -0.059114469999999995
vn 0.99083 -0 -0.135113
vn 0.617711 0.774711 -0.135113
vn -0.221349 0.965789 -0.135113
vn -0.892698 0.429924 -0.135113
vn -0.892698 -0.429924 -0.135113
vn -0.221349 -0.965789 -0.135113
vn 0.617711 -0.774711 -0.135113
vn 0.99083 -0 -0.135113
vn 0.0217181 -0 -0.999764
vn 0.0217181 -0 -0.999764
vn 0.00672833 0.0206496 -0.999764
vn -0.0175709 0.0127648 -0.999764
vn -0.0175709 -0.0127648 -0.999764
vn 0.00672833 -0.0206496 -0.999764
vn -0.658324 0.063769 -0.750029
f 24//24 32//32 33//33 
f 24//24 23//23 32//32 
f 25//25 33//33 34//34 
f 25//25 24//24 33//33 
f 26//26 25//25 34//34 
f 28//28 35//35 36//36 
f 28//28 27//27 35//35 
f 29//29 36//36 31//31 
f 29//29 28//28 36//36 
f 30//30 29//29 31//31 
f 37//37 27//27 26//26 
f 37//37 34//34 35//35 
f 37//37 35//35 27//27 
f 37//37 26//26 34//34 

g Face_4
v 0.05774953999999999 -0.17306798799999992 -0.058
v 0.05592031838861598 -0.16913358948083992 -0.057999999999999996
v 0.05170378576406399 -0.16811067977711994 -0.05799999999999999
v 0.04827507335067199 -0.17076952457425593 -0.05799999999999999
v 0.04821607553988799 -0.17510796540097595 -0.058
v 0.051571218954335994 -0.17785906284335992 -0.058
v 0.05581400800058399 -0.17695119019539993 -0.05800000000000001
v 0.05624967799999999 -0.17304759159999994 -0.058
v 0.05454105454938399 -0.16999298466027993 -0.057999999999999996
v 0.05104137654938399 -0.16994539306027992 -0.05799999999999999
v 0.04925032199999999 -0.17295240839999992 -0.057999999999999996
v 0.05095894545061599 -0.17600701533971994 -0.058
v 0.05445862345061599 -0.17605460693971994 -0.05800000000000001
vn 2.80046e-29 -1.04189e-27 1
vn 2.80046e-29 -1.04189e-27 1
vn 2.80046e-29 -1.04189e-27 1
vn 2.80046e-29 -1.04189e-27 1
vn 2.80046e-29 -1.04189e-27 1
vn 2.80046e-29 -1.04189e-27 1
vn 2.80046e-29 -1.04189e-27 1
vn 2.80046e-29 -1.04189e-27 1
vn 2.80046e-29 -1.04189e-27 1
vn 2.80046e-29 -1.04189e-27 1
vn 2.80046e-29 -1.04189e-27 1
vn 2.80046e-29 -1.04189e-27 1
vn 2.80046e-29 -1.04189e-27 1
f 43//43 44//44 50//50 
f 45//45 44//44 38//38 
f 45//45 50//50 44//44 
f 49//49 43//43 50//50 
f 39//39 45//45 38//38 
f 46//46 45//45 39//39 
f 42//42 43//43 49//49 
f 48//48 42//42 49//49 
f 40//40 47//47 46//46 
f 40//40 46//46 39//39 
f 41//41 48//48 47//47 
f 41//41 42//42 48//48 
f 41//41 47//47 40//40 

g Face_5
v 0.05624967799999999 -0.17304759159999994 -0.0557
v 0.054541054549383995 -0.16999298466027993 -0.05569999999999999
v 0.05104137654938399 -0.16994539306027992 -0.05569999999999999
v 0.04925032199999999 -0.17295240839999992 -0.0557
v 0.05095894545061599 -0.17600701533971994 -0.055700000000000006
v 0.054458623450615994 -0.17605460693971994 -0.055700000000000006
v 0.05624967799999999 -0.17304759159999994 -0.0557
v 0.05624967799999999 -0.17304759159999994 -0.058
v 0.05454105454938399 -0.16999298466027993 -0.057999999999999996
v 0.05104137654938399 -0.16994539306027992 -0.05799999999999999
v 0.04925032199999999 -0.17295240839999992 -0.057999999999999996
v 0.05095894545061599 -0.17600701533971994 -0.058
v 0.05445862345061599 -0.17605460693971994 -0.05800000000000001
v 0.05624967799999999 -0.17304759159999994 -0.058
vn 1 -9.81739e-31 -2.80046e-29
vn 0.5 0.866025 8.88299e-28
vn -0.5 0.866025 9.16304e-28
vn -1 1.22465e-16 2.80046e-29
vn -0.5 -0.866025 -8.88299e-28
vn 0.5 -0.866025 -9.16304e-28
vn 1 -2.44929e-16 -2.80046e-29
vn 1 -9.81739e-31 -2.80046e-29
vn 0.5 0.866025 8.88299e-28
vn -0.5 0.866025 9.16304e-28
vn -1 1.22465e-16 2.80046e-29
vn -0.5 -0.866025 -8.88299e-28
vn 0.5 -0.866025 -9.16304e-28
vn 1 -2.44929e-16 -2.80046e-29
f 52//52 51//51 58//58 
f 52//52 58//58 59//59 
f 53//53 59//59 60//60 
f 53//53 52//52 59//59 
f 54//54 60//60 61//61 
f 54//54 53//53 60//60 
f 55//55 61//61 62//62 
f 55//55 54//54 61//61 
f 56//56 62//62 63//63 
f 56//56 55//55 62//62 
f 57//57 63//63 64//64 
f 57//57 56//56 63//63 

g Face_6
v 0.05624967799999999 -0.17304759159999994 -0.0557
v 0.054541054549383995 -0.16999298466027993 -0.05569999999999999
v 0.05104137654938399 -0.16994539306027992 -0.05569999999999999
v 0.04925032199999999 -0.17295240839999992 -0.0557
v 0.05095894545061599 -0.17600701533971994 -0.055700000000000006
v 0.054458623450615994 -0.17605460693971994 -0.055700000000000006
v 0.054499838999999994 -0.17302379579999994 -0.0557
v 0.05331336141379999 -0.17134315643032794 -0.0557
v 0.051348337015071986 -0.17195222342291194 -0.0557
v 0.05132036348844799 -0.17400927415683193 -0.0557
v 0.053268099082679994 -0.17467155018992792 -0.0557
vn 2.80046e-29 -1.04189e-27 1
vn 2.80046e-29 -1.04189e-27 1
vn 2.80046e-29 -1.04189e-27 1
vn 2.80046e-29 -1.04189e-27 1
vn 2.80046e-29 -1.04189e-27 1
vn 2.80046e-29 -1.04189e-27 1
vn 2.80046e-29 -1.04189e-27 1
vn 2.80046e-29 -1.04189e-27 1
vn 2.80046e-29 -1.04189e-27 1
vn 2.80046e-29 -1.04189e-27 1
vn 2.80046e-29 -1.04189e-27 1
f 71//71 70//70 65//65 
f 71//71 75//75 70//70 
f 69//69 70//70 75//75 
f 74//74 69//69 75//75 
f 66//66 72//72 71//71 
f 66//66 71//71 65//65 
f 68//68 74//74 73//73 
f 68//68 69//69 74//74 
f 67//67 73//73 72//72 
f 67//67 68//68 73//73 
f 67//67 72//72 66//66 

g Face_7
v 0.05449983899999999 -0.1730237957999999 -0.0677
v 0.053313361413799984 -0.1713431564303279 -0.0677
v 0.05134833701507198 -0.17195222342291192 -0.0677
v 0.051320363488447984 -0.1740092741568319 -0.0677
v 0.05326809908267999 -0.1746715501899279 -0.0677
v 0.05449983899999999 -0.1730237957999999 -0.0677
v 0.054499838999999994 -0.17302379579999994 -0.0557
v 0.054499838999999994 -0.17302379579999994 -0.0557
v 0.05331336141379999 -0.17134315643032794 -0.0557
v 0.051348337015071986 -0.17195222342291194 -0.0557
v 0.05132036348844799 -0.17400927415683193 -0.0557
v 0.053268099082679994 -0.17467155018992792 -0.0557
vn -1 9.81739e-31 2.80046e-29
vn -0.309017 -0.951057 -9.82241e-28
vn 0.809017 -0.587785 -6.35063e-28
vn 0.809017 0.587785 5.8975e-28
vn -0.309017 0.951057 9.99548e-28
vn -1 1.13311e-15 2.80046e-29
vn -1 1.13311e-15 2.80046e-29
vn -1 9.81739e-31 2.80046e-29
vn -0.309017 -0.951057 -9.82241e-28
vn 0.809017 -0.587785 -6.35063e-28
vn 0.809017 0.587785 5.8975e-28
vn -0.309017 0.951057 9.99548e-28
f 84//84 77//77 76//76 
f 84//84 76//76 83//83 
f 85//85 78//78 77//77 
f 85//85 77//77 84//84 
f 86//86 79//79 78//78 
f 86//86 78//78 85//85 
f 87//87 80//80 79//79 
f 87//87 79//79 86//86 
f 82//82 81//81 80//80 
f 82//82 80//80 87//87 

