mtllib Tige_balancier_instance_2.mtl
usemtl Tige_balancier_instance_2
#Wavefront export of shape 1-86-8--Tige_balancier

g Face_1
v 0.14779135793 -1.0096073299 -0.013880009999999969
v 0.149172869263186 -1.00957186132802 -0.01578211999999997
v 0.15140819759812998 -1.0095144720746407 -0.015055579999999968
v 0.15140819759812998 -1.0095144720746407 -0.01270443999999997
v 0.149172869263186 -1.00957186132802 -0.011977899999999968
vn 1.17961e-16 -1 3.2782e-16
vn 1.17961e-16 -1 3.2782e-16
vn 1.17961e-16 -1 3.2782e-16
vn 1.17961e-16 -1 3.2782e-16
vn 1.17961e-16 -1 3.2782e-16
f 3//3 1//1 2//2 
f 3//3 4//4 5//5 
f 3//3 5//5 1//1 

g Face_2
v 0.14779135793 -1.0096073299 -0.013880009999999969
v 0.149172869263186 -1.00957186132802 -0.01578211999999997
v 0.15140819759812998 -1.0095144720746407 -0.015055579999999968
v 0.15140819759812998 -1.0095144720746407 -0.01270443999999997
v 0.149172869263186 -1.00957186132802 -0.011977899999999968
v 0.14779135793 -1.0096073299 -0.013880009999999969
v 0.13262316562999993 -0.41880176889999987 -0.01388001000000003
v 0.1340046769631859 -0.4187663003280201 -0.015782120000000028
v 0.13624000529812993 -0.4187089110746409 -0.015055580000000028
v 0.13624000529812993 -0.4187089110746409 -0.01270444000000003
v 0.1340046769631859 -0.4187663003280201 -0.01197790000000003
v 0.13262316562999993 -0.41880176889999987 -0.01388001000000003
vn -1 -1.17961e-16 6.16298e-32
vn -0.309017 -3.48228e-16 -0.951057
vn 0.809017 -9.72554e-17 -0.587785
vn 0.809017 2.88121e-16 0.587785
vn -0.309017 2.75324e-16 0.951057
vn -1 -1.17961e-16 2.44929e-16
vn -1 -1.17961e-16 6.16298e-32
vn -0.309017 -3.48228e-16 -0.951057
vn 0.809017 -9.72554e-17 -0.587785
vn 0.809017 2.88121e-16 0.587785
vn -0.309017 2.75324e-16 0.951057
vn -1 -1.17961e-16 2.44929e-16
f 7//7 6//6 12//12 
f 7//7 12//12 13//13 
f 8//8 13//13 14//14 
f 8//8 7//7 13//13 
f 9//9 14//14 15//15 
f 9//9 8//8 14//14 
f 10//10 15//15 16//16 
f 10//10 9//9 15//15 
f 11//11 16//16 17//17 
f 11//11 10//10 16//16 

g Face_3
v 0.13262316562999993 -0.41880176889999987 -0.01388001000000003
v 0.1340046769631859 -0.4187663003280201 -0.015782120000000028
v 0.13624000529812993 -0.4187089110746409 -0.015055580000000028
v 0.13624000529812993 -0.4187089110746409 -0.01270444000000003
v 0.1340046769631859 -0.4187663003280201 -0.01197790000000003
v 0.13262316562999993 -0.41880176889999987 -0.01388001000000003
v 0.13339184892999992 -0.4097790645999999 -0.01388001000000003
v 0.13300750727999994 -0.4142904167499998 -0.01388001000000003
v 0.13439151992999993 -0.4097533992999999 -0.014880010000000029
v 0.13539119092999993 -0.40972773399999984 -0.01388001000000003
v 0.13439151992999993 -0.4097533992999999 -0.01288001000000003
v 0.13339184892999992 -0.4097790645999999 -0.01388001000000003
v 0.13300750727999994 -0.4142904167499998 -0.01388001000000003
v 0.13501768137522793 -0.41419079221315946 -0.01247579000000003
v 0.1350497027228839 -0.4142209803328487 -0.012483890000000029
v 0.13473876450108793 -0.41546937238825143 -0.01225653000000003
v 0.13378436231570992 -0.4146055824952968 -0.012527970000000029
v 0.1350497027228839 -0.4142209803328487 -0.01527613000000003
v 0.13379150940365092 -0.41457338844519054 -0.01523231000000003
v 0.13472150587603093 -0.4154738168015165 -0.01550605000000003
v 0.13525676702999992 -0.41423266982499973 -0.015179050000000029
v 0.13525676702999992 -0.41423266982499973 -0.01258097000000003
vn -0.993884 0.110432 -3.62017e-17
vn -0.307127 0.110432 -0.94524
vn 0.804069 0.110432 -0.58419
vn 0.804069 0.110432 0.58419
vn -0.307127 0.110432 0.94524
vn -0.993884 0.110432 -6.75516e-16
vn -0.993884 0.110432 -3.62017e-17
vn -0.993884 0.110432 -3.62017e-17
vn 1.46802e-16 0.110432 -0.993884
vn 0.993884 0.110432 2.83456e-16
vn 1.69547e-16 0.110432 0.993884
vn -0.993884 0.110432 -6.75516e-16
vn -0.993884 0.110432 -6.75516e-16
vn 0.340501 0.110432 0.933737
vn 0.360443 0.110432 0.926221
vn 0.121775 0.110432 0.986395
vn -0.472939 0.110432 0.874147
vn 0.360442 0.110432 -0.926222
vn -0.468867 0.110432 -0.876338
vn 0.11119 0.110432 -0.987644
vn 0.496942 0.110432 -0.860729
vn 0.496942 0.110432 0.860729
f 25//25 24//24 26//26 
f 36//36 25//25 26//26 
f 35//35 36//36 26//26 
f 18//18 36//36 37//37 
f 18//18 25//25 36//36 
f 19//19 18//18 37//37 
f 34//34 31//31 28//28 
f 20//20 19//19 37//37 
f 20//20 37//37 33//33 
f 30//30 28//28 29//29 
f 30//30 34//34 28//28 
f 21//21 20//20 33//33 
f 22//22 21//21 33//33 
f 23//23 33//33 34//34 
f 23//23 34//34 30//30 
f 23//23 22//22 33//33 
f 38//38 26//26 27//27 
f 38//38 37//37 35//35 
f 38//38 35//35 26//26 
f 38//38 33//33 37//37 
f 39//39 27//27 28//28 
f 39//39 31//31 32//32 
f 39//39 32//32 33//33 
f 39//39 33//33 38//38 
f 39//39 28//28 31//31 
f 39//39 38//38 27//27 

g Face_4
v 0.13339184892999992 -0.4097790645999999 -0.01388001000000003
v 0.13439151992999993 -0.4097533992999999 -0.014880010000000029
v 0.13539119092999993 -0.40972773399999984 -0.01388001000000003
v 0.13439151992999993 -0.4097533992999999 -0.01288001000000003
vn -1.17961e-16 1 -3.2782e-16
vn -1.17961e-16 1 -3.2782e-16
vn -1.17961e-16 1 -3.2782e-16
vn -1.17961e-16 1 -3.2782e-16
f 41//41 43//43 42//42 
f 41//41 40//40 43//43 

g Face_5
v 0.1350497027228839 -0.4142209803328487 -0.01527613000000003
v 0.13379150940365092 -0.41457338844519054 -0.01523231000000003
v 0.13472150587603093 -0.4154738168015165 -0.01550605000000003
v 0.1350497027228839 -0.4142209803328487 -0.01527613000000003
v 0.1350497027228839 -0.4142209803328487 -0.012483890000000029
v 0.13473876450108793 -0.41546937238825143 -0.01225653000000003
v 0.13378436231570992 -0.4146055824952968 -0.012527970000000029
v 0.13501768137522793 -0.41419079221315946 -0.01247579000000003
v 0.1350497027228839 -0.4142209803328487 -0.012483890000000029
vn -0.724405 -0.689374 -4.29178e-32
vn 0.964714 -0.263301 -1.0907e-33
vn -0.244098 0.969751 4.48037e-32
vn -0.724405 -0.689374 -4.29178e-32
vn -0.724405 -0.689374 -4.29178e-32
vn -0.267241 0.96363 4.42166e-32
vn 0.975357 -0.220631 1.14426e-33
vn -0.682757 -0.730646 -4.44392e-32
vn -0.724405 -0.689374 -4.29178e-32
f 47//47 49//49 48//48 
f 46//46 50//50 49//49 
f 46//46 49//49 47//47 
f 45//45 51//51 50//50 
f 45//45 50//50 46//46 
f 44//44 52//52 51//51 
f 44//44 51//51 45//45 

