mtllib Tige_arret_volant_Quarts.mtl
usemtl Tige_arret_volant_Quarts
#Wavefront export of shape 1-50--Tige_arret_volant_Quarts

g Face_1
v 0.06849952799999999 -0.122013712 -0.053500000000000006
v 0.06819479163245999 -0.12308184988884 -0.054599519116
v 0.06849952799999999 -0.122013712 -0.0557
v 0.06849952799999999 -0.122013712 -0.053500000000000006
v 0.06744006364646 -0.11870828088157 -0.053500000000000006
v 0.064195208704192 -0.117475709891078 -0.053500000000000006
v 0.061208404085179996 -0.11924414200865 -0.053500000000000006
v 0.0607287799565 -0.12268190413006999 -0.053500000000000006
v 0.06311750044743199 -0.125200310055018 -0.053500000000000006
v 0.06657580723697999 -0.12490293992819 -0.053500000000000006
v 0.06849952799999999 -0.122013712 -0.0557
v 0.06849878323245999 -0.12090295448884 -0.054600221548000004
v 0.06744006364646 -0.11870828088157 -0.0557
v 0.064195208704192 -0.117475709891078 -0.0557
v 0.061208404085179996 -0.11924414200865 -0.0557
v 0.0607287799565 -0.12268190413006999 -0.0557
v 0.06311750044743199 -0.125200310055018 -0.0557
v 0.06657580723697999 -0.12490293992819 -0.0557
vn 0.990407 -0.138178 -0
vn 0.914223 -0.405212 -0
vn 0.990407 -0.138178 -0
vn 0.990407 -0.138178 -0
vn 0.725541 0.688179 0
vn -0.085673 0.996323 0
vn -0.832373 0.554216 0
vn -0.952279 -0.305228 0
vn -0.3551 -0.934828 0
vn 0.509477 -0.860484 -0
vn 0.990407 -0.138178 -0
vn 0.99022 0.139512 0
vn 0.725541 0.688179 0
vn -0.085673 0.996323 0
vn -0.832373 0.554216 0
vn -0.952279 -0.305228 0
vn -0.3551 -0.934828 0
vn 0.509477 -0.860484 -0
f 2//2 1//1 10//10 
f 18//18 3//3 2//2 
f 18//18 2//2 10//10 
f 17//17 10//10 9//9 
f 17//17 18//18 10//10 
f 16//16 9//9 8//8 
f 16//16 17//17 9//9 
f 15//15 8//8 7//7 
f 15//15 16//16 8//8 
f 14//14 7//7 6//6 
f 14//14 15//15 7//7 
f 12//12 5//5 4//4 
f 13//13 6//6 5//5 
f 13//13 14//14 6//6 
f 13//13 5//5 12//12 
f 11//11 13//13 12//12 

g Face_2
v 0.06849952799999999 -0.122013712 -0.053500000000000006
v 0.06744006364646 -0.11870828088157 -0.053500000000000006
v 0.064195208704192 -0.117475709891078 -0.053500000000000006
v 0.061208404085179996 -0.11924414200865 -0.053500000000000006
v 0.0607287799565 -0.12268190413006999 -0.053500000000000006
v 0.06311750044743199 -0.125200310055018 -0.053500000000000006
v 0.06657580723697999 -0.12490293992819 -0.053500000000000006
v 0.0660235105 -0.12166826699999998 -0.053500000000000006
v 0.06474516699999999 -0.1199753895 -0.053500000000000006
v 0.0630522895 -0.121253733 -0.053500000000000006
v 0.064330633 -0.1229466105 -0.053500000000000006
vn -0 0 1
vn -0 0 1
vn -0 0 1
vn -0 0 1
vn -0 0 1
vn -0 0 1
vn -0 0 1
vn -0 0 1
vn -0 0 1
vn -0 0 1
vn -0 0 1
f 28//28 22//22 23//23 
f 29//29 23//23 24//24 
f 29//29 28//28 23//23 
f 25//25 29//29 24//24 
f 26//26 29//29 25//25 
f 27//27 22//22 28//28 
f 21//21 22//22 27//27 
f 19//19 26//26 25//25 
f 20//20 27//27 26//26 
f 20//20 21//21 27//27 
f 20//20 26//26 19//19 

g Face_3
v 0.06849952799999999 -0.122013712 -0.0557
v 0.06744006364646 -0.11870828088157 -0.0557
v 0.064195208704192 -0.117475709891078 -0.0557
v 0.061208404085179996 -0.11924414200865 -0.0557
v 0.0607287799565 -0.12268190413006999 -0.0557
v 0.06311750044743199 -0.125200310055018 -0.0557
v 0.06657580723697999 -0.12490293992819 -0.0557
v 0.0660235105 -0.12166826699999998 -0.0557
v 0.06474516699999999 -0.1199753895 -0.0557
v 0.0630522895 -0.121253733 -0.0557
v 0.064330633 -0.1229466105 -0.0557
vn 0 -0 -1
vn 0 -0 -1
vn 0 -0 -1
vn 0 -0 -1
vn 0 -0 -1
vn 0 -0 -1
vn 0 -0 -1
vn 0 -0 -1
vn 0 -0 -1
vn 0 -0 -1
vn 0 -0 -1
f 39//39 34//34 33//33 
f 40//40 35//35 34//34 
f 40//40 34//34 39//39 
f 36//36 35//35 40//40 
f 37//37 36//36 40//40 
f 38//38 39//39 33//33 
f 32//32 38//38 33//33 
f 30//30 36//36 37//37 
f 31//31 37//37 38//38 
f 31//31 38//38 32//32 
f 31//31 30//30 37//37 

g Face_4
v 0.0660235105 -0.12166826699999998 -0.0557
v 0.06474516699999999 -0.1199753895 -0.0557
v 0.0630522895 -0.121253733 -0.0557
v 0.064330633 -0.1229466105 -0.0557
v 0.0660235105 -0.12166826699999998 -0.0557
v 0.0660235105 -0.12166826699999998 -0.053500000000000006
v 0.0660235105 -0.12166826699999998 -0.053500000000000006
v 0.06474516699999999 -0.1199753895 -0.053500000000000006
v 0.0630522895 -0.121253733 -0.053500000000000006
v 0.064330633 -0.1229466105 -0.053500000000000006
vn -0.990407 0.138178 0
vn -0.138178 -0.990407 -0
vn 0.990407 -0.138178 -0
vn 0.138178 0.990407 -0
vn -0.990407 0.138178 0
vn -0.990407 0.138178 0
vn -0.990407 0.138178 0
vn -0.138178 -0.990407 -0
vn 0.990407 -0.138178 -0
vn 0.138178 0.990407 -0
f 44//44 46//46 45//45 
f 44//44 50//50 46//46 
f 43//43 49//49 50//50 
f 43//43 50//50 44//44 
f 42//42 48//48 49//49 
f 42//42 49//49 43//43 
f 41//41 47//47 48//48 
f 41//41 48//48 42//42 

g Face_5
v 0.07840359799999999 -0.12339549199999998 -0.0557
v 0.07855559379999999 -0.1223060443 -0.0546
v 0.07840359799999999 -0.12339549199999998 -0.053500000000000006
v 0.07825160219999999 -0.12448493969999999 -0.0546
v 0.07840359799999999 -0.12339549199999998 -0.0557
v 0.06849952799999999 -0.122013712 -0.0557
v 0.06849878323245999 -0.12090295448884 -0.054600221548000004
v 0.06849952799999999 -0.122013712 -0.053500000000000006
v 0.06819479163245999 -0.12308184988884 -0.054599519116
v 0.06849952799999999 -0.122013712 -0.0557
vn 5.07657e-17 3.6387e-16 -1
vn 0.138178 0.990407 3.06162e-16
vn -3.38438e-17 -2.4258e-16 1
vn -0.138178 -0.990407 -1.83697e-16
vn 1.69219e-17 1.2129e-16 -1
vn 5.07657e-17 3.6387e-16 -1
vn 0.138178 0.990407 -0.000201407
vn -3.38438e-17 -2.4258e-16 1
vn -0.138178 -0.990407 0.000437167
vn 1.69219e-17 1.2129e-16 -1
f 60//60 55//55 54//54 
f 59//59 60//60 54//54 
f 58//58 53//53 52//52 
f 58//58 54//54 53//53 
f 58//58 59//59 54//54 
f 57//57 58//58 52//52 
f 56//56 52//52 51//51 
f 56//56 57//57 52//52 

g Face_6
v 0.106134994 -0.127264476 -0.0721
v 0.1062869898 -0.1261750283 -0.07100000000000001
v 0.106134994 -0.127264476 -0.0699
v 0.1059829982 -0.12835392369999998 -0.07100000000000001
v 0.106134994 -0.127264476 -0.0721
v 0.19923325200000003 -0.14025320800000002 -0.0721
v 0.19923325200000003 -0.14025320800000002 -0.0721
v 0.1993852478 -0.1391637603 -0.07100000000000001
v 0.19923325200000003 -0.14025320800000002 -0.0699
v 0.1990812562 -0.1413426557 -0.07100000000000001
vn 0 0 -1
vn 0.138178 0.990407 -6.12323e-17
vn 1.69219e-17 1.2129e-16 1
vn -0.138178 -0.990407 1.83697e-16
vn -3.38438e-17 -2.4258e-16 -1
vn -3.38438e-17 -2.4258e-16 -1
vn 0 0 -1
vn 0.138178 0.990407 -6.12323e-17
vn 1.69219e-17 1.2129e-16 1
vn -0.138178 -0.990407 1.83697e-16
f 68//68 61//61 62//62 
f 68//68 67//67 61//61 
f 69//69 62//62 63//63 
f 69//69 68//68 62//62 
f 70//70 63//63 64//64 
f 70//70 69//69 63//63 
f 66//66 64//64 65//65 
f 66//66 70//70 64//64 

g Face_7
v 0.19923325200000003 -0.14025320800000002 -0.0721
v 0.1993852478 -0.1391637603 -0.07100000000000001
v 0.19923325200000003 -0.14025320800000002 -0.0699
v 0.1990812562 -0.1413426557 -0.07100000000000001
vn 0.990407 -0.138178 0
vn 0.990407 -0.138178 0
vn 0.990407 -0.138178 0
vn 0.990407 -0.138178 0
f 72//72 73//73 74//74 
f 72//72 74//74 71//71 

g Face_8
v 0.07840359799999999 -0.12339549199999998 -0.0557
v 0.07855559379999999 -0.1223060443 -0.0546
v 0.07840359799999999 -0.12339549199999998 -0.053500000000000006
v 0.07825160219999999 -0.12448493969999999 -0.0546
v 0.07840359799999999 -0.12339549199999998 -0.0557
v 0.0839027338268 -0.1241627115272 -0.05747837
v 0.09056282473899999 -0.12509190330599998 -0.06362659
v 0.09713982050389999 -0.1260095019506 -0.0693893
v 0.1014334329303 -0.1266085312162 -0.0714105
v 0.106134994 -0.127264476 -0.0721
v 0.106134994 -0.127264476 -0.0721
v 0.1062869898 -0.1261750283 -0.07100000000000001
v 0.106134994 -0.127264476 -0.0699
v 0.1059829982 -0.12835392369999998 -0.07100000000000001
v 0.0839027338268 -0.1241627115272 -0.05747837
v 0.09056282473899999 -0.12509190330599998 -0.06362659
v 0.09713982050389999 -0.1260095019506 -0.0693893
v 0.1014334329303 -0.1266085312162 -0.0714105
v 0.0818567193717 -0.12276660539180001 -0.055129504
v 0.0814758721885 -0.12493477817899999 -0.055129504
v 0.08545882963069999 -0.12326915877780001 -0.057119800000000005
v 0.08626799214969999 -0.1233820502038 -0.057737250000000004
v 0.0851754384963 -0.1254509282802 -0.057119800000000005
v 0.08596400054969999 -0.1255609456038 -0.057737250000000004
v 0.0889057431128 -0.12375005967120001 -0.060166920000000006
v 0.0885970965999 -0.1259283056346 -0.060166920000000006
v 0.0921798305734 -0.1242068485036 -0.06356773
v 0.09287123370009999 -0.1243033105654 -0.06426892000000001
v 0.0918764332176 -0.1263858268104 -0.06356773
v 0.09256724210009999 -0.1264822059654 -0.06426892000000001
v 0.09526375989 -0.12463710716000001 -0.0665047
v 0.0949609567784 -0.1268161683736 -0.0665047
v 0.098292424496 -0.125059655484 -0.0687196
v 0.099094190637 -0.126282168598 -0.0680096
v 0.09871146569770001 -0.1251181185958 -0.068968
v 0.10023461262299999 -0.125330622542 -0.0697455
v 0.0979835799017 -0.1272378738118 -0.0687196
v 0.09840747409770001 -0.12729701399579998 -0.068968
v 0.0999572629713 -0.1275132349302 -0.0697455
v 0.1040875929751 -0.1258681764154 -0.0708325
v 0.1036840654716 -0.1280331849264 -0.0708325
v 0.08199897349139999 -0.1238971057756 -0.05408666
v 0.083294300885994 -0.124504999706139 -0.054733546
v 0.0840532756908 -0.1241837145832 -0.055001376000000005
v 0.08471301171420599 -0.123848584024661 -0.055453154000000004
v 0.08596367175309999 -0.1244502461274 -0.056231920000000005
v 0.0868016551158 -0.1245671585332 -0.056882470000000004
v 0.0895198271273 -0.12494638805419998 -0.059387640000000005
v 0.090499016607494 -0.125510175567139 -0.06057357
v 0.09116340754379999 -0.1251756944452 -0.06108533
v 0.09170706786680599 -0.12482436942506099 -0.061716230000000004
v 0.0928052052277 -0.1254047521158 -0.06279655
v 0.0934863081216 -0.12549977712639998 -0.06348784
v 0.09581633962979999 -0.1258248546892 -0.0656651
v 0.1005320635196 -0.12648277541839997 -0.0687364
v 0.1040354302007 -0.12697155245779998 -0.0697447
vn -8.71637e-16 -6.24757e-15 -1
vn 0.138178 0.990407 -8.58907e-06
vn -8.71637e-16 -6.24757e-15 1
vn -0.138178 -0.990407 -8.58907e-06
vn 8.71637e-16 6.24757e-15 -1
vn -0.537408 0.0616384 -0.841067
vn -0.711422 0.0985033 -0.695827
vn -0.53091 0.0765133 -0.843967
vn -0.283291 0.0372854 -0.958309
vn -4.78674e-17 6.67827e-18 -1
vn -3.19116e-17 4.45218e-18 -1
vn 0.138178 0.990407 -8.58907e-06
vn -5.67734e-16 7.92081e-17 1
vn -0.138178 -0.990407 -8.58907e-06
vn -0.537408 0.0616384 -0.841067
vn -0.711422 0.0985033 -0.695827
vn -0.53091 0.0765133 -0.843967
vn -0.283291 0.0372854 -0.958309
vn 0.138178 0.990407 -5.32885e-15
vn -0.138178 -0.990407 7.42622e-16
vn 0.138178 0.990407 -5.23279e-15
vn 0.138178 0.990407 -4.64219e-15
vn -0.138178 -0.990407 2.72492e-15
vn -0.138178 -0.990407 2.44829e-17
vn 0.138178 0.990407 1.35007e-15
vn -0.138178 -0.990407 -4.04391e-15
vn 0.138178 0.990407 3.15734e-15
vn 0.138178 0.990407 1.50955e-15
vn -0.138178 -0.990407 2.59955e-15
vn -0.138178 -0.990407 3.01893e-16
vn 0.138178 0.990407 3.90257e-15
vn -0.138178 -0.990407 -4.33362e-15
vn 0.138178 0.990407 1.0484e-15
vn 0.487566 -0.0680234 0.870432
vn 0.138178 0.990407 5.648e-17
vn 0.138178 0.990407 -2.8954e-16
vn -0.138178 -0.990407 2.63143e-15
vn -0.138178 -0.990407 3.83185e-15
vn -0.138178 -0.990407 5.10197e-15
vn 0.138178 0.990407 2.23986e-15
vn -0.138178 -0.990407 2.24906e-16
vn 0.315154 -0.0515503 0.947639
vn 0.339577 -0.433143 0.83491
vn 0.474139 -0.0599643 0.878406
vn 0.527413 0.323323 0.785683
vn 0.584516 -0.0778072 0.807643
vn 0.622023 -0.0867822 0.778175
vn 0.699438 -0.0985981 0.707859
vn 0.603223 -0.472162 0.642794
vn 0.713243 -0.0989404 0.693899
vn 0.71121 0.289754 0.640487
vn 0.706237 -0.0984126 0.701102
vn 0.697414 -0.0973005 0.710032
vn 0.639689 -0.0890107 0.763462
vn 0.395674 -0.0519185 0.916923
vn 0.14367 -0.0245249 0.989322
f 93//93 75//75 76//76 
f 93//93 76//76 77//77 
f 93//93 89//89 75//75 
f 94//94 77//77 78//78 
f 94//94 78//78 79//79 
f 94//94 79//79 80//80 
f 95//95 96//96 89//89 
f 97//97 80//80 98//98 
f 99//99 90//90 89//89 
f 99//99 89//89 96//96 
f 100//100 80//80 81//81 
f 100//100 98//98 80//80 
f 101//101 102//102 90//90 
f 103//103 81//81 104//104 
f 105//105 91//91 90//90 
f 105//105 90//90 102//102 
f 106//106 81//81 82//82 
f 106//106 104//104 81//81 
f 107//107 91//91 105//105 
f 107//107 108//108 109//109 
f 107//107 109//109 91//91 
f 110//110 92//92 91//91 
f 110//110 91//91 109//109 
f 111//111 82//82 112//112 
f 111//111 112//112 108//108 
f 111//111 106//106 82//82 
f 113//113 82//82 83//83 
f 113//113 112//112 82//82 
f 114//114 86//86 85//85 
f 114//114 87//87 86//86 
f 114//114 85//85 92//92 
f 114//114 92//92 110//110 
f 115//115 83//83 84//84 
f 115//115 88//88 87//87 
f 115//115 84//84 88//88 
f 115//115 113//113 83//83 
f 116//116 93//93 77//77 
f 116//116 77//77 94//94 
f 117//117 116//116 94//94 
f 117//117 80//80 97//97 
f 117//117 94//94 80//80 
f 118//118 116//116 117//117 
f 118//118 117//117 97//97 
f 118//118 93//93 116//116 
f 119//119 89//89 93//93 
f 119//119 95//95 89//89 
f 119//119 93//93 118//118 
f 120//120 119//119 118//118 
f 120//120 118//118 97//97 
f 120//120 95//95 119//119 
f 120//120 98//98 121//121 
f 120//120 121//121 96//96 
f 120//120 97//97 98//98 
f 120//120 96//96 95//95 
f 122//122 121//121 98//98 
f 122//122 96//96 121//121 
f 122//122 99//99 96//96 
f 122//122 98//98 100//100 
f 123//123 100//100 81//81 
f 123//123 81//81 103//103 
f 123//123 122//122 100//100 
f 124//124 99//99 122//122 
f 124//124 123//123 103//103 
f 124//124 122//122 123//123 
f 125//125 99//99 124//124 
f 125//125 101//101 90//90 
f 125//125 90//90 99//99 
f 126//126 103//103 104//104 
f 126//126 127//127 102//102 
f 126//126 125//125 124//124 
f 126//126 124//124 103//103 
f 126//126 102//102 101//101 
f 126//126 104//104 127//127 
f 126//126 101//101 125//125 
f 128//128 102//102 127//127 
f 128//128 107//107 105//105 
f 128//128 105//105 102//102 
f 128//128 127//127 104//104 
f 128//128 104//104 106//106 
f 128//128 108//108 107//107 
f 128//128 111//111 108//108 
f 128//128 106//106 111//111 
f 129//129 109//109 108//108 
f 129//129 110//110 109//109 
f 129//129 108//108 112//112 
f 129//129 112//112 113//113 
f 130//130 113//113 115//115 
f 130//130 129//129 113//113 
f 130//130 115//115 87//87 
f 130//130 110//110 129//129 
f 130//130 87//87 114//114 
f 130//130 114//114 110//110 

