mtllib Tige_poids_petite_detente_Heures.mtl
usemtl Tige_poids_petite_detente_Heures
#Wavefront export of shape 1-49-7--Tige_poids_petite_detente_Heures

g Face_1
v 0.066111050991 -0.01913678504159999 -0.1063
v 0.066189895791 -0.02063471204159999 -0.1048
v 0.06626874059099999 -0.02213263904159999 -0.1063
v 0.066189895791 -0.02063471204159999 -0.1078
v 0.066111050991 -0.01913678504159999 -0.1063
v 0.05917115519999999 -0.01950207299999999 -0.1063
v 0.05925 -0.02099999999999999 -0.1048
v 0.05932884479999999 -0.02249792699999999 -0.1063
v 0.05925 -0.02099999999999999 -0.1078
v 0.05917115519999999 -0.01950207299999999 -0.1063
vn 4.92299e-16 1 3.49623e-16
vn -9.58942e-19 -2.88391e-16 1
vn -4.92299e-16 -1 -2.27158e-16
vn 9.58942e-19 1.65926e-16 -1
vn 4.92299e-16 1 1.04694e-16
vn 4.92299e-16 1 3.49623e-16
vn -9.58942e-19 -2.88391e-16 1
vn -4.92299e-16 -1 -2.27158e-16
vn 9.58942e-19 1.65926e-16 -1
vn 4.92299e-16 1 1.04694e-16
f 9//9 5//5 4//4 
f 9//9 10//10 5//5 
f 8//8 4//4 3//3 
f 8//8 9//9 4//4 
f 7//7 3//3 2//2 
f 7//7 8//8 3//3 
f 6//6 2//2 1//1 
f 6//6 7//7 2//2 

g Face_2
v 0.08376994908791999 -0.035029654232279994 -0.1063
v 0.08227202208791999 -0.03510849903227999 -0.1048
v 0.08077409508792 -0.03518734383227999 -0.1063
v 0.08227202208791999 -0.03510849903227999 -0.1078
v 0.08376994908791999 -0.035029654232279994 -0.1063
v 0.08139803019381199 -0.027267696553907192 -0.1063
v 0.07566389223429999 -0.021523658103655995 -0.1063
v 0.07106631760672 -0.019614581275839992 -0.1063
v 0.066111050991 -0.01913678504159999 -0.1063
v 0.066189895791 -0.02063471204159999 -0.1048
v 0.06626874059099999 -0.02213263904159999 -0.1063
v 0.066189895791 -0.02063471204159999 -0.1078
v 0.066111050991 -0.01913678504159999 -0.1063
v 0.08139803019381199 -0.027267696553907192 -0.1063
v 0.07566389223429999 -0.021523658103655995 -0.1063
v 0.07106631760672 -0.019614581275839992 -0.1063
v 0.08011188969484 -0.02803956750233599 -0.1048
v 0.07882575844666 -0.028811538102311993 -0.1063
v 0.08011188969484 -0.02803956750233599 -0.1078
v 0.07488976319303998 -0.02280842534534399 -0.1048
v 0.07411562942192 -0.02409329297446399 -0.1063
v 0.07488976319303998 -0.02280842534534399 -0.1078
v 0.07070270601904 -0.02106980613235999 -0.1048
v 0.07033909968768 -0.02252513085067999 -0.1063
v 0.07070270601904 -0.02106980613235999 -0.1078
vn 1 6.93889e-18 9.58942e-19
vn 6.02734e-17 1.7771e-17 1
vn -1 -6.93889e-18 -9.58942e-19
vn -1.82738e-16 -1.7771e-17 -1
vn 1 6.93889e-18 9.58942e-19
vn 0.883289 0.46883 -7.48455e-18
vn 0.560398 0.828224 -1.4181e-17
vn 0.293067 0.956092 -1.67097e-17
vn -6.93889e-18 1 -1.7771e-17
vn -9.58942e-19 7.90033e-17 1
vn 6.93889e-18 -1 1.7771e-17
vn 9.58942e-19 -2.01468e-16 -1
vn -6.93889e-18 1 -1.7771e-17
vn 0.883289 0.46883 -7.48455e-18
vn 0.560398 0.828224 -1.4181e-17
vn 0.293067 0.956092 -1.67097e-17
vn 5.31269e-17 4.64785e-17 1
vn -0.883289 -0.46883 7.48455e-18
vn -1.61299e-16 -1.03894e-16 -1
vn 3.33555e-17 6.84851e-17 1
vn -0.560398 -0.828224 1.4181e-17
vn -1.01984e-16 -1.69913e-16 -1
vn 1.69862e-17 7.63147e-17 1
vn -0.293067 -0.956092 1.67097e-17
vn -5.28766e-17 -1.93402e-16 -1
f 27//27 12//12 11//11 
f 27//27 11//11 16//16 
f 28//28 13//13 12//12 
f 28//28 12//12 27//27 
f 29//29 14//14 13//13 
f 29//29 15//15 14//14 
f 29//29 24//24 15//15 
f 29//29 13//13 28//28 
f 30//30 16//16 17//17 
f 30//30 27//27 16//16 
f 31//31 28//28 27//27 
f 31//31 27//27 30//30 
f 32//32 25//25 24//24 
f 32//32 24//24 29//29 
f 32//32 28//28 31//31 
f 32//32 29//29 28//28 
f 33//33 17//17 18//18 
f 33//33 18//18 19//19 
f 33//33 19//19 20//20 
f 33//33 30//30 17//17 
f 34//34 20//20 21//21 
f 34//34 33//33 20//20 
f 34//34 31//31 30//30 
f 34//34 30//30 33//33 
f 35//35 21//21 22//22 
f 35//35 22//22 23//23 
f 35//35 26//26 25//25 
f 35//35 23//23 26//26 
f 35//35 25//25 32//32 
f 35//35 32//32 31//31 
f 35//35 31//31 34//34 
f 35//35 34//34 21//21 

g Face_3
v 0.08376994908791999 -0.035029654232279994 -0.1063
v 0.08227202208791999 -0.03510849903227999 -0.1048
v 0.08077409508792 -0.03518734383227999 -0.1063
v 0.08227202208791999 -0.03510849903227999 -0.1078
v 0.08376994908791999 -0.035029654232279994 -0.1063
v 0.08560966108792 -0.06998128423227998 -0.1063
v 0.08560966108792 -0.06998128423227998 -0.1063
v 0.08411173408792 -0.07006012903227998 -0.1048
v 0.08261380708792 -0.07013897383227999 -0.1063
v 0.08411173408792 -0.07006012903227998 -0.1078
vn 1 1.06066e-16 9.58942e-19
vn 6.02734e-17 1.7771e-17 1
vn -1 -1.06066e-16 1.21506e-16
vn -1.82738e-16 -1.7771e-17 -1
vn 1 1.06066e-16 -2.4397e-16
vn 1 1.06066e-16 -2.4397e-16
vn 1 1.06066e-16 9.58942e-19
vn 6.02734e-17 1.7771e-17 1
vn -1 -1.06066e-16 1.21506e-16
vn -1.82738e-16 -1.7771e-17 -1
f 43//43 36//36 37//37 
f 43//43 42//42 36//36 
f 44//44 37//37 38//38 
f 44//44 43//43 37//37 
f 45//45 38//38 39//39 
f 45//45 44//44 38//38 
f 41//41 39//39 40//40 
f 41//41 45//45 39//39 

g Face_4
v 0.05917115519999999 -0.01950207299999999 -0.1063
v 0.05925 -0.02099999999999999 -0.1048
v 0.05932884479999999 -0.02249792699999999 -0.1063
v 0.05925 -0.02099999999999999 -0.1078
vn -1 -2.90216e-16 -9.58942e-19
vn -1 -2.90216e-16 -9.58942e-19
vn -1 -2.90216e-16 -9.58942e-19
vn -1 -2.90216e-16 -9.58942e-19
f 47//47 49//49 48//48 
f 47//47 46//46 49//49 

g Face_5
v 0.08560966108792 -0.06998128423227998 -0.1063
v 0.08411173408792 -0.07006012903227998 -0.1048
v 0.08261380708792 -0.07013897383227999 -0.1063
v 0.08411173408792 -0.07006012903227998 -0.1078
vn 1.29404e-16 -1 1.7771e-17
vn 1.29404e-16 -1 1.7771e-17
vn 1.29404e-16 -1 1.7771e-17
vn 1.29404e-16 -1 1.7771e-17
f 51//51 52//52 53//53 
f 51//51 53//53 50//50 

