mtllib Vis_Vis_plaques_instance_3.mtl
usemtl Vis_Vis_plaques_instance_3
#Wavefront export of shape 1-1-33--Vis_Vis_plaques

g Face_1
v 0.26055051 -0.121 -0.163
v 0.26544949 -0.121 -0.163
v 0.26410198 -0.11925598 -0.163
v 0.26189802 -0.11925598 -0.163
vn 0 0 -1
vn 0 0 -1
vn 0 0 -1
vn 0 0 -1
f 2//2 4//4 3//3 
f 2//2 1//1 4//4 

g Face_2
v 0.26544949 -0.122 -0.163
v 0.26055051 -0.122 -0.163
v 0.26189802 -0.12374402 -0.163
v 0.26410198 -0.12374402 -0.163
vn 0 0 -1
vn 0 0 -1
vn 0 0 -1
vn 0 0 -1
f 8//8 6//6 5//5 
f 8//8 7//7 6//6 

g Face_3
v 0.26055051 -0.121 -0.162
v 0.26055051 -0.121 -0.163
v 0.26052249 -0.12116541 -0.162
v 0.26050563 -0.121332328 -0.162
v 0.2605 -0.1215 -0.162
v 0.2605 -0.1215 -0.1605
v 0.2605 -0.1215 -0.1605
v 0.262227458 -0.12387764 -0.1605
v 0.26502254000000003 -0.12296946 -0.1605
v 0.26502254000000003 -0.12003053999999999 -0.1605
v 0.262227458 -0.11912236 -0.1605
v 0.2605 -0.1215 -0.162
v 0.26050563 -0.12166767199999999 -0.162
v 0.26052249 -0.12183458999999999 -0.162
v 0.26055051 -0.122 -0.162
v 0.26055051 -0.122 -0.163
v 0.26189802 -0.12374402 -0.163
v 0.26410198 -0.12374402 -0.163
v 0.26544949 -0.122 -0.163
v 0.26544949 -0.122 -0.162
v 0.26549437000000004 -0.12166767199999999 -0.162
v 0.26549437000000004 -0.121332328 -0.162
v 0.26544949 -0.121 -0.162
v 0.26544949 -0.121 -0.163
v 0.26410198 -0.11925598 -0.163
v 0.26189802 -0.11925598 -0.163
vn -0.979796 0.2 -0
vn -0.979796 0.2 -0
vn -0.991004 0.133836 -0
vn -0.997748 0.0670689 -0
vn -1 2.44929e-16 -0
vn -1 2.44929e-16 -0
vn -1 -0 0
vn -0.309017 -0.951057 0
vn 0.809017 -0.587785 0
vn 0.809017 0.587785 0
vn -0.309017 0.951057 -0
vn -1 -0 0
vn -0.997748 -0.0670689 0
vn -0.991004 -0.133836 0
vn -0.979796 -0.2 0
vn -0.979796 -0.2 0
vn -0.440791 -0.89761 0
vn 0.440791 -0.89761 0
vn 0.979796 -0.2 0
vn 0.979796 -0.2 0
vn 0.997748 -0.0670689 0
vn 0.997748 0.0670689 0
vn 0.979796 0.2 0
vn 0.979796 0.2 0
vn 0.440791 0.89761 0
vn -0.440791 0.89761 -0
f 25//25 23//23 24//24 
f 15//15 20//20 21//21 
f 15//15 21//21 22//22 
f 15//15 22//22 23//23 
f 16//16 25//25 26//26 
f 16//16 23//23 25//25 
f 16//16 15//15 23//23 
f 28//28 26//26 27//27 
f 33//33 31//31 32//32 
f 17//17 28//28 29//29 
f 17//17 16//16 26//26 
f 17//17 26//26 28//28 
f 18//18 29//29 30//30 
f 18//18 30//30 31//31 
f 18//18 31//31 33//33 
f 18//18 17//17 29//29 
f 9//9 34//34 10//10 
f 19//19 33//33 34//34 
f 19//19 18//18 33//33 
f 19//19 34//34 9//9 
f 14//14 9//9 11//11 
f 14//14 11//11 12//12 
f 14//14 12//12 13//13 
f 14//14 19//19 9//9 

g Face_4
v 0.2605 -0.1215 -0.1605
v 0.262227458 -0.12387764 -0.1605
v 0.26502254000000003 -0.12296946 -0.1605
v 0.26502254000000003 -0.12003053999999999 -0.1605
v 0.262227458 -0.11912236 -0.1605
v 0.26125000000000004 -0.1215 -0.1605
v 0.26245922 -0.12316434999999999 -0.1605
v 0.26441578 -0.12252861999999999 -0.1605
v 0.26441578 -0.12047138 -0.1605
v 0.26245922 -0.11983565 -0.1605
vn 0 0 1
vn 0 0 1
vn 0 0 1
vn 0 0 1
vn 0 0 1
vn 0 0 1
vn 0 0 1
vn 0 0 1
vn 0 0 1
vn 0 0 1
f 44//44 38//38 39//39 
f 44//44 43//43 38//38 
f 42//42 37//37 38//38 
f 42//42 38//38 43//43 
f 35//35 40//40 44//44 
f 35//35 44//44 39//39 
f 36//36 41//41 40//40 
f 36//36 42//42 41//41 
f 36//36 37//37 42//42 
f 36//36 40//40 35//35 

g Face_5
v 0.26125000000000004 -0.1215 -0.1562
v 0.26245922 -0.11983565 -0.1562
v 0.26441578 -0.12047138 -0.1562
v 0.26441578 -0.12252861999999999 -0.1562
v 0.26245922 -0.12316434999999999 -0.1562
v 0.26125000000000004 -0.1215 -0.1562
v 0.26125000000000004 -0.1215 -0.1605
v 0.26245922 -0.12316434999999999 -0.1605
v 0.26441578 -0.12252861999999999 -0.1605
v 0.26441578 -0.12047138 -0.1605
v 0.26245922 -0.11983565 -0.1605
v 0.26125000000000004 -0.1215 -0.1605
vn -1 2.44929e-16 -0
vn -0.309017 0.951057 -0
vn 0.809017 0.587785 0
vn 0.809017 -0.587785 0
vn -0.309017 -0.951057 0
vn -1 -0 0
vn -1 -0 0
vn -0.309017 -0.951057 0
vn 0.809017 -0.587785 0
vn 0.809017 0.587785 0
vn -0.309017 0.951057 -0
vn -1 2.44929e-16 -0
f 49//49 50//50 51//51 
f 49//49 51//51 52//52 
f 48//48 52//52 53//53 
f 48//48 49//49 52//52 
f 47//47 53//53 54//54 
f 47//47 48//48 53//53 
f 46//46 54//54 55//55 
f 46//46 47//47 54//54 
f 45//45 55//55 56//56 
f 45//45 46//46 55//55 

g Face_6
v 0.26195 -0.1215 -0.1555
v 0.263 -0.12254999999999999 -0.1555
v 0.26405 -0.1215 -0.1555
v 0.263 -0.12045 -0.1555
vn 0 0 1
vn 0 0 1
vn 0 0 1
vn 0 0 1
f 58//58 59//59 60//60 
f 58//58 60//60 57//57 

g Face_7
v 0.26125000000000004 -0.1215 -0.1562
v 0.26245922 -0.11983565 -0.1562
v 0.26441578 -0.12047138 -0.1562
v 0.26441578 -0.12252861999999999 -0.1562
v 0.26245922 -0.12316434999999999 -0.1562
v 0.26125000000000004 -0.1215 -0.1562
v 0.26195 -0.1215 -0.1555
v 0.26195 -0.1215 -0.1555
v 0.263 -0.12254999999999999 -0.1555
v 0.26405 -0.1215 -0.1555
v 0.263 -0.12045 -0.1555
vn -0.707107 -8.65956e-17 0.707107
vn -0.218508 0.672499 0.707107
vn 0.572061 0.415627 0.707107
vn 0.572061 -0.415627 0.707107
vn -0.218508 -0.672499 0.707107
vn -0.707107 -2.59787e-16 0.707107
vn -0.707107 -8.65956e-17 0.707107
vn -0.707107 -2.59787e-16 0.707107
vn 2.16489e-16 -0.707107 0.707107
vn 0.707107 1.73191e-16 0.707107
vn -1.29893e-16 0.707107 0.707107
f 62//62 61//61 67//67 
f 62//62 67//67 71//71 
f 63//63 71//71 70//70 
f 63//63 62//62 71//71 
f 64//64 63//63 70//70 
f 69//69 64//64 70//70 
f 65//65 64//64 69//69 
f 68//68 65//65 69//69 
f 66//66 65//65 68//68 

g Face_8
v 0.26055051 -0.121 -0.162
v 0.26544949 -0.121 -0.162
v 0.26544949 -0.121 -0.163
v 0.26055051 -0.121 -0.163
vn -0 -1 -0
vn -0 -1 -0
vn -0 -1 -0
vn -0 -1 -0
f 73//73 75//75 74//74 
f 73//73 72//72 75//75 

g Face_9
v 0.26544949 -0.122 -0.162
v 0.26055051 -0.122 -0.162
v 0.26055051 -0.122 -0.163
v 0.26544949 -0.122 -0.163
vn -0 1 -0
vn -0 1 -0
vn -0 1 -0
vn -0 1 -0
f 79//79 77//77 76//76 
f 79//79 78//78 77//77 

g Face_10
v 0.26055051 -0.121 -0.162
v 0.26544949 -0.121 -0.162
v 0.26544949 -0.122 -0.162
v 0.26549437000000004 -0.12166767199999999 -0.162
v 0.26549437000000004 -0.121332328 -0.162
v 0.26055051 -0.122 -0.162
v 0.2605 -0.1215 -0.162
v 0.26050563 -0.12166767199999999 -0.162
v 0.26052249 -0.12183458999999999 -0.162
v 0.26052249 -0.12116541 -0.162
v 0.26050563 -0.121332328 -0.162
vn 0 0 -1
vn 0 0 -1
vn 0 0 -1
vn 0 0 -1
vn 0 0 -1
vn 0 0 -1
vn 0 0 -1
vn 0 0 -1
vn 0 0 -1
vn 0 0 -1
vn 0 0 -1
f 82//82 80//80 81//81 
f 82//82 84//84 83//83 
f 82//82 81//81 84//84 
f 82//82 87//87 86//86 
f 82//82 88//88 87//87 
f 82//82 85//85 88//88 
f 82//82 89//89 80//80 
f 82//82 90//90 89//89 
f 82//82 86//86 90//90 

