mtllib Vis_Vis_Balancier.mtl
usemtl Vis_Vis_Balancier
#Wavefront export of shape 1-86-44--Vis_Vis_Balancier

g Face_1
v 0.15033801949709 -0.3892373614293129 -0.015080009999999828
v 0.14540406330290997 -0.38936403457068697 -0.015080009999999828
v 0.146786062677274 -0.3911580368610169 -0.015080009999999828
v 0.149049897630454 -0.39109991573594294 -0.015080009999999828
vn 1.2326e-32 0 -1
vn 1.2326e-32 0 -1
vn 1.2326e-32 0 -1
vn 1.2326e-32 0 -1
f 2//2 4//4 3//3 
f 2//2 1//1 4//4 

g Face_2
v 0.14538353106291 -0.38856429777068696 -0.015080009999999828
v 0.15031748725709002 -0.3884376246293129 -0.015080009999999828
v 0.14893548788272598 -0.386643622338983 -0.015080009999999828
v 0.14667165292954598 -0.38670174346405695 -0.015080009999999828
vn 1.2326e-32 0 -1
vn 1.2326e-32 0 -1
vn 1.2326e-32 0 -1
vn 1.2326e-32 0 -1
f 8//8 6//6 5//5 
f 8//8 7//7 6//6 

g Face_3
v 0.15033801949709 -0.3892373614293129 -0.014280009999999827
v 0.15033801949709 -0.3892373614293129 -0.015080009999999828
v 0.1503524879832518 -0.38910425219007494 -0.014280009999999827
v 0.15035979913318848 -0.3889705594534219 -0.014280009999999827
v 0.15035995278 -0.3888366663499999 -0.014280009999999827
v 0.15035995278 -0.3888366663499999 -0.012580009999999827
v 0.15035995278 -0.3888366663499999 -0.012580009999999827
v 0.14857204026978998 -0.38650414432136737 -0.012580009999999827
v 0.145801186563922 -0.38748376214820196 -0.012580009999999827
v 0.145876614827398 -0.3904217152435219 -0.012580009999999827
v 0.148694085957574 -0.3912578598342473 -0.012580009999999827
v 0.15035995278 -0.3888366663499999 -0.014280009999999827
v 0.1503529287890315 -0.3887029575234319 -0.014280009999999827
v 0.15033876700588822 -0.3885698160774229 -0.014280009999999827
v 0.15031748725709002 -0.3884376246293129 -0.014280009999999827
v 0.15031748725709002 -0.3884376246293129 -0.015080009999999828
v 0.14893548788272598 -0.386643622338983 -0.015080009999999828
v 0.14667165292954598 -0.38670174346405695 -0.015080009999999828
v 0.14538353106291 -0.38856429777068696 -0.015080009999999828
v 0.14538353106291 -0.38856429777068696 -0.014280009999999827
v 0.14536175142681151 -0.388831099746578 -0.014280009999999827
v 0.1453686217709685 -0.38909870167656796 -0.014280009999999827
v 0.14540406330290997 -0.38936403457068697 -0.014280009999999827
v 0.14540406330290997 -0.38936403457068697 -0.015080009999999828
v 0.146786062677274 -0.3911580368610169 -0.015080009999999828
v 0.149049897630454 -0.39109991573594294 -0.015080009999999828
vn 0.987117 -0.16 1.21672e-32
vn 0.987117 -0.16 1.21672e-32
vn 0.994267 -0.106922 1.22553e-32
vn 0.998566 -0.0535379 1.23083e-32
vn 1 -1.33907e-16 1.2326e-32
vn 1 -1.33907e-16 1.2326e-32
vn 1 1.11022e-16 1.2326e-32
vn 0.309017 0.951057 3.80893e-33
vn -0.809017 0.587785 -9.9719e-33
vn -0.809017 -0.587785 -9.9719e-33
vn 0.309017 -0.951057 3.80893e-33
vn 1 1.11022e-16 1.2326e-32
vn 0.998566 0.0535379 1.23083e-32
vn 0.994267 0.106922 1.22553e-32
vn 0.987117 0.16 1.21672e-32
vn 0.987117 0.16 1.21672e-32
vn 0.452918 0.891552 5.58264e-33
vn -0.452918 0.891552 -5.58264e-33
vn -0.987117 0.16 -1.21672e-32
vn -0.987117 0.16 -1.21672e-32
vn -0.998566 0.0535379 -1.23083e-32
vn -0.998566 -0.0535379 -1.23083e-32
vn -0.987117 -0.16 -1.21672e-32
vn -0.987117 -0.16 -1.21672e-32
vn -0.452918 -0.891552 -5.58264e-33
vn 0.452918 -0.891552 5.58264e-33
f 25//25 23//23 24//24 
f 15//15 20//20 21//21 
f 15//15 21//21 22//22 
f 15//15 22//22 23//23 
f 16//16 25//25 26//26 
f 16//16 23//23 25//25 
f 16//16 15//15 23//23 
f 28//28 26//26 27//27 
f 33//33 31//31 32//32 
f 17//17 28//28 29//29 
f 17//17 16//16 26//26 
f 17//17 26//26 28//28 
f 18//18 29//29 30//30 
f 18//18 30//30 31//31 
f 18//18 31//31 33//33 
f 18//18 17//17 29//29 
f 9//9 34//34 10//10 
f 19//19 33//33 34//34 
f 19//19 18//18 33//33 
f 19//19 34//34 9//9 
f 14//14 9//9 11//11 
f 14//14 11//11 12//12 
f 14//14 12//12 13//13 
f 14//14 19//19 9//9 

g Face_4
v 0.15035995278 -0.3888366663499999 -0.012580009999999827
v 0.14857204026978998 -0.38650414432136737 -0.012580009999999827
v 0.145801186563922 -0.38748376214820196 -0.012580009999999827
v 0.145876614827398 -0.3904217152435219 -0.012580009999999827
v 0.148694085957574 -0.3912578598342473 -0.012580009999999827
v 0.14961019953 -0.38885591532499997 -0.012580009999999827
v 0.148358661321325 -0.38722314789021595 -0.012580009999999827
v 0.14641906123073398 -0.3879088844344139 -0.012580009999999827
v 0.146471860912506 -0.38996544760245394 -0.012580009999999827
v 0.148444093405435 -0.39055075274791595 -0.012580009999999827
vn -1.2326e-32 0 1
vn -1.2326e-32 0 1
vn -1.2326e-32 0 1
vn -1.2326e-32 0 1
vn -1.2326e-32 0 1
vn -1.2326e-32 0 1
vn -1.2326e-32 0 1
vn -1.2326e-32 0 1
vn -1.2326e-32 0 1
vn -1.2326e-32 0 1
f 44//44 38//38 39//39 
f 44//44 43//43 38//38 
f 42//42 37//37 38//38 
f 42//42 38//38 43//43 
f 35//35 40//40 44//44 
f 35//35 44//44 39//39 
f 36//36 41//41 40//40 
f 36//36 42//42 41//41 
f 36//36 37//37 42//42 
f 36//36 40//40 35//35 

g Face_5
v 0.14961019953 -0.38885591532499997 -0.008780009999999828
v 0.148444093405435 -0.39055075274791595 -0.008780009999999828
v 0.146471860912506 -0.38996544760245394 -0.008780009999999828
v 0.14641906123073398 -0.3879088844344139 -0.008780009999999828
v 0.148358661321325 -0.38722314789021595 -0.008780009999999828
v 0.14961019953 -0.38885591532499997 -0.008780009999999828
v 0.14961019953 -0.38885591532499997 -0.012580009999999827
v 0.148358661321325 -0.38722314789021595 -0.012580009999999827
v 0.14641906123073398 -0.3879088844344139 -0.012580009999999827
v 0.146471860912506 -0.38996544760245394 -0.012580009999999827
v 0.148444093405435 -0.39055075274791595 -0.012580009999999827
v 0.14961019953 -0.38885591532499997 -0.012580009999999827
vn 1 -1.33907e-16 1.2326e-32
vn 0.309017 -0.951057 3.80893e-33
vn -0.809017 -0.587785 -9.9719e-33
vn -0.809017 0.587785 -9.9719e-33
vn 0.309017 0.951057 3.80893e-33
vn 1 1.11022e-16 1.2326e-32
vn 1 1.11022e-16 1.2326e-32
vn 0.309017 0.951057 3.80893e-33
vn -0.809017 0.587785 -9.9719e-33
vn -0.809017 -0.587785 -9.9719e-33
vn 0.309017 -0.951057 3.80893e-33
vn 1 -1.33907e-16 1.2326e-32
f 49//49 50//50 51//51 
f 49//49 51//51 52//52 
f 48//48 52//52 53//53 
f 48//48 49//49 52//52 
f 47//47 53//53 54//54 
f 47//47 48//48 53//53 
f 46//46 54//54 55//55 
f 46//46 47//47 54//54 
f 45//45 55//55 56//56 
f 45//45 46//46 55//55 

g Face_6
v 0.14891042983 -0.3888738810349999 -0.008080009999999829
v 0.147833826715 -0.38785117504999994 -0.008080009999999829
v 0.14681112073 -0.38892777816499996 -0.008080009999999829
v 0.14788772384499999 -0.38995048414999994 -0.008080009999999829
vn -1.2326e-32 0 1
vn -1.2326e-32 0 1
vn -1.2326e-32 0 1
vn -1.2326e-32 0 1
f 57//57 58//58 59//59 
f 57//57 59//59 60//60 

g Face_7
v 0.14961019953 -0.38885591532499997 -0.008780009999999828
v 0.148444093405435 -0.39055075274791595 -0.008780009999999828
v 0.146471860912506 -0.38996544760245394 -0.008780009999999828
v 0.14641906123073398 -0.3879088844344139 -0.008780009999999828
v 0.148358661321325 -0.38722314789021595 -0.008780009999999828
v 0.14961019953 -0.38885591532499997 -0.008780009999999828
v 0.14891042983 -0.3888738810349999 -0.008080009999999829
v 0.14891042983 -0.3888738810349999 -0.008080009999999829
v 0.147833826715 -0.38785117504999994 -0.008080009999999829
v 0.14681112073 -0.38892777816499996 -0.008080009999999829
v 0.14788772384499999 -0.38995048414999994 -0.008080009999999829
vn 0.707107 1.651e-16 0.707107
vn 0.218508 -0.672499 0.707107
vn -0.572061 -0.415627 0.707107
vn -0.572061 0.415627 0.707107
vn 0.218508 0.672499 0.707107
vn 0.707107 3.38291e-16 0.707107
vn 0.707107 1.651e-16 0.707107
vn 0.707107 3.38291e-16 0.707107
vn -2.94994e-16 0.707107 0.707107
vn -0.707107 -2.51696e-16 0.707107
vn 2.08398e-16 -0.707107 0.707107
f 62//62 61//61 67//67 
f 62//62 67//67 71//71 
f 63//63 71//71 70//70 
f 63//63 62//62 71//71 
f 64//64 63//63 70//70 
f 69//69 64//64 70//70 
f 65//65 64//64 69//69 
f 68//68 65//65 69//69 
f 66//66 65//65 68//68 

g Face_8
v 0.15033801949709 -0.3892373614293129 -0.014280009999999827
v 0.14540406330290997 -0.38936403457068697 -0.014280009999999827
v 0.14540406330290997 -0.38936403457068697 -0.015080009999999828
v 0.15033801949709 -0.3892373614293129 -0.015080009999999828
vn -1.11022e-16 1 -1.36846e-48
vn -1.11022e-16 1 -1.36846e-48
vn -1.11022e-16 1 -1.36846e-48
vn -1.11022e-16 1 -1.36846e-48
f 73//73 75//75 74//74 
f 73//73 72//72 75//75 

g Face_9
v 0.14538353106291 -0.38856429777068696 -0.014280009999999827
v 0.15031748725709002 -0.3884376246293129 -0.014280009999999827
v 0.15031748725709002 -0.3884376246293129 -0.015080009999999828
v 0.14538353106291 -0.38856429777068696 -0.015080009999999828
vn 1.11022e-16 -1 1.36846e-48
vn 1.11022e-16 -1 1.36846e-48
vn 1.11022e-16 -1 1.36846e-48
vn 1.11022e-16 -1 1.36846e-48
f 79//79 77//77 76//76 
f 79//79 78//78 77//77 

g Face_10
v 0.15033801949709 -0.3892373614293129 -0.014280009999999827
v 0.14540406330290997 -0.38936403457068697 -0.014280009999999827
v 0.14538353106291 -0.38856429777068696 -0.014280009999999827
v 0.14536175142681151 -0.388831099746578 -0.014280009999999827
v 0.1453686217709685 -0.38909870167656796 -0.014280009999999827
v 0.15031748725709002 -0.3884376246293129 -0.014280009999999827
v 0.15035995278 -0.3888366663499999 -0.014280009999999827
v 0.1503529287890315 -0.3887029575234319 -0.014280009999999827
v 0.15033876700588822 -0.3885698160774229 -0.014280009999999827
v 0.1503524879832518 -0.38910425219007494 -0.014280009999999827
v 0.15035979913318848 -0.3889705594534219 -0.014280009999999827
vn 1.2326e-32 0 -1
vn 1.2326e-32 0 -1
vn 1.2326e-32 0 -1
vn 1.2326e-32 0 -1
vn 1.2326e-32 0 -1
vn 1.2326e-32 0 -1
vn 1.2326e-32 0 -1
vn 1.2326e-32 0 -1
vn 1.2326e-32 0 -1
vn 1.2326e-32 0 -1
vn 1.2326e-32 0 -1
f 85//85 87//87 86//86 
f 85//85 88//88 87//87 
f 85//85 89//89 80//80 
f 85//85 90//90 89//89 
f 85//85 86//86 90//90 
f 82//82 80//80 81//81 
f 82//82 84//84 83//83 
f 82//82 81//81 84//84 
f 82//82 85//85 80//80 

