mtllib Vis_Cliquet_Quarts.mtl
usemtl Vis_Cliquet_Quarts
#Wavefront export of shape 1-56--Vis_Cliquet_Quarts

g Face_1
v 0.22239607909999995 -0.224012041 -0.1121
v 0.22495371801623998 -0.22558000510937598 -0.1121
v 0.22487463891624 -0.228578964109376 -0.1121
v 0.2222379209 -0.23000995899999999 -0.1121
v 0.21968028198376 -0.228441994890624 -0.1121
v 0.21975936108375999 -0.22544303589062398 -0.1121
v 0.22239607909999995 -0.224012041 -0.1121
v 0.22239607909999995 -0.224012041 -0.1105
v 0.22529749032785 -0.226669445910865 -0.1105
v 0.224808361014012 -0.22533972994138798 -0.1105
v 0.223763542199451 -0.224382785884782 -0.1105
v 0.22530883212887998 -0.22678978675011197 -0.1111
v 0.22529301630888 -0.227389578550112 -0.1111
v 0.22531164968189468 -0.22719014932759798 -0.1111
v 0.2253169294770853 -0.22698992083100397 -0.1111
v 0.22527534817984998 -0.22750915443086497 -0.1105
v 0.21933650967215 -0.227352554089135 -0.1105
v 0.22087045780054898 -0.22963921411521798 -0.1105
v 0.22362302232910897 -0.229711796076362 -0.1105
v 0.21932516787112 -0.22723221324988802 -0.1111
v 0.21934098369111998 -0.226632421449888 -0.1111
v 0.2193223503181053 -0.226831850672402 -0.1111
v 0.2193170705229147 -0.227032079168996 -0.1111
v 0.21935865182015 -0.226512845569135 -0.1105
v 0.22239607909999995 -0.224012041 -0.1105
v 0.221010977670891 -0.22431020392363799 -0.1105
v 0.219917178843372 -0.225210755092452 -0.1105
vn 0.0263597 0.999653 7.65128e-16
vn 0.878904 0.476998 -6.04e-17
vn 0.852545 -0.522654 -8.25528e-16
vn -0.0263597 -0.999653 -7.65128e-16
vn -0.878904 -0.476998 6.04e-17
vn -0.852545 0.522654 8.25528e-16
vn 0.0263597 0.999653 7.65128e-16
vn 0.0263597 0.999653 7.65128e-16
vn 0.993498 0.113851 -3.99336e-16
vn 0.830452 0.557089 2.57357e-17
vn 0.48218 0.876072 4.45067e-16
vn 0.997278 0.0737376 -4.32414e-16
vn 0.992006 -0.126193 -5.8544e-16
vn 0.998215 -0.0597164 -5.36748e-16
vn 0.999975 0.00702628 -4.85664e-16
vn 0.986117 -0.166051 -6.13571e-16
vn -0.993498 -0.113851 3.99336e-16
vn -0.48218 -0.876072 -4.45067e-16
vn 0.43534 -0.900266 -9.14533e-16
vn -0.997278 -0.0737376 4.32414e-16
vn -0.992006 0.126193 5.8544e-16
vn -0.998215 0.0597164 5.36748e-16
vn -0.999975 -0.00702628 4.85664e-16
vn -0.986117 0.166051 6.13571e-16
vn 0.0263597 0.999653 7.65128e-16
vn -0.43534 0.900266 9.14533e-16
vn -0.799939 0.600081 8.59956e-16
f 1//1 8//8 11//11 
f 12//12 10//10 9//9 
f 12//12 11//11 10//10 
f 19//19 13//13 16//16 
f 2//2 12//12 15//15 
f 2//2 11//11 12//12 
f 2//2 1//1 11//11 
f 3//3 14//14 13//13 
f 3//3 15//15 14//14 
f 3//3 13//13 19//19 
f 3//3 2//2 15//15 
f 4//4 19//19 18//18 
f 4//4 3//3 19//19 
f 20//20 18//18 17//17 
f 21//21 24//24 27//27 
f 26//26 21//21 27//27 
f 5//5 20//20 23//23 
f 5//5 4//4 18//18 
f 5//5 18//18 20//20 
f 6//6 22//22 21//21 
f 6//6 23//23 22//22 
f 6//6 5//5 23//23 
f 6//6 21//21 26//26 
f 7//7 26//26 25//25 
f 7//7 6//6 26//26 

g Face_2
v 0.22530883212887998 -0.22678978675011197 -0.1111
v 0.22529749032785 -0.226669445910865 -0.1105
v 0.21934098369111998 -0.226632421449888 -0.1111
v 0.21935865182015 -0.226512845569135 -0.1105
v 0.22132966081127767 -0.22649565374330097 -0.1101542959
v 0.22333012640875768 -0.226548403720553 -0.1101542959
vn -0.0258479 -0.98024 0.196116
vn -0.0258479 -0.98024 0.196116
vn -0.0258479 -0.98024 0.196116
vn -0.0258479 -0.98024 0.196116
vn -0.0258479 -0.98024 0.196116
vn -0.0258479 -0.98024 0.196116
f 32//32 31//31 30//30 
f 28//28 33//33 32//32 
f 28//28 32//32 30//30 
f 29//29 33//33 28//28 

g Face_3
v 0.21932516787112 -0.22723221324988802 -0.1111
v 0.21933650967215 -0.227352554089135 -0.1105
v 0.22529301630888 -0.227389578550112 -0.1111
v 0.22527534817984998 -0.22750915443086497 -0.1105
v 0.2233043391887223 -0.227526346256699 -0.1101542959
v 0.2213038735912423 -0.227473596279447 -0.1101542959
vn 0.0258479 0.98024 0.196116
vn 0.0258479 0.98024 0.196116
vn 0.0258479 0.98024 0.196116
vn 0.0258479 0.98024 0.196116
vn 0.0258479 0.98024 0.196116
vn 0.0258479 0.98024 0.196116
f 39//39 34//34 35//35 
f 36//36 38//38 37//37 
f 36//36 39//39 38//38 
f 36//36 34//34 39//39 

g Face_4
v 0.22239607909999995 -0.224012041 -0.1121
v 0.22495371801623998 -0.22558000510937598 -0.1121
v 0.22487463891624 -0.228578964109376 -0.1121
v 0.2222379209 -0.23000995899999999 -0.1121
v 0.21968028198376 -0.228441994890624 -0.1121
v 0.21975936108375999 -0.22544303589062398 -0.1121
v 0.22236312947499998 -0.22526160725 -0.1121
v 0.223995027269116 -0.22651427941735497 -0.1121
v 0.22330794353279398 -0.228453402838954 -0.1121
v 0.22125141739507398 -0.22839917460972597 -0.1121
v 0.220667482328016 -0.22642653588396497 -0.1121
vn -4.91145e-16 7.78345e-16 -1
vn -4.91145e-16 7.78345e-16 -1
vn -4.91145e-16 7.78345e-16 -1
vn -4.91145e-16 7.78345e-16 -1
vn -4.91145e-16 7.78345e-16 -1
vn -4.91145e-16 7.78345e-16 -1
vn -4.91145e-16 7.78345e-16 -1
vn -4.91145e-16 7.78345e-16 -1
vn -4.91145e-16 7.78345e-16 -1
vn -4.91145e-16 7.78345e-16 -1
vn -4.91145e-16 7.78345e-16 -1
f 49//49 43//43 44//44 
f 50//50 49//49 44//44 
f 45//45 50//50 44//44 
f 48//48 43//43 49//49 
f 42//42 43//43 48//48 
f 46//46 50//50 45//45 
f 47//47 42//42 48//48 
f 40//40 46//46 45//45 
f 41//41 47//47 46//46 
f 41//41 46//46 40//40 
f 41//41 42//42 47//47 

g Face_5
v 0.22236312947499998 -0.22526160725 -0.1213
v 0.220667482328016 -0.22642653588396497 -0.1213
v 0.22125141739507398 -0.22839917460972597 -0.1213
v 0.22330794353279398 -0.22845340283895396 -0.1213
v 0.223995027269116 -0.22651427941735497 -0.1213
v 0.22236312947499998 -0.22526160725 -0.1213
v 0.22236312947499998 -0.22526160725 -0.1121
v 0.223995027269116 -0.22651427941735497 -0.1121
v 0.22330794353279398 -0.228453402838954 -0.1121
v 0.22125141739507398 -0.22839917460972597 -0.1121
v 0.220667482328016 -0.22642653588396497 -0.1121
v 0.22236312947499998 -0.22526160725 -0.1121
vn 0.0263597 0.999653 7.65128e-16
vn -0.94258 0.333979 7.22894e-16
vn -0.608906 -0.793242 -3.18355e-16
vn 0.566256 -0.82423 -9.19649e-16
vn 0.958872 0.28384 -2.50019e-16
vn 0.0263597 0.999653 7.65128e-16
vn 0.0263597 0.999653 7.65128e-16
vn 0.958872 0.28384 -2.50019e-16
vn 0.566256 -0.82423 -9.19649e-16
vn -0.608906 -0.793242 -3.18355e-16
vn -0.94258 0.333979 7.22894e-16
vn 0.0263597 0.999653 7.65128e-16
f 55//55 56//56 57//57 
f 55//55 57//57 58//58 
f 54//54 58//58 59//59 
f 54//54 55//55 58//58 
f 53//53 59//59 60//60 
f 53//53 54//54 59//59 
f 52//52 60//60 61//61 
f 52//52 53//53 60//60 
f 51//51 61//61 62//62 
f 51//51 52//52 61//61 

g Face_6
v 0.22235522156499996 -0.22556150314999998 -0.1216
v 0.22376649684999997 -0.22704922156499996 -0.1216
v 0.22227877843499996 -0.22846049685 -0.1216
v 0.22086750314999998 -0.22697277843499997 -0.1216
vn -4.91145e-16 7.78345e-16 -1
vn -4.91145e-16 7.78345e-16 -1
vn -4.91145e-16 7.78345e-16 -1
vn -4.91145e-16 7.78345e-16 -1
f 64//64 65//65 66//66 
f 64//64 66//66 63//63 

g Face_7
v 0.22236312947499998 -0.22526160725 -0.1213
v 0.220667482328016 -0.22642653588396497 -0.1213
v 0.22125141739507398 -0.22839917460972597 -0.1213
v 0.22330794353279398 -0.22845340283895396 -0.1213
v 0.223995027269116 -0.22651427941735497 -0.1213
v 0.22236312947499998 -0.22526160725 -0.1213
v 0.22235522156499996 -0.22556150314999998 -0.1216
v 0.22235522156499996 -0.22556150314999998 -0.1216
v 0.22376649684999997 -0.22704922156499996 -0.1216
v 0.22227877843499996 -0.22846049685 -0.1216
v 0.22086750314999998 -0.22697277843499997 -0.1216
vn 0.0186392 0.706861 -0.707107
vn -0.666505 0.236159 -0.707107
vn -0.430562 -0.560907 -0.707107
vn 0.400403 -0.582818 -0.707107
vn 0.678025 0.200705 -0.707107
vn 0.0186392 0.706861 -0.707107
vn 0.0186392 0.706861 -0.707107
vn 0.0186392 0.706861 -0.707107
vn 0.706861 -0.0186392 -0.707107
vn -0.0186392 -0.706861 -0.707107
vn -0.706861 0.0186392 -0.707107
f 68//68 67//67 73//73 
f 77//77 68//68 73//73 
f 69//69 68//68 77//77 
f 76//76 69//69 77//77 
f 70//70 69//69 76//76 
f 75//75 70//70 76//76 
f 71//71 70//70 75//75 
f 74//74 71//71 75//75 
f 72//72 71//71 74//74 

g Face_8
v 0.21934098369111998 -0.226632421449888 -0.1111
v 0.2193223503181053 -0.226831850672402 -0.1111
v 0.2193170705229147 -0.227032079168996 -0.1111
v 0.21932516787112 -0.22723221324988802 -0.1111
v 0.22530883212887998 -0.22678978675011197 -0.1111
v 0.22529301630888 -0.227389578550112 -0.1111
v 0.22531164968189468 -0.22719014932759798 -0.1111
v 0.2253169294770853 -0.22698992083100397 -0.1111
vn 4.92139e-16 -7.40647e-16 1
vn 4.92139e-16 -7.40647e-16 1
vn 4.92139e-16 -7.40647e-16 1
vn 4.92139e-16 -7.40647e-16 1
vn 4.92139e-16 -7.40647e-16 1
vn 4.92139e-16 -7.40647e-16 1
vn 4.92139e-16 -7.40647e-16 1
vn 4.92139e-16 -7.40647e-16 1
f 78//78 79//79 80//80 
f 78//78 80//80 81//81 
f 78//78 83//83 84//84 
f 78//78 84//84 85//85 
f 78//78 85//85 82//82 
f 78//78 81//81 83//83 

g Face_9
v 0.22527534817984998 -0.22750915443086497 -0.1105
v 0.2233043391887223 -0.227526346256699 -0.1101542959
v 0.2213038735912423 -0.227473596279447 -0.1101542959
v 0.21933650967215 -0.227352554089135 -0.1105
v 0.22087045780054898 -0.22963921411521798 -0.1105
v 0.22362302232910897 -0.229711796076362 -0.1105
vn 0.258371 -0.0435069 0.965066
vn 0.0862309 -0.0450084 0.995258
vn -0.088483 -0.0404014 0.995258
vn -0.260305 -0.02983 0.965066
vn -0.126335 -0.229538 0.965066
vn 0.114063 -0.235878 0.965066
f 87//87 91//91 86//86 
f 88//88 90//90 91//91 
f 88//88 91//91 87//87 
f 89//89 90//90 88//88 

g Face_10
v 0.21935865182015 -0.226512845569135 -0.1105
v 0.22132966081127767 -0.22649565374330097 -0.1101542959
v 0.22333012640875768 -0.226548403720553 -0.1101542959
v 0.22529749032785 -0.226669445910865 -0.1105
v 0.224808361014012 -0.22533972994138798 -0.1105
v 0.223763542199451 -0.224382785884782 -0.1105
v 0.22239607909999995 -0.224012041 -0.1105
v 0.221010977670891 -0.22431020392363799 -0.1105
v 0.219917178843372 -0.225210755092452 -0.1105
vn -0.258371 0.0435069 0.965066
vn -0.0862309 0.0450084 0.995258
vn 0.088483 0.0404014 0.995258
vn 0.260305 0.02983 0.965066
vn 0.217586 0.145962 0.965066
vn 0.126335 0.229539 0.965066
vn 0.00690648 0.261918 0.965066
vn -0.114063 0.235878 0.965066
vn -0.209591 0.157226 0.965066
f 94//94 95//95 96//96 
f 97//97 94//94 96//96 
f 98//98 93//93 94//94 
f 98//98 94//94 97//97 
f 99//99 93//93 98//98 
f 100//100 92//92 93//93 
f 100//100 93//93 99//99 

