mtllib Vis_Poid_Gdetente_instance_1.mtl
usemtl Vis_Poid_Gdetente_instance_1
#Wavefront export of shape 1-66-9--Vis_Poid_Gdetente

g Face_1
v 0.24046259761016603 -0.012670479363990005 -0.06375051
v 0.24046259761016603 -0.012670479363990005 -0.06864949
v 0.23846861826363003 -0.012825547035950005 -0.0662
v 0.23872382768019318 -0.01280569992461584 -0.06730198
v 0.23943717379141644 -0.012750224464972154 -0.06817828999999999
v 0.23943717379141644 -0.012750224464972154 -0.06422171
v 0.23872382768019318 -0.01280569992461584 -0.06509801999999999
vn -0.45399 0.891007 -2.33995e-18
vn -0.45399 0.891007 -2.33995e-18
vn -0.45399 0.891007 -2.33995e-18
vn -0.45399 0.891007 -2.33995e-18
vn -0.45399 0.891007 -2.33995e-18
vn -0.45399 0.891007 -2.33995e-18
vn -0.45399 0.891007 -2.33995e-18
f 2//2 4//4 3//3 
f 2//2 5//5 4//4 
f 2//2 6//6 1//1 
f 2//2 7//7 6//6 
f 2//2 3//3 7//7 

g Face_2
v 0.24145958728343403 -0.012592945528009993 -0.06375051
v 0.24145958728343403 -0.012592945528009993 -0.06864949
v 0.24319835721340688 -0.012457724967384167 -0.06730198
v 0.24319835721340688 -0.012457724967384167 -0.06509801999999999
vn -0.45399 0.891007 -2.33995e-18
vn -0.45399 0.891007 -2.33995e-18
vn -0.45399 0.891007 -2.33995e-18
vn -0.45399 0.891007 -2.33995e-18
f 10//10 9//9 8//8 
f 10//10 8//8 11//11 

g Face_3
v 0.24127679113542363 -0.014111690188706002 -0.06370801
v 0.24145958728343403 -0.012592945528009993 -0.06375051
v 0.24087799526611645 -0.014142703723098001 -0.06370801
v 0.2410108639801739 -0.01413237079653033 -0.06370089
v 0.24114392242136617 -0.01412202311527367 -0.06370089
v 0.24046259761016603 -0.012670479363990005 -0.06375051
v 0.23943717379141644 -0.012750224464972154 -0.06422171
v 0.23872382768019318 -0.01280569992461584 -0.06509801999999999
v 0.23846861826363003 -0.012825547035950005 -0.0662
v 0.23870121977157002 -0.015816516055754 -0.0662
v 0.23870121977157002 -0.015816516055754 -0.0662
v 0.2404234775585742 -0.01568257961051966 -0.06857764
v 0.2432101454485115 -0.015465866181181011 -0.06766946
v 0.2432101454485115 -0.015465866181181011 -0.06473053999999999
v 0.2404234775585742 -0.01568257961051966 -0.06382236
v 0.23846861826363003 -0.012825547035950005 -0.0662
v 0.23872382768019318 -0.01280569992461584 -0.06730198
v 0.23943717379141644 -0.012750224464972154 -0.06817828999999999
v 0.24046259761016603 -0.012670479363990005 -0.06864949
v 0.24087799526611645 -0.014142703723098001 -0.06869199
v 0.24127679113542363 -0.014111690188706002 -0.06869199
v 0.24114392242136617 -0.01412202311527367 -0.06869911
v 0.2410108639801739 -0.01413237079653033 -0.06869911
v 0.24145958728343403 -0.012592945528009993 -0.06864949
v 0.24319835721340688 -0.012457724967384167 -0.06730198
v 0.24319835721340688 -0.012457724967384167 -0.06509801999999999
vn 0.0712805 0.0363192 0.996795
vn 0.178201 0.0907981 0.979796
vn -0.0712805 -0.0363192 0.996795
vn -0.0237828 -0.0121179 0.999644
vn 0.0237828 0.0121179 0.999644
vn -0.178201 -0.0907981 0.979796
vn -0.544768 -0.277573 0.791316
vn -0.799776 -0.407506 0.440791
vn -0.891007 -0.45399 1.33907e-16
vn -0.891007 -0.45399 1.33907e-16
vn -0.891007 -0.45399 -1.11022e-16
vn -0.275336 -0.140291 -0.951057
vn 0.720839 0.367286 -0.587785
vn 0.720839 0.367286 0.587785
vn -0.275336 -0.140291 0.951057
vn -0.891007 -0.45399 -1.11022e-16
vn -0.799776 -0.407506 -0.440791
vn -0.544768 -0.277573 -0.791316
vn -0.178201 -0.0907981 -0.979796
vn -0.0712805 -0.0363192 -0.996795
vn 0.0712805 0.0363192 -0.996795
vn 0.0237828 0.0121179 -0.999644
vn -0.0237828 -0.0121179 -0.999644
vn 0.178201 0.0907981 -0.979796
vn 0.799776 0.407506 -0.440791
vn 0.799776 0.407506 0.440791
f 22//22 27//27 28//28 
f 31//31 28//28 29//29 
f 31//31 29//29 30//30 
f 31//31 22//22 28//28 
f 36//36 32//32 35//35 
f 23//23 33//33 32//32 
f 23//23 34//34 33//33 
f 23//23 31//31 34//34 
f 23//23 22//22 31//31 
f 24//24 32//32 36//36 
f 24//24 23//23 32//32 
f 12//12 37//37 13//13 
f 25//25 36//36 37//37 
f 25//25 24//24 36//36 
f 25//25 37//37 12//12 
f 14//14 17//17 18//18 
f 19//19 14//14 18//18 
f 26//26 15//15 14//14 
f 26//26 16//16 15//15 
f 26//26 12//12 16//16 
f 26//26 25//25 12//12 
f 21//21 19//19 20//20 
f 21//21 14//14 19//19 
f 21//21 26//26 14//14 

g Face_4
v 0.23870121977157002 -0.015816516055754 -0.0662
v 0.2404234775585742 -0.01568257961051966 -0.06857764
v 0.2432101454485115 -0.015465866181181011 -0.06766946
v 0.2432101454485115 -0.015465866181181011 -0.06473053999999999
v 0.2404234775585742 -0.01568257961051966 -0.06382236
v 0.23944896202652102 -0.015758365678769003 -0.0662
v 0.24065454187923016 -0.015664610213625266 -0.06786434999999999
v 0.2426052119943594 -0.015512910611500235 -0.06722861999999999
v 0.2426052119943594 -0.015512910611500235 -0.06517138
v 0.24065454187923016 -0.015664610213625266 -0.06453565
vn 0.45399 -0.891007 2.33995e-18
vn 0.45399 -0.891007 2.33995e-18
vn 0.45399 -0.891007 2.33995e-18
vn 0.45399 -0.891007 2.33995e-18
vn 0.45399 -0.891007 2.33995e-18
vn 0.45399 -0.891007 2.33995e-18
vn 0.45399 -0.891007 2.33995e-18
vn 0.45399 -0.891007 2.33995e-18
vn 0.45399 -0.891007 2.33995e-18
vn 0.45399 -0.891007 2.33995e-18
f 47//47 41//41 42//42 
f 47//47 46//46 41//41 
f 45//45 40//40 41//41 
f 45//45 41//41 46//46 
f 38//38 43//43 47//47 
f 38//38 47//47 42//42 
f 39//39 44//44 43//43 
f 39//39 45//45 44//44 
f 39//39 40//40 45//45 
f 39//39 43//43 38//38 

g Face_5
v 0.24120898010326702 -0.038390031261952604 -0.0662
v 0.24241455995597616 -0.03829627579680887 -0.06453565
v 0.2443652300711054 -0.03814457619468384 -0.06517138
v 0.2443652300711054 -0.03814457619468384 -0.06722861999999999
v 0.24241455995597616 -0.03829627579680887 -0.06786434999999999
v 0.24120898010326702 -0.038390031261952604 -0.0662
v 0.23944896202652102 -0.015758365678769003 -0.0662
v 0.24065454187923016 -0.015664610213625266 -0.06786434999999999
v 0.2426052119943594 -0.015512910611500235 -0.06722861999999999
v 0.2426052119943594 -0.015512910611500235 -0.06517138
v 0.24065454187923016 -0.015664610213625266 -0.06453565
v 0.23944896202652102 -0.015758365678769003 -0.0662
vn -0.891007 -0.45399 1.33907e-16
vn -0.275336 -0.140291 0.951057
vn 0.720839 0.367286 0.587785
vn 0.720839 0.367286 -0.587785
vn -0.275336 -0.140291 -0.951057
vn -0.891007 -0.45399 -1.11022e-16
vn -0.891007 -0.45399 -1.11022e-16
vn -0.275336 -0.140291 -0.951057
vn 0.720839 0.367286 -0.587785
vn 0.720839 0.367286 0.587785
vn -0.275336 -0.140291 0.951057
vn -0.891007 -0.45399 1.33907e-16
f 52//52 53//53 54//54 
f 52//52 54//54 55//55 
f 51//51 55//55 56//56 
f 51//51 52//52 55//55 
f 50//50 56//56 57//57 
f 50//50 51//51 56//56 
f 49//49 57//57 58//58 
f 49//49 50//50 57//57 
f 48//48 58//58 59//59 
f 48//48 49//49 58//58 

g Face_6
v 0.24153133715604144 -0.038665868013138996 -0.0662
v 0.24297697218228004 -0.038553443950968 -0.06764999999999999
v 0.24442260720851863 -0.038441019888797 -0.0662
v 0.24297697218228004 -0.038553443950968 -0.06475
vn 0.45399 -0.891007 2.33995e-18
vn 0.45399 -0.891007 2.33995e-18
vn 0.45399 -0.891007 2.33995e-18
vn 0.45399 -0.891007 2.33995e-18
f 60//60 61//61 62//62 
f 60//60 62//62 63//63 

g Face_7
v 0.24120898010326702 -0.038390031261952604 -0.0662
v 0.24241455995597616 -0.03829627579680887 -0.06453565
v 0.2443652300711054 -0.03814457619468384 -0.06517138
v 0.2443652300711054 -0.03814457619468384 -0.06722861999999999
v 0.24241455995597616 -0.03829627579680887 -0.06786434999999999
v 0.24120898010326702 -0.038390031261952604 -0.0662
v 0.24153133715604144 -0.038665868013138996 -0.0662
v 0.24153133715604144 -0.038665868013138996 -0.0662
v 0.24297697218228004 -0.038553443950968 -0.06764999999999999
v 0.24442260720851863 -0.038441019888797 -0.0662
v 0.24297697218228004 -0.038553443950968 -0.06475
vn -0.309017 -0.951057 -1.63446e-16
vn 0.126328 -0.729237 0.672499
vn 0.83073 -0.370326 0.415627
vn 0.83073 -0.370326 -0.415627
vn 0.126328 -0.729237 -0.672499
vn -0.309017 -0.951057 -3.36637e-16
vn -0.309017 -0.951057 -1.63446e-16
vn -0.309017 -0.951057 -3.36637e-16
vn 0.32102 -0.630037 -0.707107
vn 0.951057 -0.309017 2.5335e-16
vn 0.32102 -0.630037 0.707107
f 65//65 64//64 70//70 
f 74//74 65//65 70//70 
f 66//66 65//65 74//74 
f 73//73 66//66 74//74 
f 67//67 66//66 73//73 
f 72//72 67//67 73//73 
f 68//68 67//67 72//72 
f 71//71 68//68 72//72 
f 69//69 68//68 71//71 

g Face_8
v 0.24087799526611645 -0.014142703723098001 -0.06370801
v 0.24087799526611645 -0.014142703723098001 -0.06869199
v 0.24046259761016603 -0.012670479363990005 -0.06375051
v 0.24046259761016603 -0.012670479363990005 -0.06864949
vn 0.784669 0.619915 1.08407e-16
vn 0.784669 0.619915 1.08407e-16
vn 0.784669 0.619915 1.08407e-16
vn 0.784669 0.619915 1.08407e-16
f 78//78 75//75 76//76 
f 78//78 77//77 75//75 

g Face_9
v 0.24087799526611645 -0.014142703723098001 -0.06370801
v 0.2410108639801739 -0.01413237079653033 -0.06370089
v 0.24114392242136617 -0.01412202311527367 -0.06370089
v 0.24127679113542363 -0.014111690188706002 -0.06370801
v 0.24087799526611645 -0.014142703723098001 -0.06869199
v 0.24127679113542363 -0.014111690188706002 -0.06869199
v 0.24114392242136617 -0.01412202311527367 -0.06869911
v 0.2410108639801739 -0.01413237079653033 -0.06869911
vn -0.45399 0.891007 -2.33995e-18
vn -0.45399 0.891007 -2.33995e-18
vn -0.45399 0.891007 -2.33995e-18
vn -0.45399 0.891007 -2.33995e-18
vn -0.45399 0.891007 -2.33995e-18
vn -0.45399 0.891007 -2.33995e-18
vn -0.45399 0.891007 -2.33995e-18
vn -0.45399 0.891007 -2.33995e-18
f 79//79 80//80 81//81 
f 79//79 81//81 82//82 
f 79//79 84//84 85//85 
f 79//79 85//85 86//86 
f 79//79 86//86 83//83 
f 79//79 82//82 84//84 

g Face_10
v 0.24127679113542363 -0.014111690188706002 -0.06370801
v 0.24127679113542363 -0.014111690188706002 -0.06869199
v 0.24145958728343403 -0.012592945528009993 -0.06864949
v 0.24145958728343403 -0.012592945528009993 -0.06375051
vn -0.962739 -0.270434 -1.09325e-16
vn -0.962739 -0.270434 -1.09325e-16
vn -0.962739 -0.270434 -1.09325e-16
vn -0.962739 -0.270434 -1.09325e-16
f 88//88 90//90 89//89 
f 88//88 87//87 90//90 

