mtllib Vis_Cliquet_Heures.mtl
usemtl Vis_Cliquet_Heures
#Wavefront export of shape 1-35--Vis_Cliquet_Heures

g Face_1
v 0.06516090000000001 -0.224860642 -0.1014
v 0.06708319113088 -0.22716385956 -0.1014
v 0.06604969113088001 -0.22998021756 -0.1014
v 0.0630939 -0.23049335799999998 -0.1014
v 0.06117160886912001 -0.22819014044 -0.1014
v 0.06220510886912 -0.22537378243999998 -0.1014
v 0.06516090000000001 -0.224860642 -0.1014
v 0.06516090000000001 -0.224860642 -0.0997
v 0.06705640792305999 -0.228325756445 -0.0997
v 0.0670257585662 -0.22690271869918 -0.0997
v 0.06634266369578 -0.22565398296576 -0.0997
v 0.06705640792305999 -0.228325756445 -0.10060000000000001
v 0.06698701558922 -0.228583969906018 -0.10060000000000001
v 0.06689490524622001 -0.228834976873982 -0.10060000000000001
v 0.06678080792306 -0.229076785245 -0.10060000000000001
v 0.06678080792306 -0.229076785245 -0.0997
v 0.06119839207694001 -0.22702824355499998 -0.0997
v 0.061912136304219996 -0.22970001703423998 -0.0997
v 0.06450831143578 -0.23065271800423998 -0.0997
v 0.06119839207694001 -0.22702824355499998 -0.1006
v 0.06126778441078 -0.22677003009398197 -0.1006
v 0.061359894753779995 -0.226519023126018 -0.1006
v 0.061473992076939994 -0.22627721475499998 -0.1006
v 0.061473992076939994 -0.22627721475499998 -0.0997
v 0.06516090000000001 -0.224860642 -0.0997
v 0.06374648856422001 -0.22470128199576 -0.0997
v 0.062417821363799995 -0.22521177489917998 -0.0997
vn 0.3445 0.938786 -9.13347e-17
vn 0.985263 0.171047 -1.91536e-16
vn 0.640763 -0.767739 -1.00202e-16
vn -0.3445 -0.938786 9.13347e-17
vn -0.985263 -0.171047 1.91536e-16
vn -0.640763 0.767739 1.00202e-16
vn 0.3445 0.938786 -9.13347e-17
vn 0.3445 0.938786 -9.13347e-17
vn 0.976337 -0.216253 -1.79109e-16
vn 0.96612 0.258092 -1.9032e-16
vn 0.738422 0.674338 -1.58688e-16
vn 0.976337 -0.216253 -1.79109e-16
vn 0.953205 -0.302323 -1.72338e-16
vn 0.922502 -0.385993 -1.64198e-16
vn 0.884471 -0.466596 -1.54753e-16
vn 0.884471 -0.466596 -1.54753e-16
vn -0.976337 0.216253 1.79109e-16
vn -0.738422 -0.674338 1.58688e-16
vn 0.126972 -0.991906 3.42101e-18
vn -0.976337 0.216253 1.79109e-16
vn -0.953205 0.302323 1.72338e-16
vn -0.922502 0.385993 1.64198e-16
vn -0.884471 0.466596 1.54753e-16
vn -0.884471 0.466596 1.54753e-16
vn 0.3445 0.938786 -9.13347e-17
vn -0.126972 0.991906 -3.42101e-18
vn -0.569861 0.821741 8.52627e-17
f 1//1 8//8 11//11 
f 12//12 10//10 9//9 
f 12//12 11//11 10//10 
f 12//12 1//1 11//11 
f 19//19 15//15 16//16 
f 2//2 12//12 13//13 
f 2//2 1//1 12//12 
f 3//3 13//13 14//14 
f 3//3 14//14 15//15 
f 3//3 2//2 13//13 
f 4//4 19//19 18//18 
f 4//4 15//15 19//19 
f 4//4 3//3 15//15 
f 20//20 18//18 17//17 
f 20//20 4//4 18//18 
f 23//23 24//24 27//27 
f 26//26 23//23 27//27 
f 5//5 20//20 21//21 
f 5//5 4//4 20//20 
f 6//6 21//21 22//22 
f 6//6 22//22 23//23 
f 6//6 5//5 21//21 
f 7//7 26//26 25//25 
f 7//7 6//6 23//23 
f 7//7 23//23 26//26 

g Face_2
v 0.06119839207694001 -0.22702824355499998 -0.1006
v 0.06119839207694001 -0.22702824355499998 -0.0997
v 0.06678080792306 -0.229076785245 -0.10060000000000001
v 0.06678080792306 -0.229076785245 -0.0997
v 0.064925409109594 -0.2283959219905 -0.0994381228
v 0.06305379089040601 -0.2277091068095 -0.0994381228
vn 0.3445 0.938786 -1.28401e-16
vn 0.3445 0.938786 -1.28401e-16
vn 0.3445 0.938786 -1.28401e-16
vn 0.3445 0.938786 -1.28401e-16
vn 0.3445 0.938786 -1.28401e-16
vn 0.3445 0.938786 -1.28401e-16
f 33//33 28//28 29//29 
f 30//30 32//32 31//31 
f 30//30 33//33 32//32 
f 30//30 28//28 33//33 

g Face_3
v 0.06705640792305999 -0.228325756445 -0.10060000000000001
v 0.06705640792305999 -0.228325756445 -0.0997
v 0.061473992076939994 -0.22627721475499998 -0.1006
v 0.061473992076939994 -0.22627721475499998 -0.0997
v 0.063329390890406 -0.2269580780095 -0.0994381228
v 0.06520100910959399 -0.2276448931905 -0.0994381228
vn -0.3445 -0.938786 1.28401e-16
vn -0.3445 -0.938786 1.28401e-16
vn -0.3445 -0.938786 1.28401e-16
vn -0.3445 -0.938786 1.28401e-16
vn -0.3445 -0.938786 1.28401e-16
vn -0.3445 -0.938786 1.28401e-16
f 38//38 37//37 36//36 
f 34//34 39//39 38//38 
f 34//34 38//38 36//36 
f 35//35 39//39 34//34 

g Face_4
v 0.06516090000000001 -0.224860642 -0.1014
v 0.06708319113088 -0.22716385956 -0.1014
v 0.06604969113088001 -0.22998021756 -0.1014
v 0.0630939 -0.23049335799999998 -0.1014
v 0.06117160886912001 -0.22819014044 -0.1014
v 0.06220510886912 -0.22537378243999998 -0.1014
v 0.064730275 -0.2260341245 -0.1014
v 0.0658761671891 -0.22774269188192 -0.1014
v 0.06460531784531999 -0.22936047403308 -0.1014
v 0.06267400973468 -0.22865175485308 -0.1014
v 0.0627512302309 -0.22659595473191999 -0.1014
vn -1.89589e-16 -2.77178e-17 -1
vn -1.89589e-16 -2.77178e-17 -1
vn -1.89589e-16 -2.77178e-17 -1
vn -1.89589e-16 -2.77178e-17 -1
vn -1.89589e-16 -2.77178e-17 -1
vn -1.89589e-16 -2.77178e-17 -1
vn -1.89589e-16 -2.77178e-17 -1
vn -1.89589e-16 -2.77178e-17 -1
vn -1.89589e-16 -2.77178e-17 -1
vn -1.89589e-16 -2.77178e-17 -1
vn -1.89589e-16 -2.77178e-17 -1
f 49//49 43//43 44//44 
f 50//50 49//49 44//44 
f 45//45 50//50 44//44 
f 48//48 43//43 49//49 
f 42//42 43//43 48//48 
f 46//46 50//50 45//45 
f 47//47 42//42 48//48 
f 40//40 46//46 45//45 
f 41//41 47//47 46//46 
f 41//41 46//46 40//40 
f 41//41 42//42 47//47 

g Face_5
v 0.064730275 -0.2260341245 -0.11080000000000001
v 0.0627512302309 -0.22659595473191999 -0.11080000000000001
v 0.06267400973467999 -0.22865175485308 -0.11080000000000001
v 0.06460531784531999 -0.22936047403308 -0.11080000000000001
v 0.0658761671891 -0.22774269188192 -0.11080000000000001
v 0.064730275 -0.2260341245 -0.11080000000000001
v 0.064730275 -0.2260341245 -0.1014
v 0.0658761671891 -0.22774269188192 -0.1014
v 0.06460531784531999 -0.22936047403308 -0.1014
v 0.06267400973468 -0.22865175485308 -0.1014
v 0.0627512302309 -0.22659595473191999 -0.1014
v 0.064730275 -0.2260341245 -0.1014
vn 0.3445 0.938786 -9.13347e-17
vn -0.786382 0.61774 1.31967e-16
vn -0.830511 -0.557002 1.72895e-16
vn 0.273098 -0.961986 -2.51124e-17
vn 0.999295 -0.0375382 -1.88415e-16
vn 0.3445 0.938786 -9.13347e-17
vn 0.3445 0.938786 -9.13347e-17
vn 0.999295 -0.0375382 -1.88415e-16
vn 0.273098 -0.961986 -2.51124e-17
vn -0.830511 -0.557002 1.72895e-16
vn -0.786382 0.61774 1.31967e-16
vn 0.3445 0.938786 -9.13347e-17
f 55//55 56//56 57//57 
f 55//55 57//57 58//58 
f 54//54 58//58 59//59 
f 54//54 55//55 58//58 
f 53//53 59//59 60//60 
f 53//53 54//54 59//59 
f 52//52 60//60 61//61 
f 52//52 53//53 60//60 
f 51//51 61//61 62//62 
f 51//51 52//52 61//61 

g Face_6
v 0.064626925 -0.2263157603 -0.1111
v 0.0654886397 -0.228176525 -0.1111
v 0.063627875 -0.22903823969999998 -0.1111
v 0.0627661603 -0.227177475 -0.1111
vn -1.89589e-16 -2.77178e-17 -1
vn -1.89589e-16 -2.77178e-17 -1
vn -1.89589e-16 -2.77178e-17 -1
vn -1.89589e-16 -2.77178e-17 -1
f 63//63 64//64 65//65 
f 63//63 65//65 66//66 

g Face_7
v 0.064730275 -0.2260341245 -0.11080000000000001
v 0.0627512302309 -0.22659595473191999 -0.11080000000000001
v 0.06267400973467999 -0.22865175485308 -0.11080000000000001
v 0.06460531784531999 -0.22936047403308 -0.11080000000000001
v 0.0658761671891 -0.22774269188192 -0.11080000000000001
v 0.064730275 -0.2260341245 -0.11080000000000001
v 0.064626925 -0.2263157603 -0.1111
v 0.064626925 -0.2263157603 -0.1111
v 0.0654886397 -0.228176525 -0.1111
v 0.063627875 -0.22903823969999998 -0.1111
v 0.0627661603 -0.227177475 -0.1111
vn 0.243598 0.663822 -0.707107
vn -0.556056 0.436808 -0.707107
vn -0.58726 -0.39386 -0.707107
vn 0.19311 -0.680227 -0.707107
vn 0.706608 -0.0265435 -0.707107
vn 0.243598 0.663822 -0.707107
vn 0.243598 0.663822 -0.707107
vn 0.243598 0.663822 -0.707107
vn 0.663822 -0.243598 -0.707107
vn -0.243598 -0.663822 -0.707107
vn -0.663822 0.243598 -0.707107
f 68//68 67//67 73//73 
f 77//77 68//68 73//73 
f 69//69 68//68 77//77 
f 76//76 69//69 77//77 
f 70//70 69//69 76//76 
f 75//75 70//70 76//76 
f 71//71 70//70 75//75 
f 74//74 71//71 75//75 
f 72//72 71//71 74//74 

g Face_8
v 0.06119839207694001 -0.22702824355499998 -0.1006
v 0.06678080792306 -0.229076785245 -0.10060000000000001
v 0.06705640792305999 -0.228325756445 -0.10060000000000001
v 0.06698701558922 -0.228583969906018 -0.10060000000000001
v 0.06689490524622001 -0.228834976873982 -0.10060000000000001
v 0.061473992076939994 -0.22627721475499998 -0.1006
v 0.06126778441078 -0.22677003009398197 -0.1006
v 0.061359894753779995 -0.226519023126018 -0.1006
vn 2.02359e-16 6.25156e-17 1
vn 2.02359e-16 6.25156e-17 1
vn 2.02359e-16 6.25156e-17 1
vn 2.02359e-16 6.25156e-17 1
vn 2.02359e-16 6.25156e-17 1
vn 2.02359e-16 6.25156e-17 1
vn 2.02359e-16 6.25156e-17 1
vn 2.02359e-16 6.25156e-17 1
f 80//80 78//78 79//79 
f 80//80 82//82 81//81 
f 80//80 79//79 82//82 
f 80//80 84//84 78//78 
f 80//80 85//85 84//84 
f 80//80 83//83 85//85 

g Face_9
v 0.061473992076939994 -0.22627721475499998 -0.0997
v 0.063329390890406 -0.2269580780095 -0.0994381228
v 0.06520100910959399 -0.2276448931905 -0.0994381228
v 0.06705640792305999 -0.228325756445 -0.0997
v 0.0670257585662 -0.22690271869918 -0.0997
v 0.06634266369578 -0.22565398296576 -0.0997
v 0.06516090000000001 -0.224860642 -0.0997
v 0.06374648856422001 -0.22470128199576 -0.0997
v 0.062417821363799995 -0.22521177489917998 -0.0997
vn -0.175143 0.0923952 0.980198
vn -0.0526739 0.0474536 0.997484
vn 0.0708653 0.00211925 0.997484
vn 0.193334 -0.0428223 0.980198
vn 0.191311 0.0511073 0.980198
vn 0.146222 0.133532 0.980198
vn 0.0682178 0.185898 0.980198
vn -0.0251429 0.196417 0.980198
vn -0.112844 0.162721 0.980198
f 88//88 89//89 90//90 
f 91//91 88//88 90//90 
f 92//92 87//87 88//88 
f 92//92 88//88 91//91 
f 93//93 87//87 92//92 
f 94//94 86//86 87//87 
f 94//94 87//87 93//93 

g Face_10
v 0.06678080792306 -0.229076785245 -0.0997
v 0.064925409109594 -0.2283959219905 -0.0994381228
v 0.06305379089040601 -0.2277091068095 -0.0994381228
v 0.06119839207694001 -0.22702824355499998 -0.0997
v 0.061912136304219996 -0.22970001703423998 -0.0997
v 0.06450831143578 -0.23065271800423998 -0.0997
vn 0.175143 -0.0923952 0.980198
vn 0.0526739 -0.0474536 0.997484
vn -0.0708653 -0.00211925 0.997484
vn -0.193334 0.0428223 0.980198
vn -0.146222 -0.133532 0.980198
vn 0.0251429 -0.196417 0.980198
f 96//96 100//100 95//95 
f 97//97 99//99 100//100 
f 97//97 100//100 96//96 
f 98//98 99//99 97//97 

