mtllib Vis_Pied_marteaux_Suspension.mtl
usemtl Vis_Pied_marteaux_Suspension
#Wavefront export of shape 1-1-15--Vis_Pied_marteaux_Suspension

g Face_1
v 0.11554196 0.0094 -0.008
v 0.12145803999999999 0.0094 -0.008
v 0.11985272999999999 0.0094 -0.005822290000000001
v 0.11714727 0.0094 -0.005822290000000001
vn -0 1 5.42101e-17
vn -0 1 5.42101e-17
vn -0 1 5.42101e-17
vn -0 1 5.42101e-17
f 3//3 2//2 1//1 
f 3//3 1//1 4//4 

g Face_2
v 0.12145803999999999 0.0094 -0.009000000000000001
v 0.11554196 0.0094 -0.009000000000000001
v 0.1185 0.0094 -0.0115
v 0.11985272999999999 0.0094 -0.01117771
v 0.12091479999999999 0.0094 -0.01028009
v 0.1160852 0.0094 -0.01028009
v 0.11714727 0.0094 -0.01117771
vn -0 1 5.42101e-17
vn -0 1 5.42101e-17
vn -0 1 5.42101e-17
vn -0 1 5.42101e-17
vn -0 1 5.42101e-17
vn -0 1 5.42101e-17
vn -0 1 5.42101e-17
f 5//5 8//8 7//7 
f 5//5 9//9 8//8 
f 5//5 10//10 6//6 
f 5//5 11//11 10//10 
f 5//5 7//7 11//11 

g Face_3
v 0.11554196 0.0079 -0.008
v 0.11554196 0.0094 -0.008
v 0.11550466999999999 0.0079 -0.008332639000000001
v 0.11550466999999999 0.0079 -0.008667361
v 0.11554196 0.0079 -0.009000000000000001
v 0.11554196 0.0094 -0.009000000000000001
v 0.1160852 0.0094 -0.01028009
v 0.11714727 0.0094 -0.01117771
v 0.1185 0.0094 -0.0115
v 0.1185 0.0054 -0.0115
v 0.1185 0.0054 -0.0115
v 0.12109808 0.0054 -0.01
v 0.12109808 0.0054 -0.007000000000000001
v 0.1185 0.0054 -0.0055000000000000005
v 0.11590191999999999 0.0054 -0.007000000000000001
v 0.11590191999999999 0.0054 -0.01
v 0.1185 0.0094 -0.0115
v 0.11985272999999999 0.0094 -0.01117771
v 0.12091479999999999 0.0094 -0.01028009
v 0.12145803999999999 0.0094 -0.009000000000000001
v 0.12145803999999999 0.0079 -0.009000000000000001
v 0.12149533 0.0079 -0.008667361
v 0.12149533 0.0079 -0.008332639000000001
v 0.12145803999999999 0.0079 -0.008
v 0.12145803999999999 0.0094 -0.008
v 0.11985272999999999 0.0094 -0.005822290000000001
v 0.11714727 0.0094 -0.005822290000000001
vn -0.986013 -9.03502e-18 0.166667
vn -0.986013 -9.03502e-18 0.166667
vn -0.998443 -3.02422e-18 0.055787
vn -0.998443 3.02422e-18 -0.055787
vn -0.986013 9.03502e-18 -0.166667
vn -0.986013 9.03502e-18 -0.166667
vn -0.804935 3.21663e-17 -0.593363
vn -0.450908 4.83863e-17 -0.89257
vn -2.44929e-16 5.42101e-17 -1
vn -2.44929e-16 5.42101e-17 -1
vn 0 5.42101e-17 -1
vn 0.866025 2.71051e-17 -0.5
vn 0.866025 -2.71051e-17 0.5
vn 1.22465e-16 -5.42101e-17 1
vn -0.866025 -2.71051e-17 0.5
vn -0.866025 2.71051e-17 -0.5
vn 0 5.42101e-17 -1
vn 0.450908 4.83863e-17 -0.89257
vn 0.804935 3.21663e-17 -0.593363
vn 0.986013 9.03502e-18 -0.166667
vn 0.986013 9.03502e-18 -0.166667
vn 0.998443 3.02422e-18 -0.055787
vn 0.998443 -3.02422e-18 0.055787
vn 0.986013 -9.03502e-18 0.166667
vn 0.986013 -9.03502e-18 0.166667
vn 0.450908 -4.83863e-17 0.89257
vn -0.450908 -4.83863e-17 0.89257
f 22//22 28//28 29//29 
f 32//32 29//29 30//30 
f 32//32 30//30 31//31 
f 37//37 35//35 36//36 
f 23//23 32//32 33//33 
f 23//23 22//22 29//29 
f 23//23 29//29 32//32 
f 24//24 33//33 34//34 
f 24//24 34//34 35//35 
f 24//24 35//35 37//37 
f 24//24 23//23 33//33 
f 25//25 37//37 38//38 
f 25//25 24//24 37//37 
f 12//12 38//38 13//13 
f 16//16 17//17 18//18 
f 19//19 16//16 18//18 
f 26//26 12//12 14//14 
f 26//26 25//25 38//38 
f 26//26 38//38 12//12 
f 27//27 14//14 15//15 
f 27//27 15//15 16//16 
f 27//27 26//26 14//14 
f 27//27 16//16 19//19 
f 21//21 19//19 20//20 
f 21//21 27//27 19//19 

g Face_4
v 0.1185 0.0054 -0.0115
v 0.12109808 0.0054 -0.01
v 0.12109808 0.0054 -0.007000000000000001
v 0.1185 0.0054 -0.0055000000000000005
v 0.11590191999999999 0.0054 -0.007000000000000001
v 0.11590191999999999 0.0054 -0.01
v 0.1185 0.0054 -0.01025
v 0.12016434999999999 0.0054 -0.00904078
v 0.11952861999999999 0.0054 -0.0070842200000000004
v 0.11747138 0.0054 -0.0070842200000000004
v 0.11683565 0.0054 -0.00904078
vn 0 -1 -5.42101e-17
vn 0 -1 -5.42101e-17
vn 0 -1 -5.42101e-17
vn 0 -1 -5.42101e-17
vn 0 -1 -5.42101e-17
vn 0 -1 -5.42101e-17
vn 0 -1 -5.42101e-17
vn 0 -1 -5.42101e-17
vn 0 -1 -5.42101e-17
vn 0 -1 -5.42101e-17
vn 0 -1 -5.42101e-17
f 48//48 42//42 43//43 
f 49//49 48//48 43//43 
f 44//44 49//49 43//43 
f 47//47 42//42 48//48 
f 41//41 42//42 47//47 
f 45//45 49//49 44//44 
f 46//46 41//41 47//47 
f 39//39 45//45 44//44 
f 40//40 46//46 45//45 
f 40//40 45//45 39//39 
f 40//40 41//41 46//46 

g Face_5
v 0.1185 -0.0023 -0.01025
v 0.11683565 -0.0023 -0.00904078
v 0.11747138 -0.0023 -0.0070842200000000004
v 0.11952861999999999 -0.0023 -0.0070842200000000004
v 0.12016434999999999 -0.0023 -0.00904078
v 0.1185 -0.0023 -0.01025
v 0.1185 0.0054 -0.01025
v 0.12016434999999999 0.0054 -0.00904078
v 0.11952861999999999 0.0054 -0.0070842200000000004
v 0.11747138 0.0054 -0.0070842200000000004
v 0.11683565 0.0054 -0.00904078
v 0.1185 0.0054 -0.01025
vn -2.44929e-16 5.42101e-17 -1
vn -0.951057 1.67518e-17 -0.309017
vn -0.587785 -4.38569e-17 0.809017
vn 0.587785 -4.38569e-17 0.809017
vn 0.951057 1.67518e-17 -0.309017
vn 0 5.42101e-17 -1
vn 0 5.42101e-17 -1
vn 0.951057 1.67518e-17 -0.309017
vn 0.587785 -4.38569e-17 0.809017
vn -0.587785 -4.38569e-17 0.809017
vn -0.951057 1.67518e-17 -0.309017
vn -2.44929e-16 5.42101e-17 -1
f 54//54 55//55 56//56 
f 54//54 56//56 57//57 
f 53//53 57//57 58//58 
f 53//53 54//54 57//57 
f 52//52 58//58 59//59 
f 52//52 53//53 58//58 
f 51//51 59//59 60//60 
f 51//51 52//52 59//59 
f 50//50 60//60 61//61 
f 50//50 51//51 60//60 

g Face_6
v 0.1185 -0.0026 -0.00995
v 0.11995 -0.0026 -0.0085
v 0.1185 -0.0026 -0.007050000000000001
v 0.11704999999999999 -0.0026 -0.0085
vn 0 -1 -5.42101e-17
vn 0 -1 -5.42101e-17
vn 0 -1 -5.42101e-17
vn 0 -1 -5.42101e-17
f 62//62 63//63 64//64 
f 62//62 64//64 65//65 

g Face_7
v 0.1185 -0.0023 -0.01025
v 0.11683565 -0.0023 -0.00904078
v 0.11747138 -0.0023 -0.0070842200000000004
v 0.11952861999999999 -0.0023 -0.0070842200000000004
v 0.12016434999999999 -0.0023 -0.00904078
v 0.1185 -0.0023 -0.01025
v 0.1185 -0.0026 -0.00995
v 0.1185 -0.0026 -0.00995
v 0.11995 -0.0026 -0.0085
v 0.1185 -0.0026 -0.007050000000000001
v 0.11704999999999999 -0.0026 -0.0085
vn 8.65956e-17 -0.707107 -0.707107
vn -0.672499 -0.707107 -0.218508
vn -0.415627 -0.707107 0.572061
vn 0.415627 -0.707107 0.572061
vn 0.672499 -0.707107 -0.218508
vn 2.59787e-16 -0.707107 -0.707107
vn 8.65956e-17 -0.707107 -0.707107
vn 2.59787e-16 -0.707107 -0.707107
vn 0.707107 -0.707107 1.78157e-16
vn -1.73191e-16 -0.707107 0.707107
vn -0.707107 -0.707107 -1.68226e-16
f 67//67 66//66 72//72 
f 76//76 67//67 72//72 
f 68//68 67//67 76//76 
f 75//75 68//68 76//76 
f 69//69 68//68 75//75 
f 74//74 69//69 75//75 
f 70//70 69//69 74//74 
f 73//73 70//70 74//74 
f 71//71 70//70 73//73 

g Face_8
v 0.11554196 0.0079 -0.008
v 0.12145803999999999 0.0079 -0.008
v 0.12145803999999999 0.0094 -0.008
v 0.11554196 0.0094 -0.008
vn 0 -0 -1
vn 0 -0 -1
vn 0 -0 -1
vn 0 -0 -1
f 78//78 80//80 79//79 
f 78//78 77//77 80//80 

g Face_9
v 0.12145803999999999 0.0079 -0.009000000000000001
v 0.11554196 0.0079 -0.009000000000000001
v 0.11554196 0.0094 -0.009000000000000001
v 0.12145803999999999 0.0094 -0.009000000000000001
vn -0 -0 1
vn -0 -0 1
vn -0 -0 1
vn -0 -0 1
f 84//84 82//82 81//81 
f 84//84 83//83 82//82 

g Face_10
v 0.11554196 0.0079 -0.008
v 0.12145803999999999 0.0079 -0.008
v 0.12145803999999999 0.0079 -0.009000000000000001
v 0.12149533 0.0079 -0.008667361
v 0.12149533 0.0079 -0.008332639000000001
v 0.11554196 0.0079 -0.009000000000000001
v 0.11550466999999999 0.0079 -0.008332639000000001
v 0.11550466999999999 0.0079 -0.008667361
vn -0 1 0
vn -0 1 0
vn -0 1 0
vn -0 1 0
vn -0 1 0
vn -0 1 0
vn -0 1 0
vn -0 1 0
f 87//87 85//85 86//86 
f 87//87 89//89 88//88 
f 87//87 86//86 89//89 
f 87//87 91//91 85//85 
f 87//87 92//92 91//91 
f 87//87 90//90 92//92 

