mtllib Vis_Gdetente_Heures.mtl
usemtl Vis_Gdetente_Heures
#Wavefront export of shape 1-69--Vis_Gdetente_Heures

g Face_1
v 0.18031834125384003 -0.17128468437848 -0.1313
v 0.17449309674616 -0.17025196162152 -0.1313
v 0.1756936134034 -0.1726764611864 -0.1313
v 0.17835753377056002 -0.17314873169492 -0.1313
vn -3.37875e-17 -2.37888e-16 -1
vn -3.37875e-17 -2.37888e-16 -1
vn -3.37875e-17 -2.37888e-16 -1
vn -3.37875e-17 -2.37888e-16 -1
f 2//2 4//4 3//3 
f 2//2 1//1 4//4 

g Face_2
v 0.17466765874616 -0.16926731562152003 -0.1313
v 0.18049290325384001 -0.17030003837848 -0.1313
v 0.17929238659660002 -0.1678755388136 -0.1313
v 0.17662846622944 -0.16740326830508 -0.1313
vn -3.37875e-17 -2.37888e-16 -1
vn -3.37875e-17 -2.37888e-16 -1
vn -3.37875e-17 -2.37888e-16 -1
vn -3.37875e-17 -2.37888e-16 -1
f 8//8 6//6 5//5 
f 8//8 7//7 6//6 

g Face_3
v 0.18031834125384003 -0.17128468437848 -0.1303
v 0.18031834125384003 -0.17128468437848 -0.1313
v 0.180370215864218 -0.171125496605306 -0.1303
v 0.18041312483229802 -0.17096366213466602 -0.1303
v 0.180446938 -0.17079968600000003 -0.1303
v 0.180446938 -0.17079968600000003 -0.1288
v 0.180446938 -0.17079968600000003 -0.1288
v 0.17942349504096 -0.16797965392032002 -0.1288
v 0.17646955704096 -0.16745596792032 -0.1288
v 0.17453906200000002 -0.16975231400000004 -0.1288
v 0.17556250495904002 -0.17257234607968 -0.1288
v 0.17851644295904 -0.17309603207968002 -0.1288
v 0.180446938 -0.17079968600000003 -0.1303
v 0.18047155457406203 -0.17063407945625403 -0.1303
v 0.180486893454142 -0.170467357249614 -0.1303
v 0.18049290325384001 -0.17030003837848 -0.1303
v 0.18049290325384001 -0.17030003837848 -0.1313
v 0.17929238659660002 -0.1678755388136 -0.1313
v 0.17662846622944 -0.16740326830508 -0.1313
v 0.17466765874616 -0.16926731562152003 -0.1313
v 0.17466765874616 -0.16926731562152003 -0.1303
v 0.174572875167702 -0.169588337865334 -0.1303
v 0.174514445425938 -0.169917920543746 -0.1303
v 0.17449309674616 -0.17025196162152 -0.1303
v 0.17449309674616 -0.17025196162152 -0.1313
v 0.1756936134034 -0.1726764611864 -0.1313
v 0.17835753377056002 -0.17314873169492 -0.1313
vn 0.941781 -0.336228 4.81642e-17
vn 0.941781 -0.336228 4.81642e-17
vn 0.959071 -0.283165 3.4957e-17
vn 0.973375 -0.22922 2.16409e-17
vn 0.984646 -0.174562 8.25746e-18
vn 0.984646 -0.174562 8.25746e-18
vn 0.984646 -0.174562 8.25746e-18
vn 0.643498 0.765448 -2.03833e-16
vn -0.341148 0.940009 -2.12091e-16
vn -0.984646 0.174562 -8.25746e-18
vn -0.643498 -0.765448 2.03833e-16
vn 0.341148 -0.940009 2.12091e-16
vn 0.984646 -0.174562 8.25746e-18
vn 0.992851 -0.119359 -5.15175e-18
vn 0.997964 -0.0637852 -1.85449e-17
vn 0.999968 -0.00801239 -3.18803e-17
vn 0.999968 -0.00801239 -3.18803e-17
vn 0.599794 0.800155 -2.10613e-16
vn -0.288177 0.957577 -2.1806e-16
vn -0.941781 0.336228 -4.81642e-17
vn -0.941781 0.336228 -4.81642e-17
vn -0.973375 0.22922 -2.16409e-17
vn -0.992851 0.119359 5.15175e-18
vn -0.999968 0.00801239 3.18803e-17
vn -0.999968 0.00801239 3.18803e-17
vn -0.599794 -0.800155 2.10613e-16
vn 0.288177 -0.957577 2.1806e-16
f 26//26 24//24 25//25 
f 15//15 21//21 22//22 
f 15//15 22//22 23//23 
f 15//15 23//23 24//24 
f 16//16 24//24 26//26 
f 16//16 15//15 24//24 
f 29//29 27//27 28//28 
f 17//17 26//26 27//27 
f 17//17 16//16 26//26 
f 17//17 27//27 29//29 
f 34//34 32//32 33//33 
f 18//18 29//29 30//30 
f 18//18 30//30 31//31 
f 18//18 31//31 32//32 
f 18//18 17//17 29//29 
f 19//19 32//32 34//34 
f 19//19 18//18 32//32 
f 9//9 35//35 10//10 
f 20//20 34//34 35//35 
f 20//20 19//19 34//34 
f 20//20 35//35 9//9 
f 14//14 9//9 11//11 
f 14//14 11//11 12//12 
f 14//14 12//12 13//13 
f 14//14 20//20 9//9 

g Face_4
v 0.180446938 -0.17079968600000003 -0.1288
v 0.17942349504096 -0.16797965392032002 -0.1288
v 0.17646955704096 -0.16745596792032 -0.1288
v 0.17453906200000002 -0.16975231400000004 -0.1288
v 0.17556250495904002 -0.17257234607968 -0.1288
v 0.17851644295904 -0.17309603207968002 -0.1288
v 0.17921613050000001 -0.17058148350000002 -0.1288
v 0.17831600912858 -0.16873160406826002 -0.1288
v 0.17627851585056 -0.16901603204312002 -0.1288
v 0.17591939992168001 -0.17104168518016002 -0.1288
v 0.17773494459918002 -0.17200919520846 -0.1288
vn 3.37875e-17 2.37888e-16 1
vn 3.37875e-17 2.37888e-16 1
vn 3.37875e-17 2.37888e-16 1
vn 3.37875e-17 2.37888e-16 1
vn 3.37875e-17 2.37888e-16 1
vn 3.37875e-17 2.37888e-16 1
vn 3.37875e-17 2.37888e-16 1
vn 3.37875e-17 2.37888e-16 1
vn 3.37875e-17 2.37888e-16 1
vn 3.37875e-17 2.37888e-16 1
vn 3.37875e-17 2.37888e-16 1
f 45//45 39//39 40//40 
f 46//46 45//45 40//40 
f 41//41 46//46 40//40 
f 44//44 39//39 45//45 
f 38//38 39//39 44//44 
f 42//42 46//46 41//41 
f 43//43 38//38 44//44 
f 36//36 42//42 41//41 
f 37//37 43//43 42//42 
f 37//37 42//42 36//36 
f 37//37 38//38 43//43 

g Face_5
v 0.17921613050000001 -0.17058148350000002 -0.1241
v 0.17773494459918002 -0.17200919520846 -0.1241
v 0.17591939992168001 -0.17104168518016002 -0.1241
v 0.17627851585056 -0.16901603204312002 -0.1241
v 0.17831600912858 -0.16873160406826002 -0.1241
v 0.17921613050000001 -0.17058148350000002 -0.1241
v 0.17921613050000001 -0.17058148350000002 -0.1288
v 0.17831600912858 -0.16873160406826002 -0.1288
v 0.17627851585056 -0.16901603204312002 -0.1288
v 0.17591939992168001 -0.17104168518016002 -0.1288
v 0.17773494459918002 -0.17200919520846 -0.1288
v 0.17921613050000001 -0.17058148350000002 -0.1288
vn 0.984646 -0.174562 8.25746e-18
vn 0.138254 -0.990397 2.30932e-16
vn -0.8992 -0.437537 1.34467e-16
vn -0.693991 0.719984 -1.47827e-16
vn 0.47029 0.882512 -2.25829e-16
vn 0.984646 -0.174562 8.25746e-18
vn 0.984646 -0.174562 8.25746e-18
vn 0.47029 0.882512 -2.25829e-16
vn -0.693991 0.719984 -1.47827e-16
vn -0.8992 -0.437537 1.34467e-16
vn 0.138254 -0.990397 2.30932e-16
vn 0.984646 -0.174562 8.25746e-18
f 51//51 52//52 53//53 
f 51//51 53//53 54//54 
f 50//50 54//54 55//55 
f 50//50 51//51 54//54 
f 49//49 55//55 56//56 
f 49//49 50//50 55//55 
f 48//48 56//56 57//57 
f 48//48 49//49 56//56 
f 47//47 57//57 58//58 
f 47//47 48//48 57//57 

g Face_6
v 0.1789207367 -0.17052911490000003 -0.1238
v 0.17774611490000003 -0.16884826330000002 -0.1238
v 0.17606526330000002 -0.17002288510000005 -0.1238
v 0.17723988510000002 -0.1717037367 -0.1238
vn 3.37875e-17 2.37888e-16 1
vn 3.37875e-17 2.37888e-16 1
vn 3.37875e-17 2.37888e-16 1
vn 3.37875e-17 2.37888e-16 1
f 59//59 60//60 61//61 
f 59//59 61//61 62//62 

g Face_7
v 0.17921613050000001 -0.17058148350000002 -0.1241
v 0.17773494459918002 -0.17200919520846 -0.1241
v 0.17591939992168001 -0.17104168518016002 -0.1241
v 0.17627851585056 -0.16901603204312002 -0.1241
v 0.17831600912858 -0.16873160406826002 -0.1241
v 0.17921613050000001 -0.17058148350000002 -0.1241
v 0.1789207367 -0.17052911490000003 -0.1238
v 0.1789207367 -0.17052911490000003 -0.1238
v 0.17774611490000003 -0.16884826330000002 -0.1238
v 0.17606526330000002 -0.17002288510000005 -0.1238
v 0.17723988510000002 -0.1717037367 -0.1238
vn 0.69625 -0.123434 0.707107
vn 0.0977607 -0.700316 0.707107
vn -0.635831 -0.309386 0.707107
vn -0.490726 0.509105 0.707107
vn 0.332546 0.62403 0.707107
vn 0.69625 -0.123434 0.707107
vn 0.69625 -0.123434 0.707107
vn 0.69625 -0.123434 0.707107
vn 0.123434 0.69625 0.707107
vn -0.69625 0.123434 0.707107
vn -0.123434 -0.69625 0.707107
f 64//64 63//63 69//69 
f 73//73 64//64 69//69 
f 65//65 64//64 73//73 
f 72//72 65//65 73//73 
f 66//66 65//65 72//72 
f 71//71 66//66 72//72 
f 67//67 66//66 71//71 
f 70//70 67//67 71//71 
f 68//68 67//67 70//70 

g Face_8
v 0.18031834125384003 -0.17128468437848 -0.1303
v 0.17449309674616 -0.17025196162152 -0.1303
v 0.17449309674616 -0.17025196162152 -0.1313
v 0.18031834125384003 -0.17128468437848 -0.1313
vn 0.174562 0.984646 -2.40134e-16
vn 0.174562 0.984646 -2.40134e-16
vn 0.174562 0.984646 -2.40134e-16
vn 0.174562 0.984646 -2.40134e-16
f 75//75 77//77 76//76 
f 75//75 74//74 77//77 

g Face_9
v 0.17466765874616 -0.16926731562152003 -0.1303
v 0.18049290325384001 -0.17030003837848 -0.1303
v 0.18049290325384001 -0.17030003837848 -0.1313
v 0.17466765874616 -0.16926731562152003 -0.1313
vn -0.174562 -0.984646 2.40134e-16
vn -0.174562 -0.984646 2.40134e-16
vn -0.174562 -0.984646 2.40134e-16
vn -0.174562 -0.984646 2.40134e-16
f 81//81 79//79 78//78 
f 81//81 80//80 79//79 

g Face_10
v 0.18031834125384003 -0.17128468437848 -0.1303
v 0.17449309674616 -0.17025196162152 -0.1303
v 0.17466765874616 -0.16926731562152003 -0.1303
v 0.174572875167702 -0.169588337865334 -0.1303
v 0.174514445425938 -0.169917920543746 -0.1303
v 0.18049290325384001 -0.17030003837848 -0.1303
v 0.180446938 -0.17079968600000003 -0.1303
v 0.18047155457406203 -0.17063407945625403 -0.1303
v 0.180486893454142 -0.170467357249614 -0.1303
v 0.180370215864218 -0.171125496605306 -0.1303
v 0.18041312483229802 -0.17096366213466602 -0.1303
vn -3.37875e-17 -2.37888e-16 -1
vn -3.37875e-17 -2.37888e-16 -1
vn -3.37875e-17 -2.37888e-16 -1
vn -3.37875e-17 -2.37888e-16 -1
vn -3.37875e-17 -2.37888e-16 -1
vn -3.37875e-17 -2.37888e-16 -1
vn -3.37875e-17 -2.37888e-16 -1
vn -3.37875e-17 -2.37888e-16 -1
vn -3.37875e-17 -2.37888e-16 -1
vn -3.37875e-17 -2.37888e-16 -1
vn -3.37875e-17 -2.37888e-16 -1
f 84//84 82//82 83//83 
f 84//84 86//86 85//85 
f 84//84 83//83 86//86 
f 84//84 89//89 88//88 
f 84//84 90//90 89//89 
f 84//84 87//87 90//90 
f 84//84 91//91 82//82 
f 84//84 92//92 91//91 
f 84//84 88//88 92//92 

