mtllib Aiguille_Secondes.mtl
usemtl Aiguille_Secondes
#Wavefront export of shape 1-88--Aiguille_Secondes

g Face_1
v 0.158035329262554 -0.17628570417317 0.02525
v 0.15803532040218402 -0.17628570880932 0.024499999999706285
v 0.14018160862270002 -0.14146798858026002 0.02525
v 0.14018160862270002 -0.14146798858026002 0.0245
vn 0.889833 0.456286 -0
vn 0.889833 0.456286 -0
vn 0.889833 0.456286 -0
vn 0.889833 0.456286 -0
f 1//1 4//4 3//3 
f 1//1 2//2 4//4 

g Face_2
v 0.14018160862270002 -0.14146798858026002 0.0245
v 0.14149723594312 -0.13835125023516 0.0245
v 0.13995360164036003 -0.13534091381632002 0.0245
v 0.13665488990135002 -0.13459029199285 0.0245
v 0.13665488990135002 -0.13459029199285 0.02525
v 0.14018160862270002 -0.14146798858026002 0.02525
v 0.14149723594312 -0.13835125023516 0.02525
v 0.13995360164036003 -0.13534091381632002 0.02525
vn 0.670402 -0.741998 0
vn 0.999308 0.0371876 0
vn 0.6134 0.789772 0
vn -0.211278 0.977426 0
vn -0.211278 0.977426 0
vn 0.670402 -0.741998 0
vn 0.999308 0.0371876 0
vn 0.6134 0.789772 0
f 8//8 9//9 12//12 
f 7//7 12//12 11//11 
f 7//7 8//8 12//12 
f 6//6 11//11 10//10 
f 6//6 7//7 11//11 
f 5//5 6//6 10//10 

g Face_3
v 0.158035329262554 -0.17628570417317 0.02525
v 0.14018160862270002 -0.14146798858026002 0.02525
v 0.14149723594312 -0.13835125023516 0.02525
v 0.13995360164036003 -0.13534091381632002 0.02525
v 0.13665488990135002 -0.13459029199285 0.02525
v 0.12267196285938001 -0.1073212630849 0.02525
v 0.12395535741774001 -0.10341792472570001 0.02525
v 0.12153280527253 -0.10009913527425002 0.02525
v 0.11742407968828186 -0.10013193977158542 0.02525
v 0.11505465207147002 -0.10348880071295002 0.02525
v 0.11640008447726001 -0.1073711883753 0.02525
v 0.12033860214062 -0.10854218391510001 0.02525
v 0.13476975758015 -0.13557667926685002 0.02525
v 0.13350576862544 -0.13871471434972 0.02525
v 0.13509887923428002 -0.14169916250696 0.02525
v 0.1384095346227 -0.14239521858026002 0.02525
v 0.156835560737446 -0.17691347782683 0.02525
v 0.1381202259 -0.13817546949999998 0.02525
v 0.13690883529193001 -0.138125133671934 0.02525
v 0.13747093880807001 -0.139199396828066 0.02525
vn 0 0 1
vn 0 0 1
vn 0 0 1
vn 0 0 1
vn 0 0 1
vn 0 0 1
vn 0 0 1
vn 0 0 1
vn 0 0 1
vn 0 0 1
vn 0 0 1
vn 0 0 1
vn 0 0 1
vn 0 0 1
vn 0 0 1
vn 0 0 1
vn 0 0 1
vn 0 0 1
vn 0 0 1
vn 0 0 1
f 23//23 18//18 19//19 
f 23//23 19//19 20//20 
f 23//23 20//20 21//21 
f 23//23 21//21 22//22 
f 23//23 24//24 18//18 
f 25//25 17//17 18//18 
f 25//25 18//18 24//24 
f 30//30 15//15 16//16 
f 30//30 16//16 17//17 
f 31//31 17//17 25//25 
f 31//31 30//30 17//17 
f 26//26 32//32 31//31 
f 26//26 31//31 25//25 
f 14//14 30//30 32//32 
f 14//14 15//15 30//30 
f 28//28 14//14 32//32 
f 27//27 32//32 26//26 
f 27//27 28//28 32//32 
f 29//29 13//13 14//14 
f 29//29 14//14 28//28 

g Face_4
v 0.187021691651915 -0.23282342793457503 0.01935339
v 0.1869577172121 -0.23270115251050003 0.0186162
v 0.17420455522480602 -0.20781905963163003 0.02342646
v 0.166130829221847 -0.19207320794443503 0.024793752000000002
v 0.158035329262554 -0.17628570417317 0.02525
v 0.15803532040218402 -0.17628570880932 0.024499999999706285
v 0.174168854211695 -0.207750836173475 0.02268042
v 0.16611299599301302 -0.192039087174865 0.024044744
vn 0.889765 0.456417 -0.00152061
vn 0.889773 0.456401 -0.0015239
vn 0.88981 0.45633 -0.000848583
vn 0.889825 0.456301 -0.000423851
vn 0.889832 0.456289 -2.53585e-05
vn 0.889836 0.456281 -2.54165e-05
vn 0.889818 0.456315 -0.000850361
vn 0.889834 0.456284 -0.000424858
f 36//36 38//38 37//37 
f 36//36 40//40 38//38 
f 35//35 39//39 40//40 
f 35//35 40//40 36//36 
f 33//33 34//34 39//39 
f 33//33 39//39 35//35 

g Face_5
v 0.14018160862270002 -0.14146798858026002 0.0245
v 0.14149723594312 -0.13835125023516 0.0245
v 0.13995360164036003 -0.13534091381632002 0.0245
v 0.13665488990135002 -0.13459029199285 0.0245
v 0.12267196285938001 -0.1073212630849 0.0245
v 0.12395535741774001 -0.10341792472570001 0.0245
v 0.12153280527253 -0.10009913527425002 0.0245
v 0.11742407965500001 -0.10013193978900001 0.0245
v 0.11505465207147002 -0.10348880071295002 0.0245
v 0.11640008447726001 -0.1073711883753 0.0245
v 0.12033860214062 -0.10854218391510001 0.0245
v 0.13476975758015 -0.13557667926685002 0.0245
v 0.13350576862544 -0.13871471434972 0.0245
v 0.13509887923428002 -0.14169916250696 0.0245
v 0.1384095346227 -0.14239521858026002 0.0245
v 0.156835569597816 -0.17691347319068 0.02450000000016765
v 0.15803532040218402 -0.17628570880932 0.024499999999706285
v 0.1381202259 -0.13817546949999998 0.0245
v 0.13690883529193001 -0.138125133671934 0.0245
v 0.13747093880807001 -0.139199396828066 0.0245
vn -0 -0 -1
vn -0 -0 -1
vn -0 -0 -1
vn -0 -0 -1
vn -0 -0 -1
vn -0 -0 -1
vn -0 -0 -1
vn -0 -0 -1
vn -0 -0 -1
vn -0 -0 -1
vn -0 -0 -1
vn -0 -0 -1
vn -0 -0 -1
vn -0 -0 -1
vn -0 -0 -1
vn -0 -0 -1
vn -0 -0 -1
vn -0 -0 -1
vn -0 -0 -1
vn -0 -0 -1
f 50//50 46//46 45//45 
f 50//50 47//47 46//46 
f 50//50 48//48 47//47 
f 50//50 49//49 48//48 
f 50//50 45//45 51//51 
f 52//52 45//45 44//44 
f 52//52 51//51 45//45 
f 58//58 43//43 42//42 
f 58//58 44//44 43//43 
f 59//59 52//52 44//44 
f 59//59 44//44 58//58 
f 53//53 59//59 60//60 
f 53//53 52//52 59//59 
f 41//41 60//60 58//58 
f 41//41 58//58 42//42 
f 55//55 60//60 41//41 
f 54//54 53//53 60//60 
f 54//54 60//60 55//55 
f 56//56 41//41 57//57 
f 56//56 55//55 41//41 

g Face_6
v 0.13665488990135002 -0.13459029199285 0.02525
v 0.13665488990135002 -0.13459029199285 0.0245
v 0.12267196285938001 -0.1073212630849 0.02525
v 0.12267196285938001 -0.1073212630849 0.0245
vn 0.889833 0.456286 -0
vn 0.889833 0.456286 -0
vn 0.889833 0.456286 -0
vn 0.889833 0.456286 -0
f 61//61 64//64 63//63 
f 61//61 62//62 64//64 

g Face_7
v 0.158035329262554 -0.17628570417317 0.02525
v 0.156835560737446 -0.17691347782683 0.02525
v 0.170194383570474 -0.20193891316637 0.024082556
v 0.17850422288033999 -0.21750399848290003 0.022170060000000002
v 0.18675961431183302 -0.23296055876096503 0.01935341
v 0.187021691651915 -0.23282342793457503 0.01935339
v 0.17420455522480602 -0.20781905963163003 0.02342646
v 0.166130829221847 -0.19207320794443503 0.024793752000000002
vn 2.24063e-10 -4.28217e-10 1
vn -3.68404e-11 7.04074e-11 1
vn 0.0380956 -0.0728063 0.996618
vn 0.0617905 -0.118091 0.991078
vn 0.0853225 -0.163064 0.982919
vn 0.0853226 -0.163064 0.982919
vn 0.0475892 -0.09095 0.994718
vn 0.0238262 -0.0455354 0.998679
f 68//68 69//69 70//70 
f 68//68 70//70 71//71 
f 67//67 71//71 72//72 
f 67//67 68//68 71//71 
f 66//66 72//72 65//65 
f 66//66 67//67 72//72 

g Face_8
v 0.1384095346227 -0.14239521858026002 0.02525
v 0.1384095346227 -0.14239521858026002 0.0245
v 0.156835560737446 -0.17691347782683 0.02525
v 0.156835569597816 -0.17691347319068 0.02450000000016765
vn -0.88218 -0.470912 0
vn -0.88218 -0.470912 0
vn -0.88218 -0.470912 0
vn -0.88218 -0.470912 0
f 74//74 76//76 75//75 
f 73//73 74//74 75//75 

g Face_9
v 0.13476975758015 -0.13557667926685002 0.0245
v 0.13350576862544 -0.13871471434972 0.0245
v 0.13509887923428002 -0.14169916250696 0.0245
v 0.1384095346227 -0.14239521858026002 0.0245
v 0.1384095346227 -0.14239521858026002 0.02525
v 0.13476975758015 -0.13557667926685002 0.02525
v 0.13350576862544 -0.13871471434972 0.02525
v 0.13509887923428002 -0.14169916250696 0.02525
vn -0.682559 0.73083 0
vn -0.998558 -0.0536783 -0
vn -0.60028 -0.79979 -0
vn 0.227384 -0.973805 0
vn 0.227384 -0.973805 0
vn -0.682559 0.73083 0
vn -0.998558 -0.0536783 -0
vn -0.60028 -0.79979 -0
f 79//79 80//80 81//81 
f 79//79 81//81 84//84 
f 78//78 84//84 83//83 
f 78//78 79//79 84//84 
f 77//77 83//83 82//82 
f 77//77 78//78 83//83 

g Face_10
v 0.12033860214062 -0.10854218391510001 0.02525
v 0.12033860214062 -0.10854218391510001 0.0245
v 0.13476975758015 -0.13557667926685002 0.02525
v 0.13476975758015 -0.13557667926685002 0.0245
vn -0.88218 -0.470912 0
vn -0.88218 -0.470912 0
vn -0.88218 -0.470912 0
vn -0.88218 -0.470912 0
f 85//85 88//88 87//87 
f 85//85 86//86 88//88 

g Face_11
v 0.12267196285938001 -0.1073212630849 0.0245
v 0.12395535741774001 -0.10341792472570001 0.0245
v 0.12153280527253 -0.10009913527425002 0.0245
v 0.11742407965500001 -0.10013193978900001 0.0245
v 0.11505465207147002 -0.10348880071295002 0.0245
v 0.11640008447726001 -0.1073711883753 0.0245
v 0.12033860214062 -0.10854218391510001 0.0245
v 0.12033860214062 -0.10854218391510001 0.02525
v 0.12267196285938001 -0.1073212630849 0.02525
v 0.12395535741774001 -0.10341792472570001 0.02525
v 0.12153280527253 -0.10009913527425002 0.02525
v 0.11742407968828186 -0.10013193977158542 0.02525
v 0.11505465207147002 -0.10348880071295002 0.02525
v 0.11640008447726001 -0.1073711883753 0.02525
vn 0.702585 -0.711599 0
vn 0.987788 0.155804 0
vn 0.449443 0.893309 0
vn -0.463615 0.886037 0
vn -0.990144 0.14005 0
vn -0.691162 -0.7227 -0
vn 0.184062 -0.982915 0
vn 0.184062 -0.982915 0
vn 0.702585 -0.711599 0
vn 0.987788 0.155804 0
vn 0.449444 0.893309 0
vn -0.463615 0.886037 0
vn -0.990144 0.14005 0
vn -0.691162 -0.7227 -0
f 94//94 95//95 96//96 
f 94//94 96//96 102//102 
f 93//93 102//102 101//101 
f 93//93 94//94 102//102 
f 92//92 101//101 100//100 
f 92//92 93//93 101//101 
f 91//91 100//100 99//99 
f 91//91 92//92 100//100 
f 90//90 99//99 98//98 
f 90//90 91//91 99//99 
f 89//89 98//98 97//97 
f 89//89 90//90 98//98 

g Face_12
v 0.1381202259 -0.13817546949999998 0.0245
v 0.13690883529193001 -0.138125133671934 0.0245
v 0.13747093880807001 -0.139199396828066 0.0245
v 0.1381202259 -0.13817546949999998 0.0245
v 0.1381202259 -0.13817546949999998 0.02525
v 0.1381202259 -0.13817546949999998 0.02525
v 0.13690883529193001 -0.138125133671934 0.02525
v 0.13747093880807001 -0.139199396828066 0.02525
vn -0.886037 -0.463615 -0
vn 0.844521 -0.535523 -0
vn 0.041516 0.999138 0
vn -0.886037 -0.463615 -0
vn -0.886037 -0.463615 -0
vn -0.886037 -0.463615 -0
vn 0.844521 -0.535523 -0
vn 0.041516 0.999138 0
f 105//105 107//107 106//106 
f 105//105 110//110 107//107 
f 104//104 109//109 110//110 
f 104//104 110//110 105//105 
f 103//103 108//108 109//109 
f 103//103 109//109 104//104 

g Face_13
v 0.18675961431183302 -0.23296055876096503 0.01935341
v 0.186695631897685 -0.23283828750942503 0.018616220000000003
v 0.1869577172121 -0.23270115251050003 0.0186162
v 0.187021691651915 -0.23282342793457503 0.01935339
v 0.18692599515000002 -0.23296040457 0.018957380000000003
vn -0.844261 -0.535707 -0.0155746
vn -0.844304 -0.535638 -0.0155595
vn 0.913368 0.406965 -0.0117569
vn 0.913435 0.406814 -0.0117877
vn 0.455496 -0.870918 -0.184462
f 115//115 111//111 112//112 
f 115//115 112//112 113//113 
f 115//115 113//113 114//114 
f 115//115 114//114 111//111 

g Face_14
v 0.156835569597816 -0.17691347319068 0.02450000000016765
v 0.17016582754458504 -0.20188433189632501 0.023335090000000003
v 0.17845790774184 -0.2174154833866 0.02142675
v 0.186695631897685 -0.23283828750942503 0.018616220000000003
v 0.1869577172121 -0.23270115251050003 0.0186162
v 0.174168854211695 -0.207750836173475 0.02268042
v 0.16611299599301302 -0.192039087174865 0.024044744
v 0.15803532040218402 -0.17628570880932 0.024499999999706285
vn 1.55849e-15 -2.97851e-15 -1
vn -0.0380956 0.0728062 -0.996618
vn -0.0617905 0.118091 -0.991078
vn -0.0853225 0.163064 -0.982919
vn -0.0853226 0.163064 -0.982919
vn -0.0475892 0.09095 -0.994718
vn -0.0238262 0.0455354 -0.998679
vn 1.55849e-15 -2.97851e-15 -1
f 118//118 120//120 119//119 
f 118//118 121//121 120//120 
f 117//117 122//122 121//121 
f 117//117 121//121 118//118 
f 116//116 123//123 122//122 
f 116//116 122//122 117//117 

g Face_15
v 0.156835569597816 -0.17691347319068 0.02450000000016765
v 0.156835560737446 -0.17691347782683 0.02525
v 0.170194383570474 -0.20193891316637 0.024082556
v 0.17850422288033999 -0.21750399848290003 0.022170060000000002
v 0.18675961431183302 -0.23296055876096503 0.01935341
v 0.186695631897685 -0.23283828750942503 0.018616220000000003
v 0.17016582754458504 -0.20188433189632501 0.023335090000000003
v 0.17845790774184 -0.2174154833866 0.02142675
vn -0.882177 -0.470918 -2.54165e-05
vn -0.882182 -0.47091 -2.53585e-05
vn -0.882196 -0.470882 -0.000685121
vn -0.882217 -0.470843 -0.00109423
vn -0.882248 -0.470782 -0.00152061
vn -0.88224 -0.470797 -0.0015239
vn -0.882188 -0.470897 -0.000686602
vn -0.882208 -0.470858 -0.0010966
f 131//131 129//129 128//128 
f 127//127 131//131 128//128 
f 126//126 130//130 131//131 
f 126//126 131//131 127//127 
f 124//124 130//130 126//126 
f 125//125 124//124 126//126 

