mtllib Axe_detente_Heures.mtl
usemtl Axe_detente_Heures
#Wavefront export of shape 1-49-1--Axe_detente_Heures

g Face_1
v 0.05925525632 -0.0210998618 -0.0417
v 0.059333854655345 -0.020945516995472 -0.0417
v 0.059160889024655 -0.020954621204528 -0.0417
vn -9.58942e-19 1.73412e-17 1
vn -9.58942e-19 1.73412e-17 1
vn -9.58942e-19 1.73412e-17 1
f 2//2 3//3 1//1 

g Face_2
v 0.05925525632 -0.02109986179999999 -0.1363
v 0.059333854655345 -0.02094551699547199 -0.1363
v 0.059160889024655 -0.02095462120452799 -0.1363
vn 9.58942e-19 -1.73412e-17 -1
vn 9.58942e-19 -1.73412e-17 -1
vn 9.58942e-19 -1.73412e-17 -1
f 4//4 6//6 5//5 

g Face_3
v 0.059328844799999995 -0.02249792699999999 -0.1353
v 0.060747927 -0.020921155199999993 -0.1353
v 0.0591711552 -0.01950207299999999 -0.1353
v 0.057752072999999994 -0.021078844799999993 -0.1353
v 0.059328844799999995 -0.02249792699999999 -0.1353
v 0.05925525632 -0.02109986179999999 -0.1363
v 0.059333854655345 -0.02094551699547199 -0.1363
v 0.059160889024655 -0.02095462120452799 -0.1363
v 0.05925525632 -0.02109986179999999 -0.1363
vn 4.81347e-18 -0.581238 -0.813733
vn 0.581238 -4.56686e-17 -0.813733
vn 6.79283e-17 0.581238 -0.813733
vn -0.581238 8.86274e-17 -0.813733
vn -1.37549e-16 -0.581238 -0.813733
vn 4.81347e-18 -0.581238 -0.813733
vn 0.503367 0.290619 -0.813733
vn -0.503367 0.290619 -0.813733
vn -1.37549e-16 -0.581238 -0.813733
f 8//8 7//7 12//12 
f 8//8 12//12 13//13 
f 9//9 13//13 14//14 
f 9//9 8//8 13//13 
f 10//10 14//14 15//15 
f 10//10 9//9 14//14 
f 11//11 10//10 15//15 

g Face_4
v 0.059328844799999995 -0.02249792699999999 -0.1313
v 0.060747927 -0.020921155199999993 -0.1313
v 0.0591711552 -0.01950207299999999 -0.1313
v 0.057752072999999994 -0.021078844799999993 -0.1313
v 0.059328844799999995 -0.02249792699999999 -0.1313
v 0.059328844799999995 -0.02249792699999999 -0.1353
v 0.060747927 -0.020921155199999993 -0.1353
v 0.0591711552 -0.01950207299999999 -0.1353
v 0.057752072999999994 -0.021078844799999993 -0.1353
v 0.059328844799999995 -0.02249792699999999 -0.1353
vn 6.93889e-18 -1 1.73412e-17
vn 1 -2.76338e-16 9.58942e-19
vn 5.59615e-16 1 -1.73412e-17
vn -1 1.76758e-16 -9.58942e-19
vn -1.12617e-15 -1 1.73412e-17
vn 6.93889e-18 -1 1.73412e-17
vn 1 -2.76338e-16 9.58942e-19
vn 5.59615e-16 1 -1.73412e-17
vn -1 1.76758e-16 -9.58942e-19
vn -1.12617e-15 -1 1.73412e-17
f 17//17 16//16 21//21 
f 17//17 21//21 22//22 
f 18//18 22//22 23//23 
f 18//18 17//17 22//22 
f 19//19 23//23 24//24 
f 19//19 18//18 23//23 
f 20//20 24//24 25//25 
f 20//20 19//19 24//24 

g Face_5
v 0.059407689599999994 -0.02399585399999999 -0.1313
v 0.061923334253439995 -0.02236136360134399 -0.1313
v 0.06176564465344 -0.01936550960134399 -0.1313
v 0.0590923104 -0.01800414599999999 -0.1313
v 0.05657666574656 -0.01963863639865599 -0.1313
v 0.056734355346559996 -0.02263449039865599 -0.1313
v 0.059328844799999995 -0.02249792699999999 -0.1313
v 0.060747927 -0.020921155199999993 -0.1313
v 0.0591711552 -0.01950207299999999 -0.1313
v 0.057752072999999994 -0.021078844799999993 -0.1313
vn 9.58942e-19 -1.73412e-17 -1
vn 9.58942e-19 -1.73412e-17 -1
vn 9.58942e-19 -1.73412e-17 -1
vn 9.58942e-19 -1.73412e-17 -1
vn 9.58942e-19 -1.73412e-17 -1
vn 9.58942e-19 -1.73412e-17 -1
vn 9.58942e-19 -1.73412e-17 -1
vn 9.58942e-19 -1.73412e-17 -1
vn 9.58942e-19 -1.73412e-17 -1
vn 9.58942e-19 -1.73412e-17 -1
f 34//34 30//30 29//29 
f 35//35 30//30 34//34 
f 31//31 30//30 35//35 
f 28//28 34//34 29//29 
f 33//33 34//34 28//28 
f 32//32 31//31 35//35 
f 26//26 31//31 32//32 
f 27//27 32//32 33//33 
f 27//27 26//26 32//32 
f 27//27 33//33 28//28 

g Face_6
v 0.059407689599999994 -0.023995854 -0.0467
v 0.061923334253439995 -0.022361363601344 -0.0467
v 0.06176564465344 -0.019365509601344002 -0.0467
v 0.0590923104 -0.018004146000000002 -0.0467
v 0.05657666574656 -0.019638636398656 -0.0467
v 0.056734355346559996 -0.022634490398656 -0.0467
v 0.059407689599999994 -0.023995854 -0.0467
v 0.059407689599999994 -0.02399585399999999 -0.1313
v 0.061923334253439995 -0.02236136360134399 -0.1313
v 0.06176564465344 -0.01936550960134399 -0.1313
v 0.0590923104 -0.01800414599999999 -0.1313
v 0.05657666574656 -0.01963863639865599 -0.1313
v 0.056734355346559996 -0.02263449039865599 -0.1313
v 0.059407689599999994 -0.02399585399999999 -0.1313
v 0.062245853999999996 -0.020842310399999994 -0.1048
v 0.061767562013248 -0.019368452888831992 -0.1062044
v 0.062229872926108 -0.020654555788857994 -0.1077879
v 0.062128221193367195 -0.021846052525213995 -0.1074215
v 0.061923334253439995 -0.022361363601343994 -0.1063
v 0.05686860293736 -0.019175450765440003 -0.0522
v 0.0563119836404328 -0.020393421642146 -0.05125615
v 0.0562537195672224 -0.020850519259872 -0.052821900000000005
v 0.056516284054387994 -0.019764424190288 -0.0531436
vn 6.93889e-18 -1 1.73412e-17
vn 0.866025 -0.5 9.50108e-18
vn 0.866025 0.5 -7.84014e-18
vn 1.15526e-16 1 -1.73412e-17
vn -0.866025 0.5 -9.50108e-18
vn -0.866025 -0.5 7.84014e-18
vn -2.3799e-16 -1 1.73412e-17
vn 6.93889e-18 -1 1.73412e-17
vn 0.866025 -0.5 9.50108e-18
vn 0.866025 0.5 -7.84014e-18
vn 1.15526e-16 1 -1.73412e-17
vn -0.866025 0.5 -9.50108e-18
vn -0.866025 -0.5 7.84014e-18
vn -2.3799e-16 -1 1.73412e-17
vn 1 6.1184e-16 9.58942e-19
vn 0.86661 0.498987 -7.82201e-18
vn 0.998027 0.0627824 -1.31672e-19
vn 0.943259 -0.332058 6.66282e-18
vn 0.866026 -0.499999 9.50106e-18
vn -0.760732 0.649066 -1.19851e-17
vn -0.967364 0.253392 -5.32176e-18
vn -0.994758 0.102256 -2.72716e-18
vn -0.888338 0.45919 -8.81478e-18
f 54//54 43//43 44//44 
f 36//36 43//43 54//54 
f 53//53 54//54 44//44 
f 52//52 44//44 45//45 
f 52//52 53//53 44//44 
f 51//51 52//52 45//45 
f 37//37 36//36 54//54 
f 46//46 51//51 45//45 
f 38//38 50//50 51//51 
f 38//38 37//37 50//50 
f 39//39 38//38 51//51 
f 39//39 51//51 46//46 
f 55//55 46//46 47//47 
f 55//55 39//39 46//46 
f 58//58 55//55 47//47 
f 40//40 39//39 55//55 
f 57//57 47//47 48//48 
f 57//57 58//58 47//47 
f 41//41 56//56 57//57 
f 41//41 57//57 48//48 
f 41//41 40//40 56//56 
f 42//42 48//48 49//49 
f 42//42 41//41 48//48 
f 54//54 50//50 37//37 
f 55//55 56//56 40//40 

g Face_7
v 0.059407689599999994 -0.023995854 -0.0467
v 0.061923334253439995 -0.022361363601344 -0.0467
v 0.06176564465344 -0.019365509601344002 -0.0467
v 0.0590923104 -0.018004146000000002 -0.0467
v 0.05657666574656 -0.019638636398656 -0.0467
v 0.056734355346559996 -0.022634490398656 -0.0467
v 0.059328844799999995 -0.022497927 -0.0467
v 0.060747927 -0.0209211552 -0.0467
v 0.0591711552 -0.019502073 -0.0467
v 0.057752072999999994 -0.0210788448 -0.0467
vn -9.58942e-19 1.73412e-17 1
vn -9.58942e-19 1.73412e-17 1
vn -9.58942e-19 1.73412e-17 1
vn -9.58942e-19 1.73412e-17 1
vn -9.58942e-19 1.73412e-17 1
vn -9.58942e-19 1.73412e-17 1
vn -9.58942e-19 1.73412e-17 1
vn -9.58942e-19 1.73412e-17 1
vn -9.58942e-19 1.73412e-17 1
vn -9.58942e-19 1.73412e-17 1
f 65//65 64//64 59//59 
f 68//68 64//64 65//65 
f 63//63 64//64 68//68 
f 60//60 65//65 59//59 
f 66//66 65//65 60//60 
f 67//67 63//63 68//68 
f 62//62 63//63 67//67 
f 61//61 67//67 66//66 
f 61//61 62//62 67//67 
f 61//61 66//66 60//60 

g Face_8
v 0.059328844799999995 -0.022497927 -0.0427
v 0.060747927 -0.0209211552 -0.0427
v 0.0591711552 -0.019502073 -0.0427
v 0.057752072999999994 -0.0210788448 -0.0427
v 0.059328844799999995 -0.022497927 -0.0427
v 0.059328844799999995 -0.022497927 -0.0467
v 0.060747927 -0.0209211552 -0.0467
v 0.0591711552 -0.019502073 -0.0467
v 0.057752072999999994 -0.0210788448 -0.0467
v 0.059328844799999995 -0.022497927 -0.0467
vn 6.93889e-18 -1 1.73412e-17
vn 1 -5.42934e-17 9.58942e-19
vn 1.15526e-16 1 -1.73412e-17
vn -1 1.76758e-16 -9.58942e-19
vn -2.3799e-16 -1 1.73412e-17
vn 6.93889e-18 -1 1.73412e-17
vn 1 -5.42934e-17 9.58942e-19
vn 1.15526e-16 1 -1.73412e-17
vn -1 1.76758e-16 -9.58942e-19
vn -2.3799e-16 -1 1.73412e-17
f 70//70 69//69 74//74 
f 70//70 74//74 75//75 
f 71//71 75//75 76//76 
f 71//71 70//70 75//75 
f 72//72 76//76 77//77 
f 72//72 71//71 76//76 
f 73//73 77//77 78//78 
f 73//73 72//72 77//77 

g Face_9
v 0.05925525632 -0.0210998618 -0.0417
v 0.059333854655345 -0.020945516995472 -0.0417
v 0.059160889024655 -0.020954621204528 -0.0417
v 0.05925525632 -0.0210998618 -0.0417
v 0.059328844799999995 -0.022497927 -0.0427
v 0.060747927 -0.0209211552 -0.0427
v 0.0591711552 -0.019502073 -0.0427
v 0.057752072999999994 -0.0210788448 -0.0427
v 0.059328844799999995 -0.022497927 -0.0427
vn 2.16796e-16 -0.581238 0.813733
vn 0.503367 0.290619 0.813733
vn -0.503367 0.290619 0.813733
vn 7.4434e-17 -0.581238 0.813733
vn 2.16796e-16 -0.581238 0.813733
vn 0.581238 1.96097e-16 0.813733
vn -1.47176e-16 0.581238 0.813733
vn -0.581238 -9.66937e-17 0.813733
vn 7.4434e-17 -0.581238 0.813733
f 86//86 82//82 81//81 
f 86//86 87//87 82//82 
f 85//85 81//81 80//80 
f 85//85 86//86 81//81 
f 84//84 80//80 79//79 
f 84//84 85//85 80//80 
f 83//83 84//84 79//79 

g Face_10
v 0.059558800783168 -0.020048873238702403 -0.0522
v 0.059095599608416 -0.0214755633806488 -0.05133397
v 0.059095599608416 -0.0214755633806488 -0.053066
v 0.059558800783168 -0.020048873238702403 -0.0522
v 0.05686860293736 -0.019175450765440003 -0.0522
v 0.0563119836404328 -0.020393421642146 -0.05125615
v 0.0562537195672224 -0.020850519259872 -0.052821900000000005
v 0.056516284054387994 -0.019764424190288 -0.0531436
v 0.05686860293736 -0.019175450765440003 -0.0522
vn -0.358368 -0.93358 1.6247e-17
vn 0.179184 0.46679 -0.866025
vn 0.179184 0.46679 0.866025
vn -0.358368 -0.93358 2.61176e-16
vn -0.358368 -0.93358 1.6247e-17
vn 0.118381 0.308394 -0.943864
vn 0.280634 0.731077 0.621908
vn -0.118629 -0.309038 0.943622
vn -0.358368 -0.93358 2.61176e-16
f 89//89 92//92 88//88 
f 89//89 93//93 92//92 
f 89//89 94//94 93//93 
f 90//90 95//95 94//94 
f 90//90 94//94 89//89 
f 91//91 96//96 95//95 
f 91//91 95//95 90//90 

g Face_11
v 0.059558800783168 -0.020048873238702403 -0.0522
v 0.059095599608416 -0.0214755633806488 -0.05133397
v 0.059095599608416 -0.0214755633806488 -0.053066
vn -0.93358 0.358368 -7.16047e-18
vn -0.93358 0.358368 -7.16047e-18
vn -0.93358 0.358368 -7.16047e-18
f 97//97 99//99 98//98 

g Face_12
v 0.059328844799999995 -0.022497926999999994 -0.1063
v 0.05925 -0.02100000000000001 -0.1048
v 0.0591711552 -0.019502072999999995 -0.1063
v 0.05925 -0.02100000000000001 -0.1078
v 0.059328844799999995 -0.022497926999999994 -0.1063
v 0.061923334253439995 -0.022361363601343994 -0.1063
v 0.062245853999999996 -0.020842310399999994 -0.1048
v 0.061767562013248 -0.019368452888831992 -0.1062044
v 0.062229872926108 -0.020654555788857994 -0.1077879
v 0.062128221193367195 -0.021846052525213995 -0.1074215
v 0.061923334253439995 -0.022361363601343994 -0.1063
vn -2.28983e-16 1 -1.7771e-17
vn 9.58942e-19 4.34613e-17 -1
vn 2.28983e-16 -1 -1.04694e-16
vn -9.58942e-19 -1.65926e-16 1
vn -2.28983e-16 1 2.27158e-16
vn -2.28983e-16 1 -2.68439e-16
vn 9.58942e-19 -1.15029e-14 -1
vn 2.28579e-16 -0.997967 -0.0637295
vn 2.78031e-17 -0.125574 0.992084
vn -1.52787e-16 0.66411 0.747634
vn -2.28983e-16 1 2.27158e-16
f 101//101 105//105 100//100 
f 101//101 106//106 105//105 
f 101//101 107//107 106//106 
f 102//102 107//107 101//101 
f 103//103 108//108 107//107 
f 103//103 109//109 108//108 
f 103//103 107//107 102//102 
f 104//104 110//110 109//109 
f 104//104 109//109 103//103 

g Face_13
v 0.059328844799999995 -0.022497926999999994 -0.1063
v 0.05925 -0.02100000000000001 -0.1048
v 0.0591711552 -0.019502072999999995 -0.1063
v 0.05925 -0.02100000000000001 -0.1078
vn 1 2.28983e-16 9.58942e-19
vn 1 2.28983e-16 9.58942e-19
vn 1 2.28983e-16 9.58942e-19
vn 1 2.28983e-16 9.58942e-19
f 112//112 114//114 113//113 
f 112//112 111//111 114//114 

