mtllib Bras_Gdetente_Quarts.mtl
usemtl Bras_Gdetente_Quarts
#Wavefront export of shape 1-67--Bras_Gdetente_Quarts

g Face_1
v 0.18538313745139 -0.16895469476583602 -0.1283
v 0.18538313745139 -0.16895469476583602 -0.1268
v 0.18540496149375 -0.17145962145750002 -0.1283
v 0.182999168256476 -0.176079637634184 -0.1283
v 0.178259076367754 -0.1782392386295 -0.1283
v 0.17319421420965803 -0.177022887603366 -0.1283
v 0.16995178475638 -0.172946241162938 -0.1283
v 0.16990640240964403 -0.167737566885744 -0.1283
v 0.17307730621262601 -0.163605037775562 -0.1283
v 0.17812020383907 -0.162300621132162 -0.1283
v 0.18289720995017203 -0.16437730163795203 -0.1283
v 0.18540496149375 -0.17145962145750002 -0.1268
v 0.182999168256476 -0.176079637634184 -0.1268
v 0.178259076367754 -0.1782392386295 -0.1268
v 0.17319421420965803 -0.177022887603366 -0.1268
v 0.16995178475638 -0.172946241162938 -0.1268
v 0.16990640240964403 -0.167737566885744 -0.1268
v 0.17307730621262601 -0.163605037775562 -0.1268
v 0.17812020383907 -0.162300621132162 -0.1268
v 0.18289720995017203 -0.16437730163795203 -0.1268
vn 0.986266 0.165163 -1.01027e-17
vn 0.986266 0.165163 -1.01027e-17
vn 0.988994 -0.147953 -4.33009e-17
vn 0.688271 -0.725454 -9.59824e-17
vn 0.0957595 -0.995404 -1.07973e-16
vn -0.537348 -0.843361 -7.4189e-17
vn -0.942651 -0.33378 -8.95328e-18
vn -0.948324 0.317304 6.00782e-17
vn -0.551962 0.833869 1.0364e-16
vn 0.0784004 0.996922 1.03264e-16
vn 0.675525 0.737337 5.91105e-17
vn 0.988994 -0.147953 -4.33009e-17
vn 0.688271 -0.725454 -9.59824e-17
vn 0.0957595 -0.995404 -1.07973e-16
vn -0.537348 -0.843361 -7.4189e-17
vn -0.942651 -0.33378 -8.95328e-18
vn -0.948324 0.317304 6.00782e-17
vn -0.551962 0.833869 1.0364e-16
vn 0.0784004 0.996922 1.03264e-16
vn 0.675525 0.737337 5.91105e-17
f 20//20 2//2 1//1 
f 20//20 1//1 11//11 
f 19//19 11//11 10//10 
f 19//19 20//20 11//11 
f 18//18 10//10 9//9 
f 18//18 19//19 10//10 
f 17//17 9//9 8//8 
f 17//17 18//18 9//9 
f 16//16 8//8 7//7 
f 16//16 17//17 8//8 
f 15//15 7//7 6//6 
f 15//15 16//16 7//7 
f 14//14 6//6 5//5 
f 14//14 15//15 6//6 
f 13//13 5//5 4//4 
f 13//13 14//14 5//5 
f 12//12 4//4 3//3 
f 12//12 13//13 4//4 

g Face_2
v 0.24175840712340002 -0.16739313925616 -0.1283
v 0.18540496149375 -0.17145962145750002 -0.1283
v 0.182999168256476 -0.176079637634184 -0.1283
v 0.178259076367754 -0.1782392386295 -0.1283
v 0.17319421420965803 -0.177022887603366 -0.1283
v 0.16995178475638 -0.172946241162938 -0.1283
v 0.16990640240964403 -0.167737566885744 -0.1283
v 0.17307730621262601 -0.163605037775562 -0.1283
v 0.17812020383907 -0.162300621132162 -0.1283
v 0.18289720995017203 -0.16437730163795203 -0.1283
v 0.18538313745139 -0.16895469476583602 -0.1283
v 0.25404606162340004 -0.16399995675616003 -0.1283
v 0.255101665363188 -0.16631006374367 -0.1283
v 0.25528446433601204 -0.16884329799041 -0.1283
v 0.2545714659834 -0.17128102785616 -0.1283
v 0.24210387848340004 -0.17218069285616 -0.1283
v 0.17524883425 -0.1704379397 -0.1283
v 0.17695352889300003 -0.1724603733934416 -0.1283
v 0.179403755984494 -0.171464078609412 -0.1283
v 0.17921338399156603 -0.16882589719813199 -0.1283
v 0.17664550087056802 -0.1681917108111216 -0.1283
vn -2.79579e-17 1.05782e-16 -1
vn -2.79579e-17 1.05782e-16 -1
vn -2.79579e-17 1.05782e-16 -1
vn -2.79579e-17 1.05782e-16 -1
vn -2.79579e-17 1.05782e-16 -1
vn -2.79579e-17 1.05782e-16 -1
vn -2.79579e-17 1.05782e-16 -1
vn -2.79579e-17 1.05782e-16 -1
vn -2.79579e-17 1.05782e-16 -1
vn -2.79579e-17 1.05782e-16 -1
vn -2.79579e-17 1.05782e-16 -1
vn -2.79579e-17 1.05782e-16 -1
vn -2.79579e-17 1.05782e-16 -1
vn -2.79579e-17 1.05782e-16 -1
vn -2.79579e-17 1.05782e-16 -1
vn -2.79579e-17 1.05782e-16 -1
vn -2.79579e-17 1.05782e-16 -1
vn -2.79579e-17 1.05782e-16 -1
vn -2.79579e-17 1.05782e-16 -1
vn -2.79579e-17 1.05782e-16 -1
vn -2.79579e-17 1.05782e-16 -1
f 21//21 32//32 33//33 
f 21//21 33//33 34//34 
f 21//21 34//34 35//35 
f 21//21 35//35 36//36 
f 31//31 21//21 22//22 
f 39//39 22//22 23//23 
f 39//39 23//23 24//24 
f 39//39 31//31 22//22 
f 38//38 24//24 25//25 
f 38//38 39//39 24//24 
f 40//40 31//31 39//39 
f 30//30 31//31 40//40 
f 37//37 38//38 25//25 
f 26//26 37//37 25//25 
f 29//29 40//40 41//41 
f 29//29 30//30 40//40 
f 27//27 41//41 37//37 
f 27//27 37//37 26//26 
f 28//28 29//29 41//41 
f 28//28 41//41 27//27 
f 31//31 32//32 21//21 

g Face_3
v 0.18538313745139 -0.16895469476583602 -0.1268
v 0.25404606162340004 -0.16399995675616003 -0.1268
v 0.255101665363188 -0.16631006374367 -0.1268
v 0.25528446433601204 -0.16884329799041 -0.1268
v 0.2545714659834 -0.17128102785616 -0.1268
v 0.24210387848340004 -0.17218069285616 -0.1268
v 0.24175840712340002 -0.16739313925616 -0.1268
v 0.18540496149375 -0.17145962145750002 -0.1268
v 0.182999168256476 -0.176079637634184 -0.1268
v 0.178259076367754 -0.1782392386295 -0.1268
v 0.17319421420965803 -0.177022887603366 -0.1268
v 0.16995178475638 -0.172946241162938 -0.1268
v 0.16990640240964403 -0.167737566885744 -0.1268
v 0.17307730621262601 -0.163605037775562 -0.1268
v 0.17812020383907 -0.162300621132162 -0.1268
v 0.18289720995017203 -0.16437730163795203 -0.1268
v 0.17524883425 -0.1704379397 -0.1268
v 0.17664550087056802 -0.1681917108111216 -0.1268
v 0.17921338399156603 -0.16882589719813199 -0.1268
v 0.179403755984494 -0.171464078609412 -0.1268
v 0.17695352889300003 -0.1724603733934416 -0.1268
vn 2.79579e-17 -1.05782e-16 1
vn 2.79579e-17 -1.05782e-16 1
vn 2.79579e-17 -1.05782e-16 1
vn 2.79579e-17 -1.05782e-16 1
vn 2.79579e-17 -1.05782e-16 1
vn 2.79579e-17 -1.05782e-16 1
vn 2.79579e-17 -1.05782e-16 1
vn 2.79579e-17 -1.05782e-16 1
vn 2.79579e-17 -1.05782e-16 1
vn 2.79579e-17 -1.05782e-16 1
vn 2.79579e-17 -1.05782e-16 1
vn 2.79579e-17 -1.05782e-16 1
vn 2.79579e-17 -1.05782e-16 1
vn 2.79579e-17 -1.05782e-16 1
vn 2.79579e-17 -1.05782e-16 1
vn 2.79579e-17 -1.05782e-16 1
vn 2.79579e-17 -1.05782e-16 1
vn 2.79579e-17 -1.05782e-16 1
vn 2.79579e-17 -1.05782e-16 1
vn 2.79579e-17 -1.05782e-16 1
vn 2.79579e-17 -1.05782e-16 1
f 48//48 44//44 43//43 
f 48//48 45//45 44//44 
f 48//48 46//46 45//45 
f 48//48 47//47 46//46 
f 42//42 49//49 48//48 
f 61//61 50//50 49//49 
f 61//61 51//51 50//50 
f 61//61 49//49 42//42 
f 62//62 52//52 51//51 
f 62//62 51//51 61//61 
f 60//60 61//61 42//42 
f 57//57 60//60 42//42 
f 58//58 52//52 62//62 
f 53//53 52//52 58//58 
f 56//56 59//59 60//60 
f 56//56 60//60 57//57 
f 54//54 58//58 59//59 
f 54//54 53//53 58//58 
f 55//55 59//59 56//56 
f 55//55 54//54 59//59 
f 42//42 48//48 43//43 

g Face_4
v 0.17574753775000002 -0.17040195309999998 -0.1273
v 0.17707341083796002 -0.171974956007546 -0.1273
v 0.178979141955444 -0.17120005457124401 -0.1273
v 0.178831075809476 -0.169148148994564 -0.1273
v 0.17683383364712002 -0.168654887326646 -0.1273
v 0.17574753775000002 -0.17040195309999998 -0.1273
v 0.17574753775000002 -0.17040195309999998 -0.1278
v 0.17574753775000002 -0.17040195309999998 -0.1278
v 0.17683383364712002 -0.168654887326646 -0.1278
v 0.178831075809476 -0.169148148994564 -0.1278
v 0.178979141955444 -0.17120005457124401 -0.1278
v 0.17707341083796002 -0.171974956007546 -0.1278
vn 0.997407 0.0719732 -2.0272e-17
vn 0.239765 0.970831 9.59929e-17
vn -0.849224 0.528033 7.95988e-17
vn -0.764614 -0.644488 -4.67981e-17
vn 0.376666 -0.926349 -1.08522e-16
vn 0.997407 0.0719732 -2.0272e-17
vn 0.997407 0.0719732 -2.0272e-17
vn 0.997407 0.0719732 -2.0272e-17
vn 0.376666 -0.926349 -1.08522e-16
vn -0.764614 -0.644488 -4.67981e-17
vn -0.849224 0.528033 7.95988e-17
vn 0.239765 0.970831 9.59929e-17
f 64//64 69//69 63//63 
f 64//64 74//74 69//69 
f 65//65 73//73 74//74 
f 65//65 74//74 64//64 
f 66//66 72//72 73//73 
f 66//66 73//73 65//65 
f 67//67 71//71 72//72 
f 67//67 72//72 66//66 
f 68//68 70//70 71//71 
f 68//68 71//71 67//67 

g Face_5
v 0.25404606162340004 -0.16399995675616003 -0.1283
v 0.25404606162340004 -0.16399995675616003 -0.1268
v 0.18538313745139 -0.16895469476583602 -0.1268
v 0.18538313745139 -0.16895469476583602 -0.1283
vn -0.0719732 0.997407 1.0752e-16
vn -0.0719732 0.997407 1.0752e-16
vn -0.0719732 0.997407 1.0752e-16
vn -0.0719732 0.997407 1.0752e-16
f 78//78 76//76 75//75 
f 78//78 77//77 76//76 

g Face_6
v 0.25404606162340004 -0.16399995675616003 -0.1283
v 0.255101665363188 -0.16631006374367 -0.1283
v 0.25528446433601204 -0.16884329799041 -0.1283
v 0.2545714659834 -0.17128102785616 -0.1283
v 0.25404606162340004 -0.16399995675616003 -0.1268
v 0.255101665363188 -0.16631006374367 -0.1268
v 0.25528446433601204 -0.16884329799041 -0.1268
v 0.2545714659834 -0.17128102785616 -0.1268
vn 0.821444 0.570289 3.73603e-17
vn 0.968836 0.247704 -8.8411e-19
vn 0.994362 -0.106039 -3.90173e-17
vn 0.894812 -0.446443 -7.22426e-17
vn 0.821444 0.570289 3.73603e-17
vn 0.968836 0.247704 -8.8411e-19
vn 0.994362 -0.106039 -3.90173e-17
vn 0.894812 -0.446443 -7.22426e-17
f 85//85 82//82 81//81 
f 85//85 86//86 82//82 
f 84//84 81//81 80//80 
f 84//84 85//85 81//81 
f 83//83 80//80 79//79 
f 83//83 84//84 80//80 

g Face_7
v 0.24210387848340004 -0.17218069285616 -0.1283
v 0.24210387848340004 -0.17218069285616 -0.1268
v 0.2545714659834 -0.17128102785616 -0.1268
v 0.2545714659834 -0.17128102785616 -0.1283
vn 0.0719732 -0.997407 -1.0752e-16
vn 0.0719732 -0.997407 -1.0752e-16
vn 0.0719732 -0.997407 -1.0752e-16
vn 0.0719732 -0.997407 -1.0752e-16
f 90//90 88//88 87//87 
f 90//90 89//89 88//88 

g Face_8
v 0.24175840712340002 -0.16739313925616 -0.1283
v 0.24175840712340002 -0.16739313925616 -0.1268
v 0.24210387848340004 -0.17218069285616 -0.1268
v 0.24210387848340004 -0.17218069285616 -0.1283
vn -0.997407 -0.0719732 2.0272e-17
vn -0.997407 -0.0719732 2.0272e-17
vn -0.997407 -0.0719732 2.0272e-17
vn -0.997407 -0.0719732 2.0272e-17
f 91//91 93//93 92//92 
f 91//91 94//94 93//93 

g Face_9
v 0.18540496149375 -0.17145962145750002 -0.1283
v 0.18540496149375 -0.17145962145750002 -0.1268
v 0.24175840712340002 -0.16739313925616 -0.1268
v 0.24175840712340002 -0.16739313925616 -0.1283
vn 0.0719732 -0.997407 -1.0752e-16
vn 0.0719732 -0.997407 -1.0752e-16
vn 0.0719732 -0.997407 -1.0752e-16
vn 0.0719732 -0.997407 -1.0752e-16
f 98//98 96//96 95//95 
f 98//98 97//97 96//96 

g Face_10
v 0.17574753775000002 -0.17040195309999998 -0.1273
v 0.17707341083796002 -0.171974956007546 -0.1273
v 0.178979141955444 -0.17120005457124401 -0.1273
v 0.178831075809476 -0.169148148994564 -0.1273
v 0.17683383364712002 -0.168654887326646 -0.1273
v 0.17574753775000002 -0.17040195309999998 -0.1273
v 0.17524883425 -0.1704379397 -0.1268
v 0.17664550087056802 -0.1681917108111216 -0.1268
v 0.17921338399156603 -0.16882589719813199 -0.1268
v 0.179403755984494 -0.171464078609412 -0.1268
v 0.17695352889300003 -0.1724603733934416 -0.1268
v 0.17524883425 -0.1704379397 -0.1268
vn 0.705273 0.0508927 0.707107
vn 0.169539 0.686481 0.707107
vn -0.600492 0.373376 0.707107
vn -0.540664 -0.455722 0.707107
vn 0.266343 -0.655028 0.707107
vn 0.705273 0.0508927 0.707107
vn 0.705273 0.0508927 0.707107
vn 0.266343 -0.655028 0.707107
vn -0.540664 -0.455722 0.707107
vn -0.600492 0.373376 0.707107
vn 0.169539 0.686481 0.707107
vn 0.705273 0.0508927 0.707107
f 109//109 100//100 99//99 
f 109//109 99//99 110//110 
f 108//108 101//101 100//100 
f 108//108 100//100 109//109 
f 107//107 102//102 101//101 
f 107//107 101//101 108//108 
f 106//106 103//103 102//102 
f 106//106 102//102 107//107 
f 105//105 104//104 103//103 
f 105//105 103//103 106//106 

g Face_11
v 0.17524883425 -0.1704379397 -0.1283
v 0.17695352889300003 -0.1724603733934416 -0.1283
v 0.179403755984494 -0.171464078609412 -0.1283
v 0.17921338399156603 -0.16882589719813199 -0.1283
v 0.17664550087056802 -0.1681917108111216 -0.1283
v 0.17524883425 -0.1704379397 -0.1283
v 0.17574753775000002 -0.17040195309999998 -0.1278
v 0.17683383364712002 -0.168654887326646 -0.1278
v 0.178831075809476 -0.169148148994564 -0.1278
v 0.178979141955444 -0.17120005457124401 -0.1278
v 0.17707341083796002 -0.171974956007546 -0.1278
v 0.17574753775000002 -0.17040195309999998 -0.1278
vn 0.705273 0.0508927 -0.707107
vn 0.169539 0.686481 -0.707107
vn -0.600492 0.373376 -0.707107
vn -0.540664 -0.455722 -0.707107
vn 0.266343 -0.655028 -0.707107
vn 0.705273 0.0508927 -0.707107
vn 0.705273 0.0508927 -0.707107
vn 0.266343 -0.655028 -0.707107
vn -0.540664 -0.455722 -0.707107
vn -0.600492 0.373376 -0.707107
vn 0.169539 0.686481 -0.707107
vn 0.705273 0.0508927 -0.707107
f 115//115 117//117 116//116 
f 115//115 118//118 117//117 
f 114//114 119//119 118//118 
f 114//114 118//118 115//115 
f 113//113 120//120 119//119 
f 113//113 119//119 114//114 
f 112//112 121//121 120//120 
f 112//112 120//120 113//113 
f 111//111 122//122 121//121 
f 111//111 121//121 112//112 

