mtllib Cremaillere_Quarts_-_plaque.mtl
usemtl Cremaillere_Quarts_-_plaque
#Wavefront export of shape 1-64-1--Cremaillere_Quarts_-_plaque

g Face_1
v 0.17529999999999998 -0.160857 -0.025750000000000002
v 0.20279999999999998 -0.160857 -0.025750000000000002
v 0.17529999999999998 -0.160857 -0.027750000000000004
v 0.20079999999999998 -0.160857 -0.027750000000000004
v 0.20079999999999998 -0.160857 -0.051250000000000004
v 0.20379999999999998 -0.160857 -0.051250000000000004
v 0.20379999999999998 -0.160857 -0.04875
v 0.20279999999999998 -0.160857 -0.04875
vn 0 -1 0
vn 0 -1 0
vn 0 -1 0
vn 0 -1 0
vn 0 -1 0
vn 0 -1 0
vn 0 -1 0
vn 0 -1 0
f 4//4 1//1 3//3 
f 2//2 1//1 4//4 
f 5//5 8//8 4//4 
f 6//6 7//7 8//8 
f 6//6 8//8 5//5 
f 8//8 2//2 4//4 

g Face_2
v 0.17354999999999998 -0.090857 -0.025750000000000002
v 0.13729999999999998 -0.090857 -0.025750000000000002
v 0.136954 -0.0909513 -0.025750000000000002
v 0.1366195 -0.0910806 -0.025750000000000002
v 0.13629999999999998 -0.0912434 -0.025750000000000002
v 0.13629999999999998 -0.093357 -0.025750000000000002
v 0.17179999999999998 -0.093357 -0.025750000000000002
v 0.17179999999999998 -0.158857 -0.025750000000000002
v 0.1727858 -0.15981151999999998 -0.025750000000000002
v 0.1739772 -0.16049231 -0.025750000000000002
v 0.17529999999999998 -0.160857 -0.025750000000000002
v 0.20279999999999998 -0.160857 -0.025750000000000002
v 0.20279999999999998 -0.156857 -0.025750000000000002
v 0.17529999999999998 -0.156857 -0.025750000000000002
v 0.17529999999999998 -0.093357 -0.025750000000000002
v 0.17491579999999998 -0.0923954 -0.025750000000000002
v 0.17432199999999998 -0.09154709999999999 -0.025750000000000002
vn 0 0 1
vn 0 0 1
vn 0 0 1
vn 0 0 1
vn 0 0 1
vn 0 0 1
vn 0 0 1
vn 0 0 1
vn 0 0 1
vn 0 0 1
vn 0 0 1
vn 0 0 1
vn 0 0 1
vn 0 0 1
vn 0 0 1
vn 0 0 1
vn 0 0 1
f 22//22 16//16 17//17 
f 22//22 17//17 18//18 
f 22//22 18//18 19//19 
f 12//12 13//13 14//14 
f 21//21 19//19 20//20 
f 21//21 22//22 19//19 
f 11//11 12//12 14//14 
f 10//10 11//11 14//14 
f 15//15 16//16 22//22 
f 15//15 10//10 14//14 
f 23//23 15//15 22//22 
f 24//24 15//15 23//23 
f 9//9 10//10 15//15 
f 25//25 15//15 24//24 
f 25//25 9//9 15//15 

g Face_3
v 0.17179999999999998 -0.093357 -0.027750000000000004
v 0.17179999999999998 -0.158857 -0.027750000000000004
v 0.17179999999999998 -0.158857 -0.025750000000000002
v 0.17179999999999998 -0.093357 -0.025750000000000002
vn -1 0 0
vn -1 0 0
vn -1 0 0
vn -1 0 0
f 29//29 26//26 27//27 
f 29//29 27//27 28//28 

g Face_4
v 0.17354999999999998 -0.090857 -0.027750000000000004
v 0.13729999999999998 -0.090857 -0.027750000000000004
v 0.13729999999999998 -0.090857 -0.025750000000000002
v 0.17354999999999998 -0.090857 -0.025750000000000002
vn 0 1 0
vn 0 1 0
vn 0 1 0
vn 0 1 0
f 33//33 30//30 31//31 
f 33//33 31//31 32//32 

g Face_5
v 0.17529999999999998 -0.156857 -0.027750000000000004
v 0.17529999999999998 -0.093357 -0.027750000000000004
v 0.17529999999999998 -0.093357 -0.025750000000000002
v 0.17529999999999998 -0.156857 -0.025750000000000002
vn 1 1.05135e-16 -0
vn 1 1.05135e-16 -0
vn 1 1.05135e-16 -0
vn 1 1.05135e-16 -0
f 36//36 34//34 35//35 
f 36//36 37//37 34//34 

g Face_6
v 0.13629999999999998 -0.0912434 -0.027750000000000004
v 0.13629999999999998 -0.093357 -0.027750000000000004
v 0.1366195 -0.0910806 -0.027750000000000004
v 0.136954 -0.0909513 -0.027750000000000004
v 0.13729999999999998 -0.090857 -0.027750000000000004
v 0.17354999999999998 -0.090857 -0.027750000000000004
v 0.17432199999999998 -0.09154709999999999 -0.027750000000000004
v 0.17491579999999998 -0.0923954 -0.027750000000000004
v 0.17529999999999998 -0.093357 -0.027750000000000004
v 0.17529999999999998 -0.156857 -0.027750000000000004
v 0.20079999999999998 -0.156857 -0.027750000000000004
v 0.20079999999999998 -0.160857 -0.027750000000000004
v 0.17529999999999998 -0.160857 -0.027750000000000004
v 0.1739772 -0.16049231 -0.027750000000000004
v 0.1727858 -0.15981151999999998 -0.027750000000000004
v 0.17179999999999998 -0.158857 -0.027750000000000004
v 0.17179999999999998 -0.093357 -0.027750000000000004
vn 0 0 -1
vn 0 0 -1
vn 0 0 -1
vn 0 0 -1
vn 0 0 -1
vn 0 0 -1
vn 0 0 -1
vn 0 0 -1
vn 0 0 -1
vn 0 0 -1
vn 0 0 -1
vn 0 0 -1
vn 0 0 -1
vn 0 0 -1
vn 0 0 -1
vn 0 0 -1
vn 0 0 -1
f 47//47 48//48 49//49 
f 47//47 49//49 50//50 
f 47//47 50//50 51//51 
f 47//47 51//51 52//52 
f 53//53 47//47 52//52 
f 54//54 44//44 45//45 
f 54//54 45//45 46//46 
f 54//54 46//46 47//47 
f 54//54 47//47 53//53 
f 43//43 44//44 54//54 
f 42//42 54//54 39//39 
f 42//42 43//43 54//54 
f 41//41 42//42 39//39 
f 40//40 41//41 39//39 
f 38//38 40//40 39//39 

g Face_7
v 0.13529999999999998 -0.129457 -0.026750000000000003
v 0.13629999999999998 -0.129457 -0.025750000000000002
v 0.13729999999999998 -0.129457 -0.026750000000000003
v 0.13629999999999998 -0.129457 -0.027750000000000004
v 0.13529999999999998 -0.129457 -0.026750000000000003
v 0.13529999999999998 -0.092107 -0.026750000000000003
v 0.13629999999999998 -0.0912434 -0.027750000000000004
v 0.13629999999999998 -0.093357 -0.027750000000000004
v 0.13716599999999998 -0.093357 -0.027250000000000003
v 0.13716599999999998 -0.093357 -0.026250000000000002
v 0.13629999999999998 -0.093357 -0.025750000000000002
v 0.13629999999999998 -0.0912434 -0.025750000000000002
v 0.13529999999999998 -0.092107 -0.026750000000000003
vn -1 3.55841e-16 0
vn -6.12323e-17 2.1789e-32 1
vn 1 -3.55841e-16 1.22465e-16
vn 1.83697e-16 -6.53669e-32 -1
vn -1 3.55841e-16 -2.44929e-16
vn -1 3.55841e-16 1.53143e-15
vn 1.83697e-16 -6.53669e-32 -1
vn 1.83697e-16 -6.53669e-32 -1
vn 0.866025 -3.08167e-16 -0.5
vn 0.866025 -3.08167e-16 0.5
vn -6.12323e-17 2.1789e-32 1
vn -6.12323e-17 2.1789e-32 1
vn -1 3.55841e-16 0
f 65//65 55//55 56//56 
f 65//65 67//67 55//55 
f 66//66 67//67 65//65 
f 64//64 56//56 57//57 
f 64//64 65//65 56//56 
f 63//63 57//57 58//58 
f 63//63 64//64 57//57 
f 62//62 58//58 59//59 
f 62//62 63//63 58//58 
f 60//60 61//61 62//62 
f 60//60 62//62 59//59 

g Face_8
v 0.216 -0.156857 -0.04875
v 0.20279999999999998 -0.156857 -0.04875
v 0.20279999999999998 -0.160857 -0.04875
v 0.20379999999999998 -0.160857 -0.04875
v 0.20379999999999998 -0.17435699999999998 -0.04875
v 0.20479999999999998 -0.17435699999999998 -0.04875
v 0.20379999999999998 -0.176857 -0.04875
v 0.20479999999999998 -0.176857 -0.04875
v 0.20379999999999998 -0.179357 -0.04875
v 0.20479999999999998 -0.179357 -0.04875
v 0.20379999999999998 -0.181857 -0.04875
v 0.20759999999999998 -0.181857 -0.04875
v 0.20759999999999998 -0.198357 -0.04875
v 0.2166 -0.198357 -0.04875
v 0.2166 -0.18215699999999999 -0.04875
v 0.2193 -0.18215699999999999 -0.04875
v 0.217275 -0.18115699999999998 -0.04875
v 0.2166 -0.1797237 -0.04875
v 0.2193 -0.1797237 -0.04875
v 0.217275 -0.17872369999999999 -0.04875
v 0.2166 -0.1772903 -0.04875
v 0.2193 -0.1772903 -0.04875
v 0.217275 -0.1762903 -0.04875
v 0.2166 -0.17485699999999998 -0.04875
v 0.2193 -0.17485699999999998 -0.04875
v 0.2193 -0.162157 -0.04875
v 0.21728397 -0.16108091 -0.04875
v 0.21607609 -0.15914097 -0.04875
vn 0 0 1
vn 0 0 1
vn 0 0 1
vn 0 0 1
vn 0 0 1
vn 0 0 1
vn 0 0 1
vn 0 0 1
vn 0 0 1
vn 0 0 1
vn 0 0 1
vn 0 0 1
vn 0 0 1
vn 0 0 1
vn 0 0 1
vn 0 0 1
vn 0 0 1
vn 0 0 1
vn 0 0 1
vn 0 0 1
vn 0 0 1
vn 0 0 1
vn 0 0 1
vn 0 0 1
vn 0 0 1
vn 0 0 1
vn 0 0 1
vn 0 0 1
f 79//79 77//77 78//78 
f 75//75 76//76 77//77 
f 75//75 77//77 79//79 
f 73//73 74//74 75//75 
f 82//82 79//79 80//80 
f 82//82 80//80 81//81 
f 85//85 82//82 84//84 
f 85//85 79//79 82//82 
f 83//83 84//84 82//82 
f 88//88 75//75 79//79 
f 88//88 85//85 87//87 
f 88//88 79//79 85//85 
f 86//86 87//87 85//85 
f 91//91 73//73 75//75 
f 91//91 75//75 88//88 
f 91//91 88//88 90//90 
f 89//89 90//90 88//88 
f 71//71 72//72 73//73 
f 69//69 70//70 71//71 
f 94//94 73//73 91//91 
f 94//94 71//71 73//73 
f 95//95 71//71 94//94 
f 93//93 91//91 92//92 
f 93//93 94//94 91//91 
f 68//68 69//69 71//71 
f 68//68 71//71 95//95 

g Face_9
v 0.20379999999999998 -0.17435699999999998 -0.051250000000000004
v 0.20379999999999998 -0.17435699999999998 -0.04875
v 0.20379999999999998 -0.160857 -0.051250000000000004
v 0.20379999999999998 -0.160857 -0.04875
vn -1 1.25402e-16 -0
vn -1 1.25402e-16 -0
vn -1 1.25402e-16 -0
vn -1 1.25402e-16 -0
f 99//99 96//96 97//97 
f 99//99 98//98 96//96 

g Face_10
v 0.20759999999999998 -0.198357 -0.051250000000000004
v 0.2166 -0.198357 -0.051250000000000004
v 0.20759999999999998 -0.198357 -0.04875
v 0.2166 -0.198357 -0.04875
v 0.21155 -0.198357 -0.051000000000000004
v 0.21241602499999998 -0.198357 -0.0495
v 0.210683975 -0.198357 -0.0495
vn -0 -1 -0
vn -0 -1 -0
vn -0 -1 -0
vn -0 -1 -0
vn -0 -1 -0
vn -0 -1 -0
vn -0 -1 -0
f 106//106 102//102 100//100 
f 106//106 100//100 104//104 
f 101//101 105//105 104//104 
f 103//103 105//105 101//101 
f 101//101 104//104 100//100 
f 102//102 106//106 103//103 
f 106//106 105//105 103//103 

g Face_11
v 0.2193 -0.17485699999999998 -0.051250000000000004
v 0.2193 -0.162157 -0.051250000000000004
v 0.2193 -0.17485699999999998 -0.04875
v 0.2193 -0.162157 -0.04875
vn 1 1.25402e-16 -0
vn 1 1.25402e-16 -0
vn 1 1.25402e-16 -0
vn 1 1.25402e-16 -0
f 109//109 107//107 108//108 
f 109//109 108//108 110//110 

g Face_12
v 0.216 -0.156857 -0.051250000000000004
v 0.20079999999999998 -0.156857 -0.051250000000000004
v 0.216 -0.156857 -0.04875
v 0.20279999999999998 -0.156857 -0.04875
v 0.20279999999999998 -0.156857 -0.025750000000000002
v 0.17529999999999998 -0.156857 -0.025750000000000002
v 0.17529999999999998 -0.156857 -0.027750000000000004
v 0.20079999999999998 -0.156857 -0.027750000000000004
v 0.21155 -0.156857 -0.049
v 0.21241602499999998 -0.156857 -0.0505
v 0.210683975 -0.156857 -0.0505
vn -0 1 -0
vn -0 1 -0
vn -0 1 -0
vn -0 1 -0
vn -0 1 -0
vn -0 1 -0
vn -0 1 -0
vn -0 1 -0
vn -0 1 -0
vn -0 1 -0
vn -0 1 -0
f 118//118 117//117 116//116 
f 115//115 118//118 116//116 
f 112//112 118//118 114//114 
f 121//121 112//112 114//114 
f 121//121 114//114 119//119 
f 113//113 120//120 119//119 
f 111//111 121//121 120//120 
f 111//111 112//112 121//121 
f 111//111 120//120 113//113 
f 113//113 119//119 114//114 
f 114//114 118//118 115//115 

g Face_13
v 0.20379999999999998 -0.160857 -0.051250000000000004
v 0.20079999999999998 -0.160857 -0.051250000000000004
v 0.20379999999999998 -0.17435699999999998 -0.051250000000000004
v 0.20479999999999998 -0.17435699999999998 -0.051250000000000004
v 0.20379999999999998 -0.176857 -0.051250000000000004
v 0.20479999999999998 -0.176857 -0.051250000000000004
v 0.20379999999999998 -0.179357 -0.051250000000000004
v 0.20479999999999998 -0.179357 -0.051250000000000004
v 0.20379999999999998 -0.181857 -0.051250000000000004
v 0.20759999999999998 -0.181857 -0.051250000000000004
v 0.20759999999999998 -0.198357 -0.051250000000000004
v 0.2166 -0.198357 -0.051250000000000004
v 0.2166 -0.18215699999999999 -0.051250000000000004
v 0.2193 -0.18215699999999999 -0.051250000000000004
v 0.217275 -0.18115699999999998 -0.051250000000000004
v 0.2166 -0.1797237 -0.051250000000000004
v 0.2193 -0.1797237 -0.051250000000000004
v 0.217275 -0.17872369999999999 -0.051250000000000004
v 0.2166 -0.1772903 -0.051250000000000004
v 0.2193 -0.1772903 -0.051250000000000004
v 0.217275 -0.1762903 -0.051250000000000004
v 0.2166 -0.17485699999999998 -0.051250000000000004
v 0.2193 -0.17485699999999998 -0.051250000000000004
v 0.2193 -0.162157 -0.051250000000000004
v 0.21728397 -0.16108091 -0.051250000000000004
v 0.21607609 -0.15914097 -0.051250000000000004
v 0.216 -0.156857 -0.051250000000000004
v 0.20079999999999998 -0.156857 -0.051250000000000004
vn -0 -0 -1
vn -0 -0 -1
vn -0 -0 -1
vn -0 -0 -1
vn -0 -0 -1
vn -0 -0 -1
vn -0 -0 -1
vn -0 -0 -1
vn -0 -0 -1
vn -0 -0 -1
vn -0 -0 -1
vn -0 -0 -1
vn -0 -0 -1
vn -0 -0 -1
vn -0 -0 -1
vn -0 -0 -1
vn -0 -0 -1
vn -0 -0 -1
vn -0 -0 -1
vn -0 -0 -1
vn -0 -0 -1
vn -0 -0 -1
vn -0 -0 -1
vn -0 -0 -1
vn -0 -0 -1
vn -0 -0 -1
vn -0 -0 -1
vn -0 -0 -1
f 131//131 130//130 129//129 
f 127//127 129//129 128//128 
f 127//127 131//131 129//129 
f 125//125 127//127 126//126 
f 134//134 132//132 131//131 
f 134//134 133//133 132//132 
f 137//137 136//136 134//134 
f 137//137 134//134 131//131 
f 135//135 134//134 136//136 
f 140//140 131//131 127//127 
f 140//140 137//137 131//131 
f 140//140 139//139 137//137 
f 138//138 137//137 139//139 
f 143//143 127//127 125//125 
f 143//143 140//140 127//127 
f 143//143 142//142 140//140 
f 141//141 140//140 142//142 
f 122//122 125//125 124//124 
f 149//149 122//122 123//123 
f 146//146 143//143 125//125 
f 146//146 125//125 122//122 
f 147//147 146//146 122//122 
f 145//145 144//144 143//143 
f 145//145 143//143 146//146 
f 148//148 122//122 149//149 
f 148//148 147//147 122//122 

g Face_14
v 0.20379999999999998 -0.17435699999999998 -0.04875
v 0.20479999999999998 -0.17435699999999998 -0.04875
v 0.20379999999999998 -0.17435699999999998 -0.051250000000000004
v 0.20479999999999998 -0.17435699999999998 -0.051250000000000004
vn 0 -1 0
vn 0 -1 0
vn 0 -1 0
vn 0 -1 0
f 153//153 151//151 150//150 
f 153//153 150//150 152//152 

g Face_15
v 0.20479999999999998 -0.17435699999999998 -0.04875
v 0.20379999999999998 -0.176857 -0.04875
v 0.20479999999999998 -0.17435699999999998 -0.051250000000000004
v 0.20379999999999998 -0.176857 -0.051250000000000004
vn -0.928477 0.371391 0
vn -0.928477 0.371391 0
vn -0.928477 0.371391 0
vn -0.928477 0.371391 0
f 155//155 154//154 156//156 
f 155//155 156//156 157//157 

g Face_16
v 0.20379999999999998 -0.176857 -0.04875
v 0.20479999999999998 -0.176857 -0.04875
v 0.20379999999999998 -0.176857 -0.051250000000000004
v 0.20479999999999998 -0.176857 -0.051250000000000004
vn 0 -1 0
vn 0 -1 0
vn 0 -1 0
vn 0 -1 0
f 161//161 159//159 158//158 
f 161//161 158//158 160//160 

g Face_17
v 0.20479999999999998 -0.176857 -0.04875
v 0.20379999999999998 -0.179357 -0.04875
v 0.20479999999999998 -0.176857 -0.051250000000000004
v 0.20379999999999998 -0.179357 -0.051250000000000004
vn -0.928477 0.371391 0
vn -0.928477 0.371391 0
vn -0.928477 0.371391 0
vn -0.928477 0.371391 0
f 163//163 162//162 164//164 
f 163//163 164//164 165//165 

g Face_18
v 0.20379999999999998 -0.179357 -0.04875
v 0.20479999999999998 -0.179357 -0.04875
v 0.20379999999999998 -0.179357 -0.051250000000000004
v 0.20479999999999998 -0.179357 -0.051250000000000004
vn 0 -1 0
vn 0 -1 0
vn 0 -1 0
vn 0 -1 0
f 169//169 167//167 166//166 
f 169//169 166//166 168//168 

g Face_19
v 0.20479999999999998 -0.179357 -0.04875
v 0.20379999999999998 -0.181857 -0.04875
v 0.20479999999999998 -0.179357 -0.051250000000000004
v 0.20379999999999998 -0.181857 -0.051250000000000004
vn -0.928477 0.371391 0
vn -0.928477 0.371391 0
vn -0.928477 0.371391 0
vn -0.928477 0.371391 0
f 171//171 170//170 172//172 
f 171//171 172//172 173//173 

g Face_20
v 0.20379999999999998 -0.181857 -0.04875
v 0.20759999999999998 -0.181857 -0.04875
v 0.20379999999999998 -0.181857 -0.051250000000000004
v 0.20759999999999998 -0.181857 -0.051250000000000004
vn 0 -1 0
vn 0 -1 0
vn 0 -1 0
vn 0 -1 0
f 177//177 175//175 174//174 
f 177//177 174//174 176//176 

g Face_21
v 0.20759999999999998 -0.181857 -0.04875
v 0.20759999999999998 -0.198357 -0.04875
v 0.20759999999999998 -0.181857 -0.051250000000000004
v 0.20759999999999998 -0.198357 -0.051250000000000004
vn -1 -1.05135e-16 0
vn -1 -1.05135e-16 0
vn -1 -1.05135e-16 0
vn -1 -1.05135e-16 0
f 179//179 178//178 180//180 
f 179//179 180//180 181//181 

g Face_22
v 0.2166 -0.198357 -0.04875
v 0.2166 -0.18215699999999999 -0.04875
v 0.2166 -0.198357 -0.051250000000000004
v 0.2166 -0.18215699999999999 -0.051250000000000004
vn 1 -0 0
vn 1 -0 0
vn 1 -0 0
vn 1 -0 0
f 185//185 183//183 182//182 
f 185//185 182//182 184//184 

g Face_23
v 0.2166 -0.18215699999999999 -0.04875
v 0.2193 -0.18215699999999999 -0.04875
v 0.2166 -0.18215699999999999 -0.051250000000000004
v 0.2193 -0.18215699999999999 -0.051250000000000004
vn 0 -1 0
vn 0 -1 0
vn 0 -1 0
vn 0 -1 0
f 189//189 187//187 186//186 
f 189//189 186//186 188//188 

g Face_24
v 0.2193 -0.18215699999999999 -0.04875
v 0.217275 -0.18115699999999998 -0.04875
v 0.2166 -0.1797237 -0.04875
v 0.2193 -0.18215699999999999 -0.051250000000000004
v 0.217275 -0.18115699999999998 -0.051250000000000004
v 0.2166 -0.1797237 -0.051250000000000004
vn 0.278634 0.960397 -0
vn 0.669471 0.742838 -0
vn 1 -2.62837e-16 0
vn 0.278634 0.960397 -0
vn 0.669471 0.742838 -0
vn 1 -2.62837e-16 0
f 191//191 190//190 193//193 
f 191//191 193//193 194//194 
f 192//192 194//194 195//195 
f 192//192 191//191 194//194 

g Face_25
v 0.2166 -0.1797237 -0.04875
v 0.2193 -0.1797237 -0.04875
v 0.2166 -0.1797237 -0.051250000000000004
v 0.2193 -0.1797237 -0.051250000000000004
vn 1.28498e-15 -1 0
vn 1.28498e-15 -1 0
vn 1.28498e-15 -1 0
vn 1.28498e-15 -1 0
f 197//197 196//196 198//198 
f 197//197 198//198 199//199 

g Face_26
v 0.2193 -0.1797237 -0.04875
v 0.217275 -0.17872369999999999 -0.04875
v 0.2166 -0.1772903 -0.04875
v 0.2193 -0.1797237 -0.051250000000000004
v 0.217275 -0.17872369999999999 -0.051250000000000004
v 0.2166 -0.1772903 -0.051250000000000004
vn 0.278634 0.960397 -0
vn 0.669471 0.742838 -0
vn 1 0 0
vn 0.278634 0.960397 -0
vn 0.669471 0.742838 -0
vn 1 0 0
f 201//201 200//200 203//203 
f 201//201 203//203 204//204 
f 202//202 204//204 205//205 
f 202//202 201//201 204//204 

g Face_27
v 0.2166 -0.1772903 -0.04875
v 0.2193 -0.1772903 -0.04875
v 0.2166 -0.1772903 -0.051250000000000004
v 0.2193 -0.1772903 -0.051250000000000004
vn 0 -1 0
vn 0 -1 0
vn 0 -1 0
vn 0 -1 0
f 209//209 207//207 206//206 
f 209//209 206//206 208//208 

g Face_28
v 0.2193 -0.1772903 -0.04875
v 0.217275 -0.1762903 -0.04875
v 0.2166 -0.17485699999999998 -0.04875
v 0.2193 -0.1772903 -0.051250000000000004
v 0.217275 -0.1762903 -0.051250000000000004
v 0.2166 -0.17485699999999998 -0.051250000000000004
vn 0.278634 0.960397 -0
vn 0.669471 0.742838 -0
vn 1 0 0
vn 0.278634 0.960397 -0
vn 0.669471 0.742838 -0
vn 1 0 0
f 211//211 210//210 213//213 
f 211//211 213//213 214//214 
f 212//212 214//214 215//215 
f 212//212 211//211 214//214 

g Face_29
v 0.2166 -0.17485699999999998 -0.04875
v 0.2193 -0.17485699999999998 -0.04875
v 0.2166 -0.17485699999999998 -0.051250000000000004
v 0.2193 -0.17485699999999998 -0.051250000000000004
vn 0 -1 0
vn 0 -1 0
vn 0 -1 0
vn 0 -1 0
f 219//219 217//217 216//216 
f 219//219 216//216 218//218 

g Face_30
v 0.216 -0.156857 -0.051250000000000004
v 0.216 -0.156857 -0.04875
v 0.2193 -0.162157 -0.051250000000000004
v 0.21728397 -0.16108091 -0.051250000000000004
v 0.21607609 -0.15914097 -0.051250000000000004
v 0.2193 -0.162157 -0.04875
v 0.21728397 -0.16108091 -0.04875
v 0.21607609 -0.15914097 -0.04875
vn 0.974008 -0.226513 -0
vn 0.974008 -0.226513 -0
vn 0.226513 0.974008 -0
vn 0.68317 0.730259 -0
vn 0.956772 0.290838 -0
vn 0.226513 0.974008 -0
vn 0.68317 0.730259 -0
vn 0.956772 0.290838 -0
f 227//227 220//220 221//221 
f 227//227 224//224 220//220 
f 226//226 223//223 224//224 
f 226//226 224//224 227//227 
f 225//225 222//222 223//223 
f 225//225 223//223 226//226 

g Face_31
v 0.20079999999999998 -0.156857 -0.027750000000000004
v 0.20079999999999998 -0.160857 -0.027750000000000004
v 0.20079999999999998 -0.156857 -0.051250000000000004
v 0.20079999999999998 -0.160857 -0.051250000000000004
vn -1 0 0
vn -1 0 0
vn -1 0 0
vn -1 0 0
f 228//228 230//230 231//231 
f 228//228 231//231 229//229 

g Face_32
v 0.20279999999999998 -0.160857 -0.025750000000000002
v 0.20279999999999998 -0.160857 -0.04875
v 0.20279999999999998 -0.156857 -0.025750000000000002
v 0.20279999999999998 -0.156857 -0.04875
vn 1 -0 -0
vn 1 -0 -0
vn 1 -0 -0
vn 1 -0 -0
f 234//234 232//232 233//233 
f 234//234 233//233 235//235 

g Face_33
v 0.13629999999999998 -0.093357 -0.027750000000000004
v 0.13716599999999998 -0.093357 -0.027250000000000003
v 0.13716599999999998 -0.093357 -0.026250000000000002
v 0.13629999999999998 -0.093357 -0.025750000000000002
v 0.17179999999999998 -0.093357 -0.027750000000000004
v 0.17179999999999998 -0.093357 -0.025750000000000002
vn 0 -1 0
vn 0 -1 0
vn 0 -1 0
vn 0 -1 0
vn 0 -1 0
vn 0 -1 0
f 240//240 238//238 237//237 
f 240//240 241//241 238//238 
f 236//236 240//240 237//237 
f 241//241 239//239 238//238 

g Face_34
v 0.13529999999999998 -0.129457 -0.026750000000000003
v 0.13629999999999998 -0.129457 -0.025750000000000002
v 0.13729999999999998 -0.129457 -0.026750000000000003
v 0.13629999999999998 -0.129457 -0.027750000000000004
vn -3.55841e-16 -1 0
vn -3.55841e-16 -1 0
vn -3.55841e-16 -1 0
vn -3.55841e-16 -1 0
f 243//243 245//245 244//244 
f 243//243 242//242 245//245 

g Face_35
v 0.13629999999999998 -0.0912434 -0.027750000000000004
v 0.1366195 -0.0910806 -0.027750000000000004
v 0.136954 -0.0909513 -0.027750000000000004
v 0.13729999999999998 -0.090857 -0.027750000000000004
v 0.13529999999999998 -0.092107 -0.026750000000000003
v 0.13629999999999998 -0.0912434 -0.025750000000000002
v 0.13729999999999998 -0.090857 -0.025750000000000002
v 0.136954 -0.0909513 -0.025750000000000002
v 0.1366195 -0.0910806 -0.025750000000000002
vn -0.49901 0.866596 0
vn -0.407718 0.913108 0
vn -0.312145 0.950034 0
vn -0.213296 0.976988 0
vn -0.784724 0.619845 0
vn -0.49901 0.866596 0
vn -0.213296 0.976988 0
vn -0.312145 0.950034 0
vn -0.407718 0.913108 0
f 250//250 247//247 246//246 
f 250//250 248//248 247//247 
f 250//250 249//249 248//248 
f 252//252 249//249 250//250 
f 253//253 252//252 250//250 
f 254//254 253//253 250//250 
f 251//251 254//254 250//250 

g Face_36
v 0.17529999999999998 -0.160857 -0.027750000000000004
v 0.17529999999999998 -0.160857 -0.025750000000000002
v 0.17179999999999998 -0.158857 -0.025750000000000002
v 0.1727858 -0.15981151999999998 -0.025750000000000002
v 0.1739772 -0.16049231 -0.025750000000000002
v 0.17179999999999998 -0.158857 -0.027750000000000004
v 0.1739772 -0.16049231 -0.027750000000000004
v 0.1727858 -0.15981151999999998 -0.027750000000000004
vn -0.143441 -0.989659 0
vn -0.143441 -0.989659 0
vn -0.779805 -0.626022 0
vn -0.600571 -0.799571 0
vn -0.383956 -0.923351 0
vn -0.779805 -0.626022 0
vn -0.383956 -0.923351 0
vn -0.600571 -0.799571 0
f 258//258 257//257 260//260 
f 258//258 260//260 262//262 
f 259//259 262//262 261//261 
f 259//259 258//258 262//262 
f 256//256 261//261 255//255 
f 256//256 259//259 261//261 

g Face_37
v 0.17354999999999998 -0.090857 -0.027750000000000004
v 0.17354999999999998 -0.090857 -0.025750000000000002
v 0.17529999999999998 -0.093357 -0.025750000000000002
v 0.17491579999999998 -0.0923954 -0.025750000000000002
v 0.17432199999999998 -0.09154709999999999 -0.025750000000000002
v 0.17529999999999998 -0.093357 -0.027750000000000004
v 0.17432199999999998 -0.09154709999999999 -0.027750000000000004
v 0.17491579999999998 -0.0923954 -0.027750000000000004
vn 0.576257 0.817269 -0
vn 0.576257 0.817269 -0
vn 0.965146 0.261713 -0
vn 0.879771 0.475398 -0
vn 0.747812 0.66391 -0
vn 0.965146 0.261713 -0
vn 0.747812 0.66391 -0
vn 0.879771 0.475398 -0
f 266//266 265//265 268//268 
f 266//266 268//268 270//270 
f 267//267 270//270 269//269 
f 267//267 266//266 270//270 
f 264//264 269//269 263//263 
f 264//264 267//267 269//269 

g Face_38
v 0.21155 -0.161857 -0.049
v 0.21241602499999998 -0.161857 -0.0505
v 0.210683975 -0.161857 -0.0505
v 0.210683975 -0.161857 -0.0495
v 0.21155 -0.161857 -0.049
v 0.21155 -0.156857 -0.049
v 0.21155 -0.156857 -0.049
v 0.21241602499999998 -0.156857 -0.0505
v 0.210683975 -0.156857 -0.0505
v 0.210683975 -0.156857 -0.0495
vn -0 -0 -1
vn -0.866025 -0 0.5
vn 0.866025 -0 0.5
vn 0.866025 -0 -0.5
vn 2.44929e-16 -0 -1
vn 2.44929e-16 -0 -1
vn -0 -0 -1
vn -0.866025 -0 0.5
vn 0.866025 -0 0.5
vn 0.866025 -0 -0.5
f 278//278 272//272 271//271 
f 278//278 271//271 277//277 
f 279//279 273//273 272//272 
f 279//279 272//272 278//278 
f 280//280 274//274 273//273 
f 280//280 273//273 279//279 
f 276//276 275//275 274//274 
f 276//276 274//274 280//280 

g Face_39
v 0.21155 -0.161857 -0.049
v 0.21241602499999998 -0.161857 -0.0505
v 0.210683975 -0.161857 -0.0505
vn 0 1 0
vn 0 1 0
vn 0 1 0
f 281//281 282//282 283//283 

g Face_40
v 0.21155 -0.193857 -0.051000000000000004
v 0.21241602499999998 -0.193857 -0.0495
v 0.210683975 -0.193857 -0.0495
v 0.210683975 -0.193857 -0.0505
v 0.21155 -0.193857 -0.051000000000000004
v 0.21155 -0.198357 -0.051000000000000004
v 0.21155 -0.198357 -0.051000000000000004
v 0.21241602499999998 -0.198357 -0.0495
v 0.210683975 -0.198357 -0.0495
v 0.210683975 -0.198357 -0.0505
vn -0 -0 1
vn -0.866025 0 -0.5
vn 0.866025 -0 -0.5
vn 0.866025 -0 0.5
vn 2.44929e-16 -0 1
vn 2.44929e-16 -0 1
vn -0 -0 1
vn -0.866025 0 -0.5
vn 0.866025 -0 -0.5
vn 0.866025 -0 0.5
f 291//291 285//285 284//284 
f 291//291 284//284 290//290 
f 292//292 286//286 285//285 
f 292//292 285//285 291//291 
f 293//293 287//287 286//286 
f 293//293 286//286 292//292 
f 289//289 288//288 287//287 
f 289//289 287//287 293//293 

g Face_41
v 0.21155 -0.193857 -0.051000000000000004
v 0.21241602499999998 -0.193857 -0.0495
v 0.210683975 -0.193857 -0.0495
vn 0 -1 0
vn 0 -1 0
vn 0 -1 0
f 294//294 295//295 296//296 

