mtllib Cylindre_barillet_Heures.mtl
usemtl Cylindre_barillet_Heures
#Wavefront export of shape 1-32-3--Cylindre_barillet_Heures

g Face_1
v 0.07135214799999999 -0.2603342005000001 -0.1012
v 0.07054746188825 -0.2521403395319001 -0.10120000000000001
v 0.0662673691315 -0.2451070505746001 -0.10120000000000001
v 0.05935942127571999 -0.24062735412912012 -0.10120000000000001
v 0.051191941649479995 -0.2395885364916801 -0.10120000000000001
v 0.04338253817789999 -0.24219634040300012 -0.10120000000000001
v 0.03747808160185 -0.24793426163850013 -0.10120000000000001
v 0.03464785199999999 -0.2556657995000001 -0.1012
v 0.03545253811174999 -0.2638596604681001 -0.10119999999999998
v 0.03973263086849999 -0.2708929494254001 -0.10119999999999998
v 0.04664057872427999 -0.2753726458708801 -0.10119999999999998
v 0.05480805835051999 -0.2764114635083201 -0.10119999999999998
v 0.0626174618221 -0.27380365959700015 -0.10119999999999998
v 0.06852191839814999 -0.2680657383615001 -0.10119999999999998
v 0.07135214799999999 -0.2603342005000001 -0.1012
v 0.07135214799999999 -0.26033420050000006 -0.0532
v 0.07135214799999999 -0.26033420050000006 -0.0532
v 0.07054746188825 -0.25214033953190007 -0.05320000000000001
v 0.0662673691315 -0.24510705057460005 -0.05320000000000001
v 0.05935942127572 -0.24062735412912006 -0.05320000000000001
v 0.051191941649479995 -0.23958853649168005 -0.05320000000000001
v 0.04338253817789999 -0.24219634040300006 -0.05320000000000001
v 0.03747808160185 -0.24793426163850008 -0.05320000000000001
v 0.03464785199999999 -0.25566579950000007 -0.0532
v 0.03545253811174999 -0.26385966046810005 -0.05319999999999998
v 0.03973263086849999 -0.2708929494254001 -0.05319999999999998
v 0.04664057872427999 -0.27537264587088006 -0.05319999999999998
v 0.054808058350519995 -0.27641146350832 -0.05319999999999998
v 0.0626174618221 -0.2738036595970001 -0.05319999999999998
v 0.06852191839814999 -0.26806573836150005 -0.05319999999999998
v 0.05533420049999999 -0.23964785200000005 -0.05920000000000001
v 0.057669469396539996 -0.24009900542389007 -0.057485000000000015
v 0.05680375979223999 -0.23989524786219008 -0.05469180000000001
v 0.05385896324446 -0.23951999502706006 -0.05468480000000001
v 0.05295780026791999 -0.2395000330072201 -0.05747720000000001
vn -1 1.00953e-31 -3.69779e-32
vn -0.900969 -0.433884 -3.33159e-32
vn -0.62349 -0.781831 -2.30553e-32
vn -0.222521 -0.974928 -8.22835e-33
vn 0.222521 -0.974928 8.22835e-33
vn 0.62349 -0.781831 2.30553e-32
vn 0.900969 -0.433884 3.33159e-32
vn 1 -1.22465e-16 3.69779e-32
vn 0.900969 0.433884 3.33159e-32
vn 0.62349 0.781831 2.30553e-32
vn 0.222521 0.974928 8.22835e-33
vn -0.222521 0.974928 -8.22835e-33
vn -0.62349 0.781831 -2.30553e-32
vn -0.900969 0.433884 -3.33159e-32
vn -1 2.44929e-16 -3.69779e-32
vn -1 2.44929e-16 -3.69779e-32
vn -1 1.00953e-31 -3.69779e-32
vn -0.900969 -0.433884 -3.33159e-32
vn -0.62349 -0.781831 -2.30553e-32
vn -0.222521 -0.974928 -8.22835e-33
vn 0.222521 -0.974928 8.22835e-33
vn 0.62349 -0.781831 2.30553e-32
vn 0.900969 -0.433884 3.33159e-32
vn 1 -1.22465e-16 3.69779e-32
vn 0.900969 0.433884 3.33159e-32
vn 0.62349 0.781831 2.30553e-32
vn 0.222521 0.974928 8.22835e-33
vn -0.222521 0.974928 -8.22835e-33
vn -0.62349 0.781831 -2.30553e-32
vn -0.900969 0.433884 -3.33159e-32
vn -6.12323e-17 -1 -2.26424e-48
vn -0.128299 -0.991736 -4.74421e-33
vn -0.0804878 -0.996756 -2.97626e-33
vn 0.0799777 -0.996797 2.9574e-33
vn 0.128436 -0.991718 4.74927e-33
f 18//18 2//2 1//1 
f 18//18 1//1 17//17 
f 19//19 3//3 2//2 
f 19//19 2//2 18//18 
f 20//20 4//4 3//3 
f 20//20 3//3 19//19 
f 32//32 4//4 20//20 
f 33//33 32//32 20//20 
f 31//31 5//5 4//4 
f 31//31 4//4 32//32 
f 34//34 33//33 20//20 
f 35//35 5//5 31//31 
f 21//21 35//35 34//34 
f 21//21 5//5 35//35 
f 21//21 34//34 20//20 
f 22//22 6//6 5//5 
f 22//22 5//5 21//21 
f 23//23 7//7 6//6 
f 23//23 6//6 22//22 
f 24//24 8//8 7//7 
f 24//24 7//7 23//23 
f 25//25 9//9 8//8 
f 25//25 8//8 24//24 
f 26//26 10//10 9//9 
f 26//26 9//9 25//25 
f 27//27 11//11 10//10 
f 27//27 10//10 26//26 
f 28//28 12//12 11//11 
f 28//28 11//11 27//27 
f 29//29 13//13 12//12 
f 29//29 12//12 28//28 
f 30//30 14//14 13//13 
f 30//30 13//13 29//29 
f 16//16 14//14 30//30 
f 16//16 15//15 14//14 

g Face_2
v 0.071848152 -0.2603972870000001 -0.0532
v 0.07102173346287 -0.25198197425288005 -0.05320000000000001
v 0.06662589905079999 -0.24475860277150008 -0.05320000000000001
v 0.05953128880599999 -0.24015788743790006 -0.05320000000000001
v 0.05114306755959999 -0.23909099378450005 -0.05320000000000001
v 0.043122650309999996 -0.24176923635170008 -0.05320000000000001
v 0.03705855396847 -0.24766221448648007 -0.05320000000000001
v 0.034151848 -0.2556027130000001 -0.0532
v 0.034978266537129994 -0.2640180257471201 -0.05319999999999998
v 0.03937410094919999 -0.2712413972285001 -0.05319999999999998
v 0.04646871119399999 -0.27584211256210006 -0.05319999999999998
v 0.05485693244039999 -0.2769090062155 -0.05319999999999998
v 0.06287734968999999 -0.27423076364830007 -0.05319999999999998
v 0.06894144603152999 -0.26833778551352006 -0.05319999999999998
v 0.071848152 -0.2603972870000001 -0.0532
v 0.071848152 -0.26039728700000014 -0.1012
v 0.07102173346287 -0.2519819742528801 -0.10120000000000001
v 0.06662589905079999 -0.24475860277150013 -0.10120000000000001
v 0.05953128880599999 -0.24015788743790012 -0.10120000000000001
v 0.05114306755959999 -0.2390909937845001 -0.10120000000000001
v 0.043122650309999996 -0.2417692363517001 -0.10120000000000001
v 0.03705855396846999 -0.24766221448648013 -0.10120000000000001
v 0.03415184799999999 -0.2556027130000001 -0.1012
v 0.03497826653712999 -0.26401802574712013 -0.10119999999999998
v 0.03937410094919999 -0.27124139722850016 -0.10119999999999998
v 0.04646871119399999 -0.2758421125621001 -0.10119999999999998
v 0.05485693244039999 -0.2769090062155001 -0.10119999999999998
v 0.06287734968999999 -0.2742307636483001 -0.10119999999999998
v 0.06894144603152999 -0.2683377855135201 -0.10119999999999998
v 0.071848152 -0.26039728700000014 -0.1012
v 0.05539728699999999 -0.23915184800000006 -0.05920000000000001
v 0.053023641489659996 -0.23900004473861008 -0.05748410000000001
v 0.05391430929401999 -0.23902199846717007 -0.05469070000000001
v 0.05685929692971999 -0.23939606593962007 -0.05468600000000001
v 0.05773525745186 -0.23959951442101007 -0.05747810000000001
vn 1 -1.00953e-31 3.69779e-32
vn 0.900969 0.433884 3.33159e-32
vn 0.62349 0.781831 2.30553e-32
vn 0.222521 0.974928 8.22835e-33
vn -0.222521 0.974928 -8.22835e-33
vn -0.62349 0.781831 -2.30553e-32
vn -0.900969 0.433884 -3.33159e-32
vn -1 1.22465e-16 -3.69779e-32
vn -0.900969 -0.433884 -3.33159e-32
vn -0.62349 -0.781831 -2.30553e-32
vn -0.222521 -0.974928 -8.22835e-33
vn 0.222521 -0.974928 8.22835e-33
vn 0.62349 -0.781831 2.30553e-32
vn 0.900969 -0.433884 3.33159e-32
vn 1 -2.44929e-16 3.69779e-32
vn 1 -1.00953e-31 3.69779e-32
vn 0.900969 0.433884 3.33159e-32
vn 0.62349 0.781831 2.30553e-32
vn 0.222521 0.974928 8.22835e-33
vn -0.222521 0.974928 -8.22835e-33
vn -0.62349 0.781831 -2.30553e-32
vn -0.900969 0.433884 -3.33159e-32
vn -1 1.22465e-16 -3.69779e-32
vn -0.900969 -0.433884 -3.33159e-32
vn -0.62349 -0.781831 -2.30553e-32
vn -0.222521 -0.974928 -8.22835e-33
vn 0.222521 -0.974928 8.22835e-33
vn 0.62349 -0.781831 2.30553e-32
vn 0.900969 -0.433884 3.33159e-32
vn 1 -2.44929e-16 3.69779e-32
vn 6.12323e-17 1 2.26424e-48
vn -0.124939 0.992164 -4.61996e-33
vn -0.0782898 0.996931 -2.89499e-33
vn 0.0779551 0.996957 2.88261e-33
vn 0.12504 0.992152 4.62372e-33
f 37//37 36//36 51//51 
f 37//37 51//51 52//52 
f 38//38 52//52 53//53 
f 38//38 37//37 52//52 
f 39//39 53//53 54//54 
f 39//39 38//38 53//53 
f 70//70 39//39 54//54 
f 69//69 39//39 70//70 
f 66//66 54//54 55//55 
f 66//66 70//70 54//54 
f 67//67 66//66 55//55 
f 40//40 68//68 67//67 
f 40//40 69//69 68//68 
f 40//40 39//39 69//69 
f 40//40 67//67 55//55 
f 41//41 55//55 56//56 
f 41//41 40//40 55//55 
f 42//42 56//56 57//57 
f 42//42 41//41 56//56 
f 43//43 57//57 58//58 
f 43//43 42//42 57//57 
f 44//44 58//58 59//59 
f 44//44 43//43 58//58 
f 45//45 59//59 60//60 
f 45//45 44//44 59//59 
f 46//46 60//60 61//61 
f 46//46 45//45 60//60 
f 47//47 61//61 62//62 
f 47//47 46//46 61//61 
f 48//48 62//62 63//63 
f 48//48 47//47 62//62 
f 49//49 63//63 64//64 
f 49//49 48//48 63//63 
f 50//50 49//49 64//64 
f 50//50 64//64 65//65 

g Face_3
v 0.071848152 -0.26039728700000014 -0.1012
v 0.07102173346287 -0.2519819742528801 -0.10120000000000001
v 0.06662589905079999 -0.24475860277150013 -0.10120000000000001
v 0.05953128880599999 -0.24015788743790012 -0.10120000000000001
v 0.05114306755959999 -0.2390909937845001 -0.10120000000000001
v 0.043122650309999996 -0.2417692363517001 -0.10120000000000001
v 0.03705855396846999 -0.24766221448648013 -0.10120000000000001
v 0.03415184799999999 -0.2556027130000001 -0.1012
v 0.03497826653712999 -0.26401802574712013 -0.10119999999999998
v 0.03937410094919999 -0.27124139722850016 -0.10119999999999998
v 0.04646871119399999 -0.2758421125621001 -0.10119999999999998
v 0.05485693244039999 -0.2769090062155001 -0.10119999999999998
v 0.06287734968999999 -0.2742307636483001 -0.10119999999999998
v 0.06894144603152999 -0.2683377855135201 -0.10119999999999998
v 0.07135214799999999 -0.2603342005000001 -0.1012
v 0.07054746188825 -0.2521403395319001 -0.10120000000000001
v 0.0662673691315 -0.2451070505746001 -0.10120000000000001
v 0.05935942127571999 -0.24062735412912012 -0.10120000000000001
v 0.051191941649479995 -0.2395885364916801 -0.10120000000000001
v 0.04338253817789999 -0.24219634040300012 -0.10120000000000001
v 0.03747808160185 -0.24793426163850013 -0.10120000000000001
v 0.03464785199999999 -0.2556657995000001 -0.1012
v 0.03545253811174999 -0.2638596604681001 -0.10119999999999998
v 0.03973263086849999 -0.2708929494254001 -0.10119999999999998
v 0.04664057872427999 -0.2753726458708801 -0.10119999999999998
v 0.05480805835051999 -0.2764114635083201 -0.10119999999999998
v 0.0626174618221 -0.27380365959700015 -0.10119999999999998
v 0.06852191839814999 -0.2680657383615001 -0.10119999999999998
vn 3.69779e-32 -0 -1
vn 3.69779e-32 -0 -1
vn 3.69779e-32 -0 -1
vn 3.69779e-32 -0 -1
vn 3.69779e-32 -0 -1
vn 3.69779e-32 -0 -1
vn 3.69779e-32 -0 -1
vn 3.69779e-32 -0 -1
vn 3.69779e-32 -0 -1
vn 3.69779e-32 -0 -1
vn 3.69779e-32 -0 -1
vn 3.69779e-32 -0 -1
vn 3.69779e-32 -0 -1
vn 3.69779e-32 -0 -1
vn 3.69779e-32 -0 -1
vn 3.69779e-32 -0 -1
vn 3.69779e-32 -0 -1
vn 3.69779e-32 -0 -1
vn 3.69779e-32 -0 -1
vn 3.69779e-32 -0 -1
vn 3.69779e-32 -0 -1
vn 3.69779e-32 -0 -1
vn 3.69779e-32 -0 -1
vn 3.69779e-32 -0 -1
vn 3.69779e-32 -0 -1
vn 3.69779e-32 -0 -1
vn 3.69779e-32 -0 -1
vn 3.69779e-32 -0 -1
f 93//93 80//80 79//79 
f 93//93 94//94 80//80 
f 95//95 81//81 80//80 
f 95//95 80//80 94//94 
f 92//92 79//79 78//78 
f 92//92 93//93 79//79 
f 96//96 82//82 81//81 
f 96//96 81//81 95//95 
f 91//91 78//78 77//77 
f 91//91 92//92 78//78 
f 97//97 83//83 82//82 
f 97//97 82//82 96//96 
f 76//76 90//90 91//91 
f 76//76 91//91 77//77 
f 84//84 97//97 98//98 
f 84//84 83//83 97//97 
f 75//75 89//89 90//90 
f 75//75 90//90 76//76 
f 71//71 98//98 85//85 
f 71//71 84//84 98//98 
f 74//74 88//88 89//89 
f 74//74 89//89 75//75 
f 72//72 85//85 86//86 
f 72//72 71//71 85//85 
f 73//73 86//86 87//87 
f 73//73 87//87 88//88 
f 73//73 72//72 86//86 
f 73//73 88//88 74//74 

g Face_4
v 0.071848152 -0.2603972870000001 -0.0532
v 0.07102173346287 -0.25198197425288005 -0.05320000000000001
v 0.06662589905079999 -0.24475860277150008 -0.05320000000000001
v 0.05953128880599999 -0.24015788743790006 -0.05320000000000001
v 0.05114306755959999 -0.23909099378450005 -0.05320000000000001
v 0.043122650309999996 -0.24176923635170008 -0.05320000000000001
v 0.03705855396847 -0.24766221448648007 -0.05320000000000001
v 0.034151848 -0.2556027130000001 -0.0532
v 0.034978266537129994 -0.2640180257471201 -0.05319999999999998
v 0.03937410094919999 -0.2712413972285001 -0.05319999999999998
v 0.04646871119399999 -0.27584211256210006 -0.05319999999999998
v 0.05485693244039999 -0.2769090062155 -0.05319999999999998
v 0.06287734968999999 -0.27423076364830007 -0.05319999999999998
v 0.06894144603152999 -0.26833778551352006 -0.05319999999999998
v 0.07135214799999999 -0.26033420050000006 -0.0532
v 0.07054746188825 -0.25214033953190007 -0.05320000000000001
v 0.0662673691315 -0.24510705057460005 -0.05320000000000001
v 0.05935942127572 -0.24062735412912006 -0.05320000000000001
v 0.051191941649479995 -0.23958853649168005 -0.05320000000000001
v 0.04338253817789999 -0.24219634040300006 -0.05320000000000001
v 0.03747808160185 -0.24793426163850008 -0.05320000000000001
v 0.03464785199999999 -0.25566579950000007 -0.0532
v 0.03545253811174999 -0.26385966046810005 -0.05319999999999998
v 0.03973263086849999 -0.2708929494254001 -0.05319999999999998
v 0.04664057872427999 -0.27537264587088006 -0.05319999999999998
v 0.054808058350519995 -0.27641146350832 -0.05319999999999998
v 0.0626174618221 -0.2738036595970001 -0.05319999999999998
v 0.06852191839814999 -0.26806573836150005 -0.05319999999999998
vn -3.69779e-32 -0 1
vn -3.69779e-32 -0 1
vn -3.69779e-32 -0 1
vn -3.69779e-32 -0 1
vn -3.69779e-32 -0 1
vn -3.69779e-32 -0 1
vn -3.69779e-32 -0 1
vn -3.69779e-32 -0 1
vn -3.69779e-32 -0 1
vn -3.69779e-32 -0 1
vn -3.69779e-32 -0 1
vn -3.69779e-32 -0 1
vn -3.69779e-32 -0 1
vn -3.69779e-32 -0 1
vn -3.69779e-32 -0 1
vn -3.69779e-32 -0 1
vn -3.69779e-32 -0 1
vn -3.69779e-32 -0 1
vn -3.69779e-32 -0 1
vn -3.69779e-32 -0 1
vn -3.69779e-32 -0 1
vn -3.69779e-32 -0 1
vn -3.69779e-32 -0 1
vn -3.69779e-32 -0 1
vn -3.69779e-32 -0 1
vn -3.69779e-32 -0 1
vn -3.69779e-32 -0 1
vn -3.69779e-32 -0 1
f 126//126 111//111 112//112 
f 126//126 125//125 111//111 
f 124//124 110//110 111//111 
f 124//124 111//111 125//125 
f 113//113 112//112 99//99 
f 113//113 126//126 112//112 
f 123//123 109//109 110//110 
f 123//123 110//110 124//124 
f 114//114 99//99 100//100 
f 114//114 113//113 99//99 
f 122//122 108//108 109//109 
f 122//122 109//109 123//123 
f 101//101 115//115 114//114 
f 101//101 114//114 100//100 
f 107//107 122//122 121//121 
f 107//107 108//108 122//122 
f 102//102 116//116 115//115 
f 102//102 115//115 101//101 
f 106//106 121//121 120//120 
f 106//106 107//107 121//121 
f 103//103 117//117 116//116 
f 103//103 116//116 102//102 
f 105//105 120//120 119//119 
f 105//105 106//106 120//120 
f 104//104 118//118 117//117 
f 104//104 119//119 118//118 
f 104//104 105//105 119//119 
f 104//104 117//117 103//103 

g Face_5
v 0.05539728699999999 -0.23915184800000006 -0.05920000000000001
v 0.053023641489659996 -0.23900004473861008 -0.05748410000000001
v 0.05391430929401999 -0.23902199846717007 -0.05469070000000001
v 0.05685929692971999 -0.23939606593962007 -0.05468600000000001
v 0.05773525745186 -0.23959951442101007 -0.05747810000000001
v 0.05539728699999999 -0.23915184800000006 -0.05920000000000001
v 0.05533420049999999 -0.23964785200000005 -0.05920000000000001
v 0.05533420049999999 -0.23964785200000005 -0.05920000000000001
v 0.057669469396539996 -0.24009900542389007 -0.057485000000000015
v 0.05680375979223999 -0.23989524786219008 -0.05469180000000001
v 0.05385896324446 -0.23951999502706006 -0.05468480000000001
v 0.05295780026791999 -0.2395000330072201 -0.05747720000000001
vn 2.44929e-16 -2.47265e-47 1
vn 0.94954 -9.58594e-32 0.313646
vn 0.594999 -6.00672e-32 -0.803726
vn -0.592456 5.98104e-32 -0.805603
vn -0.950326 9.59387e-32 0.311258
vn -3.69779e-32 -0 1
vn -6.43249e-16 6.49382e-47 1
vn -3.69779e-32 -0 1
vn -0.949418 9.5847e-32 0.314015
vn -0.595606 6.01285e-32 -0.803277
vn 0.591831 -5.97474e-32 -0.806062
vn 0.950443 -9.59505e-32 0.3109
f 131//131 132//132 134//134 
f 135//135 131//131 134//134 
f 136//136 130//130 131//131 
f 136//136 131//131 135//135 
f 137//137 129//129 130//130 
f 137//137 130//130 136//136 
f 128//128 129//129 137//137 
f 138//138 128//128 137//137 
f 133//133 127//127 128//128 
f 133//133 128//128 138//138 

