mtllib Goupille_attache_1_instance_7.mtl
usemtl Goupille_attache_1_instance_7
#Wavefront export of shape 1-86-26--Goupille_attache_1

g Face_1
v 0.16835870978 -0.41388298389499995 -0.01648000999999983
v 0.169478816335 -0.41270384714999997 -0.016480009999999833
v 0.17065795307999998 -0.41382395370499997 -0.016480009999999837
v 0.16953784652499998 -0.41500309044999995 -0.016480009999999833
vn -2.81893e-15 -1.97215e-31 -1
vn -2.81893e-15 -1.97215e-31 -1
vn -2.81893e-15 -1.97215e-31 -1
vn -2.81893e-15 -1.97215e-31 -1
f 3//3 1//1 2//2 
f 3//3 4//4 1//1 

g Face_2
v 0.16835870978 -0.41388298389499995 -0.01648000999999983
v 0.169478816335 -0.41270384714999997 -0.016480009999999833
v 0.17065795307999998 -0.41382395370499997 -0.016480009999999837
v 0.16953784652499998 -0.41500309044999995 -0.016480009999999833
v 0.16835870978 -0.41388298389499995 -0.01648000999999983
v 0.16875857817999998 -0.41387271777499995 -0.016080009999999832
v 0.16986653795500928 -0.4131945390042509 -0.016080009999999836
v 0.1698998781549907 -0.41449314962074896 -0.016080009999999836
v 0.16875857817999998 -0.41387271777499995 -0.016080009999999832
vn -0.707107 7.60514e-17 0.707107
vn 2.02603e-15 0.707107 0.707107
vn 0.707107 1.05443e-17 0.707107
vn 2.04712e-15 -0.707107 0.707107
vn -0.707107 -9.71399e-17 0.707107
vn -0.707107 7.60514e-17 0.707107
vn 0.353553 0.612372 0.707107
vn 0.353553 -0.612372 0.707107
vn -0.707107 -9.71399e-17 0.707107
f 6//6 5//5 10//10 
f 6//6 10//10 11//11 
f 7//7 6//6 11//11 
f 12//12 7//7 11//11 
f 8//8 7//7 12//12 
f 13//13 8//8 12//12 
f 9//9 8//8 13//13 

g Face_3
v 0.16875857817999998 -0.41387271777499995 -0.016080009999999832
v 0.16986653795500928 -0.4131945390042509 -0.016080009999999836
v 0.1698998781549907 -0.41449314962074896 -0.016080009999999836
v 0.16875857817999998 -0.41387271777499995 -0.016080009999999832
v 0.16875857818 -0.41387271777499995 -0.007116009999999831
v 0.1698665379550093 -0.4131945390042509 -0.007116009999999834
v 0.16989987815499072 -0.41449314962074896 -0.007116009999999834
v 0.16875857818 -0.41387271777499995 -0.007116009999999831
vn -1 1.07553e-16 2.81893e-15
vn 0.5 0.866025 -1.40946e-15
vn 0.5 -0.866025 -1.40946e-15
vn -1 7.50802e-16 2.81893e-15
vn -1 1.07553e-16 2.81893e-15
vn 0.5 0.866025 -1.40946e-15
vn 0.5 -0.866025 -1.40946e-15
vn -1 7.50802e-16 2.81893e-15
f 15//15 14//14 18//18 
f 15//15 18//18 19//19 
f 16//16 19//19 20//20 
f 16//16 15//15 19//19 
f 17//17 20//20 21//21 
f 17//17 16//16 20//20 

g Face_4
v 0.16875857818 -0.41387271777499995 -0.007116009999999831
v 0.1698665379550093 -0.4131945390042509 -0.007116009999999834
v 0.16989987815499072 -0.41449314962074896 -0.007116009999999834
vn -0.351123 -1.12809e-16 0.936329
vn 0.175561 0.304078 0.936331
vn 0.175561 -0.304078 0.936331
f 24//24 23//23 22//22 

