mtllib Goupille_Pied_roue_intermediaire_quantieme_instance_1.mtl
usemtl Goupille_Pied_roue_intermediaire_quantieme_instance_1
#Wavefront export of shape 1-12-10-4--Goupille_Pied_roue_intermediaire_quantieme

g Face_1
v 0.23055 -0.1365 -0.04399999999999999
v 0.22935 -0.13719282000000002 -0.04399999999999999
v 0.22935 -0.13580718 -0.04399999999999999
v 0.23055 -0.1365 -0.04399999999999999
v 0.23055 -0.1365 -0.03899999999999999
v 0.22935 -0.13719282000000002 -0.03899999999999999
v 0.22935 -0.13580718 -0.03899999999999999
v 0.23055 -0.1365 -0.03899999999999999
vn 1 -3.67394e-16 0
vn -0.5 -0.866025 0
vn -0.5 0.866025 -0
vn 1 -1.22465e-16 0
vn 1 -3.67394e-16 0
vn -0.5 -0.866025 0
vn -0.5 0.866025 -0
vn 1 -1.22465e-16 0
f 7//7 4//4 3//3 
f 7//7 8//8 4//4 
f 6//6 3//3 2//2 
f 6//6 7//7 3//3 
f 5//5 2//2 1//1 
f 5//5 6//6 2//2 

g Face_2
v 0.23055 -0.1365 -0.04399999999999999
v 0.22935 -0.13719282000000002 -0.04399999999999999
v 0.22935 -0.13580718 -0.04399999999999999
vn 0 0 -1
vn 0 0 -1
vn 0 0 -1
f 9//9 10//10 11//11 

g Face_3
v 0.23055 -0.1365 -0.03899999999999999
v 0.22935 -0.13719282000000002 -0.03899999999999999
v 0.22935 -0.13580718 -0.03899999999999999
vn -0 -0 1
vn -0 -0 1
vn -0 -0 1
f 12//12 14//14 13//13 

