mtllib Goupille_roue_retaille_Roue_intermediaire_quantieme.mtl
usemtl Goupille_roue_retaille_Roue_intermediaire_quantieme
#Wavefront export of shape 1-71-3--Goupille_roue_retaille_Roue_intermediaire_quantieme

g Face_1
v 0.1673519728 -0.13323835312 -0.001799999999999997
v 0.1668869071852679 -0.1326636352907437 -0.0017999999999999963
v 0.1662170955279631 -0.1329765890881257 -0.001799999999999996
v 0.16635951222029222 -0.133702058151682 -0.0017999999999999967
v 0.16635951222029222 -0.133702058151682 -9.999999999999679e-05
v 0.1663447073797078 -0.13280775268831801 -9.999999999999593e-05
v 0.1661728119943443 -0.1330918318704232 -9.999999999999593e-05
v 0.16617830798693173 -0.13342382438121722 -9.999999999999636e-05
v 0.1663447073797078 -0.13280775268831801 0.004900000000000003
v 0.1671445977797078 -0.132794510848318 0.004900000000000003
v 0.1668869071852679 -0.13266363529074374 0.004900000000000003
v 0.1665979247812819 -0.13266841926959433 0.004900000000000003
v 0.1671445977797078 -0.132794510848318 -9.999999999999636e-05
v 0.16715940262029222 -0.133688816311682 -9.999999999999723e-05
v 0.16733129800565572 -0.13340473712957682 -9.999999999999723e-05
v 0.1673258020130683 -0.1330727446187828 -9.999999999999679e-05
v 0.16715940262029222 -0.133688816311682 0.0049000000000000024
v 0.16635951222029222 -0.133702058151682 0.0049000000000000024
v 0.1666172028147321 -0.1338329337092563 0.0049000000000000024
v 0.1669061852187181 -0.13382814973040572 0.0049000000000000024
v 0.16635951222029222 -0.133702058151682 -9.999999999999679e-05
v 0.16635951222029222 -0.133702058151682 -0.0017999999999999967
v 0.1667842395938554 -0.13384742085107088 -0.001799999999999997
v 0.1671909508276634 -0.1336573938114868 -0.0017999999999999971
vn 1 3.67394e-16 -7.69238e-28
vn 0.240851 0.970562 -2.67674e-28
vn -0.883982 0.467522 6.40299e-28
vn -0.666667 -0.745356 5.76107e-28
vn -0.666667 -0.745356 5.76107e-28
vn -0.666667 0.745356 4.49544e-28
vn -0.960957 0.276698 7.15713e-28
vn -0.960957 -0.276698 7.62697e-28
vn -0.666667 0.745356 4.49544e-28
vn 0.666667 0.745356 -5.76107e-28
vn 0.240851 0.970562 -2.67674e-28
vn -0.240851 0.970562 1.0287e-28
vn 0.666667 0.745356 -5.76107e-28
vn 0.666667 -0.745356 -4.49544e-28
vn 0.960957 -0.276698 -7.15713e-28
vn 0.960957 0.276698 -7.62697e-28
vn 0.666667 -0.745356 -4.49544e-28
vn -0.666667 -0.745356 5.76107e-28
vn -0.240851 -0.970562 2.67674e-28
vn 0.240851 -0.970562 -1.0287e-28
vn -0.666667 -0.745356 5.76107e-28
vn -0.666667 -0.745356 5.76107e-28
vn 0.0371052 -0.999311 5.63e-29
vn 0.720106 -0.693864 -4.95023e-28
f 4//4 5//5 8//8 
f 6//6 9//9 12//12 
f 3//3 7//7 6//6 
f 3//3 8//8 7//7 
f 3//3 4//4 8//8 
f 13//13 11//11 10//10 
f 13//13 12//12 11//11 
f 13//13 6//6 12//12 
f 2//2 3//3 6//6 
f 2//2 6//6 13//13 
f 1//1 16//16 15//15 
f 1//1 13//13 16//16 
f 1//1 2//2 13//13 
f 14//14 17//17 20//20 
f 24//24 15//15 14//14 
f 24//24 1//1 15//15 
f 21//21 19//19 18//18 
f 21//21 20//20 19//19 
f 21//21 14//14 20//20 
f 23//23 24//24 14//14 
f 23//23 14//14 21//21 
f 22//22 23//23 21//21 

g Face_2
v 0.16635951222029222 -0.133702058151682 0.0049000000000000024
v 0.1666172028147321 -0.1338329337092563 0.0049000000000000024
v 0.1669061852187181 -0.13382814973040572 0.0049000000000000024
v 0.16715940262029222 -0.133688816311682 0.0049000000000000024
v 0.1671445977797078 -0.132794510848318 0.004900000000000003
v 0.1668869071852679 -0.13266363529074374 0.004900000000000003
v 0.1665979247812819 -0.13266841926959433 0.004900000000000003
v 0.1663447073797078 -0.13280775268831801 0.004900000000000003
vn 7.69238e-28 8.49012e-29 1
vn 7.69238e-28 8.49012e-29 1
vn 7.69238e-28 8.49012e-29 1
vn 7.69238e-28 8.49012e-29 1
vn 7.69238e-28 8.49012e-29 1
vn 7.69238e-28 8.49012e-29 1
vn 7.69238e-28 8.49012e-29 1
vn 7.69238e-28 8.49012e-29 1
f 29//29 25//25 26//26 
f 29//29 26//26 27//27 
f 29//29 27//27 28//28 
f 29//29 30//30 31//31 
f 29//29 31//31 32//32 
f 29//29 32//32 25//25 

g Face_3
v 0.1673519728 -0.13323835312 -0.001799999999999997
v 0.1668869071852679 -0.1326636352907437 -0.0017999999999999963
v 0.1662170955279631 -0.1329765890881257 -0.001799999999999996
v 0.16635951222029222 -0.133702058151682 -0.0017999999999999967
v 0.16745195910000002 -0.13323669789 -0.001899999999999997
v 0.16639206864779862 -0.132647942856866 -0.0018999999999999959
v 0.16641213725220141 -0.133860212753134 -0.0018999999999999967
v 0.16745195910000002 -0.13323669789 -0.001899999999999997
v 0.1673519728 -0.13323835312 -0.001799999999999997
v 0.1667842395938554 -0.13384742085107088 -0.001799999999999997
v 0.1671909508276634 -0.1336573938114868 -0.0017999999999999971
vn 0.707107 1.73191e-16 0.707107
vn 0.170307 0.686291 0.707107
vn -0.625069 0.330588 0.707107
vn -0.471405 -0.527046 0.707107
vn 0.707107 1.73191e-16 0.707107
vn -0.353553 0.612372 0.707107
vn -0.353553 -0.612372 0.707107
vn 0.707107 5.97027e-29 0.707107
vn 0.707107 5.97027e-29 0.707107
vn 0.0262373 -0.70662 0.707107
vn 0.509192 -0.490636 0.707107
f 43//43 40//40 41//41 
f 39//39 42//42 36//36 
f 39//39 43//43 42//42 
f 39//39 40//40 43//43 
f 35//35 39//39 36//36 
f 38//38 39//39 35//35 
f 34//34 38//38 35//35 
f 37//37 34//34 33//33 
f 37//37 38//38 34//34 

g Face_4
v 0.16745195910000002 -0.13323669789 -0.001899999999999997
v 0.16639206864779862 -0.132647942856866 -0.0018999999999999959
v 0.16641213725220141 -0.133860212753134 -0.0018999999999999967
vn -7.69238e-28 -8.49012e-29 -1
vn -7.69238e-28 -8.49012e-29 -1
vn -7.69238e-28 -8.49012e-29 -1
f 44//44 46//46 45//45 

g Face_5
v 0.1663447073797078 -0.13280775268831801 0.004900000000000003
v 0.1663447073797078 -0.13280775268831801 -9.999999999999593e-05
v 0.16635951222029222 -0.133702058151682 -9.999999999999679e-05
v 0.16635951222029222 -0.133702058151682 0.0049000000000000024
vn -1 4.68857e-31 7.69238e-28
vn -1 4.68857e-31 7.69238e-28
vn -1 4.68857e-31 7.69238e-28
vn -1 4.68857e-31 7.69238e-28
f 47//47 48//48 49//49 
f 47//47 49//49 50//50 

g Face_6
v 0.1663447073797078 -0.13280775268831801 -9.999999999999593e-05
v 0.1661728119943443 -0.1330918318704232 -9.999999999999593e-05
v 0.16617830798693173 -0.13342382438121722 -9.999999999999636e-05
v 0.16635951222029222 -0.133702058151682 -9.999999999999679e-05
vn 7.69238e-28 8.49012e-29 1
vn 7.69238e-28 8.49012e-29 1
vn 7.69238e-28 8.49012e-29 1
vn 7.69238e-28 8.49012e-29 1
f 51//51 52//52 53//53 
f 51//51 53//53 54//54 

g Face_7
v 0.16715940262029222 -0.133688816311682 -9.999999999999723e-05
v 0.16733129800565572 -0.13340473712957682 -9.999999999999723e-05
v 0.1673258020130683 -0.1330727446187828 -9.999999999999679e-05
v 0.1671445977797078 -0.132794510848318 -9.999999999999636e-05
vn 7.69238e-28 8.49012e-29 1
vn 7.69238e-28 8.49012e-29 1
vn 7.69238e-28 8.49012e-29 1
vn 7.69238e-28 8.49012e-29 1
f 58//58 55//55 56//56 
f 58//58 56//56 57//57 

g Face_8
v 0.16715940262029222 -0.133688816311682 0.0049000000000000024
v 0.16715940262029222 -0.133688816311682 -9.999999999999723e-05
v 0.1671445977797078 -0.132794510848318 -9.999999999999636e-05
v 0.1671445977797078 -0.132794510848318 0.004900000000000003
vn 1 -4.68857e-31 -7.69238e-28
vn 1 -4.68857e-31 -7.69238e-28
vn 1 -4.68857e-31 -7.69238e-28
vn 1 -4.68857e-31 -7.69238e-28
f 61//61 59//59 60//60 
f 61//61 62//62 59//59 

