mtllib Goupille_Suspension.mtl
usemtl Goupille_Suspension
#Wavefront export of shape 1-1-17--Goupille_Suspension

g Face_1
v 0.1423 -9.999999999999992e-05 -0.009250000000000001
v 0.1423 0.0005495189999999999 -0.008125000000000002
v 0.1423 -0.000749519 -0.008125000000000002
v 0.1423 -9.999999999999992e-05 -0.009250000000000001
v 0.1337 -9.999999999999992e-05 -0.00925
v 0.1337 0.0005495189999999999 -0.008125
v 0.1337 -0.000749519 -0.008125
v 0.1337 -9.999999999999992e-05 -0.00925
vn -2.47818e-16 4.78416e-16 -1
vn 1.23909e-16 0.866025 0.5
vn 1.23909e-16 -0.866025 0.5
vn -2.47818e-16 2.33487e-16 -1
vn -2.47818e-16 4.78416e-16 -1
vn 1.23909e-16 0.866025 0.5
vn 1.23909e-16 -0.866025 0.5
vn -2.47818e-16 2.33487e-16 -1
f 7//7 4//4 3//3 
f 7//7 8//8 4//4 
f 6//6 3//3 2//2 
f 6//6 7//7 3//3 
f 5//5 2//2 1//1 
f 5//5 6//6 2//2 

g Face_2
v 0.1423 -9.999999999999992e-05 -0.009250000000000001
v 0.1423 0.0005495189999999999 -0.008125000000000002
v 0.1423 -0.000749519 -0.008125000000000002
vn 1 -1.13399e-30 -2.47818e-16
vn 1 -1.13399e-30 -2.47818e-16
vn 1 -1.13399e-30 -2.47818e-16
f 9//9 10//10 11//11 

g Face_3
v 0.1337 -9.999999999999992e-05 -0.00925
v 0.1337 0.0005495189999999999 -0.008125
v 0.1337 -0.000749519 -0.008125
vn -1 1.13399e-30 2.47818e-16
vn -1 1.13399e-30 2.47818e-16
vn -1 1.13399e-30 2.47818e-16
f 12//12 14//14 13//13 

