mtllib Goupille_roue_Limacon.mtl
usemtl Goupille_roue_Limacon
#Wavefront export of shape 1-45-4--Goupille_roue_Limacon

g Face_1
v 0.10181268632137999 -0.18682207274794 -0.0298
v 0.10234133978189 -0.187508021306858 -0.0298
v 0.10267106186087 -0.186707219189022 -0.0298
v 0.10181268632137999 -0.18682207274794 -0.0298
v 0.10181268632137999 -0.18682207274794 -0.0242
v 0.10273737232138 -0.18720280274794 -0.0242
v 0.10267106186087 -0.186707219189022 -0.0242
v 0.10220871886086999 -0.18651685418902197 -0.0242
v 0.10181268632137999 -0.18682207274794 -0.0242
v 0.10187899678189 -0.18731765630685798 -0.0242
v 0.10234133978189 -0.187508021306858 -0.0242
vn -1 -2.44929e-16 -3.11151e-61
vn 0.5 -0.866025 2.90308e-61
vn 0.5 0.866025 2.08431e-62
vn -1 1.55416e-90 -3.11151e-61
vn -1 1.55416e-90 -3.11151e-61
vn 1 1.22465e-16 3.11151e-61
vn 0.5 0.866025 2.08431e-62
vn -0.5 0.866025 -2.90308e-61
vn -1 -2.44929e-16 -3.11151e-61
vn -0.5 -0.866025 -2.08431e-62
vn 0.5 -0.866025 2.90308e-61
f 4//4 5//5 8//8 
f 3//3 7//7 6//6 
f 3//3 8//8 7//7 
f 3//3 4//4 8//8 
f 2//2 11//11 10//10 
f 2//2 6//6 11//11 
f 2//2 3//3 6//6 
f 1//1 10//10 9//9 
f 1//1 2//2 10//10 

g Face_2
v 0.10162774912137999 -0.18674592674794 -0.03
v 0.10282947480051999 -0.186585131950392 -0.03
v 0.10236786404223999 -0.187706254545488 -0.03
v 0.10162774912137999 -0.18674592674794 -0.03
v 0.10181268632137999 -0.18682207274794 -0.0298
v 0.10181268632137999 -0.18682207274794 -0.0298
v 0.10234133978189 -0.187508021306858 -0.0298
v 0.10267106186087 -0.186707219189022 -0.0298
vn -0.707107 1.10008e-61 0.707107
vn 0.353553 0.612372 0.707107
vn 0.353553 -0.612372 0.707107
vn -0.707107 -1.73191e-16 0.707107
vn -0.707107 1.10008e-61 0.707107
vn -0.707107 -1.73191e-16 0.707107
vn 0.353553 -0.612372 0.707107
vn 0.353553 0.612372 0.707107
f 13//13 12//12 16//16 
f 13//13 16//16 19//19 
f 14//14 19//19 18//18 
f 14//14 13//13 19//19 
f 15//15 18//18 17//17 
f 15//15 14//14 18//18 

g Face_3
v 0.10162774912137999 -0.18674592674794 -0.03
v 0.10282947480051999 -0.186585131950392 -0.03
v 0.10236786404223999 -0.187706254545488 -0.03
vn 3.11151e-61 -1.55575e-61 -1
vn 3.11151e-61 -1.55575e-61 -1
vn 3.11151e-61 -1.55575e-61 -1
f 20//20 21//21 22//22 

g Face_4
v 0.10162774912137999 -0.18674592674794 -0.024
v 0.10282947480051999 -0.186585131950392 -0.024
v 0.10236786404223999 -0.187706254545488 -0.024
v 0.10162774912137999 -0.18674592674794 -0.024
v 0.10181268632137999 -0.18682207274794 -0.0242
v 0.10187899678189 -0.18731765630685798 -0.0242
v 0.10234133978189 -0.187508021306858 -0.0242
v 0.10273737232138 -0.18720280274794 -0.0242
v 0.10267106186087 -0.186707219189022 -0.0242
v 0.10220871886086999 -0.18651685418902197 -0.0242
v 0.10181268632137999 -0.18682207274794 -0.0242
vn -0.707107 1.73191e-16 -0.707107
vn 0.353553 0.612372 -0.707107
vn 0.353553 -0.612372 -0.707107
vn -0.707107 -1.10008e-61 -0.707107
vn -0.707107 -1.10008e-61 -0.707107
vn -0.353553 -0.612372 -0.707107
vn 0.353553 -0.612372 -0.707107
vn 0.707107 -8.65956e-17 -0.707107
vn 0.353553 0.612372 -0.707107
vn -0.353553 0.612372 -0.707107
vn -0.707107 1.73191e-16 -0.707107
f 28//28 26//26 27//27 
f 25//25 28//28 29//29 
f 25//25 26//26 28//28 
f 30//30 25//25 29//29 
f 24//24 30//30 31//31 
f 24//24 25//25 30//30 
f 32//32 24//24 31//31 
f 23//23 32//32 33//33 
f 23//23 24//24 32//32 

g Face_5
v 0.10162774912137999 -0.18674592674794 -0.024
v 0.10282947480051999 -0.186585131950392 -0.024
v 0.10236786404223999 -0.187706254545488 -0.024
vn -3.11151e-61 1.55575e-61 1
vn -3.11151e-61 1.55575e-61 1
vn -3.11151e-61 1.55575e-61 1
f 35//35 34//34 36//36 

