mtllib Guide_cremaillere_Quarts.mtl
usemtl Guide_cremaillere_Quarts
#Wavefront export of shape 1-8-14-1--Guide_cremaillere_Quarts

g Face_1
v 0.05575 -0.09525 -0.04135
v 0.05575 -0.09775 -0.04135
v 0.05575 -0.09960326 -0.04028373
v 0.05575 -0.09960326 -0.031349999999999996
v 0.05575 -0.09339674 -0.031349999999999996
v 0.05575 -0.09339674 -0.04028373
vn 1 -0 -4.33681e-17
vn 1 -0 -4.33681e-17
vn 1 -0 -4.33681e-17
vn 1 -0 -4.33681e-17
vn 1 -0 -4.33681e-17
vn 1 -0 -4.33681e-17
f 6//6 2//2 1//1 
f 6//6 3//3 2//2 
f 5//5 4//4 3//3 
f 5//5 3//3 6//6 

g Face_2
v 0.053518487 -0.09334216000000001 -0.04135
v 0.052136799 -0.09330837 -0.04135
v 0.051139239999999996 -0.09367724000000001 -0.04135
v 0.050314189999999995 -0.09434841000000001 -0.04135
v 0.049749999999999996 -0.09525 -0.04135000000000001
v 0.049749999999999996 -0.09775 -0.04135000000000008
v 0.050314189999999995 -0.09865159 -0.04135
v 0.051139239999999996 -0.09932276 -0.04135
v 0.052136799 -0.09969163 -0.04135
v 0.053518487 -0.09965784 -0.04135
v 0.05445191 -0.09926875 -0.04135
v 0.05522056 -0.09861160000000001 -0.04135
v 0.05575 -0.09775 -0.04135
v 0.05575 -0.09525 -0.04135
v 0.05522056 -0.0943884 -0.04135
v 0.05445191 -0.09373125 -0.04135
v 0.0555 -0.0965 -0.04135
v 0.054125 -0.09411843 -0.04135
v 0.051375 -0.09411843 -0.04135
v 0.049999999999999996 -0.0965 -0.04135
v 0.051375 -0.09888157 -0.04135
v 0.054125 -0.09888157 -0.04135
vn -0 -0 -1
vn -0 -0 -1
vn -0 -0 -1
vn -0 -0 -1
vn -0 -0 -1
vn -0 -0 -1
vn -0 -0 -1
vn -0 -0 -1
vn -0 -0 -1
vn -0 -0 -1
vn -0 -0 -1
vn -0 -0 -1
vn -0 -0 -1
vn -0 -0 -1
vn -0 -0 -1
vn -0 -0 -1
vn -0 -0 -1
vn -0 -0 -1
vn -0 -0 -1
vn -0 -0 -1
vn -0 -0 -1
vn -0 -0 -1
f 27//27 13//13 12//12 
f 27//27 14//14 13//13 
f 27//27 15//15 14//14 
f 26//26 27//27 12//12 
f 11//11 26//26 12//12 
f 28//28 16//16 15//15 
f 28//28 17//17 16//16 
f 28//28 15//15 27//27 
f 18//18 17//17 28//28 
f 25//25 11//11 10//10 
f 25//25 26//26 11//11 
f 9//9 25//25 10//10 
f 19//19 18//18 28//28 
f 8//8 25//25 9//9 
f 23//23 19//19 28//28 
f 24//24 25//25 8//8 
f 7//7 24//24 8//8 
f 20//20 23//23 24//24 
f 20//20 19//19 23//23 
f 22//22 24//24 7//7 
f 21//21 20//20 24//24 
f 21//21 24//24 22//22 

g Face_3
v 0.049749999999999996 -0.09525 -0.04135000000000001
v 0.049749999999999996 -0.09775 -0.04135000000000008
v 0.049749999999999996 -0.09325 -0.04017705
v 0.049749999999999996 -0.09325 -0.025349999999999998
v 0.049749999999999996 -0.09975 -0.025349999999999998
v 0.049749999999999996 -0.09975 -0.04017705
vn -1 0 -8.13152e-17
vn -1 0 -8.13152e-17
vn -1 0 -8.13152e-17
vn -1 0 -8.13152e-17
vn -1 0 -8.13152e-17
vn -1 0 -8.13152e-17
f 31//31 29//29 30//30 
f 31//31 33//33 32//32 
f 31//31 34//34 33//33 
f 31//31 30//30 34//34 

g Face_4
v 0.053518487 -0.09334216000000001 -0.04135
v 0.052136799 -0.09330837 -0.04135
v 0.05575 -0.09339674 -0.04028373
v 0.05575 -0.09339674 -0.031349999999999996
v 0.14175 -0.0955 -0.031349999999999996
v 0.14175 -0.0955 -0.025349999999999998
v 0.14125 -0.09548777 -0.025349999999999998
v 0.13974999999999999 -0.09545109 -0.02785
v 0.12775 -0.09515761 -0.02785
v 0.12775 -0.09515761 -0.025349999999999998
v 0.05130318 -0.09328799 -0.025349999999999998
v 0.050896859999999995 -0.09327805 -0.027889499999999998
v 0.05040314 -0.09326597 -0.0278105
v 0.05079682 -0.0932756 -0.025349999999999998
v 0.049749999999999996 -0.09325 -0.025349999999999998
v 0.049749999999999996 -0.09325 -0.04017705
vn 0.0244492 0.999701 -0
vn 0.0244492 0.999701 -0
vn 0.0244492 0.999701 -0
vn 0.0244492 0.999701 -0
vn 0.0244492 0.999701 -0
vn 0.0244492 0.999701 -0
vn 0.0244492 0.999701 -0
vn 0.0244492 0.999701 -0
vn 0.0244492 0.999701 -0
vn 0.0244492 0.999701 -0
vn 0.0244492 0.999701 -0
vn 0.0244492 0.999701 -0
vn 0.0244492 0.999701 -0
vn 0.0244492 0.999701 -0
vn 0.0244492 0.999701 -0
vn 0.0244492 0.999701 -0
f 37//37 35//35 36//36 
f 37//37 36//36 50//50 
f 46//46 50//50 47//47 
f 49//49 47//47 50//50 
f 38//38 37//37 50//50 
f 38//38 50//50 46//46 
f 48//48 47//47 49//49 
f 45//45 38//38 46//46 
f 44//44 43//43 38//38 
f 44//44 38//38 45//45 
f 42//42 39//39 43//43 
f 40//40 42//42 41//41 
f 40//40 39//39 42//42 
f 38//38 43//43 39//39 

g Face_5
v 0.052136799 -0.09969163 -0.04135
v 0.053518487 -0.09965784 -0.04135
v 0.049749999999999996 -0.09975 -0.04017705
v 0.049749999999999996 -0.09975 -0.025349999999999998
v 0.05079682 -0.0997244 -0.025349999999999998
v 0.05040314 -0.09973403 -0.0278105
v 0.050896859999999995 -0.09972195 -0.027889499999999998
v 0.05130318 -0.09971201 -0.025349999999999998
v 0.12775 -0.09784239 -0.025349999999999998
v 0.12775 -0.09784239 -0.02785
v 0.13974999999999999 -0.09754891 -0.02785
v 0.14125 -0.09751223 -0.025349999999999998
v 0.14175 -0.0975 -0.025349999999999998
v 0.14175 -0.0975 -0.031349999999999996
v 0.05575 -0.09960326 -0.031349999999999996
v 0.05575 -0.09960326 -0.04028373
vn 0.0244492 -0.999701 -0
vn 0.0244492 -0.999701 -0
vn 0.0244492 -0.999701 -0
vn 0.0244492 -0.999701 -0
vn 0.0244492 -0.999701 -0
vn 0.0244492 -0.999701 -0
vn 0.0244492 -0.999701 -0
vn 0.0244492 -0.999701 -0
vn 0.0244492 -0.999701 -0
vn 0.0244492 -0.999701 -0
vn 0.0244492 -0.999701 -0
vn 0.0244492 -0.999701 -0
vn 0.0244492 -0.999701 -0
vn 0.0244492 -0.999701 -0
vn 0.0244492 -0.999701 -0
vn 0.0244492 -0.999701 -0
f 63//63 61//61 64//64 
f 62//62 61//61 63//63 
f 60//60 64//64 61//61 
f 51//51 52//52 66//66 
f 53//53 51//51 66//66 
f 65//65 60//60 59//59 
f 65//65 53//53 66//66 
f 57//57 53//53 65//65 
f 56//56 53//53 57//57 
f 58//58 65//65 59//59 
f 58//58 57//57 65//65 
f 54//54 56//56 55//55 
f 54//54 53//53 56//56 
f 64//64 60//60 65//65 

g Face_6
v 0.12775 -0.09515761 -0.025349999999999998
v 0.05130318 -0.09328799 -0.025349999999999998
v 0.12775 -0.09784239 -0.025349999999999998
v 0.05130318 -0.09971201 -0.025349999999999998
v 0.0745 -0.0965 -0.025349999999999998
v 0.07325 -0.09525 -0.025349999999999998
v 0.072 -0.0965 -0.025349999999999998
v 0.07325 -0.09775 -0.025349999999999998
vn -0 -0 1
vn -0 -0 1
vn -0 -0 1
vn -0 -0 1
vn -0 -0 1
vn -0 -0 1
vn -0 -0 1
vn -0 -0 1
f 71//71 69//69 67//67 
f 71//71 74//74 69//69 
f 72//72 71//71 67//67 
f 70//70 74//74 73//73 
f 70//70 69//69 74//74 
f 68//68 73//73 72//72 
f 68//68 70//70 73//73 
f 68//68 72//72 67//67 

g Face_7
v 0.0555 -0.0965 -0.04595
v 0.054125 -0.09411843 -0.04595
v 0.051375 -0.09411843 -0.04595
v 0.049999999999999996 -0.0965 -0.04595
v 0.051375 -0.09888157 -0.04595
v 0.054125 -0.09888157 -0.04595
v 0.0555 -0.0965 -0.04595
v 0.0555 -0.0965 -0.04135
v 0.0555 -0.0965 -0.04135
v 0.054125 -0.09411843 -0.04135
v 0.051375 -0.09411843 -0.04135
v 0.049999999999999996 -0.0965 -0.04135
v 0.051375 -0.09888157 -0.04135
v 0.054125 -0.09888157 -0.04135
vn 1 0 0
vn 0.5 0.866025 -0
vn -0.5 0.866025 0
vn -1 1.22465e-16 0
vn -0.5 -0.866025 0
vn 0.5 -0.866025 0
vn 1 -2.44929e-16 0
vn 1 -2.44929e-16 0
vn 1 0 0
vn 0.5 0.866025 -0
vn -0.5 0.866025 0
vn -1 1.22465e-16 0
vn -0.5 -0.866025 0
vn 0.5 -0.866025 0
f 84//84 75//75 76//76 
f 84//84 83//83 75//75 
f 85//85 76//76 77//77 
f 85//85 84//84 76//76 
f 86//86 77//77 78//78 
f 86//86 85//85 77//77 
f 87//87 78//78 79//79 
f 87//87 86//86 78//78 
f 88//88 79//79 80//80 
f 88//88 87//87 79//79 
f 82//82 80//80 81//81 
f 82//82 88//88 80//80 

g Face_8
v 0.055099999999999996 -0.0965 -0.046349999999999995
v 0.05347619 -0.09873498 -0.046349999999999995
v 0.05084881 -0.0978813 -0.046349999999999995
v 0.05084881 -0.0951187 -0.046349999999999995
v 0.05347619 -0.09426502 -0.046349999999999995
vn -0 -0 -1
vn -0 -0 -1
vn -0 -0 -1
vn -0 -0 -1
vn -0 -0 -1
f 93//93 89//89 90//90 
f 93//93 90//90 91//91 
f 93//93 91//91 92//92 

g Face_9
v 0.055099999999999996 -0.0965 -0.046349999999999995
v 0.05347619 -0.09873498 -0.046349999999999995
v 0.05084881 -0.0978813 -0.046349999999999995
v 0.05084881 -0.0951187 -0.046349999999999995
v 0.05347619 -0.09426502 -0.046349999999999995
v 0.055099999999999996 -0.0965 -0.046349999999999995
v 0.0555 -0.0965 -0.04595
v 0.0555 -0.0965 -0.04595
v 0.054125 -0.09411843 -0.04595
v 0.051375 -0.09411843 -0.04595
v 0.049999999999999996 -0.0965 -0.04595
v 0.051375 -0.09888157 -0.04595
v 0.054125 -0.09888157 -0.04595
vn 0.707107 -1.73191e-16 -0.707107
vn 0.218508 -0.672499 -0.707107
vn -0.572061 -0.415627 -0.707107
vn -0.572061 0.415627 -0.707107
vn 0.218508 0.672499 -0.707107
vn 0.707107 0 -0.707107
vn 0.707107 -1.73191e-16 -0.707107
vn 0.707107 0 -0.707107
vn 0.353553 0.612372 -0.707107
vn -0.353553 0.612372 -0.707107
vn -0.707107 8.65956e-17 -0.707107
vn -0.353553 -0.612372 -0.707107
vn 0.353553 -0.612372 -0.707107
f 102//102 99//99 98//98 
f 102//102 101//101 99//99 
f 103//103 102//102 98//98 
f 97//97 103//103 98//98 
f 104//104 103//103 97//97 
f 96//96 104//104 97//97 
f 105//105 104//104 96//96 
f 95//95 105//105 96//96 
f 106//106 105//105 95//95 
f 94//94 106//106 95//95 
f 100//100 106//106 94//94 

g Face_10
v 0.049749999999999996 -0.09325 -0.025349999999999998
v 0.049749999999999996 -0.09975 -0.025349999999999998
v 0.05079682 -0.0932756 -0.025349999999999998
v 0.05079682 -0.0997244 -0.025349999999999998
vn -0 -0 1
vn -0 -0 1
vn -0 -0 1
vn -0 -0 1
f 107//107 110//110 109//109 
f 107//107 108//108 110//110 

g Face_11
v 0.12775 -0.09515761 -0.02785
v 0.12775 -0.09515761 -0.025349999999999998
v 0.12775 -0.09784239 -0.02785
v 0.12775 -0.09784239 -0.025349999999999998
vn 1 -0 -0
vn 1 -0 -0
vn 1 -0 -0
vn 1 -0 -0
f 112//112 113//113 111//111 
f 112//112 114//114 113//113 

g Face_12
v 0.13974999999999999 -0.09545109 -0.02785
v 0.12775 -0.09515761 -0.02785
v 0.13974999999999999 -0.09754891 -0.02785
v 0.12775 -0.09784239 -0.02785
vn -0 -0 1
vn -0 -0 1
vn -0 -0 1
vn -0 -0 1
f 116//116 117//117 115//115 
f 116//116 118//118 117//117 

g Face_13
v 0.14175 -0.0955 -0.025349999999999998
v 0.14175 -0.0955 -0.031349999999999996
v 0.14175 -0.0975 -0.031349999999999996
v 0.14175 -0.0975 -0.025349999999999998
vn 1 -0 -0
vn 1 -0 -0
vn 1 -0 -0
vn 1 -0 -0
f 119//119 121//121 120//120 
f 119//119 122//122 121//121 

g Face_14
v 0.05575 -0.09339674 -0.031349999999999996
v 0.14175 -0.0955 -0.031349999999999996
v 0.05575 -0.09960326 -0.031349999999999996
v 0.14175 -0.0975 -0.031349999999999996
v 0.0745 -0.0965 -0.031349999999999996
v 0.07325 -0.09525 -0.031349999999999996
v 0.072 -0.0965 -0.031349999999999996
v 0.07325 -0.09775 -0.031349999999999996
vn -1.00856e-16 0 -1
vn -1.00856e-16 0 -1
vn -1.00856e-16 0 -1
vn -1.00856e-16 0 -1
vn -1.00856e-16 0 -1
vn -1.00856e-16 0 -1
vn -1.00856e-16 0 -1
vn -1.00856e-16 0 -1
f 129//129 125//125 123//123 
f 130//130 125//125 129//129 
f 128//128 129//129 123//123 
f 126//126 130//130 127//127 
f 126//126 125//125 130//130 
f 124//124 127//127 128//128 
f 124//124 126//126 127//127 
f 124//124 128//128 123//123 

g Face_15
v 0.14125 -0.09751223 -0.025349999999999998
v 0.14175 -0.0975 -0.025349999999999998
v 0.14175 -0.0955 -0.025349999999999998
v 0.14125 -0.09548777 -0.025349999999999998
vn 0 0 1
vn 0 0 1
vn 0 0 1
vn 0 0 1
f 133//133 131//131 132//132 
f 133//133 134//134 131//131 

g Face_16
v 0.14125 -0.09751223 -0.025349999999999998
v 0.13974999999999999 -0.09754891 -0.02785
v 0.14125 -0.09548777 -0.025349999999999998
v 0.13974999999999999 -0.09545109 -0.02785
vn -0.470588 0 0.882353
vn -1 0 -1.83697e-16
vn -0.470588 0 0.882353
vn -1 0 -1.83697e-16
f 137//137 136//136 135//135 
f 137//137 138//138 136//136 

g Face_17
v 0.05079682 -0.0932756 -0.025349999999999998
v 0.05040314 -0.09326597 -0.0278105
v 0.05040314 -0.09973403 -0.0278105
v 0.05079682 -0.0997244 -0.025349999999999998
vn 0.987441 -0 -0.157991
vn 0.987441 -0 -0.157991
vn 0.987441 -0 -0.157991
vn 0.987441 -0 -0.157991
f 139//139 141//141 140//140 
f 139//139 142//142 141//141 

g Face_18
v 0.050896859999999995 -0.09327805 -0.027889499999999998
v 0.05040314 -0.09326597 -0.0278105
v 0.05040314 -0.09973403 -0.0278105
v 0.050896859999999995 -0.09972195 -0.027889499999999998
vn 0.157991 -0 0.987441
vn 0.157991 -0 0.987441
vn 0.157991 -0 0.987441
vn 0.157991 -0 0.987441
f 143//143 144//144 145//145 
f 143//143 145//145 146//146 

g Face_19
v 0.05130318 -0.09328799 -0.025349999999999998
v 0.050896859999999995 -0.09327805 -0.027889499999999998
v 0.050896859999999995 -0.09972195 -0.027889499999999998
v 0.05130318 -0.09971201 -0.025349999999999998
vn -0.987441 0 0.157991
vn -0.987441 0 0.157991
vn -0.987441 0 0.157991
vn -0.987441 0 0.157991
f 147//147 148//148 149//149 
f 147//147 149//149 150//150 

g Face_20
v 0.0745 -0.0965 -0.025349999999999998
v 0.07325 -0.09525 -0.025349999999999998
v 0.072 -0.0965 -0.025349999999999998
v 0.07325 -0.09775 -0.025349999999999998
v 0.0745 -0.0965 -0.025349999999999998
v 0.0745 -0.0965 -0.031349999999999996
v 0.07325 -0.09525 -0.031349999999999996
v 0.072 -0.0965 -0.031349999999999996
v 0.07325 -0.09775 -0.031349999999999996
v 0.0745 -0.0965 -0.031349999999999996
vn -1 -0 -0
vn -6.12323e-17 -1 0
vn 1 -1.22465e-16 -0
vn 1.83697e-16 1 -0
vn -1 2.44929e-16 -0
vn -1 -0 -0
vn -6.12323e-17 -1 0
vn 1 -1.22465e-16 -0
vn 1.83697e-16 1 -0
vn -1 2.44929e-16 -0
f 152//152 156//156 151//151 
f 152//152 157//157 156//156 
f 153//153 158//158 157//157 
f 153//153 157//157 152//152 
f 154//154 159//159 158//158 
f 154//154 158//158 153//153 
f 155//155 160//160 159//159 
f 155//155 159//159 154//154 

g Face_21
v 0.049749999999999996 -0.09775 -0.04135000000000008
v 0.050314189999999995 -0.09865159 -0.04135
v 0.051139239999999996 -0.09932276 -0.04135
v 0.052136799 -0.09969163 -0.04135
v 0.049749999999999996 -0.09975 -0.04017705
vn -0.652714 -0.271964 -0.707107
vn -0.529962 -0.468124 -0.707107
vn -0.350454 -0.614151 -0.707107
vn -0.133415 -0.694407 -0.707107
vn -0.479616 -0.519584 -0.707107
f 165//165 161//161 162//162 
f 165//165 162//162 163//163 
f 164//164 165//165 163//163 

g Face_22
v 0.05575 -0.09775 -0.04135
v 0.05575 -0.09960326 -0.04028373
v 0.053518487 -0.09965784 -0.04135
v 0.05445191 -0.09926875 -0.04135
v 0.05522056 -0.09861160000000001 -0.04135
vn 0.652714 -0.271964 -0.707107
vn 0.49147 -0.508387 -0.707107
vn 0.167201 -0.687055 -0.707107
vn 0.370287 -0.602401 -0.707107
vn 0.537522 -0.459424 -0.707107
f 167//167 168//168 169//169 
f 167//167 169//169 170//170 
f 166//166 167//167 170//170 

g Face_23
v 0.05575 -0.09339674 -0.04028373
v 0.05575 -0.09525 -0.04135
v 0.05522056 -0.0943884 -0.04135
v 0.05445191 -0.09373125 -0.04135
v 0.053518487 -0.09334216000000001 -0.04135
vn 0.49147 0.508387 -0.707107
vn 0.652714 0.271964 -0.707107
vn 0.537522 0.459424 -0.707107
vn 0.370287 0.602401 -0.707107
vn 0.167201 0.687055 -0.707107
f 171//171 172//172 173//173 
f 171//171 173//173 174//174 
f 175//175 171//171 174//174 

g Face_24
v 0.052136799 -0.09330837 -0.04135
v 0.051139239999999996 -0.09367724000000001 -0.04135
v 0.050314189999999995 -0.09434841000000001 -0.04135
v 0.049749999999999996 -0.09525 -0.04135000000000001
v 0.049749999999999996 -0.09325 -0.04017705
vn -0.133415 0.694407 -0.707107
vn -0.350454 0.614151 -0.707107
vn -0.529962 0.468124 -0.707107
vn -0.652714 0.271964 -0.707107
vn -0.479616 0.519584 -0.707107
f 180//180 176//176 177//177 
f 180//180 177//177 178//178 
f 180//180 178//178 179//179 

