mtllib Guide_cremaillere_Heures.mtl
usemtl Guide_cremaillere_Heures
#Wavefront export of shape 1-8-11-1--Guide_cremaillere_Heures

g Face_1
v 0.051250000000000004 -0.14875 -0.04135
v 0.051250000000000004 -0.15125 -0.04135
v 0.051250000000000004 -0.15301923 -0.040343739999999996
v 0.051250000000000004 -0.15301923 -0.028849999999999997
v 0.051250000000000004 -0.14698076999999998 -0.028849999999999997
v 0.051250000000000004 -0.14698076999999998 -0.040343739999999996
vn 1 -0 -2.08167e-16
vn 1 -0 -2.08167e-16
vn 1 -0 -2.08167e-16
vn 1 -0 -2.08167e-16
vn 1 -0 -2.08167e-16
vn 1 -0 -2.08167e-16
f 6//6 2//2 1//1 
f 6//6 3//3 2//2 
f 5//5 4//4 3//3 
f 5//5 3//3 6//6 

g Face_2
v 0.049236462 -0.14690333 -0.04135
v 0.047504306 -0.1468367 -0.04135
v 0.04656142 -0.1472231 -0.04135
v 0.045784530000000004 -0.14788247 -0.04135
v 0.04525 -0.14875 -0.04135000000000001
v 0.04525 -0.15125 -0.041350000000000095
v 0.045784530000000004 -0.15211753 -0.04135
v 0.04656142 -0.1527769 -0.04135
v 0.047504306 -0.1531633 -0.04135
v 0.049236462 -0.15309667 -0.04135
v 0.05007864 -0.15268674 -0.04135
v 0.050768930000000004 -0.15205366 -0.04135
v 0.051250000000000004 -0.15125 -0.04135
v 0.051250000000000004 -0.14875 -0.04135
v 0.050768930000000004 -0.14794633999999998 -0.04135
v 0.05007864 -0.14731326 -0.04135
v 0.051000000000000004 -0.15 -0.04135
v 0.049625 -0.14761843 -0.04135
v 0.046875 -0.14761843 -0.04135
v 0.0455 -0.15 -0.04135
v 0.046875 -0.15238157 -0.04135
v 0.049625 -0.15238157 -0.04135
vn -0 -0 -1
vn -0 -0 -1
vn -0 -0 -1
vn -0 -0 -1
vn -0 -0 -1
vn -0 -0 -1
vn -0 -0 -1
vn -0 -0 -1
vn -0 -0 -1
vn -0 -0 -1
vn -0 -0 -1
vn -0 -0 -1
vn -0 -0 -1
vn -0 -0 -1
vn -0 -0 -1
vn -0 -0 -1
vn -0 -0 -1
vn -0 -0 -1
vn -0 -0 -1
vn -0 -0 -1
vn -0 -0 -1
vn -0 -0 -1
f 27//27 13//13 12//12 
f 27//27 14//14 13//13 
f 27//27 15//15 14//14 
f 26//26 27//27 12//12 
f 11//11 26//26 12//12 
f 28//28 16//16 15//15 
f 28//28 15//15 27//27 
f 17//17 16//16 28//28 
f 18//18 17//17 28//28 
f 25//25 11//11 10//10 
f 25//25 26//26 11//11 
f 9//9 25//25 10//10 
f 19//19 18//18 28//28 
f 8//8 25//25 9//9 
f 23//23 19//19 28//28 
f 24//24 25//25 8//8 
f 7//7 24//24 8//8 
f 20//20 23//23 24//24 
f 20//20 19//19 23//23 
f 22//22 24//24 7//7 
f 21//21 20//20 24//24 
f 21//21 24//24 22//22 

g Face_3
v 0.04525 -0.14875 -0.04135000000000001
v 0.04525 -0.15125 -0.041350000000000095
v 0.04525 -0.14675 -0.04017705
v 0.04525 -0.14675 -0.02285
v 0.04525 -0.15325 -0.02285
v 0.04525 -0.15325 -0.04017705
vn -1 0 -0
vn -1 0 -0
vn -1 0 -0
vn -1 0 -0
vn -1 0 -0
vn -1 0 -0
f 31//31 29//29 30//30 
f 31//31 33//33 32//32 
f 31//31 34//34 33//33 
f 31//31 30//30 34//34 

g Face_4
v 0.047504306 -0.1531633 -0.04135
v 0.049236462 -0.15309667 -0.04135
v 0.04525 -0.15325 -0.04017705
v 0.04525 -0.15325 -0.02285
v 0.04629682 -0.15320973999999998 -0.02285
v 0.04590314 -0.15322488 -0.025310499999999996
v 0.04639686 -0.15320588999999998 -0.0253895
v 0.04680318 -0.15319026 -0.02285
v 0.08925 -0.15155769 -0.02285
v 0.08925 -0.15155769 -0.025349999999999998
v 0.09725 -0.15125 -0.025349999999999998
v 0.09725 -0.15125 -0.028849999999999997
v 0.051250000000000004 -0.15301923 -0.028849999999999997
v 0.051250000000000004 -0.15301923 -0.040343739999999996
vn 0.0384331 -0.999261 -0
vn 0.0384331 -0.999261 -0
vn 0.0384331 -0.999261 -0
vn 0.0384331 -0.999261 -0
vn 0.0384331 -0.999261 -0
vn 0.0384331 -0.999261 -0
vn 0.0384331 -0.999261 -0
vn 0.0384331 -0.999261 -0
vn 0.0384331 -0.999261 -0
vn 0.0384331 -0.999261 -0
vn 0.0384331 -0.999261 -0
vn 0.0384331 -0.999261 -0
vn 0.0384331 -0.999261 -0
vn 0.0384331 -0.999261 -0
f 44//44 46//46 45//45 
f 35//35 36//36 48//48 
f 37//37 35//35 48//48 
f 47//47 44//44 43//43 
f 47//47 37//37 48//48 
f 40//40 37//37 47//47 
f 40//40 47//47 41//41 
f 42//42 47//47 43//43 
f 42//42 41//41 47//47 
f 38//38 40//40 39//39 
f 38//38 37//37 40//40 
f 46//46 44//44 47//47 

g Face_5
v 0.049236462 -0.14690333 -0.04135
v 0.047504306 -0.1468367 -0.04135
v 0.051250000000000004 -0.14698076999999998 -0.040343739999999996
v 0.051250000000000004 -0.14698076999999998 -0.028849999999999997
v 0.09725 -0.14875 -0.028849999999999997
v 0.09725 -0.14875 -0.025349999999999998
v 0.08925 -0.14844231 -0.025349999999999998
v 0.08925 -0.14844231 -0.02285
v 0.04680318 -0.14680974 -0.02285
v 0.04639686 -0.14679411 -0.0253895
v 0.04590314 -0.14677511999999998 -0.025310499999999996
v 0.04629682 -0.14679026 -0.02285
v 0.04525 -0.14675 -0.02285
v 0.04525 -0.14675 -0.04017705
vn 0.0384331 0.999261 -0
vn 0.0384331 0.999261 -0
vn 0.0384331 0.999261 -0
vn 0.0384331 0.999261 -0
vn 0.0384331 0.999261 -0
vn 0.0384331 0.999261 -0
vn 0.0384331 0.999261 -0
vn 0.0384331 0.999261 -0
vn 0.0384331 0.999261 -0
vn 0.0384331 0.999261 -0
vn 0.0384331 0.999261 -0
vn 0.0384331 0.999261 -0
vn 0.0384331 0.999261 -0
vn 0.0384331 0.999261 -0
f 51//51 49//49 50//50 
f 51//51 50//50 62//62 
f 61//61 59//59 62//62 
f 52//52 59//59 58//58 
f 52//52 51//51 62//62 
f 52//52 62//62 59//59 
f 60//60 59//59 61//61 
f 57//57 52//52 58//58 
f 56//56 55//55 52//52 
f 56//56 52//52 57//57 
f 54//54 53//53 55//55 
f 52//52 55//55 53//53 

g Face_6
v 0.08925 -0.14844231 -0.02285
v 0.04680318 -0.14680974 -0.02285
v 0.08925 -0.15155769 -0.02285
v 0.04680318 -0.15319026 -0.02285
v 0.0585 -0.15 -0.02285
v 0.05725 -0.14875 -0.02285
v 0.056 -0.15 -0.02285
v 0.05725 -0.15125 -0.02285
vn -0 -0 1
vn -0 -0 1
vn -0 -0 1
vn -0 -0 1
vn -0 -0 1
vn -0 -0 1
vn -0 -0 1
vn -0 -0 1
f 67//67 65//65 63//63 
f 70//70 65//65 67//67 
f 68//68 67//67 63//63 
f 66//66 70//70 69//69 
f 66//66 65//65 70//70 
f 64//64 69//69 68//68 
f 64//64 66//66 69//69 
f 64//64 68//68 63//63 

g Face_7
v 0.051000000000000004 -0.15 -0.04595
v 0.049625 -0.14761843 -0.04595
v 0.046875 -0.14761843 -0.04595
v 0.0455 -0.15 -0.04595
v 0.046875 -0.15238157 -0.04595
v 0.049625 -0.15238157 -0.04595
v 0.051000000000000004 -0.15 -0.04595
v 0.051000000000000004 -0.15 -0.04135
v 0.051000000000000004 -0.15 -0.04135
v 0.049625 -0.14761843 -0.04135
v 0.046875 -0.14761843 -0.04135
v 0.0455 -0.15 -0.04135
v 0.046875 -0.15238157 -0.04135
v 0.049625 -0.15238157 -0.04135
vn 1 0 0
vn 0.5 0.866025 -0
vn -0.5 0.866025 0
vn -1 1.22465e-16 0
vn -0.5 -0.866025 0
vn 0.5 -0.866025 0
vn 1 -2.44929e-16 0
vn 1 -2.44929e-16 0
vn 1 0 0
vn 0.5 0.866025 -0
vn -0.5 0.866025 0
vn -1 1.22465e-16 0
vn -0.5 -0.866025 0
vn 0.5 -0.866025 0
f 80//80 71//71 72//72 
f 80//80 79//79 71//71 
f 81//81 72//72 73//73 
f 81//81 80//80 72//72 
f 82//82 73//73 74//74 
f 82//82 81//81 73//73 
f 83//83 74//74 75//75 
f 83//83 82//82 74//74 
f 84//84 75//75 76//76 
f 84//84 83//83 75//75 
f 78//78 76//76 77//77 
f 78//78 84//84 76//76 

g Face_8
v 0.0506 -0.15 -0.046349999999999995
v 0.04897619 -0.15223498 -0.046349999999999995
v 0.046348810000000004 -0.1513813 -0.046349999999999995
v 0.046348810000000004 -0.1486187 -0.046349999999999995
v 0.04897619 -0.14776502 -0.046349999999999995
vn -0 -0 -1
vn -0 -0 -1
vn -0 -0 -1
vn -0 -0 -1
vn -0 -0 -1
f 89//89 85//85 86//86 
f 89//89 86//86 87//87 
f 89//89 87//87 88//88 

g Face_9
v 0.0506 -0.15 -0.046349999999999995
v 0.04897619 -0.15223498 -0.046349999999999995
v 0.046348810000000004 -0.1513813 -0.046349999999999995
v 0.046348810000000004 -0.1486187 -0.046349999999999995
v 0.04897619 -0.14776502 -0.046349999999999995
v 0.0506 -0.15 -0.046349999999999995
v 0.051000000000000004 -0.15 -0.04595
v 0.051000000000000004 -0.15 -0.04595
v 0.049625 -0.14761843 -0.04595
v 0.046875 -0.14761843 -0.04595
v 0.0455 -0.15 -0.04595
v 0.046875 -0.15238157 -0.04595
v 0.049625 -0.15238157 -0.04595
vn 0.707107 -1.73191e-16 -0.707107
vn 0.218508 -0.672499 -0.707107
vn -0.572061 -0.415627 -0.707107
vn -0.572061 0.415627 -0.707107
vn 0.218508 0.672499 -0.707107
vn 0.707107 0 -0.707107
vn 0.707107 -1.73191e-16 -0.707107
vn 0.707107 0 -0.707107
vn 0.353553 0.612372 -0.707107
vn -0.353553 0.612372 -0.707107
vn -0.707107 8.65956e-17 -0.707107
vn -0.353553 -0.612372 -0.707107
vn 0.353553 -0.612372 -0.707107
f 98//98 95//95 94//94 
f 98//98 97//97 95//95 
f 99//99 98//98 94//94 
f 93//93 99//99 94//94 
f 100//100 99//99 93//93 
f 92//92 100//100 93//93 
f 101//101 100//100 92//92 
f 91//91 101//101 92//92 
f 102//102 101//101 91//91 
f 90//90 102//102 91//91 
f 96//96 102//102 90//90 

g Face_10
v 0.04525 -0.14675 -0.02285
v 0.04525 -0.15325 -0.02285
v 0.04629682 -0.14679026 -0.02285
v 0.04629682 -0.15320973999999998 -0.02285
vn -0 -0 1
vn -0 -0 1
vn -0 -0 1
vn -0 -0 1
f 103//103 106//106 105//105 
f 103//103 104//104 106//106 

g Face_11
v 0.08925 -0.14844231 -0.025349999999999998
v 0.08925 -0.14844231 -0.02285
v 0.08925 -0.15155769 -0.025349999999999998
v 0.08925 -0.15155769 -0.02285
vn 1 -0 -0
vn 1 -0 -0
vn 1 -0 -0
vn 1 -0 -0
f 108//108 109//109 107//107 
f 108//108 110//110 109//109 

g Face_12
v 0.09725 -0.14875 -0.025349999999999998
v 0.08925 -0.14844231 -0.025349999999999998
v 0.09725 -0.15125 -0.025349999999999998
v 0.08925 -0.15155769 -0.025349999999999998
vn -0 -0 1
vn -0 -0 1
vn -0 -0 1
vn -0 -0 1
f 112//112 113//113 111//111 
f 112//112 114//114 113//113 

g Face_13
v 0.09725 -0.14875 -0.025349999999999998
v 0.09725 -0.14875 -0.028849999999999997
v 0.09725 -0.15125 -0.028849999999999997
v 0.09725 -0.15125 -0.025349999999999998
vn 1 -0 -0
vn 1 -0 -0
vn 1 -0 -0
vn 1 -0 -0
f 115//115 117//117 116//116 
f 115//115 118//118 117//117 

g Face_14
v 0.051250000000000004 -0.14698076999999998 -0.028849999999999997
v 0.09725 -0.14875 -0.028849999999999997
v 0.051250000000000004 -0.15301923 -0.028849999999999997
v 0.09725 -0.15125 -0.028849999999999997
v 0.0585 -0.15 -0.028849999999999997
v 0.05725 -0.14875 -0.028849999999999997
v 0.056 -0.15 -0.028849999999999997
v 0.05725 -0.15125 -0.028849999999999997
vn -7.54228e-17 0 -1
vn -7.54228e-17 0 -1
vn -7.54228e-17 0 -1
vn -7.54228e-17 0 -1
vn -7.54228e-17 0 -1
vn -7.54228e-17 0 -1
vn -7.54228e-17 0 -1
vn -7.54228e-17 0 -1
f 125//125 121//121 119//119 
f 125//125 126//126 121//121 
f 124//124 125//125 119//119 
f 122//122 126//126 123//123 
f 122//122 121//121 126//126 
f 120//120 123//123 124//124 
f 120//120 122//122 123//123 
f 120//120 124//124 119//119 

g Face_15
v 0.04590314 -0.15322488 -0.025310499999999996
v 0.04629682 -0.15320973999999998 -0.02285
v 0.04629682 -0.14679026 -0.02285
v 0.04590314 -0.14677511999999998 -0.025310499999999996
vn 0.987441 -0 -0.157991
vn 0.987441 -0 -0.157991
vn 0.987441 -0 -0.157991
vn 0.987441 -0 -0.157991
f 129//129 128//128 127//127 
f 129//129 127//127 130//130 

g Face_16
v 0.04590314 -0.15322488 -0.025310499999999996
v 0.04639686 -0.15320588999999998 -0.0253895
v 0.04639686 -0.14679411 -0.0253895
v 0.04590314 -0.14677511999999998 -0.025310499999999996
vn 0.157991 -0 0.987441
vn 0.157991 -0 0.987441
vn 0.157991 -0 0.987441
vn 0.157991 -0 0.987441
f 133//133 131//131 132//132 
f 133//133 134//134 131//131 

g Face_17
v 0.04639686 -0.15320588999999998 -0.0253895
v 0.04680318 -0.15319026 -0.02285
v 0.04680318 -0.14680974 -0.02285
v 0.04639686 -0.14679411 -0.0253895
vn -0.987441 0 0.157991
vn -0.987441 0 0.157991
vn -0.987441 0 0.157991
vn -0.987441 0 0.157991
f 137//137 135//135 136//136 
f 137//137 138//138 135//135 

g Face_18
v 0.0585 -0.15 -0.02285
v 0.05725 -0.14875 -0.02285
v 0.056 -0.15 -0.02285
v 0.05725 -0.15125 -0.02285
v 0.0585 -0.15 -0.02285
v 0.0585 -0.15 -0.028849999999999997
v 0.05725 -0.14875 -0.028849999999999997
v 0.056 -0.15 -0.028849999999999997
v 0.05725 -0.15125 -0.028849999999999997
v 0.0585 -0.15 -0.028849999999999997
vn -1 -0 -0
vn -6.12323e-17 -1 0
vn 1 -1.22465e-16 -0
vn 1.83697e-16 1 -0
vn -1 2.44929e-16 -0
vn -1 -0 -0
vn -6.12323e-17 -1 0
vn 1 -1.22465e-16 -0
vn 1.83697e-16 1 -0
vn -1 2.44929e-16 -0
f 140//140 144//144 139//139 
f 140//140 145//145 144//144 
f 141//141 146//146 145//145 
f 141//141 145//145 140//140 
f 142//142 147//147 146//146 
f 142//142 146//146 141//141 
f 143//143 148//148 147//147 
f 143//143 147//147 142//142 

g Face_19
v 0.051250000000000004 -0.14698076999999998 -0.040343739999999996
v 0.051250000000000004 -0.14875 -0.04135
v 0.050768930000000004 -0.14794633999999998 -0.04135
v 0.05007864 -0.14731326 -0.04135
v 0.049236462 -0.14690333 -0.04135
vn 0.4984 0.501595 -0.707107
vn 0.652714 0.271964 -0.707107
vn 0.548046 0.446817 -0.707107
vn 0.397859 0.584558 -0.707107
vn 0.214626 0.673748 -0.707107
f 149//149 150//150 151//151 
f 149//149 151//151 152//152 
f 153//153 149//149 152//152 

g Face_20
v 0.047504306 -0.1468367 -0.04135
v 0.04656142 -0.1472231 -0.04135
v 0.045784530000000004 -0.14788247 -0.04135
v 0.04525 -0.14875 -0.04135000000000001
v 0.04525 -0.14675 -0.04017705
vn -0.162242 0.688242 -0.707107
vn -0.367387 0.604175 -0.707107
vn -0.536416 0.460714 -0.707107
vn -0.652714 0.271964 -0.707107
vn -0.479616 0.519584 -0.707107
f 158//158 154//154 155//155 
f 158//158 155//155 156//156 
f 158//158 156//156 157//157 

g Face_21
v 0.04525 -0.15125 -0.041350000000000095
v 0.045784530000000004 -0.15211753 -0.04135
v 0.04656142 -0.1527769 -0.04135
v 0.047504306 -0.1531633 -0.04135
v 0.04525 -0.15325 -0.04017705
vn -0.652714 -0.271964 -0.707107
vn -0.536416 -0.460714 -0.707107
vn -0.367387 -0.604175 -0.707107
vn -0.162242 -0.688242 -0.707107
vn -0.479616 -0.519584 -0.707107
f 163//163 159//159 160//160 
f 163//163 160//160 161//161 
f 162//162 163//163 161//161 

g Face_22
v 0.051250000000000004 -0.15125 -0.04135
v 0.051250000000000004 -0.15301923 -0.040343739999999996
v 0.049236462 -0.15309667 -0.04135
v 0.05007864 -0.15268674 -0.04135
v 0.050768930000000004 -0.15205366 -0.04135
vn 0.652714 -0.271964 -0.707107
vn 0.4984 -0.501595 -0.707107
vn 0.214626 -0.673748 -0.707107
vn 0.397859 -0.584558 -0.707107
vn 0.548046 -0.446817 -0.707107
f 165//165 166//166 167//167 
f 165//165 167//167 168//168 
f 164//164 165//165 168//168 

