mtllib Invereur_-_plaque.mtl
usemtl Invereur_-_plaque
#Wavefront export of shape 1-48-1--Invereur_-_plaque

g Face_1
v 0.07156784549999999 -0.08361617149999999 -0.1432
v 0.07156784549999999 -0.08361617149999999 -0.1412
v 0.07241190909999999 -0.08351589019999998 -0.1412
v 0.07241190909999999 -0.08351589019999998 -0.1432
vn 1.54424e-42 -1 6.13986e-30
vn 1.54424e-42 -1 6.13986e-30
vn 1.54424e-42 -1 6.13986e-30
vn 1.54424e-42 -1 6.13986e-30
f 3//3 2//2 1//1 
f 3//3 1//1 4//4 

g Face_2
v 0.075089613 -0.08274459349999999 -0.1432
v 0.073569625027752 -0.08225640943928399 -0.1432
v 0.071984330592648 -0.082444754709516 -0.1432
v 0.070621041 -0.08327549449999999 -0.1432
v 0.070621041 -0.08327549449999999 -0.1412
v 0.075089613 -0.08274459349999999 -0.1412
v 0.073569625027752 -0.08225640943928399 -0.1412
v 0.071984330592648 -0.082444754709516 -0.1412
vn 0.6 0.8 -5.23233e-30
vn 0.212859 0.977083 -6.11284e-30
vn -0.212859 0.977083 -5.88548e-30
vn -0.6 0.8 -4.59145e-30
vn -0.6 0.8 -4.59145e-30
vn 0.6 0.8 -5.23233e-30
vn 0.212859 0.977083 -6.11284e-30
vn -0.212859 0.977083 -5.88548e-30
f 7//7 8//8 9//9 
f 7//7 9//9 12//12 
f 6//6 12//12 11//11 
f 6//6 7//7 12//12 
f 5//5 11//11 10//10 
f 5//5 6//6 11//11 

g Face_3
v 0.070621041 -0.08327549449999999 -0.1432
v 0.06893685698388 -0.09764806333846 -0.1432
v 0.069514842 -0.11210735149999994 -0.1432
v 0.07234087621787999 -0.12629955398645998 -0.1432
v 0.077345787 -0.13987740649999997 -0.1432
v 0.077345787 -0.13987740649999997 -0.1412
v 0.070621041 -0.08327549449999999 -0.1412
v 0.06893685698388 -0.09764806333846 -0.1412
v 0.069514842 -0.11210735149999994 -0.1412
v 0.07234087621787999 -0.12629955398645998 -0.1412
vn -0.951351 0.308108 -1.38366e-30
vn -0.987763 0.155963 -4.30062e-31
vn -1 4.44089e-16 5.34063e-31
vn -0.987763 -0.155963 1.48512e-30
vn -0.951351 -0.308108 2.39982e-30
vn -0.951351 -0.308108 2.39982e-30
vn -0.951351 0.308108 -1.38366e-30
vn -0.987763 0.155963 -4.30062e-31
vn -1 8.88178e-16 5.34063e-31
vn -0.987763 -0.155963 1.48512e-30
f 16//16 17//17 18//18 
f 16//16 18//18 22//22 
f 15//15 22//22 21//21 
f 15//15 16//16 22//22 
f 14//14 21//21 20//20 
f 14//14 15//15 21//21 
f 13//13 20//20 19//19 
f 13//13 14//14 20//20 

g Face_4
v 0.077345787 -0.13987740649999997 -0.1432
v 0.078865774972248 -0.14036559056071599 -0.1432
v 0.080451069407352 -0.140177245290484 -0.1432
v 0.081814359 -0.1393465055 -0.1432
v 0.081814359 -0.1393465055 -0.1412
v 0.077345787 -0.13987740649999997 -0.1412
v 0.078865774972248 -0.14036559056071599 -0.1412
v 0.080451069407352 -0.140177245290484 -0.1412
vn -0.6 -0.8 5.23233e-30
vn -0.212859 -0.977083 6.11284e-30
vn 0.212859 -0.977083 5.88548e-30
vn 0.6 -0.8 4.59145e-30
vn 0.6 -0.8 4.59145e-30
vn -0.6 -0.8 5.23233e-30
vn -0.212859 -0.977083 6.11284e-30
vn 0.212859 -0.977083 5.88548e-30
f 25//25 26//26 27//27 
f 25//25 27//27 30//30 
f 24//24 30//30 29//29 
f 24//24 25//25 30//30 
f 23//23 29//29 28//28 
f 23//23 24//24 29//29 

g Face_5
v 0.081814359 -0.1393465055 -0.1432
v 0.08349854301612 -0.12497393666153998 -0.1432
v 0.082920558 -0.1105146485 -0.1432
v 0.08009452378212001 -0.09632244601354 -0.1432
v 0.075089613 -0.08274459349999999 -0.1432
v 0.075089613 -0.08274459349999999 -0.1412
v 0.081814359 -0.1393465055 -0.1412
v 0.08349854301612 -0.12497393666153998 -0.1412
v 0.082920558 -0.1105146485 -0.1412
v 0.08009452378212001 -0.09632244601354 -0.1412
vn 0.951351 -0.308108 1.38366e-30
vn 0.987763 -0.155963 4.30062e-31
vn 1 1.22465e-16 -5.34063e-31
vn 0.987763 0.155963 -1.48512e-30
vn 0.951351 0.308108 -2.39982e-30
vn 0.951351 0.308108 -2.39982e-30
vn 0.951351 -0.308108 1.38366e-30
vn 0.987763 -0.155963 4.30062e-31
vn 1 1.22465e-16 -5.34063e-31
vn 0.987763 0.155963 -1.48512e-30
f 34//34 35//35 36//36 
f 34//34 36//36 40//40 
f 33//33 40//40 39//39 
f 33//33 34//34 40//40 
f 32//32 39//39 38//38 
f 32//32 33//33 39//39 
f 31//31 38//38 37//37 
f 31//31 32//32 38//38 

g Face_6
v 0.081814359 -0.1393465055 -0.1412
v 0.08349854301612 -0.12497393666153998 -0.1412
v 0.082920558 -0.1105146485 -0.1412
v 0.08009452378212001 -0.09632244601354 -0.1412
v 0.075089613 -0.08274459349999999 -0.1412
v 0.077345787 -0.13987740649999997 -0.1412
v 0.078865774972248 -0.14036559056071599 -0.1412
v 0.080451069407352 -0.140177245290484 -0.1412
v 0.070621041 -0.08327549449999999 -0.1412
v 0.06893685698388 -0.09764806333846 -0.1412
v 0.069514842 -0.11210735149999994 -0.1412
v 0.07234087621787999 -0.12629955398645998 -0.1412
v 0.073569625027752 -0.08225640943928399 -0.1412
v 0.071984330592648 -0.082444754709516 -0.1412
v 0.07156784549999999 -0.08361617149999999 -0.1412
v 0.07369144949999999 -0.10149045949999999 -0.1412
v 0.0763725927 -0.10117191889999999 -0.1412
v 0.0742489887 -0.08329763089999999 -0.1412
v 0.0734049251 -0.0833979122 -0.1412
v 0.07282583249999999 -0.08276178999999999 -0.1412
v 0.07241190909999999 -0.08351589019999998 -0.1412
v 0.0808631355 -0.13769721099999999 -0.1412
v 0.0791966445 -0.136384654 -0.1412
v 0.07788408749999999 -0.138051145 -0.1412
v 0.0795505785 -0.139363702 -0.1412
v 0.0804773095 -0.1196164615 -0.1412
v 0.07853159998076 -0.11701325277671999 -0.1412
v 0.07530429798076001 -0.11739668127672 -0.1412
v 0.0740227055 -0.1203833185 -0.1412
v 0.0759684173788 -0.12298654708359999 -0.1412
v 0.07919571937879999 -0.12260311858359998 -0.1412
vn 5.34063e-31 6.13986e-30 1
vn 5.34063e-31 6.13986e-30 1
vn 5.34063e-31 6.13986e-30 1
vn 5.34063e-31 6.13986e-30 1
vn 5.34063e-31 6.13986e-30 1
vn 5.34063e-31 6.13986e-30 1
vn 5.34063e-31 6.13986e-30 1
vn 5.34063e-31 6.13986e-30 1
vn 5.34063e-31 6.13986e-30 1
vn 5.34063e-31 6.13986e-30 1
vn 5.34063e-31 6.13986e-30 1
vn 5.34063e-31 6.13986e-30 1
vn 5.34063e-31 6.13986e-30 1
vn 5.34063e-31 6.13986e-30 1
vn 5.34063e-31 6.13986e-30 1
vn 5.34063e-31 6.13986e-30 1
vn 5.34063e-31 6.13986e-30 1
vn 5.34063e-31 6.13986e-30 1
vn 5.34063e-31 6.13986e-30 1
vn 5.34063e-31 6.13986e-30 1
vn 5.34063e-31 6.13986e-30 1
vn 5.34063e-31 6.13986e-30 1
vn 5.34063e-31 6.13986e-30 1
vn 5.34063e-31 6.13986e-30 1
vn 5.34063e-31 6.13986e-30 1
vn 5.34063e-31 6.13986e-30 1
vn 5.34063e-31 6.13986e-30 1
vn 5.34063e-31 6.13986e-30 1
vn 5.34063e-31 6.13986e-30 1
vn 5.34063e-31 6.13986e-30 1
vn 5.34063e-31 6.13986e-30 1
f 65//65 47//47 48//48 
f 65//65 48//48 41//41 
f 62//62 65//65 41//41 
f 46//46 47//47 65//65 
f 64//64 46//46 65//65 
f 42//42 63//63 62//62 
f 42//42 62//62 41//41 
f 66//66 71//71 42//42 
f 52//52 64//64 63//63 
f 52//52 71//71 70//70 
f 52//52 63//63 42//42 
f 52//52 46//46 64//64 
f 52//52 42//42 71//71 
f 43//43 67//67 66//66 
f 43//43 66//66 42//42 
f 69//69 52//52 70//70 
f 51//51 68//68 67//67 
f 51//51 69//69 68//68 
f 51//51 67//67 43//43 
f 51//51 52//52 69//69 
f 44//44 57//57 43//43 
f 56//56 51//51 43//43 
f 56//56 43//43 57//57 
f 50//50 51//51 56//56 
f 58//58 44//44 45//45 
f 53//53 59//59 58//58 
f 53//53 58//58 45//45 
f 60//60 59//59 53//53 
f 54//54 61//61 60//60 
f 54//54 55//55 61//61 
f 54//54 60//60 53//53 
f 49//49 50//50 55//55 
f 49//49 55//55 54//54 
f 55//55 50//50 56//56 
f 57//57 44//44 58//58 

g Face_7
v 0.075089613 -0.08274459349999999 -0.1432
v 0.073569625027752 -0.08225640943928399 -0.1432
v 0.071984330592648 -0.082444754709516 -0.1432
v 0.070621041 -0.08327549449999999 -0.1432
v 0.081814359 -0.1393465055 -0.1432
v 0.08349854301612 -0.12497393666153998 -0.1432
v 0.082920558 -0.1105146485 -0.1432
v 0.08009452378212001 -0.09632244601354 -0.1432
v 0.077345787 -0.13987740649999997 -0.1432
v 0.078865774972248 -0.14036559056071599 -0.1432
v 0.080451069407352 -0.140177245290484 -0.1432
v 0.06893685698388 -0.09764806333846 -0.1432
v 0.069514842 -0.11210735149999994 -0.1432
v 0.07234087621787999 -0.12629955398645998 -0.1432
v 0.0776854843 -0.1380747406 -0.1432
v 0.0795741741 -0.1395623052 -0.1432
v 0.0810617387 -0.13767361539999998 -0.1432
v 0.0791730489 -0.13618605079999999 -0.1432
v 0.07282583249999999 -0.08276178999999999 -0.1432
v 0.07241190909999999 -0.08351589019999998 -0.1432
v 0.07156784549999999 -0.08361617149999999 -0.1432
v 0.07369144949999999 -0.10149045949999999 -0.1432
v 0.0763725927 -0.10117191889999999 -0.1432
v 0.0742489887 -0.08329763089999999 -0.1432
v 0.0734049251 -0.0833979122 -0.1432
v 0.0804773095 -0.1196164615 -0.1432
v 0.07853159998076 -0.11701325277671999 -0.1432
v 0.07530429798076001 -0.11739668127672 -0.1432
v 0.0740227055 -0.1203833185 -0.1432
v 0.0759684173788 -0.12298654708359999 -0.1432
v 0.07919571937879999 -0.12260311858359998 -0.1432
vn -5.34063e-31 -6.13986e-30 -1
vn -5.34063e-31 -6.13986e-30 -1
vn -5.34063e-31 -6.13986e-30 -1
vn -5.34063e-31 -6.13986e-30 -1
vn -5.34063e-31 -6.13986e-30 -1
vn -5.34063e-31 -6.13986e-30 -1
vn -5.34063e-31 -6.13986e-30 -1
vn -5.34063e-31 -6.13986e-30 -1
vn -5.34063e-31 -6.13986e-30 -1
vn -5.34063e-31 -6.13986e-30 -1
vn -5.34063e-31 -6.13986e-30 -1
vn -5.34063e-31 -6.13986e-30 -1
vn -5.34063e-31 -6.13986e-30 -1
vn -5.34063e-31 -6.13986e-30 -1
vn -5.34063e-31 -6.13986e-30 -1
vn -5.34063e-31 -6.13986e-30 -1
vn -5.34063e-31 -6.13986e-30 -1
vn -5.34063e-31 -6.13986e-30 -1
vn -5.34063e-31 -6.13986e-30 -1
vn -5.34063e-31 -6.13986e-30 -1
vn -5.34063e-31 -6.13986e-30 -1
vn -5.34063e-31 -6.13986e-30 -1
vn -5.34063e-31 -6.13986e-30 -1
vn -5.34063e-31 -6.13986e-30 -1
vn -5.34063e-31 -6.13986e-30 -1
vn -5.34063e-31 -6.13986e-30 -1
vn -5.34063e-31 -6.13986e-30 -1
vn -5.34063e-31 -6.13986e-30 -1
vn -5.34063e-31 -6.13986e-30 -1
vn -5.34063e-31 -6.13986e-30 -1
vn -5.34063e-31 -6.13986e-30 -1
f 87//87 76//76 82//82 
f 88//88 76//76 87//87 
f 81//81 87//87 82//82 
f 80//80 87//87 81//81 
f 86//86 87//87 80//80 
f 77//77 88//88 89//89 
f 77//77 76//76 88//88 
f 97//97 77//77 102//102 
f 85//85 89//89 86//86 
f 85//85 101//101 102//102 
f 85//85 77//77 89//89 
f 85//85 86//86 80//80 
f 85//85 102//102 77//77 
f 78//78 97//97 98//98 
f 78//78 77//77 97//97 
f 100//100 101//101 85//85 
f 84//84 98//98 99//99 
f 84//84 99//99 100//100 
f 84//84 78//78 98//98 
f 84//84 100//100 85//85 
f 79//79 78//78 94//94 
f 93//93 78//78 84//84 
f 93//93 94//94 78//78 
f 83//83 93//93 84//84 
f 95//95 72//72 79//79 
f 73//73 95//95 96//96 
f 73//73 72//72 95//95 
f 90//90 73//73 96//96 
f 74//74 90//90 91//91 
f 74//74 91//91 92//92 
f 74//74 73//73 90//90 
f 75//75 92//92 83//83 
f 75//75 74//74 92//92 
f 92//92 93//93 83//83 
f 94//94 95//95 79//79 

g Face_8
v 0.0804773095 -0.1196164615 -0.1432
v 0.07853159998076 -0.11701325277671999 -0.1432
v 0.07530429798076001 -0.11739668127672 -0.1432
v 0.0740227055 -0.1203833185 -0.1432
v 0.0759684173788 -0.12298654708359999 -0.1432
v 0.07919571937879999 -0.12260311858359998 -0.1432
v 0.0804773095 -0.1196164615 -0.1432
v 0.0804773095 -0.1196164615 -0.1412
v 0.0804773095 -0.1196164615 -0.1412
v 0.07853159998076 -0.11701325277671999 -0.1412
v 0.07530429798076001 -0.11739668127672 -0.1412
v 0.0740227055 -0.1203833185 -0.1412
v 0.0759684173788 -0.12298654708359999 -0.1412
v 0.07919571937879999 -0.12260311858359998 -0.1412
vn -1 -1.54424e-42 5.34063e-31
vn -0.5 -0.866025 5.58431e-30
vn 0.5 -0.866025 5.05025e-30
vn 1 -1.22465e-16 -5.34063e-31
vn 0.5 0.866025 -5.58431e-30
vn -0.5 0.866025 -5.05025e-30
vn -1 2.44929e-16 5.34063e-31
vn -1 2.44929e-16 5.34063e-31
vn -1 -1.54424e-42 5.34063e-31
vn -0.5 -0.866025 5.58431e-30
vn 0.5 -0.866025 5.05025e-30
vn 1 -1.22465e-16 -5.34063e-31
vn 0.5 0.866025 -5.58431e-30
vn -0.5 0.866025 -5.05025e-30
f 112//112 104//104 103//103 
f 112//112 103//103 111//111 
f 113//113 105//105 104//104 
f 113//113 104//104 112//112 
f 114//114 106//106 105//105 
f 114//114 105//105 113//113 
f 115//115 107//107 106//106 
f 115//115 106//106 114//114 
f 116//116 108//108 107//107 
f 116//116 107//107 115//115 
f 110//110 109//109 108//108 
f 110//110 108//108 116//116 

g Face_9
v 0.0808631355 -0.13769721099999999 -0.143
v 0.08027162692199999 -0.139075622284 -0.143
v 0.078782102922 -0.13925258928399997 -0.143
v 0.07788408749999999 -0.138051145 -0.143
v 0.0808631355 -0.13769721099999999 -0.1412
v 0.0808631355 -0.13769721099999999 -0.1412
v 0.0791966445 -0.136384654 -0.1412
v 0.07788408749999999 -0.138051145 -0.1412
v 0.0795505785 -0.139363702 -0.1412
v 0.0808631355 -0.13769721099999999 -0.143
v 0.078475596078 -0.13667273371599997 -0.143
v 0.079965120078 -0.136495766716 -0.143
vn -1 2.44929e-16 5.34063e-31
vn -0.5 0.866025 -5.05025e-30
vn 0.5 0.866025 -5.58431e-30
vn 1 -1.22465e-16 -5.34063e-31
vn -1 2.44929e-16 5.34063e-31
vn -1 -1.54424e-42 5.34063e-31
vn -6.12323e-17 -1 6.13986e-30
vn 1 -1.22465e-16 -5.34063e-31
vn 1.83697e-16 1 -6.13986e-30
vn -1 -1.54424e-42 5.34063e-31
vn 0.5 -0.866025 5.05025e-30
vn -0.5 -0.866025 5.58431e-30
f 122//122 128//128 126//126 
f 123//123 127//127 128//128 
f 123//123 128//128 122//122 
f 124//124 119//119 120//120 
f 124//124 120//120 127//127 
f 124//124 127//127 123//123 
f 125//125 118//118 119//119 
f 125//125 119//119 124//124 
f 121//121 117//117 118//118 
f 121//121 118//118 125//125 

g Face_10
v 0.0763725927 -0.10117191889999999 -0.1432
v 0.0763725927 -0.10117191889999999 -0.1412
v 0.0742489887 -0.08329763089999999 -0.1432
v 0.0742489887 -0.08329763089999999 -0.1412
vn -1 -1.54424e-42 5.34063e-31
vn -1 -1.54424e-42 5.34063e-31
vn -1 -1.54424e-42 5.34063e-31
vn -1 -1.54424e-42 5.34063e-31
f 131//131 129//129 130//130 
f 131//131 130//130 132//132 

g Face_11
v 0.07369144949999999 -0.10149045949999999 -0.1432
v 0.07369144949999999 -0.10149045949999999 -0.1412
v 0.0763725927 -0.10117191889999999 -0.1432
v 0.0763725927 -0.10117191889999999 -0.1412
vn -1.54424e-42 1 -6.13986e-30
vn -1.54424e-42 1 -6.13986e-30
vn -1.54424e-42 1 -6.13986e-30
vn -1.54424e-42 1 -6.13986e-30
f 135//135 133//133 134//134 
f 135//135 134//134 136//136 

g Face_12
v 0.07156784549999999 -0.08361617149999999 -0.1432
v 0.07156784549999999 -0.08361617149999999 -0.1412
v 0.07369144949999999 -0.10149045949999999 -0.1432
v 0.07369144949999999 -0.10149045949999999 -0.1412
vn 1 1.54424e-42 -5.34063e-31
vn 1 1.54424e-42 -5.34063e-31
vn 1 1.54424e-42 -5.34063e-31
vn 1 1.54424e-42 -5.34063e-31
f 138//138 139//139 137//137 
f 138//138 140//140 139//139 

g Face_13
v 0.0742489887 -0.08329763089999999 -0.1432
v 0.0742489887 -0.08329763089999999 -0.1412
v 0.0734049251 -0.0833979122 -0.1432
v 0.0734049251 -0.0833979122 -0.1412
vn 1.54424e-42 -1 6.13986e-30
vn 1.54424e-42 -1 6.13986e-30
vn 1.54424e-42 -1 6.13986e-30
vn 1.54424e-42 -1 6.13986e-30
f 142//142 143//143 141//141 
f 142//142 144//144 143//143 

g Face_14
v 0.07282583249999999 -0.08276178999999999 -0.1432
v 0.07282583249999999 -0.08276178999999999 -0.1412
v 0.07241190909999999 -0.08351589019999998 -0.1432
v 0.07241190909999999 -0.08351589019999998 -0.1412
vn 0.813733 -0.581238 3.13414e-30
vn 0.813733 -0.581238 3.13414e-30
vn 0.813733 -0.581238 3.13414e-30
vn 0.813733 -0.581238 3.13414e-30
f 148//148 145//145 146//146 
f 148//148 147//147 145//145 

g Face_15
v 0.0734049251 -0.0833979122 -0.1432
v 0.0734049251 -0.0833979122 -0.1412
v 0.07282583249999999 -0.08276178999999999 -0.1432
v 0.07282583249999999 -0.08276178999999999 -0.1412
vn -0.813733 -0.581238 4.00331e-30
vn -0.813733 -0.581238 4.00331e-30
vn -0.813733 -0.581238 4.00331e-30
vn -0.813733 -0.581238 4.00331e-30
f 152//152 149//149 150//150 
f 152//152 151//151 149//149 

g Face_16
v 0.0808631355 -0.13769721099999999 -0.143
v 0.08027162692199999 -0.139075622284 -0.143
v 0.078782102922 -0.13925258928399997 -0.143
v 0.07788408749999999 -0.138051145 -0.143
v 0.0776854843 -0.1380747406 -0.1432
v 0.0795741741 -0.1395623052 -0.1432
v 0.0810617387 -0.13767361539999998 -0.1432
v 0.0791730489 -0.13618605079999999 -0.1432
v 0.0776854843 -0.1380747406 -0.1432
v 0.07788408749999999 -0.138051145 -0.143
v 0.078475596078 -0.13667273371599997 -0.143
v 0.079965120078 -0.136495766716 -0.143
vn -0.707107 -8.65956e-17 -0.707107
vn -0.353553 0.612372 -0.707107
vn 0.353553 0.612372 -0.707107
vn 0.707107 1.73191e-16 -0.707107
vn 0.707107 1.73191e-16 -0.707107
vn -1.29893e-16 0.707107 -0.707107
vn -0.707107 -8.65956e-17 -0.707107
vn 4.32978e-17 -0.707107 -0.707107
vn 0.707107 -4.34154e-30 -0.707107
vn 0.707107 -4.34154e-30 -0.707107
vn 0.353553 -0.612372 -0.707107
vn -0.353553 -0.612372 -0.707107
f 163//163 162//162 161//161 
f 160//160 163//163 161//161 
f 164//164 163//163 160//160 
f 159//159 153//153 164//164 
f 159//159 164//164 160//160 
f 154//154 153//153 159//159 
f 158//158 154//154 159//159 
f 155//155 154//154 158//158 
f 157//157 156//156 155//155 
f 157//157 155//155 158//158 

