mtllib Lame_instance_1.mtl
usemtl Lame_instance_1
#Wavefront export of shape 1-79--Lame

g Face_1
v 0.1380687 -0.006498800000000008 -0.006874999999999999
v 0.1380687 -0.006498800000000007 -0.0041249999999999985
v 0.1381841 -0.010997320000000007 -0.006874999999999999
v 0.1381841 -0.010997320000000007 -0.0041249999999999985
v 0.1381187 -0.008448160000000007 -0.005499999999999999
v 0.1381322 -0.008972990000000007 -0.005803108999999999
v 0.1381322 -0.008972990000000007 -0.005196890999999999
vn 0.999671 0.0256653 -3.91795e-18
vn 0.999671 0.0256653 -3.91795e-18
vn 0.999671 0.0256653 -3.91795e-18
vn 0.999671 0.0256653 -3.91795e-18
vn 0.999671 0.0256653 -3.91795e-18
vn 0.999671 0.0256653 -3.91795e-18
vn 0.999671 0.0256653 -3.91795e-18
f 6//6 4//4 3//3 
f 6//6 7//7 4//4 
f 2//2 7//7 5//5 
f 2//2 4//4 7//7 
f 1//1 5//5 6//6 
f 1//1 2//2 5//5 
f 1//1 6//6 3//3 

g Face_2
v 0.13813419999999998 -0.010998600000000008 -0.0041249999999999985
v 0.1381841 -0.010997320000000007 -0.0041249999999999985
v 0.13813419999999998 -0.010998600000000008 -0.006874999999999999
v 0.1381841 -0.010997320000000007 -0.006874999999999999
vn 0.0256653 -0.999671 1.52605e-16
vn 0.0256653 -0.999671 1.52605e-16
vn 0.0256653 -0.999671 1.52605e-16
vn 0.0256653 -0.999671 1.52605e-16
f 10//10 9//9 8//8 
f 10//10 11//11 9//9 

g Face_3
v 0.1380187 -0.006500090000000006 -0.0041249999999999985
v 0.13813419999999998 -0.010998600000000008 -0.0041249999999999985
v 0.1380187 -0.006500090000000007 -0.006874999999999999
v 0.13813419999999998 -0.010998600000000008 -0.006874999999999999
v 0.1380687 -0.008449440000000006 -0.005499999999999999
v 0.1380822 -0.008974270000000006 -0.005803108999999999
v 0.1380822 -0.008974270000000006 -0.005196890999999999
vn -0.999671 -0.0256653 3.91795e-18
vn -0.999671 -0.0256653 3.91795e-18
vn -0.999671 -0.0256653 3.91795e-18
vn -0.999671 -0.0256653 3.91795e-18
vn -0.999671 -0.0256653 3.91795e-18
vn -0.999671 -0.0256653 3.91795e-18
vn -0.999671 -0.0256653 3.91795e-18
f 17//17 15//15 13//13 
f 17//17 13//13 18//18 
f 12//12 16//16 18//18 
f 12//12 18//18 13//13 
f 14//14 17//17 16//16 
f 14//14 16//16 12//12 
f 14//14 15//15 17//17 

g Face_4
v 0.13797500000000001 -0.0031000038000000064 -0.004125
v 0.1380187 -0.006500090000000006 -0.0041249999999999985
v 0.13797500000000001 -0.003100003800000007 -0.006874999999999999
v 0.1380187 -0.006500090000000007 -0.006874999999999999
vn -1 -8.24141e-19 1.29969e-34
vn -0.999671 -0.0256653 0
vn -1 -1.14671e-18 1.80839e-34
vn -0.999671 -0.0256653 0
f 20//20 19//19 21//21 
f 20//20 21//21 22//22 

g Face_5
v 0.13797500000000001 0.0008999999999999936 -0.004125
v 0.13797500000000001 -0.0031000038000000064 -0.004125
v 0.13797500000000001 0.0008999999999999931 -0.006875000000000001
v 0.13797500000000001 -0.003100003800000007 -0.006874999999999999
v 0.13797500000000001 -0.0007500000000000066 -0.005499999999999998
v 0.13797500000000001 -0.0012750000000000066 -0.005803109
v 0.13797500000000001 -0.0012750000000000064 -0.0051968909999999995
vn -1 -3.79471e-16 2.63892e-29
vn -1 -3.79471e-16 2.63892e-29
vn -1 -3.79471e-16 2.63892e-29
vn -1 -3.79471e-16 2.63892e-29
vn -1 -3.79471e-16 2.63892e-29
vn -1 -3.79471e-16 2.63892e-29
vn -1 -3.79471e-16 2.63892e-29
f 29//29 26//26 24//24 
f 29//29 28//28 26//26 
f 25//25 28//28 27//27 
f 25//25 26//26 28//28 
f 23//23 27//27 29//29 
f 23//23 29//29 24//24 
f 23//23 25//25 27//27 

g Face_6
v 0.138025 0.0008999999999999936 -0.004125
v 0.13797500000000001 0.0008999999999999936 -0.004125
v 0.138025 0.0008999999999999931 -0.006875000000000001
v 0.13797500000000001 0.0008999999999999931 -0.006875000000000001
vn -3.79471e-16 1 -1.52656e-16
vn -3.79471e-16 1 -1.52656e-16
vn -3.79471e-16 1 -1.52656e-16
vn -3.79471e-16 1 -1.52656e-16
f 33//33 31//31 30//30 
f 33//33 30//30 32//32 

g Face_7
v 0.138025 0.0008999999999999931 -0.006875000000000001
v 0.138025 0.0008999999999999936 -0.004125
v 0.138025 -0.003100003800000007 -0.006874999999999999
v 0.138025 -0.0031000038000000064 -0.004125
v 0.138025 -0.0007500000000000066 -0.005499999999999998
v 0.138025 -0.0011000000000000068 -0.005849999999999999
v 0.138025 -0.0014500000000000064 -0.005499999999999998
v 0.138025 -0.0011000000000000066 -0.00515
v 0.138025 -0.0009250000000000063 -0.0051968909999999995
v 0.138025 -0.0007968900000000065 -0.005325
vn 1 3.79471e-16 -2.63892e-29
vn 1 3.79471e-16 -2.63892e-29
vn 1 3.79471e-16 -2.63892e-29
vn 1 3.79471e-16 -2.63892e-29
vn 1 3.79471e-16 -2.63892e-29
vn 1 3.79471e-16 -2.63892e-29
vn 1 3.79471e-16 -2.63892e-29
vn 1 3.79471e-16 -2.63892e-29
vn 1 3.79471e-16 -2.63892e-29
vn 1 3.79471e-16 -2.63892e-29
f 40//40 37//37 36//36 
f 40//40 36//36 39//39 
f 41//41 37//37 40//40 
f 34//34 38//38 39//39 
f 34//34 39//39 36//36 
f 35//35 41//41 42//42 
f 35//35 42//42 43//43 
f 35//35 43//43 38//38 
f 35//35 37//37 41//41 
f 35//35 38//38 34//34 

g Face_8
v 0.138025 -0.003100003800000007 -0.006874999999999999
v 0.138025 -0.0031000038000000064 -0.004125
v 0.1380687 -0.006498800000000008 -0.006874999999999999
v 0.1380687 -0.006498800000000007 -0.0041249999999999985
vn 1 -1.12772e-18 1.77843e-34
vn 1 8.73724e-19 -1.37788e-34
vn 0.999671 0.0256653 -5.53878e-66
vn 0.999671 0.0256653 -5.53878e-66
f 47//47 44//44 45//45 
f 47//47 46//46 44//44 

g Face_9
v 0.1380687 -0.006498800000000008 -0.006874999999999999
v 0.1381841 -0.010997320000000007 -0.006874999999999999
v 0.13813419999999998 -0.010998600000000008 -0.006874999999999999
v 0.1380187 -0.006500090000000007 -0.006874999999999999
v 0.13797500000000001 -0.003100003800000007 -0.006874999999999999
v 0.13797500000000001 0.0008999999999999931 -0.006875000000000001
v 0.138025 0.0008999999999999931 -0.006875000000000001
v 0.138025 -0.003100003800000007 -0.006874999999999999
vn -2.63313e-29 -1.52656e-16 -1
vn -2.63313e-29 -1.52656e-16 -1
vn -2.63313e-29 -1.52656e-16 -1
vn -2.63313e-29 -1.52656e-16 -1
vn -2.63313e-29 -1.52656e-16 -1
vn -2.63313e-29 -1.52656e-16 -1
vn -2.63313e-29 -1.52656e-16 -1
vn -2.63313e-29 -1.52656e-16 -1
f 51//51 48//48 49//49 
f 51//51 49//49 50//50 
f 52//52 55//55 48//48 
f 52//52 48//48 51//51 
f 53//53 54//54 55//55 
f 53//53 55//55 52//52 

g Face_10
v 0.13813419999999998 -0.010998600000000008 -0.0041249999999999985
v 0.1381841 -0.010997320000000007 -0.0041249999999999985
v 0.1380187 -0.006500090000000006 -0.0041249999999999985
v 0.13797500000000001 -0.0031000038000000064 -0.004125
v 0.13797500000000001 0.0008999999999999936 -0.004125
v 0.138025 0.0008999999999999936 -0.004125
v 0.138025 -0.0031000038000000064 -0.004125
v 0.1380687 -0.006498800000000007 -0.0041249999999999985
vn 2.63313e-29 1.52656e-16 1
vn 2.63313e-29 1.52656e-16 1
vn 2.63313e-29 1.52656e-16 1
vn 2.63313e-29 1.52656e-16 1
vn 2.63313e-29 1.52656e-16 1
vn 2.63313e-29 1.52656e-16 1
vn 2.63313e-29 1.52656e-16 1
vn 2.63313e-29 1.52656e-16 1
f 58//58 56//56 57//57 
f 58//58 57//57 63//63 
f 59//59 63//63 62//62 
f 59//59 58//58 63//63 
f 60//60 62//62 61//61 
f 60//60 59//59 62//62 

g Face_11
v 0.13797500000000001 -0.0007500000000000066 -0.005499999999999998
v 0.13797500000000001 -0.0012750000000000066 -0.005803109
v 0.13797500000000001 -0.0012750000000000064 -0.0051968909999999995
v 0.13797500000000001 -0.0007500000000000066 -0.005499999999999998
v 0.138025 -0.0007500000000000066 -0.005499999999999998
v 0.138025 -0.0011000000000000068 -0.005849999999999999
v 0.138025 -0.0014500000000000064 -0.005499999999999998
v 0.138025 -0.0011000000000000066 -0.00515
v 0.138025 -0.0009250000000000063 -0.0051968909999999995
v 0.138025 -0.0007968900000000065 -0.005325
v 0.138025 -0.0007500000000000066 -0.005499999999999998
vn 1.89735e-16 -1 1.52656e-16
vn -9.48677e-17 0.5 0.866025
vn -9.48677e-17 0.5 -0.866025
vn 1.89735e-16 -1 -9.22737e-17
vn 1.89735e-16 -1 1.52656e-16
vn 2.63429e-29 9.14233e-17 1
vn -1.89735e-16 1 -3.0191e-17
vn -2.63662e-29 3.10414e-17 -1
vn 9.48677e-17 -0.5 -0.866025
vn 1.64316e-16 -0.866025 -0.5
vn 1.89735e-16 -1 -9.22737e-17
f 64//64 69//69 68//68 
f 65//65 70//70 69//69 
f 65//65 69//69 64//64 
f 66//66 71//71 70//70 
f 66//66 72//72 71//71 
f 66//66 70//70 65//65 
f 67//67 73//73 72//72 
f 67//67 74//74 73//73 
f 67//67 72//72 66//66 

g Face_12
v 0.1380687 -0.008449440000000006 -0.005499999999999999
v 0.1380822 -0.008974270000000006 -0.005803108999999999
v 0.1380822 -0.008974270000000006 -0.005196890999999999
v 0.1380687 -0.008449440000000006 -0.005499999999999999
v 0.1381187 -0.008448160000000007 -0.005499999999999999
v 0.1381322 -0.008972990000000007 -0.005803108999999999
v 0.1381322 -0.008972990000000007 -0.005196890999999999
v 0.1381187 -0.008448160000000007 -0.005499999999999999
vn 0.0256653 -0.999671 1.52605e-16
vn -0.0128326 0.499835 0.866025
vn -0.0128326 0.499835 -0.866025
vn 0.0256653 -0.999671 -9.2324e-17
vn 0.0256653 -0.999671 1.52605e-16
vn -0.0128326 0.499835 0.866025
vn -0.0128326 0.499835 -0.866025
vn 0.0256653 -0.999671 -9.2324e-17
f 76//76 79//79 75//75 
f 76//76 80//80 79//79 
f 77//77 81//81 80//80 
f 77//77 80//80 76//76 
f 78//78 82//82 81//81 
f 78//78 81//81 77//77 

