mtllib Loquet_porte_-_cle_instance_1.mtl
usemtl Loquet_porte_-_cle_instance_1
#Wavefront export of shape 1-1-37-1--Loquet_porte_-_cle

g Face_1
v 0.0051309792446600005 -0.157242157 -0.04807508511634
v 0.005075860052371886 -0.15775 -0.049198391676034986
v 0.00508563499466 -0.157242157 -0.05032462836634
v 0.00510883410455 -0.15757288 -0.04819966413795
v 0.0009386788179559999 -0.1683706 -0.048115605934644
v 0.0030459229605400004 -0.16507644999999999 -0.04815808184846
v 0.00445480689903 -0.16142847 -0.04818648085147
v 0.000898372817956 -0.1683706 -0.050115199934644
v 0.00300561696054 -0.16507644999999999 -0.05015767584846
v 0.00441450089903 -0.16142847 -0.05018607485147
v 0.00506852810455 -0.15757288 -0.05019925813795
vn 0.998709 -0.0507984 -6.92994e-18
vn 0.997047 -0.0768 -6.9184e-18
vn 0.998709 -0.0507984 -6.92994e-18
vn 0.997704 -0.0677312 -6.92296e-18
vn 0.784148 -0.620573 -5.44112e-18
vn 0.892061 -0.451914 -6.18992e-18
vn 0.964211 -0.265138 -6.69055e-18
vn 0.784148 -0.620573 -5.44112e-18
vn 0.892061 -0.451914 -6.18992e-18
vn 0.964211 -0.265138 -6.69055e-18
vn 0.997704 -0.0677312 -6.92296e-18
f 2//2 1//1 4//4 
f 2//2 4//4 7//7 
f 6//6 2//2 7//7 
f 3//3 2//2 11//11 
f 10//10 11//11 2//2 
f 9//9 2//2 6//6 
f 9//9 10//10 2//2 
f 8//8 6//6 5//5 
f 8//8 9//9 6//6 

g Face_2
v 0.00508563499466 -0.155257843 -0.05032462836634
v 0.005075840702549548 -0.15475 -0.04919935162712535
v 0.0051309792446600005 -0.155257843 -0.04807508511634
v 0.00506852810455 -0.15492712 -0.05019925813795
v 0.00441450089903 -0.15107153 -0.05018607485147
v 0.00300561696054 -0.14742355000000001 -0.05015767584846
v 0.0008983728179560002 -0.1441294 -0.050115199934644
v 0.0009386788179560001 -0.1441294 -0.048115605934644
v 0.00510883410455 -0.15492712 -0.04819966413795
v 0.00445480689903 -0.15107153 -0.04818648085147
v 0.0030459229605400004 -0.14742355000000001 -0.04815808184846
vn 0.998709 0.0507984 -6.92994e-18
vn 0.997047 0.0768 -6.9184e-18
vn 0.998709 0.0507984 -6.92994e-18
vn 0.997704 0.0677312 -6.92296e-18
vn 0.964211 0.265138 -6.69055e-18
vn 0.892061 0.451914 -6.18992e-18
vn 0.784148 0.620573 -5.44112e-18
vn 0.784148 0.620573 -5.44112e-18
vn 0.997704 0.0677312 -6.92296e-18
vn 0.964211 0.265138 -6.69055e-18
vn 0.892061 0.451914 -6.18992e-18
f 17//17 18//18 19//19 
f 17//17 19//19 22//22 
f 13//13 21//21 20//20 
f 13//13 22//22 21//21 
f 13//13 20//20 14//14 
f 13//13 17//17 22//22 
f 16//16 17//17 13//13 
f 15//15 16//16 13//13 
f 12//12 15//15 13//13 

g Face_3
v 0.0042858012141499995 -0.156913325 -0.04818307418835
v 0.0042858012141499995 -0.155586675 -0.04818307418835
v 0.004953715599999999 -0.15757288 -0.0481965374
v 0.00510883410455 -0.15757288 -0.04819966413795
v 0.0009386788179559999 -0.1683706 -0.048115605934644
v 0.0030459229605400004 -0.16507644999999999 -0.04815808184846
v 0.00445480689903 -0.16142847 -0.04818648085147
v -0.0006292988179560002 -0.1683706 -0.048084000065356
v -0.00014119092397700002 -0.1687052 -0.048093838901027
v 0.00045057092397699996 -0.1687052 -0.048105767098973
v -0.000629298817956 -0.1441294 -0.048084000065356
v -0.00436008331493 -0.15192753 -0.04800879829943
v -0.00436008331493 -0.16057247 -0.04800879829943
v 0.0009386788179560001 -0.1441294 -0.048115605934644
v 0.00045057092397700007 -0.1437948 -0.048105767098973
v -0.00014119092397699991 -0.1437948 -0.048093838901027
v 0.00510883410455 -0.15492712 -0.04819966413795
v 0.00445480689903 -0.15107153 -0.04818648085147
v 0.0030459229605400004 -0.14742355000000001 -0.04815808184846
v 0.004953715599999999 -0.15492712 -0.0481965374
vn 6.93889e-18 -3.85186e-34 1
vn 6.93889e-18 -3.85186e-34 1
vn 6.93889e-18 -3.85186e-34 1
vn 6.93889e-18 -3.85186e-34 1
vn 6.93889e-18 -3.85186e-34 1
vn 6.93889e-18 -3.85186e-34 1
vn 6.93889e-18 -3.85186e-34 1
vn 6.93889e-18 -3.85186e-34 1
vn 6.93889e-18 -3.85186e-34 1
vn 6.93889e-18 -3.85186e-34 1
vn 6.93889e-18 -3.85186e-34 1
vn 6.93889e-18 -3.85186e-34 1
vn 6.93889e-18 -3.85186e-34 1
vn 6.93889e-18 -3.85186e-34 1
vn 6.93889e-18 -3.85186e-34 1
vn 6.93889e-18 -3.85186e-34 1
vn 6.93889e-18 -3.85186e-34 1
vn 6.93889e-18 -3.85186e-34 1
vn 6.93889e-18 -3.85186e-34 1
vn 6.93889e-18 -3.85186e-34 1
f 30//30 27//27 28//28 
f 30//30 31//31 32//32 
f 30//30 32//32 27//27 
f 25//25 29//29 26//26 
f 23//23 29//29 25//25 
f 35//35 28//28 29//29 
f 35//35 30//30 28//28 
f 35//35 29//29 23//23 
f 40//40 42//42 39//39 
f 40//40 24//24 42//42 
f 34//34 23//23 24//24 
f 34//34 40//40 41//41 
f 34//34 35//35 23//23 
f 34//34 24//24 40//40 
f 33//33 36//36 37//37 
f 33//33 37//37 38//38 
f 33//33 41//41 36//36 
f 33//33 34//34 41//41 

g Face_4
v 0.00506852810455 -0.15492712 -0.05019925813795
v 0.00441450089903 -0.15107153 -0.05018607485147
v 0.00300561696054 -0.14742355000000001 -0.05015767584846
v 0.0008983728179560002 -0.1441294 -0.050115199934644
v 0.004913409599999999 -0.15492712 -0.0501961314
v 0.004245495214149999 -0.155586675 -0.05018266818835
v 0.004245495214149999 -0.156913325 -0.05018266818835
v 0.004913409599999999 -0.15757288 -0.0501961314
v 0.00506852810455 -0.15757288 -0.05019925813795
v 0.000898372817956 -0.1683706 -0.050115199934644
v 0.00300561696054 -0.16507644999999999 -0.05015767584846
v 0.00441450089903 -0.16142847 -0.05018607485147
v -0.0006696048179560001 -0.1683706 -0.050083594065356
v -0.00018149692397700007 -0.1687052 -0.050093432901027
v 0.0004102649239769999 -0.1687052 -0.050105361098973
v -0.0006696048179559999 -0.1441294 -0.050083594065356
v -0.004400389314930001 -0.15192753 -0.05000839229943
v -0.004400389314930001 -0.16057247 -0.05000839229943
v 0.00041026492397700003 -0.1437948 -0.050105361098973
v -0.00018149692397699996 -0.1437948 -0.050093432901027
vn -6.93889e-18 3.85186e-34 -1
vn -6.93889e-18 3.85186e-34 -1
vn -6.93889e-18 3.85186e-34 -1
vn -6.93889e-18 3.85186e-34 -1
vn -6.93889e-18 3.85186e-34 -1
vn -6.93889e-18 3.85186e-34 -1
vn -6.93889e-18 3.85186e-34 -1
vn -6.93889e-18 3.85186e-34 -1
vn -6.93889e-18 3.85186e-34 -1
vn -6.93889e-18 3.85186e-34 -1
vn -6.93889e-18 3.85186e-34 -1
vn -6.93889e-18 3.85186e-34 -1
vn -6.93889e-18 3.85186e-34 -1
vn -6.93889e-18 3.85186e-34 -1
vn -6.93889e-18 3.85186e-34 -1
vn -6.93889e-18 3.85186e-34 -1
vn -6.93889e-18 3.85186e-34 -1
vn -6.93889e-18 3.85186e-34 -1
vn -6.93889e-18 3.85186e-34 -1
vn -6.93889e-18 3.85186e-34 -1
f 55//55 53//53 52//52 
f 55//55 57//57 56//56 
f 55//55 52//52 57//57 
f 50//50 51//51 54//54 
f 49//49 50//50 54//54 
f 60//60 54//54 53//53 
f 60//60 53//53 55//55 
f 60//60 49//49 54//54 
f 44//44 43//43 47//47 
f 44//44 47//47 48//48 
f 59//59 45//45 44//44 
f 59//59 48//48 49//49 
f 59//59 49//49 60//60 
f 59//59 44//44 48//48 
f 58//58 46//46 45//45 
f 58//58 61//61 46//46 
f 58//58 62//62 61//61 
f 58//58 45//45 59//59 

g Face_5
v 0.0008983728179560002 -0.1441294 -0.050115199934644
v 0.00041026492397700003 -0.1437948 -0.050105361098973
v -0.00018149692397699996 -0.1437948 -0.050093432901027
v -0.0006696048179559999 -0.1441294 -0.050083594065356
v -0.000629298817956 -0.1441294 -0.048084000065356
v 0.0009386788179560001 -0.1441294 -0.048115605934644
v 0.00045057092397700007 -0.1437948 -0.048105767098973
v -0.00014119092397699991 -0.1437948 -0.048093838901027
vn 0.784148 0.620573 -5.44112e-18
vn 0.295941 0.955206 -2.05351e-18
vn -0.295941 0.955206 2.05351e-18
vn -0.784148 0.620573 5.44112e-18
vn -0.784148 0.620573 5.44112e-18
vn 0.784148 0.620573 -5.44112e-18
vn 0.295941 0.955206 -2.05351e-18
vn -0.295941 0.955206 2.05351e-18
f 65//65 66//66 67//67 
f 65//65 67//67 70//70 
f 64//64 70//70 69//69 
f 64//64 65//65 70//70 
f 63//63 69//69 68//68 
f 63//63 64//64 69//69 

g Face_6
v -0.0006696048179559999 -0.1441294 -0.050083594065356
v -0.004400389314930001 -0.15192753 -0.05000839229943
v -0.004400389314930001 -0.16057247 -0.05000839229943
v -0.0006696048179560001 -0.1683706 -0.050083594065356
v -0.0006292988179560002 -0.1683706 -0.048084000065356
v -0.000629298817956 -0.1441294 -0.048084000065356
v -0.00436008331493 -0.15192753 -0.04800879829943
v -0.00436008331493 -0.16057247 -0.04800879829943
vn -0.784148 0.620573 5.44112e-18
vn -0.975203 0.22131 6.76683e-18
vn -0.975203 -0.22131 6.76683e-18
vn -0.784148 -0.620573 5.44112e-18
vn -0.784148 -0.620573 5.44112e-18
vn -0.784148 0.620573 5.44112e-18
vn -0.975203 0.22131 6.76683e-18
vn -0.975203 -0.22131 6.76683e-18
f 73//73 74//74 75//75 
f 73//73 75//75 78//78 
f 72//72 78//78 77//77 
f 72//72 73//73 78//78 
f 71//71 77//77 76//76 
f 71//71 72//72 77//77 

g Face_7
v -0.0006696048179560001 -0.1683706 -0.050083594065356
v -0.00018149692397700007 -0.1687052 -0.050093432901027
v 0.0004102649239769999 -0.1687052 -0.050105361098973
v 0.000898372817956 -0.1683706 -0.050115199934644
v 0.0009386788179559999 -0.1683706 -0.048115605934644
v -0.0006292988179560002 -0.1683706 -0.048084000065356
v -0.00014119092397700002 -0.1687052 -0.048093838901027
v 0.00045057092397699996 -0.1687052 -0.048105767098973
vn -0.784148 -0.620573 5.44112e-18
vn -0.295941 -0.955206 2.05351e-18
vn 0.295941 -0.955206 -2.05351e-18
vn 0.784148 -0.620573 -5.44112e-18
vn 0.784148 -0.620573 -5.44112e-18
vn -0.784148 -0.620573 5.44112e-18
vn -0.295941 -0.955206 2.05351e-18
vn 0.295941 -0.955206 -2.05351e-18
f 81//81 82//82 83//83 
f 81//81 83//83 86//86 
f 80//80 86//86 85//85 
f 80//80 81//81 86//86 
f 79//79 85//85 84//84 
f 79//79 80//80 85//85 

g Face_8
v 0.007255767825000001 -0.155257843 -0.048117914675
v 0.00725862108674 -0.157053598 -0.04797636341574
v 0.007224663563882001 -0.15769046 -0.049661007363582
v 0.0072028662000000005 -0.15625 -0.0507423818
v 0.0051309792446600005 -0.155257843 -0.04807508511634
v 0.004956234725 -0.155257843 -0.048071562775
v 0.0049629190720399995 -0.155892118 -0.04773995010604
v 0.0049629190720399995 -0.156607882 -0.04773995010604
v 0.004956234725 -0.157242157 -0.048071562775
v 0.0051309792446600005 -0.157242157 -0.04807508511634
v 0.005075860052371886 -0.15775 -0.049198391676034986
v 0.00508563499466 -0.157242157 -0.05032462836634
v 0.004910890474999999 -0.157242157 -0.050321106025
v 0.004904206127959999 -0.156607882 -0.05065271869396
v 0.004904206127959999 -0.155892118 -0.05065271869396
v 0.004910890474999999 -0.155257843 -0.050321106025
v 0.00508563499466 -0.155257843 -0.05032462836634
v 0.005075840702549548 -0.15475 -0.04919935162712535
v 0.0051309792446600005 -0.155257843 -0.04807508511634
v 0.007255767825000001 -0.155257843 -0.048117914675
v 0.007212171243160001 -0.15516742 -0.05028075552916
v 0.007234358198792101 -0.15475131 -0.0491800533170771
vn 5.20417e-18 0.661438 0.75
vn 5.85912e-18 -0.535732 0.844388
vn -1.93552e-18 -0.960309 -0.278937
vn -6.93889e-18 1.22465e-16 -1
vn 5.20417e-18 0.661438 0.75
vn 5.20417e-18 0.661438 0.75
vn 6.73851e-18 0.238588 0.971121
vn 6.73851e-18 -0.238588 0.971121
vn 5.20417e-18 -0.661438 0.75
vn 5.20417e-18 -0.661438 0.75
vn 3.75099e-21 -1 0.000540575
vn -5.20417e-18 -0.661438 -0.75
vn -5.20417e-18 -0.661438 -0.75
vn -6.73851e-18 -0.238588 -0.971121
vn -6.73851e-18 0.238588 -0.971121
vn -5.20417e-18 0.661438 -0.75
vn -5.20417e-18 0.661438 -0.75
vn -6.90575e-22 1 -9.95224e-05
vn 5.20417e-18 0.661438 0.75
vn 5.20417e-18 0.661438 0.75
vn -4.80299e-18 0.721721 -0.692184
vn 2.89795e-19 0.999128 0.0417638
f 105//105 106//106 108//108 
f 104//104 108//108 107//107 
f 104//104 105//105 108//108 
f 103//103 107//107 90//90 
f 103//103 104//104 107//107 
f 101//101 102//102 103//103 
f 101//101 103//103 90//90 
f 100//100 101//101 90//90 
f 98//98 90//90 89//89 
f 98//98 100//100 90//90 
f 99//99 100//100 98//98 
f 97//97 89//89 88//88 
f 97//97 98//98 89//89 
f 96//96 97//97 88//88 
f 94//94 95//95 96//96 
f 94//94 96//96 88//88 
f 93//93 94//94 88//88 
f 91//91 88//88 87//87 
f 91//91 93//93 88//88 
f 92//92 93//93 91//91 

g Face_9
v 0.0072028662000000005 -0.15625 -0.0507423818
v 0.007212171243160001 -0.15516742 -0.05028075552916
v 0.007234358198792101 -0.15475131 -0.0491800533170771
v 0.007255767825000001 -0.155257843 -0.048117914675
v 0.00725862108674 -0.157053598 -0.04797636341574
v 0.007224663563882001 -0.15769046 -0.049661007363582
vn 1 1.20371e-35 -6.93889e-18
vn 1 1.20371e-35 -6.93889e-18
vn 1 1.20371e-35 -6.93889e-18
vn 1 1.20371e-35 -6.93889e-18
vn 1 1.20371e-35 -6.93889e-18
vn 1 1.20371e-35 -6.93889e-18
f 110//110 111//111 112//112 
f 110//110 112//112 113//113 
f 110//110 113//113 114//114 
f 110//110 114//114 109//109 

g Face_10
v 0.0046579340473 -0.156802074 -0.05043945224118
v 0.0046579340473 -0.155697926 -0.05043945224118
v 0.004910890474999999 -0.155257843 -0.050321106025
v 0.004910890474999999 -0.157242157 -0.050321106025
v 0.004904206127959999 -0.156607882 -0.05065271869396
v 0.004904206127959999 -0.155892118 -0.05065271869396
vn -0.835064 -0.222502 -0.503151
vn -0.835064 0.222502 -0.503151
vn -5.20417e-18 0.661438 -0.75
vn -5.20417e-18 -0.661438 -0.75
vn -6.73851e-18 -0.238588 -0.971121
vn -6.73851e-18 0.238588 -0.971121
f 119//119 118//118 115//115 
f 120//120 115//115 116//116 
f 120//120 119//119 115//115 
f 117//117 120//120 116//116 

g Face_11
v 0.004956234725 -0.155257843 -0.048071562775
v 0.0049629190720399995 -0.155892118 -0.04773995010604
v 0.0049629190720399995 -0.156607882 -0.04773995010604
v 0.004956234725 -0.157242157 -0.048071562775
v 0.0047082528638199995 -0.155697926 -0.0479431190997
v 0.0047082528638199995 -0.156802074 -0.0479431190997
vn 5.20417e-18 0.661438 0.75
vn 6.73851e-18 0.238588 0.971121
vn 6.73851e-18 -0.238588 0.971121
vn 5.20417e-18 -0.661438 0.75
vn -0.835064 0.222502 0.503151
vn -0.835064 -0.222502 0.503151
f 122//122 121//121 125//125 
f 123//123 125//125 126//126 
f 123//123 122//122 125//125 
f 124//124 123//123 126//126 

g Face_12
v 0.00510883410455 -0.15757288 -0.04819966413795
v 0.004953715599999999 -0.15757288 -0.0481965374
v 0.004954006609319999 -0.15745358 -0.04818210033132
v 0.0049548627087599995 -0.15734118 -0.04813962895476
v 0.004956234725 -0.157242157 -0.048071562775
v 0.0051309792446600005 -0.157242157 -0.04807508511634
vn 6.93889e-18 -1.22465e-16 1
vn 6.93889e-18 -1.22465e-16 1
vn 6.73851e-18 -0.238588 0.971121
vn 6.14891e-18 -0.463395 0.886152
vn 5.20417e-18 -0.661438 0.75
vn 5.20417e-18 -0.661438 0.75
f 131//131 127//127 132//132 
f 130//130 127//127 131//131 
f 129//129 127//127 130//130 
f 128//128 127//127 129//129 

g Face_13
v 0.004953715599999999 -0.15757288 -0.0481965374
v 0.0042858012141499995 -0.156913325 -0.04818307418835
v 0.00445106136443 -0.156869443 -0.04815644926577
v 0.004597740131770001 -0.156830817 -0.04807313835493
v 0.0047082528638199995 -0.156802074 -0.0479431190997
v 0.004956234725 -0.157242157 -0.048071562775
v 0.004954006609319999 -0.15745358 -0.04818210033132
v 0.0049548627087599995 -0.15734118 -0.04813962895476
vn 5.57061e-22 8.43311e-16 1
vn -5.25484e-16 -1.40014e-16 1
vn -0.329361 -0.0878646 0.940107
vn -0.619267 -0.165209 0.767603
vn -0.835064 -0.222502 0.503151
vn -8.22368e-15 -0.661438 0.75
vn -6.65823e-06 -0.238588 0.971121
vn -9.16377e-06 -0.463395 0.886152
f 134//134 133//133 139//139 
f 135//135 134//134 139//139 
f 136//136 139//139 140//140 
f 136//136 135//135 139//139 
f 137//137 140//140 138//138 
f 137//137 136//136 140//140 

g Face_14
v 0.0042858012141499995 -0.156913325 -0.04818307418835
v 0.0042858012141499995 -0.155586675 -0.04818307418835
v 0.00445106136443 -0.155630557 -0.04815644926577
v 0.004597740131770001 -0.155669183 -0.04807313835493
v 0.0047082528638199995 -0.155697926 -0.0479431190997
v 0.0047082528638199995 -0.156802074 -0.0479431190997
v 0.00445106136443 -0.156869443 -0.04815644926577
v 0.004597740131770001 -0.156830817 -0.04807313835493
vn -6.30581e-16 -1.68017e-16 1
vn 0 -0 1
vn -0.329373 0.0878168 0.940107
vn -0.619309 0.165051 0.767603
vn -0.835064 0.222502 0.503151
vn -0.835064 -0.222502 0.503151
vn -0.329374 -0.0878138 0.940107
vn -0.619311 -0.165045 0.767603
f 148//148 145//145 144//144 
f 148//148 146//146 145//145 
f 147//147 144//144 143//143 
f 147//147 148//148 144//144 
f 141//141 143//143 142//142 
f 141//141 147//147 143//143 

g Face_15
v 0.0042858012141499995 -0.155586675 -0.04818307418835
v 0.004953715599999999 -0.15492712 -0.0481965374
v 0.004954006609319999 -0.15504642 -0.04818210033132
v 0.0049548627087599995 -0.15515882 -0.04813962895476
v 0.004956234725 -0.155257843 -0.048071562775
v 0.0047082528638199995 -0.155697926 -0.0479431190997
v 0.00445106136443 -0.155630557 -0.04815644926577
v 0.004597740131770001 -0.155669183 -0.04807313835493
vn 1.05097e-16 -2.80028e-17 1
vn 5.57061e-22 -8.43311e-16 1
vn -6.65823e-06 0.238588 0.971121
vn -9.16377e-06 0.463395 0.886152
vn -8.22368e-15 0.661438 0.75
vn -0.835064 0.222502 0.503151
vn -0.329361 0.0878646 0.940107
vn -0.619267 0.165209 0.767603
f 154//154 153//153 152//152 
f 156//156 154//154 152//152 
f 155//155 152//152 151//151 
f 155//155 156//156 152//152 
f 149//149 151//151 150//150 
f 149//149 155//155 151//151 

g Face_16
v 0.0051309792446600005 -0.155257843 -0.04807508511634
v 0.004956234725 -0.155257843 -0.048071562775
v 0.004953715599999999 -0.15492712 -0.0481965374
v 0.004954006609319999 -0.15504642 -0.04818210033132
v 0.0049548627087599995 -0.15515882 -0.04813962895476
v 0.00510883410455 -0.15492712 -0.04819966413795
vn 5.20417e-18 0.661438 0.75
vn 5.20417e-18 0.661438 0.75
vn 6.93889e-18 -1.22465e-16 1
vn 6.73851e-18 0.238588 0.971121
vn 6.14891e-18 0.463395 0.886152
vn 6.93889e-18 -1.22465e-16 1
f 160//160 162//162 159//159 
f 161//161 162//162 160//160 
f 158//158 157//157 162//162 
f 158//158 162//162 161//161 

g Face_17
v 0.00508563499466 -0.157242157 -0.05032462836634
v 0.004910890474999999 -0.157242157 -0.050321106025
v 0.004912262491239999 -0.15734118 -0.05025303984524
v 0.004913118590679999 -0.15745358 -0.05021056846868
v 0.004913409599999999 -0.15757288 -0.0501961314
v 0.00506852810455 -0.15757288 -0.05019925813795
vn -5.20417e-18 -0.661438 -0.75
vn -5.20417e-18 -0.661438 -0.75
vn -6.14891e-18 -0.463395 -0.886152
vn -6.73851e-18 -0.238588 -0.971121
vn -6.93889e-18 3.85186e-34 -1
vn -6.93889e-18 3.85186e-34 -1
f 166//166 168//168 167//167 
f 165//165 168//168 166//166 
f 164//164 163//163 168//168 
f 164//164 168//168 165//165 

g Face_18
v 0.004910890474999999 -0.157242157 -0.050321106025
v 0.0046579340473 -0.156802074 -0.05043945224118
v 0.0045527505745700005 -0.156830817 -0.05030508517773
v 0.00440954819973 -0.156869443 -0.05021593110607
v 0.004245495214149999 -0.156913325 -0.05018266818835
v 0.004913409599999999 -0.15757288 -0.0501961314
v 0.004912262491239999 -0.15734118 -0.05025303984524
v 0.004913118590679999 -0.15745358 -0.05021056846868
vn -8.22368e-15 -0.661438 -0.75
vn -0.835064 -0.222502 -0.503151
vn -0.619267 -0.165209 -0.767603
vn -0.329361 -0.0878646 -0.940107
vn 1.05097e-16 2.80028e-17 -1
vn 5.57061e-22 8.43311e-16 -1
vn -9.16377e-06 -0.463395 -0.886152
vn -6.65823e-06 -0.238588 -0.971121
f 170//170 169//169 175//175 
f 171//171 170//170 175//175 
f 172//172 175//175 176//176 
f 172//172 171//171 175//175 
f 173//173 176//176 174//174 
f 173//173 172//172 176//176 

g Face_19
v 0.0046579340473 -0.156802074 -0.05043945224118
v 0.0046579340473 -0.155697926 -0.05043945224118
v 0.0045527505745700005 -0.155669183 -0.05030508517773
v 0.00440954819973 -0.155630557 -0.05021593110607
v 0.004245495214149999 -0.155586675 -0.05018266818835
v 0.004245495214149999 -0.156913325 -0.05018266818835
v 0.0045527505745700005 -0.156830817 -0.05030508517773
v 0.00440954819973 -0.156869443 -0.05021593110607
vn -0.835064 -0.222502 -0.503151
vn -0.835064 0.222502 -0.503151
vn -0.619311 0.165045 -0.767603
vn -0.329374 0.0878138 -0.940107
vn -1.05097e-16 2.80028e-17 -1
vn -3.1529e-16 -8.40085e-17 -1
vn -0.619309 -0.165051 -0.767603
vn -0.329373 -0.0878168 -0.940107
f 179//179 178//178 177//177 
f 179//179 177//177 183//183 
f 180//180 183//183 184//184 
f 180//180 179//179 183//183 
f 181//181 184//184 182//182 
f 181//181 180//180 184//184 

g Face_20
v 0.0046579340473 -0.155697926 -0.05043945224118
v 0.004910890474999999 -0.155257843 -0.050321106025
v 0.004912262491239999 -0.15515882 -0.05025303984524
v 0.004913118590679999 -0.15504642 -0.05021056846868
v 0.004913409599999999 -0.15492712 -0.0501961314
v 0.004245495214149999 -0.155586675 -0.05018266818835
v 0.0045527505745700005 -0.155669183 -0.05030508517773
v 0.00440954819973 -0.155630557 -0.05021593110607
vn -0.835064 0.222502 -0.503151
vn -7.08562e-15 0.661438 -0.75
vn -9.16377e-06 0.463395 -0.886152
vn -6.65823e-06 0.238588 -0.971121
vn 5.5706e-22 -8.43311e-16 -1
vn 1.05097e-16 -2.80028e-17 -1
vn -0.619267 0.165209 -0.767603
vn -0.329361 0.0878646 -0.940107
f 190//190 189//189 188//188 
f 192//192 190//190 188//188 
f 191//191 188//188 187//187 
f 191//191 192//192 188//188 
f 185//185 187//187 186//186 
f 185//185 191//191 187//187 

g Face_21
v 0.00506852810455 -0.15492712 -0.05019925813795
v 0.004913409599999999 -0.15492712 -0.0501961314
v 0.004910890474999999 -0.155257843 -0.050321106025
v 0.004912262491239999 -0.15515882 -0.05025303984524
v 0.004913118590679999 -0.15504642 -0.05021056846868
v 0.00508563499466 -0.155257843 -0.05032462836634
vn -6.93889e-18 2.44929e-16 -1
vn -6.93889e-18 2.44929e-16 -1
vn -5.20417e-18 0.661438 -0.75
vn -6.14891e-18 0.463395 -0.886152
vn -6.73851e-18 0.238588 -0.971121
vn -5.20417e-18 0.661438 -0.75
f 195//195 193//193 198//198 
f 196//196 193//193 195//195 
f 197//197 193//193 196//196 
f 194//194 193//193 197//197 

