mtllib Marteau_-_plaque_Heures.mtl
usemtl Marteau_-_plaque_Heures
#Wavefront export of shape 1-93-2--Marteau_-_plaque_Heures

g Face_1
v 0.04674721475 -0.195 -0.145603646
v 0.04674721475 -0.1975 -0.145603646
v 0.03745650395 -0.195 -0.14387589305
v 0.03745650395 -0.1975 -0.14387589305
vn -1 2.37222e-33 -1.38778e-16
vn -1 2.37222e-33 -1.38778e-16
vn -1 2.37222e-33 -1.38778e-16
vn -1 2.37222e-33 -1.38778e-16
f 1//1 4//4 3//3 
f 1//1 2//2 4//4 

g Face_2
v 0.03445791475 -0.195 -0.1433182585
v 0.03445791475 -0.1975 -0.1433182585
v 0.03617841675 -0.1975 -0.14363821275
v 0.03617841675 -0.195 -0.14363821275
vn -1 2.37222e-33 -1.38778e-16
vn -1 2.37222e-33 -1.38778e-16
vn -1 2.37222e-33 -1.38778e-16
vn -1 2.37222e-33 -1.38778e-16
f 8//8 6//6 5//5 
f 8//8 7//7 6//6 

g Face_3
v 0.03445791475 -0.195 -0.1433182585
v 0.03445791475 -0.1975 -0.1433182585
v 0.03802311925 -0.195 -0.12414695049999999
v 0.03802311925 -0.1975 -0.12414695049999999
vn -0 -1.1992e-32 1
vn -0 -1.1992e-32 1
vn -0 -1.1992e-32 1
vn -0 -1.1992e-32 1
f 9//9 12//12 11//11 
f 9//9 10//10 12//12 

g Face_4
v 0.048667157705592 -0.195 -0.130194953022583
v 0.048842495539128 -0.1941502 -0.130227559834447
v 0.049338921321056 -0.1934438 -0.130319877971094
v 0.05007266725 -0.193 -0.1304563295
v 0.042699087250000003 -0.195 -0.129085097
v 0.042699087250000003 -0.1975 -0.129085097
v 0.04958109525 -0.1975 -0.130364914
vn -1 2.37222e-33 2.84476e-65
vn -1 2.37222e-33 2.84476e-65
vn -1 2.37222e-33 2.84476e-65
vn -1 2.37222e-33 2.84476e-65
vn -1 2.37222e-33 2.84476e-65
vn -1 2.37222e-33 2.84476e-65
vn -1 2.37222e-33 2.84476e-65
f 13//13 18//18 17//17 
f 13//13 19//19 18//18 
f 16//16 13//13 14//14 
f 16//16 14//14 15//15 
f 16//16 19//19 13//13 

g Face_5
v 0.042699087250000003 -0.195 -0.129085097
v 0.042699087250000003 -0.1975 -0.129085097
v 0.040870777250000004 -0.195 -0.138916537
v 0.040870777250000004 -0.1975 -0.138916537
vn -0 1.1992e-32 -1
vn -0 1.1992e-32 -1
vn -0 1.1992e-32 -1
vn -0 1.1992e-32 -1
f 20//20 23//23 22//22 
f 20//20 21//21 23//23 

g Face_6
v 0.040870777250000004 -0.195 -0.138916537
v 0.040870777250000004 -0.1975 -0.138916537
v 0.04775278525 -0.195 -0.140196354
v 0.04775278525 -0.1975 -0.140196354
vn 1 -2.37222e-33 -1.23909e-16
vn 1 -2.37222e-33 -1.23909e-16
vn 1 -2.37222e-33 -1.23909e-16
vn 1 -2.37222e-33 -1.23909e-16
f 24//24 27//27 26//26 
f 24//24 25//25 27//27 

g Face_7
v 0.04775278525 -0.195 -0.140196354
v 0.04775278525 -0.1975 -0.140196354
v 0.04674721475 -0.195 -0.145603646
v 0.04674721475 -0.1975 -0.145603646
vn -0 1.1992e-32 -1
vn -0 1.1992e-32 -1
vn -0 1.1992e-32 -1
vn -0 1.1992e-32 -1
f 28//28 31//31 30//30 
f 28//28 29//29 31//31 

g Face_8
v 0.049642561090592 -0.195 -0.124949879782583
v 0.03802311925 -0.195 -0.12414695049999999
v 0.048667157705592 -0.195 -0.130194953022583
v 0.042699087250000003 -0.195 -0.129085097
v 0.040870777250000004 -0.195 -0.138916537
v 0.04775278525 -0.195 -0.140196354
v 0.04674721475 -0.195 -0.145603646
v 0.03745650395 -0.195 -0.14387589305
v 0.03757805731204 -0.195 -0.14322225959304
v 0.03633173151336 -0.195 -0.14281378751735999
v 0.036717595934827 -0.195 -0.141419273578552
v 0.038092511581411 -0.195 -0.141869902447046
v 0.03617841675 -0.195 -0.14363821275
v 0.03445791475 -0.195 -0.1433182585
vn 2.37222e-33 1 1.1992e-32
vn 2.37222e-33 1 1.1992e-32
vn 2.37222e-33 1 1.1992e-32
vn 2.37222e-33 1 1.1992e-32
vn 2.37222e-33 1 1.1992e-32
vn 2.37222e-33 1 1.1992e-32
vn 2.37222e-33 1 1.1992e-32
vn 2.37222e-33 1 1.1992e-32
vn 2.37222e-33 1 1.1992e-32
vn 2.37222e-33 1 1.1992e-32
vn 2.37222e-33 1 1.1992e-32
vn 2.37222e-33 1 1.1992e-32
vn 2.37222e-33 1 1.1992e-32
vn 2.37222e-33 1 1.1992e-32
f 40//40 38//38 39//39 
f 43//43 38//38 40//40 
f 45//45 41//41 44//44 
f 36//36 37//37 38//38 
f 36//36 38//38 43//43 
f 42//42 41//41 45//45 
f 42//42 36//36 43//43 
f 35//35 32//32 34//34 
f 35//35 36//36 42//42 
f 33//33 35//35 42//42 
f 33//33 42//42 45//45 
f 33//33 32//32 35//35 

g Face_9
v 0.04958109525 -0.1975 -0.130364914
v 0.042699087250000003 -0.1975 -0.129085097
v 0.040870777250000004 -0.1975 -0.138916537
v 0.04775278525 -0.1975 -0.140196354
v 0.04674721475 -0.1975 -0.145603646
v 0.03745650395 -0.1975 -0.14387589305
v 0.03757805731204 -0.1975 -0.14322225959304
v 0.03633173151336 -0.1975 -0.14281378751735999
v 0.036717595934827 -0.1975 -0.141419273578552
v 0.038092511581411 -0.1975 -0.141869902447046
v 0.03617841675 -0.1975 -0.14363821275
v 0.03445791475 -0.1975 -0.1433182585
v 0.03802311925 -0.1975 -0.12414695049999999
v 0.0505761164013 -0.1975 -0.1250143494088
vn -2.37222e-33 -1 -1.1992e-32
vn -2.37222e-33 -1 -1.1992e-32
vn -2.37222e-33 -1 -1.1992e-32
vn -2.37222e-33 -1 -1.1992e-32
vn -2.37222e-33 -1 -1.1992e-32
vn -2.37222e-33 -1 -1.1992e-32
vn -2.37222e-33 -1 -1.1992e-32
vn -2.37222e-33 -1 -1.1992e-32
vn -2.37222e-33 -1 -1.1992e-32
vn -2.37222e-33 -1 -1.1992e-32
vn -2.37222e-33 -1 -1.1992e-32
vn -2.37222e-33 -1 -1.1992e-32
vn -2.37222e-33 -1 -1.1992e-32
vn -2.37222e-33 -1 -1.1992e-32
f 52//52 51//51 50//50 
f 55//55 52//52 50//50 
f 57//57 56//56 53//53 
f 48//48 50//50 49//49 
f 48//48 55//55 50//50 
f 54//54 57//57 53//53 
f 54//54 55//55 48//48 
f 47//47 46//46 59//59 
f 47//47 54//54 48//48 
f 58//58 54//54 47//47 
f 58//58 57//57 54//54 
f 58//58 47//47 59//59 

g Face_10
v 0.05107823775 -0.193 -0.12504903750000002
v 0.049642561090592 -0.195 -0.124949879782583
v 0.05007266725 -0.193 -0.1304563295
v 0.048667157705592 -0.195 -0.130194953022583
v 0.048842495539128 -0.1941502 -0.130227559834447
v 0.049338921321056 -0.1934438 -0.130319877971094
vn 2.24452e-33 0.946168 0.323676
vn 2.90513e-49 1.22465e-16 1
vn 2.24452e-33 0.946168 0.323676
vn 2.90513e-49 1.22465e-16 1
vn 9.53693e-34 0.402026 0.915628
vn 1.74646e-33 0.736212 0.676751
f 60//60 62//62 65//65 
f 61//61 64//64 63//63 
f 61//61 65//65 64//64 
f 61//61 60//60 65//65 

g Face_11
v 0.0505761164013 -0.1975 -0.1250143494088
v 0.05107823775 -0.193 -0.12504903750000002
v 0.04958109525 -0.1975 -0.130364914
v 0.05007266725 -0.193 -0.1304563295
vn -2.61968e-34 -0.110432 -0.993884
vn -2.61968e-34 -0.110432 -0.993884
vn -2.61968e-34 -0.110432 -0.993884
vn -2.61968e-34 -0.110432 -0.993884
f 66//66 68//68 69//69 
f 67//67 66//66 69//69 

g Face_12
v 0.03757805731204 -0.1975 -0.14322225959304
v 0.03757805731204 -0.195 -0.14322225959304
v 0.03745650395 -0.1975 -0.14387589305
v 0.03745650395 -0.195 -0.14387589305
vn -0 -1.1992e-32 1
vn -0 -1.1992e-32 1
vn -0 -1.1992e-32 1
vn -0 -1.1992e-32 1
f 73//73 70//70 71//71 
f 73//73 72//72 70//70 

g Face_13
v 0.03633173151336 -0.1975 -0.14281378751735999
v 0.03633173151336 -0.195 -0.14281378751735999
v 0.036717595934827 -0.1975 -0.141419273578552
v 0.038092511581411 -0.1975 -0.141869902447046
v 0.03757805731204 -0.1975 -0.14322225959304
v 0.03757805731204 -0.195 -0.14322225959304
v 0.036717595934827 -0.195 -0.141419273578552
v 0.038092511581411 -0.195 -0.141869902447046
vn 0.661438 7.42491e-33 -0.75
vn 0.661438 7.42491e-33 -0.75
vn -0.780117 9.3532e-33 -0.625634
vn -0.588461 -8.29986e-33 0.808525
vn 0.835165 -8.57678e-33 0.55
vn 0.835165 -8.57678e-33 0.55
vn -0.780117 9.3532e-33 -0.625634
vn -0.588461 -8.29986e-33 0.808525
f 80//80 74//74 75//75 
f 80//80 76//76 74//74 
f 81//81 77//77 76//76 
f 81//81 76//76 80//80 
f 79//79 78//78 77//77 
f 79//79 77//77 81//81 

g Face_14
v 0.03617841675 -0.1975 -0.14363821275
v 0.03617841675 -0.195 -0.14363821275
v 0.03633173151336 -0.1975 -0.14281378751735999
v 0.03633173151336 -0.195 -0.14281378751735999
vn -2.06869e-15 1.1992e-32 -1
vn -2.06869e-15 1.1992e-32 -1
vn -2.06869e-15 1.1992e-32 -1
vn -2.06869e-15 1.1992e-32 -1
f 85//85 82//82 83//83 
f 85//85 84//84 82//82 

g Face_15
v 0.0505761164013 -0.1975 -0.1250143494088
v 0.05107823775 -0.193 -0.12504903750000002
v 0.03802311925 -0.1975 -0.12414695049999999
v 0.03802311925 -0.195 -0.12414695049999999
v 0.049642561090592 -0.195 -0.124949879782583
vn 0.993409 -3.73115e-33 0.114624
vn 0.993409 -3.73115e-33 0.114624
vn 0.993409 -3.73115e-33 0.114624
vn 0.993409 -3.73115e-33 0.114624
vn 0.993409 -3.73115e-33 0.114624
f 87//87 90//90 86//86 
f 88//88 86//86 90//90 
f 89//89 88//88 90//90 

