mtllib Marteau_-_tige_Quarts_G.mtl
usemtl Marteau_-_tige_Quarts_G
#Wavefront export of shape 1-92-6--Marteau_-_tige_Quarts_G

g Face_1
v 0.06355458237370536 0.029141237264099982 -0.14032849564603497
v 0.062816688580944 0.027570240482899976 -0.13999328043607376
v 0.06424705204940352 0.02675975407339998 -0.14064306231240972
v 0.06498498901865288 0.028330786244179982 -0.1409781944599561
v 0.06355458237370536 0.029141237264099982 -0.14032849564603497
v 0.07559211349378275 0.028957659368199988 -0.11114298341535117
v 0.081028253488098 0.030311366055099986 -0.09678230477661554
v 0.08730090883486794 0.03462984038180007 -0.08213558501943254
v 0.08881204868739923 0.03388177750000005 -0.08254438223305648
v 0.08842025122775705 0.034377969340110066 -0.08255983454348968
v 0.08786940007085285 0.034650533033500075 -0.0824107665813018
v 0.08833439111351167 0.0323919025 -0.0817215112129541
v 0.08876923419726142 0.03272967032710001 -0.08206135767708751
v 0.08894406833308605 0.03327500033410004 -0.08236254821934944
v 0.08678568739616918 0.03312685250000001 -0.08128981151450157
v 0.08718921513854533 0.032621226225 -0.08127607492223228
v 0.0877560535516464 0.032352207827099994 -0.08143407231781005
v 0.08726334497005667 0.03461672749999999 -0.08211268253460412
v 0.08682850188630699 0.03427895967290005 -0.08177283607047053
v 0.08665369206681788 0.033733638725000036 -0.08147166058305721
v 0.08730090883486794 0.03462984038180007 -0.08213558501943254
v 0.08728806298373569 0.03462554791690007 -0.0821278300383572
v 0.08727562274991695 0.03462120715330007 -0.08212024605957642
v 0.07559211349378275 0.028957659368199988 -0.11114298341535117
v 0.081028253488098 0.030311366055099986 -0.09678230477661554
v 0.07333358841590347 0.02732340719409999 -0.11480804356159502
v 0.07480174479703201 0.026512380811699987 -0.11536638021287897
v 0.07555629702532879 0.02808308674409999 -0.11566392400379415
v 0.08157794602923549 0.02939664144056999 -0.09320846969242207
v 0.08309473868522188 0.028597935828619987 -0.09364024434505894
v 0.08372982868446155 0.030132038496039994 -0.0942470425154366
v 0.0740996199481413 0.02734484494069999 -0.112797502069819
v 0.07632236742391349 0.028104775304199983 -0.11365314888420117
v 0.08096465881669522 0.029061319679249988 -0.09473200664456709
v 0.08312537399924136 0.02980096166146999 -0.09574821922803324
v 0.07479076254817149 0.026718091729499984 -0.11228905824776791
v 0.07557220543742184 0.026534053826699988 -0.11334425899226043
v 0.07521111435028026 0.02656274386549999 -0.11206578745899973
v 0.08247794100224101 0.02826046014877999 -0.09517208256824755
v 0.08144077944611147 0.02811853636879299 -0.0956412322716066
v 0.07692521636339207 0.027529520490599986 -0.11216932141894168
v 0.08275729467361889 0.028982492652519988 -0.09677707278015345
v 0.07526924239318247 0.026691536168999982 -0.11124144800537496
v 0.07852945819515354 0.028263283350999993 -0.10088076842817
v 0.08098966600066015 0.028119553225229993 -0.09613929232309763
v 0.07574498835345299 0.027679086095399985 -0.10829885984285877
v 0.07799641247418723 0.02675376022769999 -0.10626852452051129
v 0.07823351107092168 0.02713089967989999 -0.1033375138491738
v 0.07805717708384105 0.028034801903799984 -0.10918077951717477
v 0.07917871330518281 0.02904733025109999 -0.10500688420475707
v 0.08022576588009188 0.02747726651139999 -0.10243494599016832
v 0.08048553388888549 0.027396754249109985 -0.10062139435650956
v 0.08077573563890648 0.028598502521099987 -0.10193616064977215
v 0.08083799052866988 0.027549771488559992 -0.09874970101833822
v 0.08124806999422032 0.02822122570639999 -0.10057535243578715
v 0.08149913886031308 0.027966034708649994 -0.09928703784884264
v 0.0771770628605718 0.026638711377799988 -0.10878795417053355
v 0.07939631520108234 0.02719455993309999 -0.10435716912620768
v 0.07989517725175588 0.028775113848599987 -0.09732091701066525
vn -7.91299e-14 0.952598 0.304231
vn 4.00731e-14 -0.304223 0.952601
vn 7.92733e-14 -0.952598 -0.304231
vn -4.34372e-14 0.304239 -0.952596
vn -6.32001e-14 0.952598 0.304231
vn -0.0443721 0.95229 0.301952
vn -0.177648 0.939461 0.293008
vn -0.323892 0.900417 0.290418
vn -0.121691 0.30197 -0.945519
vn -0.262573 0.698924 -0.665253
vn -0.336244 0.916975 -0.214703
vn 0.319639 -0.88993 -0.325355
vn 0.21597 -0.619717 -0.754525
vn 0.054432 -0.183451 -0.981521
vn 0.121691 -0.30197 0.945519
vn 0.265207 -0.706479 0.656166
vn 0.337661 -0.921687 0.190994
vn -0.319639 0.88993 0.325355
vn -0.21597 0.619717 0.754525
vn -0.054432 0.183451 0.981521
vn -0.323892 0.900417 0.290418
vn -0.322492 0.89698 0.302366
vn -0.321089 0.893521 0.313883
vn -0.0443721 0.95229 0.301952
vn -0.177648 0.939461 0.293008
vn -0.0562823 -0.303867 0.951051
vn 0.0237247 -0.952699 -0.30299
vn 0.056279 0.303867 -0.951051
vn 0.0242695 -0.293736 0.955578
vn 0.212527 -0.932497 -0.292032
vn -0.024481 0.293691 -0.955587
vn -0.0562033 -0.303903 0.951044
vn 0.0561682 0.303876 -0.951054
vn 0.0128317 -0.295943 0.955119
vn -0.0130057 0.296029 -0.95509
vn -0.0226043 -0.81467 0.579484
vn 0.0334142 -0.952583 -0.30244
vn -0.00247715 -0.944361 0.328901
vn 0.195111 -0.936074 -0.292742
vn 0.153424 -0.928335 0.338607
vn 0.0684156 -0.180051 -0.981275
vn 0.0815581 -0.179135 -0.980438
vn -0.0133989 -0.855244 0.518052
vn -0.0475936 -0.141088 0.988852
vn 0.12059 -0.841557 0.526535
vn -0.0610426 -0.142096 0.987969
vn 0.069009 -0.990003 -0.123009
vn 0.0381236 -0.852353 0.521575
vn 0.0610407 0.142048 -0.987976
vn -0.0117902 0.749771 -0.661592
vn 0.117014 -0.691131 -0.713194
vn 0.134925 -0.91023 -0.391505
vn 0.0481332 0.141272 -0.9888
vn 0.147919 -0.981949 -0.117883
vn 0.0954959 -0.290614 -0.952063
vn 0.133703 -0.626339 -0.768
vn 0.0556863 -0.974567 -0.217065
vn 0.104739 -0.76608 -0.634154
vn -0.0328266 -0.13916 0.989726
f 26//26 1//1 2//2 
f 26//26 2//2 3//3 
f 26//26 24//24 1//1 
f 27//27 26//26 3//3 
f 28//28 3//3 4//4 
f 28//28 4//4 5//5 
f 28//28 5//5 6//6 
f 28//28 27//27 3//3 
f 29//29 16//16 15//15 
f 29//29 17//17 16//16 
f 29//29 19//19 18//18 
f 29//29 20//20 19//19 
f 29//29 15//15 20//20 
f 29//29 22//22 21//21 
f 29//29 23//23 22//22 
f 29//29 18//18 23//23 
f 29//29 21//21 25//25 
f 30//30 13//13 12//12 
f 30//30 12//12 17//17 
f 30//30 17//17 29//29 
f 31//31 7//7 8//8 
f 31//31 10//10 9//9 
f 31//31 11//11 10//10 
f 31//31 8//8 11//11 
f 31//31 14//14 13//13 
f 31//31 9//9 14//14 
f 31//31 13//13 30//30 
f 32//32 24//24 26//26 
f 33//33 28//28 6//6 
f 34//34 29//29 25//25 
f 35//35 7//7 31//31 
f 36//36 24//24 32//32 
f 37//37 32//32 26//26 
f 37//37 27//27 28//28 
f 37//37 26//26 27//27 
f 37//37 28//28 33//33 
f 37//37 36//36 32//32 
f 38//38 36//36 37//37 
f 39//39 31//31 30//30 
f 39//39 35//35 31//31 
f 39//39 29//29 34//34 
f 39//39 30//30 29//29 
f 39//39 34//34 40//40 
f 41//41 33//33 6//6 
f 41//41 37//37 33//33 
f 41//41 38//38 37//37 
f 42//42 7//7 35//35 
f 42//42 35//35 39//39 
f 42//42 39//39 40//40 
f 43//43 24//24 36//36 
f 43//43 36//36 38//38 
f 43//43 38//38 41//41 
f 44//44 25//25 24//24 
f 45//45 34//34 25//25 
f 45//45 40//40 34//34 
f 45//45 42//42 40//40 
f 46//46 47//47 48//48 
f 46//46 48//48 44//44 
f 46//46 44//44 24//24 
f 46//46 24//24 43//43 
f 49//49 41//41 6//6 
f 50//50 6//6 7//7 
f 50//50 49//49 6//6 
f 50//50 47//47 49//49 
f 51//51 44//44 48//48 
f 52//52 44//44 51//51 
f 53//53 52//52 51//51 
f 53//53 50//50 7//7 
f 53//53 51//51 50//50 
f 54//54 42//42 45//45 
f 54//54 44//44 52//52 
f 55//55 52//52 53//53 
f 55//55 53//53 7//7 
f 56//56 54//54 52//52 
f 56//56 52//52 55//55 
f 56//56 55//55 7//7 
f 56//56 7//7 42//42 
f 56//56 42//42 54//54 
f 57//57 43//43 41//41 
f 57//57 41//41 49//49 
f 57//57 46//46 43//43 
f 57//57 49//49 47//47 
f 57//57 47//47 46//46 
f 58//58 48//48 47//47 
f 58//58 50//50 51//51 
f 58//58 47//47 50//50 
f 58//58 51//51 48//48 
f 59//59 25//25 44//44 
f 59//59 45//45 25//25 
f 59//59 44//44 54//54 
f 59//59 54//54 45//45 

g Face_2
v 0.06355458237370536 0.029141237264099982 -0.14032849564603497
v 0.062816688580944 0.027570240482899976 -0.13999328043607376
v 0.06424705204940352 0.02675975407339998 -0.14064306231240972
v 0.06498498901865288 0.028330786244179982 -0.1409781944599561
v 0.06355458237370536 0.029141237264099982 -0.14032849564603497
v 0.06273996166221125 0.029141219153799986 -0.1421219421554596
v 0.061967724588564456 0.027757783866299977 -0.14175521985396178
v 0.06309677819197498 0.026700463572299982 -0.1422559497421859
v 0.06422914284433107 0.027972640148929983 -0.14278499106524745
v 0.06356400675850879 0.02908510859749998 -0.14249563236286125
v 0.06273996166221125 0.029141219153799986 -0.1421219421554596
vn -5.11924e-17 0.952598 0.304231
vn -1.60292e-16 -0.304231 0.952598
vn 5.11924e-17 -0.952598 -0.304231
vn 1.60292e-16 0.304231 -0.952598
vn -5.11924e-17 0.952598 0.304231
vn -5.11924e-17 0.952598 0.304231
vn -1.66256e-16 -0.154173 0.988044
vn -1.08003e-30 -1 6.41848e-15
vn 1.68242e-16 0.0177081 -0.999843
vn 7.06091e-17 0.907699 -0.419622
vn -5.11924e-17 0.952598 0.304231
f 60//60 65//65 66//66 
f 61//61 66//66 67//67 
f 61//61 60//60 66//66 
f 62//62 67//67 68//68 
f 62//62 61//61 67//67 
f 63//63 68//68 69//69 
f 63//63 62//62 68//68 
f 64//64 69//69 70//70 
f 64//64 63//63 69//69 

g Face_3
v 0.06309677819197498 0.026700463572299982 -0.1422559497421859
v 0.06422914284433107 0.027972640148929983 -0.14278499106524745
v 0.06356400675850879 0.02908510859749998 -0.14249563236286125
v 0.06273996166221125 0.029141219153799986 -0.1421219421554596
v 0.061967724588564456 0.027757783866299977 -0.14175521985396178
vn -0.999945 -0.0104718 -8.57412e-17
vn -0.999945 -0.0104718 -8.57412e-17
vn -0.999945 -0.0104718 -8.57412e-17
vn -0.999945 -0.0104718 -8.57412e-17
vn -0.999945 -0.0104718 -8.57412e-17
f 74//74 73//73 72//72 
f 75//75 72//72 71//71 
f 75//75 74//74 72//72 

g Face_4
v 0.08625016432444167 0.03423926499999999 -0.08148539717532663
v 0.08678568739616918 0.03312685250000001 -0.08128981151450157
v 0.08726334497005667 0.03461672749999999 -0.08211268253460412
v 0.08682850188630699 0.03427895967290005 -0.08177283607047053
v 0.08665369206681788 0.033733638725000036 -0.08147166058305721
vn -0.939693 -0.341817 0.011775
vn -0.939693 -0.341817 0.011775
vn -0.939693 -0.341817 0.011775
vn -0.939693 -0.341817 0.011775
vn -0.939693 -0.341817 0.011775
f 76//76 80//80 77//77 
f 79//79 80//80 76//76 
f 78//78 79//79 76//76 

g Face_5
v 0.08732121046789666 0.03201443999999999 -0.08109422585367662
v 0.08833439111351167 0.0323919025 -0.0817215112129541
v 0.08678568739616918 0.03312685250000001 -0.08128981151450157
v 0.08718921513854533 0.032621226225 -0.08127607492223228
v 0.0877560535516464 0.032352207827099994 -0.08143407231781005
vn -0.939693 -0.341817 0.011775
vn -0.939693 -0.341817 0.011775
vn -0.939693 -0.341817 0.011775
vn -0.939693 -0.341817 0.011775
vn -0.939693 -0.341817 0.011775
f 84//84 85//85 81//81 
f 82//82 81//81 85//85 
f 83//83 84//84 81//81 

g Face_6
v 0.08934757175912666 0.032769365 -0.0823487965722316
v 0.08881204868739923 0.03388177750000005 -0.08254438223305648
v 0.08833439111351167 0.0323919025 -0.0817215112129541
v 0.08876923419726142 0.03272967032710001 -0.08206135767708751
v 0.08894406833308605 0.03327500033410004 -0.08236254821934944
vn -0.939693 -0.341817 0.011775
vn -0.939693 -0.341817 0.011775
vn -0.939693 -0.341817 0.011775
vn -0.939693 -0.341817 0.011775
vn -0.939693 -0.341817 0.011775
f 86//86 88//88 89//89 
f 90//90 86//86 89//89 
f 87//87 86//86 90//90 

g Face_7
v 0.08827652561567167 0.03499419 -0.0827399678938816
v 0.08726334497005667 0.03461672749999999 -0.08211268253460412
v 0.08730090883486794 0.03462984038180007 -0.08213558501943254
v 0.08728806298373569 0.03462554791690007 -0.0821278300383572
v 0.08727562274991695 0.03462120715330007 -0.08212024605957642
v 0.08881204868739923 0.03388177750000005 -0.08254438223305648
v 0.08842025122775705 0.034377969340110066 -0.08255983454348968
v 0.08786940007085285 0.034650533033500075 -0.0824107665813018
vn -0.939693 -0.341817 0.011775
vn -0.939693 -0.341817 0.011775
vn -0.939693 -0.341817 0.011775
vn -0.939693 -0.341817 0.011775
vn -0.939693 -0.341817 0.011775
vn -0.939693 -0.341817 0.011775
vn -0.939693 -0.341817 0.011775
vn -0.939693 -0.341817 0.011775
f 91//91 96//96 97//97 
f 91//91 97//97 98//98 
f 91//91 95//95 92//92 
f 91//91 94//94 95//95 
f 91//91 93//93 94//94 
f 91//91 98//98 93//93 

g Face_8
v 0.08678568739616918 0.03312685250000001 -0.08128981151450157
v 0.08732121046789666 0.03201443999999999 -0.08109422585367662
v 0.08625016432444167 0.03423926499999999 -0.08148539717532663
v 0.08864622292014566 0.036290167 -0.07638121349622662
v 0.08971726906360065 0.034065342 -0.07599004217457661
vn 0.121691 -0.30197 0.945519
vn 0.121691 -0.30197 0.945519
vn 0.121691 -0.30197 0.945519
vn 0.121691 -0.30197 0.945519
vn 0.121691 -0.30197 0.945519
f 99//99 103//103 102//102 
f 99//99 100//100 103//103 
f 101//101 99//99 102//102 

g Face_9
v 0.08726334497005667 0.03461672749999999 -0.08211268253460412
v 0.08625016432444167 0.03423926499999999 -0.08148539717532663
v 0.08827652561567167 0.03499419 -0.0827399678938816
v 0.09067258421137567 0.037045091999999995 -0.07763578421478162
v 0.08864622292014566 0.036290167 -0.07638121349622662
vn -0.319639 0.88993 0.325355
vn -0.319639 0.88993 0.325355
vn -0.319639 0.88993 0.325355
vn -0.319639 0.88993 0.325355
vn -0.319639 0.88993 0.325355
f 107//107 106//106 104//104 
f 108//108 104//104 105//105 
f 108//108 107//107 104//104 

g Face_10
v 0.08881204868739923 0.03388177750000005 -0.08254438223305648
v 0.08827652561567167 0.03499419 -0.0827399678938816
v 0.08934757175912666 0.032769365 -0.0823487965722316
v 0.09174363035483066 0.034820266999999995 -0.07724461289313161
v 0.09067258421137567 0.037045091999999995 -0.07763578421478162
vn -0.121691 0.30197 -0.945519
vn -0.121691 0.30197 -0.945519
vn -0.121691 0.30197 -0.945519
vn -0.121691 0.30197 -0.945519
vn -0.121691 0.30197 -0.945519
f 112//112 111//111 109//109 
f 113//113 109//109 110//110 
f 113//113 112//112 109//109 

g Face_11
v 0.08833439111351167 0.0323919025 -0.0817215112129541
v 0.08934757175912666 0.032769365 -0.0823487965722316
v 0.08732121046789666 0.03201443999999999 -0.08109422585367662
v 0.08971726906360065 0.034065342 -0.07599004217457661
v 0.09174363035483066 0.034820266999999995 -0.07724461289313161
vn 0.319639 -0.88993 -0.325355
vn 0.319639 -0.88993 -0.325355
vn 0.319639 -0.88993 -0.325355
vn 0.319639 -0.88993 -0.325355
vn 0.319639 -0.88993 -0.325355
f 114//114 117//117 116//116 
f 114//114 118//118 117//117 
f 115//115 118//118 114//114 

g Face_12
v 0.09174363035483066 0.034820266999999995 -0.07724461289313161
v 0.08971726906360065 0.034065342 -0.07599004217457661
v 0.08864622292014566 0.036290167 -0.07638121349622662
v 0.09067258421137567 0.037045091999999995 -0.07763578421478162
vn 0.939693 0.341817 -0.011775
vn 0.939693 0.341817 -0.011775
vn 0.939693 0.341817 -0.011775
vn 0.939693 0.341817 -0.011775
f 119//119 121//121 120//120 
f 119//119 122//122 121//121 

