mtllib Palette_Quarts_instance_3.mtl
usemtl Palette_Quarts_instance_3
#Wavefront export of shape 1-61-6--Palette_Quarts

g Face_1
v 0.2360285470999998 -0.12151538839999988 -0.11429999999999998
v 0.2356726838999998 -0.12133273759999989 -0.11429999999999998
v 0.2360285470999997 -0.12151538839999988 -0.06429999999999997
v 0.2356726838999997 -0.12133273759999989 -0.06429999999999997
vn 1 1.04361e-14 -1.36739e-27
vn 1 1.04361e-14 -1.36739e-27
vn 1 1.04361e-14 -1.36739e-27
vn 1 1.04361e-14 -1.36739e-27
f 2//2 3//3 1//1 
f 2//2 4//4 3//3 

g Face_2
v 0.2360285470999997 -0.12151538839999988 -0.06429999999999997
v 0.2356726838999997 -0.12133273759999989 -0.06429999999999997
v 0.22529781259999992 -0.1424223514 -0.0643
v 0.22494194939999992 -0.1422397006 -0.0643
vn 1.36739e-27 -5.44906e-28 1
vn 1.36739e-27 -5.44906e-28 1
vn 1.36739e-27 -5.44906e-28 1
vn 1.36739e-27 -5.44906e-28 1
f 6//6 7//7 5//5 
f 6//6 8//8 7//7 

g Face_3
v 0.22529781259999992 -0.1424223514 -0.0643
v 0.22494194939999992 -0.1422397006 -0.0643
v 0.22529781259999992 -0.1424223514 -0.06929999999999999
v 0.22494194939999992 -0.1422397006 -0.06929999999999999
vn -1 -1.04361e-14 -1.73472e-16
vn -1 -1.04361e-14 -1.73472e-16
vn -1 -1.04361e-14 -1.73472e-16
vn -1 -1.04361e-14 -1.73472e-16
f 9//9 12//12 11//11 
f 9//9 10//10 12//12 

g Face_4
v 0.22529781259999992 -0.1424223514 -0.06929999999999999
v 0.22494194939999992 -0.1422397006 -0.06929999999999999
v 0.2283710766957199 -0.13643463278311999 -0.07046649999999999
v 0.22992741676489986 -0.13340237583539996 -0.07373409999999997
v 0.23000992926379987 -0.13324161463479997 -0.07836749999999998
v 0.2290995520138999 -0.13501532578939998 -0.08364256999999999
v 0.22945695396679988 -0.13431899047279997 -0.08630115999999999
v 0.23043486634999988 -0.13241369889999996 -0.0893
v 0.23007900314999985 -0.13223104809999994 -0.08929999999999995
v 0.2280152134957199 -0.13625198198311997 -0.07046649999999999
v 0.22957155356489986 -0.13321972503539994 -0.07373409999999997
v 0.22965406606379987 -0.13305896383479995 -0.07836749999999998
v 0.2287436888138999 -0.13483267498939996 -0.08364256999999999
v 0.22910109076679988 -0.13413633967279995 -0.08630115999999999
vn 0.0362747 3.93291e-16 -0.999342
vn 0.0362747 3.93291e-16 -0.999342
vn -0.435155 -4.0863e-15 -0.900355
vn -0.90461 -7.95635e-15 -0.426239
vn -0.939948 -8.15283e-15 0.341317
vn -0.999263 -8.66723e-15 -0.0383749
vn -0.885187 -7.67777e-15 -0.465235
vn -0.756088 -6.55801e-15 -0.65447
vn -0.756088 -6.55801e-15 -0.65447
vn -0.435155 -4.0863e-15 -0.900355
vn -0.90461 -7.95635e-15 -0.426239
vn -0.939948 -8.15283e-15 0.341317
vn -0.999263 -8.66723e-15 -0.0383749
vn -0.885187 -7.67777e-15 -0.465235
f 22//22 13//13 14//14 
f 22//22 15//15 13//13 
f 23//23 16//16 15//15 
f 23//23 15//15 22//22 
f 24//24 17//17 16//16 
f 24//24 16//16 23//23 
f 25//25 18//18 17//17 
f 25//25 17//17 24//24 
f 26//26 19//19 18//18 
f 26//26 18//18 25//25 
f 21//21 20//20 19//19 
f 21//21 19//19 26//26 

g Face_5
v 0.2360285470999998 -0.12151538839999988 -0.11429999999999998
v 0.2360285470999997 -0.12151538839999988 -0.06429999999999997
v 0.22529781259999992 -0.1424223514 -0.0643
v 0.22529781259999992 -0.1424223514 -0.06929999999999999
v 0.2283710766957199 -0.13643463278311999 -0.07046649999999999
v 0.22992741676489986 -0.13340237583539996 -0.07373409999999997
v 0.23000992926379987 -0.13324161463479997 -0.07836749999999998
v 0.2290995520138999 -0.13501532578939998 -0.08364256999999999
v 0.22945695396679988 -0.13431899047279997 -0.08630115999999999
v 0.23043486634999988 -0.13241369889999996 -0.0893
v 0.2252978126 -0.1424223514 -0.1093
v 0.22837107669571993 -0.13643463278311999 -0.1081335
v 0.2299274167648999 -0.13340237583539996 -0.10486589999999998
v 0.2300099292637999 -0.13324161463479997 -0.10023249999999997
v 0.22909955201389992 -0.13501532578939998 -0.09495743
v 0.2294569539667999 -0.13431899047279997 -0.09229884
v 0.2252978126 -0.1424223514 -0.11429999999999998
vn 1.04361e-14 -1 -5.44906e-28
vn 1.04361e-14 -1 -5.44906e-28
vn 1.04361e-14 -1 -5.44906e-28
vn 1.04361e-14 -1 -5.44906e-28
vn 1.04361e-14 -1 -5.44906e-28
vn 1.04361e-14 -1 -5.44906e-28
vn 1.04361e-14 -1 -5.44906e-28
vn 1.04361e-14 -1 -5.44906e-28
vn 1.04361e-14 -1 -5.44906e-28
vn 1.04361e-14 -1 -5.44906e-28
vn 1.04361e-14 -1 -5.44906e-28
vn 1.04361e-14 -1 -5.44906e-28
vn 1.04361e-14 -1 -5.44906e-28
vn 1.04361e-14 -1 -5.44906e-28
vn 1.04361e-14 -1 -5.44906e-28
vn 1.04361e-14 -1 -5.44906e-28
vn 1.04361e-14 -1 -5.44906e-28
f 31//31 29//29 30//30 
f 28//28 31//31 32//32 
f 28//28 29//29 31//31 
f 33//33 28//28 32//32 
f 35//35 33//33 34//34 
f 36//36 33//33 35//35 
f 36//36 28//28 33//33 
f 40//40 42//42 41//41 
f 40//40 36//36 42//42 
f 38//38 37//37 43//43 
f 27//27 39//39 38//38 
f 27//27 40//40 39//39 
f 27//27 36//36 40//40 
f 27//27 38//38 43//43 
f 27//27 28//28 36//36 

g Face_6
v 0.2356726838999997 -0.12133273759999989 -0.06429999999999997
v 0.22494194939999992 -0.1422397006 -0.0643
v 0.22494194939999992 -0.1422397006 -0.06929999999999999
v 0.2280152134957199 -0.13625198198311997 -0.07046649999999999
v 0.22957155356489986 -0.13321972503539994 -0.07373409999999997
v 0.22965406606379987 -0.13305896383479995 -0.07836749999999998
v 0.2287436888138999 -0.13483267498939996 -0.08364256999999999
v 0.22910109076679988 -0.13413633967279995 -0.08630115999999999
v 0.23007900314999985 -0.13223104809999994 -0.08929999999999995
v 0.2249419494 -0.1422397006 -0.1093
v 0.22801521349571993 -0.13625198198311997 -0.1081335
v 0.2295715535648999 -0.13321972503539994 -0.10486589999999998
v 0.2296540660637999 -0.13305896383479995 -0.10023249999999997
v 0.22874368881389992 -0.13483267498939996 -0.09495743
v 0.2291010907667999 -0.13413633967279995 -0.09229884
v 0.2249419494 -0.1422397006 -0.11429999999999998
v 0.2356726838999998 -0.12133273759999989 -0.11429999999999998
vn -1.04361e-14 1 5.44906e-28
vn -1.04361e-14 1 5.44906e-28
vn -1.04361e-14 1 5.44906e-28
vn -1.04361e-14 1 5.44906e-28
vn -1.04361e-14 1 5.44906e-28
vn -1.04361e-14 1 5.44906e-28
vn -1.04361e-14 1 5.44906e-28
vn -1.04361e-14 1 5.44906e-28
vn -1.04361e-14 1 5.44906e-28
vn -1.04361e-14 1 5.44906e-28
vn -1.04361e-14 1 5.44906e-28
vn -1.04361e-14 1 5.44906e-28
vn -1.04361e-14 1 5.44906e-28
vn -1.04361e-14 1 5.44906e-28
vn -1.04361e-14 1 5.44906e-28
vn -1.04361e-14 1 5.44906e-28
vn -1.04361e-14 1 5.44906e-28
f 47//47 46//46 45//45 
f 44//44 48//48 47//47 
f 44//44 47//47 45//45 
f 49//49 48//48 44//44 
f 51//51 50//50 49//49 
f 52//52 51//51 49//49 
f 52//52 49//49 44//44 
f 56//56 57//57 58//58 
f 56//56 58//58 52//52 
f 54//54 59//59 53//53 
f 60//60 54//54 55//55 
f 60//60 55//55 56//56 
f 60//60 56//56 52//52 
f 60//60 59//59 54//54 
f 60//60 52//52 44//44 

g Face_7
v 0.2252978126 -0.1424223514 -0.11429999999999998
v 0.2249419494 -0.1422397006 -0.11429999999999998
v 0.2360285470999998 -0.12151538839999988 -0.11429999999999998
v 0.2356726838999998 -0.12133273759999989 -0.11429999999999998
vn -1.36739e-27 5.44906e-28 -1
vn -1.36739e-27 5.44906e-28 -1
vn -1.36739e-27 5.44906e-28 -1
vn -1.36739e-27 5.44906e-28 -1
f 62//62 63//63 61//61 
f 62//62 64//64 63//63 

g Face_8
v 0.2252978126 -0.1424223514 -0.1093
v 0.2249419494 -0.1422397006 -0.1093
v 0.2252978126 -0.1424223514 -0.11429999999999998
v 0.2249419494 -0.1422397006 -0.11429999999999998
vn -1 -1.04361e-14 1.73472e-16
vn -1 -1.04361e-14 1.73472e-16
vn -1 -1.04361e-14 1.73472e-16
vn -1 -1.04361e-14 1.73472e-16
f 68//68 65//65 66//66 
f 68//68 67//67 65//65 

g Face_9
v 0.23043486634999988 -0.13241369889999996 -0.0893
v 0.23007900314999985 -0.13223104809999994 -0.08929999999999995
v 0.2252978126 -0.1424223514 -0.1093
v 0.22837107669571993 -0.13643463278311999 -0.1081335
v 0.2299274167648999 -0.13340237583539996 -0.10486589999999998
v 0.2300099292637999 -0.13324161463479997 -0.10023249999999997
v 0.22909955201389992 -0.13501532578939998 -0.09495743
v 0.2294569539667999 -0.13431899047279997 -0.09229884
v 0.2249419494 -0.1422397006 -0.1093
v 0.22801521349571993 -0.13625198198311997 -0.1081335
v 0.2295715535648999 -0.13321972503539994 -0.10486589999999998
v 0.2296540660637999 -0.13305896383479995 -0.10023249999999997
v 0.22874368881389992 -0.13483267498939996 -0.09495743
v 0.2291010907667999 -0.13413633967279995 -0.09229884
vn -0.756088 -6.55801e-15 0.65447
vn -0.756088 -6.55801e-15 0.65447
vn 0.0362747 3.93291e-16 0.999342
vn -0.435155 -4.0863e-15 0.900355
vn -0.90461 -7.95635e-15 0.426239
vn -0.939948 -8.15283e-15 -0.341317
vn -0.999263 -8.66723e-15 0.0383749
vn -0.885187 -7.67777e-15 0.465235
vn 0.0362747 3.93291e-16 0.999342
vn -0.435155 -4.0863e-15 0.900355
vn -0.90461 -7.95635e-15 0.426239
vn -0.939948 -8.15283e-15 -0.341317
vn -0.999263 -8.66723e-15 0.0383749
vn -0.885187 -7.67777e-15 0.465235
f 82//82 69//69 70//70 
f 82//82 76//76 69//69 
f 81//81 75//75 76//76 
f 81//81 76//76 82//82 
f 80//80 74//74 75//75 
f 80//80 75//75 81//81 
f 79//79 73//73 74//74 
f 79//79 74//74 80//80 
f 78//78 72//72 73//73 
f 78//78 73//73 79//79 
f 77//77 71//71 72//72 
f 77//77 72//72 78//78 

