mtllib Pallier_tige_marteau_gauche.mtl
usemtl Pallier_tige_marteau_gauche
#Wavefront export of shape 1-1-10--Pallier_tige_marteau_gauche

g Face_1
v 0.04725 0.0051613299999999996 -0.14738918
v 0.05075978 0.0051613299999999996 -0.14569896
v 0.05162662 0.0051613299999999996 -0.141901064
v 0.04919778 0.0051613299999999996 -0.13885539
v 0.04530222 0.0051613299999999996 -0.13885539
v 0.04287338 0.0051613299999999996 -0.141901064
v 0.04374022 0.0051613299999999996 -0.14569896
v 0.04725 0.0051613299999999996 -0.14738918
v 0.04725 0.0033999999999999994 -0.1479
v 0.05115916 0.0033999999999999994 -0.14601745
v 0.05212464 0.0033999999999999994 -0.1417874
v 0.04941942 0.0033999999999999994 -0.13839516
v 0.04508058 0.0033999999999999994 -0.13839516
v 0.04237536 0.0033999999999999994 -0.1417874
v 0.04334084 0.0033999999999999994 -0.14601745
v 0.04725 0.0033999999999999994 -0.1479
vn -0 0.52265 -0.852547
vn 0.666555 0.52265 -0.531546
vn 0.831169 0.52265 0.189725
vn 0.370888 0.52265 0.767645
vn -0.370888 0.52265 0.767645
vn -0.831169 0.52265 0.189725
vn -0.666555 0.52265 -0.531546
vn -0 0.52265 -0.852547
vn 0 -9.59412e-15 -1
vn 0.781839 -5.76704e-15 -0.62348
vn 0.974924 -9.53573e-17 0.222539
vn 0.435035 1.14026e-14 0.900413
vn -0.435035 1.24177e-14 0.900413
vn -0.974924 -3.06187e-16 0.222539
vn -0.781839 -5.06704e-15 -0.62348
vn 0 -9.59412e-15 -1
f 10//10 1//1 2//2 
f 10//10 9//9 1//1 
f 11//11 2//2 3//3 
f 11//11 10//10 2//2 
f 12//12 3//3 4//4 
f 12//12 11//11 3//3 
f 13//13 4//4 5//5 
f 13//13 12//12 4//4 
f 14//14 5//5 6//6 
f 14//14 13//13 5//5 
f 15//15 6//6 7//7 
f 15//15 14//14 6//6 
f 16//16 7//7 8//8 
f 16//16 15//15 7//7 

g Face_2
v 0.04725 0.0007999999999999999 -0.13915
v 0.04459835 0.0007999999999999999 -0.14024835
v 0.0435 0.0007999999999999999 -0.1429
v 0.04459835 0.0007999999999999999 -0.14555165
v 0.04725 0.0007999999999999999 -0.14665
v 0.04725 0.0034 -0.13915
v 0.04725 0.0034 -0.13915
v 0.05018187 0.0034 -0.14056191
v 0.05090598 0.0034 -0.143734454
v 0.04887706 0.0034 -0.14627863
v 0.04562294 0.0034 -0.14627863
v 0.04359402 0.0034 -0.143734454
v 0.04431813 0.0034 -0.14056191
v 0.04725 0.0007999999999999999 -0.13915
v 0.04990165 0.0007999999999999999 -0.14555165
v 0.051000000000000004 0.0007999999999999999 -0.1429
v 0.04990165 0.0007999999999999999 -0.14024835
vn -2.44929e-16 0 1
vn -0.707107 0 0.707107
vn -1 0 -1.83697e-16
vn -0.707107 0 -0.707107
vn 1.22465e-16 0 -1
vn -2.44929e-16 0 1
vn 0 0 1
vn 0.781831 -0 0.62349
vn 0.974928 0 -0.222521
vn 0.433884 0 -0.900969
vn -0.433884 0 -0.900969
vn -0.974928 0 -0.222521
vn -0.781831 0 0.62349
vn 0 0 1
vn 0.707107 0 -0.707107
vn 1 -0 6.12323e-17
vn 0.707107 -0 0.707107
f 23//23 30//30 33//33 
f 24//24 33//33 32//32 
f 24//24 23//23 33//33 
f 25//25 32//32 31//31 
f 25//25 24//24 32//32 
f 26//26 31//31 21//21 
f 26//26 25//25 31//31 
f 27//27 21//21 20//20 
f 27//27 26//26 21//21 
f 28//28 20//20 19//19 
f 28//28 27//27 20//20 
f 29//29 19//19 18//18 
f 29//29 28//28 19//19 
f 22//22 18//18 17//17 
f 22//22 29//29 18//18 

g Face_3
v 0.04725 0.0 -0.13835
v 0.05080733 0.0 -0.14006311999999999
v 0.05168592 0.0 -0.14391247
v 0.04922417 0.0 -0.14699941
v 0.04527583 0.0 -0.14699941
v 0.04281408 0.0 -0.14391247
v 0.04369267 0.0 -0.14006311999999999
v 0.04725 0.0 -0.13835
v 0.04725 0.0007999999999999999 -0.13915
v 0.04459835 0.0007999999999999999 -0.14024835
v 0.0435 0.0007999999999999999 -0.1429
v 0.04459835 0.0007999999999999999 -0.14555165
v 0.04725 0.0007999999999999999 -0.14665
v 0.04990165 0.0007999999999999999 -0.14555165
v 0.051000000000000004 0.0007999999999999999 -0.1429
v 0.04990165 0.0007999999999999999 -0.14024835
v 0.04725 0.0007999999999999999 -0.13915
vn 2.59787e-16 0.707107 0.707107
vn 0.552838 0.707107 0.440874
vn 0.689378 0.707107 -0.157346
vn 0.306802 0.707107 -0.637081
vn -0.306802 0.707107 -0.637081
vn -0.689378 0.707107 -0.157346
vn -0.552838 0.707107 0.440874
vn 8.65956e-17 0.707107 0.707107
vn 8.65956e-17 0.707107 0.707107
vn -0.5 0.707107 0.5
vn -0.707107 0.707107 1.29893e-16
vn -0.5 0.707107 -0.5
vn -1.73191e-16 0.707107 -0.707107
vn 0.5 0.707107 -0.5
vn 0.707107 0.707107 -2.16489e-16
vn 0.5 0.707107 0.5
vn 2.59787e-16 0.707107 0.707107
f 43//43 41//41 42//42 
f 40//40 41//41 43//43 
f 44//44 40//40 43//43 
f 39//39 40//40 44//44 
f 45//45 39//39 44//44 
f 38//38 39//39 45//45 
f 46//46 38//38 45//45 
f 37//37 38//38 46//46 
f 47//47 37//37 46//46 
f 36//36 47//47 48//48 
f 36//36 37//37 47//47 
f 35//35 48//48 49//49 
f 35//35 36//36 48//48 
f 34//34 49//49 50//50 
f 34//34 35//35 49//49 

g Face_4
v 0.04725 0.0 -0.13835
v 0.05080733 0.0 -0.14006311999999999
v 0.05168592 0.0 -0.14391247
v 0.04922417 0.0 -0.14699941
v 0.04527583 0.0 -0.14699941
v 0.04281408 0.0 -0.14391247
v 0.04369267 0.0 -0.14006311999999999
v 0.04725 0.0 -0.1399
v 0.04984808 0.0 -0.1414
v 0.04984808 0.0 -0.1444
v 0.04725 0.0 -0.1459
v 0.04465192 0.0 -0.1444
v 0.04465192 0.0 -0.1414
vn -0 -1 -0
vn -0 -1 -0
vn -0 -1 -0
vn -0 -1 -0
vn -0 -1 -0
vn -0 -1 -0
vn -0 -1 -0
vn -0 -1 -0
vn -0 -1 -0
vn -0 -1 -0
vn -0 -1 -0
vn -0 -1 -0
vn -0 -1 -0
f 62//62 56//56 55//55 
f 61//61 62//62 55//55 
f 54//54 61//61 55//55 
f 63//63 56//56 62//62 
f 57//57 56//56 63//63 
f 60//60 61//61 54//54 
f 58//58 57//57 63//63 
f 53//53 60//60 54//54 
f 59//59 60//60 53//53 
f 51//51 57//57 58//58 
f 52//52 58//58 59//59 
f 52//52 51//51 58//58 
f 52//52 59//59 53//53 

g Face_5
v 0.04725 0.0033999999999999994 -0.1479
v 0.05115916 0.0033999999999999994 -0.14601745
v 0.05212464 0.0033999999999999994 -0.1417874
v 0.04941942 0.0033999999999999994 -0.13839516
v 0.04508058 0.0033999999999999994 -0.13839516
v 0.04237536 0.0033999999999999994 -0.1417874
v 0.04334084 0.0033999999999999994 -0.14601745
v 0.04725 0.0034 -0.13915
v 0.05018187 0.0034 -0.14056191
v 0.05090598 0.0034 -0.143734454
v 0.04887706 0.0034 -0.14627863
v 0.04562294 0.0034 -0.14627863
v 0.04359402 0.0034 -0.143734454
v 0.04431813 0.0034 -0.14056191
vn -0 -1 -0
vn -0 -1 -0
vn -0 -1 -0
vn -0 -1 -0
vn -0 -1 -0
vn -0 -1 -0
vn -0 -1 -0
vn -0 -1 -0
vn -0 -1 -0
vn -0 -1 -0
vn -0 -1 -0
vn -0 -1 -0
vn -0 -1 -0
vn -0 -1 -0
f 64//64 75//75 70//70 
f 76//76 70//70 75//75 
f 69//69 70//70 76//76 
f 74//74 75//75 64//64 
f 77//77 69//69 76//76 
f 65//65 74//74 64//64 
f 68//68 69//69 77//77 
f 73//73 74//74 65//65 
f 71//71 68//68 77//77 
f 66//66 72//72 73//73 
f 66//66 73//73 65//65 
f 67//67 71//71 72//72 
f 67//67 68//68 71//71 
f 67//67 72//72 66//66 

g Face_6
v 0.04725 0.0054 -0.1388371
v 0.05012291 0.0054 -0.14002709
v 0.0513129 0.0054 -0.1429
v 0.05012291 0.0054 -0.14577291
v 0.04725 0.0054 -0.1469629
v 0.04437709 0.0054 -0.14577291
v 0.0431871 0.0054 -0.1429
v 0.04437709 0.0054 -0.14002709
v 0.04725 0.0054 -0.1399
v 0.04984808 0.0054 -0.1414
v 0.04984808 0.0054 -0.1444
v 0.04725 0.0054 -0.1459
v 0.04465192 0.0054 -0.1444
v 0.04465192 0.0054 -0.1414
vn 0 1 0
vn 0 1 0
vn 0 1 0
vn 0 1 0
vn 0 1 0
vn 0 1 0
vn 0 1 0
vn 0 1 0
vn 0 1 0
vn 0 1 0
vn 0 1 0
vn 0 1 0
vn 0 1 0
vn 0 1 0
f 84//84 90//90 83//83 
f 89//89 82//82 83//83 
f 89//89 83//83 90//90 
f 91//91 90//90 84//84 
f 81//81 82//82 89//89 
f 85//85 91//91 84//84 
f 88//88 81//81 89//89 
f 86//86 91//91 85//85 
f 80//80 81//81 88//88 
f 78//78 86//86 85//85 
f 87//87 80//80 88//88 
f 79//79 87//87 86//86 
f 79//79 80//80 87//87 
f 79//79 86//86 78//78 

g Face_7
v 0.04725 0.0 -0.1399
v 0.04984808 0.0 -0.1414
v 0.04984808 0.0 -0.1444
v 0.04725 0.0 -0.1459
v 0.04465192 0.0 -0.1444
v 0.04465192 0.0 -0.1414
v 0.04725 0.0 -0.1399
v 0.04725 0.0054 -0.1399
v 0.04725 0.0054 -0.1399
v 0.04984808 0.0054 -0.1414
v 0.04984808 0.0054 -0.1444
v 0.04725 0.0054 -0.1459
v 0.04465192 0.0054 -0.1444
v 0.04465192 0.0054 -0.1414
vn -0 -0 -1
vn -0.866025 0 -0.5
vn -0.866025 -0 0.5
vn -1.22465e-16 -0 1
vn 0.866025 -0 0.5
vn 0.866025 -0 -0.5
vn 2.44929e-16 -0 -1
vn 2.44929e-16 -0 -1
vn -0 -0 -1
vn -0.866025 0 -0.5
vn -0.866025 -0 0.5
vn -1.22465e-16 -0 1
vn 0.866025 -0 0.5
vn 0.866025 -0 -0.5
f 101//101 93//93 92//92 
f 101//101 92//92 100//100 
f 102//102 94//94 93//93 
f 102//102 93//93 101//101 
f 103//103 95//95 94//94 
f 103//103 94//94 102//102 
f 104//104 96//96 95//95 
f 104//104 95//95 103//103 
f 105//105 97//97 96//96 
f 105//105 96//96 104//104 
f 99//99 98//98 97//97 
f 99//99 97//97 105//105 

g Face_8
v 0.04725 0.0051613299999999996 -0.14738918
v 0.05075978 0.0051613299999999996 -0.14569896
v 0.05162662 0.0051613299999999996 -0.141901064
v 0.04919778 0.0051613299999999996 -0.13885539
v 0.04530222 0.0051613299999999996 -0.13885539
v 0.04287338 0.0051613299999999996 -0.141901064
v 0.04374022 0.0051613299999999996 -0.14569896
v 0.04725 0.0051613299999999996 -0.14738918
v 0.04725 0.0054 -0.1469629
v 0.04725 0.0054 -0.1388371
v 0.05012291 0.0054 -0.14002709
v 0.0513129 0.0054 -0.1429
v 0.05012291 0.0054 -0.14577291
v 0.04725 0.0054 -0.1469629
v 0.04437709 0.0054 -0.14577291
v 0.0431871 0.0054 -0.1429
v 0.04437709 0.0054 -0.14002709
vn 0 0.52265 -0.852547
vn 0.666548 0.52265 -0.531554
vn 0.831172 0.52265 0.18971
vn 0.369906 0.52265 0.768118
vn -0.369906 0.52265 0.768118
vn -0.831172 0.52265 0.18971
vn -0.666548 0.52265 -0.531554
vn 0 0.52265 -0.852547
vn -0 1 1.83697e-16
vn -0 1 -1.83697e-16
vn -1.29893e-16 1 -1.29893e-16
vn -1.83697e-16 1 0
vn -1.29893e-16 1 1.29893e-16
vn -0 1 1.83697e-16
vn 1.29893e-16 1 1.29893e-16
vn 1.83697e-16 1 0
vn 1.29893e-16 1 -1.29893e-16
f 118//118 106//106 114//114 
f 107//107 106//106 118//118 
f 117//117 107//107 118//118 
f 108//108 107//107 117//117 
f 116//116 108//108 117//117 
f 109//109 108//108 116//116 
f 115//115 109//109 116//116 
f 110//110 109//109 115//115 
f 122//122 110//110 115//115 
f 111//111 110//110 122//122 
f 121//121 111//111 122//122 
f 112//112 121//121 120//120 
f 112//112 111//111 121//121 
f 113//113 120//120 119//119 
f 113//113 112//112 120//120 

