mtllib Pallier_Pont_Grande_detente.mtl
usemtl Pallier_Pont_Grande_detente
#Wavefront export of shape 1-12-9-3--Pallier_Pont_Grande_detente

g Face_1
v 0.20049999999999998 -0.038 -0.026999999999999996
v 0.20287763999999997 -0.039727458 -0.026999999999999996
v 0.20196946 -0.042522540000000005 -0.026999999999999996
v 0.19903053999999998 -0.042522540000000005 -0.026999999999999996
v 0.19812236 -0.039727458 -0.026999999999999996
v 0.20049999999999998 -0.039 -0.026999999999999996
v 0.20199999999999999 -0.0405 -0.026999999999999996
v 0.20049999999999998 -0.042 -0.026999999999999996
v 0.19899999999999998 -0.0405 -0.026999999999999996
vn 0 1.22465e-16 -1
vn 0 1.22465e-16 -1
vn 0 1.22465e-16 -1
vn 0 1.22465e-16 -1
vn 0 1.22465e-16 -1
vn 0 1.22465e-16 -1
vn 0 1.22465e-16 -1
vn 0 1.22465e-16 -1
vn 0 1.22465e-16 -1
f 9//9 4//4 5//5 
f 8//8 4//4 9//9 
f 3//3 4//4 8//8 
f 6//6 9//9 5//5 
f 7//7 3//3 8//8 
f 1//1 6//6 5//5 
f 2//2 7//7 6//6 
f 2//2 3//3 7//7 
f 2//2 6//6 1//1 

g Face_2
v 0.20049999999999998 -0.0381 -0.023999999999999997
v 0.20278253999999998 -0.039758359 -0.023999999999999997
v 0.20191067999999998 -0.04244164 -0.023999999999999997
v 0.19908932 -0.04244164 -0.023999999999999997
v 0.19821745999999998 -0.039758359 -0.023999999999999997
v 0.20049999999999998 -0.042 -0.024536949999999995
v 0.20179903999999999 -0.04125 -0.024536949999999995
v 0.20179903999999999 -0.03975 -0.024536949999999995
v 0.20049999999999998 -0.039 -0.024536949999999995
v 0.19920095999999998 -0.03975 -0.024536949999999995
v 0.19920095999999998 -0.04125 -0.024536949999999995
vn 1.11022e-16 -0.624695 0.780869
vn -0.594101 -0.192976 0.7809
vn -0.367191 0.505384 0.78087
vn 0.367191 0.505384 0.78087
vn 0.594101 -0.192976 0.7809
vn -0 0.390434 0.920631
vn -0.338124 0.195207 0.920634
vn -0.338123 -0.195208 0.920634
vn -0 -0.390434 0.920631
vn 0.338123 -0.195208 0.920634
vn 0.338124 0.195207 0.920634
f 14//14 13//13 20//20 
f 15//15 20//20 13//13 
f 19//19 14//14 20//20 
f 12//12 15//15 13//13 
f 16//16 15//15 12//12 
f 10//10 18//18 17//17 
f 10//10 19//19 18//18 
f 10//10 14//14 19//19 
f 11//11 17//17 16//16 
f 11//11 16//16 12//12 
f 11//11 10//10 17//17 

g Face_3
v 0.20049999999999998 -0.038 -0.023999999999999997
v 0.20287763999999997 -0.039727458 -0.023999999999999997
v 0.20196946 -0.042522540000000005 -0.023999999999999997
v 0.19903053999999998 -0.042522540000000005 -0.023999999999999997
v 0.19812236 -0.039727458 -0.023999999999999997
v 0.20049999999999998 -0.0381 -0.023999999999999997
v 0.20278253999999998 -0.039758359 -0.023999999999999997
v 0.20191067999999998 -0.04244164 -0.023999999999999997
v 0.19908932 -0.04244164 -0.023999999999999997
v 0.19821745999999998 -0.039758359 -0.023999999999999997
vn 0 -1.22465e-16 1
vn 0 -1.22465e-16 1
vn 0 -1.22465e-16 1
vn 0 -1.22465e-16 1
vn 0 -1.22465e-16 1
vn 0 -1.22465e-16 1
vn 0 -1.22465e-16 1
vn 0 -1.22465e-16 1
vn 0 -1.22465e-16 1
vn 0 -1.22465e-16 1
f 26//26 21//21 25//25 
f 26//26 25//25 30//30 
f 24//24 29//29 30//30 
f 24//24 30//30 25//25 
f 22//22 26//26 27//27 
f 22//22 21//21 26//26 
f 23//23 27//27 28//28 
f 23//23 28//28 29//29 
f 23//23 29//29 24//24 
f 23//23 22//22 27//27 

g Face_4
v 0.20049999999999998 -0.038 -0.023999999999999997
v 0.20287763999999997 -0.039727458 -0.023999999999999997
v 0.20196946 -0.042522540000000005 -0.023999999999999997
v 0.19903053999999998 -0.042522540000000005 -0.023999999999999997
v 0.19812236 -0.039727458 -0.023999999999999997
v 0.20049999999999998 -0.038 -0.023999999999999997
v 0.20049999999999998 -0.038 -0.026999999999999996
v 0.20049999999999998 -0.038 -0.026999999999999996
v 0.20287763999999997 -0.039727458 -0.026999999999999996
v 0.20196946 -0.042522540000000005 -0.026999999999999996
v 0.19903053999999998 -0.042522540000000005 -0.026999999999999996
v 0.19812236 -0.039727458 -0.026999999999999996
vn -0 1 1.22465e-16
vn 0.951057 0.309017 3.78437e-17
vn 0.587785 -0.809017 -9.9076e-17
vn -0.587785 -0.809017 -9.9076e-17
vn -0.951057 0.309017 3.78437e-17
vn -2.44929e-16 1 1.22465e-16
vn -2.44929e-16 1 1.22465e-16
vn -0 1 1.22465e-16
vn 0.951057 0.309017 3.78437e-17
vn 0.587785 -0.809017 -9.9076e-17
vn -0.587785 -0.809017 -9.9076e-17
vn -0.951057 0.309017 3.78437e-17
f 39//39 31//31 32//32 
f 39//39 38//38 31//31 
f 40//40 32//32 33//33 
f 40//40 39//39 32//32 
f 41//41 33//33 34//34 
f 41//41 40//40 33//33 
f 42//42 34//34 35//35 
f 42//42 41//41 34//34 
f 37//37 35//35 36//36 
f 37//37 42//42 35//35 

g Face_5
v 0.20049999999999998 -0.039 -0.024536949999999995
v 0.19920095999999998 -0.03975 -0.024536949999999995
v 0.19920095999999998 -0.04125 -0.024536949999999995
v 0.20049999999999998 -0.042 -0.024536949999999995
v 0.20049999999999998 -0.039 -0.026999999999999996
v 0.20049999999999998 -0.039 -0.026999999999999996
v 0.20199999999999999 -0.0405 -0.026999999999999996
v 0.20049999999999998 -0.042 -0.026999999999999996
v 0.19899999999999998 -0.0405 -0.026999999999999996
v 0.20049999999999998 -0.039 -0.024536949999999995
v 0.20179903999999999 -0.04125 -0.024536949999999995
v 0.20179903999999999 -0.03975 -0.024536949999999995
vn 2.44929e-16 -1 -1.22465e-16
vn 0.866025 -0.5 -6.12323e-17
vn 0.866025 0.5 6.12323e-17
vn -1.22465e-16 1 1.22465e-16
vn 2.44929e-16 -1 -1.22465e-16
vn 0 -1 -1.22465e-16
vn -1 -6.12323e-17 -7.4988e-33
vn -1.22465e-16 1 1.22465e-16
vn 1 1.83697e-16 2.24964e-32
vn 0 -1 -1.22465e-16
vn -0.866025 0.5 6.12323e-17
vn -0.866025 -0.5 -6.12323e-17
f 48//48 54//54 52//52 
f 49//49 53//53 54//54 
f 49//49 54//54 48//48 
f 50//50 45//45 46//46 
f 50//50 46//46 53//53 
f 50//50 53//53 49//49 
f 51//51 44//44 45//45 
f 51//51 45//45 50//50 
f 47//47 43//43 44//44 
f 47//47 44//44 51//51 

