mtllib Pied_detente_Cremaillere_Heures.mtl
usemtl Pied_detente_Cremaillere_Heures
#Wavefront export of shape 1-49-2--Pied_detente_Cremaillere_Heures

g Face_1
v 0.06805879830376001 -0.13779849055737597 -0.0557
v 0.06336529370376001 -0.13804553759737598 -0.0557
v 0.06805879830376001 -0.13779849055737597 -0.0436
v 0.06336529370376001 -0.13804553759737598 -0.0436
vn -1.31839e-16 1 -1.40236e-16
vn -1.31839e-16 1 -1.40236e-16
vn -1.31839e-16 1 -1.40236e-16
vn -1.31839e-16 1 -1.40236e-16
f 2//2 3//3 1//1 
f 2//2 4//4 3//3 

g Face_2
v 0.06805879830376001 -0.13779849055737597 -0.0436
v 0.06336529370376001 -0.13804553759737598 -0.0436
v 0.06818289642000001 -0.14029542032 -0.0436
v 0.06468771844073001 -0.140479392308448 -0.0436
vn 9.58942e-19 -5.53654e-16 1
vn 9.58942e-19 -5.53654e-16 1
vn 9.58942e-19 -5.53654e-16 1
vn 9.58942e-19 -5.53654e-16 1
f 5//5 8//8 7//7 
f 5//5 6//6 8//8 

g Face_3
v 0.06818289642000001 -0.14029542032 -0.058200000000000016
v 0.06289022102000001 -0.14057400528 -0.058200000000000016
v 0.06224672699479088 -0.020859847162451196 -0.058200000000000016
v 0.056255118856590874 -0.0211752211061312 -0.058200000000000016
v 0.05789385287646 -0.023675983722575997 -0.058200000000000016
v 0.06087958088994 -0.023518827113424 -0.058200000000000016
v 0.06328958542000002 -0.12152667479999998 -0.058200000000000016
v 0.06447215392000001 -0.1202126983 -0.058200000000000016
v 0.06578613042 -0.12139526679999998 -0.05820000000000001
v 0.06460356192000001 -0.12270924329999999 -0.05820000000000001
vn -9.58942e-19 -1.7771e-17 -1
vn -9.58942e-19 -1.7771e-17 -1
vn -9.58942e-19 -1.7771e-17 -1
vn -9.58942e-19 -1.7771e-17 -1
vn -9.58942e-19 -1.7771e-17 -1
vn -9.58942e-19 -1.7771e-17 -1
vn -9.58942e-19 -1.7771e-17 -1
vn -9.58942e-19 -1.7771e-17 -1
vn -9.58942e-19 -1.7771e-17 -1
vn -9.58942e-19 -1.7771e-17 -1
f 16//16 13//13 14//14 
f 15//15 12//12 13//13 
f 15//15 13//13 16//16 
f 17//17 16//16 14//14 
f 10//10 15//15 18//18 
f 10//10 12//12 15//15 
f 9//9 18//18 17//17 
f 9//9 10//10 18//18 
f 9//9 17//17 11//11 
f 17//17 14//14 11//11 

g Face_4
v 0.06805879830376001 -0.13779849055737597 -0.0557
v 0.06336529370376001 -0.13804553759737598 -0.0557
v 0.06468771844073001 -0.140479392308448 -0.0557
v 0.06289022102000001 -0.14057400528 -0.0557
v 0.056255118856590874 -0.0211752211061312 -0.0557
v 0.06224672699479088 -0.020859847162451196 -0.0557
v 0.06087958088994 -0.023518827113424 -0.0557
v 0.05789385287646 -0.023675983722575997 -0.0557
v 0.06328958542000002 -0.12152667479999998 -0.0557
v 0.06342397197646 -0.12089373579089599 -0.0557
v 0.063856822006 -0.12041281881499999 -0.0557
v 0.06447215392000001 -0.1202126983 -0.0557
v 0.06578613042 -0.12139526679999998 -0.0557
v 0.06460356192000001 -0.12270924329999999 -0.0557
vn 9.58942e-19 2.54269e-17 1
vn 9.58942e-19 2.54269e-17 1
vn 9.58942e-19 2.54269e-17 1
vn 9.58942e-19 2.54269e-17 1
vn 9.58942e-19 2.54269e-17 1
vn 9.58942e-19 2.54269e-17 1
vn 9.58942e-19 2.54269e-17 1
vn 9.58942e-19 2.54269e-17 1
vn 9.58942e-19 2.54269e-17 1
vn 9.58942e-19 2.54269e-17 1
vn 9.58942e-19 2.54269e-17 1
vn 9.58942e-19 2.54269e-17 1
vn 9.58942e-19 2.54269e-17 1
vn 9.58942e-19 2.54269e-17 1
f 20//20 22//22 21//21 
f 27//27 22//22 20//20 
f 32//32 20//20 19//19 
f 32//32 27//27 20//20 
f 31//31 32//32 19//19 
f 26//26 28//28 29//29 
f 26//26 29//29 30//30 
f 23//23 27//27 28//28 
f 23//23 22//22 27//27 
f 23//23 28//28 26//26 
f 25//25 30//30 31//31 
f 25//25 26//26 30//30 
f 24//24 31//31 19//19 
f 24//24 25//25 31//31 

g Face_5
v 0.06289022102000001 -0.14057400528 -0.0557
v 0.06289022102000001 -0.14057400528 -0.058200000000000016
v 0.06468771844073001 -0.140479392308448 -0.0557
v 0.06468771844073001 -0.140479392308448 -0.0436
v 0.06818289642000001 -0.14029542032 -0.0436
v 0.06818289642000001 -0.14029542032 -0.058200000000000016
vn 1.31839e-16 -1 -8.10298e-16
vn 1.31839e-16 -1 -8.10298e-16
vn 1.31839e-16 -1 -8.10298e-16
vn 1.31839e-16 -1 -8.10298e-16
vn 1.31839e-16 -1 -8.10298e-16
vn 1.31839e-16 -1 -8.10298e-16
f 35//35 33//33 34//34 
f 38//38 35//35 34//34 
f 37//37 36//36 35//35 
f 37//37 35//35 38//38 

g Face_6
v 0.056255118856590874 -0.0211752211061312 -0.058200000000000016
v 0.056255118856590874 -0.0211752211061312 -0.0557
v 0.06289022102000001 -0.14057400528 -0.058200000000000016
v 0.06289022102000001 -0.14057400528 -0.0557
vn -0.999996 -0.00292641 1.01094e-18
vn -0.999996 -0.00292641 1.01094e-18
vn -0.999996 -0.00292641 1.01094e-18
vn -0.999996 -0.00292641 1.01094e-18
f 39//39 41//41 42//42 
f 39//39 42//42 40//40 

g Face_7
v 0.06224672699479088 -0.020859847162451196 -0.0557
v 0.06224672699479088 -0.020859847162451196 -0.058200000000000016
v 0.06805879830376001 -0.13779849055737597 -0.0557
v 0.06805879830376001 -0.13779849055737597 -0.0436
v 0.06818289642000001 -0.14029542032 -0.0436
v 0.06818289642000001 -0.14029542032 -0.058200000000000016
vn 0.999996 -0.00292641 -9.06933e-19
vn 0.999996 -0.00292641 -9.06933e-19
vn 0.999996 -0.00292641 -9.06933e-19
vn 0.999996 -0.00292641 -9.06933e-19
vn 0.999996 -0.00292641 -9.06933e-19
vn 0.999996 -0.00292641 -9.06933e-19
f 45//45 44//44 43//43 
f 45//45 46//46 47//47 
f 48//48 45//45 47//47 
f 48//48 44//44 45//45 

g Face_8
v 0.06336529370376001 -0.13804553759737598 -0.0557
v 0.06468771844073001 -0.140479392308448 -0.0557
v 0.06468771844073001 -0.140479392308448 -0.0436
v 0.06336529370376001 -0.13804553759737598 -0.0436
vn -0.902553 -0.430579 -2.37526e-16
vn -0.902553 -0.430579 -2.37526e-16
vn -0.902553 -0.430579 -2.37526e-16
vn -0.902553 -0.430579 -2.37526e-16
f 49//49 50//50 51//51 
f 49//49 51//51 52//52 

g Face_9
v 0.06328958542000002 -0.12152667479999998 -0.058200000000000016
v 0.06447215392000001 -0.1202126983 -0.058200000000000016
v 0.06578613042 -0.12139526679999998 -0.05820000000000001
v 0.06460356192000001 -0.12270924329999999 -0.05820000000000001
v 0.06328958542000002 -0.12152667479999998 -0.058200000000000016
v 0.06328958542000002 -0.12152667479999998 -0.0557
v 0.06342397197646 -0.12089373579089599 -0.0557
v 0.063856822006 -0.12041281881499999 -0.0557
v 0.06447215392000001 -0.1202126983 -0.0557
v 0.06578613042 -0.12139526679999998 -0.0557
v 0.06460356192000001 -0.12270924329999999 -0.0557
v 0.06328958542000002 -0.12152667479999998 -0.0557
vn 1 1.31839e-16 -9.58942e-19
vn 1.93071e-16 -1 1.40236e-16
vn -1 -2.54304e-16 9.58942e-19
vn -3.15536e-16 1 -1.40236e-16
vn 1 3.76768e-16 -9.58942e-19
vn 1 1.31839e-16 -9.58942e-19
vn 0.866025 -0.5 6.92874e-17
vn 0.5 -0.866025 1.20968e-16
vn 1.93071e-16 -1 1.40236e-16
vn -1 -2.54304e-16 9.58942e-19
vn -3.15536e-16 1 -1.40236e-16
vn 1 3.76768e-16 -9.58942e-19
f 53//53 59//59 58//58 
f 54//54 60//60 59//59 
f 54//54 61//61 60//60 
f 54//54 59//59 53//53 
f 55//55 62//62 61//61 
f 55//55 61//61 54//54 
f 56//56 63//63 62//62 
f 56//56 62//62 55//55 
f 57//57 64//64 63//63 
f 57//57 63//63 56//56 

g Face_10
v 0.056255118856590874 -0.0211752211061312 -0.058200000000000016
v 0.05789385287646 -0.023675983722575997 -0.058200000000000016
v 0.06087958088994 -0.023518827113424 -0.058200000000000016
v 0.06224672699479088 -0.020859847162451196 -0.058200000000000016
v 0.06224672699479088 -0.020859847162451196 -0.0557
v 0.06087958088994 -0.023518827113424 -0.0557
v 0.05789385287646 -0.023675983722575997 -0.0557
v 0.056255118856590874 -0.0211752211061312 -0.0557
vn 0.999983 0.00585279 -1.09737e-18
vn 0.498309 0.866999 -2.09865e-17
vn -0.498309 0.866999 -2.00308e-17
vn -0.999983 0.00585279 8.20479e-19
vn -0.999983 0.00585279 8.20479e-19
vn -0.498309 0.866999 -2.00308e-17
vn 0.498309 0.866999 -2.09865e-17
vn 0.999983 0.00585279 -1.09737e-18
f 71//71 66//66 65//65 
f 71//71 65//65 72//72 
f 70//70 67//67 66//66 
f 70//70 66//66 71//71 
f 69//69 68//68 67//67 
f 69//69 67//67 70//70 

