mtllib Plque_poid_Gdetente.mtl
usemtl Plque_poid_Gdetente
#Wavefront export of shape 1-66-11--Plque_poid_Gdetente

g Face_1
v 0.2497203060398388 -0.08657242755345 -0.10170082999999999
v 0.2497203060398388 -0.08657242755345 -0.10198606
v 0.25061759674578 -0.086502647101068 -0.10195
v 0.25030513818819844 -0.08652694636033181 -0.10192171
v 0.25000278212697613 -0.08655045996923563 -0.10183774999999999
v 0.2515148874517212 -0.086432866648686 -0.10170082999999999
v 0.25123241136458385 -0.08645483423290037 -0.10183774999999999
v 0.25093005530336154 -0.08647834784180419 -0.10192171
v 0.2515148874517212 -0.086432866648686 -0.10198606
v 0.2503086067152718 -0.08652667662011643 -0.10217584
v 0.2509265867762882 -0.08647861758201958 -0.10217584
vn 0.45399 -0.891007 2.33995e-18
vn 0.45399 -0.891007 2.33995e-18
vn 0.45399 -0.891007 2.33995e-18
vn 0.45399 -0.891007 2.33995e-18
vn 0.45399 -0.891007 2.33995e-18
vn 0.45399 -0.891007 2.33995e-18
vn 0.45399 -0.891007 2.33995e-18
vn 0.45399 -0.891007 2.33995e-18
vn 0.45399 -0.891007 2.33995e-18
vn 0.45399 -0.891007 2.33995e-18
vn 0.45399 -0.891007 2.33995e-18
f 5//5 1//1 2//2 
f 5//5 2//2 10//10 
f 4//4 5//5 10//10 
f 3//3 4//4 10//10 
f 11//11 3//3 10//10 
f 8//8 3//3 11//11 
f 7//7 8//8 11//11 
f 9//9 7//7 11//11 
f 6//6 7//7 9//9 

g Face_2
v 0.2515148874517212 -0.086432866648686 -0.09841393999999999
v 0.2515148874517212 -0.086432866648686 -0.09869917
v 0.2497203060398388 -0.08657242755345 -0.09869917
v 0.25030513818819844 -0.08652694636033181 -0.09847829
v 0.25093005530336154 -0.08647834784180419 -0.09847829
v 0.2497203060398388 -0.08657242755345 -0.09841393999999999
v 0.2509265867762882 -0.08647861758201958 -0.09822415999999999
v 0.2503086067152718 -0.08652667662011643 -0.09822415999999999
vn 0.45399 -0.891007 2.33995e-18
vn 0.45399 -0.891007 2.33995e-18
vn 0.45399 -0.891007 2.33995e-18
vn 0.45399 -0.891007 2.33995e-18
vn 0.45399 -0.891007 2.33995e-18
vn 0.45399 -0.891007 2.33995e-18
vn 0.45399 -0.891007 2.33995e-18
vn 0.45399 -0.891007 2.33995e-18
f 15//15 17//17 14//14 
f 19//19 17//17 15//15 
f 18//18 15//15 16//16 
f 18//18 19//19 15//15 
f 12//12 16//16 13//13 
f 12//12 18//18 16//16 

g Face_3
v 0.2515148874517212 -0.086432866648686 -0.10170082999999999
v 0.2515148874517212 -0.086432866648686 -0.10198606
v 0.2495765415522212 -0.061508124816986004 -0.10198606
v 0.2495765415522212 -0.061508124816986004 -0.11069999999999999
v 0.2475606618167412 -0.035586393312018 -0.11069999999999999
v 0.2475606618167412 -0.035586393312018 -0.0897
v 0.2495765415522212 -0.061508124816986004 -0.0897
v 0.2495765415522212 -0.061508124816986004 -0.09841393999999999
v 0.2515148874517212 -0.086432866648686 -0.09841393999999999
v 0.2515148874517212 -0.086432866648686 -0.09869917
v 0.2511272182718212 -0.081447918282346 -0.09869917
v 0.2511272182718212 -0.081447918282346 -0.10170082999999999
vn 0.891007 0.45399 -6.12323e-17
vn 0.891007 0.45399 -6.12323e-17
vn 0.891007 0.45399 -6.12323e-17
vn 0.891007 0.45399 -6.12323e-17
vn 0.891007 0.45399 -6.12323e-17
vn 0.891007 0.45399 -6.12323e-17
vn 0.891007 0.45399 -6.12323e-17
vn 0.891007 0.45399 -6.12323e-17
vn 0.891007 0.45399 -6.12323e-17
vn 0.891007 0.45399 -6.12323e-17
vn 0.891007 0.45399 -6.12323e-17
vn 0.891007 0.45399 -6.12323e-17
f 30//30 28//28 29//29 
f 31//31 20//20 21//21 
f 22//22 30//30 31//31 
f 22//22 27//27 30//30 
f 25//25 26//26 27//27 
f 24//24 22//22 23//23 
f 24//24 25//25 27//27 
f 24//24 27//27 22//22 
f 21//21 22//22 31//31 
f 27//27 28//28 30//30 

g Face_4
v 0.24778196014033882 -0.06164768572175 -0.10198606
v 0.24778196014033882 -0.06164768572175 -0.11069999999999999
v 0.2457660804048588 -0.03572595421678199 -0.11069999999999999
v 0.2457660804048588 -0.035725954216782 -0.0897
v 0.24778196014033882 -0.06164768572175 -0.0897
v 0.24778196014033882 -0.06164768572175 -0.09841393999999999
v 0.2497203060398388 -0.08657242755345 -0.09841393999999999
v 0.2497203060398388 -0.08657242755345 -0.09869917
v 0.24933263685993884 -0.08158747918711 -0.09869917
v 0.24933263685993884 -0.08158747918711 -0.10170082999999999
v 0.2497203060398388 -0.08657242755345 -0.10170082999999999
v 0.2497203060398388 -0.08657242755345 -0.10198606
vn -0.891007 -0.45399 6.12323e-17
vn -0.891007 -0.45399 6.12323e-17
vn -0.891007 -0.45399 6.12323e-17
vn -0.891007 -0.45399 6.12323e-17
vn -0.891007 -0.45399 6.12323e-17
vn -0.891007 -0.45399 6.12323e-17
vn -0.891007 -0.45399 6.12323e-17
vn -0.891007 -0.45399 6.12323e-17
vn -0.891007 -0.45399 6.12323e-17
vn -0.891007 -0.45399 6.12323e-17
vn -0.891007 -0.45399 6.12323e-17
vn -0.891007 -0.45399 6.12323e-17
f 40//40 39//39 38//38 
f 41//41 43//43 42//42 
f 32//32 41//41 40//40 
f 32//32 40//40 37//37 
f 35//35 37//37 36//36 
f 34//34 33//33 32//32 
f 34//34 37//37 35//35 
f 34//34 32//32 37//37 
f 37//37 40//40 38//38 
f 43//43 41//41 32//32 

g Face_5
v 0.25154800277754 -0.09846652318028401 -0.10164999999999999
v 0.25299363780377865 -0.098354099118113 -0.1002
v 0.25154800277754 -0.09846652318028401 -0.09875
v 0.2501023677513014 -0.09857894724245501 -0.1002
v 0.25154800277754 -0.09846652318028401 -0.10145
v 0.252794239869125 -0.098369605885309 -0.1002
v 0.25154800277754 -0.09846652318028401 -0.09895
v 0.250301765685955 -0.09856344047525901 -0.1002
vn 0.45399 -0.891007 2.33995e-18
vn 0.45399 -0.891007 2.33995e-18
vn 0.45399 -0.891007 2.33995e-18
vn 0.45399 -0.891007 2.33995e-18
vn 0.45399 -0.891007 2.33995e-18
vn 0.45399 -0.891007 2.33995e-18
vn 0.45399 -0.891007 2.33995e-18
vn 0.45399 -0.891007 2.33995e-18
f 51//51 46//46 47//47 
f 51//51 50//50 46//46 
f 44//44 48//48 51//51 
f 44//44 51//51 47//47 
f 45//45 49//49 48//48 
f 45//45 50//50 49//49 
f 45//45 46//46 50//50 
f 45//45 48//48 44//44 

g Face_6
v 0.2475606618167412 -0.035586393312018 -0.0897
v 0.2457660804048588 -0.035725954216782 -0.0897
v 0.2495765415522212 -0.061508124816986004 -0.0897
v 0.24778196014033882 -0.06164768572175 -0.0897
vn 1.44367e-16 -1.4846e-16 1
vn 1.44367e-16 -1.4846e-16 1
vn 1.44367e-16 -1.4846e-16 1
vn 1.44367e-16 -1.4846e-16 1
f 52//52 55//55 54//54 
f 52//52 53//53 55//55 

g Face_7
v 0.2495765415522212 -0.061508124816986004 -0.0897
v 0.24778196014033882 -0.06164768572175 -0.0897
v 0.2495765415522212 -0.061508124816986004 -0.09841393999999999
v 0.24898824087678825 -0.06155387575031957 -0.09822415999999999
v 0.24837026081577177 -0.06160193478841643 -0.09822415999999999
v 0.24778196014033882 -0.06164768572175 -0.09841393999999999
vn 0.45399 -0.891007 2.33995e-18
vn 0.45399 -0.891007 2.33995e-18
vn 0.45399 -0.891007 2.33995e-18
vn 0.45399 -0.891007 2.33995e-18
vn 0.45399 -0.891007 2.33995e-18
vn 0.45399 -0.891007 2.33995e-18
f 57//57 61//61 60//60 
f 56//56 59//59 58//58 
f 56//56 60//60 59//59 
f 56//56 57//57 60//60 

g Face_8
v 0.24778196014033882 -0.06164768572175 -0.10198606
v 0.24837026081577177 -0.06160193478841643 -0.10217584
v 0.24898824087678825 -0.06155387575031957 -0.10217584
v 0.2495765415522212 -0.061508124816986004 -0.10198606
v 0.2495765415522212 -0.061508124816986004 -0.11069999999999999
v 0.24778196014033882 -0.06164768572175 -0.11069999999999999
vn 0.45399 -0.891007 2.33995e-18
vn 0.45399 -0.891007 2.33995e-18
vn 0.45399 -0.891007 2.33995e-18
vn 0.45399 -0.891007 2.33995e-18
vn 0.45399 -0.891007 2.33995e-18
vn 0.45399 -0.891007 2.33995e-18
f 63//63 62//62 67//67 
f 64//64 67//67 66//66 
f 64//64 63//63 67//67 
f 65//65 64//64 66//66 

g Face_9
v 0.2495765415522212 -0.061508124816986004 -0.11069999999999999
v 0.24778196014033882 -0.06164768572175 -0.11069999999999999
v 0.2475606618167412 -0.035586393312018 -0.11069999999999999
v 0.2457660804048588 -0.03572595421678199 -0.11069999999999999
vn -8.37864e-17 2.95643e-17 -1
vn -8.37864e-17 2.95643e-17 -1
vn -8.37864e-17 2.95643e-17 -1
vn -8.37864e-17 2.95643e-17 -1
f 68//68 71//71 70//70 
f 68//68 69//69 71//71 

g Face_10
v 0.2475606618167412 -0.035586393312018 -0.11069999999999999
v 0.2457660804048588 -0.03572595421678199 -0.11069999999999999
v 0.2475606618167412 -0.035586393312018 -0.0897
v 0.2457660804048588 -0.035725954216782 -0.0897
vn -0.45399 0.891007 1.20125e-16
vn -0.45399 0.891007 1.20125e-16
vn -0.45399 0.891007 1.20125e-16
vn -0.45399 0.891007 1.20125e-16
f 72//72 75//75 74//74 
f 72//72 73//73 75//75 

g Face_11
v 0.24933263685993884 -0.08158747918711 -0.09869917
v 0.24933263685993884 -0.08158747918711 -0.10170082999999999
v 0.24858714780164942 -0.08164545433762568 -0.09961056
v 0.24858714780164942 -0.08164545433762568 -0.10078944
vn -0.45399 0.891007 -2.33995e-18
vn -0.45399 0.891007 -2.33995e-18
vn -0.45399 0.891007 -2.33995e-18
vn -0.45399 0.891007 -2.33995e-18
f 77//77 78//78 76//76 
f 77//77 79//79 78//78 

g Face_12
v 0.251524742626746 -0.0981674262783036 -0.10195
v 0.2498654028640424 -0.09829646971821691 -0.10074078
v 0.25049921910902906 -0.09824717913266935 -0.09878421999999999
v 0.25255026614446296 -0.09808767342393786 -0.09878421999999999
v 0.2531840823894496 -0.0980383828383903 -0.10074078
v 0.251524742626746 -0.0981674262783036 -0.10195
v 0.25061759674578 -0.086502647101068 -0.10195
v 0.2515148874517212 -0.086432866648686 -0.10170082999999999
v 0.25123241136458385 -0.08645483423290037 -0.10183774999999999
v 0.25093005530336154 -0.08647834784180419 -0.10192171
v 0.2511272182718212 -0.081447918282346 -0.10170082999999999
v 0.25187270733011063 -0.08138994313183032 -0.10078944
v 0.25187270733011063 -0.08138994313183032 -0.09961056
v 0.2511272182718212 -0.081447918282346 -0.09869917
v 0.2515148874517212 -0.086432866648686 -0.09869917
v 0.2497203060398388 -0.08657242755345 -0.09869917
v 0.25030513818819844 -0.08652694636033181 -0.09847829
v 0.25093005530336154 -0.08647834784180419 -0.09847829
v 0.24933263685993884 -0.08158747918711 -0.09869917
v 0.24858714780164942 -0.08164545433762568 -0.09961056
v 0.24858714780164942 -0.08164545433762568 -0.10078944
v 0.24933263685993884 -0.08158747918711 -0.10170082999999999
v 0.2497203060398388 -0.08657242755345 -0.10170082999999999
v 0.25061759674578 -0.086502647101068 -0.10195
v 0.25030513818819844 -0.08652694636033181 -0.10192171
v 0.25000278212697613 -0.08655045996923563 -0.10183774999999999
vn -2.7173e-16 -1.41079e-16 -1
vn -0.847398 -0.431771 -0.309017
vn -0.52372 -0.266849 0.809017
vn 0.52372 0.266849 0.809017
vn 0.847398 0.431771 -0.309017
vn -5.34961e-17 -2.98838e-17 -1
vn -5.34961e-17 -2.98838e-17 -1
vn 0.458232 0.233481 -0.857619
vn 0.313976 0.159979 -0.935856
vn 0.159568 0.0813037 -0.983833
vn 0.458232 0.233481 -0.857619
vn 0.838943 0.427463 -0.336823
vn 0.838943 0.427463 0.336823
vn 0.458232 0.233481 0.857619
vn 0.458232 0.233481 0.857619
vn -0.458232 -0.233481 0.857619
vn -0.159568 -0.0813037 0.983833
vn 0.159568 0.0813037 0.983833
vn -0.458232 -0.233481 0.857619
vn -0.838943 -0.427463 0.336823
vn -0.838943 -0.427463 -0.336823
vn -0.458232 -0.233481 -0.857619
vn -0.458232 -0.233481 -0.857619
vn -2.7173e-16 -1.41079e-16 -1
vn -0.159568 -0.0813037 -0.983833
vn -0.313976 -0.159979 -0.935856
f 91//91 87//87 90//90 
f 85//85 88//88 87//87 
f 85//85 89//89 88//88 
f 85//85 86//86 89//89 
f 94//94 91//91 92//92 
f 94//94 92//92 93//93 
f 94//94 87//87 91//91 
f 84//84 85//85 87//87 
f 84//84 87//87 94//94 
f 99//99 95//95 98//98 
f 83//83 94//94 97//97 
f 83//83 84//84 94//94 
f 82//82 96//96 95//95 
f 82//82 97//97 96//96 
f 82//82 83//83 97//97 
f 102//102 99//99 100//100 
f 102//102 100//100 101//101 
f 102//102 95//95 99//99 
f 81//81 82//82 95//95 
f 81//81 95//95 102//102 
f 80//80 104//104 103//103 
f 80//80 105//105 104//104 
f 80//80 102//102 105//105 
f 80//80 81//81 102//102 

g Face_13
v 0.2511272182718212 -0.081447918282346 -0.10170082999999999
v 0.25187270733011063 -0.08138994313183032 -0.10078944
v 0.25187270733011063 -0.08138994313183032 -0.09961056
v 0.2511272182718212 -0.081447918282346 -0.09869917
vn -0.45399 0.891007 -2.33995e-18
vn -0.45399 0.891007 -2.33995e-18
vn -0.45399 0.891007 -2.33995e-18
vn -0.45399 0.891007 -2.33995e-18
f 106//106 108//108 107//107 
f 106//106 109//109 108//108 

g Face_14
v 0.25216827346538 -0.106442440566428 -0.10145
v 0.25324754469638283 -0.10635850786296457 -0.100825
v 0.25324754469638283 -0.10635850786296457 -0.099575
v 0.25216827346538 -0.106442440566428 -0.09895
v 0.25154800277754 -0.09846652318028401 -0.10145
v 0.252794239869125 -0.098369605885309 -0.1002
v 0.25154800277754 -0.09846652318028401 -0.09895
v 0.250301765685955 -0.09856344047525901 -0.1002
v 0.25154800277754 -0.09846652318028401 -0.10145
v 0.25216827346538 -0.106442440566428 -0.10145
v 0.2510890022343772 -0.10652637326989144 -0.099575
v 0.2510890022343772 -0.10652637326989144 -0.100825
vn 2.73854e-16 1.3691e-16 -1
vn 0.771634 0.393167 -0.5
vn 0.771634 0.393167 0.5
vn -1.64738e-16 -8.13118e-17 1
vn 2.73854e-16 1.3691e-16 -1
vn 0.891007 0.45399 2.44929e-16
vn -1.64738e-16 -8.13118e-17 1
vn -0.891007 -0.45399 -1.22465e-16
vn 5.56207e-17 2.5714e-17 -1
vn 5.56207e-17 2.5714e-17 -1
vn -0.771634 -0.393167 0.5
vn -0.771634 -0.393167 -0.5
f 118//118 119//119 121//121 
f 117//117 121//121 120//120 
f 117//117 118//118 121//121 
f 116//116 113//113 112//112 
f 116//116 120//120 113//113 
f 116//116 117//117 120//120 
f 115//115 112//112 111//111 
f 115//115 116//116 112//112 
f 114//114 111//111 110//110 
f 114//114 115//115 111//111 

g Face_15
v 0.25317621333312 -0.11940330631891201 -0.09985
v 0.2534784098759946 -0.11937980511542194 -0.10037499999999999
v 0.2528740167902454 -0.11942680752240208 -0.10037499999999999
v 0.25317621333312 -0.11940330631891201 -0.09985
v 0.252924228366185 -0.116163089880791 -0.09962499999999999
v 0.25267224339925 -0.11292287344267 -0.0994
v 0.252420258432315 -0.109682657004549 -0.099175
v 0.25216827346538 -0.106442440566428 -0.09895
v 0.2510890022343772 -0.10652637326989144 -0.099575
v 0.2510890022343772 -0.10652637326989144 -0.100825
v 0.25216827346538 -0.106442440566428 -0.10145
v 0.25324754469638283 -0.10635850786296457 -0.100825
v 0.25324754469638283 -0.10635850786296457 -0.099575
v 0.25216827346538 -0.106442440566428 -0.09895
v 0.252924228366185 -0.116163089880791 -0.09962499999999999
v 0.25267224339925 -0.11292287344267 -0.0994
v 0.252420258432315 -0.109682657004549 -0.099175
v 0.2534206943288339 -0.11612448074415722 -0.1004875
v 0.2524277624035361 -0.11620169901742479 -0.1004875
v 0.25336297778468353 -0.11286915645042635 -0.1006
v 0.25198150901381644 -0.11297659043491366 -0.1006
v 0.25330526223752287 -0.10961383207916162 -0.1007125
v 0.2515352546271072 -0.10975148192993639 -0.1007125
vn 0.0313551 -0.0615378 0.997612
vn 0.801147 0.330691 -0.498806
vn -0.738437 -0.453766 -0.498806
vn 0.0313551 -0.0615378 0.997612
vn 0.0313551 -0.0615378 0.997612
vn 0.0313551 -0.0615378 0.997612
vn 0.0313551 -0.0615378 0.997612
vn 0.0313551 -0.0615378 0.997612
vn -0.738437 -0.453766 0.498806
vn -0.738437 -0.453766 -0.498806
vn 0.0313551 -0.0615378 -0.997612
vn 0.801147 0.330691 -0.498806
vn 0.801147 0.330691 0.498806
vn 0.0313551 -0.0615378 0.997612
vn 0.0313551 -0.0615378 0.997612
vn 0.0313551 -0.0615378 0.997612
vn 0.0313551 -0.0615378 0.997612
vn 0.801147 0.330691 -0.498806
vn -0.738437 -0.453766 -0.498806
vn 0.801147 0.330691 -0.498806
vn -0.738437 -0.453766 -0.498806
vn 0.801147 0.330691 -0.498806
vn -0.738437 -0.453766 -0.498806
f 134//134 135//135 138//138 
f 129//129 130//130 128//128 
f 139//139 122//122 123//123 
f 139//139 136//136 122//122 
f 140//140 123//123 124//124 
f 140//140 124//124 125//125 
f 140//140 125//125 126//126 
f 140//140 139//139 123//123 
f 141//141 137//137 136//136 
f 141//141 136//136 139//139 
f 142//142 126//126 127//127 
f 142//142 140//140 126//126 
f 142//142 139//139 140//140 
f 142//142 141//141 139//139 
f 143//143 132//132 133//133 
f 143//143 133//133 134//134 
f 143//143 138//138 137//137 
f 143//143 137//137 141//141 
f 143//143 134//134 138//138 
f 144//144 127//127 128//128 
f 144//144 130//130 131//131 
f 144//144 131//131 132//132 
f 144//144 141//141 142//142 
f 144//144 132//132 143//143 
f 144//144 143//143 141//141 
f 144//144 128//128 130//130 
f 144//144 142//142 127//127 

g Face_16
v 0.25317621333312 -0.11940330631891201 -0.09985
v 0.2534784098759946 -0.11937980511542194 -0.10037499999999999
v 0.2528740167902454 -0.11942680752240208 -0.10037499999999999
vn 0.0313551 -0.0615378 0.997612
vn 0.809042 0.310674 -0.498931
vn -0.726884 -0.471919 -0.498931
f 146//146 145//145 147//147 

g Face_17
v 0.251524742626746 -0.0981674262783036 -0.10195
v 0.2498654028640424 -0.09829646971821691 -0.10074078
v 0.25049921910902906 -0.09824717913266935 -0.09878421999999999
v 0.25255026614446296 -0.09808767342393786 -0.09878421999999999
v 0.2531840823894496 -0.0980383828383903 -0.10074078
v 0.251524742626746 -0.0981674262783036 -0.10195
v 0.25154800277754 -0.09846652318028401 -0.10164999999999999
v 0.25154800277754 -0.09846652318028401 -0.10164999999999999
v 0.25299363780377865 -0.098354099118113 -0.1002
v 0.25154800277754 -0.09846652318028401 -0.09875
v 0.2501023677513014 -0.09857894724245501 -0.1002
vn 0.32102 -0.630037 -0.707107
vn -0.278181 -0.935345 -0.218508
vn -0.0493066 -0.818727 0.572061
vn 0.691346 -0.441346 0.572061
vn 0.92022 -0.324729 -0.218508
vn 0.32102 -0.630037 -0.707107
vn 0.32102 -0.630037 -0.707107
vn 0.32102 -0.630037 -0.707107
vn 0.951057 -0.309017 1.74846e-16
vn 0.32102 -0.630037 0.707107
vn -0.309017 -0.951057 -8.4941e-17
f 149//149 148//148 154//154 
f 158//158 149//149 154//154 
f 150//150 149//149 158//158 
f 157//157 150//150 158//158 
f 151//151 150//150 157//157 
f 156//156 151//151 157//157 
f 152//152 151//151 156//156 
f 155//155 152//152 156//156 
f 153//153 152//152 155//155 

g Face_18
v 0.2495765415522212 -0.061508124816986004 -0.09841393999999999
v 0.2515148874517212 -0.086432866648686 -0.09841393999999999
v 0.24898824087678825 -0.06155387575031957 -0.09822415999999999
v 0.24837026081577177 -0.06160193478841643 -0.09822415999999999
v 0.24778196014033882 -0.06164768572175 -0.09841393999999999
v 0.2497203060398388 -0.08657242755345 -0.09841393999999999
v 0.2509265867762882 -0.08647861758201958 -0.09822415999999999
v 0.2503086067152718 -0.08652667662011643 -0.09822415999999999
vn 0.400953 0.204296 0.893029
vn 0.400953 0.204296 0.893029
vn 0.138072 0.070351 0.987921
vn -0.138072 -0.070351 0.987921
vn -0.400953 -0.204296 0.893029
vn -0.400953 -0.204296 0.893029
vn 0.138072 0.070351 0.987921
vn -0.138072 -0.070351 0.987921
f 165//165 160//160 159//159 
f 165//165 159//159 161//161 
f 166//166 161//161 162//162 
f 166//166 165//165 161//161 
f 164//164 162//162 163//163 
f 164//164 166//166 162//162 

g Face_19
v 0.24778196014033882 -0.06164768572175 -0.10198606
v 0.24837026081577177 -0.06160193478841643 -0.10217584
v 0.24898824087678825 -0.06155387575031957 -0.10217584
v 0.2495765415522212 -0.061508124816986004 -0.10198606
v 0.2515148874517212 -0.086432866648686 -0.10198606
v 0.2497203060398388 -0.08657242755345 -0.10198606
v 0.2503086067152718 -0.08652667662011643 -0.10217584
v 0.2509265867762882 -0.08647861758201958 -0.10217584
vn -0.400953 -0.204296 -0.893029
vn -0.138072 -0.070351 -0.987921
vn 0.138072 0.070351 -0.987921
vn 0.400953 0.204296 -0.893029
vn 0.400953 0.204296 -0.893029
vn -0.400953 -0.204296 -0.893029
vn -0.138072 -0.070351 -0.987921
vn 0.138072 0.070351 -0.987921
f 173//173 167//167 168//168 
f 173//173 172//172 167//167 
f 174//174 168//168 169//169 
f 174//174 173//173 168//168 
f 171//171 169//169 170//170 
f 171//171 174//174 169//169 

