mtllib Rondelle_barillet_Quarts.mtl
usemtl Rondelle_barillet_Quarts
#Wavefront export of shape 1-58--Rondelle_barillet_Quarts

g Face_1
v 0.218100469502516 -0.258832605412164 -0.126
v 0.21800633094110086 -0.2577895577144623 -0.12545
v 0.218225079857644 -0.256765116427804 -0.126
v 0.219872396698392 -0.26109853370623204 -0.126
v 0.222743667393112 -0.261271589071288 -0.126
v 0.224774920142356 -0.25923488357219604 -0.126
v 0.2249936615 -0.25821056770000006 -0.12545
v 0.2249936615 -0.25821056770000006 -0.122
v 0.2249936615 -0.25821056770000006 -0.122
v 0.22342918779279802 -0.25507968315399004 -0.122
v 0.219935526292798 -0.25486911545399 -0.122
v 0.2180063385 -0.2577894323 -0.122
v 0.21957081220720198 -0.26092031684600997 -0.122
v 0.223064473707202 -0.26113088454601 -0.122
v 0.2249936615 -0.25821056770000006 -0.12545
v 0.224899530497484 -0.257167394587836 -0.126
v 0.223127603301608 -0.254901466293768 -0.126
v 0.220256332606888 -0.254728410928712 -0.126
vn 0.971293 0.237886 -0
vn 0.998191 -0.0601261 -0
vn 0.93569 -0.352823 -0
vn 0.46503 0.885295 -0
vn -0.355334 0.93474 -0
vn -0.93569 0.352823 -0
vn -0.998189 0.0601622 -0
vn -0.998189 0.0601622 -0
vn -0.998189 0.0601622 -0
vn -0.551196 -0.834376 0
vn 0.446992 -0.894538 -0
vn 0.998189 -0.0601622 -0
vn 0.551196 0.834376 -0
vn -0.446992 0.894538 -0
vn -0.998189 0.0601622 -0
vn -0.971293 -0.237886 0
vn -0.46503 -0.885295 0
vn 0.355334 -0.93474 -0
f 10//10 15//15 9//9 
f 10//10 16//16 15//15 
f 10//10 17//17 16//16 
f 11//11 2//2 3//3 
f 11//11 18//18 17//17 
f 11//11 3//3 18//18 
f 11//11 17//17 10//10 
f 12//12 2//2 11//11 
f 13//13 1//1 2//2 
f 13//13 4//4 1//1 
f 13//13 2//2 12//12 
f 14//14 5//5 4//4 
f 14//14 6//6 5//5 
f 14//14 7//7 6//6 
f 14//14 4//4 13//13 
f 8//8 7//7 14//14 

g Face_2
v 0.228487323 -0.2584211354 -0.122
v 0.227123299277112 -0.25383124697929205 -0.122
v 0.22312807580709 -0.251191963960738 -0.122
v 0.218371052585596 -0.25173823090798003 -0.122
v 0.215078099215858 -0.25521445786027 -0.122
v 0.214790025756842 -0.25999406628519 -0.122
v 0.21764162441440402 -0.26384063369202 -0.122
v 0.22229860150703 -0.26495429516043806 -0.122
v 0.22658189843606802 -0.262813969754072 -0.122
v 0.2249936615 -0.25821056770000006 -0.122
v 0.22342918779279802 -0.25507968315399004 -0.122
v 0.219935526292798 -0.25486911545399 -0.122
v 0.2180063385 -0.2577894323 -0.122
v 0.21957081220720198 -0.26092031684600997 -0.122
v 0.223064473707202 -0.26113088454601 -0.122
vn -0 -0 1
vn -0 -0 1
vn -0 -0 1
vn -0 -0 1
vn -0 -0 1
vn -0 -0 1
vn -0 -0 1
vn -0 -0 1
vn -0 -0 1
vn -0 -0 1
vn -0 -0 1
vn -0 -0 1
vn -0 -0 1
vn -0 -0 1
vn -0 -0 1
f 33//33 26//26 27//27 
f 28//28 27//27 19//19 
f 28//28 33//33 27//27 
f 32//32 25//25 26//26 
f 32//32 26//26 33//33 
f 20//20 28//28 19//19 
f 29//29 28//28 20//20 
f 24//24 32//32 31//31 
f 24//24 25//25 32//32 
f 21//21 30//30 29//29 
f 21//21 29//29 20//20 
f 23//23 31//31 30//30 
f 23//23 24//24 31//31 
f 22//22 23//23 30//30 
f 22//22 30//30 21//21 

g Face_3
v 0.228487323 -0.2584211354 -0.122
v 0.228209974243158 -0.25600593371481 -0.122
v 0.227123299277112 -0.25383124697929205 -0.122
v 0.22312807580709 -0.251191963960738 -0.122
v 0.218371052585596 -0.25173823090798003 -0.122
v 0.21641810156393199 -0.253186030245928 -0.122
v 0.215078099215858 -0.25521445786027 -0.122
v 0.214512677 -0.2575788646 -0.122
v 0.214790025756842 -0.25999406628519 -0.122
v 0.215876700722888 -0.26216875302070797 -0.122
v 0.21764162441440402 -0.26384063369202 -0.122
v 0.22229860150703 -0.26495429516043806 -0.122
v 0.22658189843606802 -0.262813969754072 -0.122
v 0.227921900784142 -0.26078554213973 -0.122
v 0.218100469502516 -0.258832605412164 -0.126
v 0.219872396698392 -0.26109853370623204 -0.126
v 0.222743667393112 -0.261271589071288 -0.126
v 0.224774920142356 -0.25923488357219604 -0.126
v 0.22587386746384022 -0.2582644016391031 -0.12545
v 0.224899530497484 -0.257167394587836 -0.126
v 0.223127603301608 -0.254901466293768 -0.126
v 0.220256332606888 -0.254728410928712 -0.126
v 0.218225079857644 -0.256765116427804 -0.126
v 0.21712613253615978 -0.25773559836089693 -0.12545
v 0.22604700229688 -0.25343443570474805 -0.12317559
v 0.225866270235104 -0.256433075315868 -0.12525501
v 0.225646465230916 -0.26007999875492804 -0.12525501
v 0.22175561414725004 -0.25375894448625 -0.1255443
v 0.21753426683086 -0.252921361633952 -0.12317559
v 0.22124438585275 -0.26224105551375 -0.1255443
v 0.217353534769084 -0.25592000124507197 -0.12525501
v 0.217133729764896 -0.259566924684132 -0.12525501
v 0.21695299770312002 -0.26256556429525196 -0.12317559
vn 0.936 -0.056414 -0.347451
vn 0.899237 0.266028 -0.347277
vn 0.75312 0.55887 -0.347096
vn 0.218089 0.911988 -0.34744
vn -0.419168 0.838882 -0.34724
vn -0.680709 0.644596 -0.348038
vn -0.86037 0.374309 -0.345913
vn -0.936 0.056414 -0.347451
vn -0.899099 -0.268263 -0.345913
vn -0.753202 -0.558173 -0.348038
vn -0.516889 -0.782465 -0.34724
vn 0.106975 -0.93158 -0.34744
vn 0.680544 -0.645279 -0.347096
vn 0.860776 -0.372107 -0.347277
vn -0.45539 -0.111533 -0.883278
vn -0.218029 -0.41507 -0.883278
vn 0.166598 -0.438252 -0.883278
vn 0.438698 -0.165421 -0.883278
vn 0.58591 -0.0354193 -0.809602
vn 0.45539 0.111533 -0.883278
vn 0.218029 0.41507 -0.883278
vn -0.166598 0.438252 -0.883278
vn -0.438698 0.165421 -0.883278
vn -0.58591 0.0354193 -0.809602
vn 0.609102 0.611588 -0.504929
vn 0.584892 0.209901 -0.783481
vn 0.555448 -0.278631 -0.783481
vn 0.0342413 0.568118 -0.822235
vn -0.531237 0.680318 -0.504929
vn -0.0342413 -0.568118 -0.822235
vn -0.555448 0.278631 -0.783481
vn -0.584892 -0.209901 -0.783481
vn -0.609102 -0.611588 -0.504929
f 58//58 37//37 36//36 
f 58//58 54//54 37//37 
f 59//59 35//35 34//34 
f 59//59 36//36 35//35 
f 59//59 52//52 53//53 
f 59//59 53//53 54//54 
f 59//59 58//58 36//36 
f 59//59 34//34 52//52 
f 59//59 54//54 58//58 
f 60//60 46//46 45//45 
f 60//60 47//47 46//46 
f 60//60 34//34 47//47 
f 60//60 50//50 51//51 
f 60//60 51//51 52//52 
f 60//60 52//52 34//34 
f 60//60 45//45 50//50 
f 61//61 38//38 37//37 
f 61//61 54//54 55//55 
f 61//61 37//37 54//54 
f 61//61 55//55 38//38 
f 62//62 39//39 38//38 
f 62//62 38//38 55//55 
f 63//63 45//45 44//44 
f 63//63 49//49 50//50 
f 63//63 50//50 45//45 
f 63//63 44//44 49//49 
f 64//64 40//40 39//39 
f 64//64 41//41 40//40 
f 64//64 55//55 56//56 
f 64//64 56//56 57//57 
f 64//64 62//62 55//55 
f 64//64 39//39 62//62 
f 64//64 57//57 41//41 
f 65//65 42//42 41//41 
f 65//65 43//43 42//42 
f 65//65 48//48 49//49 
f 65//65 57//57 48//48 
f 65//65 41//41 57//57 
f 66//66 44//44 43//43 
f 66//66 43//43 65//65 
f 66//66 49//49 44//44 
f 66//66 65//65 49//49 

g Face_4
v 0.218100469502516 -0.258832605412164 -0.126
v 0.21800633094110086 -0.2577895577144623 -0.12545
v 0.218225079857644 -0.256765116427804 -0.126
v 0.21712613253615978 -0.25773559836089693 -0.12545
vn 0.049844 0.826992 -0.56
vn 6.1018e-06 0.000101239 -1
vn -0.049844 -0.826992 -0.56
vn -3.78944e-05 -0.000628729 -1
f 68//68 70//70 69//69 
f 67//67 70//70 68//68 

g Face_5
v 0.2249936615 -0.25821056770000006 -0.12545
v 0.224774920142356 -0.25923488357219604 -0.126
v 0.22587386746384022 -0.2582644016391031 -0.12545
v 0.224899530497484 -0.257167394587836 -0.126
vn 6.00663e-08 9.96597e-07 -1
vn 0.049844 0.826992 -0.56
vn 3.78944e-05 0.000628729 -1
vn -0.049844 -0.826992 -0.56
f 73//73 72//72 71//71 
f 73//73 71//71 74//74 

