mtllib Rondelle_volant_Quarts_instance_1.mtl
usemtl Rondelle_volant_Quarts_instance_1
#Wavefront export of shape 1-61-3--Rondelle_volant_Quarts

g Face_1
v 0.22717279212628 -0.14653198126182004 -0.0673
v 0.22749153401675998 -0.14474824739003 -0.0673
v 0.22693670438738997 -0.14302329280808004 -0.0673
v 0.22563784446181998 -0.14175985867372004 -0.0673
v 0.22563784446181995 -0.14175985867372 -0.0643
v 0.22717279212628 -0.14653198126182002 -0.0643
v 0.22749153401675995 -0.14474824739003 -0.0643
v 0.22693670438738997 -0.14302329280808004 -0.0643
vn 0.0533333 -0.998577 4.71006e-28
vn 0.515323 -0.856996 -2.37836e-28
vn 0.856996 -0.515323 -8.91148e-28
vn 0.998577 -0.0533333 -1.33639e-27
vn 0.998577 -0.0533333 -1.33639e-27
vn 0.0533333 -0.998577 4.71006e-28
vn 0.515323 -0.856996 -2.37836e-28
vn 0.856996 -0.515323 -8.91148e-28
f 3//3 4//4 5//5 
f 3//3 5//5 8//8 
f 2//2 8//8 7//7 
f 2//2 3//3 8//8 
f 1//1 7//7 6//6 
f 1//1 2//2 7//7 

g Face_2
v 0.22221801873817995 -0.14842279212628 -0.0673
v 0.22400175260997 -0.14874153401676002 -0.0673
v 0.22572670719191995 -0.14818670438739 -0.0673
v 0.22699014132627998 -0.14688784446182002 -0.0673
v 0.22699014132627998 -0.14688784446182002 -0.0643
v 0.22221801873817995 -0.14842279212628 -0.0643
v 0.22400175260996996 -0.14874153401676002 -0.0643
v 0.22572670719191995 -0.14818670438739 -0.0643
vn -0.998577 -0.0533333 1.3945e-27
vn -0.856996 -0.515323 1.45255e-27
vn -0.515323 -0.856996 1.17146e-27
vn -0.0533333 -0.998577 6.16861e-28
vn -0.0533333 -0.998577 6.16861e-28
vn -0.998577 -0.0533333 1.3945e-27
vn -0.856996 -0.515323 1.45255e-27
vn -0.515323 -0.856996 1.17146e-27
f 11//11 12//12 13//13 
f 11//11 13//13 16//16 
f 10//10 16//16 15//15 
f 10//10 11//11 16//16 
f 9//9 15//15 14//14 
f 9//9 10//10 15//15 

g Face_3
v 0.22032720787371995 -0.14346801873818 -0.0673
v 0.22000846598323998 -0.14525175260997003 -0.0673
v 0.22056329561260998 -0.14697670719192 -0.0673
v 0.22186215553817998 -0.14824014132628 -0.0673
v 0.22186215553817998 -0.14824014132628 -0.0643
v 0.22032720787371995 -0.14346801873818 -0.0643
v 0.22000846598323998 -0.14525175260997003 -0.0643
v 0.22056329561260996 -0.14697670719192 -0.0643
vn -0.0533333 0.998577 -4.71006e-28
vn -0.515323 0.856996 2.37836e-28
vn -0.856996 0.515323 8.91148e-28
vn -0.998577 0.0533333 1.33639e-27
vn -0.998577 0.0533333 1.33639e-27
vn -0.0533333 0.998577 -4.71006e-28
vn -0.515323 0.856996 2.37836e-28
vn -0.856996 0.515323 8.91148e-28
f 19//19 20//20 21//21 
f 19//19 21//21 24//24 
f 18//18 24//24 23//23 
f 18//18 19//19 24//24 
f 17//17 23//23 22//22 
f 17//17 18//18 23//23 

g Face_4
v 0.22529781259999995 -0.14242235140000004 -0.0643
v 0.22563784446181995 -0.14175985867372 -0.0643
v 0.22494194939999998 -0.14223970060000002 -0.0643
v 0.22528198126181997 -0.14157720787372 -0.0643
v 0.22349824739002996 -0.14125846598324002 -0.0643
v 0.22177329280807997 -0.14181329561261002 -0.0643
v 0.22050985867371997 -0.14311215553818 -0.0643
v 0.2211723514 -0.14345218740000001 -0.0643
v 0.22098970059999998 -0.14380805060000001 -0.0643
v 0.22032720787371995 -0.14346801873818 -0.0643
v 0.22000846598323998 -0.14525175260997003 -0.0643
v 0.22056329561260996 -0.14697670719192 -0.0643
v 0.22186215553817998 -0.14824014132628 -0.0643
v 0.22220218739999997 -0.1475776486 -0.0643
v 0.22255805059999995 -0.14776029940000002 -0.0643
v 0.22221801873817995 -0.14842279212628 -0.0643
v 0.22400175260996996 -0.14874153401676002 -0.0643
v 0.22572670719191995 -0.14818670438739 -0.0643
v 0.22699014132627998 -0.14688784446182002 -0.0643
v 0.22632764859999996 -0.1465478126 -0.0643
v 0.22651029939999998 -0.1461919494 -0.0643
v 0.22717279212628 -0.14653198126182002 -0.0643
v 0.22749153401675995 -0.14474824739003 -0.0643
v 0.22693670438738997 -0.14302329280808004 -0.0643
v 0.22429795239999997 -0.14393241040000002 -0.0643
v 0.22268241039999997 -0.14445204760000002 -0.0643
v 0.22320204759999998 -0.14606758960000002 -0.0643
v 0.22481758959999998 -0.1455479524 -0.0643
vn 1.36739e-27 5.44708e-28 1
vn 1.36739e-27 5.44708e-28 1
vn 1.36739e-27 5.44708e-28 1
vn 1.36739e-27 5.44708e-28 1
vn 1.36739e-27 5.44708e-28 1
vn 1.36739e-27 5.44708e-28 1
vn 1.36739e-27 5.44708e-28 1
vn 1.36739e-27 5.44708e-28 1
vn 1.36739e-27 5.44708e-28 1
vn 1.36739e-27 5.44708e-28 1
vn 1.36739e-27 5.44708e-28 1
vn 1.36739e-27 5.44708e-28 1
vn 1.36739e-27 5.44708e-28 1
vn 1.36739e-27 5.44708e-28 1
vn 1.36739e-27 5.44708e-28 1
vn 1.36739e-27 5.44708e-28 1
vn 1.36739e-27 5.44708e-28 1
vn 1.36739e-27 5.44708e-28 1
vn 1.36739e-27 5.44708e-28 1
vn 1.36739e-27 5.44708e-28 1
vn 1.36739e-27 5.44708e-28 1
vn 1.36739e-27 5.44708e-28 1
vn 1.36739e-27 5.44708e-28 1
vn 1.36739e-27 5.44708e-28 1
vn 1.36739e-27 5.44708e-28 1
vn 1.36739e-27 5.44708e-28 1
vn 1.36739e-27 5.44708e-28 1
vn 1.36739e-27 5.44708e-28 1
f 39//39 40//40 41//41 
f 44//44 42//42 43//43 
f 36//36 37//37 38//38 
f 47//47 45//45 46//46 
f 51//51 38//38 39//39 
f 51//51 36//36 38//38 
f 51//51 39//39 41//41 
f 52//52 41//41 42//42 
f 52//52 44//44 45//45 
f 52//52 42//42 44//44 
f 52//52 51//51 41//41 
f 52//52 45//45 47//47 
f 35//35 51//51 50//50 
f 35//35 36//36 51//51 
f 48//48 49//49 52//52 
f 48//48 52//52 47//47 
f 33//33 35//35 50//50 
f 25//25 49//49 48//48 
f 32//32 33//33 50//50 
f 27//27 49//49 25//25 
f 34//34 35//35 33//33 
f 26//26 25//25 48//48 
f 30//30 31//31 32//32 
f 30//30 32//32 50//50 
f 29//29 27//27 28//28 
f 29//29 50//50 49//49 
f 29//29 30//30 50//50 
f 29//29 49//49 27//27 

g Face_5
v 0.22528198126182 -0.14157720787372002 -0.0673
v 0.22494194939999998 -0.14223970060000002 -0.0673
v 0.22349824739002996 -0.14125846598324002 -0.0673
v 0.22177329280808 -0.14181329561261002 -0.0673
v 0.22050985867371997 -0.14311215553818002 -0.0673
v 0.2211723514 -0.14345218740000004 -0.0673
v 0.22098970059999998 -0.14380805060000001 -0.0673
v 0.22032720787371995 -0.14346801873818 -0.0673
v 0.22000846598323998 -0.14525175260997003 -0.0673
v 0.22056329561260998 -0.14697670719192 -0.0673
v 0.22186215553817998 -0.14824014132628 -0.0673
v 0.2222021874 -0.1475776486 -0.0673
v 0.22255805059999997 -0.14776029940000002 -0.0673
v 0.22221801873817995 -0.14842279212628 -0.0673
v 0.22400175260997 -0.14874153401676002 -0.0673
v 0.22572670719191995 -0.14818670438739 -0.0673
v 0.22699014132627998 -0.14688784446182002 -0.0673
v 0.22632764859999996 -0.1465478126 -0.0673
v 0.22651029939999998 -0.14619194940000002 -0.0673
v 0.22717279212628 -0.14653198126182004 -0.0673
v 0.22749153401675998 -0.14474824739003 -0.0673
v 0.22693670438738997 -0.14302329280808004 -0.0673
v 0.22563784446181998 -0.14175985867372004 -0.0673
v 0.22529781259999995 -0.14242235140000004 -0.0673
v 0.22429795239999997 -0.14393241040000002 -0.0673
v 0.22268241039999997 -0.14445204760000002 -0.0673
v 0.22320204759999998 -0.14606758960000002 -0.0673
v 0.22481758959999998 -0.1455479524 -0.0673
vn -1.36739e-27 -5.44708e-28 -1
vn -1.36739e-27 -5.44708e-28 -1
vn -1.36739e-27 -5.44708e-28 -1
vn -1.36739e-27 -5.44708e-28 -1
vn -1.36739e-27 -5.44708e-28 -1
vn -1.36739e-27 -5.44708e-28 -1
vn -1.36739e-27 -5.44708e-28 -1
vn -1.36739e-27 -5.44708e-28 -1
vn -1.36739e-27 -5.44708e-28 -1
vn -1.36739e-27 -5.44708e-28 -1
vn -1.36739e-27 -5.44708e-28 -1
vn -1.36739e-27 -5.44708e-28 -1
vn -1.36739e-27 -5.44708e-28 -1
vn -1.36739e-27 -5.44708e-28 -1
vn -1.36739e-27 -5.44708e-28 -1
vn -1.36739e-27 -5.44708e-28 -1
vn -1.36739e-27 -5.44708e-28 -1
vn -1.36739e-27 -5.44708e-28 -1
vn -1.36739e-27 -5.44708e-28 -1
vn -1.36739e-27 -5.44708e-28 -1
vn -1.36739e-27 -5.44708e-28 -1
vn -1.36739e-27 -5.44708e-28 -1
vn -1.36739e-27 -5.44708e-28 -1
vn -1.36739e-27 -5.44708e-28 -1
vn -1.36739e-27 -5.44708e-28 -1
vn -1.36739e-27 -5.44708e-28 -1
vn -1.36739e-27 -5.44708e-28 -1
vn -1.36739e-27 -5.44708e-28 -1
f 65//65 67//67 66//66 
f 70//70 69//69 68//68 
f 62//62 64//64 63//63 
f 73//73 72//72 71//71 
f 79//79 65//65 64//64 
f 79//79 64//64 62//62 
f 79//79 67//67 65//65 
f 80//80 68//68 67//67 
f 80//80 71//71 70//70 
f 80//80 70//70 68//68 
f 80//80 67//67 79//79 
f 80//80 73//73 71//71 
f 61//61 78//78 79//79 
f 61//61 79//79 62//62 
f 74//74 80//80 77//77 
f 74//74 73//73 80//80 
f 59//59 78//78 61//61 
f 76//76 74//74 77//77 
f 58//58 78//78 59//59 
f 54//54 76//76 77//77 
f 60//60 59//59 61//61 
f 75//75 74//74 76//76 
f 56//56 58//58 57//57 
f 56//56 78//78 58//58 
f 55//55 53//53 54//54 
f 55//55 77//77 78//78 
f 55//55 78//78 56//56 
f 55//55 54//54 77//77 

g Face_6
v 0.22528198126181997 -0.14157720787372 -0.0643
v 0.22349824739002996 -0.14125846598324002 -0.0643
v 0.22177329280807997 -0.14181329561261002 -0.0643
v 0.22050985867371997 -0.14311215553818 -0.0643
v 0.22528198126182 -0.14157720787372002 -0.0673
v 0.22349824739002996 -0.14125846598324002 -0.0673
v 0.22177329280808 -0.14181329561261002 -0.0673
v 0.22050985867371997 -0.14311215553818002 -0.0673
vn 0.998577 0.0533333 -1.3945e-27
vn 0.856996 0.515323 -1.45255e-27
vn 0.515323 0.856996 -1.17146e-27
vn 0.0533333 0.998577 -6.16861e-28
vn 0.998577 0.0533333 -1.3945e-27
vn 0.856996 0.515323 -1.45255e-27
vn 0.515323 0.856996 -1.17146e-27
vn 0.0533333 0.998577 -6.16861e-28
f 87//87 84//84 83//83 
f 87//87 88//88 84//84 
f 86//86 83//83 82//82 
f 86//86 87//87 83//83 
f 85//85 82//82 81//81 
f 85//85 86//86 82//82 

g Face_7
v 0.22429795239999997 -0.14393241040000002 -0.0643
v 0.22268241039999997 -0.14445204760000002 -0.0643
v 0.22320204759999998 -0.14606758960000002 -0.0643
v 0.22481758959999998 -0.1455479524 -0.0643
v 0.22429795239999997 -0.14393241040000002 -0.0643
v 0.22429795239999997 -0.14393241040000002 -0.0673
v 0.22268241039999997 -0.14445204760000002 -0.0673
v 0.22320204759999998 -0.14606758960000002 -0.0673
v 0.22481758959999998 -0.1455479524 -0.0673
v 0.22429795239999997 -0.14393241040000002 -0.0673
vn -1 -3.67394e-16 1.36739e-27
vn 3.06162e-16 -1 5.44708e-28
vn 1 2.44929e-16 -1.36739e-27
vn -1.83697e-16 1 -5.44708e-28
vn -1 -1.22465e-16 1.36739e-27
vn -1 -3.67394e-16 1.36739e-27
vn 3.06162e-16 -1 5.44708e-28
vn 1 2.44929e-16 -1.36739e-27
vn -1.83697e-16 1 -5.44708e-28
vn -1 -1.22465e-16 1.36739e-27
f 97//97 92//92 93//93 
f 97//97 93//93 98//98 
f 96//96 91//91 92//92 
f 96//96 92//92 97//97 
f 95//95 90//90 91//91 
f 95//95 91//91 96//96 
f 94//94 89//89 90//90 
f 94//94 90//90 95//95 

g Face_8
v 0.22050985867371997 -0.14311215553818002 -0.0673
v 0.22050985867371997 -0.14311215553818 -0.0643
v 0.2211723514 -0.14345218740000001 -0.0643
v 0.2211723514 -0.14345218740000004 -0.0673
vn -1 7.12554e-31 1.36739e-27
vn -1 7.12554e-31 1.36739e-27
vn -1 7.12554e-31 1.36739e-27
vn -1 7.12554e-31 1.36739e-27
f 99//99 101//101 100//100 
f 99//99 102//102 101//101 

g Face_9
v 0.22032720787371995 -0.14346801873818 -0.0643
v 0.22032720787371995 -0.14346801873818 -0.0673
v 0.22098970059999998 -0.14380805060000001 -0.0673
v 0.22098970059999998 -0.14380805060000001 -0.0643
vn 1 -7.12554e-31 -1.36739e-27
vn 1 -7.12554e-31 -1.36739e-27
vn 1 -7.12554e-31 -1.36739e-27
vn 1 -7.12554e-31 -1.36739e-27
f 103//103 105//105 104//104 
f 103//103 106//106 105//105 

g Face_10
v 0.22098970059999998 -0.14380805060000001 -0.0673
v 0.22098970059999998 -0.14380805060000001 -0.0643
v 0.2211723514 -0.14345218740000004 -0.0673
v 0.2211723514 -0.14345218740000001 -0.0643
vn 7.12554e-31 1 -5.44708e-28
vn 7.12554e-31 1 -5.44708e-28
vn 7.12554e-31 1 -5.44708e-28
vn 7.12554e-31 1 -5.44708e-28
f 109//109 107//107 108//108 
f 109//109 108//108 110//110 

g Face_11
v 0.22186215553817998 -0.14824014132628 -0.0673
v 0.22186215553817998 -0.14824014132628 -0.0643
v 0.22220218739999997 -0.1475776486 -0.0643
v 0.2222021874 -0.1475776486 -0.0673
vn 3.49148e-15 -1 5.44708e-28
vn 3.49148e-15 -1 5.44708e-28
vn 3.49148e-15 -1 5.44708e-28
vn 3.49148e-15 -1 5.44708e-28
f 112//112 114//114 113//113 
f 112//112 111//111 114//114 

g Face_12
v 0.22221801873817995 -0.14842279212628 -0.0643
v 0.22221801873817995 -0.14842279212628 -0.0673
v 0.22255805059999997 -0.14776029940000002 -0.0673
v 0.22255805059999995 -0.14776029940000002 -0.0643
vn -3.49148e-15 1 -5.44708e-28
vn -3.49148e-15 1 -5.44708e-28
vn -3.49148e-15 1 -5.44708e-28
vn -3.49148e-15 1 -5.44708e-28
f 118//118 116//116 115//115 
f 118//118 117//117 116//116 

g Face_13
v 0.22255805059999997 -0.14776029940000002 -0.0673
v 0.22255805059999995 -0.14776029940000002 -0.0643
v 0.2222021874 -0.1475776486 -0.0673
v 0.22220218739999997 -0.1475776486 -0.0643
vn -1 -3.49148e-15 1.36739e-27
vn -1 -3.49148e-15 1.36739e-27
vn -1 -3.49148e-15 1.36739e-27
vn -1 -3.49148e-15 1.36739e-27
f 122//122 119//119 120//120 
f 122//122 121//121 119//119 

g Face_14
v 0.22699014132627998 -0.14688784446182002 -0.0673
v 0.22699014132627998 -0.14688784446182002 -0.0643
v 0.22632764859999996 -0.1465478126 -0.0643
v 0.22632764859999996 -0.1465478126 -0.0673
vn 1 -7.12554e-31 -1.36739e-27
vn 1 -7.12554e-31 -1.36739e-27
vn 1 -7.12554e-31 -1.36739e-27
vn 1 -7.12554e-31 -1.36739e-27
f 125//125 124//124 123//123 
f 125//125 123//123 126//126 

g Face_15
v 0.22717279212628 -0.14653198126182002 -0.0643
v 0.22717279212628 -0.14653198126182004 -0.0673
v 0.22651029939999998 -0.14619194940000002 -0.0673
v 0.22651029939999998 -0.1461919494 -0.0643
vn -1 7.12554e-31 1.36739e-27
vn -1 7.12554e-31 1.36739e-27
vn -1 7.12554e-31 1.36739e-27
vn -1 7.12554e-31 1.36739e-27
f 129//129 128//128 127//127 
f 129//129 127//127 130//130 

g Face_16
v 0.22651029939999998 -0.14619194940000002 -0.0673
v 0.22651029939999998 -0.1461919494 -0.0643
v 0.22632764859999996 -0.1465478126 -0.0673
v 0.22632764859999996 -0.1465478126 -0.0643
vn -7.12554e-31 -1 5.44708e-28
vn -7.12554e-31 -1 5.44708e-28
vn -7.12554e-31 -1 5.44708e-28
vn -7.12554e-31 -1 5.44708e-28
f 132//132 133//133 131//131 
f 132//132 134//134 133//133 

g Face_17
v 0.22563784446181998 -0.14175985867372004 -0.0673
v 0.22563784446181995 -0.14175985867372 -0.0643
v 0.22529781259999995 -0.14242235140000004 -0.0643
v 0.22529781259999995 -0.14242235140000004 -0.0673
vn -1.04744e-14 1 -5.44708e-28
vn -1.04744e-14 1 -5.44708e-28
vn -1.04744e-14 1 -5.44708e-28
vn -1.04744e-14 1 -5.44708e-28
f 136//136 138//138 137//137 
f 136//136 135//135 138//138 

g Face_18
v 0.22528198126181997 -0.14157720787372 -0.0643
v 0.22528198126182 -0.14157720787372002 -0.0673
v 0.22494194939999998 -0.14223970060000002 -0.0673
v 0.22494194939999998 -0.14223970060000002 -0.0643
vn 1.04744e-14 -1 5.44708e-28
vn 1.04744e-14 -1 5.44708e-28
vn 1.04744e-14 -1 5.44708e-28
vn 1.04744e-14 -1 5.44708e-28
f 142//142 140//140 139//139 
f 142//142 141//141 140//140 

g Face_19
v 0.22494194939999998 -0.14223970060000002 -0.0673
v 0.22494194939999998 -0.14223970060000002 -0.0643
v 0.22529781259999995 -0.14242235140000004 -0.0673
v 0.22529781259999995 -0.14242235140000004 -0.0643
vn 1 1.04744e-14 -1.36739e-27
vn 1 1.04744e-14 -1.36739e-27
vn 1 1.04744e-14 -1.36739e-27
vn 1 1.04744e-14 -1.36739e-27
f 146//146 143//143 144//144 
f 146//146 145//145 143//143 

