mtllib Rondelle_plaque_cadran.mtl
usemtl Rondelle_plaque_cadran
#Wavefront export of shape 1-1-29--Rondelle_plaque_cadran

g Face_1
v 0.015 -0.0335 -0.0018
v 0.01325 -0.030468910000000002 -0.0018
v 0.00975 -0.030468910000000002 -0.0018
v 0.008 -0.0335 -0.0018
v 0.00975 -0.03653109 -0.0018
v 0.01325 -0.03653109 -0.0018
v 0.01325 -0.0335 -0.0018
v 0.01204078 -0.03183565 -0.0018
v 0.01008422 -0.03247138 -0.0018
v 0.01008422 -0.03452862 -0.0018
v 0.01204078 -0.035164350000000004 -0.0018
vn 0 0 1
vn 0 0 1
vn 0 0 1
vn 0 0 1
vn 0 0 1
vn 0 0 1
vn 0 0 1
vn 0 0 1
vn 0 0 1
vn 0 0 1
vn 0 0 1
f 10//10 4//4 5//5 
f 11//11 5//5 6//6 
f 11//11 10//10 5//5 
f 9//9 4//4 10//10 
f 3//3 4//4 9//9 
f 7//7 11//11 6//6 
f 8//8 3//3 9//9 
f 1//1 7//7 6//6 
f 2//2 8//8 7//7 
f 2//2 7//7 1//1 
f 2//2 3//3 8//8 

g Face_2
v 0.015 -0.0335 -0.004
v 0.01325 -0.030468910000000002 -0.004
v 0.00975 -0.030468910000000002 -0.004
v 0.008 -0.0335 -0.004
v 0.00975 -0.03653109 -0.004
v 0.01325 -0.03653109 -0.004
v 0.01325 -0.0335 -0.004
v 0.01204078 -0.03183565 -0.004
v 0.01008422 -0.03247138 -0.004
v 0.01008422 -0.03452862 -0.004
v 0.01204078 -0.035164350000000004 -0.004
vn -0 -0 -1
vn -0 -0 -1
vn -0 -0 -1
vn -0 -0 -1
vn -0 -0 -1
vn -0 -0 -1
vn -0 -0 -1
vn -0 -0 -1
vn -0 -0 -1
vn -0 -0 -1
vn -0 -0 -1
f 21//21 16//16 15//15 
f 22//22 17//17 16//16 
f 22//22 16//16 21//21 
f 20//20 21//21 15//15 
f 14//14 20//20 15//15 
f 18//18 17//17 22//22 
f 19//19 20//20 14//14 
f 12//12 17//17 18//18 
f 13//13 18//18 19//19 
f 13//13 12//12 18//18 
f 13//13 19//19 14//14 

g Face_3
v 0.015 -0.0335 -0.0018
v 0.01325 -0.030468910000000002 -0.0018
v 0.00975 -0.030468910000000002 -0.0018
v 0.008 -0.0335 -0.0018
v 0.00975 -0.03653109 -0.0018
v 0.01325 -0.03653109 -0.0018
v 0.015 -0.0335 -0.0018
v 0.015 -0.0335 -0.004
v 0.01325 -0.030468910000000002 -0.004
v 0.00975 -0.030468910000000002 -0.004
v 0.008 -0.0335 -0.004
v 0.00975 -0.03653109 -0.004
v 0.01325 -0.03653109 -0.004
v 0.015 -0.0335 -0.004
vn 1 3.67394e-16 -0
vn 0.5 0.866025 -0
vn -0.5 0.866025 0
vn -1 -2.44929e-16 0
vn -0.5 -0.866025 0
vn 0.5 -0.866025 0
vn 1 1.22465e-16 -0
vn 1 3.67394e-16 -0
vn 0.5 0.866025 -0
vn -0.5 0.866025 0
vn -1 -2.44929e-16 0
vn -0.5 -0.866025 0
vn 0.5 -0.866025 0
vn 1 1.22465e-16 -0
f 35//35 29//29 28//28 
f 35//35 36//36 29//29 
f 34//34 28//28 27//27 
f 34//34 35//35 28//28 
f 33//33 27//27 26//26 
f 33//33 34//34 27//27 
f 32//32 26//26 25//25 
f 32//32 33//33 26//26 
f 31//31 25//25 24//24 
f 31//31 32//32 25//25 
f 30//30 24//24 23//23 
f 30//30 31//31 24//24 

g Face_4
v 0.01325 -0.0335 -0.0018
v 0.01204078 -0.03183565 -0.0018
v 0.01008422 -0.03247138 -0.0018
v 0.01008422 -0.03452862 -0.0018
v 0.01204078 -0.035164350000000004 -0.0018
v 0.01325 -0.0335 -0.0018
v 0.01325 -0.0335 -0.004
v 0.01204078 -0.03183565 -0.004
v 0.01008422 -0.03247138 -0.004
v 0.01008422 -0.03452862 -0.004
v 0.01204078 -0.035164350000000004 -0.004
v 0.01325 -0.0335 -0.004
vn -1 -3.67394e-16 0
vn -0.309017 -0.951057 0
vn 0.809017 -0.587785 -0
vn 0.809017 0.587785 -0
vn -0.309017 0.951057 -0
vn -1 -1.22465e-16 0
vn -1 -3.67394e-16 0
vn -0.309017 -0.951057 0
vn 0.809017 -0.587785 -0
vn 0.809017 0.587785 -0
vn -0.309017 0.951057 -0
vn -1 -1.22465e-16 0
f 47//47 41//41 42//42 
f 47//47 42//42 48//48 
f 46//46 40//40 41//41 
f 46//46 41//41 47//47 
f 45//45 39//39 40//40 
f 45//45 40//40 46//46 
f 44//44 38//38 39//39 
f 44//44 39//39 45//45 
f 43//43 37//37 38//38 
f 43//43 38//38 44//44 

