mtllib Sautoir_v2_triangle_Quantieme.mtl
usemtl Sautoir_v2_triangle_Quantieme
#Wavefront export of shape 1-84--Sautoir_v2_triangle_Quantieme

g Face_1
v 0.141305405 -0.10417679699999999 0.004500000000000035
v 0.141305405 -0.10417679699999999 -0.0004999999999999644
v 0.126311 -0.103767 0.0045000000000000005
v 0.126311 -0.103767 -0.0005
vn 0.0273198 0.999627 3.27656e-16
vn 0.0273198 0.999627 3.27656e-16
vn 0.0273198 0.999627 3.27656e-16
vn 0.0273198 0.999627 3.27656e-16
f 2//2 3//3 1//1 
f 2//2 4//4 3//3 

g Face_2
v 0.126311 -0.103767 0.0045000000000000005
v 0.126311 -0.103767 -0.0005
v 0.12626455634000003 -0.1054663659 0.0045
v 0.12626455634000003 -0.1054663659 -0.0005000000000000004
vn -0.999627 0.0273198 -2.37131e-15
vn -0.999627 0.0273198 -2.37131e-15
vn -0.999627 0.0273198 -2.37131e-15
vn -0.999627 0.0273198 -2.37131e-15
f 7//7 5//5 6//6 
f 7//7 6//6 8//8 

g Face_3
v 0.12626455634000003 -0.1054663659 0.0045
v 0.12626455634000003 -0.1054663659 -0.0005000000000000004
v 0.1336579436 -0.109469847 0.004500000000000016
v 0.1336579436 -0.109469847 -0.000499999999999984
vn -0.476166 -0.879355 -1.36403e-15
vn -0.476166 -0.879355 -1.36403e-15
vn -0.476166 -0.879355 -1.36403e-15
vn -0.476166 -0.879355 -1.36403e-15
f 9//9 12//12 11//11 
f 9//9 10//10 12//12 

g Face_4
v 0.1336579436 -0.109469847 0.004500000000000016
v 0.1336579436 -0.109469847 -0.000499999999999984
v 0.1412780852 -0.105176424 0.004500000000000035
v 0.14127808520000001 -0.105176424 -0.0004999999999999649
vn 0.490877 -0.871229 9.39067e-16
vn 0.490877 -0.871229 9.39067e-16
vn 0.490877 -0.871229 9.39067e-16
vn 0.490877 -0.871229 9.39067e-16
f 13//13 16//16 15//15 
f 13//13 14//14 16//16 

g Face_5
v 0.1412780852 -0.105176424 0.004500000000000035
v 0.14127808520000001 -0.105176424 -0.0004999999999999649
v 0.141305405 -0.10417679699999999 0.004500000000000035
v 0.141305405 -0.10417679699999999 -0.0004999999999999644
vn 0.999627 -0.0273198 2.37131e-15
vn 0.999627 -0.0273198 2.37131e-15
vn 0.999627 -0.0273198 2.37131e-15
vn 0.999627 -0.0273198 2.37131e-15
f 18//18 19//19 17//17 
f 18//18 20//20 19//19 

g Face_6
v 0.1412780852 -0.105176424 0.004500000000000035
v 0.141305405 -0.10417679699999999 0.004500000000000035
v 0.1336579436 -0.109469847 0.004500000000000016
v 0.12626455634000003 -0.1054663659 0.0045
v 0.126311 -0.103767 0.0045000000000000005
vn -2.37938e-15 -2.6275e-16 1
vn -2.37938e-15 -2.6275e-16 1
vn -2.37938e-15 -2.6275e-16 1
vn -2.37938e-15 -2.6275e-16 1
vn -2.37938e-15 -2.6275e-16 1
f 23//23 25//25 24//24 
f 22//22 23//23 21//21 
f 22//22 25//25 23//23 

g Face_7
v 0.141305405 -0.10417679699999999 -0.0004999999999999644
v 0.126311 -0.103767 -0.0005
v 0.14127808520000001 -0.105176424 -0.0004999999999999649
v 0.1336579436 -0.109469847 -0.000499999999999984
v 0.12626455634000003 -0.1054663659 -0.0005000000000000004
vn 2.37938e-15 2.6275e-16 -1
vn 2.37938e-15 2.6275e-16 -1
vn 2.37938e-15 2.6275e-16 -1
vn 2.37938e-15 2.6275e-16 -1
vn 2.37938e-15 2.6275e-16 -1
f 29//29 30//30 27//27 
f 26//26 28//28 29//29 
f 26//26 29//29 27//27 

