mtllib Siete_Roue_dente_Inverseur_petite_detente.mtl
usemtl Siete_Roue_dente_Inverseur_petite_detente
#Wavefront export of shape 1-48-2--Siete_Roue_dente_Inverseur_petite_detente

g Face_1
v 0.0802290555 -0.119645956 -0.1527
v 0.07843301521776 -0.11724298799072 -0.1527
v 0.07545396721775999 -0.11759692199072 -0.1527
v 0.0742709595 -0.120353824 -0.1527
v 0.07606699978223999 -0.12275679200928 -0.1527
v 0.07904604778224 -0.12240285800928 -0.1527
v 0.07745289544638 -0.12170758954536 -0.1527
v 0.078936820875378 -0.120334641817616 -0.1527
v 0.07808962750128 -0.11849907217755999 -0.1527
v 0.07608210663503999 -0.11873758122148 -0.1527
v 0.07568858609809799 -0.120720557293856 -0.1527
vn -5.34063e-31 -6.13986e-30 -1
vn -5.34063e-31 -6.13986e-30 -1
vn -5.34063e-31 -6.13986e-30 -1
vn -5.34063e-31 -6.13986e-30 -1
vn -5.34063e-31 -6.13986e-30 -1
vn -5.34063e-31 -6.13986e-30 -1
vn -5.34063e-31 -6.13986e-30 -1
vn -5.34063e-31 -6.13986e-30 -1
vn -5.34063e-31 -6.13986e-30 -1
vn -5.34063e-31 -6.13986e-30 -1
vn -5.34063e-31 -6.13986e-30 -1
f 11//11 5//5 4//4 
f 7//7 5//5 11//11 
f 6//6 5//5 7//7 
f 10//10 11//11 4//4 
f 3//3 10//10 4//4 
f 8//8 6//6 7//7 
f 1//1 8//8 9//9 
f 1//1 6//6 8//8 
f 2//2 9//9 10//10 
f 2//2 1//1 9//9 
f 2//2 10//10 3//3 

g Face_2
v 0.0804276587 -0.1196223604 -0.1412
v 0.07959887097162 -0.11782668893014 -0.1412
v 0.07787290345802399 -0.116861101948708 -0.1412
v 0.075909007770696 -0.117094427983132 -0.1412
v 0.07445733202842 -0.11843754362074 -0.1412
v 0.07407235629999999 -0.1203774196 -0.1412
v 0.07490114402838 -0.12217309106985999 -0.1412
v 0.076627111541976 -0.123138678051292 -0.1412
v 0.078591007229304 -0.122905352016868 -0.1412
v 0.08004268297157999 -0.12156223637926 -0.1412
v 0.0775803459 -0.1227803348 -0.1412
v 0.07614586641285999 -0.12257299390792 -0.1412
v 0.07500724199207999 -0.12167619371286 -0.1412
v 0.07446956269999999 -0.1203302284 -0.1412
v 0.07487020393086 -0.11852458163682 -0.1412
v 0.076309243599656 -0.11736266217790199 -0.1412
v 0.07815876856754 -0.11735147067378 -0.1412
v 0.0796117709605 -0.1184958803717 -0.1412
v 0.080034249831502 -0.120296541211544 -0.1412
v 0.07924185422145999 -0.12196776866302 -0.1412
vn 5.34063e-31 6.13986e-30 1
vn 5.34063e-31 6.13986e-30 1
vn 5.34063e-31 6.13986e-30 1
vn 5.34063e-31 6.13986e-30 1
vn 5.34063e-31 6.13986e-30 1
vn 5.34063e-31 6.13986e-30 1
vn 5.34063e-31 6.13986e-30 1
vn 5.34063e-31 6.13986e-30 1
vn 5.34063e-31 6.13986e-30 1
vn 5.34063e-31 6.13986e-30 1
vn 5.34063e-31 6.13986e-30 1
vn 5.34063e-31 6.13986e-30 1
vn 5.34063e-31 6.13986e-30 1
vn 5.34063e-31 6.13986e-30 1
vn 5.34063e-31 6.13986e-30 1
vn 5.34063e-31 6.13986e-30 1
vn 5.34063e-31 6.13986e-30 1
vn 5.34063e-31 6.13986e-30 1
vn 5.34063e-31 6.13986e-30 1
vn 5.34063e-31 6.13986e-30 1
f 31//31 20//20 21//21 
f 30//30 31//31 21//21 
f 12//12 30//30 21//21 
f 22//22 20//20 31//31 
f 19//19 20//20 22//22 
f 29//29 30//30 12//12 
f 23//23 19//19 22//22 
f 13//13 29//29 12//12 
f 18//18 19//19 23//23 
f 24//24 18//18 23//23 
f 28//28 29//29 13//13 
f 14//14 28//28 13//13 
f 17//17 24//24 25//25 
f 17//17 18//18 24//24 
f 27//27 28//28 14//14 
f 15//15 26//26 27//27 
f 15//15 27//27 14//14 
f 16//16 25//25 26//26 
f 16//16 17//17 25//25 
f 16//16 26//26 15//15 

g Face_3
v 0.0802290555 -0.119645956 -0.1457
v 0.07843301521776 -0.11724298799072 -0.1457
v 0.07545396721775999 -0.11759692199072 -0.1457
v 0.0742709595 -0.120353824 -0.1457
v 0.07606699978223999 -0.12275679200928 -0.1457
v 0.07904604778224 -0.12240285800928 -0.1457
v 0.0802290555 -0.119645956 -0.1457
v 0.0802290555 -0.119645956 -0.1527
v 0.07843301521776 -0.11724298799072 -0.1527
v 0.07545396721775999 -0.11759692199072 -0.1527
v 0.0742709595 -0.120353824 -0.1527
v 0.07606699978223999 -0.12275679200928 -0.1527
v 0.07904604778224 -0.12240285800928 -0.1527
v 0.0802290555 -0.119645956 -0.1527
vn 1 1.54424e-42 -5.34063e-31
vn 0.5 0.866025 -5.58431e-30
vn -0.5 0.866025 -5.05025e-30
vn -1 1.22465e-16 5.34063e-31
vn -0.5 -0.866025 5.58431e-30
vn 0.5 -0.866025 5.05025e-30
vn 1 -2.44929e-16 -5.34063e-31
vn 1 1.54424e-42 -5.34063e-31
vn 0.5 0.866025 -5.58431e-30
vn -0.5 0.866025 -5.05025e-30
vn -1 1.22465e-16 5.34063e-31
vn -0.5 -0.866025 5.58431e-30
vn 0.5 -0.866025 5.05025e-30
vn 1 -2.44929e-16 -5.34063e-31
f 33//33 32//32 39//39 
f 33//33 39//39 40//40 
f 34//34 40//40 41//41 
f 34//34 33//33 40//40 
f 35//35 41//41 42//42 
f 35//35 34//34 41//41 
f 36//36 42//42 43//43 
f 36//36 35//35 42//42 
f 37//37 43//43 44//44 
f 37//37 36//36 43//43 
f 38//38 44//44 45//45 
f 38//38 37//37 44//44 

g Face_4
v 0.0817185795 -0.119468989 -0.1432
v 0.07962103757247999 -0.11617521051356 -0.1432
v 0.07573807013652 -0.11576148615564 -0.1432
v 0.07299361346479999 -0.11853937140439999 -0.1432
v 0.07345431283567999 -0.12241705916376 -0.1432
v 0.07677325158059999 -0.1244745660254 -0.1432
v 0.08045118740992 -0.12316254773724 -0.1432
v 0.0817185795 -0.119468989 -0.1432
v 0.0802290555 -0.119645956 -0.1457
v 0.0802290555 -0.119645956 -0.1457
v 0.07843301521776 -0.11724298799072 -0.1457
v 0.07545396721775999 -0.11759692199072 -0.1457
v 0.0742709595 -0.120353824 -0.1457
v 0.07606699978223999 -0.12275679200928 -0.1457
v 0.07904604778224 -0.12240285800928 -0.1457
vn 0.970143 -0 0.242536
vn 0.604814 0.758536 0.242536
vn -0.216727 0.945624 0.242536
vn -0.874059 0.420948 0.242536
vn -0.874059 -0.420948 0.242536
vn -0.216727 -0.945624 0.242536
vn 0.604814 -0.758536 0.242536
vn 0.970143 -0 0.242536
vn 0.391468 -0 -0.920192
vn 0.391468 -0 -0.920192
vn 0.195637 0.339077 -0.920192
vn -0.195637 0.339077 -0.920192
vn -0.391468 -0 -0.920192
vn -0.195637 -0.339077 -0.920192
vn 0.195637 -0.339077 -0.920192
f 47//47 55//55 56//56 
f 47//47 46//46 55//55 
f 48//48 56//56 57//57 
f 48//48 47//47 56//56 
f 49//49 57//57 58//58 
f 49//49 48//48 57//57 
f 50//50 58//58 59//59 
f 50//50 49//49 58//58 
f 51//51 50//50 59//59 
f 60//60 51//51 59//59 
f 52//52 60//60 54//54 
f 52//52 51//51 60//60 
f 53//53 52//52 54//54 

g Face_5
v 0.0817185795 -0.119468989 -0.1432
v 0.07962103757247999 -0.11617521051356 -0.1432
v 0.07573807013652 -0.11576148615564 -0.1432
v 0.07299361346479999 -0.11853937140439999 -0.1432
v 0.07345431283567999 -0.12241705916376 -0.1432
v 0.07677325158059999 -0.1244745660254 -0.1432
v 0.08045118740992 -0.12316254773724 -0.1432
v 0.0804276587 -0.1196223604 -0.1432
v 0.07851188302815999 -0.11705919981952 -0.1432
v 0.07533423182816 -0.11743672941952 -0.1432
v 0.07407235629999999 -0.1203774196 -0.1432
v 0.07598813197184 -0.12294058018048 -0.1432
v 0.07916578317183999 -0.12256305058047999 -0.1432
vn 5.34063e-31 6.13986e-30 1
vn 5.34063e-31 6.13986e-30 1
vn 5.34063e-31 6.13986e-30 1
vn 5.34063e-31 6.13986e-30 1
vn 5.34063e-31 6.13986e-30 1
vn 5.34063e-31 6.13986e-30 1
vn 5.34063e-31 6.13986e-30 1
vn 5.34063e-31 6.13986e-30 1
vn 5.34063e-31 6.13986e-30 1
vn 5.34063e-31 6.13986e-30 1
vn 5.34063e-31 6.13986e-30 1
vn 5.34063e-31 6.13986e-30 1
vn 5.34063e-31 6.13986e-30 1
f 66//66 67//67 73//73 
f 68//68 67//67 61//61 
f 68//68 73//73 67//67 
f 72//72 66//66 73//73 
f 62//62 68//68 61//61 
f 69//69 68//68 62//62 
f 65//65 66//66 72//72 
f 71//71 65//65 72//72 
f 63//63 70//70 69//69 
f 63//63 69//69 62//62 
f 64//64 71//71 70//70 
f 64//64 65//65 71//71 
f 64//64 70//70 63//63 

g Face_6
v 0.0804276587 -0.1196223604 -0.1412
v 0.07851188302815999 -0.11705919981952 -0.1412
v 0.07533423182816 -0.11743672941952 -0.1412
v 0.07407235629999999 -0.1203774196 -0.1412
v 0.07598813197184 -0.12294058018048 -0.1412
v 0.07916578317183999 -0.12256305058047999 -0.1412
v 0.0804276587 -0.1196223604 -0.1412
v 0.0804276587 -0.1196223604 -0.1432
v 0.07851188302815999 -0.11705919981952 -0.1432
v 0.07533423182816 -0.11743672941952 -0.1432
v 0.07407235629999999 -0.1203774196 -0.1432
v 0.07598813197184 -0.12294058018048 -0.1432
v 0.07916578317183999 -0.12256305058047999 -0.1432
v 0.0804276587 -0.1196223604 -0.1432
vn 1 1.54424e-42 -5.34063e-31
vn 0.5 0.866025 -5.58431e-30
vn -0.5 0.866025 -5.05025e-30
vn -1 1.22465e-16 5.34063e-31
vn -0.5 -0.866025 5.58431e-30
vn 0.5 -0.866025 5.05025e-30
vn 1 -2.44929e-16 -5.34063e-31
vn 1 1.54424e-42 -5.34063e-31
vn 0.5 0.866025 -5.58431e-30
vn -0.5 0.866025 -5.05025e-30
vn -1 1.22465e-16 5.34063e-31
vn -0.5 -0.866025 5.58431e-30
vn 0.5 -0.866025 5.05025e-30
vn 1 -2.44929e-16 -5.34063e-31
f 75//75 74//74 81//81 
f 75//75 81//81 82//82 
f 76//76 82//82 83//83 
f 76//76 75//75 82//82 
f 77//77 83//83 84//84 
f 77//77 76//76 83//83 
f 78//78 84//84 85//85 
f 78//78 77//77 84//84 
f 79//79 85//85 86//86 
f 79//79 78//78 85//85 
f 80//80 86//86 87//87 
f 80//80 79//79 86//86 

g Face_7
v 0.07746153851465999 -0.12178033789751999 -0.14220702999999998
v 0.07900868489824399 -0.120348900013768 -0.14220702999999998
v 0.07812539539395999 -0.11843514591672 -0.14220702999999998
v 0.07603235598979999 -0.118683815226 -0.14220702999999998
v 0.07562206341120399 -0.120751256904088 -0.14220702999999998
v 0.07746153851465999 -0.12178033789751999 -0.14220702999999998
v 0.07745289544638 -0.12170758954536 -0.1527
v 0.07745721698052 -0.12174396372144 -0.14745352
v 0.078936820875378 -0.120334641817616 -0.1527
v 0.07808962750128 -0.11849907217755999 -0.1527
v 0.07608210663503999 -0.11873758122148 -0.1527
v 0.07568858609809799 -0.120720557293856 -0.1527
v 0.07745289544638 -0.12170758954536 -0.1527
v 0.07745721698052 -0.12174396372144 -0.14745352
v 0.07865681969840199 -0.11894840288914399 -0.14745352
v 0.075635985585122 -0.119307301403384 -0.14745352
vn 3.72843e-33 0.999976 0.00698126
vn -0.951033 0.309009 0.00698126
vn -0.587771 -0.808997 0.00698126
vn 0.587771 -0.808997 0.00698126
vn 0.951033 0.309009 0.00698126
vn 2.44923e-16 0.999976 0.00698126
vn 3.72843e-33 0.999976 0.00698126
vn 3.72843e-33 0.999976 0.00698126
vn -0.951033 0.309009 0.00698126
vn -0.587771 -0.808997 0.00698126
vn 0.587771 -0.808997 0.00698126
vn 0.951033 0.309009 0.00698126
vn 2.44923e-16 0.999976 0.00698126
vn 2.44923e-16 0.999976 0.00698126
vn -0.866004 -0.499988 0.00698126
vn 0.866004 -0.499988 0.00698126
f 95//95 96//96 94//94 
f 89//89 95//95 88//88 
f 101//101 100//100 99//99 
f 93//93 101//101 92//92 
f 102//102 89//89 90//90 
f 102//102 97//97 96//96 
f 102//102 96//96 95//95 
f 102//102 95//95 89//89 
f 103//103 90//90 91//91 
f 103//103 91//91 92//92 
f 103//103 98//98 97//97 
f 103//103 99//99 98//98 
f 103//103 97//97 102//102 
f 103//103 101//101 99//99 
f 103//103 102//102 90//90 
f 103//103 92//92 101//101 

g Face_8
v 0.07446956269999999 -0.1203302284 -0.1412
v 0.07588078835675999 -0.11755751123702 -0.1412
v 0.0789824952362 -0.1178002329794 -0.1412
v 0.07994521547654 -0.12075872400507999 -0.1412
v 0.0775803459 -0.1227803348 -0.1412
v 0.07746153851465999 -0.12178033789751999 -0.14220702999999998
v 0.07900868489824399 -0.120348900013768 -0.14220702999999998
v 0.07812539539395999 -0.11843514591672 -0.14220702999999998
v 0.07603235598979999 -0.118683815226 -0.14220702999999998
v 0.07562206341120399 -0.120751256904088 -0.14220702999999998
v 0.07746153851465999 -0.12178033789751999 -0.14220702999999998
v 0.0775803459 -0.1227803348 -0.1412
v 0.07614586641285999 -0.12257299390792 -0.1412
v 0.07500724199207999 -0.12167619371286 -0.1412
vn 0.707107 -2.5971e-16 0.707107
vn 0.270598 -0.653281 0.707107
vn -0.5 -0.5 0.707107
vn -0.653281 0.270598 0.707107
vn 1.1865e-16 0.707107 0.707107
vn 1.1865e-16 0.707107 0.707107
vn -0.672499 0.218508 0.707107
vn -0.415627 -0.572061 0.707107
vn 0.415627 -0.572061 0.707107
vn 0.672499 0.218508 0.707107
vn 2.91842e-16 0.707107 0.707107
vn 2.91842e-16 0.707107 0.707107
vn 0.353553 0.612372 0.707107
vn 0.612372 0.353553 0.707107
f 107//107 109//109 108//108 
f 107//107 110//110 109//109 
f 106//106 111//111 110//110 
f 106//106 110//110 107//107 
f 105//105 112//112 111//111 
f 105//105 111//111 106//106 
f 104//104 113//113 112//112 
f 104//104 112//112 105//105 
f 117//117 113//113 104//104 
f 116//116 114//114 113//113 
f 116//116 113//113 117//117 
f 115//115 114//114 116//116 

