mtllib Tige_balancier_Laiton.mtl
usemtl Tige_balancier_Laiton
#Wavefront export of shape 1-86-10--Tige_balancier_Laiton_

g Face_1
v 0.14479234492999998 -1.0096843258 -0.01388000999999997
v 0.143410833596814 -1.0097197943719798 -0.01197789999999997
v 0.14117550526187 -1.009777183625359 -0.01270443999999997
v 0.14117550526187 -1.009777183625359 -0.015055579999999971
v 0.143410833596814 -1.0097197943719798 -0.01578211999999997
vn -1.04083e-16 -1 -1.05776e-16
vn -1.04083e-16 -1 -1.05776e-16
vn -1.04083e-16 -1 -1.05776e-16
vn -1.04083e-16 -1 -1.05776e-16
vn -1.04083e-16 -1 -1.05776e-16
f 3//3 1//1 2//2 
f 3//3 4//4 5//5 
f 3//3 5//5 1//1 

g Face_2
v 0.14479234492999998 -1.0096843258 -0.01388000999999997
v 0.143410833596814 -1.0097197943719798 -0.01197789999999997
v 0.14117550526187 -1.009777183625359 -0.01270443999999997
v 0.14117550526187 -1.009777183625359 -0.015055579999999971
v 0.143410833596814 -1.0097197943719798 -0.01578211999999997
v 0.14479234492999998 -1.0096843258 -0.01388000999999997
v 0.12962415263000004 -0.4188787648000001 -0.013880009999999774
v 0.12824264129681406 -0.41891423337197986 -0.011977899999999774
v 0.12600731296187007 -0.41897162262535903 -0.012704439999999774
v 0.12600731296187007 -0.41897162262535903 -0.015055579999999775
v 0.12824264129681406 -0.41891423337197986 -0.015782119999999775
v 0.12962415263000004 -0.4188787648000001 -0.013880009999999774
v 0.14082190789000004 -0.9329609235999999 -0.015880009999999948
v 0.140202344269131 -0.9341037017792917 -0.015771899999999946
v 0.141499662339394 -0.9340696945328677 -0.015771769999999945
v 0.14082190789000004 -0.9329609235999999 -0.011880009999999944
v 0.141499295431769 -0.9340704041837082 -0.011988119999999946
v 0.140201941430086 -0.9341030118907322 -0.011988249999999947
v 0.13312712446000002 -0.662469199975 -0.012025959999999856
v 0.13423675101113403 -0.6617914975830937 -0.011915809999999855
v 0.13426943277846204 -0.6630890867615634 -0.011915689999999856
v 0.13389612668500003 -0.66319970425 -0.015880009999999858
v 0.13462665662530005 -0.662431701696 -0.015734059999999855
v 0.13385800719944424 -0.6617001880333997 -0.015880009999999858
v 0.13312712446000002 -0.662469199975 -0.015734059999999855
vn 1 -1.04083e-16 -1.2326e-32
vn 0.309017 -1.32762e-16 0.951057
vn -0.809017 2.20318e-17 0.587785
vn -0.809017 1.46379e-16 -0.587785
vn 0.309017 6.84352e-17 -0.951057
vn 1 -1.04083e-16 -2.44929e-16
vn 1 -1.04083e-16 -1.2326e-32
vn 0.309017 -1.32762e-16 0.951057
vn -0.809017 2.20318e-17 0.587785
vn -0.809017 1.46379e-16 -0.587785
vn 0.309017 6.84352e-17 -0.951057
vn 1 -1.04083e-16 -2.44929e-16
vn 1.93562e-14 1.05776e-16 -1
vn -0.324343 1.33816e-16 -0.945939
vn 0.324535 6.62719e-17 -0.945874
vn 1.96012e-14 -1.05776e-16 1
vn 0.324343 -1.33816e-16 0.945939
vn -0.324535 -6.62719e-17 0.945874
vn -0.375 -5.90255e-17 0.927025
vn 0.188328 -1.23485e-16 0.982106
vn 0.188012 -1.23458e-16 0.982167
vn -2.84823e-15 1.05776e-16 -1
vn 0.374997 5.90259e-17 -0.927026
vn 0.000189381 1.05756e-16 -1
vn -0.374997 1.37088e-16 -0.927026
f 25//25 12//12 13//13 
f 26//26 6//6 12//12 
f 26//26 12//12 25//25 
f 24//24 13//13 14//14 
f 24//24 25//25 13//13 
f 22//22 6//6 26//26 
f 7//7 6//6 22//22 
f 21//21 26//26 24//24 
f 21//21 22//22 26//26 
f 23//23 21//21 24//24 
f 15//15 24//24 14//14 
f 8//8 23//23 24//24 
f 8//8 7//7 23//23 
f 30//30 15//15 16//16 
f 30//30 24//24 15//15 
f 29//29 30//30 16//16 
f 9//9 8//8 24//24 
f 9//9 24//24 30//30 
f 28//28 29//29 16//16 
f 19//19 30//30 27//27 
f 19//19 9//9 30//30 
f 17//17 28//28 16//16 
f 18//18 19//19 27//27 
f 20//20 27//27 28//28 
f 20//20 18//18 27//27 
f 10//10 9//9 19//19 
f 11//11 20//20 28//28 
f 11//11 28//28 17//17 
f 11//11 10//10 20//20 
f 19//19 20//20 10//10 
f 22//22 23//23 7//7 

g Face_3
v 0.12962415263000004 -0.4188787648000001 -0.013880009999999774
v 0.12824264129681406 -0.41891423337197986 -0.011977899999999774
v 0.12600731296187007 -0.41897162262535903 -0.012704439999999774
v 0.12600731296187007 -0.41897162262535903 -0.015055579999999775
v 0.12824264129681406 -0.41891423337197986 -0.015782119999999775
v 0.12962415263000004 -0.4188787648000001 -0.013880009999999774
v 0.12839349393000005 -0.40990739109999996 -0.013880009999999771
v 0.12900882328000007 -0.4143930779499999 -0.013880009999999773
v 0.12739382293000007 -0.4099330564 -0.01288000999999977
v 0.12639415193000006 -0.40995872170000003 -0.013880009999999771
v 0.12739382293000007 -0.4099330564 -0.014880009999999772
v 0.12839349393000005 -0.40990739109999996 -0.013880009999999771
v 0.12900882328000007 -0.4143930779499999 -0.013880009999999773
v 0.12699618531597207 -0.41439673407084043 -0.015284229999999772
v 0.12696575521691605 -0.41442852555315124 -0.015276129999999773
v 0.12734034338271205 -0.4156593175777483 -0.015503489999999773
v 0.12824916399529004 -0.41474769177470283 -0.015232049999999773
v 0.12696575521691605 -0.41442852555315124 -0.012483889999999772
v 0.12824037432814905 -0.4147159068808093 -0.012527709999999772
v 0.12735780733016905 -0.4156628705324833 -0.012253969999999772
v 0.12675956353000006 -0.41445082487499996 -0.012580969999999773
v 0.12675956353000006 -0.41445082487499996 -0.015179049999999772
vn 0.993884 0.110432 1.1681e-17
vn 0.307127 0.110432 0.94524
vn -0.804069 0.110432 0.58419
vn -0.804069 0.110432 -0.58419
vn 0.307127 0.110432 -0.94524
vn 0.993884 0.110432 -2.3175e-16
vn 0.993884 0.110432 1.1681e-17
vn 0.993884 0.110432 1.1681e-17
vn 7.23519e-17 0.110432 0.993884
vn -0.993884 0.110432 1.33397e-16
vn -1.71079e-16 0.110432 -0.993884
vn 0.993884 0.110432 -2.3175e-16
vn 0.993884 0.110432 -2.3175e-16
vn -0.340501 0.110432 -0.933737
vn -0.360443 0.110432 -0.926221
vn -0.121775 0.110432 -0.986395
vn 0.472939 0.110432 -0.874147
vn -0.360442 0.110432 0.926222
vn 0.468867 0.110432 0.876338
vn -0.11119 0.110432 0.987644
vn -0.496942 0.110432 0.860729
vn -0.496942 0.110432 -0.860729
f 38//38 37//37 39//39 
f 49//49 38//38 39//39 
f 48//48 49//49 39//39 
f 31//31 49//49 50//50 
f 31//31 38//38 49//49 
f 32//32 31//31 50//50 
f 47//47 44//44 41//41 
f 33//33 32//32 50//50 
f 33//33 50//50 46//46 
f 43//43 41//41 42//42 
f 43//43 47//47 41//41 
f 34//34 33//33 46//46 
f 35//35 34//34 46//46 
f 36//36 46//46 47//47 
f 36//36 47//47 43//43 
f 36//36 35//35 46//46 
f 51//51 39//39 40//40 
f 51//51 50//50 48//48 
f 51//51 48//48 39//39 
f 51//51 46//46 50//50 
f 52//52 40//40 41//41 
f 52//52 44//44 45//45 
f 52//52 45//45 46//46 
f 52//52 46//46 51//51 
f 52//52 41//41 44//44 
f 52//52 51//51 40//40 

g Face_4
v 0.12839349393000005 -0.40990739109999996 -0.013880009999999771
v 0.12739382293000007 -0.4099330564 -0.01288000999999977
v 0.12639415193000006 -0.40995872170000003 -0.013880009999999771
v 0.12739382293000007 -0.4099330564 -0.014880009999999772
vn 1.04083e-16 1 1.05776e-16
vn 1.04083e-16 1 1.05776e-16
vn 1.04083e-16 1 1.05776e-16
vn 1.04083e-16 1 1.05776e-16
f 54//54 56//56 55//55 
f 54//54 53//53 56//56 

g Face_5
v 0.13312712446000002 -0.662469199975 -0.012025959999999856
v 0.13423675101113403 -0.6617914975830937 -0.011915809999999855
v 0.13426943277846204 -0.6630890867615634 -0.011915689999999856
v 0.13312712446000002 -0.662469199975 -0.012025959999999856
v 0.13312712446000002 -0.662469199975 -0.015734059999999855
v 0.13389612668500003 -0.66319970425 -0.015880009999999858
v 0.13462665662530005 -0.662431701696 -0.015734059999999855
v 0.13385800719944424 -0.6617001880333997 -0.015880009999999858
v 0.13312712446000002 -0.662469199975 -0.015734059999999855
vn 1 7.33698e-14 -2.81893e-15
vn -0.502198 -0.864753 1.22364e-15
vn -0.501341 0.86525 1.60537e-15
vn 1 7.36147e-14 -2.81893e-15
vn 1 7.33493e-14 -2.81893e-15
vn 2.3258e-14 1 2.22045e-16
vn -1 0.000814813 2.81911e-15
vn -0.00050502 -1 -2.20621e-16
vn 1 7.33698e-14 -2.81893e-15
f 60//60 62//62 61//61 
f 59//59 63//63 62//62 
f 59//59 62//62 60//60 
f 58//58 64//64 63//63 
f 58//58 63//63 59//59 
f 57//57 65//65 64//64 
f 57//57 64//64 58//58 

g Face_6
v 0.14082190789000004 -0.9329609235999999 -0.015880009999999948
v 0.140202344269131 -0.9341037017792917 -0.015771899999999946
v 0.141499662339394 -0.9340696945328677 -0.015771769999999945
v 0.14082190789000004 -0.9329609235999999 -0.015880009999999948
v 0.14082190789000004 -0.9329609235999999 -0.011880009999999944
v 0.141499295431769 -0.9340704041837082 -0.011988119999999946
v 0.140201941430086 -0.9341030118907322 -0.011988249999999947
v 0.14082190789000004 -0.9329609235999999 -0.011880009999999944
vn 1.40846e-16 -1 -2.22045e-16
vn 0.864904 0.501938 1.11453e-16
vn -0.865395 0.501091 1.11265e-16
vn -1.04083e-16 -1 -2.22045e-16
vn -1.04083e-16 -1 -2.22045e-16
vn -0.864904 0.501938 1.11453e-16
vn 0.865395 0.501091 1.11265e-16
vn 1.40846e-16 -1 -2.22045e-16
f 68//68 70//70 69//69 
f 68//68 71//71 70//70 
f 67//67 72//72 71//71 
f 67//67 71//71 68//68 
f 66//66 73//73 72//72 
f 66//66 72//72 67//67 

g Face_7
v 0.12696575521691605 -0.41442852555315124 -0.012483889999999772
v 0.12824037432814905 -0.4147159068808093 -0.012527709999999772
v 0.12735780733016905 -0.4156628705324833 -0.012253969999999772
v 0.12696575521691605 -0.41442852555315124 -0.012483889999999772
v 0.12696575521691605 -0.41442852555315124 -0.015276129999999773
v 0.12734034338271205 -0.4156593175777483 -0.015503489999999773
v 0.12824916399529004 -0.41474769177470283 -0.015232049999999773
v 0.12699618531597207 -0.41439673407084043 -0.015284229999999772
v 0.12696575521691605 -0.41442852555315124 -0.015276129999999773
vn 0.724405 -0.689374 1.53072e-16
vn -0.964714 -0.263301 5.84645e-17
vn 0.244098 0.969751 -2.15328e-16
vn 0.724405 -0.689374 1.53072e-16
vn 0.724405 -0.689374 1.53072e-16
vn 0.267241 0.96363 -2.13969e-16
vn -0.975357 -0.220631 4.89899e-17
vn 0.682757 -0.730646 1.62236e-16
vn 0.724405 -0.689374 1.53072e-16
f 77//77 79//79 78//78 
f 76//76 80//80 79//79 
f 76//76 79//79 77//77 
f 75//75 81//81 80//80 
f 75//75 80//80 76//76 
f 74//74 82//82 81//81 
f 74//74 81//81 75//75 

