mtllib Tige_balancier.mtl
usemtl Tige_balancier
#Wavefront export of shape 1-86-6--Tige_balancier

g Face_1
v 0.17978082992999997 -1.0087860402999997 -0.013880009999999967
v 0.178399318596814 -1.0088215088719796 -0.011977899999999967
v 0.17616399026187 -1.008878898125359 -0.012704439999999966
v 0.17616399026187 -1.008878898125359 -0.015055579999999968
v 0.178399318596814 -1.0088215088719796 -0.015782119999999965
vn -2.22045e-16 -1 2.22045e-16
vn -2.22045e-16 -1 2.22045e-16
vn -2.22045e-16 -1 2.22045e-16
vn -2.22045e-16 -1 2.22045e-16
vn -2.22045e-16 -1 2.22045e-16
f 3//3 1//1 2//2 
f 3//3 4//4 5//5 
f 3//3 5//5 1//1 

g Face_2
v 0.17978082992999997 -1.0087860402999997 -0.013880009999999967
v 0.178399318596814 -1.0088215088719796 -0.011977899999999967
v 0.17616399026187 -1.008878898125359 -0.012704439999999966
v 0.17616399026187 -1.008878898125359 -0.015055579999999968
v 0.178399318596814 -1.0088215088719796 -0.015782119999999965
v 0.17978082992999997 -1.0087860402999997 -0.013880009999999967
v 0.1646126376300001 -0.41798047929999993 -0.013880009999999965
v 0.1632311262968141 -0.4180159478719797 -0.011977899999999965
v 0.1609957979618701 -0.4180733371253589 -0.012704439999999964
v 0.1609957979618701 -0.4180733371253589 -0.015055579999999966
v 0.1632311262968141 -0.4180159478719797 -0.015782119999999962
v 0.1646126376300001 -0.41798047929999993 -0.013880009999999965
vn 1 -2.22045e-16 6.16298e-32
vn 0.309017 1.42561e-16 0.951057
vn -0.809017 3.10152e-16 0.587785
vn -0.809017 4.91233e-17 -0.587785
vn 0.309017 -2.79793e-16 -0.951057
vn 1 -2.22045e-16 -2.44929e-16
vn 1 -2.22045e-16 6.16298e-32
vn 0.309017 1.42561e-16 0.951057
vn -0.809017 3.10152e-16 0.587785
vn -0.809017 4.91233e-17 -0.587785
vn 0.309017 -2.79793e-16 -0.951057
vn 1 -2.22045e-16 -2.44929e-16
f 7//7 6//6 12//12 
f 7//7 12//12 13//13 
f 8//8 13//13 14//14 
f 8//8 7//7 13//13 
f 9//9 14//14 15//15 
f 9//9 8//8 14//14 
f 10//10 15//15 16//16 
f 10//10 9//9 15//15 
f 11//11 16//16 17//17 
f 11//11 10//10 16//16 

g Face_3
v 0.1646126376300001 -0.41798047929999993 -0.013880009999999965
v 0.1632311262968141 -0.4180159478719797 -0.011977899999999965
v 0.1609957979618701 -0.4180733371253589 -0.012704439999999964
v 0.1609957979618701 -0.4180733371253589 -0.015055579999999966
v 0.1632311262968141 -0.4180159478719797 -0.015782119999999962
v 0.1646126376300001 -0.41798047929999993 -0.013880009999999965
v 0.16338197893000012 -0.4090091055999998 -0.013880009999999965
v 0.16399730828000011 -0.41349479244999976 -0.013880009999999965
v 0.1623823079300001 -0.40903477089999984 -0.012880009999999964
v 0.16138263693000013 -0.4090604361999999 -0.013880009999999965
v 0.1623823079300001 -0.40903477089999984 -0.014880009999999966
v 0.16338197893000012 -0.4090091055999998 -0.013880009999999965
v 0.16399730828000011 -0.41349479244999976 -0.013880009999999965
v 0.1619846703159721 -0.4134984485708403 -0.015284229999999965
v 0.16195424021691612 -0.4135302400531511 -0.015276129999999966
v 0.16232882838271212 -0.41476103207774817 -0.015503489999999965
v 0.1632376489952901 -0.4138494062747027 -0.015232049999999966
v 0.16195424021691612 -0.4135302400531511 -0.012483889999999965
v 0.16322885932814912 -0.41381762138080913 -0.012527709999999964
v 0.16234629233016912 -0.41476458503248315 -0.012253969999999965
v 0.1617480485300001 -0.4135525393749998 -0.012580969999999966
v 0.1617480485300001 -0.4135525393749998 -0.015179049999999965
vn 0.993884 0.110432 -2.45207e-17
vn 0.307127 0.110432 0.94524
vn -0.804069 0.110432 0.58419
vn -0.804069 0.110432 -0.58419
vn 0.307127 0.110432 -0.94524
vn 0.993884 0.110432 6.14794e-16
vn 0.993884 0.110432 -2.45207e-17
vn 0.993884 0.110432 -2.45207e-17
vn -1.35308e-16 0.110432 0.993884
vn -0.993884 0.110432 -3.44178e-16
vn -1.58053e-16 0.110432 -0.993884
vn 0.993884 0.110432 6.14794e-16
vn 0.993884 0.110432 6.14794e-16
vn -0.340501 0.110432 -0.933737
vn -0.360443 0.110432 -0.926221
vn -0.121775 0.110432 -0.986395
vn 0.472939 0.110432 -0.874147
vn -0.360442 0.110432 0.926222
vn 0.468867 0.110432 0.876338
vn -0.11119 0.110432 0.987644
vn -0.496942 0.110432 0.860729
vn -0.496942 0.110432 -0.860729
f 25//25 24//24 26//26 
f 36//36 25//25 26//26 
f 35//35 36//36 26//26 
f 18//18 36//36 37//37 
f 18//18 25//25 36//36 
f 19//19 18//18 37//37 
f 34//34 31//31 28//28 
f 20//20 19//19 37//37 
f 20//20 37//37 33//33 
f 30//30 28//28 29//29 
f 30//30 34//34 28//28 
f 21//21 20//20 33//33 
f 22//22 21//21 33//33 
f 23//23 33//33 34//34 
f 23//23 34//34 30//30 
f 23//23 22//22 33//33 
f 38//38 26//26 27//27 
f 38//38 37//37 35//35 
f 38//38 35//35 26//26 
f 38//38 33//33 37//37 
f 39//39 27//27 28//28 
f 39//39 31//31 32//32 
f 39//39 32//32 33//33 
f 39//39 33//33 38//38 
f 39//39 28//28 31//31 
f 39//39 38//38 27//27 

g Face_4
v 0.16338197893000012 -0.4090091055999998 -0.013880009999999965
v 0.1623823079300001 -0.40903477089999984 -0.012880009999999964
v 0.16138263693000013 -0.4090604361999999 -0.013880009999999965
v 0.1623823079300001 -0.40903477089999984 -0.014880009999999966
vn 2.22045e-16 1 -2.22045e-16
vn 2.22045e-16 1 -2.22045e-16
vn 2.22045e-16 1 -2.22045e-16
vn 2.22045e-16 1 -2.22045e-16
f 41//41 43//43 42//42 
f 41//41 40//40 43//43 

g Face_5
v 0.16195424021691612 -0.4135302400531511 -0.012483889999999965
v 0.16322885932814912 -0.41381762138080913 -0.012527709999999964
v 0.16234629233016912 -0.41476458503248315 -0.012253969999999965
v 0.16195424021691612 -0.4135302400531511 -0.012483889999999965
v 0.16195424021691612 -0.4135302400531511 -0.015276129999999966
v 0.16232882838271212 -0.41476103207774817 -0.015503489999999965
v 0.1632376489952901 -0.4138494062747027 -0.015232049999999966
v 0.1619846703159721 -0.4134984485708403 -0.015284229999999965
v 0.16195424021691612 -0.4135302400531511 -0.015276129999999966
vn 0.724405 -0.689374 3.79063e-16
vn -0.964714 -0.263301 1.4478e-16
vn 0.244098 0.969751 -5.33232e-16
vn 0.724405 -0.689374 3.79063e-16
vn 0.724405 -0.689374 3.79063e-16
vn 0.267241 0.96363 -5.29866e-16
vn -0.975357 -0.220631 1.21317e-16
vn 0.682757 -0.730646 4.01756e-16
vn 0.724405 -0.689374 3.79063e-16
f 47//47 49//49 48//48 
f 46//46 50//50 49//49 
f 46//46 49//49 47//47 
f 45//45 51//51 50//50 
f 45//45 50//50 46//46 
f 44//44 52//52 51//51 
f 44//44 51//51 45//45 

