mtllib Vis_Pied_limacon.mtl
usemtl Vis_Pied_limacon
#Wavefront export of shape 1-8-10--Vis_Pied_limacon

g Face_1
v 0.05425 -0.1825 -0.03699999999999999
v 0.05684808 -0.184 -0.03699999999999999
v 0.05684808 -0.187 -0.03699999999999999
v 0.05425 -0.1885 -0.03699999999999999
v 0.05165192 -0.187 -0.03699999999999999
v 0.05165192 -0.184 -0.03699999999999999
v 0.05425 -0.1825 -0.03699999999999999
v 0.05425 -0.1825 -0.03339999999999999
v 0.05720804 -0.185 -0.03339999999999999
v 0.0566648 -0.18371991 -0.03339999999999999
v 0.05560273 -0.18282229 -0.03339999999999999
v 0.05720804 -0.185 -0.033999999999999996
v 0.05724533 -0.185332639 -0.033999999999999996
v 0.05724533 -0.185667361 -0.033999999999999996
v 0.05720804 -0.186 -0.033999999999999996
v 0.05720804 -0.186 -0.03339999999999999
v 0.05129196 -0.186 -0.03339999999999999
v 0.052897269999999996 -0.18817771 -0.03339999999999999
v 0.05560273 -0.18817771 -0.03339999999999999
v 0.05129196 -0.186 -0.033999999999999996
v 0.05125467 -0.185667361 -0.033999999999999996
v 0.05125467 -0.185332639 -0.033999999999999996
v 0.05129196 -0.185 -0.033999999999999996
v 0.05129196 -0.185 -0.03339999999999999
v 0.05425 -0.1825 -0.03339999999999999
v 0.052897269999999996 -0.18282229 -0.03339999999999999
v 0.0518352 -0.18371991 -0.03339999999999999
vn -0 1 3.77114e-17
vn 0.866025 0.5 1.88557e-17
vn 0.866025 -0.5 -1.88557e-17
vn 1.22465e-16 -1 -3.77114e-17
vn -0.866025 -0.5 -1.88557e-17
vn -0.866025 0.5 1.88557e-17
vn -2.44929e-16 1 3.77114e-17
vn -0 1 3.77114e-17
vn 0.986013 0.166667 6.28523e-18
vn 0.804935 0.593363 2.23766e-17
vn 0.450908 0.89257 3.36601e-17
vn 0.986013 0.166667 6.28523e-18
vn 0.998443 0.055787 2.10381e-18
vn 0.998443 -0.055787 -2.10381e-18
vn 0.986013 -0.166667 -6.28523e-18
vn 0.986013 -0.166667 -6.28523e-18
vn -0.986013 -0.166667 -6.28523e-18
vn -0.450908 -0.89257 -3.36601e-17
vn 0.450908 -0.89257 -3.36601e-17
vn -0.986013 -0.166667 -6.28523e-18
vn -0.998443 -0.055787 -2.10381e-18
vn -0.998443 0.055787 2.10381e-18
vn -0.986013 0.166667 6.28523e-18
vn -0.986013 0.166667 6.28523e-18
vn -2.44929e-16 1 3.77114e-17
vn -0.450908 0.89257 3.36601e-17
vn -0.804935 0.593363 2.23766e-17
f 1//1 8//8 11//11 
f 12//12 10//10 9//9 
f 19//19 15//15 16//16 
f 2//2 11//11 10//10 
f 2//2 12//12 13//13 
f 2//2 10//10 12//12 
f 2//2 1//1 11//11 
f 3//3 13//13 14//14 
f 3//3 14//14 15//15 
f 3//3 15//15 19//19 
f 3//3 2//2 13//13 
f 4//4 19//19 18//18 
f 4//4 3//3 19//19 
f 20//20 18//18 17//17 
f 27//27 23//23 24//24 
f 5//5 20//20 21//21 
f 5//5 18//18 20//20 
f 5//5 4//4 18//18 
f 6//6 21//21 22//22 
f 6//6 22//22 23//23 
f 6//6 27//27 26//26 
f 6//6 23//23 27//27 
f 6//6 5//5 21//21 
f 7//7 26//26 25//25 
f 7//7 6//6 26//26 

g Face_2
v 0.05129196 -0.186 -0.033999999999999996
v 0.05129196 -0.186 -0.03339999999999999
v 0.05720804 -0.186 -0.033999999999999996
v 0.05720804 -0.186 -0.03339999999999999
v 0.055246084 -0.186 -0.0330543729
v 0.053253916 -0.186 -0.0330543729
vn -0 1 -0
vn -0 1 -0
vn -0 1 -0
vn -0 1 -0
vn -0 1 -0
vn -0 1 -0
f 33//33 28//28 29//29 
f 30//30 32//32 31//31 
f 30//30 33//33 32//32 
f 30//30 28//28 33//33 

g Face_3
v 0.05720804 -0.185 -0.033999999999999996
v 0.05720804 -0.185 -0.03339999999999999
v 0.05129196 -0.185 -0.033999999999999996
v 0.05129196 -0.185 -0.03339999999999999
v 0.053253916 -0.185 -0.0330543729
v 0.055246084 -0.185 -0.0330543729
vn -0 -1 -0
vn -0 -1 -0
vn -0 -1 -0
vn -0 -1 -0
vn -0 -1 -0
vn -0 -1 -0
f 38//38 37//37 36//36 
f 34//34 39//39 38//38 
f 34//34 38//38 36//36 
f 35//35 39//39 34//34 

g Face_4
v 0.05425 -0.1825 -0.03699999999999999
v 0.05684808 -0.184 -0.03699999999999999
v 0.05684808 -0.187 -0.03699999999999999
v 0.05425 -0.1885 -0.03699999999999999
v 0.05165192 -0.187 -0.03699999999999999
v 0.05165192 -0.184 -0.03699999999999999
v 0.05425 -0.18375 -0.03699999999999999
v 0.05591435 -0.18495922 -0.03699999999999999
v 0.05527862 -0.18691578 -0.03699999999999999
v 0.05322138 -0.18691578 -0.03699999999999999
v 0.05258565 -0.18495922 -0.03699999999999999
vn 0 3.77114e-17 -1
vn 0 3.77114e-17 -1
vn 0 3.77114e-17 -1
vn 0 3.77114e-17 -1
vn 0 3.77114e-17 -1
vn 0 3.77114e-17 -1
vn 0 3.77114e-17 -1
vn 0 3.77114e-17 -1
vn 0 3.77114e-17 -1
vn 0 3.77114e-17 -1
vn 0 3.77114e-17 -1
f 49//49 43//43 44//44 
f 50//50 49//49 44//44 
f 45//45 50//50 44//44 
f 48//48 43//43 49//49 
f 42//42 43//43 48//48 
f 46//46 50//50 45//45 
f 47//47 42//42 48//48 
f 40//40 46//46 45//45 
f 41//41 47//47 46//46 
f 41//41 46//46 40//40 
f 41//41 42//42 47//47 

g Face_5
v 0.05425 -0.18375 -0.044199999999999996
v 0.05258565 -0.18495922 -0.044199999999999996
v 0.05322138 -0.18691578 -0.044199999999999996
v 0.05527862 -0.18691578 -0.044199999999999996
v 0.05591435 -0.18495922 -0.044199999999999996
v 0.05425 -0.18375 -0.044199999999999996
v 0.05425 -0.18375 -0.03699999999999999
v 0.05591435 -0.18495922 -0.03699999999999999
v 0.05527862 -0.18691578 -0.03699999999999999
v 0.05322138 -0.18691578 -0.03699999999999999
v 0.05258565 -0.18495922 -0.03699999999999999
v 0.05425 -0.18375 -0.03699999999999999
vn -2.44929e-16 1 3.77114e-17
vn -0.951057 0.309017 1.16535e-17
vn -0.587785 -0.809017 -3.05091e-17
vn 0.587785 -0.809017 -3.05091e-17
vn 0.951057 0.309017 1.16535e-17
vn -0 1 3.77114e-17
vn -0 1 3.77114e-17
vn 0.951057 0.309017 1.16535e-17
vn 0.587785 -0.809017 -3.05091e-17
vn -0.587785 -0.809017 -3.05091e-17
vn -0.951057 0.309017 1.16535e-17
vn -2.44929e-16 1 3.77114e-17
f 55//55 56//56 57//57 
f 55//55 57//57 58//58 
f 54//54 58//58 59//59 
f 54//54 55//55 58//58 
f 53//53 59//59 60//60 
f 53//53 54//54 59//59 
f 52//52 60//60 61//61 
f 52//52 53//53 60//60 
f 51//51 61//61 62//62 
f 51//51 52//52 61//61 

g Face_6
v 0.05425 -0.18405 -0.0445
v 0.0557 -0.1855 -0.0445
v 0.05425 -0.18695 -0.0445
v 0.0528 -0.1855 -0.0445
vn 0 3.77114e-17 -1
vn 0 3.77114e-17 -1
vn 0 3.77114e-17 -1
vn 0 3.77114e-17 -1
f 63//63 64//64 65//65 
f 63//63 65//65 66//66 

g Face_7
v 0.05425 -0.18375 -0.044199999999999996
v 0.05258565 -0.18495922 -0.044199999999999996
v 0.05322138 -0.18691578 -0.044199999999999996
v 0.05527862 -0.18691578 -0.044199999999999996
v 0.05591435 -0.18495922 -0.044199999999999996
v 0.05425 -0.18375 -0.044199999999999996
v 0.05425 -0.18405 -0.0445
v 0.05425 -0.18405 -0.0445
v 0.0557 -0.1855 -0.0445
v 0.05425 -0.18695 -0.0445
v 0.0528 -0.1855 -0.0445
vn 8.65956e-17 0.707107 -0.707107
vn -0.672499 0.218508 -0.707107
vn -0.415627 -0.572061 -0.707107
vn 0.415627 -0.572061 -0.707107
vn 0.672499 0.218508 -0.707107
vn 2.59787e-16 0.707107 -0.707107
vn 8.65956e-17 0.707107 -0.707107
vn 2.59787e-16 0.707107 -0.707107
vn 0.707107 -1.89823e-16 -0.707107
vn -1.73191e-16 -0.707107 -0.707107
vn -0.707107 1.56559e-16 -0.707107
f 68//68 67//67 73//73 
f 77//77 68//68 73//73 
f 69//69 68//68 77//77 
f 76//76 69//69 77//77 
f 70//70 69//69 76//76 
f 75//75 70//70 76//76 
f 71//71 70//70 75//75 
f 74//74 71//71 75//75 
f 72//72 71//71 74//74 

g Face_8
v 0.05129196 -0.186 -0.033999999999999996
v 0.05720804 -0.186 -0.033999999999999996
v 0.05720804 -0.185 -0.033999999999999996
v 0.05724533 -0.185332639 -0.033999999999999996
v 0.05724533 -0.185667361 -0.033999999999999996
v 0.05129196 -0.185 -0.033999999999999996
v 0.05125467 -0.185667361 -0.033999999999999996
v 0.05125467 -0.185332639 -0.033999999999999996
vn 0 0 1
vn 0 0 1
vn 0 0 1
vn 0 0 1
vn 0 0 1
vn 0 0 1
vn 0 0 1
vn 0 0 1
f 80//80 78//78 79//79 
f 80//80 82//82 81//81 
f 80//80 79//79 82//82 
f 80//80 84//84 78//78 
f 80//80 85//85 84//84 
f 80//80 83//83 85//85 

g Face_9
v 0.05129196 -0.185 -0.03339999999999999
v 0.053253916 -0.185 -0.0330543729
v 0.055246084 -0.185 -0.0330543729
v 0.05720804 -0.185 -0.03339999999999999
v 0.0566648 -0.18371991 -0.03339999999999999
v 0.05560273 -0.18282229 -0.03339999999999999
v 0.05425 -0.1825 -0.03339999999999999
v 0.052897269999999996 -0.18282229 -0.03339999999999999
v 0.0518352 -0.18371991 -0.03339999999999999
vn -0.258344 0.0436681 0.965066
vn -0.0869942 0.0436681 0.995251
vn 0.0869942 0.0436681 0.995251
vn 0.258344 0.0436681 0.965066
vn 0.2109 0.155466 0.965066
vn 0.118142 0.233861 0.965066
vn 5.55112e-17 0.262009 0.965066
vn -0.118142 0.233861 0.965066
vn -0.2109 0.155466 0.965066
f 88//88 89//89 90//90 
f 91//91 88//88 90//90 
f 92//92 87//87 88//88 
f 92//92 88//88 91//91 
f 93//93 87//87 92//92 
f 94//94 86//86 87//87 
f 94//94 87//87 93//93 

g Face_10
v 0.05720804 -0.186 -0.03339999999999999
v 0.055246084 -0.186 -0.0330543729
v 0.053253916 -0.186 -0.0330543729
v 0.05129196 -0.186 -0.03339999999999999
v 0.052897269999999996 -0.18817771 -0.03339999999999999
v 0.05560273 -0.18817771 -0.03339999999999999
vn 0.258344 -0.0436681 0.965066
vn 0.0869942 -0.0436681 0.995251
vn -0.0869942 -0.0436681 0.995251
vn -0.258344 -0.0436681 0.965066
vn -0.118142 -0.233861 0.965066
vn 0.118142 -0.233861 0.965066
f 96//96 100//100 95//95 
f 97//97 99//99 100//100 
f 97//97 100//100 96//96 
f 98//98 99//99 97//97 

