mtllib Vis_Guide_cremaillere_Heures.mtl
usemtl Vis_Guide_cremaillere_Heures
#Wavefront export of shape 1-8-11-3--Vis_Guide__cremaillere_Heures

g Face_1
v 0.05725 -0.148 -0.02235
v 0.05915211 -0.149381966 -0.02235
v 0.05842557 -0.15161803 -0.02235
v 0.05607443 -0.15161803 -0.02235
v 0.055347890000000004 -0.149381966 -0.02235
v 0.05725 -0.148 -0.02235
v 0.05725 -0.148 -0.02135
v 0.05920959 -0.14959999999999998 -0.02135
v 0.058832630000000004 -0.14877719 -0.02135
v 0.058131582 -0.14820478 -0.02135
v 0.05922737 -0.1497 -0.02165
v 0.05922737 -0.1503 -0.02165
v 0.059247480000000005 -0.150100337 -0.02165
v 0.059247480000000005 -0.149899663 -0.02165
v 0.05920959 -0.1504 -0.02135
v 0.055290410000000005 -0.1504 -0.02135
v 0.056368418 -0.15179521999999998 -0.02135
v 0.058131582 -0.15179521999999998 -0.02135
v 0.05527263 -0.1503 -0.02165
v 0.05527263 -0.1497 -0.02165
v 0.05525252 -0.149899663 -0.02165
v 0.05525252 -0.150100337 -0.02165
v 0.055290410000000005 -0.14959999999999998 -0.02135
v 0.05725 -0.148 -0.02135
v 0.056368418 -0.14820478 -0.02135
v 0.05566737 -0.14877719 -0.02135
vn 0 1 -4.09133e-17
vn 0.951057 0.309017 -1.26429e-17
vn 0.587785 -0.809017 3.30995e-17
vn -0.587785 -0.809017 3.30995e-17
vn -0.951057 0.309017 -1.26429e-17
vn -2.44929e-16 1 -4.09133e-17
vn 0 1 -4.09133e-17
vn 0.979796 0.2 -8.18266e-18
vn 0.791316 0.611407 -2.50147e-17
vn 0.440791 0.89761 -3.67242e-17
vn 0.988686 0.15 -6.13699e-18
vn 0.988686 -0.15 6.13699e-18
vn 0.998741 -0.0501684 2.05255e-18
vn 0.998741 0.0501684 -2.05255e-18
vn 0.979796 -0.2 8.18266e-18
vn -0.979796 -0.2 8.18266e-18
vn -0.440791 -0.89761 3.67242e-17
vn 0.440791 -0.89761 3.67242e-17
vn -0.988686 -0.15 6.13699e-18
vn -0.988686 0.15 -6.13699e-18
vn -0.998741 0.0501684 -2.05255e-18
vn -0.998741 -0.0501684 2.05255e-18
vn -0.979796 0.2 -8.18266e-18
vn -2.44929e-16 1 -4.09133e-17
vn -0.440791 0.89761 -3.67242e-17
vn -0.791316 0.611407 -2.50147e-17
f 11//11 9//9 8//8 
f 11//11 10//10 9//9 
f 1//1 7//7 10//10 
f 1//1 10//10 11//11 
f 18//18 12//12 15//15 
f 2//2 13//13 12//12 
f 2//2 14//14 13//13 
f 2//2 11//11 14//14 
f 2//2 1//1 11//11 
f 3//3 12//12 18//18 
f 3//3 2//2 12//12 
f 19//19 17//17 16//16 
f 20//20 23//23 26//26 
f 25//25 20//20 26//26 
f 4//4 18//18 17//17 
f 4//4 3//3 18//18 
f 4//4 17//17 19//19 
f 5//5 21//21 20//20 
f 5//5 22//22 21//21 
f 5//5 19//19 22//22 
f 5//5 4//4 19//19 
f 6//6 25//25 24//24 
f 6//6 20//20 25//25 
f 6//6 5//5 20//20 

g Face_2
v 0.05922737 -0.1497 -0.02165
v 0.05920959 -0.14959999999999998 -0.02135
v 0.05527263 -0.1497 -0.02165
v 0.055290410000000005 -0.14959999999999998 -0.02135
v 0.056587936000000005 -0.149516493 -0.0210994784
v 0.057912064 -0.149516493 -0.0210994784
vn -0 -0.948683 0.316228
vn -0 -0.948683 0.316228
vn -0 -0.948683 0.316228
vn -0 -0.948683 0.316228
vn -0 -0.948683 0.316228
vn -0 -0.948683 0.316228
f 31//31 30//30 29//29 
f 28//28 32//32 27//27 
f 27//27 31//31 29//29 
f 27//27 32//32 31//31 

g Face_3
v 0.05527263 -0.1503 -0.02165
v 0.055290410000000005 -0.1504 -0.02135
v 0.05922737 -0.1503 -0.02165
v 0.05920959 -0.1504 -0.02135
v 0.057912064 -0.150483507 -0.0210994784
v 0.056587936000000005 -0.150483507 -0.0210994784
vn -0 0.948683 0.316228
vn -0 0.948683 0.316228
vn -0 0.948683 0.316228
vn -0 0.948683 0.316228
vn -0 0.948683 0.316228
vn -0 0.948683 0.316228
f 38//38 33//33 34//34 
f 35//35 37//37 36//36 
f 33//33 37//37 35//35 
f 33//33 38//38 37//37 

g Face_4
v 0.05725 -0.1485 -0.02235
v 0.058750000000000004 -0.15 -0.02235
v 0.05725 -0.1515 -0.02235
v 0.05575 -0.15 -0.02235
v 0.05725 -0.1485 -0.02235
v 0.05725 -0.1485 -0.02555
v 0.05595096 -0.14925 -0.02555
v 0.05595096 -0.15075 -0.02555
v 0.05725 -0.1515 -0.02555
v 0.058549040000000004 -0.15075 -0.02555
v 0.058549040000000004 -0.14925 -0.02555
v 0.05725 -0.1485 -0.02555
vn 0 1 -4.09133e-17
vn 1 2.83277e-16 -1.15898e-32
vn 5.66554e-16 -1 4.09133e-17
vn -1 -1.83697e-16 7.51565e-33
vn -1.13311e-15 1 -4.09133e-17
vn -1.13311e-15 1 -4.09133e-17
vn -0.866025 0.5 -2.04566e-17
vn -0.866025 -0.5 2.04566e-17
vn 5.66554e-16 -1 4.09133e-17
vn 0.866025 -0.5 2.04566e-17
vn 0.866025 0.5 -2.04566e-17
vn 0 1 -4.09133e-17
f 49//49 39//39 40//40 
f 49//49 50//50 39//39 
f 48//48 40//40 41//41 
f 48//48 49//49 40//40 
f 47//47 48//48 41//41 
f 46//46 41//41 42//42 
f 46//46 47//47 41//41 
f 45//45 42//42 43//43 
f 45//45 46//46 42//42 
f 44//44 45//45 43//43 

g Face_5
v 0.05725 -0.148 -0.02235
v 0.05915211 -0.149381966 -0.02235
v 0.05842557 -0.15161803 -0.02235
v 0.05607443 -0.15161803 -0.02235
v 0.055347890000000004 -0.149381966 -0.02235
v 0.05725 -0.1485 -0.02235
v 0.058750000000000004 -0.15 -0.02235
v 0.05725 -0.1515 -0.02235
v 0.05575 -0.15 -0.02235
vn 0 -4.09133e-17 -1
vn 0 -4.09133e-17 -1
vn 0 -4.09133e-17 -1
vn 0 -4.09133e-17 -1
vn 0 -4.09133e-17 -1
vn 0 -4.09133e-17 -1
vn 0 -4.09133e-17 -1
vn 0 -4.09133e-17 -1
vn 0 -4.09133e-17 -1
f 58//58 54//54 59//59 
f 55//55 59//59 54//54 
f 56//56 59//59 55//55 
f 57//57 53//53 58//58 
f 51//51 56//56 55//55 
f 52//52 57//57 56//56 
f 52//52 56//56 51//51 
f 52//52 53//53 57//57 
f 53//53 54//54 58//58 

g Face_6
v 0.05725 -0.1515 -0.02555
v 0.058549040000000004 -0.15075 -0.02555
v 0.058549040000000004 -0.14925 -0.02555
v 0.05725 -0.1485 -0.02555
v 0.05725 -0.1485 -0.02555
v 0.05595096 -0.14925 -0.02555
v 0.05595096 -0.15075 -0.02555
v 0.05725 -0.15 -0.02635
v 0.05725 -0.15 -0.02635
vn -1.15261e-16 -0.470588 -0.882353
vn 0.407541 -0.235294 -0.882353
vn 0.407541 0.235294 -0.882353
vn 1.72891e-16 0.470588 -0.882353
vn 5.76304e-17 0.470588 -0.882353
vn -0.407541 0.235294 -0.882353
vn -0.407541 -0.235294 -0.882353
vn 0 0 -0
vn 0 0 -0
f 65//65 64//64 67//67 
f 66//66 65//65 67//67 
f 60//60 66//66 67//67 
f 68//68 60//60 67//67 
f 61//61 60//60 68//68 
f 62//62 61//61 68//68 
f 63//63 62//62 68//68 

g Face_7
v 0.05922737 -0.1503 -0.02165
v 0.059247480000000005 -0.150100337 -0.02165
v 0.059247480000000005 -0.149899663 -0.02165
v 0.05922737 -0.1497 -0.02165
v 0.05527263 -0.1503 -0.02165
v 0.05527263 -0.1497 -0.02165
v 0.05525252 -0.149899663 -0.02165
v 0.05525252 -0.150100337 -0.02165
vn -0 -1.807e-16 1
vn -0 -1.807e-16 1
vn -0 -1.807e-16 1
vn -0 -1.807e-16 1
vn -0 -1.807e-16 1
vn -0 -1.807e-16 1
vn -0 -1.807e-16 1
vn -0 -1.807e-16 1
f 72//72 69//69 70//70 
f 72//72 70//70 71//71 
f 72//72 73//73 69//69 
f 72//72 74//74 75//75 
f 72//72 75//75 76//76 
f 72//72 76//76 73//73 

g Face_8
v 0.05920959 -0.1504 -0.02135
v 0.057912064 -0.150483507 -0.0210994784
v 0.056587936000000005 -0.150483507 -0.0210994784
v 0.055290410000000005 -0.1504 -0.02135
v 0.056368418 -0.15179521999999998 -0.02135
v 0.058131582 -0.15179521999999998 -0.02135
vn 0.287471 -0.0586797 0.95599
vn 0.0971243 -0.0709302 0.992742
vn -0.0971243 -0.0709302 0.992742
vn -0.287471 -0.0586797 0.95599
vn -0.129327 -0.263357 0.95599
vn 0.129327 -0.263357 0.95599
f 78//78 82//82 77//77 
f 79//79 81//81 82//82 
f 79//79 82//82 78//78 
f 80//80 81//81 79//79 

g Face_9
v 0.055290410000000005 -0.14959999999999998 -0.02135
v 0.056587936000000005 -0.149516493 -0.0210994784
v 0.057912064 -0.149516493 -0.0210994784
v 0.05920959 -0.14959999999999998 -0.02135
v 0.058832630000000004 -0.14877719 -0.02135
v 0.058131582 -0.14820478 -0.02135
v 0.05725 -0.148 -0.02135
v 0.056368418 -0.14820478 -0.02135
v 0.05566737 -0.14877719 -0.02135
vn -0.287471 0.0586797 0.95599
vn -0.0971243 0.0709302 0.992742
vn 0.0971243 0.0709302 0.992742
vn 0.287471 0.0586797 0.95599
vn 0.232171 0.179386 0.95599
vn 0.129327 0.263357 0.95599
vn 5.55112e-17 0.293399 0.95599
vn -0.129327 0.263357 0.95599
vn -0.232171 0.179386 0.95599
f 85//85 86//86 87//87 
f 88//88 85//85 87//87 
f 89//89 84//84 85//85 
f 89//89 85//85 88//88 
f 90//90 84//84 89//89 
f 91//91 83//83 84//84 
f 91//91 84//84 90//90 

